<?xml version="1.0" encoding="utf-8"?>
<!-- Generator: Adobe Illustrator 21.0.0, SVG Export Plug-In . SVG Version: 6.00 Build 0)  -->
<svg version="1.1" id="Calque_1" xmlns="http://www.w3.org/2000/svg" xmlns:xlink="http://www.w3.org/1999/xlink" x="0px" y="0px"
	 viewBox="0 0 1056.3 749.2" style="enable-background:new 0 0 1056.3 749.2;" xml:space="preserve">
<style type="text/css">
	.st0{fill:#FFFFFF;}
</style>
<g>
	<g>
		<path d="M1039.3,325.2C1019.9,147.9,902.8,15.3,777.8,29c-50.3,5.5-94.3,33.9-127.6,77.5l-20.9-75.2c0,0-215-19.4-372.5,178.9
			l42.5,64C166.6,279.3,58.8,346.1,40,445.5c-23.4,123.6,99.7,250.6,275,283.8c165.9,31.4,319-32.6,354.8-144.3
			c48.4,59.6,112.3,93.3,178.5,86.1C973.2,657.4,1058.8,502.6,1039.3,325.2z M610.7,177.5c-21.5,54.4-31.2,119.6-24.9,188.5
			c-48.2-39.8-112.5-70.2-186.1-84.1c-6.1-1.2-12.3-2.2-18.4-3.1C456.1,199.2,550.4,180.4,610.7,177.5z"/>
		<path d="M398.9,744.3c-28,0-56.7-2.7-85.2-8.1c-86.2-16.3-162.8-55.4-215.7-110c-53.6-55.3-76.6-119.9-64.8-182
			c9.5-50.1,40.6-93.5,90-125.6c44.9-29.1,101.3-46.6,163.6-50.8l-38.5-58l3.2-4c36.4-45.9,79-84,126.4-113.2
			c38-23.4,79.2-41.2,122.5-53c73.8-20,127.4-15.5,129.7-15.3l4.8,0.4l18.5,66.8C687.7,51.1,730.3,27.2,777,22
			c62.8-6.9,125.4,21.1,176.4,78.8c50.3,57,83.3,136.4,92.9,223.6l0,0c9.6,87.2-5.5,171.9-42.3,238.4
			c-37.2,67.4-92.3,108.3-155.1,115.1c-33.7,3.7-67.2-2.6-99.7-18.6c-27.9-13.8-53.8-34.2-77-60.6c-20.5,51-65.6,92.8-128.4,118.5
			C500.2,735.2,450.5,744.3,398.9,744.3z M265.5,210.5l46.5,70.1l-12.5,0.5c-63.7,2.5-123.7,19.9-168.8,49.2
			c-46.1,29.9-75.1,70.2-83.9,116.4C36,504.3,57.7,564.5,108,616.4c50.9,52.6,124.9,90.2,208.3,106c78.6,14.9,157.5,8.5,222.2-18.1
			c63.6-26.1,107.8-69.2,124.6-121.5l3.9-12.3l8.2,10c23.9,29.5,50.9,51.7,80.3,66.2c30.1,14.9,61,20.7,92,17.3
			c121-13.3,204-165,185-338.1c-9.2-84.3-41-161-89.5-215.9C895,55.9,836.7,29.6,778.5,36c-46.9,5.1-89.3,31-122.8,74.8l-8.5,11.2
			l-23.3-84c-14.6-0.6-61.3-0.9-120.5,15.3c-41.9,11.4-81.8,28.8-118.6,51.5C340.2,132.2,300.1,167.8,265.5,210.5z M594.2,382
			l-12.9-10.7c-49.4-40.8-112.7-69.4-182.9-82.7c-5.8-1.1-11.9-2.1-18.1-3l-13.3-2l9.2-9.8c34.1-36.2,75.4-63.5,122.8-81.1
			c34.8-12.9,72.3-20.4,111.3-22.3l10.8-0.5l-4,10.1c-22,55.4-30.4,119.5-24.5,185.3L594.2,382z M395.8,274c1.8,0.3,3.5,0.6,5.2,1
			c66.7,12.6,127.4,38.7,176.6,75.7c-3.3-58.4,4.5-115.1,22.7-165.5c-33.7,2.6-66.1,9.6-96.4,20.8
			C462.8,221.2,426.5,244.1,395.8,274z"/>
	</g>
	<g>
		<g>
			
				<ellipse transform="matrix(0.994 -0.1089 0.1089 0.994 -31.6903 88.0466)" class="st0" cx="790" cy="334.1" rx="227.7" ry="323"/>
			<path d="M807.2,663.1c-56.4,0-111.8-27.9-157.7-79.8c-50.3-57-83.3-136.4-92.9-223.6c-9.6-87.2,5.5-171.9,42.3-238.4
				C636.1,53.8,691.2,12.9,754,6c62.8-6.9,125.4,21.1,176.4,78.8c50.3,57,83.3,136.4,92.9,223.6c9.6,87.2-5.5,171.9-42.3,238.4
				c-37.2,67.4-92.3,108.3-155.1,115.1C819.7,662.8,813.4,663.1,807.2,663.1z M570.6,358.1c19,173.2,132.9,303.3,253.8,290.1
				c121-13.3,204-165,185-338.1c-9.2-84.3-41-161-89.5-215.9C872,39.9,813.7,13.6,755.5,20c-58.1,6.4-109.4,44.7-144.4,108
				C575.7,192,561.3,273.8,570.6,358.1z"/>
		</g>
	</g>
	<g>
		<g>
			
				<ellipse transform="matrix(0.186 -0.9825 0.9825 0.186 -208.9072 726.9657)" class="st0" cx="334.3" cy="489.6" rx="227.7" ry="323"/>
			<path d="M376.2,728.3c-28.1,0-56.8-2.7-85.6-8.1c-86.2-16.3-162.8-55.4-215.7-110c-53.6-55.3-76.6-119.9-64.8-182
				C21.8,366.1,66.9,314.4,137,282.5c69.2-31.5,154.8-39.9,241-23.6c86.2,16.3,162.8,55.4,215.7,110c53.6,55.3,76.6,119.9,64.8,182
				s-56.8,113.8-126.9,145.7C485.5,717.6,432.2,728.3,376.2,728.3z M292.4,264.8c-53.9,0-105.3,10.3-149.6,30.5
				C77,325.2,34.7,373.3,23.8,430.8S34.7,548.5,85,600.4c50.9,52.6,124.9,90.2,208.3,106c171.2,32.4,328.9-38.5,351.5-158.1
				c22.6-119.6-98.2-243.2-269.4-275.6C347.4,267.4,319.6,264.8,292.4,264.8z"/>
		</g>
		<path d="M251.5,544.9c-11.5-2.2-19.3-13.5-17.1-25.1c2.1-11,13.4-18.7,25-16.5c11.8,2.2,18.7,13.4,16.5,25
			C273.8,539.3,262.4,547,251.5,544.9 M478.7,383.7c-96.7-18.3-117.5-14.2-135,78.5c-16.4,86.6-61.2,127.4-131.1,114.2
			c-77.4-14.6-99.9-70.9-85.3-148l8.3-43.6c0.4-2,1.1-4,1.7-5.7c4.4-10.8,16.2-17.6,29.2-15.1l146.3,27.7c8.4,1.6,5.8,15.2-4,13.3
			l-80.8-15.3c-2.3-0.4-4.4-0.5-6.7-0.7c-14.6-0.1-26.9,10.8-29.5,24.6c-0.4,2-0.8,4-0.6,6.2c0.3,4.8,1.3,9.2,3.4,13.5l-1.1,1
			c-4.8,4.8-12.4,40.1-16.7,62.9c-1.6,8.4-2.6,15.1-3,17.7c-1.4,9,1.4,14.9,8,16.2c6.6,1.3,12.4-2.4,14.3-12.2
			c0.7-3.5,13.3-65.4,13.7-66.2c1.4-2.4,4.3-4,7.5-3.4l30.9,5.8l22.5,4.3c6.3,1.2,12.2-2.8,13.4-9.1c0.1-0.6,0.3-1.4,0.1-2.4
			c0.2-5.7-3.7-10.3-9.8-11.4l-53.1-10.1l-1.7-0.3c-2.8-0.8-4.8-3.3-5.1-6.1c-0.3-3,1.4-5.7,3.7-7.1c2-0.8,3.7-0.8,5.5-0.5
			l54.6,10.3l27.1,5.1c16.7,3.2,31.8-8.3,34.8-24.2c3.2-17-7.7-32-24.7-35.2l-48.2-9.1l-96.7-18.3c-27.1-5.1-52.5,11.9-57.6,39
			L100.8,444c-13.7,72.2,18.4,138,107,154.8c76.8,14.5,140-33.6,158.1-129.1c9.5-49.9,16.4-80.3,59.1-72.2l40.1,7.6
			c38.4,7.3,95.6,43.2,80.2,124.3c-10.8,56.9-75.2,81.1-108.4,74.9l-11.3-2.1c-28.3-5.4-45-10-40.4-34.6l9.3-49.1l14.8-77.9l0.4-2.3
			c1.3-3.6,5.8-5.5,9.4-3.9c3.3,1.5,4.5,4.4,3.8,8.2c-5.1,26.8-10.2,53.7-15,80.6c-1.9,10.1,2.2,15.1,7.4,16.1
			c6.1,1.1,13.7-3.1,15.4-11.7l6.8-35.8c2.9-15.3,5.8-30.6,8.4-45.9c3.1-16.4-8.3-31.8-23.9-34.7c-2.6-0.5-5.2-0.7-8-0.3
			c-13.9,1-24.8,11.1-27.5,25l-12.3,65.2l-11.8,62.3c-1.2,6.3-1.4,12.3-0.2,18.5c3.9,20.2,19,35.6,39.2,39.4l27.4,5.2
			c52.5,9.9,124.8-16.4,139.2-92.3C584.6,446.5,526.1,392.7,478.7,383.7"/>
	</g>
	<g>
		<path class="st0" d="M233.8,194.2C391.3-4.2,606.3,15.2,606.3,15.2l41.2,148.4c0,0-214.9-35.5-331.4,154.5L233.8,194.2z"/>
		<path d="M316.4,331.2l-91.2-137.4l3.2-4c36.4-45.9,79-84,126.4-113.2c38-23.4,79.2-41.2,122.5-53C551.1,3.5,604.7,8.1,607,8.3
			l4.8,0.4l45.4,163.7l-10.8-1.8c-0.5-0.1-53.6-8.5-119.9,6c-38.7,8.5-74.4,23.1-105.9,43.3c-39.4,25.3-72.5,59.6-98.5,101.9
			L316.4,331.2z M242.5,194.5L316,305.3c26.2-40,58.9-72.8,97.3-97.3c33-21.1,70.3-36.3,110.7-45.2c51.7-11.3,94.7-9.2,114-7.4
			L600.9,21.9c-14.6-0.6-61.3-0.9-120.5,15.3C438.5,48.7,398.6,66,361.8,88.7C317.2,116.2,277.1,151.8,242.5,194.5z"/>
	</g>
	<g>
		<path d="M330.7,254c-1,0.9-2.3,1.7-3.9,2.1c-1.6,0.5-3.5,0.8-5.9,0.9c-0.8,0-1.6-0.2-2.1-0.8c-0.5-0.5-0.7-1.2-0.7-2
			c0-0.8,0.3-1.4,0.8-1.9c0.5-0.4,1-0.7,1.6-0.7c1.8-0.1,3.1-0.3,4.2-0.5c1-0.2,1.8-0.6,2.4-1.1c0.3-0.2,0.5-0.8,0.8-1.6
			c0.2-0.8,0.4-1.7,0.6-2.9c0.1-1.1,0.2-2.3,0-3.6c-0.1-1.3-0.4-2.6-0.8-3.9c-2.1-6.6-4.8-13.3-8-19.9c-3.3-6.6-6.7-13.5-10.2-20.6
			l-3.4-7.2c-0.2-0.2-0.3-0.6-0.3-1c-2.3-3.7-4.1-7.6-5.8-11.7c-1.7-4.1-2.4-8.5-2.2-13.3c0.1-3.2,1-5.7,2.6-7.2
			c2.4-2.2,5.9-2.5,10.6-0.6c0.4,0.1,0.7,0.4,1,0.7c0.4,0.5,0.7,1.1,0.7,1.8c0,0.7-0.2,1.4-0.9,1.9c-0.7,0.7-1.7,0.9-2.7,0.5
			c-1.8-0.7-3-1-3.8-0.9c-0.7,0.2-1.1,0.3-1.3,0.4c-0.6,0.6-0.9,1.7-1,3.5c-0.1,3.8,0.5,7.6,1.8,11c1.3,3.4,3,7.1,5.2,10.8
			c0.7-0.2,1.4-0.7,2.1-1.3c0.4-0.4,0.8-0.7,1.2-1.3c0.4-0.5,0.8-1,1.3-1.6c0.5-0.5,1.2-0.7,2-0.8c0.7,0,1.4,0.2,1.9,0.9
			c0.5,0.5,0.7,1.1,0.7,1.7c0,0.6-0.2,1.2-0.5,1.9c-0.3,0.6-0.8,1.2-1.3,1.8c-0.5,0.6-1.1,1.1-1.6,1.6c-0.5,0.4-1.1,0.9-1.6,1.2
			c-0.5,0.4-1.2,0.7-1.9,1l2,4.2c1.6,3.5,3.4,7.1,5.4,10.9c1.9,3.8,3.8,7.6,5.6,11.5c1.8,3.8,3.4,7.6,4.8,11.3
			c1.4,3.7,2.5,7.1,3.2,10.3c0.7,3.1,0.8,6,0.5,8.5c-0.3,2.5-1.2,4.5-2.8,6L330.7,254z"/>
		<path d="M351,187.6c0.5,0.6,0.7,1.2,0.5,1.9l0.1-0.1c0,1,0,2.2,0.1,3.5c0,1.3-0.1,2.5-0.4,3.9c-0.3,1.3-0.7,2.6-1.3,3.9
			c-0.6,1.2-1.6,2.4-2.9,3.4c-0.6,0.5-1.3,0.8-2.1,1.1s-1.6,0.4-2.5,0.4c-0.8,0.1-1.6-0.1-2.4-0.4c-0.8-0.2-1.4-0.7-2-1.4
			c-0.5-0.6-0.7-1.2-0.7-1.8c0.1-0.6-0.3-1.3-0.8-2c-0.3-0.4-0.6-0.7-1-1.1c-0.4-0.3-0.7-0.7-1.1-1.1c-1-1.2-1.8-2.7-2.2-4.6
			c-0.5-1.7-1.1-3.5-1.7-5.3c-0.4-0.9-0.8-2.2-1.3-3.8c-0.6-1.6-1-3.1-1.4-4.8c-0.4-1.7-0.5-3.2-0.5-4.8c0-1.4,0.4-2.5,1.2-3.1
			c0.6-0.5,1.2-0.7,2-0.6c0.7,0.1,1.3,0.5,1.7,0.9c0.4,0.5,0.6,1.2,0.7,2c-0.2,1.7-0.1,3.4,0.3,5.1c0.4,1.7,0.8,3.4,1.4,5.2l0.3-0.2
			c1.6-1.3,2.7-3.3,3.1-5.9c0.4-2.5,0-5.2-1.1-7.9c-0.3-0.4-0.7-0.6-1.3-0.5c-0.5,0.1-1.1,0.2-1.7,0.4c-0.6,0.1-1.1,0.2-1.8,0.2
			c-0.6,0-1.2-0.2-1.6-0.8c-0.5-0.6-0.7-1.3-0.6-2c0.1-0.7,0.5-1.3,1-1.8c0.9-0.7,1.8-1.1,2.9-1.3c1-0.1,2-0.1,3,0.2
			c1,0.3,1.8,0.6,2.6,1.1c0.7,0.5,1.3,0.9,1.8,1.4c0.4,0.5,0.7,1.1,1,1.7c2.5,6.3,2.1,11.7-1,16.3l-0.5,0.7c-0.3,0.4-0.6,0.9-1,1.4
			c-0.4,0.6-0.8,1-1.3,1.4c-0.5,0.4-1,0.7-1.7,1.1c0.4,0.9,0.6,1.9,0.8,2.9c0.2,1,0.7,2,1.3,2.7c0.3,0.4,0.6,0.8,1,1.1
			c0.4,0.3,0.7,0.7,1,1.1c0.4,0.5,0.8,1.1,1.2,1.7c0.4,0.6,0.7,1.4,0.8,2.1c0.3,0,0.5-0.1,0.7-0.3c0.8-0.6,1.3-1.3,1.7-2.1
			c0.5-0.7,0.7-1.6,0.9-2.4c0.1-0.8,0.2-1.7,0.3-2.7c0-0.9-0.1-1.8-0.1-2.9l0.1,0.1c-0.2-0.9,0.2-1.7,1-2.4c0.6-0.5,1.2-0.7,2-0.7
			c0.6,0.1,1.3,0.4,1.7,0.9L351,187.6z"/>
		<path d="M382.8,180c-1,0.7-1.9,0.8-2.6,0.3c-0.7-0.5-1.4-1.2-2.1-2.1c-0.6-0.8-1.1-1.9-1.6-3c-0.5-1.1-0.5-2.3-0.1-3.4l-1.2-1.6
			c-1.1-1.5-1.8-3.1-2.1-5c-0.3-1.9-0.5-3.8-0.7-5.8c-0.2-2-0.3-4.1-0.5-6.1c-0.2-2-0.7-3.9-1.5-5.7c-1.7,0.4-3.1,1-4.3,1.8
			c-2,1.4-3.3,3.3-3.8,5.7c-0.5,2.4-0.6,5.4-0.2,8.9c0.1,1.3,0.2,2.6,0.1,4.1c0,1.5,0,2.8,0.1,4.2c0.1,1.4,0.2,2.7,0.4,3.9
			c0.2,1.2,0.5,2.2,1.1,3c0.3,0.4,0.7,0.8,1.1,1.2c0.4,0.4,0.9,0.4,1.2,0.1c0.7-0.5,1.3-1.2,1.9-2c0.5-0.8,1.3-1.6,2.1-2.2
			c0.7-0.5,1.6-0.8,2.4-0.8c0.8,0,1.4,0.4,1.9,1.1c0.5,0.7,0.6,1.4,0.6,2.1c-0.1,0.7-0.4,1.3-1,1.7c-0.1,0.1-0.1,0.1-0.4,0.1
			c-0.1,0.1-0.2,0.2-0.3,0.2c-0.6,0.4-1.2,1.1-1.8,2.1c-0.6,1-1.4,1.8-2.5,2.6c-0.5,0.4-1.2,0.7-1.9,0.9c-0.8,0.2-1.5,0.3-2.4,0.1
			c-0.9-0.2-1.8-0.6-2.7-1.1c-1-0.6-1.8-1.4-2.7-2.6c-0.8-1.1-1.4-2.4-1.7-3.6c-0.3-1.2-0.6-2.6-0.6-4.1c-0.1-1.4-0.2-3-0.2-4.7
			c-0.1-1.7-0.2-3.4-0.3-5.3c-0.4-4.6-0.1-8.5,0.6-11.6c0.8-3.2,2.7-5.7,5.6-7.8c0.6-0.4,1.4-0.9,2.4-1.4c1-0.5,2.1-0.9,3.1-1.2
			c-0.1-1.3,0.2-2.6,0.7-4c0.5-1.3,1.3-2.3,2.4-3c0.7-0.5,1.5-0.9,2.4-0.8c0.8,0,1.4,0.4,1.9,1.1c0.5,0.7,0.7,1.4,0.4,2.1
			c-0.2,0.6-0.5,1.2-1,1.8c-0.4,0.6-0.8,1.1-1.1,1.7c-0.4,0.6-0.4,1.2-0.1,1.9c1.1,1.8,1.9,3.7,2.4,5.5c0.4,1.8,0.8,3.8,1,5.6
			c0.2,1.9,0.4,3.8,0.4,5.7c0.1,1.9,0.3,3.7,0.7,5.6c0.1,0.7,0.5,1.5,1,2.2l0.5,0.7c0.2-0.2,0.4-0.3,0.7-0.4c0.2,0,0.4-0.2,0.7-0.4
			c0.4-0.3,0.7-0.7,0.8-1.2c0-0.5,0-1,0.1-1.6c0-0.5,0-1,0.2-1.7c0.1-0.5,0.4-1,1-1.4c0.7-0.5,1.4-0.7,2.1-0.5
			c0.7,0.2,1.2,0.6,1.6,1.1c0.6,0.8,0.9,1.7,0.8,2.8c0,1-0.2,1.9-0.6,2.9c-0.4,0.9-0.9,1.8-1.4,2.6c-0.6,0.8-1.1,1.3-1.6,1.7
			c-0.5,0.4-1.1,0.7-1.6,0.9c-0.5,0.2-0.9,0.4-1.1,0.5c-0.4,0.3-0.5,0.5-0.5,0.7s0.4,0.7,0.8,1.3c0.2,0.2,0.3,0.5,0.5,0.7
			c0.2,0.2,0.4,0.5,0.6,0.7c0.5,0.7,0.6,1.4,0.5,2.1c-0.1,0.8-0.5,1.4-1.2,1.8L382.8,180z"/>
		<path d="M400.3,156.9c0.1,1.1,0.1,2.2-0.1,3.1c-0.2,0.9-0.4,1.6-0.6,2.1l-0.4,1c-0.2,0.7-0.4,1.2-0.2,1.8c0.1,0.6,0.2,1,0.2,1.5
			c0,0.4,0,0.7-0.1,1.2c-0.1,0.4-0.5,0.7-1.1,1.1c-0.7,0.4-1.4,0.5-2.1,0.3c-0.7-0.2-1.2-0.7-1.6-1.4c-0.7-1.2-1-2.3-0.8-3.4
			c0.1-1,0.3-1.9,0.6-2.7l0.2-0.8c0.2-0.5,0.4-1.2,0.6-2.2c0.2-1,0.1-1.8-0.3-2.5c-0.2-0.2-0.4-0.5-0.6-0.7
			c-0.1-0.2-0.3-0.5-0.5-0.8c-1.5-2.5-2.5-5.1-2.8-7.8c-0.4-2.6-0.6-5.2-0.7-7.7c0-0.7-0.3-1.7-0.8-3.1c-0.5-1.2-0.9-2.6-1.2-4
			c-0.1,0-0.3-0.3-0.5-0.6c-0.2-0.3-0.3-0.7-0.3-1.1c-0.3-2.5-1-5-1.9-7.5c-0.9-2.4-1.8-4.9-2.7-7.4c-0.5-1.3-0.1-2.3,1.1-3
			c0.6-0.4,1.3-0.5,2.1-0.3c0.7,0.2,1.2,0.6,1.6,1.3c0.7,1.2,1.4,2.7,2,4.6c0.6,1.9,1.3,3.9,2,6.3c1-0.5,2-0.8,2.9-0.9
			c0.9-0.1,1.5-0.2,1.7-0.4c0.2-0.1,0.4-0.4,0.6-0.8c0.2-0.3,0.5-0.6,0.8-0.8c0.6-0.4,1.3-0.5,2-0.4c0.6,0.2,1.2,0.6,1.6,1.2
			c0.3,0.5,0.4,1,0.3,1.6c-0.1,0.6-0.2,1-0.5,1.6c-0.2,0.5-0.6,1-1,1.4c-0.4,0.4-0.8,0.7-1.1,0.9c-1,0.6-2.2,1-3.4,1.2
			c-1.2,0.2-1.9,0.4-2.1,0.6c-0.4,0.2-0.5,0.7-0.4,1.5c0.1,0.8,0.4,1.6,0.8,2.5c0.4,1,0.7,1.9,1.1,3c0.3,1.1,0.6,2,0.6,3
			c0.1,2.2,0.3,4.5,0.5,6.7c0.3,2.2,1,4.2,2.2,6.2l0.1,0.2c0.2-0.5,0.4-1,0.7-1.7c0.2-0.6,0.3-1.4,0.6-2.2c0.3-0.7,0.6-1.5,1.1-2.2
			c0.4-0.7,1-1.3,1.8-1.8c0.5-0.3,1.2-0.4,2-0.3s1.3,0.5,1.7,1.1c0.3,0.5,0.5,1,0.5,1.4c0,0.5-0.1,0.8-0.4,1.3
			c-0.2,0.5-0.5,0.9-0.9,1.5c-0.4,0.6-0.6,1.2-0.9,2.1c-0.3,0.9-0.7,2-1.3,3.2c-0.6,1.1-1.5,2.1-2.8,2.9L400.3,156.9z"/>
		<path d="M413.6,129.9c-0.7,0.4-1.4,0.4-2.1,0.2c-0.7-0.3-1.2-0.7-1.5-1.3c-0.2-0.4-0.3-0.7-0.3-1c-0.6-5.3,1.1-8.9,4.9-10.9
			c0.2-0.1,0.4-0.2,0.7-0.3s0.4-0.2,0.7-0.3c-0.1-1.9,0.4-3.1,1.5-3.7c0.7-0.4,1.4-0.4,2.1-0.2s1.2,0.7,1.5,1.3
			c0.2,0.4,0.3,1,0.3,1.5c-0.1,1-0.1,2.6,0.1,4.9c0.2,2.3,0.4,4.7,0.6,7.4c0.2,2.7,0.6,5.3,1,8c0.4,2.6,0.7,4.8,1.1,6.5
			c2-2.2,3.1-4.7,3.4-7.9c0.2-1.9,0.7-3.2,1.8-4c0.9-0.8,2-1.4,2.8-1.9c-0.3-1.8-0.5-3.7-0.4-5.6c0-1.8,0-3.7,0-5.7
			c0-1.8-0.1-3.8-0.3-5.7c-0.2-1.8-0.7-3.8-1.4-5.8c-0.6-1.4-0.2-2.5,1.2-3.2c0.7-0.4,1.5-0.5,2.2-0.1c0.7,0.4,1.2,0.8,1.6,1.5
			c0.9,2.5,1.5,5.2,1.8,8c0.3,2.7,0.4,5.4,0.4,8c0,2.6,0.1,5,0.2,7.2c0.1,2.2,0.6,4.1,1.3,5.4c0.3,0.5,0.5,0.9,0.7,1.1
			c0.4-0.7,0.7-1.4,1.2-2.3c0.5-0.8,0.9-1.6,1.4-2.4c0.4-0.7,0.9-1.4,1.4-2c0.4-0.5,0.8-1,1.2-1.1c0.6-0.3,1.3-0.3,2-0.2
			c0.6,0.2,1.2,0.6,1.5,1.4c0.2,0.4,0.3,0.9,0.3,1.4c0,0.5-0.2,0.9-0.5,1.4c-1.3,2-2.6,4.1-4,6.5c-1.4,2.4-2.4,4.8-3.2,7.4
			c-0.2,0.7-0.6,1.2-1.2,1.6c-0.7,0.4-1.4,0.4-2.2,0.2c-0.7-0.3-1.2-0.7-1.5-1.3c-0.3-0.7-0.4-1.5-0.1-2.4c0.3-0.9,0.6-1.8,0.9-2.6
			c-0.6-0.6-1.2-1.3-1.7-2c-0.5-0.8-0.9-1.5-1.2-2.1l-0.5-0.9c-0.5,0.4-0.9,0.8-0.9,1.3c-0.6,7-4.5,12.3-11.4,15.9
			c-0.7,0.4-1.6,0.6-2.3,0.5c-0.8-0.1-1.4-0.5-1.9-1.4c-0.4-0.8-0.4-1.6,0-2.3c0.4-0.6,1.1-1.2,1.9-1.6l0.6-0.3
			c-0.3-1.2-0.7-2.7-1-4.5c-0.3-1.8-0.6-3.8-0.9-5.9c-0.4-2.1-0.6-4.3-0.8-6.5c-0.2-2.2-0.4-4.2-0.6-6.1c-0.5,0.5-0.9,1.1-1.2,1.9
			s-0.3,1.9-0.1,3.4c0.1,1.2-0.4,2.1-1.4,2.6L413.6,129.9z"/>
		<path d="M452.3,108.9c-0.5,0.2-1.1,0.3-1.9,0.1c-0.8-0.2-1.4-0.6-1.7-1.4c-0.3-0.6-0.3-1.2-0.3-1.8c0.4-2.7,1.2-4.8,2.3-6.5
			c1.2-1.7,2.7-2.9,4.4-3.7l0.1,0c-0.1-0.3-0.3-0.6-0.4-0.8s-0.3-0.5-0.4-0.7c-0.5-1.1-0.8-2.3-0.9-3.4c-0.1-1,0.4-1.9,1.5-2.3
			c0.7-0.3,1.3-0.3,1.9-0.1c0.5,0.3,1,0.7,1.3,1.2c0.3,0.6,0.7,1.2,1.1,1.9c0.3,0.8,0.6,1.4,0.9,2.1c0.8-0.8,1.6-1.8,2.2-2.9
			c0.7-1.1,1.8-1.9,3.2-2.6c1.4-0.6,2.5-0.9,3.5-0.9c1,0,1.9,0.2,2.7,0.5c0.8,0.3,1.6,0.9,2.3,1.8c0.6,0.8,1.5,1.8,2.2,2.9
			c0.4,0.9,0.4,1.7,0.1,2.6c-0.3,0.8-1,1.4-2,1.9c-0.4,0.2-0.9,0.2-1.5-0.1c-0.6-0.2-1.1-0.5-1.6-1c-0.4-0.9-0.7-1.6-1-2.1
			c-0.3-0.4-0.5-0.7-0.7-0.9c-0.2-0.2-0.4-0.2-0.8-0.2c-0.3,0.1-0.7,0.3-1.2,0.5c-0.9,0.9-1.7,1.8-2.4,2.8c-0.7,1-1.6,2-2.5,2.8
			c0.5,1.9,0.7,3.9,0.7,6c0,2.1-0.1,4,0,5.9l-0.6,1.4c0,1.9,0.1,4,0.1,6.2c0.1,2.3,0.1,4.4,0.1,6.5l0.1,4.2c0,0.2-0.1,0.5-0.1,1
			c0,0.5-0.1,0.9-0.2,1.4c-0.1,0.4-0.4,1-0.7,1.4c-0.3,0.4-0.8,0.9-1.5,1.1c-0.8,0.4-1.6,0.5-2.2,0.2c-0.6-0.2-1.1-0.8-1.5-1.7
			c-0.2-0.5-0.3-1.1-0.1-1.8c0.2-0.6,0.6-1,1.1-1.3l-0.6-4.4c0.2-2.2,0.3-4.4,0.3-6.6c0-2.1-0.1-4.2-0.1-6.3l0.5-2
			c0-1.6-0.1-3.2,0-4.7c0-1.5-0.1-2.9-0.3-4.3c-0.8,0.3-1.5,0.9-2.4,1.8c-0.9,0.9-1.6,2.5-2,4.7c-0.1,0.3-0.2,0.7-0.6,1.2
			c-0.3,0.4-0.6,0.7-0.8,0.7L452.3,108.9z"/>
		<path d="M492.9,120.8c-0.8,0.3-1.5,0.2-2.3-0.1c-0.8-0.3-1.3-0.8-1.5-1.6c-0.2-0.6-0.3-1.3-0.1-1.8c-0.2-0.3-0.3-0.7-0.5-1.1
			c-0.1-0.3-0.2-0.7-0.4-1c-0.7-1.9-1-3.8-0.8-5.6c0-1.8,0.3-3.5,0.7-5.2c0.4-1.7,0.7-3.4,1.2-5c0.4-1.6,0.6-3.2,0.6-4.7
			c-0.1-1,0-2.1,0.2-3.1c0.2-0.9,0.3-1.9,0.5-2.7c0.2-0.8,0.3-1.5,0.4-2c0.1-0.5,0.2-0.9,0.1-1.1c-0.2-0.4-0.4-0.6-0.8-0.5
			c-0.5,0.2-0.9,0.6-1.5,1.3c-0.5,0.6-1,1.4-1.4,2.3c-0.5,0.9-1,1.6-1.7,2.4c-0.6,0.7-1.4,1.3-2.3,1.6c-0.8,0.3-1.5,0.2-2.3-0.2
			c-0.8-0.3-1.3-0.9-1.6-1.7c-0.2-0.6-0.2-1.1-0.1-1.5c0.1-0.4,0.4-0.9,0.7-1.3c0.3-0.4,0.7-0.9,1.2-1.4c0.5-0.5,1-1.1,1.4-1.9
			c0.6-0.9,1.3-1.9,2.1-3c0.9-1,1.9-1.8,3.1-2.2c0.8-0.3,1.6-0.4,2.6-0.2c0.8,0.2,1.6,0.4,2.5,0.9c0.7,0.4,1.4,1,2,1.6
			c0.5,0.7,1,1.3,1.2,2c0.4,1,0.5,2.1,0.4,3.2c-0.1,1.1-0.2,2-0.4,3.1c-0.2,0.9-0.4,1.9-0.6,2.7s-0.3,1.6-0.3,2.2
			c0,1.7-0.1,3.5-0.5,5.2c-0.4,1.7-0.8,3.3-1.2,4.9s-0.7,3.1-0.9,4.6c-0.1,1.5,0,2.9,0.4,4.2c2.3-2.1,3.8-4.8,4.4-8
			c0.1-0.5,0.3-1,0.7-1.4c0.4-0.3,0.8-0.6,1.2-0.7c0.8-0.3,1.6-0.3,2.3,0.2c0.7,0.4,1.2,0.9,1.5,1.7c0.2,0.5,0.3,1,0.2,1.5
			c-0.3,1.4-0.8,2.8-1.4,4.3c-0.6,1.5-1.4,2.9-2.4,4.2c-1,1.3-2,2.5-3.3,3.6c-1.3,1-2.7,1.8-4.1,2.4L492.9,120.8z M491.6,75.1
			c-0.7,0.2-1.4,0.4-2.2,0.4c-0.8,0.1-1.5,0-2-0.1l-1.1,0.4c-0.8,0.1-1.3-0.2-1.9-0.7c-0.5-0.5-0.9-1.2-1.2-2
			c0.1-0.3,0.3-0.8,0.6-1.3c0.3-0.5,0.7-0.8,1.3-1c0.1,0,0.5-0.1,0.9-0.1l1-0.4c0.5,0,1.1,0,1.6,0c0.5,0,1-0.1,1.4-0.2
			c0.5-0.2,0.9-0.5,1.1-0.9c0.3-0.4,0.6-0.6,0.8-0.7c0.5-0.2,1.2,0,1.8,0.5c0.7,0.5,1.1,1,1.3,1.4c0.3,0.8,0,1.7-0.8,2.7
			c-0.8,1.1-1.8,1.8-2.9,2.2L491.6,75.1z"/>
		<path d="M536.6,102.6c-0.6,0.2-1.3,0.3-1.9,0.3c-0.3,0.7-0.8,1.6-1.6,2.5c-0.8,0.9-1.6,1.5-2.5,1.8c-0.6,0.2-1.3,0.2-2-0.2
			c-0.7-0.3-1.1-0.7-1.3-1.5c-0.3-1.1,0-2.1,0.8-2.8c1.2-0.9,1.8-1.8,1.9-2.5c0-0.7-0.1-1.4-0.3-2.1c-0.4-1.3-0.5-2.6-0.3-3.8
			c0.1-1.2,0.4-2.3,0.8-3.3l0.2-0.8c0.4-2.1,0.8-4.1,1.4-6c0.5-1.8,0.7-3.7,0.6-5.8l-0.1-0.7c0-0.5,0-1-0.2-1.9
			c-0.1-0.7-0.1-1.6,0-2.5c-0.8-0.4-1.2-0.6-1.5-0.6c-0.3,0-0.4-0.1-0.5,0c-0.5,0.8-1,1.8-1.5,2.9c-0.5,1.1-1.1,2.2-1.7,3.3
			c-0.7,1-1.4,2-2.4,3.1c-1,0.9-2.1,1.7-3.4,2.2c-0.2,1.1-0.4,2.1-0.6,3.3c-0.3,1.1-0.5,2.3-0.6,3.6c0,1-0.1,2.2-0.4,3.4
			c-0.3,1.1-0.5,2.2-0.7,3.5c-0.3,1.1-0.4,2.2-0.6,3.3c-0.2,1.1-0.1,2,0.1,2.9c0.1,0.6,0.1,1.4,0,2.3c-0.1,0.9-0.4,1.7-0.9,2.5
			c-0.4,0.8-1.1,1.6-1.7,2.3c-0.6,0.8-1.5,1.2-2.4,1.5c-0.6,0.2-1.3,0.2-2-0.2c-0.7-0.3-1.1-0.7-1.3-1.5c-0.2-0.7-0.1-1.3,0.3-1.8
			c0.3-0.5,0.7-0.9,1.2-1.3c0.5-0.4,0.9-0.8,1.3-1.2c0.4-0.4,0.5-0.8,0.5-1.4c-0.2-1.2-0.4-2.4-0.2-3.5c0.1-1.1,0.2-2.3,0.5-3.4
			c0.2-1.1,0.4-2.2,0.7-3.5c0.2-1.2,0.4-2.5,0.5-4c0.1-0.7,0.1-1.6,0.3-2.5c0.1-0.9,0.3-1.8,0.4-2.7c0.1-0.9,0.3-1.7,0.4-2.4
			c0.1-0.7,0.1-1.3,0-1.6c-0.1-0.3-0.2-0.6-0.3-0.9c-0.2-0.2-0.3-0.5-0.5-0.8c-1,0.6-1.7,1.3-2.1,2.2c-0.4,1-0.7,2.4-0.8,4.3
			c0.1,0.6-0.1,1.1-0.5,1.6c-0.3,0.5-0.8,0.8-1.4,1c-0.8,0.2-1.5,0.1-2.2-0.3c-0.6-0.4-1-0.9-1.2-1.6c-0.1-0.3-0.2-0.5-0.1-0.7
			c0.1-1.1,0.2-2.2,0.4-3.4c0.2-1.1,0.5-2.2,1-3.4c0.5-1.1,1.2-2.1,2.2-3c0.9-0.8,2.2-1.5,3.7-1.9c0.4-0.1,0.9-0.2,1.5-0.1
			c0.5,0,1.1,0.2,1.7,0.5c0.6,0.3,1.1,0.7,1.6,1.3c0.6,0.6,1.1,1.4,1.5,2.4c0.8-0.6,1.4-1.5,1.9-2.6c0.6-1,1.1-2.1,1.7-3.2
			c0.6-1,1.1-2,1.8-2.9c0.7-0.9,1.7-1.5,2.8-1.9c0.8-0.2,1.7-0.3,2.9-0.1c1.1,0.2,2.1,0.6,2.9,1l0.3-0.1c0.7-0.2,1.4-0.1,2.1,0.3
			c0.6,0.4,1,0.9,1.2,1.6c0.2,0.6,0.1,1.3-0.2,1.9c-0.3,0.7-0.4,1.5-0.5,2.4c0,0.9,0,1.8,0.1,2.7l0,0.8c0.3,2,0.2,4-0.2,5.8
			c-0.4,1.8-0.9,3.7-1.3,5.4l-0.8,3.2c-0.3,1.1-0.5,2-0.6,2.7s0,1.4,0.3,2.2l0.2,0.5c0.5-0.2,0.9-0.7,1.3-1.6
			c0.4-0.9,0.8-1.9,1.2-2.8l0.7-1.7c0.4-0.8,0.9-1.2,1.7-1.4c0.6-0.2,1.3-0.1,2,0.3c0.7,0.4,1.1,0.9,1.3,1.5
			c0.2,0.6,0.2,1.2-0.1,1.7l-0.6,1.5c-0.8,2.1-1.7,3.8-2.6,5.2c-0.9,1.3-2,2.2-3.5,2.6L536.6,102.6z"/>
		<path d="M565.1,123.8c-4.9,1-9.3,1-13.2,0c-3.9-1.1-6.8-2.9-8.9-5.4c-0.6,0-1.1-0.2-1.6-0.5c-0.5-0.4-0.7-0.9-0.9-1.5
			c-0.1-0.6,0.1-1.4,0.6-2.3c0.5-0.9,1.2-1.7,2-2.5c0.9-0.8,1.7-1.6,2.6-2.3c0.9-0.7,1.7-1.4,2.3-1.8c1.2-0.9,2.4-1.9,3.5-2.9
			c1.1-1,2.1-2.1,2.9-3.3c-0.5-0.4-1.3-0.7-2.1-0.9c-0.8-0.1-1.3-0.7-1.5-1.7c-0.1-0.5,0-1.2,0.3-1.9c0.3-0.7,0.7-1.4,1.2-2.1
			s1.1-1.5,1.7-2.1c0.6-0.7,1.1-1.3,1.6-1.7c-0.9-1.1-1.8-2.5-2.5-4.4s-1.3-3.5-1.6-5.1c-0.5-2.2-0.6-4.5-0.3-7
			c0.2-2.4,1.2-5,2.8-7.7c1.2-2.1,2.7-3.8,4.3-4.7c1.6-1,3.2-1.6,4.9-2c2.2-0.5,4.5-0.7,6.5-0.6c2,0.1,3.9-0.1,5.7-0.5
			c0.6-0.1,1.3,0,1.9,0.4c0.5,0.4,0.9,0.9,1.1,1.6c0.2,1,0.1,1.7-0.5,2.3c-0.5,0.6-1.2,0.9-2,1.1c-1.2,0.2-2.4,0.4-3.6,0.5l0.1,0.4
			c1.2,5.5,1.2,10.2,0.2,14.1c-1,4-3.4,7.4-7.1,10.1c-1.8,1.4-3.4,2.7-4.8,3.9c-1.4,1.2-2.6,2.6-3.7,4.1c0.8,0.6,1.6,1,2.6,1.3
			c0.9,0.3,2,0.5,3.1,0.7c1.1,0.2,2.1,0.3,3.3,0.5c1.2,0.2,2.3,0.4,3.6,0.8c0.9,0.3,2,0.7,3.2,1.1c1.2,0.4,2.4,0.9,3.5,1.5
			s2.2,1.4,3.1,2.5c0.9,0.9,1.5,2.1,1.8,3.6c0.4,1.7,0.2,3.4-0.6,5c-0.8,1.6-2,3-3.5,4.3c-1.5,1.3-3.3,2.4-5.5,3.3
			c-2.2,0.9-4.3,1.6-6.5,2.1L565.1,123.8z M564.3,118.8c1.5-0.3,3-0.8,4.6-1.4c1.5-0.6,2.8-1.3,4-2.2c1.2-0.8,2.2-1.7,2.8-2.6
			c0.7-0.9,0.8-1.8,0.7-2.6c-0.2-0.9-0.7-1.6-1.8-2.3c-1-0.6-2.2-1.1-3.8-1.5c-1.5-0.4-3.3-0.8-5.2-1.2c-2-0.4-4-0.8-6.2-1.4
			c-0.4,0.7-1,1.6-1.7,2.4c-0.8,0.8-1.6,1.5-2.3,2.3c-0.8,0.7-1.6,1.4-2.4,2c-0.8,0.6-1.5,1.1-1.9,1.4c-0.6,0.5-1.3,1.1-2,1.7
			c-0.7,0.6-1.3,1.2-2,1.8c1.5,1.8,3.8,3,6.9,3.6c3.1,0.7,6.4,0.6,10-0.1L564.3,118.8z M564.9,64.9c-1.5,0.3-2.9,1.1-4,2.1
			c-1.1,1.1-1.9,2.4-2.7,3.8c-0.7,1.5-1.2,3-1.4,4.7c-0.2,1.6-0.2,3.2,0.1,4.7c0.5,2.2,1.5,4.7,2.9,7.2c1.7-1.4,3.2-2.7,4.5-4
			c1.3-1.3,2.3-2.7,3.1-4.2c0.7-1.5,1.2-3.2,1.4-5.1c0.1-1.9-0.1-4.1-0.6-6.6c-0.2-1.2-0.5-2-1-2.3c-0.4-0.4-1.3-0.4-2.6-0.1
			L564.9,64.9z"/>
	</g>
	<g>
		<path class="st0" d="M705.4,26.5c-60.6,27.1-107.2,90.1-129.7,170.8"/>
		<path d="M582.4,199.1l-13.5-3.8C592.3,111.5,641,47.6,702.5,20.1l5.7,12.8C650.5,58.7,604.7,119.3,582.4,199.1z"/>
	</g>
	<polyline class="st0" points="809.4,185.7 640.5,97.2 604,155.7 592,178.2 654.5,215.7 	"/>
	<g>
		<path d="M967.7,452.6c-0.2-1.4-0.7-2.8-1-4.2c-0.4-1.6-1.4-3-1.5-4.7c0-0.3-0.4-0.7-0.6-1c-1.1-1.7-2.1-3.5-2.1-5.7
			c0-0.3,0-0.8-0.1-1c-1.5-1.9-1.4-4.3-2.1-6.5c-0.7-2.5-1.8-4.6-3.4-6.9c0.4-2.5-1.4-4.7-1.8-6.9c-1-0.7-1.7-1.2-2.5-1.6
			c-0.8-0.4-1.7-0.7-3-1.2c-0.3,0-1.2,0.1-2,0.2c-2.2-2-5.1-2.2-7.7-3.1c-3.6-1.3-7.4-1.9-10.9-3.7c-0.2-1.4,0.1-2.7,0.5-4
			c0.8-2.6,1.1-5.3,2.2-7.8c-0.3-1.5,0.6-2.8,0.6-4.2c-0.1-1.8,0.5-3.6,0.7-5.3c0.1-1.2,1.1-2.4-0.1-3.5c-0.1-0.1-0.2-0.6-0.1-0.7
			c0.6-0.6,0.3-1.2,0.3-1.9c-0.4-3.4-0.7-6.8-1.1-10.2c-1-0.8-1.3-1.8-1.3-3c0-1.5-0.6-2.8-1.2-4.1c-0.7-1.6-1.9-3.1-1.8-4.7
			c-0.5-1-0.9-1.7-1.2-2.4c-0.7-1.4-1.2-2.9-2.3-4c-1.3-1.3-1.8-3.1-2.6-4.7c-0.8-1.6-1.9-3-2.7-4.6c-0.8-1.6-2.1-2.9-3.2-4.3
			c-0.6-0.8-1.2-1.6-1.7-2.4c-1.5-1.5-2.8-3.1-4.1-4.9c-0.8-1.2-1.9-2.1-2.8-3.2c-1.1-1.5-2.6-2.5-3.9-3.9c-1.8-2-3.8-3.9-6.1-5.3
			c-2.2-1.4-4.1-3.2-6.5-4.2c0.3-0.3,0.5-0.5,0.5-0.7c0.8-2.7,3.5-4.4,4-7.2c1.8-1.7,2.7-4,3.9-6.1c0.7-1.1,1.3-2.3,1.3-3.7
			c0-0.7,0.4-1.5,0.8-2.2c1.1-2,2.4-3.9,3-6.1c0.5-1.7,1.4-3.3,1.8-5c0.2-1,0.7-1.7,1.2-2.6c0.7-1.2,1.4-2.5,1.6-3.8
			c0.4-1.8,0.6-3.7,1.3-5.4c0.5-1.2,1-2.4,1.3-3.7c0.3-1.8,0.9-2.8,2.3-4.2c0.6-0.6,1-1.4,1.4-2.2c0.4-0.9,0.2-1.8-0.8-2.4
			c-1.2,0.1-2.4,0.2-3.6,0.4c-0.4,0.1-0.8,0.2-1.1,0.4c-2.1,1.6-4.7,2.3-7.1,3.5c-2.4,1.2-5,2-7.4,3.2c-0.6,0.3-1.5,0.1-2.1,0.5
			c-2.1,1.4-4.7,1.9-6.7,3.6c-0.3,0.2-0.7,0.6-1,0.6c-1.1-0.1-1.5,0.9-2.3,1.2c-0.9,0.3-1.7,0.7-2.4,1.4c-1,1-2.4,1.3-3.5,2.2
			c-2.3,2.1-4.9,3.9-7.2,6c-0.8,0.7-1.4,1.6-2.2,2.2c-0.8,0.7-1.7,1.2-2.2,2.3c0,0.1-0.4,0-0.8,0c0.2-0.9,0.5-1.7,0.6-2.5
			c0.1-1.6,0.9-2.9,0.8-4.6c0-1.6,0.1-3.3,0.5-4.9c0.5-1.7,0.4-3.3,0.3-5c-0.1-0.7-0.4-1.5,0.3-2.1c-0.2-1.5,0.2-3,0-4.6
			c-0.6-6.2-2.3-12.2-2.6-18.4c0-0.2,0-0.3-0.1-0.5c0-0.2,0-0.4-0.1-0.4c-1.1-0.9-0.3-1.9-0.2-2.9c-0.2-0.1-0.4-0.2-0.4-0.4
			c-0.5-4-1.1-8-1.6-11.9c0.6-1.3,1.1-2.4,1.6-3.5c-0.1-0.8-0.2-1.7-0.3-2.5c-0.6,0.1-1.2,0.1-1.8,0.2c-1,2.2-2,4.4-3,6.6
			c-0.7,1.5-1.5,2.9-2,4.5c-0.8,2.6-1.1,3.3-3,5.1c-0.6,0.5-0.9,1.3-1.3,2c-0.3,0.4-0.5,0.9-0.9,1.2c-2.1,1.4-3,3.8-5,5.2
			c-0.9,0.7-1.8,1.7-2.1,2.7c-0.4,1.4-1.7,1.7-2.3,2.7c-0.2,0.3-0.3,0.6-0.4,0.8c-1.1,2.1-2.3,4.2-4.1,5.8c-1,0.9-1.8,1.7-2.3,2.9
			c-0.3,0.7-0.8,1.4-1.2,2.1c-0.4,0-0.8,0.1-0.9,0.1c-1-1.1-1.9-2.1-2.7-3.1c-1-1.3-1.8-2.8-2.9-3.9c-1.3-1.2-1.5-3.1-2.9-4.2
			c-0.2-0.2-0.1-0.7-0.2-0.9c-1.1-1.5-1.3-3.5-2.5-4.9c0.4-1.2-1.2-1.4-1.3-2.5c-0.1-0.8-0.6-1.5-1-2.3c-0.3-0.6-0.2-1.6-0.6-2
			c-1.1-1.1-1.1-2.5-1.2-3.6c-0.6-0.7-1.3-1.3-1.6-2c-0.5-1.3-0.7-2.6-1-3.9c-0.2-0.7-0.1-1.5-0.3-2.2c-0.2-0.7-0.3-1.4-0.7-2
			c-0.6-0.8-0.6-1.6-0.7-2.5c-0.1-1.2-0.3-2.5-0.4-3.9c0.8-0.4,1.7-0.6,2.5-1.1c1-0.8,1.8,0.6,2.3,0.4c0.9-1,1.5-1.6,1.8-1.9
			c0.8-2.5,0.1-4.6,0-6.7c-0.1-2-0.4-4-0.3-6.1c0.1-2-0.7-4.1-1.1-6.1c0.6-0.5,1-0.8,1.4-1.1c0-1.8,0-3.6,0-5.4
			c0-0.1,0.1-0.3,0.2-0.4c0.5-1.5,0.6-3,0.3-4.5c-0.1-0.6-0.4-1.3-0.2-1.7c1.1-1.8,0.5-3.7,0.8-5.6c0.4-2.6,0.4-5.3,1.2-7.8
			c-0.4-1.3,0.9-2.3,0.7-3.7c-0.2-1.3-0.2-2.8,0.2-4c0.2-0.8,0.1-1.4,0.1-2.1c0-0.2,0-0.3,0.1-0.5c0.3-0.3,0.5-0.6,0.8-1
			c-0.5-1.8,1.3-3.3,0.5-4.9c0.5-1.6,0.9-2.9,1.3-4.2c0.7-2,1.8-3.9,2.2-6.1c0.1-0.6,0.2-1.4,0.5-1.7c0.7-0.6,0.2-1.5,0.7-2
			c0.6-0.6,0.7-1.3,0.5-2c0-0.2,0.1-0.5,0.2-0.6c1-1.7,2-3.5,3.1-5.4c0,0,0-0.4-0.1-0.6c0.5-1,1.3-1.7,1.8-2.7
			c1.2-2.5,2.7-4.9,4.1-7.5c0.6-1.5,1.2-3.3,1.8-5.1c2,0,4.1-0.9,6.4-0.2c0.6-0.8,1.4-0.9,2.2-0.5c0.7,0.3,1.5,0.3,1.8,0
			c0.6-0.7,1.4-0.5,2.1-0.6c1.5-0.2,3-0.3,3.9-0.4c0.7-0.7,1.2-1.1,1.7-1.5c-0.5-0.9-0.9-1.7-1.5-2.4c-1.6-1.8-3.4-3.6-5-5.4
			c-0.9-1-1.9-1.9-2.6-3c-1.4-2.3-3.5-4.1-5.4-6c-1.2-1.2-2.6-2.1-3.5-3.6c-0.2-0.3-0.6-0.7-0.9-0.8c-1-0.2-1.4-1.2-2.1-1.7
			c-0.8-0.7-1.6-1.4-2.3-2.2c-1.2-1.4-3-2.1-4.2-3.4c-0.7-0.7-1.9-1-2.9-1.5c-2.2-1.1-4.4-2.2-6.9-2.8c-2.2-0.6-4.2-1.5-6.3-2.2
			c-1,0.1-1.9,0.1-2.8-0.2c-1.1-0.4-2.2-0.7-3.4-0.6c-0.6,0-1.2-0.2-1.8-0.3c-0.6-0.1-1.2,0-1.9-0.1c-1.4-0.2-2.8-0.5-4.3-0.3
			c-1.6,0.3-3.3,0.4-5,0.6c-1.7,0.2-3.5,0.3-5.2,0.6c-1.7,0.3-3.3,0.7-5,1c-0.3,0.1-0.6,0.3-0.8,0.4c-1,0.5-2.1,1-3.1,1.5
			c-0.8,0.4-1.6,0.7-2.3,1c-0.6,0.3-1.5,0.2-2,0.6c-1.7,1.5-4.1,1.8-5.8,3.5c-0.2,0.2-0.6,0.1-0.5,0.1c-2.9,2.8-5.5,5.3-8.3,8
			c-0.1,0-0.5,0.1-1,0.1c-2.3,2.8-4.6,5.5-6.9,8.3c-0.4,0.5-0.6,1.1-1,1.6c-1.4,1.8-1.9,4.1-3.6,5.7c-0.9,0.9-1.4,2.1-1.7,3.3
			c-0.7,2.6-2.3,4.8-3.5,7.3c0.1,0.7,0.2,1.5,0.3,2.3c0.3,0.2,0.5,0.4,0.8,0.7c0.6-0.1,1.4,0.1,1.7-0.2c1.2-1.3,2.6,0.2,3.8-0.3
			c0.5,0.7,1.2,0.3,1.8,0.2c3.9-0.3,7.8-1.3,11.9-0.6c1.3,1.4,2.9,2.7,4,4.3c1.2,1.6,3,2.9,3.1,5.1c1.1,0.8,2.2,1.7,2.3,3.4
			c0.5,0.3,1.1,0.7,1.6,1.1c0.3,2.2,1.9,3.7,2.6,5.6c0.7,1.8,1.5,3.6,2.4,5.3c1,1.8,2.1,3.5,2.4,5.5c0.3,0.3,0.7,0.5,0.9,0.7
			c0.4,1.3,0.5,2.6,1.1,3.5c0.9,1.3,0.7,2.9,1.8,4c0.3,0.3-0.1,1.2-0.2,1.5c0.5,1.4,1.3,2.4,1.3,3.7c0,0.4,0.1,0.8,0.3,1.2
			c1.3,1.9,1.3,4.2,2,6.3c0.3,1.1,0.8,2,1.4,2.9c0,0.4,0.1,0.8,0.1,1.2c0.2,1.5,0.3,3,1.2,4.3c0.9,1.3,0.2,3.2,1.2,4.6
			c0.1,0.2,0.2,0.6,0.1,0.7c-1,1.6,0.2,2.7,0.9,3.8c0.1,1.2,0.2,2.5,0.4,3.7c0.2,1.2,0.6,2.3,0.9,3.5c0.3,1.4,0.4,2.8,0.9,4.2
			c0.8,2.3,0.9,4.8,1.4,7.2c0.2,1-0.1,2.1,0.8,3c0.3,0.3,0,1.1,0,1.6c0,1.1,0,2.2,0,2.8c0.7,0.8,1.1,1.2,1.4,1.5
			c1.9,0,3.2-2.4,5.2-0.9c0.3,1.5,0.3,2.9-0.5,4.2c0.5,1.5-0.2,2.8-0.7,4.2c0.8,0.9,0.8,1.8,0.6,3.1c-0.2,1.2-0.8,2.3-0.8,3.7
			c0,1.6,0,3.3-0.5,4.9c-0.4,1.4-0.5,2.7-0.8,4.1c-0.3,1.4-0.9,2.8-0.9,4.3c0,1.2-0.3,2.3-0.9,3.3c-0.1,0.2-0.4,0.4-0.4,0.6
			c0.2,2-0.8,3.8-1.3,5.6c-0.4,1.6-0.9,3.1-1.6,4.6c-0.7,1.6-1.3,3.2-1.9,4.8c-0.9,2.3-1.6,4.7-3.4,6.5c-1.8,4.2-2.2,8.4,0.3,12.5
			c-1.2,2,0.6,3.9,0.4,6.4c-1.4-1.1-2.6-1.9-3.5-2.9c-1.3-1.4-2.5-2.9-4-4.1c-1-0.8-2-1.6-3.2-2.2c-2-1-3.1-3-4.5-4.6
			c-0.6-0.7-1.1-1.3-2.2-1.6c0.3,2.3,0.5,4.5,0.7,6.6c0.1,0.7-0.1,1.4-0.1,2.2c0.1,0.3,0.5,0.8,0.5,1.3c0.1,2.5,1.1,5,0.4,7.6
			c-0.1,0.2,0,0.6,0.1,0.7c1,1.3,0.6,3,1,4.4c0.4,0.3,0.7,0.6,1,0.8c0.1,0.8-0.1,1.9,0.3,2.4c0.8,0.9,0.5,1.9,0.7,2.8
			c0.3,1,0.7,2,0.8,3c0.1,1.2,0.3,2.5,1,3.4c0.8,1.2,0.6,2.6,1.3,3.8c0.4,0.7,0.5,1.7,0.7,2.5c0.3,0.9,1,1.5,1.3,2.2
			c0.3,1,1.1,1.7,1.4,2.7c0.5,2.1,1.5,4.1,2.8,5.9c1.2,1.7,1.4,3.8,3,5.2c0.1,0.1,0,0.5,0.1,0.7c0.2,0.5,0.4,1,0.7,1.5
			c1.1,1.6,2.3,3.1,3.6,4.8c-1.7,1.7-3,3.7-3.9,6c-0.9,2.1-2.7,3.9-3,6.6c-1.3,1.2-2.3,2.9-2.8,4.7c-0.6,1.9-1.5,3.5-2.7,5
			c-0.3,0-0.6,0.1-0.8,0.1c-1.8-1.2-3.5-2.3-5.2-3.5c-1.3-1-3-1.4-4-2.9c2.2,0,4.2-0.1,6-0.1c1.5-1.5,2.8-2.7,4.2-4.1
			c0-1,0.1-2.2,0.1-3.3c-0.1-0.1-0.3-0.2-0.4-0.3c0.6-0.8,1.2-1.5,1.9-2.3c-0.3-0.5-0.8-1.1-1.1-1.8c-1-2.3-3.1-3.4-5.2-4.1
			c-1.4-0.5-3.2-0.2-4.7-0.2c-0.6,0-1.1,0.6-1.7,0.6c-1.2,0.1-2.1,0.7-2.8,1.7c-0.6,0.9-1.1,1.8-1.6,2.7c0.2,3.3,1.1,6.4,3.2,9.3
			c-0.4,0-0.7,0.2-1,0.1c-0.4-0.1-0.3-0.7-0.9-0.9c-1-0.4-2.1-1.1-2.7-2.3c-0.2-0.5-1-0.8-1.5-1.1c-0.5-0.3-1.1-0.7-1.6-1
			c-0.2-2.7-1.8-4.5-3.1-6.6c-0.9-1.5-2-3-2.7-4.6c-0.5-1.3-1.9-1.9-2.1-3.3c0-0.3-0.6-0.5-0.9-0.7c-0.1-1.1-0.2-2.1-0.3-3.1
			c-0.1-0.1-0.2-0.1-0.2-0.2c-1.5-1.8-3-3.6-4.4-5.5c-0.4-0.5-0.4-1.3-0.7-2c1.7,2,4.5,1.7,6.2,3.2c0.2,0.1,0.6,0,0.5,0
			c1.3,0.8,2.2,1.6,3.3,1.8c1.4,0.3,2.5,1.3,4,1.1c0.5-0.1,1.2,0.4,1.8,0.5c1.9,0.3,3.1,1.6,4.2,2.5c1.1,0.2,1.9,0.3,2.7,0.5
			c1.4,0.2,2.8,0.4,4,1.1c1.2,0.7,2.6,0.9,3.9,1.4c1.6,0.6,3.3,1.6,5.1,1.1c0.4-0.5,0.8-0.9,1-1.2c0-2-0.2-3.9,0.2-5.7
			c0.3-1.4,0-2.5-0.1-4.2c-0.7,0.8-1.3,1.2-1.5,1.7c-0.3,0.8-0.3,1.7-0.5,2.5c-0.1,0.5-0.2,1-0.4,1.9c-0.5-0.7-0.8-1-1-1.4
			c-0.4-0.9-2.9-4.6-3.5-5.2c-0.6-0.6-1.2-1.3-1.3-2.2c0-0.5-0.3-0.8-0.6-1.2c-2.5-3-5-6.1-6.9-9.6c-1.2-2.1-3.1-3.7-4.4-5.8
			c-1.1-1.8-2.6-3.4-3.7-5.4c-0.9-1.6-1.5-3.8-4.1-4.1c-0.6-0.1-1.2-0.8-1.8-1.3c-0.7,0.1-1.3,0.1-2,0.2c-0.7-0.6-1.4-1.2-2-1.7
			c-0.5,0-0.9,0-1.3-0.1c-0.9-0.4-1.8-0.9-2.8-1.3c-0.9-0.3-2-0.3-2.9-0.9c-0.6-0.4-1.3-0.6-1.9-0.8c-3.1-1-6.2-1.8-9.3-2.8
			c-1.5-0.5-2.8-1.2-4.3-1.7c-2.9-1-5.9-1.6-8.4-3.4c-0.4-0.3-1-0.5-1.5-0.5c-0.6,0-0.9-0.2-1.3-0.5c-0.7-0.5-1.5-1-2.3-1.2
			c-1.7-0.4-3-1.6-4.8-1.8c-2.7-1.8-6.1-1.9-8.8-3.8c-3.8-0.3-7-2.4-10.6-3.4c-1.3-0.4-2.6-1-3.9-1.6c-1.3-0.6-2.8-0.5-3.9-1.6
			c-0.3-0.3-0.9-0.4-1.3-0.4c-0.8,0.1-1.4-0.3-2-0.5c-1.6-0.5-3.1-0.8-4.5-1.8c-0.3-0.2-0.9,0.1-1.4,0.1c-1.4-1.3-2.8-2.1-4.5-1.5
			c-1.6-0.7-3.1-1.4-4.6-2c-2.1-0.8-4.2-1.4-6.3-2.2c-1-0.3-1.9-0.7-2.8-1.3c-0.9-0.6-2-0.8-3-1.1c-1.6-0.5-3.3-0.8-4.7-2
			c-1.4,0.1-2.4-1.1-3.7-1.3c-1.4-0.3-2.8-0.6-3.9-1.3c-0.9-0.6-1.6-0.6-2.8-0.5c-0.4-0.4-0.9-0.8-1.5-1.3c-1,0-2.6-0.4-3.6-0.8
			c-1.2-0.5-2.7-0.6-3.7-1.3c-1.6-1.1-3.7-0.9-5.2-2.1c-2.6,0-4.6-1.7-7-2.3c-0.8-0.2-1.6-1.1-2.5-1.1c-1.6-0.2-3-0.7-4.4-1.5
			c-0.3-0.2-0.5-0.4-0.8-0.4c-1.3-0.1-2.3-0.9-3.4-1.6c-0.7,0.1-1.4,0.2-2.2,0.2c0.1,0.1,0.2,0.2,0.3,0.3c-0.5,0.3-1,0.7-1.2,0.9
			c0.2,1.4,0.3,2.6,0.4,3.6c0.9,0.6,2.2,1,2.6,1.8c0.7,1.6,1.9,2.7,3,3.9c1.6,1.8,3.7,3.1,5.2,5.1c0.9,1.2,2,2.3,2.9,3.4
			c1.1,1.4,2.1,2.9,3.3,4.3c0.9,1.1,2.1,2,3.1,3.1c1,1,1.8,2.1,2.4,3.4c0.1,0.3,0.5,0.6,0.8,0.9c3.1,2.5,5.8,5.5,8.3,8.6
			c1.2,1.5,2.7,2.9,4.6,3.4c2.1,0.5,4.1,1.2,6.2,2c0.4,0.2,0.9,0.2,1.3,0.4c2.4,0.7,4.9,1,7,2.2c0.9,0.5,1.7,0.9,2.7,0.8
			c0.3,0,0.6,0.2,0.9,0.3c1.9,0.7,4,0.9,5.6,2.2c0.2,0.1,0.4,0.2,0.6,0.2c2.2-0.2,4.1,1,6,1.7c1.6,0.5,3,1,4.3,0.7
			c0.6-0.5,1-0.9,1.4-1.3c1.3,1.3,1.8,2.2,2.3,3.6c0.1,0.4,0.4,0.7,0.6,1c0.9,1,2.1,1.9,2.6,3.1c0.6,1.3,1.8,2.2,2.3,3.5
			c0.2,0.6,1,1,1.4,1.6c0.4,0.7,0.6,1.4,1.3,2c1.4,1.4,2.2,3.4,3.7,4.8c0.2,0.2,0.1,0.6,0.1,0.6c1,1.1,2,1.9,2.7,2.9
			c1.6,2.4,3.4,4.6,5.7,6.4c0.5,0.3,1,0.7,1.3,1.1c0.3,0.4,0.5,0.9,0.9,1.6c-1.2,0.3-2.1,0.6-3,0.8c-0.4,0.1-0.8,0.4-1.3,0.5
			c-0.5,0.1-1.1,0.4-1.4,0.2c-1-0.6-1.9-0.2-2.9-0.1c-0.9,0-1.7,0.1-2.6-0.1c-0.8-0.2-1.8,0.4-2.7,0.7c-0.5,0.2-1,0.6-1.5,0.6
			c-1.2,0-2.1,0.7-3.2,0.9c-1.1,0.2-2,0.8-3,1.2c-1.1,0.5-2.4,0.7-3.7,1c-0.1,0-0.3,0.1-0.5,0.2c-0.2,0.3-0.4,0.6-0.6,0.8
			c-3.3,0.9-6,2.8-8.9,3.1c-1.2,0.8-1.8,1.4-2.6,1.8c-0.5,0.3-1,0.4-1.5,0.5c-2.3,0.8-4.1,2.9-6.7,2.9c-0.1,0-0.1,0.1-0.2,0.1
			c-0.3,0.3-0.5,0.6-0.8,1c-0.8,0.1-1.5,0.1-2.2,0.9c-0.7,0.8-1.6,1.5-2.5,2.1c-2.5,1.4-4.9,2.9-7.3,4.6c0.1,0.7,0.2,1.4,0.2,2.2
			c0.4,0.2,0.7,0.4,1.1,0.5c3.2,0.2,6,1.2,8,3.7c1.6,1.9,3.8,2.7,5.8,3.9c2.4,1.5,5.5,1.6,7.6,3.6c0.3,0.2,0.7,0.4,1.1,0.4
			c1-0.2,1.8,0.5,2.7,0.7c2.1,0.5,4.1,1.4,6.2,1.8c1.3,0.2,2.3,0.8,3.9,1.1c1.8-0.8,3.4,1,5.4,1c1.9,0,3.8,0.6,5.7,0.9
			c1.9,0.3,3.8,0.7,5.9,1c-0.2,0.4-0.4,0.8-0.6,1.3c-0.5,0.1-1.1,0-1.5,0.2c-1,0.7-2.1,1.5-2.9,2.4c-1.2,1.3-3,2.2-3.4,4.2
			c-1.5,0.9-2.4,2.3-3.7,3.4c-2.1,1.8-4,3.8-5.6,6c-0.6,0.8-1.1,1.8-1.7,2.6c-1.6,2.3-3.3,4.5-4.9,6.7c-0.1,0.2-0.3,0.4-0.4,0.6
			c-0.7,1.9-2.2,3.1-3.8,4.1c-0.1,0.1-0.1,0.3-0.3,0.6c0.2,0.4,0.5,0.8,0.8,1.4c1.9-0.4,3.7-0.4,5.5-1c2-0.7,4.2-1.4,6.4-1.3
			c0.4,0,0.9,0,1.1-0.3c1.1-1.2,2.6-1.1,4.1-1.3c1.2-0.2,2.7,0.1,3.7-0.5c1-0.6,2.1-0.2,3-0.8c1-0.6,2-0.7,3-0.8
			c1.4-0.2,2.9,0,4.2-0.5c1.9-0.7,3.7-1.4,5.7-1.6c0.5,0,0.8-0.3,1.3-0.6c0.7-0.5,1.5-0.8,2.4-0.8c1,0,2-0.2,3-0.3
			c0.7-0.6,1.4-1.1,2.2-1.2c1.2-0.1,2.1-0.7,3.1-1.1c1.5-0.5,2.8-1.4,4.3-1.8c2.1-0.5,3.9-1.5,5.8-2.3c2.2-1,4.1-2.7,6.8-2.6
			c0-0.3-0.1-0.7,0-0.8c1-1,1.6-2.4,3-3.2c1.1-0.7,2.1-1.6,3-2.6c1.9-2.1,3.8-4.3,5.7-6.5c0.7-0.8,1.2-1.7,2.2-2.3
			c0.4-0.2,0.4-1.1,0.8-2c1-1.3,2.3-2.9,3.5-4.4c1.2-1.5,2.5-3,3.4-4.8c0.8-1.7,1.9-3.2,2.4-5.1c0.2-1,0.3-2.4,1.5-2.9
			c3.5,2.4,6.9,4.8,10.4,7.3c-0.5,0.5-1,1-1.5,1.5c0.2,2.2,0.5,4.2,0.7,6.3c-0.3,0-0.4,0-0.8,0.1c-0.4-1.2-0.8-2.5-1.2-3.8
			c-1.4,0.2-1.3,0.2-1.7,1.3c-0.3,1.1-0.3,2.1-0.1,3.1c0.2,1.8,0.4,3.6,0.6,5.5c-0.1-0.1-0.3-0.2-0.4-0.3c-0.1,0.4-0.1,0.9-0.2,1.2
			c-1-0.2-1.3-0.6-1.5-1.4c-0.2-0.6-0.7-1.2-1.2-2c-0.1-0.8-0.2-1.8-0.3-2.8c-0.6-0.4-1.2-0.8-1.9-1.3c-0.1,1.8-0.2,3.3-0.4,4.8
			c-0.1-0.1-0.1-0.1-0.2-0.2c-0.1,0.3-0.2,0.6-0.3,1.1c-0.9-1.2-1.6-2.1-2.3-3.1c-1.7,1.9-0.7,4-0.7,5.9c-0.2,0.3-0.4,0.5-0.6,0.7
			c-1.1-0.7-2.1-1.4-3-2.1c-0.9,0.1-1.7,0.2-2.4,0.3c0.2,1.3,0.5,1.9,1.6,2.9c0.1,1.3,0.3,2.5,0.4,3.7c-0.1-0.1-0.2-0.1-0.3-0.2
			c-0.1,0.3-0.1,0.6-0.2,0.9c-1.5-0.8-0.6-2.8-2.1-3.3c-0.6,0.8-1.3,1.6-1.6,1.9c-1,0.3-1.4,0.4-2.1,0.6c0.9,0.8,1.5,1.4,2.1,2
			c-0.4,1.2,1.9,2.5-0.2,3.7c-2-0.3-3.8-1.3-5.7-2.5c-0.4,0.1-1,0.2-2.1,0.5c1.9,1.6,3.5,2.8,5.1,4.1c-0.2,0.7-0.3,1.3-0.4,1.9
			c-0.2,1.2-0.2,1.2-1.7,1.3c-0.9-0.6-1.1-2-2.5-2.1c-0.2,0.2-0.5,0.4-0.7,0.5c-0.7-0.1-1.4-0.2-2.2-0.3c0.1,0.6,0.1,1,0.2,1.4
			c2.7,2.2,2.7,2.2,3,5.7c-0.2,0.3-0.4,0.5-0.6,0.7c-1-0.6-1.9-0.1-2.6-0.1c-0.3,0.4-0.5,0.6-0.7,0.9c0.7,0.7,1.7,1.3,2.2,2.2
			c0.6,0.9,1.8,0.9,2.2,1.8c0.1,1.3,0.3,2.5,0.4,3.8c-1.7,0.2-2.7-1-3.8-1.5c-0.8,0.1-1.6,0.2-2.3,0.2c0.1,0.6,0.1,1.1,0.2,1.6
			c1.2,0.8,2.4,1.6,3.6,2.4c1.2,0.8,2.4,1.6,3.2,2.1c0.4,1,0.5,1.6,0.8,2c0.9,1.2,0.9,2.5,1.1,4c-1.6-0.4-2.3-1.6-3.5-2.2
			c-1.5,0.3-2.6-0.8-3.7-1.6c-0.6,0.1-1.1,0.1-1.6,0.2c0.1,0.1,0.2,0.2,0.3,0.3c-0.4,0.2-0.8,0.4-1.1,0.5c0.2,0.4,0.3,0.6,0.4,0.7
			c1.8,0.9,3.5,2,4.7,3.7c0.2,0.3,0.5,0.5,0.8,0.6c1.5,0.7,2.9,1.5,4.4,2.2c0.2,0.5,0.5,0.9,0.7,1.4c0.4,1.1,0.7,2.2,1.1,3.4
			c-1,1.2,0.3,2.2,0.4,3.3c0.1,0.4,0.4,0.7,0.5,1c0.6,2.3,1.4,4.5,2.3,6.7c1.4,3.2,2.4,6.6,4,9.6c1,1.9,2.2,3.6,4,5
			c0.5-0.3,1-0.6,1.4-0.8c-0.1-0.9-0.2-1.6-0.2-1.7c-0.8-1.2-1.4-2-1.7-2.8c-1.1-2.8-2-5.6-3.1-8.3c-0.3-0.7-0.6-1.4-0.9-2.1
			c-0.5-0.8-1.1-1.6-1-2.6c0-0.6-0.5-1-0.6-1.5c-0.3-1.2-1.4-2.2-0.7-3.6c1.3,0.8,0.9,2.5,1.9,3.4c0.4,0.4,0.4,1.4,0.5,2.1
			c0.9,0.6,1.2,1.6,1.2,2.7c0,0.7,0.3,1.2,0.7,1.7c0.8,1,1.1,2.3,1.8,3.5c1.4,2.1,2.4,4.4,4.5,6c0.3,0.2,0.4,0.6,0.6,0.9
			c0.4,0,0.7-0.1,1-0.1c0.8-1.4,1.2-2.4,0.9-2.9c-1.3-2.1-1.9-4.6-3.3-6.6c-0.7-1.1-1.3-2.2-1.3-3.4c-0.4-0.3-0.7-0.6-1.1-0.9
			c0-0.5,0-1.1-0.1-1.8c0.3,0,0.5,0,0.7,0c1.2,2.5,2.3,5.1,5.1,6.6c0.3-0.4,0.5-0.7,0.7-1c-0.1-0.9-0.2-1.8-0.2-2.1
			c-0.5-1.1-1-1.7-1.2-2.5c-0.2-0.8,0-1.9-0.5-2.4c-0.7-0.7,0-1.8-1-2.4c-0.2-0.1-0.5-1.2,0.1-1.8c1.2,0.2,1.7,1.2,1.8,2
			c0.2,1.3,1.1,2.1,1.3,3.2c0.3,1.3,1.1,2.2,1.7,3.3c0.2,0.5,0.8,0.9,0.9,1.3c0.1,0.9,0.3,1.5,1.1,2.1c0.7,0.5,1.1,1.3,1.7,1.9
			c0.7-0.2,1.2-0.3,1.9-0.5c-1.1-1.9-3.1-3-2.7-5.3c-0.4-0.3-0.7-0.6-0.9-0.7c-1.6-3.7-2.7-7.4-3.8-11.1c0.2-0.2,0.3-0.4,0.5-0.6
			c0.5,0.4,0.9,0.7,1.3,1.1c0.3,1.3,0.7,2.5,1.8,3.3c0.4,0.3,0.5,0.8,0.9,1.1c1.2,1.3,2,3.1,3.5,4.2c0.2,0.1,0.4,0.3,0.4,0.5
			c0.2,1,0.7,1.9,1.5,2.3c1,0.5,0.9,1.6,1.6,2.3c1.4,1.4,2.7,3.1,3.9,4.7c2,2.5,4,5.1,6.4,7.3c0.7,0.6,1.8,1.2,1.7,2.5
			c1,0.6,0.9,2.1,2,2.6c1.5,0.6,2.4,1.7,3,3.1c2.8,0.9,5.6,1.2,8.4,0.8c0.8,0.5,1.4,1,2.1,1.3c2.5,0.9,4.9,1.8,7.4,2.6
			c0.6,0.2,1.4-0.1,1.9,0.2c1.5,0.8,3.2,1.2,4.8,1.6c1.2,0.3,2.2,0.8,2.9,1.4c0.5,1.1,0.1,2.1,0.8,3c0.4,0.5,0.2,1.6,0.4,2.4
			c0.2,0.8,0.5,1.7,0.8,2.5c0,0.2,0.1,0.4,0,0.5c-0.8,0.8-0.2,1.7-0.2,2.6c0,0.9,0.2,1.8,0.3,2.7c-1-0.3-1.7-0.6-2.6-0.9
			c-0.8-1.7-1.7-3.4-2.6-5.2c0.1-0.2,0.3-0.4,0.3-0.6c-0.2-0.8-0.6-1.4-0.6-2.1c0-1.8-1.1-3.1-2.2-4.4c-0.4,0-0.8,0.1-1.4,0.2
			c0.3,2.8,0.6,5.6,0.9,8.4c-0.4,0-0.6,0-1,0c0-1.4-0.4-2.7-1.4-3.6c-0.1-2.1-0.8-3.9-1.8-5.5c-1.3,0.3-1,1.5-1.5,2.1
			c0.1,0.8,0.2,1.5,0.2,2.3c0.1,0.8,0.1,1.6,0.2,2.9c-0.8-0.7-1.3-0.9-1.5-1.4c-0.4-1-0.5-2.2-0.9-3.2c-0.4-1.1-1-2.1-1.5-3
			c-0.6,0.1-1.1,0.1-1.9,0.2c0.1,1.4,0.3,2.6,0.5,4.1c-2.8-1.2-3.5-3.4-4.2-5.8c-0.5,0.1-1.1,0.1-1.9,0.2c-0.2,0.6-0.4,1.3-0.7,2.3
			c-1.3-1.1-2.5-2-3.7-2.9c-1,0.3-1,0.3-1.7,1.4c0.4,0.7,0.9,1.5,1.4,2.3c-0.2,0.4-0.4,0.7-0.6,1.1c-0.9-0.7-1.6-1.3-2.2-1.9
			c-0.4,0-0.7,0.1-1,0.1c0.1,0.1,0.2,0.1,0.3,0.2c-0.4,0.2-0.7,0.4-1.2,0.7c2.2,2.5,4.6,4.4,6.1,7.2c0.1,0.7,0.2,1.5,0.2,2.3
			c0,0.9-0.1,1.7-0.2,2.7c0.4,0.7,0.9,1.5,1.4,2.3c1.8,3,1.8,3,1.4,5.6c1.4,1.4,2.2,3.3,2.1,5.1c1,1.8,1.9,3.1,2.4,4.6
			c0.5,1.6,1.3,2.9,2.6,3.8c0.1,0.1,0.3,0.1,0.7,0.1c0.3-0.2,0.8-0.5,1.1-0.8c-0.1-0.8-0.2-1.5-0.2-2.1c-1-1.6-1.8-3.2-2.5-4.9
			c-0.1-0.3,0-0.7,0-1.5c1.5,2.2,2.9,4,3,6.3c0,0.6,0.2,1,0.6,1.5c1.2,1.9,1.8,4.1,2.4,6.4c0.7,0.5,1.4,1,2.2,1.6
			c0.3-0.5,0.5-0.8,0.8-1.3c0-0.1,0.1-0.5-0.1-0.8c-1.5-2.5-1.6-5.6-2.9-8.2c-0.1-0.2,0-0.6,0.1-1.1c0.8,0.6,1.4,1,1.7,1.2
			c0.3,0.8,0.4,1.3,0.6,1.9c0.7,2,1.8,3.8,2.4,5.8c0.6,1.9,1.5,3.7,3.4,4.7c0.5-0.3,1-0.6,1.4-0.9c-1.2-3.1-2.3-6.2-3.5-9.4
			c0.4-0.1,0.8-0.2,1.3-0.3c0.6,0.6,1.2,1.3,1.8,1.9c0.4,1.5,0.5,3,1.1,4.3c0.7,1.4,1.5,2.6,1.4,4.1c0.6,0.6,1.1,1.2,1.6,1.7
			c0.6-0.4,1.1-0.7,1.5-1c-0.1-0.8-0.2-1.7-0.3-2.4c-1.4-1.4-1.5-3.4-2.3-5.1c-0.3-0.6-0.4-1.2-0.4-1.9c-0.1-1.2-0.3-2.4-1.3-3.1
			c-0.1-1.1-0.2-2.2-0.4-3.2c0.1,0,0.2-0.1,0.3-0.1c0.8,2.2,1.7,4.4,2.6,6.7c0.2,0.2,0.5,0.4,1,0.8c0.1,0.6,0.2,1.4,0.3,2.3
			c0.6,0.1,1.2,0.1,2.1,0.3c-1-3.2-1.8-6.2-2.7-9.2c0.3-0.3,0.6-0.6,1.1-1.1c0.4,0.7,0.9,1.2,1,1.7c0.5,2.1,0.9,4.3,1.2,6.4
			c0.6,3.8,1.2,7.6,1.8,11.4c0.1,0.4,0.5,0.7,0.5,1c0,1.2,1.5,2.1,0.5,3.6c-0.3,0.4,0.2,1.4,0.4,2.1c0.1,0.3,0.3,0.6,0.4,0.9
			c0.3,3.4,1.6,6.7,1.6,10.2c0,0.2,0.1,0.3,0,0.5c-0.1,0.9,0.3,1.8,0.8,2.4c0.6,0.8,0.8,1.4,0.4,2.4c-0.2,0.6-0.3,1.7,0.1,2.1
			c0.7,0.7,0.5,1.5,0.7,2.3c0.5,2.9,0.2,5.9,1.5,8.7c0.2,3.5,1.6,6.9,1.7,10.4c0,0.6-0.1,1.4,0.2,1.7c1,0.9,0.3,2.3,1,3.2
			c0.8,1.1,0.5,2.4,0.7,3.6c0.4,3.4,0.8,6.8,1.2,10.2c0.1,0.7-0.1,1.5,0.7,2c0.5,2.2,1.8,4.1,1.7,6.4c0,1.1,0.1,2.2,0.4,3.2
			c0.3,1.3,0.6,2.6,1.5,3.7c0.8-0.1,1.5-0.2,2.3-0.2c0.3-1,0.8-1.9,0.8-2.9c-0.1-3.3,0.1-6.5-0.5-9.8c-0.2-1.2-0.3-2.5-0.4-3.7
			c0-0.5-0.3-1.2,0-1.4c0.9-1-0.3-1.6-0.4-2.3c0.2-0.4,0.4-0.7,0.4-1c0-0.3-0.1-0.7-0.1-1c-0.2-4.3-1.5-8.6-0.9-13
			c0.1-0.6,0.1-1.4-0.2-1.7c-0.7-0.7-0.5-1.5-0.7-2.3c-0.6-2.2,0.1-4.4-0.2-6.6c-0.1-1.1-0.5-2.2,0.1-3.3c0.2-0.3,0-1.1-0.3-1.4
			c-0.5-0.5-0.4-1-0.5-1.6c-0.2-1,0.1-1.9,0.1-2.8c0.1-1.6-0.2-3.2-0.5-4.7c-0.3-1.6,0.4-3.2,0-4.8c-0.3-1.1-0.3-2.3-0.4-3.5
			c-0.1-1.6-0.6-3.2-0.1-4.8c0.2-0.7-0.3-1.6-0.5-2.4c0-0.5,0.2-1.1,0.1-1.6c-0.2-2-0.4-4-0.7-6c-0.1-1-0.1-2,0.7-2.9
			c0.4,0.7,1.1,1.3,1.2,2c0.4,2,1.4,3.8,2.2,5.7c0.4,1,0.7,2.1,1.1,3.3c0.4,0.6,0.9,1.3,1.6,2.4c0.4-0.6,0.7-1,0.9-1.3
			c-1.4-3.9-2.6-7.6-3.9-11.4c0.6-0.1,1-0.1,1.1-0.1c0.8,0.6,1.5,1,2,1.4c0.4,1.7,1.4,2.8,1.6,4.4c0.3,1.5,1,2.9,1.3,3.8
			c0.7,0.8,1.2,1.3,1.9,2.2c0.2-0.7,0.3-1.1,0.4-1.5c-0.1-1.5-0.7-3.2-1.4-4.8c-0.4-0.8-0.5-1.4-0.2-2.4c1.2,1,2.3,1.6,2.7,3
			c0.3,1.1,1.1,2,1.6,2.9c0.8-0.1,1.4-0.2,1.8-0.2c0.2-0.8,0.4-1.4,0.8-2.5c1.2,2,2.1,3.6,2.9,5.1c0.7-0.1,1.2-0.1,1.8-0.2
			c0-0.7-0.1-1.2-0.1-1.8c0.5-0.1,0.9-0.1,1.3-0.1c1.4,1.1,2.7,2.3,4.7,2c0.8-0.1,2,0.2,2.6,0.8c1.4,1.2,2.9,1.1,4.6,0.9
			c0.5-0.1,1.1-0.1,1.7-0.2c-0.1-0.9-0.2-1.6-0.3-2.4c-1.4-0.3-2.8-0.8-3.7-2.1c0-0.5,0-1,0-1.8c1.6,0.4,2.9,0.7,4.1,1
			c0.5,0.8,0.9,1.5,1.5,2.3c1.5-0.6,3-1.2,4.5-1.8c-0.4-1.9-1.3-2.4-3.4-2.5c-0.7-0.6-1.4-1.1-1.9-1.5c-0.1-0.8-0.2-1.6-0.2-2.2
			c1.2,0,2.2,0.1,3.2,0.1c0.3-0.6,0.5-0.9,0.7-1.2c-0.8-0.6-1.3-1.2-2.4-1.3c-1.2-0.1-2.6-0.8-3.3-1.7c-1-1.3-1.5-3-1.8-4.7
			c0.4,0,0.7-0.2,0.9-0.1c1.8,0.9,4,0.7,5.7,1.8c0.8,0.5,2,0.9,2.8-0.3c0.1-0.1,0.1-0.2,0.1-0.2c-0.2-0.4-0.4-0.8-0.5-0.9
			c-3.6-1.5-7-2.9-10.4-4.3c-0.7-1.3-0.7-1.3-0.5-2.4c1.8,0.2,3.3,1.3,5.1,1.5c0.5,0.1,1,0.4,1.5,0.7c1.5,1,3.2,1.2,4.8,1.6
			c0.2,0,0.4-0.1,0.7-0.2c0-0.4-0.1-0.7-0.1-1.2c-0.6-0.4-1.3-1.1-2.1-1.4c-2.5-1.1-5.2-2.1-7.7-3.3c-2-0.9-4-1.8-5-4
			c0-0.1-0.1-0.1-0.2-0.2c0.1-1.7-0.8-3-1.9-4.2c-0.2-0.3-0.9-0.2-1.3-0.4c-0.6,1.7-0.6,1.7,0.1,3.4c0.1,0.2,0,0.5,0,0.7
			c-0.4,0.1-0.7,0.1-0.9,0.1c-1.1-0.9-2.1-1.7-3.3-2.7c0-0.7-0.4-1.6-0.7-2.5c-0.3-1-0.5-2-1-2.7c-0.5-0.2-0.9-0.4-1.2-0.5
			c-0.3,0.4-0.7,0.9-1.1,1.3c0.1,0.5,0.1,1,0.1,0.9c-0.3,0.8-0.5,1.2-0.6,1.5c-3.4-1.3-4-2-4.4-5.4c-0.5-0.4-0.9-0.8-1.2-1.1
			c-0.7,0.1-1.2,0.1-1.8,0.2c0,0.9,0,1.7,0.1,2.8c-3-1.6-3.1-4.3-3.7-7c-0.4-0.1-0.9-0.3-1.3-0.4c-0.7,0.6-1.2,1.1-1.7,1.6
			c0.4,0.7,0.6,1.3,0.9,1.9c-0.8,0.1-1.4,0.1-2.2,0.2c-0.3-1.2-0.6-2.4-1-3.8c-0.5-0.3-1.2-0.7-2-1.2c0-0.3,0-0.7,0-1
			c1.4-0.4,2.5,0.1,3.6,0.4c1.4,0.4,2.8,1,4.2,1.1c2,0.2,3.8,0.6,5.5,1.7c0.4,0.3,1,0.6,1.5,0.6c2.2-0.3,3.9,1.6,6.1,1.5
			c0.9,0.9,2.1,0.9,3.3,1.1c1.2,0.2,2.4,0.6,3.5,1.1c1.2,0.6,2.5,0.6,3.8,1c1,0.3,2.1,0.7,3.1,0.9c2.4,0.4,4.5,1.7,7,1.6
			c0.5,0,1,0.4,1.5,0.7c0.4,0.3,0.9,0.3,1.3,0.5c1.3,0.4,2.6,0.6,3.8,0.9c0.8,0.2,2,0.1,2.4,0.7c0.8,1.1,1.9,0.3,2.8,0.7
			c1.3,0.5,2.7,0.7,4,1c0.9,0.2,2.1,0,2.7,0.6c1.2,1.1,2.9,0.2,3.9,1.5c1.6-0.6,2.8,0.9,4.2,0.7c0.2,0.4,0.2,0.6,0.4,0.9
			c0.8-0.1,1.5-0.2,2.2-0.2c0.4,0.3,0.7,0.6,1,0.9c0.5-0.1,1-0.1,1.5-0.2c0.3,0.3,0.6,0.7,1,0.8c1.1,0.2,2.2,0.7,3.4,0.9
			c1.7,0.2,3.6,0.4,5.1,1.3c1.1-0.4,1.8,0.4,2.7,0.7c0.9,0.3,1.8,0.4,2.7,0.6c0.4,0.1,0.9,0.4,1.3,0.6c0.8,0.4,1.5,0.9,2.3,1.2
			c1.3,0.3,2.8,0.1,3.8,0.7c1.3,0.8,2.6,0.9,4,1.3c2.2,0.6,4.5,1.1,6.7,1.8c1,0.3,2,0.8,3.2,1.3c1.3,0.1,2.8,0.1,4.2,0.2
			c1.2-1.3,0.1-3.1,1.2-3.8c0.1-1.8,0-3.4,0.4-4.8c0.4-1.3,0.8-2.7,0.9-4.1c0.1-1.4,1.4-2.5,1-4c0-0.2,0.3-0.4,0.4-0.6
			c0.7-1.1,1.4-2.2,2.1-3.4c0.1-0.5-0.1-1.3,0.3-1.7c1.4-1.9,1.1-4.4,2.5-6.3c0.1-0.1-0.1-0.4,0-0.5c0.6-1.1,0.1-2.5,0.8-3.6
			c0.7-1.1,1.2-2.4,1.9-3.7c-0.1-0.5-0.1-1.2-0.2-1.8c0.5-1.1,1-2.2,1.6-3.3c-0.1-0.5-0.1-1.3-0.2-1.9
			C968.4,454.9,967.8,453.9,967.7,452.6z M700.9,340.1c0.4,0,0.9-0.3,1.1-0.1c2.1,1.2,4.8,1,6.9,2.7c0.7,0,1.6,0.2,2.5,0.3
			c0.3-0.3,0.5-0.6,0.8-1c-0.4-0.6-0.8-1.2-1.2-1.9c0.6-0.4,1.7-0.1,1.8-1.3c-0.4-1.2-1.8-1.2-2.7-2.1c0.6-0.4,1.2-0.8,1.8-1.2
			c0-0.3-0.1-0.6-0.1-1.1c-2.2-1-4.4-2-6.7-3.1c-0.7-0.3-0.9-0.9-0.8-1.9c0.5-0.1,1-0.2,1.6-0.2c2.8,0,5.4-1.3,8.2-1.4
			c0.9,0,1.7,0,2.6,0.2c2.5,0.4,4.8,1,7.2,1.6c2.4,0.6,4.8,1.2,7.1,2c2,0.7,4.1,1.3,6.2,1.8c2.7,0.7,5.4,1.6,7.7,3.4
			c0.8,0.6,2.1,0.9,2.5,1.7c0.6,1.1,1.6,1.2,2.4,1.8c0.6,0.5,1.4,0.8,1.7,1.9c-1.4,0-2.6,0.7-3.9,0c-0.3-0.2-0.8,0.1-1.2,0.1
			c-1.6,0.2-3.1,0.4-4.7,0.5c-2.8,0.2-5.7-0.2-8.5,0.4c-1.2-0.6-2.4-0.2-3.6-0.1c-0.4,0-0.7,0.4-0.9,0.5c-0.8-0.1-1.5-0.2-2.2-0.2
			c-2.8,0.3-5.7,0.5-8.4,0.9c-2,0.4-4-0.1-6.1,0.1c-1.5,0.1-2.4-1.2-3.9-2.3c-0.2,0.3-0.9,0.4-1.2,0.4c-2.2-0.9-4.1-1.7-6-2.5
			C700.9,340.3,700.9,340.2,700.9,340.1z M744.2,362c-0.6-0.1-1.2-0.3-1.9-0.4c-1.6,2.6-3.1,5.2-4.8,7.9c-0.5-0.4-0.9-0.7-1.5-1.2
			c-2.8,1.3-4.2,3.9-5.5,7.1c-0.2-0.9-0.4-1.3-0.5-1.8c-0.5,0.1-1,0.1-1.7,0.2c-0.9,1.3-1.9,2.8-3.2,4.7c-0.1-1.2-0.2-2-0.3-2.9
			c-1.3,0.3-1.5,1.4-2.3,2c0,0.3,0.2,0.5,0.1,0.7c-0.5,1.1-0.8,2.3-1.2,3.5c-0.4,1.2-1.1,2.3-1.7,3.3c-0.2,0.3-0.6,0.5-0.9,0.7
			c-0.7,0.4-1.4,0.7-2.4,1.3c-1.3,0.2-3.2,0.1-4.8,1.4c-0.2,0.2-0.6,0.2-0.9,0.2c-2.5,0-4.6,1.4-6.9,1.8c-0.6,0.9-1.8,0.3-2.4,0.8
			c-0.7,0.6-1.5,0.5-2.3,0.7c-0.8,0.2-1.5,0.5-2.2,0.7c-0.7,0.2-1.5,0-2,0.7c-0.1,0.1-0.4,0.1-0.5,0.1c-2-1.2-3.3,0.9-5,1.3
			c-0.5,0.1-1,0.4-1.6,0.4c-1.4,0.2-2.9,0.1-4.2,1c-0.2,0.1-0.4,0-0.9-0.1c0.3-0.5,0.4-1.2,0.7-1.3c2.1-0.6,3.7-2.1,5.3-3.3
			c1.6-1.3,3.5-2.1,5.3-2.9c1.3-0.6,2.4-1.4,3.6-2c1.2-0.6,2.4-1.4,3.4-2.4c1.3-1.1,2.7-2.3,4.2-2.8c1.3-0.4,1.9-1.6,3.1-2
			c1.1-0.4,2.2-1.2,3.1-2c1.6-1.4,3.6-2.2,5.3-3.4c1.1,0.2,1.1-1.4,2.2-1.3c1,0.1,1.6-1,2.5-1.2c0.9-0.2,1.5-0.9,2.2-1.3
			c3.1-1.7,6.2-3.3,9.3-5.1c1.6-0.9,3.5-1.5,4.8-2.7c1.4-1.3,3.2-1.9,4.4-3.5c0.8-1.1,2.2-1.7,3.3-2.5c0.8-0.6,1.7-1,2.9-1.8
			C746.9,357.4,745.5,359.7,744.2,362z M754.4,345.9c-0.6,0.7-1.3,1.5-2.1,2c-4.2,2.8-8.3,5.6-12.6,8.3c-1.7,1.1-3.6,1.8-5.4,2.7
			c-2.9,1.5-5.9,2.9-8.9,4.4c-1.2,0.6-2.4,1.2-3.8,1.2c-1.6,0-3,0.8-4.5,1.3c-1,0.4-2.1,0.4-3.1,0.6c-0.7,1-1.8,1.3-3,1.2
			c-1.8-0.1-3.8,0.2-5.4-0.5c-1.7-0.7-3.1-0.5-4.8-0.4c-0.1-0.2-0.2-0.4-0.3-0.7c1.9-0.8,3.7-1.5,5.6-2.3c0.4-0.2,0.9-0.5,1.1-0.8
			c0.2-0.3,0-0.8,0-1.3c-2.9,0-5.3,2.3-8.3,1.7c0.3-1.5,2.5-1.6,2.6-3.6c-2.5,0.3-4.8,1.9-7.7,1.6c1.3-0.9,2.3-1.6,3.4-2.3
			c-0.1-0.6-0.1-1.2-0.2-2c-1.8,1.3-3.7,1.6-5.7,1.9c-1.1,0.1-2,0.8-3.2,0.8c-1.1,0-2.2,0.1-3.2,0.8c-0.3,0.2-0.9,0.1-1.4,0.2
			c0-0.4-0.1-0.6-0.1-0.9c0.6-0.1,1.2-0.3,1.8-0.4c0.3-0.3,0.5-0.7,0.8-1c0.6-0.1,1.3-0.1,2-0.2c0.2-0.3,0.4-0.7,0.7-1
			c0.6-0.1,1.2-0.1,1.6-0.2c0.3-0.4,0.5-0.6,0.7-0.9c0-0.3-0.1-0.6-0.1-1c-0.1-0.1-0.3-0.2-0.4-0.2c-1.6,0.1-3,0.8-4.6,1.3
			c-0.1,0-0.3,0.2-0.4,0.2c-3.2,0-6.1,1.7-9.4,1.4c0.5-1.5,2.1-0.9,2.9-1.7c0.8-0.7,2-1.1,3.1-1.6c-0.1-0.5-0.1-1-0.2-1.7
			c-0.9,0.1-1.8,0.2-2.8,0.3c-0.2,0.2-0.4,0.5-0.7,0.9c-1,0.1-2.1,0.2-3.2,0.4c-0.1-0.2-0.2-0.4-0.3-0.7c1.3-0.6,3.1-0.5,3.4-2.6
			c-1.6,0.2-3.3,0-4.5,0.6c-1.3,0.7-2.9,0.2-3.6,1.4c-1.8-0.1-1-2.1-2.3-2.3c-1,0.1-2,0.3-3,0.3c-0.9,0-1.9-0.1-3-0.5
			c0.3-0.1,0.6-0.3,0.8-0.4c1-0.2,2.3-1.1,3.5-0.2c0.1,0,0.2,0,0.2,0c2.3-0.1,4.7-0.1,7-0.3c3.8-0.3,7.6-0.8,11.4-1.2
			c1.1-0.1,2.2-0.6,3.3,0.1c0.2,0.1,0.5,0,0.7-0.1c1.1-0.5,2-0.9,3.3-0.4c1,0.3,2.3-0.4,3.4-0.2c2.7,0.4,5.2-0.3,7.8-0.4
			c0.5,0,0.9,0.1,1.4,0.2c0.8,0.2,1.6,0,2-0.5c0.9,0,1.7,0.2,2.5,0.1c2.3-0.5,4.7,0.1,7.1-0.2c2.4-0.3,4.8-0.9,7.2-0.7
			c2.4,0.1,4.7-0.2,7.1-0.4c0.4,0,0.9-0.3,1.6-0.6c0,0,0.4,0.3,0.7,0.3c2,0,4-0.1,6.1-0.1c3.1-0.1,6.2-0.6,9.3-0.4
			c2,0.1,3.9-0.2,6-0.2C754.6,345.3,754.6,345.7,754.4,345.9z M757.2,342.5c-3.3-2.5-6.3-5.2-9.7-7.3c-4.6-2.8-8.8-6.3-13-9.6
			c-0.8-0.6-1.7-1.1-2.6-1.7c-0.8-0.5-1.3-1.5-2.4-1.5c-0.6-1.7-2.9-1.6-3.5-3.3c-2.4-1.3-4.3-3.4-6.8-4.6c-1-0.5-1.6-1.7-2.8-1.8
			c-1.5-1.7-3.8-2-5.5-3.3c-1.7-1.4-3.6-2.6-5.3-4c-1.9-1.5-3.9-2.9-6.1-4c-0.1-0.1-0.3-0.2-0.4-0.3c-1.8-2.5-4.8-3.4-7.1-5.2
			c-2.3-1.9-4.7-3.8-7-5.6c-0.4-0.3-0.8-0.8-1.2-1.1c0.1-0.2,0.2-0.3,0.3-0.5c0.6,0.4,1.4,0,1.9,0.9c0.6,1.1,1.6,1.1,2.6,1.2
			c1.7,0.3,3.5,0.2,4.7,1.2c2.1,0.3,4,0.5,6,0.8c0.2,0.1,0.5,0.4,0.8,0.6c0.2,0,0.3,0.1,0.5,0.1c1.1-0.2,2,0,3,0.4
			c1.5,0.6,3.2,0.9,4.9,0.7c1.4,1.6,3.5,2,5.5,2.3c1.1,0.2,1.9,1.1,3.2,0.8c0.9-0.2,2,0.8,3,1.2c0.2,0.1,0.5,0.3,0.6,0.3
			c1.4-0.5,2.4,0.7,3.6,1c1.2,0.2,2.3,1.1,3.3,1.7c1.6,0.9,3.2,1.9,4.7,2.9c0.5,0.3,0.8,0.9,1.2,1.4c0.9,1.1,1.9,2.1,2.8,3.2
			c0.8,1,1.5,2,2.4,2.9c1.6,1.6,2.5,3.5,3.6,5.4c0.4,0.7,0.8,1.6,2,1.8c0.8,0.2,1.5,1.1,2.1,1.9c2.4,3,4.1,6.4,6.8,9.2
			c1.4,1.5,2.2,3.5,3.2,5.3c0.6,1,1.1,2,1.7,3c0.6,1,1.3,1.9,2.1,3C759.1,342.5,758.1,342.3,757.2,342.5z M746.4,397
			c-1.5-0.5-1.8-1.7-1.9-3.4c0.6-0.3,1.1-0.5,1.7-0.8c0.4,0.9,0.7,1.7,1,2.5C747.4,396,747.1,396.5,746.4,397z M762.8,421.8
			c-0.3-0.4-0.7-0.8-0.8-1.3c-0.4-1.3-0.7-2.6-1.1-4.4c0.7,0.5,1,0.6,1.2,0.8c1.2,1.3,1.5,3,2.1,4.7
			C763.6,421.7,763.2,421.7,762.8,421.8z M765.6,414c-0.3-0.2-0.5-0.4-0.6-0.4c-0.7-1.9-1.3-3.5-1.9-5.1c0.8-0.6,1.5,0.1,1.5,0.4
			C764.9,410.5,766.1,412.1,765.6,414z M827.4,490.6c-0.6,0.4-0.7-0.1-1-0.4c-1.3-1.2-1.8-2.7-2.4-4.1c0.3-1,0.8-1.3,1.7-1.2
			c0.4,0.4,0.9,0.7,1.3,1C827.1,487.5,827.3,489,827.4,490.6z M826.5,483.3c-1.7-0.1-1.9-1.9-3-2.4c-0.1-0.8-0.2-1.5-0.3-2.5
			c0.9,0.3,1.7,0.6,2.6,1C825.5,480.8,827.1,481.8,826.5,483.3z M879.1,508c0,0.4,0.1,1,0.2,1.5c-1.7-0.1-3.2-0.4-4.5-1.5
			c-0.1-0.6-0.1-1.2-0.2-2C876.2,506.7,878,506.4,879.1,508z M872,496.4c0.8,0.7,1.7,1.4,2.6,2.1c-0.5,1.4,1.7,2.2,1.3,4
			c-1.6-0.6-3.3-0.6-4-2.5c-0.3-1-0.6-2.2-1-3.5C871.4,496.5,871.7,496.5,872,496.4z M873.1,511.7c0.8,0.6,1.5,1.4,1.1,2.6
			c-4.3-0.9-4.5-1.1-4.7-4C871,509.9,872.1,510.9,873.1,511.7z M870.2,504.7c0.1,0.5,0.1,0.9,0.2,1.4c-1.9,0-3-1-4.6-2.2
			c0.5-0.3,0.9-0.5,1.3-0.8C868,503.6,869.1,504.2,870.2,504.7z M862.6,493.3c0.6,0.1,1.1,0.2,1.6,0.3c0.9,0.1,1.6,0.6,2,1.2
			c0.5,0.9,0.7,2,1,3.2c-2.4,0-3.1-1.8-4.4-2.9C862.7,494.6,862.6,494.1,862.6,493.3z M877.5,291.1c0.2-0.9,0.4-1.8,0.4-2.8
			c-0.1-0.9,0.6-1.9,1-3c0.3,2.3,0.5,4.4,0.7,6.4c-0.6,0.9-0.6,2.2-2.1,2.6C877.3,293.1,877.2,292.1,877.5,291.1z M873,293.1
			c0.4-2,1.2-3.9,0.5-6c0.4-0.1,0.6-0.1,1-0.2c0.5,1.7-0.4,3.3,0,5c0.4,1.7,0.4,3.4,0.6,5.2c-0.7,0.6-1,1.6-2.1,2.1
			C872.4,297.1,872.7,295.1,873,293.1z M874.1,303.5c0.8-0.5,1.5-1.4,1.9-2.3c0.6-1.7,1.9-2.8,3-4.2c1-1.3,2.1-2.7,3.4-3.8
			c1.2-1.2,2.7-2.2,3.2-4c0.4,0,0.7-0.1,0.8-0.1c0.9-1.2,1.6-2.2,2.4-3.3c0.7-0.1,1.4-0.2,2.1-0.2c0.5-0.9,1-1.7,1.4-2.6
			c0.5-1.1,1.2-1.8,2.1-2.5c1.5-1.2,2.8-2.6,4.1-4c1.8-2,3.6-4.1,5.4-6.1c0.4-0.5,1.1-0.8,2.1-1.5c-0.5,1.1-1,1.7-0.9,2.2
			c0.1,0.9-0.4,1.3-0.7,2c-0.4,0.8-0.6,1.8-0.8,2.6c-0.7,2.8-2.3,5.3-3.2,8c-1.2,0.6-0.7,2-1.4,3c-0.5,0.7-1.5,1.6-1,2.8
			c-1,0.9-0.9,2.3-1.6,3.4c-0.6,1-0.8,2.2-1.4,3.2c-0.4,0.9-0.7,1.9-1.3,2.7c-0.6,0.8-1.2,1.8-1.3,2.7c-0.1,1.1-1.5,1.5-1.4,2.7
			c-1.9,1.7-2,4.6-4.4,6.3c-2.2-0.7-4.9-1-7.3-2.1c-2.3-1.2-5.1-1.2-7.5-2.7C872.6,304.9,873.1,304.1,874.1,303.5z M865.3,290.4
			c0.1,0.2,0.2,0.5,0.2,0.7c-0.4,1-0.2,2-0.2,3.1c0.1,0.9-0.1,1.9-0.2,2.8c0,0.9,0.3,1.8-0.1,2.9c-0.3,0.7,0,1.7,1.1,2
			c2-1.3,1.8-3.3,1.5-5c0.6-2.5,1.2-4.8,1.7-7c0.3,0.1,0.4,0.1,0.4,0.1c0.1,0,0.1,0.1,0.1,0.2c0.4,3.3,0.7,6.6,1.1,9.9
			c0.4,0.3,0.7,0.6,1.1,0.9c-1.1,1.3-2.2,2.6-3.6,4.1c-2.2,0-4.7-0.1-7.2-1.3c-1.1,0.8-2.2,0.7-3.6,0.2c-1.3-0.5-2.8,0-4.2,0.9
			c-0.1-0.6-0.1-1-0.2-1.5c1.4-0.6,1.8-2.2,2.7-3.3c2.7-3.2,5.5-6.3,8.2-9.5C864.6,290.5,864.9,290.5,865.3,290.4z M847.9,291.6
			c0-1.6,1.5-3,0.6-4.3c0.7-2.1,1.2-3.8,1.5-5.7c0.2-2.2,0.6-4.5,1.4-6.5c0.9-2.2,1.1-4.5,1.5-6.8c0.3-1.7,0.4-3.5,1-5.3
			c0.4-1.2,0.4-2.5,0.1-3.6c0.5-1.6,1-2.9,1.1-4.5c0.1-2.4,0.7-4.9,1.4-7.3c0.4-1.3,0.3-2.6,0.8-3.9c0.2-0.5,0.1-1.2,0.4-1.6
			c1.1-1.4,1.2-3.1,1-4.7c0.3-0.7,0.6-1.2,1-2.2c0.2,0.5,0.3,0.8,0.4,1.1c0.1-0.1,0.2-0.2,0.3-0.3c0.1,0.1,0.2,0.3,0.2,0.4
			c0,0.9-0.2,1.9-0.1,2.8c0.1,0.8,0.7,1.6,0.7,2.5c0.1,1.3-0.3,2.7,0,4.1c0.3,2.1,0.5,4.3,0.7,6.5c0,0.5-0.1,1.1-0.2,1.8
			c0.8,1.2,0.8,2.7,0.7,4.2c0,0.2-0.3,0.5-0.3,0.6c0.5,1.9-0.1,3.9,0.1,5.8c0.2,2.5,0.4,5,0.3,7.5c-0.1,1.1-0.1,2.2-0.1,3.3
			c0,1-0.5,2-0.1,3.1c-1,0.9,0.3,2.2-0.6,3.2c-0.3,0.3,0.1,1.1,0.1,1.7c0,0.5-0.2,1.1-0.3,1.7c0.4,0.6,0.8,1.2,1.3,1.9
			c-1.2,1.3-2.5,2.6-3.6,4c-2.1,2.7-4.2,5.5-6.2,8.3c-0.8,1.1-1.1,2.5-1.6,3.8c-0.1,0.4-0.3,0.7-0.5,1.1c-1.3,0.4-2.8,0.1-4,1
			c-0.5,0.3-1,0.1-1.8-0.5c0.3-1.5,0.6-3.1,0.9-4.6c0.3-1.5,0.7-3,1-4.5C847.2,294.4,847.9,293,847.9,291.6z M843.2,284.8
			c0.6-1.2,1.1-2.2,1.9-3.8c0.2,1.1,0.3,1.6,0.5,2.1c0.1,0.5-0.1,0.9-0.3,1.4c-0.2,0.5,0,1.1-0.1,1.6c-0.1,0.4-0.3,0.8-0.7,1.7
			c-0.6-1-0.9-1.5-1.2-2C843.2,285.3,843.2,285,843.2,284.8z M840.4,284.2c0.6,1.2,1,2.2,1.6,2.9c0.6,0.7,0.7,1.9,2.1,1.7
			c0.3,1.5,0,2.8-0.8,4.2c-0.5-1-1.2-1.8-1.5-2.7C841.3,288.4,839.9,286.8,840.4,284.2z M839.4,300c0.4-2.8-0.5-5.3-0.4-8.1
			c0.1-0.2,0.4-0.4,0.7-0.9c0.6,0.9,1.1,1.7,1.8,2.8c0.4,0.2,1.1,0.7,1.8,1.1c-1.1,3.7-1.5,7.4-2.1,11.1c-0.3,0-0.7,0.1-1.3,0.1
			C839.8,304.1,839.1,302,839.4,300z M786.4,87.4c2.3-0.6,4.6,0.2,7.2,0.3c-0.2,0.5-0.4,0.9-0.6,1.3c-2.2-0.5-4.3-0.7-6.4-0.1
			C786.5,88.3,786.4,87.9,786.4,87.4z M781,114.4c-0.2-0.1-0.5-0.3-1-0.5c2.1-0.8,3.9-1.4,5.9-1.3c0.2-0.5,0.5-0.9,0.7-1.3
			c-0.3-0.1-0.4-0.3-0.5-0.3c-1.2,0-2.3,0.5-3.6-0.1c-0.5-0.2-1.3,0.3-2.3,0.6c-0.4-0.2-1.1-0.5-1.9-0.9c0.3-0.3,0.4-0.6,0.7-0.9
			c0.8-0.1,1.7-0.2,2.5-0.3c0.2-0.3,0.4-0.5,0.6-0.7c0-0.1-0.1-0.2-0.2-0.3c-1-0.8-2.2-0.6-3.3-0.9c1.4-1.1,3-1.1,4.6-1.3
			c0.2-0.6,0.4-1.1,0.6-1.7c-1.8-1.3-3.7-0.1-5.5-0.3c-0.1-0.2-0.2-0.4-0.1-0.5c0.1-0.3,0.3-0.6,0.5-0.9c1.5-0.2,2.9-0.3,4.1-0.5
			c1.2-0.7,2.1-1.2,3.2-1.8c-0.3-0.4-0.7-0.7-1-1.1c-0.9,0.3-1.9,0.8-2.7,0.8c-1,0-2.1-0.5-3.3-0.8c2.4-1.8,5.1-1.8,7.4-2.1
			c0.6-0.4,0.9-0.7,1.4-1c-0.5-0.4-0.7-0.7-1.2-1.1c-1.3,0.3-2.6,0.6-4.1,0.9c0-0.2-0.1-0.4-0.2-0.8c3-0.1,5.6-2,8.6-2
			c0.5-1,0-1.5-0.9-2c-1.1,0.3-2.2,1.3-3.6,0.1c0.3-0.1,0.7-0.3,1.5-0.6c1.2,0.3,3.1,0,5-0.7c1.3-0.5,2.8-0.7,4.1-0.5
			c1.5,0.2,2.9,0.5,4.4,0.4c0.8-0.1,1.6,0.3,2.4,0.6c-0.9,0.1-1.8,0.2-2.6,0.3c-0.9,1.4-2.4,1.3-3.8,1.6c0.4,0.7,0.7,1.2,1.1,1.8
			c0.5,0,1.1-0.1,1.6-0.1c0.4,0.5,0.4,0.7-0.6,1.2c0,0.4,0.1,0.8,0.2,1.4c1.3,0.3,2.6,1,3.9,0.9c1.5-0.1,2.5,0.8,3.8,0.9
			c0,0.3,0,0.5,0,0.8c-0.9,0.1-1.9,0.2-2.8,0.3c0,0.4,0.1,0.6,0.1,1c1.3-0.3,2.6-0.1,3.6,0.9c-0.5,0.5-1,0.9-1.7,1.6
			c2.4,0.3,4.5,0.5,6.5,0.7c-1,0.5-1.9,0.9-2.9,0.2c-1.2,0.5-2.3,1.1-3.8,1.7c0.7,0.6,1.1,1.1,1.6,1.5c1.6-0.2,3.3-0.4,4.8-0.5
			c0.7,0.3,1.4,0.6,2.3,1.1c-0.5,0.3-0.8,0.5-1.1,0.7c-0.9,0.5-1.9-0.7-3.2,0.4c-0.8,0.6-2.2,0.5-3.2,0.7c0,0.3,0,0.5,0.1,0.6
			c0.4,0.4,0.9,0.7,1.4,1.1c3.2-0.2,6.4-1.1,9.7-0.3c0,0.1,0.1,0.4,0.1,0.4c-0.6,0.5-1.1,1-2,1.1c-1.8,0.1-3.6,0.4-5.5,0.6
			c-0.4,0-0.8,0.1-1.4,0.2c-0.2,0.6-0.3,1.2-0.6,2c0.1-0.1,0,0.1-0.1,0.1c-1.3,0.2-2.7,0.5-4,0.4c-3-0.2-5.9,0.2-8.8,0.5
			c-1,0.1-2.2-1-3.1,0.4c-1.2,0.1-2.3,0.3-3.6,0.4c-0.1-0.6-0.2-1.2-0.4-1.9c-0.6-0.3-1.2-0.5-1.7-0.8
			C785.4,114.4,783.3,114.4,781,114.4z M796.6,156.3c0.6-0.9,1.1-1.5,1.7-2.4c-0.4-0.5-0.8-1.2-1.4-2c0.1-0.3,0.2-0.9,0.4-1.6
			c-1.9-1.1-3.9-1.1-5.9-0.7c-0.2-0.1-0.3-0.2-0.3-0.2c0-0.2,0-0.3-0.1-0.5c1.3-0.9,3.2-0.6,4.5-2.2c-0.5-0.4-1-0.7-1.4-0.9
			c-0.5-0.2-1-0.3-1.9-0.5c0.7-0.8,1.3-1.3,1.9-1.9c-0.5-0.5-0.9-0.9-1.4-1.4c0.2-1.3,1.3-1.6,2-2.3c2.1-0.5,4.3-0.9,6.1-1.3
			c0.9,0.5,1.6,0.8,2.3,1.2c-0.3,0.6-0.7,1.3-1,2.1c0.5,0.5,0.9,1,1.5,1.5c-0.3,0.5-0.7,1-1.1,1.7c0.7,0.6,1.3,1.1,2.1,1.7
			c-0.6,0.5-1.1,1-1.5,1.4c-0.2,1.4,1.9,2.4,0.1,3.8c1.2,1,2.2,1.8,3.5,2.8c-0.6,0.2-0.9,0.4-1.3,0.5c-0.9,0.2-1.1,0.9-0.9,1.8
			c0.3,0.3,0.8,0.7,1.2,1.1c-0.2,0.7-0.3,1.4-0.5,2.3c0.6,0.5,1.2,1,1.9,1.5c-0.5,0.4-1,0.7-1.4,1.1c0.1,0.6,0.1,1.2,0.2,2
			c0.3,0.3,0.7,0.6,1.1,0.9c-1.3,1.1,0.5,1.8,0.2,3.1c-0.2,0.2-0.6,0.5-0.8,0.7c0.1,1.1,0.2,1.9,0.3,2.9c0.3,0.2,0.8,0.4,1,0.6
			c0.1,0.6,0.1,0.9,0.1,1.3c-0.3,0.1-0.5,0.3-0.9,0.4c0.1,1.4,0.3,2.7,0.5,4.2c0.3,0.2,0.6,0.5,1.1,0.9c-0.4,0.3-0.7,0.6-1.1,0.9
			c0.4,1.3,0.7,2.4,1,3.5c-0.5,0.4-1,0.8-1.6,1.3c0.7,0.7,1.4,1.3,2.1,2c-0.4,0.5-0.7,0.9-1.1,1.5c0.2,0.4,0.4,0.9,0.7,1.6
			c-0.8,1.5,0.2,3.2,0,5c-1-0.1-2-0.2-3.4-0.3c-0.1-0.1-0.5-0.6-1.2-1.4c0-0.2-0.1-0.9-0.2-1.5c-1.2-0.4-2.2-0.7-3.4-1.1
			c1.2-0.8,2.1-1.4,3.2-2.1c-0.3-0.3-0.5-0.6-0.8-0.9c0.3-1.1,0.7-2.3-0.3-3.4c0.4-0.6,0.9-1.2,1.5-2c-0.7-0.4-1.2-0.6-1.6-0.8
			c0.1-0.8,0.1-1.5,0.2-2.2c-0.7-0.4-1.4-0.8-2.1-1.1c0.1-1.1,1.1-0.9,1.8-1.4c-0.2-0.4-0.3-0.8-0.5-1.2c-0.1-0.4-0.4-1-0.2-1.3
			c0.6-1.1,0.1-1.8-0.5-2.7c0.1-0.3,0.3-0.7,0.5-1.1c-0.6-0.4-1.3-0.8-2-1.3c0.5-0.5,0.8-0.8,1.1-1c-0.1-0.6-0.1-1.2-0.2-1.8
			c-0.9-0.3-1.9-0.5-1.6-1.9c0.3-0.1,0.5-0.3,0.8-0.4c0.5-1.5-1-1.5-2-2.3c0.7-0.3,1.2-0.5,1.7-0.7c0-0.3-0.1-0.7-0.1-1.2
			c-1-0.9-2.2-1.1-3.6-1.1c0.7-0.3,1.3-0.6,2-0.9c0.3-0.1,0.6-0.2,0.9-0.4c0.2-0.2,0.4-0.5,0.7-0.9
			C798.3,156.9,797.6,156.7,796.6,156.3z M803.6,215.8c-0.2-0.4-0.3-0.7-0.5-1c-0.1-0.2-0.3-0.3-0.6-0.6c0.2-0.3,0.6-0.5,0.5-0.8
			c-0.2-2-0.4-4-0.6-5.9c-0.8-0.6-0.8-1.3-0.2-2.1c0.1-0.1,0-0.5-0.1-0.7c-0.1-0.5,0-1.1-0.5-1.6c-0.3-0.3-0.4-1-0.3-1.4
			c0.5-0.9,0.2-1.9,0.2-2.8c2.1-0.2,4.2-0.5,6.3-0.7c0.2,0,0.4,0.3,0.5,0.4c0.7,4.8,1.5,9.6,2.2,14.4c0.1,0.4,0.1,0.8,0.1,1.2
			C808.4,214.8,806,215.3,803.6,215.8z M822.6,297c-0.5-0.1-1.4-0.6-1.4-1.7c1.3,0.2,2.4,1,3.9,1.1c0.1-0.2,0.2-0.7,0.3-1.1
			c0.2,0.1,0.3,0.1,0.5,0.2c-0.4-0.5-0.7-1.3-1.3-1.5c-1.7-0.6-3.1-1.8-4.5-2.9c-0.3-0.2-0.7-0.5-1-0.6c-2.9-1-4.8-3.3-7.1-5.2
			c-0.1-0.1,0-0.3,0-0.6c0.9,0.1,1.6,0.3,2.3,0.9c1.5,1.3,3.2,2,5,2.7c0.7,0.3,1.3,1,1.9,1c0.9,0,1.4,0.3,2,0.7c0.3,0.2,0.8,0,1.4,0
			c-0.1-0.8-0.1-1.3-0.2-2c-1.7-1-3.5-2.2-5.5-3.2c-0.8-0.4-1.1-0.8-1.6-1.7c2,0.4,3.6,1.8,5.6,2.1c-0.1-0.7-0.1-1.2-0.2-1.9
			c-1-0.7-2.1-1.6-3.5-2.6c1.1-0.2,2-0.4,3-0.7c-0.9-0.8-1-1.7-2.2-2.2c-1.6-0.7-2.8-2.2-4.2-3.4c-0.4-0.3-0.7-0.6-1.2-1
			c0.1-0.2,0.2-0.4,0.3-0.7c0.5,0.3,0.8,0.7,1.2,0.8c1,0.1,1.6,1.4,2.9,1c0.8,0.8,1.8,0.9,2.7,1.3c0.8,0.4,1.4,0.2,2.2,0
			c-0.4-1.9-1.9-2.6-3.8-3.5c1.4-0.2,2.4-0.3,3.4-0.4c-0.1-0.7-0.1-1.1-0.2-1.8c-1.3-0.9-2.9-1.8-4.2-3c-1.2-1.2-3.3-1.3-4.2-3.6
			c2.9,1,4.9,3,7.4,3.8c0.9,0.1,1.8,0.2,2.2-1c-0.4-1.3-2-1.3-2.8-2.1c-0.8-0.9-1.6-1.7-2.8-2.9c0.8,0,1.1,0,1.5,0.1
			c1.3,0.3,2.5,1.4,4.1,0.7c0-0.4,0-0.7-0.1-1.2c-1.2-0.8-2.5-1.9-3.9-2.5c-1.4-0.6-2.3-1.5-3.3-3c0.6,0.2,0.9,0.2,1.2,0.4
			c1.2,0.6,2.4,1.2,3.7,1.9c0.3-0.4,0.6-0.8,1-1.1c-0.3-0.7-0.6-1.3-0.8-1.9c0.1-0.1,0.2-0.1,0.3-0.2c0.5,0.4,1.1,0.7,1.4,1.2
			c1.2,2.1,2.8,4.1,3.7,6.4c0.6,1.5,1.8,2.7,2.7,4c0.8,1.1,2.3,1.9,3.5,2.7c0.6,0.4,1.2,0.7,1.8,1.1c-0.2,0.6-0.4,1.1-0.4,1.5
			c0.2,3.6,0.5,7.2,0.6,10.8c0.1,1.5,0.5,3,0.1,4.6c-0.2,0.9-0.2,2.1,0.6,3c0.3,0.4,0.4,1.1,0.3,1.6c-0.3,2.3-0.3,2.3,0.5,4.4
			c0.1,0.3,0.1,0.6,0.2,1c0.3,2.7,0.7,5.5,0.9,8.2c0.1,0.8-0.3,1.7-0.5,2.5c-2,0.5-3.6,1.4-5.5,1.8c-1.4,0.3-2.6,1.4-3.8,2.1
			c-0.3,0.2-0.5,0.3-1,0.5c-1.5-1.2-3.3-1.8-4.9-2.7c-0.9-0.4-1.9-0.9-2.2-2.3c2.1,0.4,3.5,1.7,5.6,2.1c0.1-0.3,0.2-0.7,0.3-1.1
			c0.1,0.1,0.2,0.1,0.3,0.2c0-0.3-0.1-0.7-0.1-1c-0.5-0.3-1.1-0.5-1.7-0.8c0.9-0.5,1.8-0.9,1.4-2.1c-1.2-1.6-3.3-1.4-4.7-2.5
			c-1.4-1.1-3-2-4.4-3.1c-1.4-1.1-3.5-1.2-4.6-3.1c0.5-0.1,0.9-0.2,1.1-0.3c1.7,1,3.3,1.9,4.9,2.7c1.5,0.8,3.1,1.3,4.7,2
			c0.7,0.3,1.4,0.2,2.2-0.2C824.6,298.5,824.1,297.3,822.6,297z M796.3,292.8c0-0.5,0-0.9-0.1-1.7c0.9,0.5,1.5,0.8,2.2,1.2
			c0.8-1.5,1.3-3,1.1-4.8c0.9,2.4,0.5,5,1.5,7.6c-0.7,1.3,0.1,2.9,0.1,4.5c0.9,0.7,0.6,1.8,0.8,2.7c0.2,1.4,0.1,2.9,0.5,4.2
			c1.1,3.2,1,6.5,1.5,9.7c0.1,0.4,0.4,0.7,0.4,1.1c0.1,0.8,0.2,1.6,0.2,2.3c0,0.6-0.3,1.4,0,1.9c1.3,2.7,0.8,5.6,1.4,8.4
			c-1.2,0.5-1.8,1.4-2,2.4c-1.6,0.1-1.3-1.3-1.8-2c-0.4-0.5-0.1-1.4-0.2-2.7c0-0.2-0.4-0.9-0.3-1.5c0.3-1.2,0.2-2.2-0.3-3.2
			c-0.2-0.4-0.3-0.9-0.3-1.4c-0.2-2.1-0.4-4.1-0.7-6.2c-0.4-2.7-0.6-5.4-1.4-7.9c-0.7-2.2-0.8-4.3-1.1-6.5
			C797.4,298.2,796.2,295.6,796.3,292.8z M772.8,357.4c0.1,0,0.1,0,0.2,0c0.8,0.5,1.9,0.8,2.4,1.5c1.4,1.9,3.6,2.5,5.4,3.7
			c1.3,0.8,2.5,1.8,3.8,2.7c-0.7,1.5-1.3,2.9-2.1,4.5c-0.3-0.3-0.7-0.7-1.1-1.2c-0.1-1-0.1-2-0.3-2.9c-0.2-0.9-0.6-1.8-0.9-2.6
			c-1.1-0.2-1.1,0.9-1.7,1.2c-0.2,0.9,0.5,1.9-0.6,2.5c-0.6-1.3-1.2-2.7-1.9-4.1c-0.4,0-0.9,0.1-1.6,0.2c-0.8-1.5-1.5-3.1-2.2-4.5
			C772.4,358,772.6,357.7,772.8,357.4z M845.1,559.6c-0.2,0.1-0.5,0.1-0.8,0.2c-0.3-3-0.7-6-1-8.9c0.1-0.1,0.1-0.1,0.2-0.2
			c0.2,0.3,0.3,0.5,0.5,0.8c0.1-0.1,0.2-0.1,0.2-0.2C844.4,554.1,844.7,556.8,845.1,559.6z M839.9,475c0.7,3.2-0.1,6.4,0.5,9.5
			c-0.7,2.4,0.4,4.7,0.2,7.1c-0.2,3.1,0.6,6.2,0.5,9.3c-0.2,3.2,0.5,6.4,0.6,9.5c0,1.3-0.1,2.6-0.1,3.8c0.1,1.2,0.5,2.5,0.3,3.7
			c-0.5,2.9,0.3,5.7,0.5,8.6c0.1,2.2,0.5,4.5,0.7,6.7c0.1,0.9,0,1.9-0.1,2.9c0.1,0.1,0.3,0.2,0.4,0.4c-0.1,0.6-0.3,1.3-0.2,1.9
			c0.1,0.6,0.4,1.2,0.7,1.7c0.1,0.2,0.1,0.4,0,0.5c-0.7,1.3,0,2.7-0.1,4.1c-1.7-1.3-1.8-1.4-1.4-3.4c0.1-0.5,0.2-1.1-0.1-1.4
			c-0.9-1.7-1.1-3.5-0.6-5.3c0.1-0.3-0.2-0.7-0.4-1.1c-0.6-1-0.5-2,0-3c-0.6-0.9-1.2-1.8-1.9-2.8c0.2-0.4,0.6-0.8,0.9-1.3
			c0.4-1.7-1.7-2.6-1.4-4.4c0.2-0.3,0.5-0.6,0.8-1c-0.1-0.6-0.1-1.3-0.2-2c-0.3-0.5-1.3-0.6-1.1-2c0.3-0.3,0.7-1,1.2-1.6
			c-0.1-0.5-0.1-0.9-0.1-1.3c-0.4-0.4-0.8-0.9-1.3-1.4c0.4-0.7,0.7-1.3,1-2c-0.4-1.3-1-2.4-2-3.3c0.6-1.3,1.1,0,1.9-0.2
			c0.1-0.2,0.2-0.6,0.5-1.1c-0.3-0.6-0.8-1.5-1.3-2.5c0.3-0.3,0.7-0.6,0.8-0.7c0.4-2-0.8-3.2-1.5-4.4c-0.4-0.7-0.8-1.4-1.3-2.3
			c0.7-0.1,1.1-0.1,1.6-0.2c0-0.5,0.1-1-0.1-1.2c-1-1.4-1.9-2.9-3.2-4.1c-0.2-0.1-0.3-0.4-0.4-0.6c0.9-1.2,2,0.5,3-0.3
			c-0.1-0.6-0.1-1.3-0.2-1.9c-0.8-1-1.5-1.9-2.3-3.1c0.6-0.3,1.2-0.7,1.9-1.1c0.4-0.8-0.3-1.7-0.8-2.4c-0.5-0.8-1.3-1.4-1.1-2.6
			c0.3,0.2,0.5,0.3,0.9,0.5c0.3-0.2,0.6-0.5,0.7-0.6c0.8-0.9-0.2-2.6-2.1-4.2c0.2-0.3,0.5-0.6,0.8-0.9c0.5,0.2,0.9,0.3,1.3,0.5
			c0.2-0.2,0.4-0.3,0.4-0.4c-0.1-0.7-0.1-1.4-0.7-2c-0.6-0.6-0.9-1.4-1.4-2.4c0.9-0.2,1.6-0.3,2.6-0.5c-0.1-0.6-0.1-1.2-0.2-1.9
			c0.5-0.1,0.8-0.1,1.4-0.2c0.6,0.7,1.4,1.5,2,2.2C840,470.9,839.5,472.9,839.9,475z M956.1,480.6c0,1.4-0.6,2.7-0.5,4.2
			c0.2,1.5,0.3,3,0.5,4.3c-0.5,1.7-1,3.2-1.7,5.2c-0.5-0.8-0.9-1.3-0.9-1.7c0-1.3-1.4-1.7-1.6-2.9c-0.2-1.1-0.9-2.1-1.7-3
			c-0.6-0.7-0.4-1.6-0.8-2.2c-0.4-0.6-0.9-0.9-1.2-1.8c-0.3-1.1-1.1-2.2-1.8-3.2c-1.6-2.4-2.8-5.2-4.4-7.6c-1.4-2.1-2.3-4.6-3.9-6.6
			c-0.2-0.3-0.3-0.7-0.5-1.2c1.3-0.5,2.7-1,2.3-2.8c1.3-1.4,1.4-3.3,2-5c0.4-1.1,0.9-2.1,1.5-3.4c0.6,1.6-0.2,2.9-0.3,4.2
			c-0.1,1.4,0.3,2.8,0.4,4.4c0.5-0.1,0.8-0.1,1.2-0.1c1.1-1.2,0.7-3.1,2.4-4.3c-0.1,1.2-0.2,2.2-0.2,3.2c-0.1,1,0.1,2.2-0.2,3.1
			c-0.5,1.1-0.1,2-0.1,3.3c1-0.8,1.5-1.3,1.8-2.3c0.2-0.7,0.2-1.9,1.6-2c0,0.4,0.2,0.9,0.1,1.3c-0.4,1.7-1,3.4-0.9,5.3
			c0.1,0.9-0.5,1.9-1,3.4c0.1,0.6,0.2,1.9,0.3,3c0.7,0.9,1.5,0.6,2.5,0.4c0.6-1.3,1.2-2.8,1.8-4.2c0.1,0,0.2,0,0.3,0
			c0,2.1,0,4.1,0,5.8c0.5,0.6,0.7,0.9,1.1,1.4c0.8-1,1.4-1.9,2.3-3.1C956.8,478,956.1,479.2,956.1,480.6z M950.7,420.9
			c-0.2,1.2-0.9,2.2-1.1,3.3c-0.2,1.3-1.2,2.1-1.3,3.5c-0.1,1.1-1.4,2-1,3.5c-0.4,0.4-1,1-1.4,1.4c0.4,1.1,0,2-0.4,2.9
			c-1.1,2.1-1.3,4.4-2.5,6.5c0.3,1.4-0.8,2.3-1.2,3.5c-0.4,1.1-0.7,2.2-1.1,3.6c0.4,1.6-0.4,3.2-1.5,5c0.1,0.5,0.1,1.2,0.2,1.7
			c-1.5,2.5-1.3,5.2-1.9,7.7c-1.1,0.1-1.4-1-2.3-1.3c-1.1-0.1-2.2-0.2-3.1-0.3c-1.5-0.5-2.8-1.2-4.1-1.4c-1.3-0.2-2.6-0.5-3.8-1.1
			c-0.7-0.4-1.5-0.3-2.6-0.5c-0.2-0.2-0.7-0.6-1.3-1.1c-0.7,0.1-1.3,0.1-1.9,0.2c-1.7-0.9-3.3-1.6-5.2-1.5c-1.5-1.2-3.4-1-5.1-1.6
			c-1.8-0.6-3.5-1.2-5.3-1.6c-1.7-0.3-3.4-0.9-5.1-1.4c-1.7-0.5-3.4-1.1-5.3-1.7c-0.2,0-0.7,0.1-1.2,0.1c-0.3-0.3-0.6-0.5-0.8-0.7
			c-1.1-0.2-2-0.3-2.9-0.5c-1.7-0.5-3.3-1.5-5-1.7c-2.1-0.2-4-1.1-6.1-1.6c-1.9-0.4-3.8-1.2-5.8-1.6c-2.1-0.5-4.1-1.4-6.2-2
			c-2.2-0.6-4.3-1.3-6.4-1.9c-0.2-0.1-0.4-0.2-0.7-0.4c-0.7,0.1-1.6,0.2-2.4,0.3c-1.8-1.4-4-1.7-6.1-2.4c-1.4,0.5-2.2-0.6-3.3-1.1
			c-0.5-0.2-1-0.6-1.6-0.4c-1.1,0.3-1.6-1.3-2.7-0.7c-1.5-0.9-3.3-0.9-4.8-1.6c-1.7-0.7-3.6-1-5.3-1.5c-1.5-0.4-3.2-0.4-4.7-1.3
			c-0.8-0.5-2-0.4-2.9-0.8c-0.9-0.5-1.7-0.8-2.7-0.6c-1.7-1.2-3.9-1-5.7-2c-1.3-0.7-4.6-1.4-6.2-1.8c-1.7-0.4-3.4-1.1-5-1.8
			c-1.3-0.6-2.5-1.4-4-1.2c-0.2,0-0.3,0-0.5-0.1c-3.9-2.3-8.6-2.4-12.7-4.3c-0.6-0.3-1.4-0.1-1.9-0.1c-1.9-0.8-3.7-1.5-5.7-2.3
			c-1.1,0.2-2.3,0-3.5-0.5c-1.4-0.5-3-1.2-4.5-0.5c-1-0.6-1.8-1-2.7-1.6c0.8-1.8,1.6-3.5,2.1-5.3c0.6-1.8,1.4-3.3,2.3-4.5
			c0.2-0.8,0.2-1.4,0.5-1.7c1.1-1.2,1-3,2-4.2c1-1.3,1.7-2.7,2.2-4.2c0.7-2,1.9-3.9,2.1-6.1c0.1-0.7,0.6-1.3,1-2.2
			c-0.4-1.1,0.1-2.3,0.6-3.6c0.4-1.1,1.2-2,1.3-3.3c0.1-1,1.2-1.9,1.6-2.9c0.7-1.6,1.1-3.4,1.4-5.1c0.7-0.8,1.4-1.6,2.1-2.5
			c0.4,0,0.9-0.1,1.4-0.1c0.4-0.5,0.2-1.1-0.5-2.3c0.7-2.9,2.3-5.4,3.5-8.6c0.8-1.2,1.9-2.8,3.1-4.6c0-0.2,0-0.6,0-0.7
			c0.8-1.3,1.5-2.2,2-3.3c0.6-1.4,2.3-2,2.5-3.6c1.5-0.4,1.7-2.4,3.1-2.9c0.3-0.1,0.6-0.4,0.7-0.7c0.2-1.3,1.3-2,2-3
			c0.8-1.1,1.6-2.3,2.4-3.4c1.3-1.8,3-3.4,4.6-5c1.5-1.5,3.2-2.7,4.5-4.3c1.3-1.6,2.8-2.7,4.7-3.5c0.8-0.3,1.6-0.5,2.2-1.4
			c0.3-0.5,1.2-0.6,1.8-0.9c1,0.6,1.4,1.4,1.7,2.4c0.1,0.3,0.1,0.6,0.2,0.9c0.3,0.6,0.7,1.2,1.1,1.8c0.9,1.5,1.7,2.9,2.6,4.4
			c0.5-0.1,0.9-0.1,1.5-0.2c-0.7-3-2.1-5.7-3.5-8.9c0-0.3-0.1-1.2-0.2-2.1c1.4-0.5,1.6,0.8,1.9,1.4c0.7,1.4,1.6,2.6,2.3,4
			c0.6,1.2,1.4,2.2,1.8,3.5c0.4,1.2,1.2,2.6,2.8,3.2c0.3-0.3,0.6-0.6,0.9-1c-0.6-3-3.5-5-3.4-8.1c-0.7-0.8-1.4-1.5-1.1-2.9
			c0.9,0.8,1.5,1.6,2.1,2.4c0.7,0.9,1.3,1.7,1.9,2.6c0.6,0.8,1.1,1.7,1.7,2.5c0.6,0.9,1.2,1.8,1.8,2.6c1.1,0.3,1.7-0.1,1.9-1
			c-0.6-0.5-1.2-0.9-1.6-1.1c-0.1-1.1-0.1-1.7-0.3-2.4c-0.1-0.6-0.5-1.1-0.9-2c0.7,0.3,1.3,0.3,1.4,0.5c0.7,1.7,2.3,2.8,3.4,4.2
			c0.6,0.8,1.3,1.6,1.6,2.5c0.4,1,0.9,1.7,1.7,2.1c0.4,0,0.7-0.1,1-0.1c0.1-0.2,0.1-0.3,0.1-0.5c0.2-1.2-0.8-2.1-0.9-3.2
			c-1.9-2.2-2.3-5.2-4-7.6c0.4-0.2,0.6-0.3,0.9-0.4c0.4,0.7,0.4,1.5,1.2,2c0.6,0.4,0.7,1.3,1.2,1.9c0.7,0.9,1.6,1.8,1.6,3.1
			c0,0.9,1.4,0.9,1.2,2c1.3,1.5,2,3.6,3.8,4.6c0.2-0.3,0.5-0.5,0.7-0.8c-1.2-3.7-3.2-7-4.5-10.7c-0.1-0.3-0.5-0.4-0.8-0.7
			c-0.1-0.5-0.1-1.1-0.2-1.7c0.2,0,0.3,0,0.4,0c1.2,1.5,2.7,2.7,3.1,4.6c1.6,1.1,2,3.1,3.2,4.6c0.7,0.9,1.1,2,1.7,3
			c0.7,1.2,1.6,2.3,2.4,3.5c0.7,1.1,1.3,2.3,1.9,3.4c0.2,0.3,0.5,0.6,0.7,0.9c1.2,0.1,1.7-0.4,1.7-1.7c-0.3-0.3-0.7-0.7-1.1-1
			c-0.1-0.6-0.1-1.1-0.2-1.7c0.2,0.1,0.4,0.1,0.4,0.2c1.4,2,2.7,3.9,4,6c0.3,0.5,0.3,1.2,0.6,1.8c0.2,0.5,0.6,0.9,1,1.4
			c0.8-0.1,1.5-0.2,2.3-0.3c0-0.2,0.1-0.4,0.1-0.6c-0.1-0.5-0.2-0.9-0.5-1.3c-1.2-2.2-2.7-4.3-3.7-6.7c-0.7-1.7-1.6-3.3-2.7-4.8
			c-0.3-0.4-0.2-1-0.3-1.6c-0.3-0.2-0.8-0.4-1-0.5c-0.1-0.9-0.2-1.6-0.3-2.3c-0.3-0.3-0.7-0.5-1-0.8c-0.1-0.7-0.2-1.4-0.3-2.3
			c0.2,0.1,0.4,0.2,0.6,0.3c0.1,0.1,0.4,0.2,0.4,0.3c0.4,2,1.5,3.5,2.5,5.2c0.3,0.5,0.4,1,0.7,1.5c0.1,0.2,0.4,0.3,0.6,0.5
			c0.1,0.5,0.1,0.9,0.2,1.6c0.4,0.2,0.8,0.4,1.1,0.6c0.1,0.7,0.1,1.2,0.2,1.7c1.8,1.3,2.6,3.3,3.6,5.1c0.1,0.2,0.1,0.5,0.3,0.6
			c1.7,2,2.5,4.6,4.8,6.1c1,0,1.7-0.4,1.5-1.6c-1.1-1.5-2.3-3-3.5-4.6c0-1.1-0.3-2.3-1.4-3.2c0.3-1.4-1.9-1.7-1.2-3.3
			c-0.5-0.3-0.9-0.5-1.2-0.6c-0.1-0.8-0.2-1.4-0.2-2c0.3,0,0.7-0.2,0.7-0.1c0.9,1.3,2,2.5,2.5,3.9c0.7,1.8,1.9,3.2,2.8,4.8
			c1.3,2.3,2.8,4.6,4.4,6.8c1.4,1.8,2.7,3.6,4.1,5.6c0.6-0.1,1.1-0.1,1.5-0.2c0.2-0.3,0.4-0.5,0.7-0.9c-0.1-0.3-0.1-0.8-0.4-1.1
			c-0.9-1.1-1.4-2.4-2.4-3.4c-0.6-0.6-0.6-1.7-1.1-2.6c-0.7-1.3-1.6-2.5-2.3-3.7c-1-1.8-2-3.7-2.9-5.5c-0.3-0.5-0.4-1.2-0.2-2
			c0.3,0.4,0.6,0.7,0.8,1.1c1.1,2,2.1,4.1,3.2,6.1c0.6,1.1,1.3,2.3,2,3.4c0.7,1.1,1.4,2.3,2.2,3.3c1.2,1.4,2.4,2.9,3.6,4.3
			c1.5-0.1,1.5-0.1,2.3-1.1c-0.5-1.7-1.5-3.1-2.8-3.9c-0.8-1.9-1.3-3.8-2.3-5.3c-1-1.5-1.7-3.2-2.3-4.8c-0.7-1.7-2.2-3.1-2.2-5.3
			c1.2,0.2,1.4,1.4,2.2,1.7c0.7,2.3,2.5,4.1,3.7,6.2c1.6,3,3.8,5.7,5,8.8c1.7,1.2,1.7,3.6,3.5,4.7c0.2,2,2,2.8,3.4,4.1
			c0.4-0.3,0.7-0.7,1.1-1c-0.8-1.7-1.9-3.2-2.8-4.8c-0.9-1.7-1.5-3.5-2.7-5.1c-1.1-1.4-1.5-3.3-2.2-5c0.8,0.9,2.1,1.4,2.3,2.9
			c0,0.4,0.5,0.8,0.8,1.1c1.5,1.7,2.4,3.8,3.6,5.6c0.9,1.3,2.1,2.4,2.7,3.8c0.5,1.2,1.2,2,2.1,2.8c0.8-0.1,1.5-0.2,2.3-0.2
			c-0.1-0.6-0.1-1-0.2-1.7c-0.7-0.5-1.5-1-2.3-1.6c0.1-0.1,0.2-0.2,0.3-0.3c-0.6-1.3-0.9-2.7-1.8-3.8c-0.8-1-0.9-2.1-1.5-3.1
			c-0.5-0.9-1-1.9-1.5-2.9c-0.2-0.5-0.4-1-0.7-1.5c-1-1.4-1.5-2.9-1.4-4.9c0.6,0.3,1.1,0.3,1.3,0.6c0.6,0.8,1,1.7,1.5,2.6
			c0.1,0.2,0.2,0.4,0.3,0.6c2,2.1,2.7,5.1,4.9,7.1c0.7,2.4,2.8,3.9,3.9,6c0.2,0.4,0.6,0.7,1,1.1c0.4-0.4,0.6-0.7,0.9-1.1
			c-0.1-0.5-0.1-1-0.1-0.9c-1.1-1.8-2.1-3.2-2.8-4.7c-0.4-0.8-0.6-1.8-1-2.6c-0.5-0.8-0.9-1.6-1.2-2.5c-0.5-1.4-1.3-2.7-2-3.9
			c-0.9-1.4-1.5-2.9-2-4.5c-0.2-0.5-0.5-1-0.7-1.5c1.5,0.6,1.5,0.6,1.8,1.9c2.1,1,2.8,3.5,4.6,5.2c-0.2,1.9,0.9,3.7,1.9,5.4
			c0.8,1.3,0.8,3.1,2.1,4.1c0.1,2.5,1.8,4.6,1.8,7.2c0,2.1,0.4,4.1,0.6,6.1c-0.3,0.4-0.6,0.7-0.9,1.1c0.2,1.4,0.3,2.9,0.5,4.4
			c0.1,1,0.3,2.1-0.2,3.1c-0.6,1.3-0.2,2.7-0.1,4.1c-1.2,1.4-0.6,2.9-0.5,4.5c-1,1.6-1,3.5-1.4,5.3c-0.5,2.3-0.7,4.6-2.1,6.6
			c-0.6,0.9-0.8,2.2-0.8,3.3c0,0.8-0.4,1.5-0.6,2.2c-0.6,1.9-1.2,3.8-1.7,5.6c1.6,2.4,4.2,2.1,6.2,3c1.9-0.4,3.3,0.8,4.9,1.3
			c0.8,0.2,1.6,0.5,2.7,0.8c0.6,1.1,1.6,2.1,3.3,1.8c1.5,1.1,3.4,0.4,5,0.9c1.5,0.4,2.9,0.9,4.4,1.6c0.4,0.2,0.8,0.2,1.1,0.4
			c0.9,0.7,2,0.5,2.9,0.9c0.9,0.4,1.6,1,2.4,1.5c0.6-0.1,1.1-0.1,1.6-0.2c0.9,1,2.1,1,3.3,1.1c2,0.3,4,0.6,5.7,1.5
			C952.2,418.9,950.9,419.7,950.7,420.9z"/>
		<path d="M608.5,239c0.7-0.1,1.4-0.2,2.1-0.2c0.3-0.4,0.6-0.7,0.8-1c0.3,0,0.7-0.1,1-0.1c0.8,1,1.1,2.5,2.8,2.8
			c0.3-0.4,0.5-0.8,0.6-0.9c0.2-1.2-1.4-1.7-0.3-2.8c1.9,0.2,1.2,2.9,3.3,3.3c0.1-0.3,0.1-0.7,0.2-1.1c0.2-0.9,0-2.1-0.5-3.2
			c-0.5-1.2-0.9-2.4-0.7-4.3c0.5,1.6,1.4,2.3,1.7,3.5c0.4,1.5,1.2,2.8,1.9,4.2c0.2,0.4,0.7,0.7,1.1,1.1c0.4-0.4,0.6-0.7,0.9-1.1
			c-0.6-2.4-1.5-4.9-1.2-7.7c2.1,1.7,2.2,4.7,4.3,6.1c0.9,0,1.6-0.3,1.6-1.4c-0.8-2.1-2.4-4-2.2-6.4c-0.5-0.4-0.8-0.6-1-0.8
			c-0.1-0.7-0.1-1.2-0.2-1.8c0.3,0,0.5,0,0.7,0c1.4,2.7,2.8,5.3,4.2,7.8c0.4,0.7,1.2,0.9,2,0.3c-0.3-1.5,0-3.2-1.4-4.3
			c-0.4-0.9-0.1-1.8-0.8-2.6c-0.6-0.7-0.7-1.9-0.9-2.9c-0.2-1.7-0.4-3.3-1.5-4.7c0.1-1.3-1.3-2.3-0.7-3.9c0.7,1.3,1.7,2.3,1.7,3.7
			c1.5,1.1,1.6,3,2.5,4.4c1.1,1.8,1.9,4,4.1,5.3c0.4-0.3,0.9-0.6,1.3-0.9c-0.1-1-0.2-1.9-0.3-2.6c-0.4-0.4-0.8-0.7-1.1-1.1
			c-0.7-1.1-1.6-2-1.4-3.4c-1.2-2.3-1.6-4.9-1.8-7.4c0-0.1,0.1-0.3,0.2-0.4c0.3,0.2,0.5,0.4,0.6,0.5c0.5,1.4,0.8,2.6,1.4,3.8
			c0.6,1.2,0.6,2.7,1.9,3.3c0.6-0.1,1.2-0.1,2-0.2c-0.5-1.6-0.7-3.2-1.4-4.7c-0.4-0.9-0.9-1.8-1.2-2.8c-0.3-1-0.6-2-0.7-3
			c0-0.3,0-0.7-0.2-1c-1-1.1-0.6-2.4-0.6-3.7c0.6,0.6,1.3,1.2,1.4,1.9c0.2,1.4,1,2.4,1.5,3.7c0.4,1.1,0.5,1.1,2,0.8
			c0-0.2-0.1-0.5,0-0.7c0.6-1.2,0.3-2.3-0.4-3.3c-0.6-0.8-0.7-1.8-0.8-2.7c0-0.4-0.4-0.7-0.5-1.1c-0.2-1-0.3-2.1-0.4-3.1
			c0-0.1,0.1-0.1,0.1-0.2c0.2,0,0.3-0.1,0.5-0.1c0.6,1,0.7,2.5,2.2,2.9c0.2-0.4,0.4-0.7,0.7-1.2c-0.2-1.6-0.4-3.4-0.6-5.3
			c1.2-1.8,2.3-3.8,3.7-5.6c1.5-1.9,2.7-4,4.7-5.4c0.4-0.3,0.5-1,0.8-1.4c0.7-0.9,1.4-1.8,2.2-2.6c0.7-0.8,1.5-1.5,2.1-2.4
			c0.3-0.3,0.3-1,0.6-1.2c2.1-1.5,3.6-3.5,5.2-5.4c0.3-0.3,0.8-0.5,1.1-0.7c0.8,0.6,1.6,1.1,2.4,1.6c0.4-1.1-0.5-2.3,0.7-2.8
			c1.6,0.5,1.4,2.3,2.4,3.1c0.8,0,1.4-0.3,1.7-1.4c-1.2-1.3-1.4-3.2-1.9-5.1c0.6-0.5,0.6-0.5,1.5-0.6c0.7,1.4,1.2,2.8,1.9,4.1
			c0.4,0.6,1.1,0.7,1.9,0.1c-0.4-2.1-0.9-4.3-1.3-6.4c0.3-0.4,0.6-0.6,1-1.1c0.3,0.5,0.6,0.8,1,1.4c0,0.3,0.1,0.9,0.2,1.6
			c0.9,0.7,1.2,1.6,1.3,2.7c0.1,0.9,0.6,1.7,1.3,2.1c0.5-0.5,0.9-0.9,1.3-1.3c-0.1-0.7-0.2-1.4-0.3-2.7c1,1.4,1.6,2.4,2.3,3.3
			c0.2,0.2,0.5,0.3,1.1,0.7c-0.2-1.5-0.3-2.6-0.4-3.8c0.6,0,0.9,0.2,0.9,0.5c0.4,1.7,2,2.7,2.7,4.3c0.3,0.7,1.3,1.6,2.4,0.8
			c-0.1-1.8-0.2-1.8-0.9-3.2c-0.7-1.4-1.4-2.8-1.2-4.7c0.8,0.9,1.8,1.6,2.1,2.5c0.6,1.8,2.2,3,2.7,4.9c0.1,0.5,1,0.9,1.7,1.5
			c0.3-0.9,0.5-1.5,0.8-2.2c-0.6-0.9-1.2-1.8-2-3c0-0.5-0.1-1.3-0.1-2.4c2.3,1.5,2.2,4.3,4.3,5.4c0.9,0,1.5-0.3,1.6-1.3
			c-0.6-0.9-1.1-1.8-1.8-2.9c0-0.9-0.4-2.1-0.2-3.6c1.6,2.8,3.2,5.3,5,7.7c0.3,0,0.7-0.1,1.3-0.1c-0.3-1.1-0.8-2.1-0.9-3.2
			c-0.1-1.1-1.5-1.9-0.6-3.1c1.4,2.1,2.2,4.7,4.8,6.3c0-1.8-0.5-3.3-0.3-4.8c1,0,1.2,0.5,1.5,1.1c0.8,1.5,2,2.8,2.9,4.2
			c0.5,0.9,1.1,1.3,1.9,1.6c0.8-1.3-0.4-2.2-0.6-3.2c-0.2-1.2,0.4-2.2,0.3-3.7c0.7,1.1,1.2,1.8,1.7,2.5c0.5,0.8,1,1.6,1.8,2.8
			c0,0,0.1,0.6,0.1,1.3c0.6,0.1,1.2,0.2,1.8,0.3c0.2-2.4-1.1-4.1-1.6-6.1c-0.5-1.9-1.6-3.6-2.5-5.5c0.3-0.1,0.5-0.2,0.7-0.3
			c0.4,0.6,0.7,1.3,1.1,1.8c0.6,0.6,0.3,1.7,1.3,2c1.8,2.6,3.9,5,5.4,7.9c0.3,0.6,0.6,1.8,1.9,1.4c-0.1-0.9-0.2-1.8-0.3-2.7
			c-0.9-0.8-1.4-1.8-1.1-3.1c0.2,0,0.4,0,0.6-0.1c0.3,0.5,0.6,1.1,0.9,1.6c0.3,0.6,0.6,1.3,1,2.2c0.3,0.2,0.9,0.6,1.8,1.2
			c-0.6-4.1-1.9-7.5-2.6-11.2c2.8,4,5.3,8.1,8,12c0.4,0.1,0.8,0.2,1.2,0.4c0.2-0.3,0.4-0.6,0.6-0.9c-0.4-0.6-0.8-1.2-1.2-1.8
			c-0.1-0.7-0.2-1.4-0.2-2.2c0.3,0,0.5-0.1,0.7-0.1c0.4,0.5,0.1,1.3,0.9,1.7c1.8,1,2.3,3.1,3.2,4.8c0.6,0.1,1.1,0.3,1.9,0.5
			c-0.1-0.7,0-1.1-0.2-1.5c-0.8-1.7-1.5-3.4-2.4-5c-0.7-1.3-0.9-2.5-1-4c1.7,1.1,2.2,2.8,2.9,4.4c0.8,1.5,1.8,2.9,2.9,4.2
			c1,1.3,1.2,3.3,2.8,4.1c0.9-0.7,0.7-1.6,0.3-2.4c-0.5-1-1.1-2-1.6-3.1c-0.5-1.1-1.2-2.2-1.4-3.4c-0.4-1.7-0.2-3.6-1.1-5.2
			c0-0.1,0.1-0.3,0.2-0.6c0.3,0.4,0.7,0.7,0.8,1.1c0.2,0.5,0.2,1,0.6,1.5c0.8,1,1.4,2.2,2,3.4c0.6,1.1,1.6,2.1,1.8,3.2
			c0.2,1.5,1.6,2.1,2.1,3.4c0.2,0.5,0.4,1,0.6,1.5c0.2,0.7,0.6,1.1,1.4,1c0.2,0,0.4-0.1,0.7-0.2c-0.1-0.6-0.1-1.2-0.2-1.7
			c-0.4-0.3-0.7-0.6-1-0.8c-0.4-1.4-0.1-2.9-0.9-4.3c-0.4-0.7-0.4-1.7-0.8-2.5c-0.2-0.4-0.5-1.1,0.4-1.6c0.5,1.1,1.6,1.5,1.8,2.9
			c0.1,0.9,0.9,1.9,1.6,2.5c1,0.7,1.1,1.7,1.8,2.5c0.3,0.4,0.5,1.1,0.9,1.6c0.7,1,1.3,2.1,1.7,3.3c0.4,1.4,1.3,2.3,2,3.3
			c0.5,0,0.8-0.1,1.3-0.1c-0.1-0.8-0.2-1.5-0.2-2c-2-3.4-3.2-7-5.1-10.6c0-0.4,0-1.1-0.1-1.9c0.4,0.3,0.7,0.4,0.7,0.6
			c0.2,1.1,1,1.9,1.5,2.9c0.9,1.5,1.7,3.1,2.5,4.7c0.9,1.7,2.1,3.1,3,4.7c0.7,1.2,1.5,2.2,1.5,3.6c0.6,0.6,1.1,1.2,1.8,2
			c0.4-0.6,0.7-0.9,1-1.3c-0.6-0.7-1.3-1.1-1.3-1.6c-0.1-0.9-0.9-1.1-1.3-1.7c-0.2-1.9-0.5-3.8-0.6-5.7c-0.1-1.2-0.4-2.2-0.9-3.2
			c-0.6-1.1-0.8-2.2-0.8-3.7c0.4,0.3,0.7,0.5,0.8,0.7c1.2,2.4,2.3,4.9,3.5,7.3c1,2.2,1.6,4.7,3.2,6.7c-0.3,1.1,1.2,1.4,1.2,2.2
			c0.1,1.4,1.1,2.2,1.6,3.3c0.2,0,0.4-0.1,0.5-0.1c0.1-0.1,0.2-0.3,0.2-0.4c-0.3-1.1,0.2-2.3-0.8-3.2c-0.9-0.8-0.7-2.2-1.2-3.3
			c-0.6-1.3-1.6-2.6-1.6-4.1c0-0.2,0.1-0.4,0.1-0.6c0.5,0.4,1,0.7,1.4,1.1c0,0.4-0.1,0.8,0.1,1c0.8,0.7,0.8,1.9,1.4,2.4
			c0.9,0.7,0.9,1.7,1.3,2.5c0.1,0.3,0.2,0.6,0.5,0.8c0.8,0.6,1.1,1.5,1.3,2.4c0.2,0.6,0.4,1.3,0.9,1.6c0.8,0.6,0.7,1.4,1,2.1
			c0.3,0.8,1.2,1.3,1.2,2.2c-0.1,1,0.9,1.1,1.3,1.8c0,0.4,0.1,0.9,0.1,1.3c0.6,0.6,1.2,0.9,2,0.2c-0.3-1.4-0.6-2.8-1-4.1
			c-0.2-0.7-0.8-1.3-1.2-2c-0.2-0.4-0.5-0.8-0.6-1.2c-0.8-2.2-1.4-4.4-2.6-6.5c-0.3-0.5-0.2-1.2-0.4-2.1c0.6,0.3,1.1,0.4,1.3,0.6
			c0.8,1.1,1.5,2.3,2.2,3.5c0.7,1.3,1.4,2.5,2.2,3.8c0.1,0,0.2-0.1,0.3-0.1c0.1,0.7,0.2,1.4,0.2,2.1c0.4,0.3,0.7,0.4,0.9,0.7
			c1.1,2.1,2.3,4.1,2.8,6.3c0.2,1,0.5,1.8,1.3,2.4c0.2,0.1,0.4,0.2,0.6,0.2c0.2-0.2,0.4-0.4,0.5-0.6c0.1-0.2,0.2-0.4,0.2-0.6
			c-0.6-1.5-0.8-3-1.7-4.2c-1.1-1.4-1.1-2.9-1.1-4.5c2.2,2.5,3,5.7,5.1,8.3c0.2,0.6,0.4,1.4,0.7,2.2c0.3,0.8,0.8,1.5,1.2,2.3
			c0.5-0.1,1.1-0.2,1.9-0.4c-0.6-0.8-1-1.5-1.6-2.3c-0.1-0.9,0.1-2.3-0.4-3.1c-0.9-1.3-1-2.8-1.8-4c-0.8-1.1-0.7-2.2-0.9-3.8
			c0.6,0.5,1,0.8,1.1,1.1c0.4,2.5,2.2,4.4,3.1,6.8c0.7,1.9,2.3,3.4,2.3,5.6c1.2,0.6,0.4,1.9,1.1,2.8c0.6,0.8,0.4,2.2,0.6,3.3
			c0.2,1.3,0.3,2.7,0.5,4c0.1,0.5,0.4,1,0.5,1.1c-0.1,0.9-0.1,1.6-0.1,2.2c0,0.7,0.3,1.4,0.1,1.9c-0.6,1.5-0.7,3.1-1.3,4.7
			c-0.6,1.6-1.3,3.2-1.4,4.8c-0.1,1.5-0.9,2.8-0.8,4.4c0,1.4-0.6,2.9-1.5,4.1c-1.4,2.1-1.8,4.4-2.6,6.7c-0.2,0.6,0.3,1.4-0.5,1.8
			c-1.3,0.6-1.5,1.9-1.5,2.9c-0.2,1.9-1.1,2.8-2.8,3.5c-0.1,1-0.2,2.1-0.2,3c-0.8,1.8-2.8,2.7-3,5.1c-0.3,0.3-0.9,0.8-1.1,1.4
			c-0.6,2-1.9,3.5-2.8,5.2c-0.5,0.9-1.1,1.9-1,3.1c0.1,0.5-0.2,0.9-0.3,1.4c-0.5,1.1-1.4,1.9-2.3,2.7c0.4,1.8-0.3,3.1-1.5,4.3
			c0,0.3,0.1,0.6,0.1,1c-1.7,1.6-2.4,3.7-3.3,5.7c0.3,1.6-0.8,2.7-1.5,3.6c-0.2,1-0.3,1.8-0.5,2.7c0.3,0.2,0.6,0.5,0.9,0.7
			c0.6-0.3,1.2-0.6,1.8-0.9c2.1,1.8,1.9,5.1,4.7,6.3c0.3-0.4,0.6-0.7,0.9-1c-1.1-1.5-1.3-3.5-2.7-4.7c0-1.9-1.1-3.4-1.6-5.1
			c0.4-0.9,0.9-1.4,1.9-1c0.2,1.8,1.4,3.9,2.5,6.3c0.7,1.5,1.6,2.6,2.8,3.5c0.1,0.1,0.3,0,0.5,0c0.2-0.6,0.4-1.1,0.6-1.5
			c-0.4-0.8-0.6-1.5-1-2c-1.8-1.7-2.3-4.1-2.8-6.4c-0.4-1.6-0.6-3.1-1.7-4.4c0.3-0.7,0.5-1.3,0.7-1.9c0.5,0,0.8,0,1.1-0.1
			c0.8,1.4,0.8,3.4,3,3.8c-0.2-1.4-0.3-2.7-0.4-4c-0.3-0.2-0.7-0.4-1-0.6c-0.2-1.4-0.3-2.8-0.4-4.1c1.7-3.1,2.3-6.9,5.1-9.6
			c1.5,2.5,2.8,4.7,4.1,6.8c0.7-0.1,1.1-0.1,1.4-0.2c-0.1-1,0-2-0.4-2.7c-0.9-1.6-1.5-3.4-2.3-5.1c-0.5-1.1-0.8-2.4-1.2-3.6
			c0.2,0.1,0.5,0.3,0.7,0.4c0.2-0.7,0.3-1.3,0.6-2.5c0.6,0.9,0.8,1.2,1.2,1.8c0.3,2.2,1.6,4.4,3.1,6.5c0.3,0.4,0.8,1.2,1.8,0.6
			c-0.2-1.2-0.2-2.6-0.7-3.7c-0.8-1.7-1.4-3.4-2.2-5.1c-0.5-1.1-0.7-2.4-1-3.6c0.6-0.3,0.9-0.5,1.4-0.8c0.2,2.1,2.5,6.9,3.5,8.3
			c0.6,0.8,1.3,1.6,2.4,1.7c0.8-2-1.2-3.1-1.3-4.7c-0.1-0.7-0.7-1.3-1.2-2.1c-0.2-1.1-0.1-2.4-0.9-3.6c-1-1.4-0.8-3.1-1.1-5.2
			c0.5,0.7,0.7,1,0.9,1.2c0.1-0.1,0.2-0.1,0.2-0.2c0.1,0.7,0.2,1.4,0.2,2c0.5,0.5,0.9,0.8,1.1,1.2c0.5,1,1.1,1.9,1.3,3
			c0.3,1.2,1,1.5,2.1,2c0.1-1.3,0.1-2.5-0.4-3.5c-0.6-1.5-0.8-3-1.4-4.5c-0.1-0.3,0-0.7,0-1c1.3,1.8,2.3,3.6,3.9,5.2
			c0.3-0.3,0.6-0.7,1-1.1c-0.9-2.8-2.4-5.4-2.9-8.4c0.4,0.3,0.8,0.7,0.9,1.2c0.7,1.6,1.6,3.1,3,4.1c0.2,0.1,0.4,0.2,0.7,0.3
			c0.3-0.4,0.5-0.8,0.8-1.2c-1.1-2-2.3-3.8-3.3-5.7c-1-2-1.1-4.4-2.5-6.4c0.6-0.4,1-0.7,1.5-1.2c0.4,3.4,2.1,6.1,3.5,8.8
			c0.3,0.6,0.7,1.1,1.5,0.8c0.2-1.9-0.3-3.6-1.1-5.2c-0.7-1.5-1-3.1-1.8-4.5c-0.5-0.9-0.5-2.1-0.8-3.2c-0.4-1.1-0.4-2.3-0.9-3.5
			c-0.1-0.2,0.3-0.5,0.6-1.1c0.4,1.3,0.6,2.3,1.1,3.2c0.8,1.6,0.8,3.4,1.5,5c0.6,1.3,0.8,2.7,2,3.6c0.1,0.1,0.3,0.1,0.8,0.2
			c0.2-0.2,0.5-0.6,0.8-1c-1.2-1.5-1-3-1.3-4.7c1.1,0.6,2.1,1.2,3,1.7c0.2-0.2,0.4-0.5,0.6-0.7c-0.3-1.2-0.7-2.3-1.1-3.6
			c-1.1-0.9-1.1-2.3-1.2-3.6c-0.1-1.3-0.2-2.6-1.4-3.5c0-1-0.5-2-0.7-3c-0.2-1.1-0.8-2.1-0.9-3.2c-0.1-1.2-0.5-2.3-0.9-3.5
			c-0.2-0.7-0.5-1.3-0.7-2c-0.4-1.6-0.7-3.1-1-4.7c0-0.2-0.2-0.4-0.4-0.6c-0.9-1.4-1.7-2.7-2.6-4.1c-0.1-0.8,0-1.9-0.5-2.4
			c-1.2-1.2-1.1-2.9-1.7-4.3c-0.5-1-0.9-2.1-1.4-3.2c-0.5-1-0.8-2.2-1.5-3.1c-1.5-2-2.4-4.3-4-6.2c-0.1-0.2-0.1-0.5-0.1-1.1
			c-0.6-0.5-1.4-1.1-2.2-1.7c0-0.3-0.1-0.7-0.1-1.2c-0.6-0.4-1.2-0.8-1.6-1.1c-0.1-0.6,0-1-0.2-1.2c-1-1-2.1-2-3.2-3
			c-2-1.7-3.9-3.5-5.9-5.2c-0.2-0.1-0.3-0.4-0.4-0.6c-0.7-0.8-1.3-1.6-2.3-2.1c-0.9-0.5-1.7-1.1-2.3-2.1c-0.3-0.7-1.2-1.3-1.9-1.5
			c-1.6-0.3-2.7-1.3-3.5-2.6c-1.3,0-2.4-0.4-3.3-1.2c-2.2-1.9-4.5-3.7-7.2-4.9c-0.5-0.2-1-0.3-1.5-0.4c-0.8-0.6-1.5-1.1-2.2-1.6
			c-1.2,0.5-1.8-1.3-2.9-0.7c-0.9-0.6-1.9-1.2-2.8-1.8c-0.2-0.1-0.4-0.3-0.6-0.3c-2-0.1-3.9-1-5.9-1.4c-1.1-0.2-2.2-0.6-3.7-1
			c-1.8,0.3-3.7-0.8-6.2-1.4c-0.1,0-0.8,0.3-1.4,0.1c-2.3-0.6-4.6-0.6-6.9-0.2c-0.8,0.1-1.8,0.5-2.5,0.2c-1.8-0.7-3.6,0.4-5.5-0.3
			c-0.6-0.2-1.6,0.5-2.4,0.7c-1.5,0.2-3,0.4-4.5,0.5c-1.6,0.1-3.2,0.3-4.6,1.4c0.1,0.5,0.1,1,0.2,1.6c-0.5,0.1-0.9,0.1-1.1,0.1
			c-0.4-0.5-0.8-0.9-1.1-1.4c-2.2,0.3-4.1,1.3-6.3,1.3c-0.2,0-0.3,0.4-0.5,0.4c-1.3,0.2-2.1,1.4-3.2,1.9c-1.9,1-3.8,2-5.6,3.2
			c-0.4,0.3-0.8,0.6-1.2,0.6c-1.5,0.2-2.4,1.1-3,2.1c0,0.6,0,0.9,0,1.3c-0.5,0-1,0.1-1.3,0c-0.6-0.5-1.5-0.4-1.9-0.1
			c-1.6,1.2-3.6,1.7-5.1,3.2c-1.2,1.2-2.4,2.8-4.4,2.9c-0.4,0-0.9,0.6-1.3,1c-0.9,0.8-1.7,1.7-2.5,2.6c-1.1,1.1-2.3,2.2-3.5,3.2
			c-1.3,1-1.7,2.7-2.6,3.3c-0.9,0.5-1.4,0.7-1.8,1.1c-2.2,1.9-4.2,4.1-6,6.3c-0.7,0.8-1.3,1.6-2.1,2.3c-1.5,1.3-2.7,3-3.7,4.7
			c-0.5,0.9-1.4,1.4-1.7,2.1c-0.4,1-1,1.9-1.7,2.3c-0.9,0.6-1.3,1.5-2,2c0,0.4,0.1,0.7,0.1,0.9c-2.2,3-4.4,5.9-6.5,8.9
			c-0.2,0.3-0.3,0.5-0.5,0.8c-1.7,3.3-3.4,6.5-5.9,9.4c-0.8,0.9-1.4,1.9-1.9,3.1c-0.5,1.4-1.2,2.7-2,4c-1.7,2.8-3.4,5.5-5,8.4
			c-0.6,1.2-1.1,2.3-0.8,3.6C608.3,238.7,608.4,238.9,608.5,239z"/>
		<path d="M762.2,245.1c1.8,1.5,4.5,1,6.3,2.6c0.1,0.1,0.5-0.1,0.7-0.1c0.3,0,0.7,0,0.9,0.1c1.8,1.2,3.9,1.6,5.8,2.4
			c0.4,0.2,0.9,0.1,1.5,0.2c1.5-3.2,3-6.3,4.6-9.6c0.1-2.1-1.1-4.1-2.2-6c-0.4-0.8-1.1-1.6-1.9-2.1c-0.7-0.5-1.7-0.7-2.5-1
			c-1.2-0.6-2.2-1.9-3.4-2.3c-2-0.7-4-1.7-6-2.5c-4.2-1.5-8.3-3-12.2-5c-1.3,0.1-2.3-1-3.5-1.3c-1.3-0.2-2.5-0.9-3.7-1.3
			c-1.9-0.6-3.5-2-5.6-2.3c-1.3-0.2-2.6-1-3.9-1.3c-2.8-0.7-5.1-2.7-8.1-2.9c-1.7-1.4-3.9-1.6-5.7-2.7c-0.4-0.3-0.9-0.3-1.3-0.5
			c-1.1-0.4-2.2-0.9-3.2-1.3c-1.3-0.5-2.5-1.3-4-0.9c-0.9-0.7-1.6-1.5-2.8-1.4c-0.4,0-0.8-0.3-1.3-0.5c-1.2-0.5-2.2-1.7-3.7-1.3
			c-0.4,0.1-0.9-0.2-1.3-0.5c-0.8-0.5-1.5-1.1-2.5-1.2c-0.8-0.1-1.7-0.7-2.5-1.1c-1.2-0.6-2.5-0.4-3.5-1.1c-2.4-1.5-5.2-2.2-7.6-3.7
			c-0.3-0.2-0.5-0.3-0.8-0.4c-2.2-0.6-4.7-0.7-6.6-2.3c-0.3-0.2-0.7-0.4-1.1-0.4c-1.5,0.2-2.6-0.8-4-1.1c-1.4-0.3-2.9-0.8-4.1-1.6
			c-1.2-0.8-2.7-0.7-3.9-1.5c-0.3-0.2-1,0.1-1.2,0.1c-1.1-0.6-2-1.3-2.9-1.6c-0.5-0.2-1-0.1-1.6-0.3c-0.5-0.2-1.4,0.3-1.9,0.1
			c-0.6-0.3-1.1-0.3-1.6-0.2c-2,0.2-4,0.4-5.6,0.6c-1.6,1.1-2.9,1.9-4.1,2.8c-0.5,0.9-0.9,1.8-1.5,2.6c-1,1.6-2.2,3-3.2,4.6
			c-0.4,0.6-0.5,1.4-0.8,2.3c2.1,1.3,4.1,2.5,6.1,3.7c0.3-0.2,0.6-0.4,0.9-0.6c2.7,0.8,5.1,2.1,7.2,3.6c1,0.1,2.1,0,2.6,0.4
			c0.8,0.7,1.9,0.4,2.4,1c0.8,1.1,1.9,0.4,2.7,0.6c2.8,0.7,5.4,1.7,8.1,2.6c4.8,1.6,9.6,3.2,14,5.7c2.9,0.2,5.2,1.9,7.9,2.7
			c0.7,0.2,1.4,0.3,1.9,0.7c0.8,0.5,1.6,0.5,2.4,0.9c1.6,0.7,3.4,0.9,5,1.8c2.2,1.1,4.4,2.3,6.8,2.9c0.4,0.1,0.9-0.1,1.2,0.1
			c1.8,1.3,4.1,1.5,6,2.7c0.8,0.5,1.6,0.9,2.6,1c1,0.1,2,0.5,2.8,0.9c1.9,1,3.6,2.2,5.8,2.4c0.4,0,0.8,0.2,1.1,0.4
			c3.3,1.9,7.1,2.8,10.5,4.4c2.1,1,4.5,1.3,6.4,2.8c0.3,0.3,0.9,0.4,1.3,0.4c1.8-0.2,3.2,0.7,4.6,1.4c1.6,0.8,3.5,0.9,4.9,2.1
			C760.9,244.3,761.7,244.6,762.2,245.1z"/>
		<path d="M905.4,383.9c-1.2-0.9-2.3-1.8-3.4-2.7c-1.2-1-2.6-1.5-4-1.8c-1.4-0.3-2.8-0.4-4-1.1c-0.9-0.6-1.9-0.8-2.8-1
			c-0.9-0.2-1.8-0.3-2.6-0.9c-0.9-0.6-1.9-0.9-2.8-0.6c-0.6-0.3-1.1-0.6-1.6-0.8c-1.9-0.7-3.8-1.3-5.7-1.9c-1-0.4-2-0.9-3-1.1
			c-2-0.5-4-1-6-1.8c-2-0.8-4.2-0.8-6.2-1.8c-1-0.5-2-1.2-3-1.2c-2.7-0.1-5-1.7-7.6-1.9c-1.3-1-2.9-1-4.4-1.4
			c-1.1-0.4-2.4-0.4-3.4-0.8c-1.1-0.5-2.4-0.7-3.5-1.4c-0.7-0.4-1.5-0.7-2.4-0.8c-1.3-0.1-2.7-0.4-3.8-1c-1.2-0.7-2.8-0.3-3.7-1.5
			c-0.1-0.1-0.5-0.1-0.7-0.1c-2.4-0.7-5-0.9-7.5-1.6c-1-0.3-1.9-1-3.1-1c-1.2,0-2.4-0.6-3.6-0.8c-1-0.2-1.9-0.6-2.9-0.7
			c-1.3-0.1-2.6,0.1-3.8-0.1c-2.3-0.5-4.4,0-6.6,0.7c-3.7,1.1-5.8,3.8-7.4,7c-0.9,1.9-1.8,3.8-2.8,5.7c-0.2,0.4-0.2,0.9-0.3,1.2
			c1,0.8,1.8,1.5,2.3,2c1.5,0.4,2.6,0.7,4,1.1c0.6,0.3,1.4,0.9,2.3,1.2c1.4,0.6,2.8,1.2,4.3,1.6c1.5,0.4,3,1,4.5,1.2
			c1.5,0.2,2.8,1.5,4.5,1.1c1,0.9,2.4,0.4,3.3,0.9c1.1,0.7,2.2,1,3.3,1.1c1.6,0.2,3.1,1.5,4.6,0.8c1.7,0.5,3.2,1,4.7,1.5
			c0.7,0.2,1.3,0.5,1.9,0.8c1,0.4,2,0.8,3,1.1c1.1,0.3,2.3,0.3,3.4,0.7c2.1,0.8,4.3,1.3,6.3,2.3c0.3,0.2,0.7,0.3,1.1,0.4
			c2.7,0.8,5.6,1,8.2,2.3c0.5,0.3,1.2,0.4,1.7,0.6c0.6,0.2,1.2,0.5,2,0.8c0.2,0,0.7-0.1,1.5-0.2c0.2,0.2,0.5,0.6,0.8,0.9
			c0.6-0.1,1.1-0.1,1.5-0.2c0.6,0.4,0.9,1,1.8,0.8c0.3-0.1,0.8,0,1.1,0.2c2.7,1,5.6,1.2,8.1,2.8c0.1,0.1,0.3-0.1,0.5,0
			c2.2,0.6,4.6,0.6,6.6,2.1c0.2,0.1,0.5,0.1,0.7,0.1c0.9-0.2,1.6,0.2,2.3,0.5c2.6,1.3,5.6,1.1,8.2,2.4c1-0.3,1.6,0.2,2.5,0.6
			c0.7,0.3,1.7,0.1,2.5,0.4c1.4,0.5,2.7,1.1,4,1.6c2.5-1.9,5.3-10.6,6.4-14.8C906.2,386,905.2,385.2,905.4,383.9z"/>
	</g>
</g>
</svg>
