<?xml version="1.0" encoding="UTF-8"?><svg id="Calque_2" xmlns="http://www.w3.org/2000/svg" viewBox="0 0 980.1 644.56"><defs><style>.cls-1{fill:#5f9400;}.cls-1,.cls-2{stroke-width:0px;}.cls-2{fill:#dce176;}</style></defs><g id="Calque_1-2"><path class="cls-1" d="m935.95,0H44.15C19.77,0,0,19.76,0,44.14v556.28c0,24.39,19.77,44.14,44.15,44.14h891.8c24.38,0,44.15-19.76,44.15-44.14V44.14c0-24.39-19.77-44.14-44.15-44.14Z"/><path class="cls-2" d="m414.26,530.04h25.32c2.43,0,4.38-1.95,4.38-4.38v-8.28c0-2.43,1.95-4.38,4.38-4.38h25.32c2.43,0,4.38-1.95,4.38-4.38v-25.33c0-2.43-1.95-4.38-4.38-4.38h-8.28c-2.43,0-4.38,1.95-4.38,4.38v8.28c0,2.43-1.95,4.38-4.38,4.38h-8.28c-2.44,0-4.38-1.95-4.38-4.38v-42.37c0-2.44-1.95-4.38-4.38-4.38h-25.32c-2.43,0-4.38,1.95-4.38,4.38v25.32c0,2.43-1.95,4.38-4.38,4.38h-8.28c-2.43,0-4.38-1.95-4.38-4.38v-8.28c0-2.44-1.95-4.38-4.38-4.38h-8.28c-2.43,0-4.38,1.95-4.38,4.38v25.32c0,2.43,1.95,4.38,4.38,4.38h25.33c2.43,0,4.38,1.95,4.38,4.38v25.32c0,2.44,1.95,4.38,4.38,4.38Z"/><path class="cls-2" d="m354.78,445.64h16.53c1.59,0,2.86-1.27,2.86-2.86v-5.4c0-1.59,1.27-2.86,2.86-2.86h16.53c1.59,0,2.86-1.27,2.86-2.86v-16.53c0-1.59-1.27-2.86-2.86-2.86h-5.4c-1.59,0-2.86,1.27-2.86,2.86v5.4c0,1.59-1.27,2.86-2.86,2.86h-5.4c-1.59,0-2.86-1.27-2.86-2.86v-27.66c0-1.59-1.27-2.86-2.86-2.86h-16.53c-1.59,0-2.86,1.27-2.86,2.86v16.53c0,1.59-1.27,2.86-2.86,2.86h-5.4c-1.59,0-2.86-1.27-2.86-2.86v-5.4c0-1.59-1.27-2.86-2.86-2.86h-5.41c-1.59,0-2.86,1.27-2.86,2.86v16.53c0,1.59,1.27,2.86,2.86,2.86h16.53c1.59,0,2.86,1.27,2.86,2.86v16.53c0,1.59,1.27,2.86,2.86,2.86Z"/><path class="cls-2" d="m676.6,448.38h3.55c1.04,0,1.88-.83,1.88-1.88v-3.55c0-1.04-.83-1.88-1.88-1.88h-3.55c-1.04,0-1.88-.83-1.88-1.88v-3.55c0-1.04-.83-1.88-1.88-1.88h-3.55c-1.04,0-1.88.83-1.88,1.88v18.16c0,1.04-.83,1.88-1.88,1.88h-10.85c-1.04,0-1.88-.83-1.88-1.88v-3.55c0-1.04.83-1.88,1.88-1.88h3.55c1.04,0,1.88-.83,1.88-1.88v-3.55c0-1.04-.83-1.88-1.88-1.88h-3.55c-1.04,0-1.88-.83-1.88-1.88v-3.55c0-1.04-.83-1.88-1.88-1.88h-3.55c-1.04,0-1.88.83-1.88,1.88v3.55c0,1.04-.83,1.88-1.88,1.88h-3.55c-1.04,0-1.88.83-1.88,1.88v3.55c0,1.04.83,1.88,1.88,1.88h3.55c1.04,0,1.88.83,1.88,1.88v3.55c0,1.04-.83,1.88-1.88,1.88h-10.85c-1.04,0-1.88-.83-1.88-1.88v-18.16c0-1.04-.83-1.88-1.88-1.88h-3.55c-1.04,0-1.88.83-1.88,1.88v3.55c0,1.04-.83,1.88-1.88,1.88h-3.55c-1.04,0-1.88.83-1.88,1.88v3.55c0,1.04.83,1.88,1.88,1.88h3.55c1.04,0,1.88.83,1.88,1.88v3.55c0,1.04.83,1.88,1.88,1.88h3.55c1.04,0,1.88.83,1.88,1.88v3.55c0,1.04.83,1.88,1.88,1.88h10.85c1.04,0,1.88.83,1.88,1.88v3.55c0,1.04.83,1.88,1.88,1.88h3.55c1.04,0,1.88-.83,1.88-1.88v-3.55c0-1.04.83-1.88,1.88-1.88h10.85c1.04,0,1.88-.83,1.88-1.88v-3.55c0-1.04.83-1.88,1.88-1.88h3.55c1.04,0,1.88-.83,1.88-1.88v-3.55c0-1.04.83-1.88,1.88-1.88Z"/><polygon class="cls-2" points="79.36 67.76 79.36 62.44 84.68 62.44 84.68 46.48 79.36 46.48 79.36 41.16 58.08 41.16 58.08 46.48 52.76 46.48 52.76 62.44 58.08 62.44 58.08 67.76 79.36 67.76"/><path class="cls-2" d="m658.44,492.66h-3.55c-1.04,0-1.88.83-1.88,1.88v3.55c0,1.04.83,1.88,1.88,1.88h18.16c1.04,0,1.88-.84,1.88-1.88v-3.55c0-1.04-.83-1.88-1.88-1.88h-3.55c-1.04,0-1.88-.84-1.88-1.88v-10.85c0-1.04-.83-1.88-1.88-1.88h-3.55c-1.04,0-1.88-.84-1.88-1.88v-3.55c0-1.04-.84-1.88-1.88-1.88h-3.55c-1.04,0-1.88.83-1.88,1.88v3.55c0,1.04-.84,1.88-1.88,1.88h-3.55c-1.04,0-1.88-.84-1.88-1.88v-3.55c0-1.04-.84-1.88-1.88-1.88h-3.55c-1.04,0-1.88.83-1.88,1.88v3.55c0,1.04-.84,1.88-1.88,1.88h-3.55c-1.04,0-1.88.83-1.88,1.88v10.85c0,1.04-.83,1.88-1.88,1.88h-3.55c-1.04,0-1.88.83-1.88,1.88v3.55c0,1.04.84,1.88,1.88,1.88h18.15c1.04,0,1.88-.84,1.88-1.88v-3.55c0-1.04-.84-1.88-1.88-1.88h-3.55c-1.04,0-1.88-.84-1.88-1.88v-10.85c0-1.04.83-1.88,1.88-1.88h3.55c1.04,0,1.88.83,1.88,1.88v3.55c0,1.04.83,1.88,1.88,1.88h3.55c1.04,0,1.88-.84,1.88-1.88v-3.55c0-1.04.83-1.88,1.88-1.88h3.55c1.04,0,1.88.83,1.88,1.88v10.85c0,1.04-.84,1.88-1.88,1.88Z"/><path class="cls-2" d="m139.56,521.51h-16.53c-1.59,0-2.86,1.27-2.86,2.86v5.4c0,1.59,1.27,2.86,2.86,2.86h49.9c1.59,0,2.86-1.27,2.86-2.86v-5.4c0-1.59-1.27-2.86-2.86-2.86h-16.53c-1.59,0-2.86-1.27-2.86-2.86v-5.4c0-1.59,1.27-2.86,2.86-2.86h5.48c1.75,0,2.78-1.03,2.78-2.78v-5.57c0-1.75,1.03-2.78,2.78-2.78h5.56c1.75,0,2.78-1.04,2.78-2.78v-27.81c0-1.75-1.04-2.78-2.78-2.78h-5.56c-1.75,0-2.78-1.03-2.78-2.78v-5.57c0-1.75-1.03-2.78-2.78-2.78h-27.81c-1.75,0-2.78,1.03-2.78,2.78v5.57c0,1.75-1.04,2.78-2.78,2.78h-5.56c-1.75,0-2.78,1.04-2.78,2.78v27.81c0,1.75,1.03,2.78,2.78,2.78h5.56c1.75,0,2.78,1.03,2.78,2.78v5.57c0,1.75,1.03,2.78,2.78,2.78h5.49c1.59,0,2.86,1.27,2.86,2.86v5.4c0,1.59-1.27,2.86-2.86,2.86Zm-5.49-22.25c-1.75,0-2.78-1.04-2.78-2.78v-16.69c0-1.75,1.03-2.78,2.78-2.78h27.81c1.75,0,2.78,1.04,2.78,2.78v16.69c0,1.75-1.03,2.78-2.78,2.78h-27.81Z"/><path class="cls-2" d="m162.08,576.28h-5.4c-1.59,0-2.86,1.27-2.86,2.86v5.4c0,1.59,1.27,2.86,2.86,2.86h27.66c1.59,0,2.86-1.27,2.86-2.86v-5.4c0-1.59-1.27-2.86-2.86-2.86h-5.4c-1.59,0-2.86-1.27-2.86-2.86v-16.53c0-1.59-1.27-2.86-2.86-2.86h-5.4c-1.59,0-2.86-1.27-2.86-2.86v-5.4c0-1.59-1.27-2.86-2.86-2.86h-5.4c-1.59,0-2.86,1.27-2.86,2.86v5.4c0,1.59-1.27,2.86-2.86,2.86h-5.4c-1.59,0-2.86-1.27-2.86-2.86v-5.4c0-1.59-1.27-2.86-2.86-2.86h-5.4c-1.59,0-2.86,1.27-2.86,2.86v5.4c0,1.59-1.27,2.86-2.86,2.86h-5.4c-1.59,0-2.86,1.27-2.86,2.86v16.53c0,1.59-1.27,2.86-2.86,2.86h-5.4c-1.59,0-2.86,1.27-2.86,2.86v5.4c0,1.59,1.27,2.86,2.86,2.86h27.66c1.59,0,2.86-1.27,2.86-2.86v-5.4c0-1.59-1.27-2.86-2.86-2.86h-5.4c-1.59,0-2.86-1.27-2.86-2.86v-16.53c0-1.59,1.27-2.86,2.86-2.86h5.4c1.59,0,2.86,1.27,2.86,2.86v5.4c0,1.59,1.27,2.86,2.86,2.86h5.4c1.59,0,2.86-1.27,2.86-2.86v-5.4c0-1.59,1.27-2.86,2.86-2.86h5.4c1.59,0,2.86,1.27,2.86,2.86v16.53c0,1.59-1.27,2.86-2.86,2.86Z"/><path class="cls-2" d="m772.46,478.46c0-1.34-1.07-2.41-2.41-2.41h-4.56c-1.34,0-2.41,1.07-2.41,2.41v13.94c0,1.34-1.07,2.41-2.41,2.41h-4.55c-1.34,0-2.41,1.07-2.41,2.41v4.56c0,1.34-1.07,2.41-2.41,2.41h-4.55c-1.34,0-2.41,1.07-2.41,2.41v4.56c0,1.34-1.07,2.41-2.41,2.41h-4.56c-1.34,0-2.41,1.07-2.41,2.41v4.55c0,1.34-1.07,2.41-2.41,2.41h-4.55c-1.34,0-2.41,1.07-2.41,2.41v42.08c0,1.34,1.07,2.41,2.41,2.41h4.55c1.34,0,2.41-1.07,2.41-2.41v-23.32c0-1.34,1.07-2.41,2.41-2.41h4.56c1.34,0,2.41-1.07,2.41-2.41v-4.56c0-1.34,1.07-2.41,2.41-2.41h4.55c1.34,0,2.41-1.07,2.41-2.41v-4.55c0-1.34,1.07-2.41,2.41-2.41h4.55c1.34,0,2.41-1.07,2.41-2.41v-4.55c0-1.34,1.07-2.41,2.41-2.41h4.56c1.34,0,2.41-1.07,2.41-2.41v-32.7Z"/><path class="cls-2" d="m940.86,398.55v-8.52c0-2.68-1.58-4.26-4.26-4.26h-8.52c-2.68,0-4.26-1.58-4.26-4.26v-8.52c0-2.68-1.58-4.26-4.26-4.26h-8.52c-2.68,0-4.26-1.58-4.26-4.26v-8.52c0-2.68-1.58-4.26-4.26-4.26h-8.52c-2.68,0-4.26,1.58-4.26,4.26v25.57c0,2.68-1.58,4.26-4.26,4.26h-18.67v-92.51c0-2.68-1.58-4.26-4.26-4.26h-8.52c-2.68,0-4.26-1.58-4.26-4.26v-8.52c0-2.68-1.58-4.26-4.26-4.26h-8.52c-2.68,0-4.26-1.58-4.26-4.26v-8.52c0-2.68-1.58-4.26-4.26-4.26h-8.52c-2.68,0-4.26,1.58-4.26,4.26v8.52c0,2.68-1.58,4.26-4.26,4.26h-8.52c-2.68,0-4.26,1.58-4.26,4.26v8.52c0,2.68-1.58,4.26-4.26,4.26h-8.52c-2.68,0-4.26,1.58-4.26,4.26v92.51h-18.68c-2.68,0-4.26-1.58-4.26-4.26v-25.57c0-2.68-1.58-4.26-4.26-4.26h-8.52c-2.68,0-4.26,1.58-4.26,4.26v8.52c0,2.68-1.58,4.26-4.26,4.26h-8.52c-2.68,0-4.26,1.58-4.26,4.26v8.52c0,2.68-1.58,4.26-4.26,4.26h-8.52c-2.68,0-4.26,1.58-4.26,4.26v8.52c0,2.67,1.58,4.26,4.26,4.26h110.79c.61,0,1.14-.11,1.63-.26.49.16,1.02.26,1.63.26h110.79c2.68,0,4.26-1.58,4.26-4.26Zm-125.2-12.79h-17.05v-79.72h12.78c2.68,0,4.26,1.58,4.26,4.26v75.46Zm34.09,0h-17.05v-75.46c0-2.68,1.58-4.26,4.26-4.26h12.78v79.72Z"/><path class="cls-2" d="m687.12,377.6h3.56c1.05,0,1.88-.84,1.88-1.88v-10.9c0-1.05.84-1.88,1.89-1.88h3.56c1.05,0,1.88-.84,1.88-1.89v-3.56c0-1.05-.84-1.88-1.88-1.88h-3.56c-1.05,0-1.89-.84-1.89-1.89v-10.9c0-1.05-.84-1.88-1.88-1.88h-3.56c-1.05,0-1.89.84-1.89,1.88v10.9c0,1.05-.84,1.89-1.88,1.89h-3.56c-1.05,0-1.89-.84-1.89-1.89v-10.9c0-1.05-.84-1.88-1.88-1.88h-3.56c-1.05,0-1.89.84-1.89,1.88v10.9c0,1.05-.84,1.89-1.88,1.89h-3.56c-1.05,0-1.89-.84-1.89-1.89v-10.9c0-1.05-.84-1.88-1.88-1.88h-3.56c-1.05,0-1.88.84-1.88,1.88v10.9c0,1.05-.84,1.89-1.89,1.89h-3.56c-1.05,0-1.88-.84-1.88-1.89v-10.9c0-1.05-.84-1.88-1.89-1.88h-3.56c-1.05,0-1.88.84-1.88,1.88v10.9c0,1.05-.84,1.89-1.89,1.89h-3.56c-1.05,0-1.88-.84-1.88-1.89v-10.9c0-1.05-.84-1.88-1.89-1.88h-3.56c-1.05,0-1.88.84-1.88,1.88v10.9c0,1.05-.84,1.89-1.89,1.89h-3.56c-1.05,0-1.88-.84-1.88-1.89v-10.9c0-1.05-.84-1.88-1.89-1.88h-3.56c-1.05,0-1.88.84-1.88,1.88v10.9c0,1.05-.84,1.89-1.89,1.89h-3.56c-1.05,0-1.89-.84-1.89-1.89v-10.9c0-1.05-.84-1.88-1.89-1.88h-3.56c-1.05,0-1.89.84-1.89,1.88v10.9c0,1.05-.84,1.89-1.89,1.89h-3.56c-1.05,0-1.89-.84-1.89-1.89v-10.9c0-1.05-.84-1.88-1.89-1.88h-3.56c-1.05,0-1.89.84-1.89,1.88v10.9c0,1.05-.84,1.89-1.88,1.89h-3.56c-1.05,0-1.89-.84-1.89-1.89v-10.9c0-1.05-.84-1.88-1.88-1.88h-3.56c-1.05,0-1.89.84-1.89,1.88v10.9c0,1.05-.84,1.89-1.88,1.89h-3.56c-.23,0-.45.06-.65.13v-30.4c0-2.25,1.33-3.58,3.57-3.58h7.15c2.25,0,3.57-1.33,3.57-3.57v-7.15c0-2.25-1.33-3.57-3.57-3.57h-4.15v-48.91c0-1.59-1.27-2.86-2.86-2.86h-5.4c-1.59,0-2.86-1.27-2.86-2.86v-5.4c0-1.59-1.27-2.86-2.86-2.86h-27.65c-1.59,0-2.86,1.27-2.86,2.86v5.4c0,1.59-1.27,2.86-2.86,2.86h-5.4c-1.59,0-2.86,1.27-2.86,2.86v48.91h-4.56c-2.25,0-3.57,1.33-3.57,3.57v7.15c0,2.25,1.33,3.57,3.57,3.57h7.15c2.25,0,3.57,1.33,3.57,3.58v50.04c0,2.25,1.33,3.57,3.58,3.57h7.15c2.25,0,3.57-1.33,3.57-3.57v-50.04c0-2.25,1.33-3.58,3.57-3.58h7.15c2.25,0,3.57,1.33,3.57,3.58v50.04c0,2.25,1.33,3.57,3.58,3.57h7.15c2.25,0,3.58-1.33,3.58-3.57v-12.56c.2.07.42.13.65.13h3.56c1.05,0,1.88.84,1.88,1.88v10.9c0,1.05.84,1.88,1.89,1.88h3.56c1.05,0,1.88-.84,1.88-1.88v-10.9c0-1.05.84-1.88,1.89-1.88h3.56c1.05,0,1.88.84,1.88,1.88v10.9c0,1.05.84,1.88,1.89,1.88h3.56c1.05,0,1.89-.84,1.89-1.88v-10.9c0-1.05.84-1.88,1.89-1.88h3.56c1.05,0,1.89.84,1.89,1.88v10.9c0,1.05.84,1.88,1.89,1.88h3.56c1.05,0,1.89-.84,1.89-1.88v-10.9c0-1.05.84-1.88,1.89-1.88h3.56c1.05,0,1.89.84,1.89,1.88v10.9c0,1.05.84,1.88,1.88,1.88h3.56c1.05,0,1.89-.84,1.89-1.88v-10.9c0-1.05.84-1.88,1.88-1.88h3.56c1.05,0,1.89.84,1.89,1.88v10.9c0,1.05.84,1.88,1.88,1.88h3.56c1.05,0,1.89-.84,1.89-1.88v-10.9c0-1.05.84-1.88,1.88-1.88h3.56c1.05,0,1.89.84,1.89,1.88v10.9c0,1.05.84,1.88,1.88,1.88h3.56c1.05,0,1.89-.84,1.89-1.88v-10.9c0-1.05.84-1.88,1.88-1.88h3.56c1.05,0,1.89.84,1.89,1.88v10.9c0,1.05.84,1.88,1.88,1.88h3.56c1.05,0,1.88-.84,1.88-1.88v-10.9c0-1.05.84-1.88,1.89-1.88h3.56c1.05,0,1.88.84,1.88,1.88v10.9c0,1.05.84,1.88,1.89,1.88h3.56c1.05,0,1.88-.84,1.88-1.88v-10.9c0-1.05.84-1.88,1.89-1.88h3.56c1.05,0,1.88.84,1.88,1.88v10.9c0,1.05.84,1.88,1.89,1.88Zm-152.18-70.15h-11.13v-48.91c0-1.59,1.27-2.86,2.86-2.86h5.4c1.59,0,2.86,1.27,2.86,2.86v48.91Zm22.25,0h-11.13v-48.91c0-1.59,1.27-2.86,2.86-2.86h5.4c1.59,0,2.86,1.27,2.86,2.86v48.91Z"/><path class="cls-2" d="m907.15,549.26h11.81c1.14,0,2.04-.91,2.04-2.04v-3.86c0-1.14-.91-2.04-2.04-2.04h-3.86c-1.14,0-2.04-.91-2.04-2.05v-3.86c0-1.14-.91-2.04-2.05-2.04h-3.86c-1.14,0-2.04-.91-2.04-2.05v-3.86c0-1.14-.91-2.04-2.05-2.04h-3.86c-1.14,0-2.04.91-2.04,2.04v3.86c0,1.14-.91,2.05-2.05,2.05h-3.86c-1.14,0-2.04.91-2.04,2.04v3.86c0,1.14-.91,2.05-2.05,2.05h-3.86c-1.14,0-2.04.91-2.04,2.04v3.86c0,1.14.91,2.04,2.04,2.04h11.81c1.14,0,2.05.91,2.05,2.04v3.86c0,1.14-.91,2.04-2.05,2.04h-3.86c-1.14,0-2.04.91-2.04,2.04v3.86c0,1.14-.91,2.04-2.05,2.04h-3.86c-1.14,0-2.04.91-2.04,2.05v19.76c0,1.14.91,2.04,2.04,2.04h3.86c1.14,0,2.05.91,2.05,2.05v3.86c0,1.14.91,2.05,2.04,2.05h3.86c1.14,0,2.05.91,2.05,2.04v3.86c0,1.14.91,2.05,2.04,2.05h3.86c1.14,0,2.05-.91,2.05-2.05v-3.86c0-1.14.91-2.04,2.04-2.04h3.86c1.14,0,2.05-.91,2.05-2.05v-3.86c0-1.14.91-2.05,2.04-2.05h3.86c1.14,0,2.04-.91,2.04-2.04v-19.76c0-1.14-.91-2.05-2.04-2.05h-3.86c-1.14,0-2.04-.91-2.04-2.04v-3.86c0-1.14-.91-2.04-2.05-2.04h-3.86c-1.14,0-2.04-.91-2.04-2.04v-3.86c0-1.14.91-2.04,2.04-2.04Zm-9.99,37.7c0,1.14-.91,2.04-2.05,2.04h-3.86c-1.14,0-2.04-.91-2.04-2.04v-3.86c0-1.14.91-2.05,2.04-2.05h3.86c1.14,0,2.05.91,2.05,2.05v3.86Zm0-15.9c0,1.14-.91,2.04-2.05,2.04h-3.86c-1.14,0-2.04-.91-2.04-2.04v-3.86c0-1.14.91-2.05,2.04-2.05h3.86c1.14,0,2.05.91,2.05,2.05v3.86Zm15.9,15.9c0,1.14-.91,2.04-2.05,2.04h-3.86c-1.19,0-2.04-.85-2.04-2.04l.05-3.92c0-1.14.85-1.99,1.99-1.99h3.86c1.14,0,2.05.91,2.05,2.05v3.86Zm-5.91-21.8h3.86c1.14,0,2.05.91,2.05,2.05v3.86c0,1.14-.91,2.04-2.05,2.04h-3.86c-1.14,0-2.04-.91-2.04-2.04v-3.86c0-1.14.91-2.05,2.04-2.05Z"/><path class="cls-2" d="m840.85,210.33h-17.96c-1.03,0-1.86.82-1.86,1.85v32.41c0,1.03.83,1.86,1.86,1.86h3.51c1.03,0,1.86-.83,1.86-1.86v-10.74c0-1.03.82-1.86,1.86-1.86h3.51c1.03,0,1.86.83,1.86,1.86v3.51c0,1.03.82,1.86,1.86,1.86h17.96c1.03,0,1.86-.83,1.86-1.86v-17.96c0-1.04-.83-1.86-1.86-1.86h-10.74c-1.03,0-1.86-.83-1.86-1.86v-3.51c0-1.03-.82-1.85-1.86-1.85Z"/><path class="cls-2" d="m811.42,467.13v-23.32c0-1.34-1.07-2.41-2.41-2.41h-4.55c-1.34,0-2.41,1.07-2.41,2.41v13.94c0,1.34-1.07,2.41-2.41,2.41h-4.56c-1.34,0-2.41-1.07-2.41-2.41v-13.94c0-1.34-1.07-2.41-2.41-2.41h-4.55c-1.34,0-2.41-1.07-2.41-2.41v-4.55c0-1.34-1.07-2.41-2.41-2.41h-4.55c-1.34,0-2.41,1.07-2.41,2.41v4.55c0,1.34-1.07,2.41-2.41,2.41h-4.56c-1.34,0-2.41,1.07-2.41,2.41v23.32c0,1.34,1.07,2.41,2.41,2.41h42.08c1.34,0,2.41-1.07,2.41-2.41Zm-28.14-9.38c0,1.34-1.07,2.41-2.41,2.41h-4.55c-1.34,0-2.41-1.07-2.41-2.41v-4.56c0-1.34,1.07-2.41,2.41-2.41h4.55c1.34,0,2.41,1.07,2.41,2.41v4.56Z"/><path class="cls-2" d="m765.49,532.33h4.56c1.33,0,2.41,1.08,2.41,2.41v32.7c0,1.33-1.08,2.41-2.41,2.41h-4.56c-1.33,0-2.41-1.08-2.41-2.41v-32.7c0-1.33,1.08-2.41,2.41-2.41Z"/><path class="cls-2" d="m262.9,392.09v-10.51c0-3.09-2.47-5.56-5.56-5.56h-10.51c-3.09,0-5.57-2.48-5.57-5.57v-10.51c0-3.09-2.47-5.56-5.56-5.56h-10.51c-3.09,0-5.57-2.48-5.57-5.57v-10.51c0-3.09-2.47-5.56-5.56-5.56h-10.51c-3.09,0-5.57-2.47-5.57-5.56v-10.51c0-3.09-2.47-5.56-5.56-5.56h-10.51c-3.09,0-5.57-2.47-5.57-5.56v-10.51c0-3.09-2.47-5.56-5.56-5.56h-10.51c-3.09,0-5.57,2.47-5.57,5.56v10.51c0,3.09-2.47,5.56-5.56,5.56h-10.51c-3.09,0-5.57,2.47-5.57,5.56v10.51c0,3.09-2.47,5.56-5.56,5.56h-10.51c-3.09,0-5.56,2.47-5.56,5.56v10.51c0,3.09-2.47,5.57-5.57,5.57h-10.51c-3.09,0-5.56,2.47-5.56,5.56v10.51c0,3.09-2.47,5.57-5.57,5.57h-10.51c-3.09,0-5.56,2.47-5.56,5.56v10.51c0,3.09,2.47,5.57,5.56,5.57h183.57c3.09,0,5.56-2.48,5.56-5.57Z"/><path class="cls-2" d="m330.89,329.89v-5.4c0-1.59-1.27-2.86-2.86-2.86h-5.4c-1.59,0-2.86-1.27-2.86-2.86v-5.4c0-1.59-1.27-2.86-2.86-2.86h-5.4c-1.59,0-2.86-1.27-2.86-2.86v-5.41c0-1.59-1.27-2.86-2.86-2.86h-5.41c-1.59,0-2.86-1.27-2.86-2.86v-5.4c0-1.59-1.27-2.86-2.86-2.86h-5.4c-1.59,0-2.86-1.27-2.86-2.86v-5.4c0-1.59-1.27-2.86-2.86-2.86h-16.53c-1.59,0-2.86,1.27-2.86,2.86v5.4c0,1.59-1.27,2.86-2.86,2.86h-5.4c-1.59,0-2.86,1.27-2.86,2.86v5.4c0,1.59-1.27,2.86-2.86,2.86h-5.4c-1.59,0-2.86,1.27-2.86,2.86v5.41c0,1.59-1.27,2.86-2.86,2.86h-5.4c-1.59,0-2.86,1.27-2.86,2.86v5.4c0,1.59-1.27,2.86-2.86,2.86h-5.4c-1.59,0-2.86,1.27-2.86,2.86v5.4c0,1.59,1.27,2.86,2.86,2.86h105.53c1.59,0,2.86-1.27,2.86-2.86Zm-33.38-11.13c0,1.59-1.27,2.86-2.86,2.86h-49.9c-1.59,0-2.86-1.27-2.86-2.86v-5.4c0-1.59,1.27-2.86,2.86-2.86h5.4c1.59,0,2.86-1.27,2.86-2.86v-5.41c0-1.59,1.27-2.86,2.86-2.86h5.4c1.59,0,2.86-1.27,2.86-2.86v-5.4c0-1.59,1.27-2.86,2.86-2.86h5.4c1.59,0,2.86,1.27,2.86,2.86v5.4c0,1.59,1.27,2.86,2.86,2.86h5.4c1.59,0,2.86,1.27,2.86,2.86v5.41c0,1.59,1.27,2.86,2.86,2.86h5.4c1.59,0,2.86,1.27,2.86,2.86v5.4Z"/><polygon class="cls-2" points="95.32 41.16 95.32 46.48 90 46.48 90 62.44 95.32 62.44 95.32 67.76 116.61 67.76 116.61 62.44 121.93 62.44 121.93 46.48 116.61 46.48 116.61 41.16 95.32 41.16"/><path class="cls-2" d="m187.16,57.12h2.58c.76,0,1.37.61,1.37,1.37v2.59c0,.76-.61,1.37-1.37,1.37h-2.58c-.76,0-1.37-.61-1.37-1.37v-2.59c0-.76.61-1.37,1.37-1.37Z"/><path class="cls-2" d="m187.16,46.48h2.58c.76,0,1.37.61,1.37,1.37v2.58c0,.76-.61,1.37-1.37,1.37h-2.58c-.76,0-1.37-.61-1.37-1.37v-2.58c0-.76.61-1.37,1.37-1.37Z"/><path class="cls-2" d="m485.56,394.63v-9.66c0-.93-.74-1.67-1.67-1.67h-3.16c-.93,0-1.67.74-1.67,1.67v3.16c0,.93-.74,1.67-1.67,1.67h-3.16c-.93,0-1.67-.74-1.67-1.67v-16.17c0-.93-.74-1.67-1.67-1.67h-9.66c-.93,0-1.67.74-1.67,1.67v9.66c0,.93-.74,1.67-1.67,1.67h-3.16c-.93,0-1.67-.74-1.67-1.67v-3.16c0-.93-.74-1.68-1.67-1.68h-3.16c-.93,0-1.67.74-1.67,1.68v9.66c0,.93.74,1.67,1.67,1.67h9.66c.93,0,1.67.74,1.67,1.67v9.66c0,.93.74,1.67,1.67,1.67h9.66c.93,0,1.67-.74,1.67-1.67v-3.16c0-.93.74-1.67,1.67-1.67h9.66c.93,0,1.67-.74,1.67-1.67Z"/><path class="cls-2" d="m281.12,136.98h-9.57c-2.82,0-5.07,2.25-5.07,5.07v9.58c0,2.81,2.25,5.07,5.07,5.07h9.57c2.82,0,5.07-2.25,5.07-5.07v-9.58c0-2.82,2.25-5.07,5.07-5.07h9.57c2.82,0,5.07-2.25,5.07-5.07v-9.58c0-2.81,2.25-5.07,5.07-5.07h9.57c2.82,0,5.07,2.25,5.07,5.07v9.58c0,2.82-2.25,5.07-5.07,5.07h-9.57c-2.82,0-5.07,2.25-5.07,5.07v9.58c0,2.81,2.25,5.07,5.07,5.07h9.57c2.82,0,5.07-2.25,5.07-5.07v-9.58c0-2.82,2.25-5.07,5.07-5.07h9.57c2.82,0,5.07-2.25,5.07-5.07v-9.58c0-2.81,2.25-5.07,5.07-5.07h9.57c2.82,0,5.07,2.25,5.07,5.07v9.58c0,2.82-2.25,5.07-5.07,5.07h-9.57c-2.82,0-5.07,2.25-5.07,5.07v9.58c0,2.81,2.25,5.07,5.07,5.07h9.57c2.82,0,5.07-2.25,5.07-5.07v-9.58c0-2.82,2.25-5.07,5.07-5.07h9.57c2.82,0,5.07-2.25,5.07-5.07v-9.58c0-2.81,2.25-5.07,5.07-5.07h9.58c2.82,0,5.07-2.25,5.07-5.07v-9.58c0-2.82-2.25-5.07-5.07-5.07h-9.58c-2.82,0-5.07-2.25-5.07-5.07v-9.57c0-2.81-2.25-5.07-5.07-5.07h-9.57c-2.82,0-5.07-2.25-5.07-5.07v-9.57c0-2.82-2.25-5.07-5.07-5.07h-48.99c-2.82,0-5.07,2.25-5.07,5.07v9.57c0,2.82-2.25,5.07-5.07,5.07h-9.57c-2.82,0-5.07,2.25-5.07,5.07v9.57c0,2.82-2.25,5.07-5.07,5.07h-9.57c-2.82,0-5.07,2.25-5.07,5.07v9.58c0,2.81,2.25,5.07,5.07,5.07h9.57c2.82,0,5.07,2.25,5.07,5.07v9.58c0,2.82-2.25,5.07-5.07,5.07Z"/><path class="cls-2" d="m176.51,46.48h2.59c.76,0,1.36-.61,1.36-1.37v-2.59c0-.76-.61-1.37-1.36-1.37h-2.59c-.76,0-1.37.61-1.37,1.37v2.59c0,.76.61,1.37,1.37,1.37Z"/><path class="cls-2" d="m152.49,41.16h-18.55c-.76,0-1.37.61-1.37,1.37v2.59c0,.76-.61,1.37-1.37,1.37h-2.59c-.76,0-1.37.61-1.37,1.37v13.23c0,.76.61,1.37,1.37,1.37h2.59c.76,0,1.37.61,1.37,1.37v2.58c0,.76.61,1.37,1.37,1.37h18.55c.76,0,1.37-.61,1.37-1.37v-2.58c0-.76.61-1.37,1.37-1.37h2.58c.76,0,1.37-.61,1.37-1.37v-13.23c0-.76-.61-1.37-1.37-1.37h-2.58c-.76,0-1.37-.61-1.37-1.37v-2.59c0-.76-.61-1.37-1.37-1.37Zm1.37,19.92c0,.76-.61,1.37-1.37,1.37h-7.91c-.76,0-1.37-.61-1.37-1.37v-13.23c0-.76.61-1.37,1.37-1.37h7.91c.76,0,1.37.61,1.37,1.37v13.23Z"/><path class="cls-2" d="m489.43,162.92v-5.4c0-1.59,1.27-2.86,2.86-2.86h5.4c1.59,0,2.86-1.27,2.86-2.86v-5.4c0-1.59,1.27-2.86,2.86-2.86h5.4c1.59,0,2.86-1.27,2.86-2.86v-5.4c0-1.59-1.27-2.86-2.86-2.86h-5.4c-1.59,0-2.86-1.27-2.86-2.86v-5.4c0-1.59-1.27-2.86-2.86-2.86h-5.4c-1.59,0-2.86-1.27-2.86-2.86v-5.4c0-1.59-1.27-2.86-2.86-2.86h-27.65c-1.59,0-2.86,1.27-2.86,2.86v5.4c0,1.59-1.27,2.86-2.86,2.86h-5.4c-1.59,0-2.86,1.27-2.86,2.86v5.4c0,1.59-1.27,2.86-2.86,2.86h-5.4c-1.59,0-2.86,1.27-2.86,2.86v5.4c0,1.59,1.27,2.86,2.86,2.86h5.4c1.59,0,2.86,1.27,2.86,2.86v5.4c0,1.59-1.27,2.86-2.86,2.86h-5.4c-1.59,0-2.86,1.27-2.86,2.86v5.4c0,1.59,1.27,2.86,2.86,2.86h5.4c1.59,0,2.86-1.27,2.86-2.86v-5.4c0-1.59,1.27-2.86,2.86-2.86h5.4c1.59,0,2.86-1.27,2.86-2.86v-5.4c0-1.59,1.27-2.86,2.86-2.86h5.4c1.59,0,2.86,1.27,2.86,2.86v5.4c0,1.59-1.27,2.86-2.86,2.86h-5.4c-1.59,0-2.86,1.27-2.86,2.86v5.4c0,1.59,1.27,2.86,2.86,2.86h5.4c1.59,0,2.86-1.27,2.86-2.86v-5.4c0-1.59,1.27-2.86,2.86-2.86h5.4c1.59,0,2.86-1.27,2.86-2.86v-5.4c0-1.59,1.27-2.86,2.86-2.86h5.4c1.59,0,2.86,1.27,2.86,2.86v5.4c0,1.59-1.27,2.86-2.86,2.86h-5.4c-1.59,0-2.86,1.27-2.86,2.86v5.4c0,1.59,1.27,2.86,2.86,2.86h5.4c1.59,0,2.86-1.27,2.86-2.86Z"/><path class="cls-2" d="m164.5,61.08c0,.76.61,1.37,1.36,1.37h2.59c.76,0,1.37-.61,1.37-1.37v-2.59c0-.76-.61-1.37-1.37-1.37h-2.59c-.76,0-1.36.61-1.36,1.37v2.59Z"/><path class="cls-2" d="m165.87,51.8h2.59c.76,0,1.37-.61,1.37-1.37v-2.58c0-.76-.61-1.37-1.37-1.37h-2.59c-.76,0-1.36.61-1.36,1.37v2.58c0,.76.61,1.37,1.36,1.37Z"/><path class="cls-2" d="m175.14,66.4c0,.76.61,1.37,1.37,1.37h2.59c.76,0,1.36-.61,1.36-1.37v-2.58c0-.76-.61-1.37-1.36-1.37h-2.59c-.76,0-1.37.61-1.37,1.37v2.58Z"/></g></svg>