<svg xmlns="http://www.w3.org/2000/svg" viewBox="0 0 690.22 85.69"><defs><style>.cls-1{fill:#fff;}</style></defs><title>Fichier 1</title><g id="Calque_2" data-name="Calque 2"><g id="Calque_1-2" data-name="Calque 1"><path d="M342.61,85.1l-.53,0-.47,0-15-.4a8.79,8.79,0,0,1-1.59.16L310.45,85a8.67,8.67,0,0,1-5.1-1.64l-1.48-1.07a8.75,8.75,0,0,1-3.63-7.08V72.11a8.72,8.72,0,0,1,3-6.59l1.36-1.18a8.72,8.72,0,0,1,5.72-2.14l5.56.12a8.7,8.7,0,0,1,3-.65l11.9-.41h.31a8.79,8.79,0,0,1,1.42.12L351.14,61a8.83,8.83,0,0,1,1.05.06h.22l7.46.18a8.7,8.7,0,0,1,6.65,3.33l1.3,1.66a8.76,8.76,0,0,1,1.86,5.39v2.9a8.67,8.67,0,0,1-2.56,6.17l-1.07,1.07a8.71,8.71,0,0,1-5.75,2.55L343,85.09Z"/><path d="M351.14,61.46a8.28,8.28,0,0,1,1,.06h.27l7.46.18a8.22,8.22,0,0,1,6.27,3.14l1.3,1.66a8.22,8.22,0,0,1,1.76,5.08v2.9a8.23,8.23,0,0,1-2.41,5.82l-1.07,1.07a8.23,8.23,0,0,1-5.42,2.4L343,84.59h-.39l-.5,0-.5,0-15-.4a8.25,8.25,0,0,1-1.55.16l-14.58.12a8.22,8.22,0,0,1-4.81-1.55l-1.48-1.07a8.23,8.23,0,0,1-3.42-6.68V72.11a8.22,8.22,0,0,1,2.83-6.21l1.36-1.18a8.22,8.22,0,0,1,5.4-2l5.65.13a8.23,8.23,0,0,1,2.94-.66l11.9-.41h.29a8.25,8.25,0,0,1,1.34.11l18.67-.41m0-1-18.6.4a9.28,9.28,0,0,0-1.41-.11h-.32l-11.91.41a9.2,9.2,0,0,0-3.1.65l-5.47-.12A9.22,9.22,0,0,0,304.28,64l-1.36,1.18a9.22,9.22,0,0,0-3.17,7v3.08a9.25,9.25,0,0,0,3.84,7.49l1.48,1.07a9.17,9.17,0,0,0,5.39,1.74L325,85.36a9.3,9.3,0,0,0,1.62-.16l14.94.39H343l17.29-.83a9.21,9.21,0,0,0,6.08-2.69L367.49,81a9.17,9.17,0,0,0,2.7-6.52v-2.9a9.26,9.26,0,0,0-2-5.7l-1.3-1.66a9.19,9.19,0,0,0-7-3.52l-7.46-.18h-.23a9.32,9.32,0,0,0-1.05-.06Z"/><path d="M335.62,74.92l-.51,0h-1.33a8.74,8.74,0,0,1-6.38-2.78l-.49-.29A54.38,54.38,0,0,1,320.28,67l-.1-.08a29.48,29.48,0,0,1-5.38-5.71,8.78,8.78,0,0,1-1.38-3.61l-1.07-7.46A8.72,8.72,0,0,1,323,40.4l-.35-16.22a8.67,8.67,0,0,1,.06-1.24,2,2,0,0,1,0-.22l.18-7.46a8.7,8.7,0,0,1,3.33-6.65l1.66-1.3a8.76,8.76,0,0,1,5.39-1.86h2.9A8.67,8.67,0,0,1,342.31,8l1.07,1.07a8.71,8.71,0,0,1,2.55,5.75l.83,17.29a8.82,8.82,0,0,1,0,1c0,.19,0,.45,0,.71l-.23,8.62a8.61,8.61,0,0,1,2.3-.31,8.73,8.73,0,0,1,8.71,8.14l.12,1.78c0,.19,0,.39,0,.58v5.92a8.72,8.72,0,0,1-4.52,7.65,52.72,52.72,0,0,1-6.28,2.75l-1.72.68-.14.21-1.07,1.48a8.74,8.74,0,0,1-7.08,3.63h-1Z"/><path d="M336.14,5.94A8.23,8.23,0,0,1,342,8.35L343,9.42a8.23,8.23,0,0,1,2.4,5.42l.83,17.29a8.35,8.35,0,0,1,0,.9q0,.36,0,.72L346,43.07a8.22,8.22,0,0,1,11,7.17l.12,1.78q0,.27,0,.55v5.92a8.22,8.22,0,0,1-4.26,7.21,52.17,52.17,0,0,1-6.22,2.72c-.71.27-1.33.52-1.88.75l-.21.32L343.53,71a8.22,8.22,0,0,1-6.68,3.42H336l-.4,0-.6,0h-1.24a8.22,8.22,0,0,1-6.06-2.68l-.54-.32a54.13,54.13,0,0,1-6.57-4.78l-.1-.08a29,29,0,0,1-5.29-5.61,8.22,8.22,0,0,1-1.3-3.4l-1.07-7.46a8.22,8.22,0,0,1,10.64-9l-.37-16.89a8.22,8.22,0,0,1,.06-1.17c0-.09,0-.18,0-.27l.18-7.46A8.23,8.23,0,0,1,326.5,9l1.66-1.3a8.22,8.22,0,0,1,5.08-1.76h2.9m0-1h-2.9a9.27,9.27,0,0,0-5.7,2l-1.66,1.3a9.2,9.2,0,0,0-3.52,7l-.18,7.46c0,.08,0,.16,0,.24a9.25,9.25,0,0,0-.06,1.25l.34,15.59a9.22,9.22,0,0,0-10.6,10.41l1.07,7.46a9.28,9.28,0,0,0,1.46,3.81,29.91,29.91,0,0,0,5.47,5.81l.12.1a54.83,54.83,0,0,0,6.68,4.86l.35.21.07,0a9.24,9.24,0,0,0,6.69,2.89h1.31l.54,0,.33,0h.91a9.25,9.25,0,0,0,7.49-3.84l1.07-1.48.07-.1,1.57-.62a53,53,0,0,0,6.35-2.78,9.22,9.22,0,0,0,4.78-8.08V52.57q0-.31,0-.62L358,50.18a9.23,9.23,0,0,0-9.2-8.61,9.08,9.08,0,0,0-1.78.18l.21-8c0-.25,0-.5,0-.75a9.39,9.39,0,0,0,0-.94l-.83-17.29a9.21,9.21,0,0,0-2.69-6.08l-1.07-1.07a9.17,9.17,0,0,0-6.52-2.7Z"/><path d="M654.29,85.19a25.09,25.09,0,0,1-17.88-6.84,33,33,0,0,1-8.84-14.49,51.35,51.35,0,0,1-2.42-15.66,42,42,0,0,1,3.24-16,37.75,37.75,0,0,1,9.46-13.68A24.4,24.4,0,0,1,654.29,12c.63,0,1.27,0,1.89.06a31.68,31.68,0,0,1,16-6.32,10.5,10.5,0,0,1,10.5,10.5V45.06c.07.93.07,1.95.07,3.13,0,.91,0,1.77-.07,2.65v23a10.51,10.51,0,0,1-10.5,10.5h-6.34a10.47,10.47,0,0,1-3.48-.59A22.79,22.79,0,0,1,654.29,85.19Zm-.72-45.7a30,30,0,0,0-.87,8.27,29.06,29.06,0,0,0,1.3,9.17,41,41,0,0,0,1-9.17C655,42.39,654,40,653.57,39.49Z"/><path d="M672.15,6.22a10,10,0,0,1,10,10V45.06c.07.95.07,1.94.07,3.13,0,.92,0,1.75-.07,2.61v23a10,10,0,0,1-10,10h-6.34a10,10,0,0,1-3.48-.62,22.33,22.33,0,0,1-8,1.49A24.6,24.6,0,0,1,636.75,78,32.48,32.48,0,0,1,628,63.7a50.86,50.86,0,0,1-2.4-15.51,41.51,41.51,0,0,1,3.2-15.83,37.18,37.18,0,0,1,9.33-13.5,23.9,23.9,0,0,1,16.12-6.38q1.12,0,2.21.08a31,31,0,0,1,15.65-6.35m-18,52.32a40.08,40.08,0,0,0,1.34-10.78c0-6.2-1.3-8.48-1.65-8.75l-.12,0-.42-.13c-.44,1.21-1.06,3.84-1.06,8.93a28.73,28.73,0,0,0,1.54,9.92,7.15,7.15,0,0,0,.38.86m18-53.32a11,11,0,0,1-6.34,0,10.93,10.93,0,0,0-4.09.79,11,11,0,0,0-5.86,5.51c-.52,0-1,0-1.57,0a24.9,24.9,0,0,0-16.79,6.64A38.24,38.24,0,0,0,627.92,32a42.51,42.51,0,0,0-3.28,16.21A51.87,51.87,0,0,0,627.09,64a33.46,33.46,0,0,0,9,14.7,25.57,25.57,0,0,0,18.23,7,23.3,23.3,0,0,0,8.05-1.42,11,11,0,0,0,3.47.56h6.34a11,11,0,0,0,11-11v-23c.07-.89.07-1.74.07-2.65,0-1.17,0-2.19-.07-3.17V16.22a11,11,0,0,0-11-11ZM653.91,54.77a31.49,31.49,0,0,1-.72-7,36.59,36.59,0,0,1,.5-6.65,23.42,23.42,0,0,1,.75,6.65,42.82,42.82,0,0,1-.54,7Z"/><path d="M609.07,85.19c-9.43,0-15.26-3.93-18.49-7.23-4.62-4.64-7.06-11-7.06-18.25,0-5.46,1.45-9.92,4.3-13.28l.18-.2a19.71,19.71,0,0,1,9.94-6l.31-.08-.14-.75a10.51,10.51,0,0,1,.4-5.42c2.09-6,4.43-10.57,7.14-14a20.16,20.16,0,0,1,15.72-7.89h.53c6.46.17,11.73,3.26,14.43,8.46l.22.44a30.49,30.49,0,0,1,2.41,12.25c0,.07,0,31,0,40.54a10.51,10.51,0,0,1-10.5,10.5h-6.34a10.41,10.41,0,0,1-4.24-.89A22.87,22.87,0,0,1,609.07,85.19Z"/><path d="M621.6,12.63h.27c6.28.17,11.38,3.16,14,8.19l.21.42a30,30,0,0,1,2.36,12.05c0,.07,0,40.53,0,40.53a10,10,0,0,1-10,10h-6.34a10,10,0,0,1-4.23-.94,22.34,22.34,0,0,1-8.8,1.8c-9.24,0-15-3.84-18.13-7.08-4.52-4.55-6.92-10.74-6.92-17.9,0-5.33,1.41-9.69,4.18-13l.17-.19a19.22,19.22,0,0,1,9.7-5.82l.77-.19-.23-1.22a10,10,0,0,1,.38-5.16c2.07-5.94,4.38-10.47,7.06-13.84a19.67,19.67,0,0,1,15.34-7.7h.23m0-1h-.25a20.65,20.65,0,0,0-16.1,8.09c-2.74,3.45-5.1,8.07-7.21,14.12a11,11,0,0,0-.42,5.68l.06.29a20.17,20.17,0,0,0-10,6.08l-.18.21c-2.93,3.45-4.42,8-4.42,13.61,0,7.43,2.49,13.86,7.21,18.6,3.29,3.36,9.24,7.37,18.84,7.37A23.36,23.36,0,0,0,617.86,84a10.91,10.91,0,0,0,4.25.85h6.34a11,11,0,0,0,11-11c0-18.46,0-40.48,0-40.55A31,31,0,0,0,637,20.82l-.23-.46C634,15,628.56,11.81,621.9,11.63Z"/><path d="M572.26,85.19a25.09,25.09,0,0,1-17.88-6.84,33,33,0,0,1-8.84-14.49,51.37,51.37,0,0,1-2.42-15.66,42,42,0,0,1,3.24-16,37.75,37.75,0,0,1,9.46-13.68A24.41,24.41,0,0,1,572.26,12c7,0,13.15,2.29,17.73,6.62a31.8,31.8,0,0,1,8.52,14.17,54.23,54.23,0,0,1,2.18,15.42,45.17,45.17,0,0,1-2.88,15.87,37.58,37.58,0,0,1-8.94,14.12A23.53,23.53,0,0,1,572.26,85.19Zm-.73-45.7a30,30,0,0,0-.87,8.27,29.08,29.08,0,0,0,1.3,9.17,41,41,0,0,0,1-9.17C572.92,42.39,571.93,40,571.53,39.49Z"/><path d="M572.26,12.48c6.89,0,12.9,2.24,17.39,6.48a31.31,31.31,0,0,1,8.39,14,53.64,53.64,0,0,1,2.15,15.28,44.67,44.67,0,0,1-2.85,15.7,37.09,37.09,0,0,1-8.82,13.93,23,23,0,0,1-16.26,6.87A24.6,24.6,0,0,1,554.72,78,32.48,32.48,0,0,1,546,63.7a50.88,50.88,0,0,1-2.4-15.51,41.51,41.51,0,0,1,3.2-15.82,37.19,37.19,0,0,1,9.33-13.5,23.9,23.9,0,0,1,16.12-6.38m-.18,46.06a40.07,40.07,0,0,0,1.34-10.78c0-6.2-1.3-8.48-1.65-8.75l-.12,0-.42-.13c-.44,1.21-1.06,3.84-1.06,8.93a28.74,28.74,0,0,0,1.54,9.92,7.14,7.14,0,0,0,.38.86m.18-47.06a24.9,24.9,0,0,0-16.79,6.64A38.25,38.25,0,0,0,545.88,32a42.52,42.52,0,0,0-3.28,16.21A51.88,51.88,0,0,0,545.06,64a33.45,33.45,0,0,0,9,14.7,25.57,25.57,0,0,0,18.23,7,24,24,0,0,0,17-7.15,38.08,38.08,0,0,0,9.06-14.3,45.66,45.66,0,0,0,2.91-16A54.73,54.73,0,0,0,599,32.63a32.3,32.3,0,0,0-8.66-14.39c-4.67-4.42-10.92-6.75-18.07-6.75Zm-.38,43.29a31.48,31.48,0,0,1-.72-7,36.59,36.59,0,0,1,.5-6.65,23.42,23.42,0,0,1,.75,6.65,42.81,42.81,0,0,1-.54,7Z"/><path d="M541,84.32a10.51,10.51,0,0,1-10.5-10.5V16.22a10.5,10.5,0,0,1,13.67-10,10.5,10.5,0,0,1,13.67,10v57.6a10.51,10.51,0,0,1-10.5,10.5Z"/><path d="M547.37,6.22a10,10,0,0,1,10,10v57.6a10,10,0,0,1-10,10H541a10,10,0,0,1-10-10V16.22A10,10,0,0,1,544.2,6.73a10,10,0,0,1,3.17-.51m0-1a11,11,0,0,0-3.17.47A11,11,0,0,0,530,16.22v57.6a11,11,0,0,0,11,11h6.34a11,11,0,0,0,11-11V16.22a11,11,0,0,0-11-11Z"/><path d="M525.7,84.32a10.45,10.45,0,0,1-6.91-2.6,10.45,10.45,0,0,1-6.91,2.6h-6.34A10.51,10.51,0,0,1,495,73.82V23.42a10.5,10.5,0,0,1,18-7.34l.56.57a19.23,19.23,0,0,1,11.59-3.81A17.12,17.12,0,0,1,536,16.31q.33.26.64.54a17.45,17.45,0,0,1,5,8.43l0,.12a37.57,37.57,0,0,1,.88,7.75c0,.11,0,.23,0,.34V73.82A10.51,10.51,0,0,1,532,84.32Z"/><path d="M525.2,13.34a16.63,16.63,0,0,1,10.5,3.36c.21.16.41.34.61.52a17,17,0,0,1,4.83,8.19l0,.12a37.15,37.15,0,0,1,.87,7.65c0,.11,0,.22,0,.32V73.82a10,10,0,0,1-10,10H525.7A10,10,0,0,1,518.79,81a10,10,0,0,1-6.91,2.77h-6.34a10,10,0,0,1-10-10V23.42a10,10,0,0,1,17.15-7l.87.89a18.71,18.71,0,0,1,11.64-4m0-1A19.74,19.74,0,0,0,513.66,16l-.26-.26a11.07,11.07,0,0,0-7.87-3.31,11,11,0,0,0-11,11v50.4a11,11,0,0,0,11,11h6.34a11,11,0,0,0,6.91-2.44,11,11,0,0,0,6.91,2.44H532a11,11,0,0,0,11-11V33.5c0-.12,0-.24,0-.35a38.05,38.05,0,0,0-.9-7.86l0-.13A17.94,17.94,0,0,0,537,16.49c-.22-.2-.44-.39-.67-.57a17.62,17.62,0,0,0-11.12-3.57Z"/><path d="M478.73,85a10.46,10.46,0,0,1-3.13-.48,10.46,10.46,0,0,1-3.13.48h-6.7a10.44,10.44,0,0,1-10.06-7.48L440.37,26.43a10.5,10.5,0,0,1,15-12.3l1.71.91a10.5,10.5,0,0,1,11.25-.91L475.65,18l.58.33,6.27-3.87a10.5,10.5,0,0,1,11.93.62h0l1-.63a10.5,10.5,0,0,1,15.56,12L495.47,77.6a10.44,10.44,0,0,1-10,7.44Z"/><path d="M501,13.42a10,10,0,0,1,9.57,12.91L495,77.45a10,10,0,0,1-9.57,7.09h-6.7a10,10,0,0,1-3.13-.5,10,10,0,0,1-3.13.5h-6.7a10,10,0,0,1-9.58-7.13L440.85,26.29a10,10,0,0,1,14.26-11.71l2,1.06a10,10,0,0,1,11-1.06l7.34,3.89q.42.22.81.48l6.54-4a10,10,0,0,1,11.36.59l.28.23,1.32-.81A10,10,0,0,1,501,13.42m0-1a11,11,0,0,0-5.78,1.64l-.73.45a11,11,0,0,0-12.23-.45l-6,3.71-.34-.19-7.35-3.89a11,11,0,0,0-11.53.76l-1.44-.76a11,11,0,0,0-15.68,12.88L455.23,77.7a10.93,10.93,0,0,0,10.54,7.84h6.7a11,11,0,0,0,3.13-.45,11,11,0,0,0,3.13.45h6.7a10.94,10.94,0,0,0,10.52-7.8L511.5,26.62A11,11,0,0,0,501,12.42Z"/><path d="M432.37,85.19a25.09,25.09,0,0,1-17.88-6.84,33,33,0,0,1-8.84-14.49,51.37,51.37,0,0,1-2.42-15.66,42,42,0,0,1,3.24-16,37.75,37.75,0,0,1,9.46-13.68A24.41,24.41,0,0,1,432.37,12c7,0,13.15,2.29,17.73,6.62a31.8,31.8,0,0,1,8.52,14.17,54.23,54.23,0,0,1,2.18,15.42,45.17,45.17,0,0,1-2.88,15.87A37.58,37.58,0,0,1,449,78.18,23.53,23.53,0,0,1,432.37,85.19Zm-.73-45.7a30,30,0,0,0-.87,8.27,29.08,29.08,0,0,0,1.3,9.17,41,41,0,0,0,1-9.17C433,42.39,432,40,431.65,39.49Z"/><path d="M432.37,12.48c6.89,0,12.9,2.24,17.39,6.48a31.31,31.31,0,0,1,8.39,14,53.64,53.64,0,0,1,2.15,15.28,44.67,44.67,0,0,1-2.85,15.7,37.09,37.09,0,0,1-8.82,13.93,23,23,0,0,1-16.26,6.87A24.6,24.6,0,0,1,414.83,78a32.48,32.48,0,0,1-8.71-14.28,50.88,50.88,0,0,1-2.4-15.51,41.51,41.51,0,0,1,3.2-15.82,37.19,37.19,0,0,1,9.33-13.5,23.9,23.9,0,0,1,16.12-6.38m-.18,46.06a40.07,40.07,0,0,0,1.34-10.78c0-6.2-1.3-8.48-1.65-8.75l-.12,0-.42-.13c-.44,1.21-1.06,3.84-1.06,8.93a28.74,28.74,0,0,0,1.54,9.92,7.14,7.14,0,0,0,.38.86m.18-47.06a24.9,24.9,0,0,0-16.79,6.64A38.25,38.25,0,0,0,406,32a42.52,42.52,0,0,0-3.28,16.21A51.88,51.88,0,0,0,405.17,64a33.45,33.45,0,0,0,9,14.7,25.57,25.57,0,0,0,18.23,7,24,24,0,0,0,17-7.15,38.08,38.08,0,0,0,9.06-14.3,45.66,45.66,0,0,0,2.91-16,54.73,54.73,0,0,0-2.2-15.56,32.3,32.3,0,0,0-8.66-14.39c-4.67-4.42-10.92-6.75-18.07-6.75ZM432,54.77a31.48,31.48,0,0,1-.72-7,36.59,36.59,0,0,1,.5-6.65,23.42,23.42,0,0,1,.75,6.65,42.82,42.82,0,0,1-.54,7Z"/><path d="M389.16,85.19a25.09,25.09,0,0,1-17.88-6.84,33,33,0,0,1-8.84-14.49A51.35,51.35,0,0,1,360,48.19a42,42,0,0,1,3.24-16,37.75,37.75,0,0,1,9.46-13.68A24.4,24.4,0,0,1,389.16,12c.63,0,1.27,0,1.89.06a10.5,10.5,0,0,1,12.8-5.83,10.5,10.5,0,0,1,13.67,10V45.06c.07.93.07,1.95.07,3.13,0,.91,0,1.77-.07,2.65v23A10.51,10.51,0,0,1,407,84.32h-6.34a10.47,10.47,0,0,1-3.48-.59A22.79,22.79,0,0,1,389.16,85.19Zm-.72-45.7a30,30,0,0,0-.87,8.27,29.06,29.06,0,0,0,1.3,9.17,41,41,0,0,0,1-9.17C389.82,42.39,388.83,40,388.44,39.49Z"/><path d="M407,6.22a10,10,0,0,1,10,10V45.06c.07.95.07,1.94.07,3.13,0,.92,0,1.75-.07,2.61v23a10,10,0,0,1-10,10h-6.34a10,10,0,0,1-3.48-.62,22.33,22.33,0,0,1-8,1.49A24.6,24.6,0,0,1,371.62,78a32.48,32.48,0,0,1-8.71-14.28,50.86,50.86,0,0,1-2.4-15.51,41.51,41.51,0,0,1,3.2-15.83A37.18,37.18,0,0,1,373,18.86a23.9,23.9,0,0,1,16.12-6.38q1.12,0,2.21.08a10,10,0,0,1,12.48-5.83A10,10,0,0,1,407,6.22M389,58.54a40.08,40.08,0,0,0,1.34-10.78c0-6.2-1.3-8.48-1.65-8.75l-.12,0-.42-.13c-.44,1.21-1.06,3.84-1.06,8.93a28.73,28.73,0,0,0,1.54,9.92,7.15,7.15,0,0,0,.38.86M407,5.22a11,11,0,0,0-3.17.47,11,11,0,0,0-13.12,5.84c-.52,0-1,0-1.57,0a24.9,24.9,0,0,0-16.79,6.64A38.24,38.24,0,0,0,362.79,32a42.51,42.51,0,0,0-3.28,16.21A51.87,51.87,0,0,0,362,64a33.46,33.46,0,0,0,9,14.7,25.57,25.57,0,0,0,18.23,7,23.3,23.3,0,0,0,8.05-1.42,11,11,0,0,0,3.47.56H407a11,11,0,0,0,11-11v-23c.07-.89.07-1.74.07-2.65,0-1.17,0-2.19-.07-3.17V16.22a11,11,0,0,0-11-11ZM388.78,54.77a31.49,31.49,0,0,1-.72-7,36.58,36.58,0,0,1,.5-6.65,23.42,23.42,0,0,1,.75,6.65,42.82,42.82,0,0,1-.54,7Z"/><path class="cls-1" d="M661.29,80.19a25.09,25.09,0,0,1-17.88-6.84,33,33,0,0,1-8.84-14.49,51.35,51.35,0,0,1-2.42-15.66,42,42,0,0,1,3.24-16,37.75,37.75,0,0,1,9.46-13.68A24.4,24.4,0,0,1,661.29,7c.63,0,1.27,0,1.89.06a10.55,10.55,0,0,1,5.73-5.57A44.47,44.47,0,0,0,679.15.72a10.5,10.5,0,0,1,10.5,10.5V40.06c.07.93.07,1.95.07,3.13,0,.91,0,1.77-.07,2.65v23a10.51,10.51,0,0,1-10.5,10.5h-6.34a10.47,10.47,0,0,1-3.47-.59A22.79,22.79,0,0,1,661.29,80.19Z"/><path d="M679.15,1.22a10,10,0,0,1,10,10V40.06c.07.95.07,1.94.07,3.13,0,.92,0,1.75-.07,2.61v23a10,10,0,0,1-10,10h-6.34a10,10,0,0,1-3.48-.62,22.33,22.33,0,0,1-8,1.49A24.6,24.6,0,0,1,643.75,73,32.48,32.48,0,0,1,635,58.7a50.86,50.86,0,0,1-2.4-15.51,41.51,41.51,0,0,1,3.2-15.83,37.18,37.18,0,0,1,9.33-13.5,23.9,23.9,0,0,1,16.12-6.38q1.12,0,2.21.08a31,31,0,0,1,15.65-6.35m0-1a11,11,0,0,1-6.34,0,10.93,10.93,0,0,0-4.09.79,11,11,0,0,0-5.86,5.51c-.52,0-1,0-1.57,0a24.9,24.9,0,0,0-16.79,6.64A38.24,38.24,0,0,0,634.92,27a42.51,42.51,0,0,0-3.28,16.21A51.87,51.87,0,0,0,634.09,59a33.46,33.46,0,0,0,9,14.7,25.57,25.57,0,0,0,18.23,7,23.3,23.3,0,0,0,8.05-1.42,11,11,0,0,0,3.47.56h6.34a11,11,0,0,0,11-11v-23c.07-.89.07-1.74.07-2.65,0-1.17,0-2.19-.07-3.17V11.22a11,11,0,0,0-11-11Z"/><path class="cls-1" d="M616.07,80.19c-9.43,0-15.26-3.93-18.49-7.23-4.62-4.64-7.06-11-7.06-18.25,0-5.46,1.45-9.92,4.3-13.28l.18-.2a19.71,19.71,0,0,1,9.94-6l.31-.08-.14-.75a10.51,10.51,0,0,1,.4-5.42c2.09-6,4.43-10.57,7.14-14a20.16,20.16,0,0,1,15.72-7.89h.53c6.46.17,11.73,3.26,14.43,8.46l.22.44a30.49,30.49,0,0,1,2.41,12.25c0,.07,0,31,0,40.54a10.51,10.51,0,0,1-10.5,10.5h-6.34a10.41,10.41,0,0,1-4.24-.89A22.87,22.87,0,0,1,616.07,80.19Z"/><path d="M628.6,7.63h.27c6.28.17,11.38,3.16,14,8.19l.21.42a30,30,0,0,1,2.36,12.05c0,.07,0,40.53,0,40.53a10,10,0,0,1-10,10h-6.34a10,10,0,0,1-4.23-.94,22.34,22.34,0,0,1-8.8,1.8c-9.24,0-15-3.84-18.13-7.08-4.52-4.55-6.92-10.74-6.92-17.9,0-5.33,1.41-9.69,4.18-13l.17-.19a19.22,19.22,0,0,1,9.7-5.82l.77-.19-.23-1.22a10,10,0,0,1,.38-5.16c2.07-5.94,4.38-10.47,7.06-13.84a19.67,19.67,0,0,1,15.34-7.7h.23m0-1h-.25a20.65,20.65,0,0,0-16.1,8.09c-2.74,3.45-5.1,8.07-7.21,14.12a11,11,0,0,0-.42,5.68l.06.29a20.17,20.17,0,0,0-10,6.08l-.18.21c-2.93,3.45-4.42,8-4.42,13.61,0,7.43,2.49,13.86,7.21,18.6,3.29,3.36,9.24,7.37,18.84,7.37A23.36,23.36,0,0,0,624.86,79a10.91,10.91,0,0,0,4.25.85h6.34a11,11,0,0,0,11-11c0-18.46,0-40.48,0-40.55A31,31,0,0,0,644,15.82l-.23-.46C641,10,635.56,6.81,628.9,6.63Z"/><path class="cls-1" d="M579.26,80.19a25.09,25.09,0,0,1-17.88-6.84,33,33,0,0,1-8.84-14.49,51.37,51.37,0,0,1-2.42-15.66,42,42,0,0,1,3.24-16,37.75,37.75,0,0,1,9.46-13.68A24.41,24.41,0,0,1,579.26,7c7,0,13.15,2.29,17.73,6.62a31.8,31.8,0,0,1,8.52,14.17,54.23,54.23,0,0,1,2.18,15.42,45.17,45.17,0,0,1-2.88,15.87,37.58,37.58,0,0,1-8.94,14.12A23.53,23.53,0,0,1,579.26,80.19Z"/><path d="M579.26,7.48c6.89,0,12.9,2.24,17.39,6.48a31.31,31.31,0,0,1,8.39,14,53.64,53.64,0,0,1,2.15,15.28,44.67,44.67,0,0,1-2.85,15.7,37.09,37.09,0,0,1-8.82,13.93,23,23,0,0,1-16.26,6.87A24.6,24.6,0,0,1,561.72,73,32.48,32.48,0,0,1,553,58.7a50.88,50.88,0,0,1-2.4-15.51,41.51,41.51,0,0,1,3.2-15.82,37.19,37.19,0,0,1,9.33-13.5,23.9,23.9,0,0,1,16.12-6.38m0-1a24.9,24.9,0,0,0-16.79,6.64A38.25,38.25,0,0,0,552.88,27a42.52,42.52,0,0,0-3.28,16.21A51.88,51.88,0,0,0,552.06,59a33.45,33.45,0,0,0,9,14.7,25.57,25.57,0,0,0,18.23,7,24,24,0,0,0,17-7.15,38.08,38.08,0,0,0,9.06-14.3,45.66,45.66,0,0,0,2.91-16A54.73,54.73,0,0,0,606,27.63a32.3,32.3,0,0,0-8.66-14.39c-4.67-4.42-10.92-6.75-18.07-6.75Z"/><path class="cls-1" d="M548,79.32a10.51,10.51,0,0,1-10.5-10.5V11.22a10.5,10.5,0,0,1,13.67-10,10.5,10.5,0,0,1,13.67,10v57.6a10.51,10.51,0,0,1-10.5,10.5Z"/><path d="M554.37,1.22a10,10,0,0,1,10,10v57.6a10,10,0,0,1-10,10H548a10,10,0,0,1-10-10V11.22A10,10,0,0,1,551.2,1.73a10,10,0,0,1,3.17-.51m0-1a11,11,0,0,0-3.17.47A11,11,0,0,0,537,11.22v57.6a11,11,0,0,0,11,11h6.34a11,11,0,0,0,11-11V11.22a11,11,0,0,0-11-11Z"/><path class="cls-1" d="M532.7,79.32a10.45,10.45,0,0,1-6.91-2.6,10.45,10.45,0,0,1-6.91,2.6h-6.34A10.51,10.51,0,0,1,502,68.82V18.42a10.5,10.5,0,0,1,18-7.34l.56.57A19.23,19.23,0,0,1,532.2,7.84,17.12,17.12,0,0,1,543,11.31q.33.26.64.54a17.45,17.45,0,0,1,5,8.43l0,.12a37.57,37.57,0,0,1,.88,7.75c0,.11,0,.23,0,.34V68.82A10.51,10.51,0,0,1,539,79.32Z"/><path d="M532.2,8.34a16.63,16.63,0,0,1,10.5,3.36c.21.16.41.34.61.52a17,17,0,0,1,4.83,8.19l0,.12a37.15,37.15,0,0,1,.87,7.65c0,.11,0,.22,0,.32V68.82a10,10,0,0,1-10,10H532.7A10,10,0,0,1,525.79,76a10,10,0,0,1-6.91,2.77h-6.34a10,10,0,0,1-10-10V18.42a10,10,0,0,1,17.15-7l.87.89a18.71,18.71,0,0,1,11.64-4m0-1A19.74,19.74,0,0,0,520.66,11l-.26-.26a11.07,11.07,0,0,0-7.87-3.31,11,11,0,0,0-11,11v50.4a11,11,0,0,0,11,11h6.34a11,11,0,0,0,6.91-2.44,11,11,0,0,0,6.91,2.44H539a11,11,0,0,0,11-11V28.5c0-.12,0-.24,0-.35a38.05,38.05,0,0,0-.9-7.86l0-.13A17.94,17.94,0,0,0,544,11.49c-.22-.2-.44-.39-.67-.57A17.62,17.62,0,0,0,532.2,7.34Z"/><path class="cls-1" d="M485.73,80a10.46,10.46,0,0,1-3.13-.48,10.46,10.46,0,0,1-3.13.48h-6.7a10.44,10.44,0,0,1-10.06-7.48L447.37,21.43a10.5,10.5,0,0,1,15-12.3l1.71.91a10.5,10.5,0,0,1,11.25-.91L482.65,13l.58.33,6.27-3.87a10.5,10.5,0,0,1,11.93.62h0l1-.63a10.5,10.5,0,0,1,15.56,12L502.47,72.6a10.44,10.44,0,0,1-10,7.44Z"/><path d="M508,8.42a10,10,0,0,1,9.57,12.91L502,72.45a10,10,0,0,1-9.57,7.09h-6.7a10,10,0,0,1-3.13-.5,10,10,0,0,1-3.13.5h-6.7a10,10,0,0,1-9.58-7.13L447.85,21.29A10,10,0,0,1,462.11,9.58l2,1.06a10,10,0,0,1,11-1.06l7.34,3.89q.42.22.81.48l6.54-4a10,10,0,0,1,11.36.59l.28.23,1.32-.81A10,10,0,0,1,508,8.42m0-1a11,11,0,0,0-5.78,1.64l-.73.45a11,11,0,0,0-12.23-.45l-6,3.71-.34-.19L475.54,8.7A11,11,0,0,0,464,9.46l-1.44-.76a11,11,0,0,0-15.68,12.88L462.23,72.7a10.93,10.93,0,0,0,10.54,7.84h6.7a11,11,0,0,0,3.13-.45,11,11,0,0,0,3.13.45h6.7a10.94,10.94,0,0,0,10.52-7.8L518.5,21.62A11,11,0,0,0,508,7.42Z"/><path class="cls-1" d="M439.37,80.19a25.09,25.09,0,0,1-17.88-6.84,33,33,0,0,1-8.84-14.49,51.37,51.37,0,0,1-2.42-15.66,42,42,0,0,1,3.24-16,37.75,37.75,0,0,1,9.46-13.68A24.41,24.41,0,0,1,439.37,7c7,0,13.15,2.29,17.73,6.62a31.8,31.8,0,0,1,8.52,14.17,54.23,54.23,0,0,1,2.18,15.42,45.17,45.17,0,0,1-2.88,15.87A37.58,37.58,0,0,1,456,73.18,23.53,23.53,0,0,1,439.37,80.19Z"/><path d="M439.37,7.48c6.89,0,12.9,2.24,17.39,6.48a31.31,31.31,0,0,1,8.39,14,53.64,53.64,0,0,1,2.15,15.28,44.67,44.67,0,0,1-2.85,15.7,37.09,37.09,0,0,1-8.82,13.93,23,23,0,0,1-16.26,6.87A24.6,24.6,0,0,1,421.83,73a32.48,32.48,0,0,1-8.71-14.28,50.88,50.88,0,0,1-2.4-15.51,41.51,41.51,0,0,1,3.2-15.82,37.19,37.19,0,0,1,9.33-13.5,23.9,23.9,0,0,1,16.12-6.38m0-1a24.9,24.9,0,0,0-16.79,6.64A38.25,38.25,0,0,0,413,27a42.52,42.52,0,0,0-3.28,16.21A51.88,51.88,0,0,0,412.17,59a33.45,33.45,0,0,0,9,14.7,25.57,25.57,0,0,0,18.23,7,24,24,0,0,0,17-7.15,38.08,38.08,0,0,0,9.06-14.3,45.66,45.66,0,0,0,2.91-16,54.73,54.73,0,0,0-2.2-15.56,32.3,32.3,0,0,0-8.66-14.39c-4.67-4.42-10.92-6.75-18.07-6.75Z"/><path class="cls-1" d="M396.16,80.19a25.09,25.09,0,0,1-17.88-6.84,33,33,0,0,1-8.84-14.49A51.35,51.35,0,0,1,367,43.19a42,42,0,0,1,3.24-16,37.75,37.75,0,0,1,9.46-13.68A24.4,24.4,0,0,1,396.16,7c.63,0,1.27,0,1.89.06a10.5,10.5,0,0,1,12.8-5.83,10.5,10.5,0,0,1,13.67,10V40.06c.07.93.07,1.95.07,3.13,0,.91,0,1.77-.07,2.65v23A10.51,10.51,0,0,1,414,79.32h-6.34a10.47,10.47,0,0,1-3.48-.59A22.79,22.79,0,0,1,396.16,80.19Z"/><path d="M414,1.22a10,10,0,0,1,10,10V40.06c.07.95.07,1.94.07,3.13,0,.92,0,1.75-.07,2.61v23a10,10,0,0,1-10,10h-6.34a10,10,0,0,1-3.48-.62,22.33,22.33,0,0,1-8,1.49A24.6,24.6,0,0,1,378.62,73a32.48,32.48,0,0,1-8.71-14.28,50.86,50.86,0,0,1-2.4-15.51,41.51,41.51,0,0,1,3.2-15.83A37.18,37.18,0,0,1,380,13.86a23.9,23.9,0,0,1,16.12-6.38q1.12,0,2.21.08a10,10,0,0,1,12.48-5.83A10,10,0,0,1,414,1.22m0-1a11,11,0,0,0-3.17.47,11,11,0,0,0-13.12,5.84c-.52,0-1,0-1.57,0a24.9,24.9,0,0,0-16.79,6.64A38.24,38.24,0,0,0,369.79,27a42.51,42.51,0,0,0-3.28,16.21A51.87,51.87,0,0,0,369,59a33.46,33.46,0,0,0,9,14.7,25.57,25.57,0,0,0,18.23,7,23.3,23.3,0,0,0,8.05-1.42,11,11,0,0,0,3.47.56H414a11,11,0,0,0,11-11v-23c.07-.89.07-1.74.07-2.65,0-1.17,0-2.19-.07-3.17V11.22a11,11,0,0,0-11-11Z"/><path class="cls-1" d="M347.93,80.41l-.53,0-.47,0-15-.4a8.79,8.79,0,0,1-1.59.16l-14.58.12a8.67,8.67,0,0,1-5.1-1.64l-1.48-1.07a8.75,8.75,0,0,1-3.63-7.08V67.42a8.72,8.72,0,0,1,3-6.59l1.36-1.18a8.72,8.72,0,0,1,5.72-2.14l5.56.12a8.71,8.71,0,0,1,3-.65l11.9-.41h.31a8.74,8.74,0,0,1,1.42.12l18.59-.41a8.81,8.81,0,0,1,1.05.06h.23l7.46.18a8.7,8.7,0,0,1,6.65,3.33l1.3,1.66A8.76,8.76,0,0,1,375,66.89v2.9A8.67,8.67,0,0,1,372.45,76L371.39,77a8.71,8.71,0,0,1-5.75,2.55l-17.29.83Z"/><path d="M356.45,56.76a8.28,8.28,0,0,1,1,.06h.27l7.46.18a8.22,8.22,0,0,1,6.27,3.14l1.3,1.66a8.22,8.22,0,0,1,1.76,5.08v2.9a8.23,8.23,0,0,1-2.41,5.82L371,76.67a8.23,8.23,0,0,1-5.42,2.4l-17.29.83h-.39l-.5,0-.5,0-15-.4a8.25,8.25,0,0,1-1.55.16l-14.58.12A8.22,8.22,0,0,1,311,78.24l-1.48-1.07a8.23,8.23,0,0,1-3.42-6.68V67.42a8.22,8.22,0,0,1,2.83-6.21L310.25,60a8.22,8.22,0,0,1,5.4-2l5.65.13a8.23,8.23,0,0,1,2.94-.66l11.9-.41h.29a8.25,8.25,0,0,1,1.34.11l18.67-.41m0-1-18.6.4a9.28,9.28,0,0,0-1.41-.11h-.32l-11.91.41a9.2,9.2,0,0,0-3.1.65L315.65,57a9.22,9.22,0,0,0-6.05,2.26l-1.36,1.18a9.22,9.22,0,0,0-3.17,7V70.5A9.25,9.25,0,0,0,308.9,78l1.48,1.07a9.17,9.17,0,0,0,5.39,1.74l14.59-.12a9.3,9.3,0,0,0,1.62-.16l14.94.39h1.45l17.29-.83a9.21,9.21,0,0,0,6.08-2.69l1.07-1.07a9.17,9.17,0,0,0,2.7-6.52v-2.9a9.26,9.26,0,0,0-2-5.7l-1.3-1.66a9.19,9.19,0,0,0-7-3.52l-7.46-.18h-.23a9.32,9.32,0,0,0-1.05-.06Z"/><path class="cls-1" d="M340.94,70.22l-.51,0h-1.33a8.74,8.74,0,0,1-6.38-2.79l-.49-.29a54.42,54.42,0,0,1-6.63-4.82l-.1-.08a29.49,29.49,0,0,1-5.38-5.71,8.77,8.77,0,0,1-1.38-3.61l-1.07-7.46a8.73,8.73,0,0,1,10.62-9.73l-.35-16.22a8.83,8.83,0,0,1,.06-1.24,2.19,2.19,0,0,1,0-.22l.18-7.46a8.7,8.7,0,0,1,3.33-6.65l1.66-1.3A8.76,8.76,0,0,1,338.56.75h2.9a8.67,8.67,0,0,1,6.17,2.56l1.07,1.07a8.71,8.71,0,0,1,2.55,5.75l.83,17.29a8.82,8.82,0,0,1,0,1c0,.19,0,.45,0,.71l-.23,8.62a8.61,8.61,0,0,1,2.3-.31,8.73,8.73,0,0,1,8.71,8.14l.12,1.78q0,.29,0,.58V53.8a8.72,8.72,0,0,1-4.52,7.65,52.67,52.67,0,0,1-6.28,2.75l-1.72.68-.14.21-1.07,1.48a8.74,8.74,0,0,1-7.08,3.63h-1Z"/><path d="M341.46,1.25a8.23,8.23,0,0,1,5.82,2.41l1.07,1.07a8.23,8.23,0,0,1,2.4,5.42l.83,17.29a8.35,8.35,0,0,1,0,.9q0,.36,0,.72l-.25,9.32a8.22,8.22,0,0,1,11,7.17l.12,1.78q0,.27,0,.55V53.8A8.22,8.22,0,0,1,358.23,61,52.17,52.17,0,0,1,352,63.73c-.71.27-1.33.52-1.88.75l-.21.32-1.07,1.48a8.22,8.22,0,0,1-6.68,3.42h-.83l-.4,0-.6,0h-1.24A8.22,8.22,0,0,1,333,67l-.54-.32a54.14,54.14,0,0,1-6.57-4.78l-.1-.08a29,29,0,0,1-5.29-5.61,8.22,8.22,0,0,1-1.3-3.4l-1.07-7.46a8.22,8.22,0,0,1,10.64-9l-.37-16.89a8.22,8.22,0,0,1,.06-1.17c0-.09,0-.18,0-.27l.18-7.46a8.23,8.23,0,0,1,3.14-6.27L333.48,3a8.22,8.22,0,0,1,5.08-1.76h2.9m0-1h-2.9a9.27,9.27,0,0,0-5.7,2l-1.66,1.3a9.2,9.2,0,0,0-3.52,7L327.5,18c0,.08,0,.16,0,.24a9.25,9.25,0,0,0-.06,1.25l.34,15.59a9.22,9.22,0,0,0-10.6,10.41L318.24,53a9.28,9.28,0,0,0,1.46,3.81,29.91,29.91,0,0,0,5.47,5.81l.12.1A54.83,54.83,0,0,0,332,67.55l.35.21.07,0a9.24,9.24,0,0,0,6.69,2.89h1.31l.54,0,.33,0h.91a9.25,9.25,0,0,0,7.49-3.84l1.07-1.48.07-.1,1.57-.62a53,53,0,0,0,6.35-2.78,9.22,9.22,0,0,0,4.78-8.08V47.88q0-.31,0-.62l-.12-1.78a9.23,9.23,0,0,0-9.2-8.61,9.08,9.08,0,0,0-1.78.18l.21-8c0-.25,0-.5,0-.75a9.39,9.39,0,0,0,0-.94l-.83-17.29A9.21,9.21,0,0,0,349,4L348,2.95a9.17,9.17,0,0,0-6.52-2.7Z"/><path d="M285.4,85.19a25.09,25.09,0,0,1-17.88-6.84,33,33,0,0,1-8.84-14.49,51.34,51.34,0,0,1-2.42-15.66,42,42,0,0,1,3.24-16,37.75,37.75,0,0,1,9.46-13.68A24.4,24.4,0,0,1,285.4,12c6.46,0,12,1.89,16.32,5.61a34.63,34.63,0,0,1,8.88,12.31,10.92,10.92,0,0,1-2.84,12.72l-8.4,6.9a20.42,20.42,0,0,1,5,3.32l.23.19c2.27,1.95,8.31,7.12,4.88,14.49A34.7,34.7,0,0,1,301.44,79,23,23,0,0,1,285.4,85.19Z"/><path d="M285.4,12.48c6.34,0,11.72,1.85,16,5.49a34.15,34.15,0,0,1,8.75,12.14,10.42,10.42,0,0,1-2.7,12.13l-9.09,7.46a17.29,17.29,0,0,1,5.72,3.54l.22.18c2.21,1.89,8,6.88,4.75,13.9a34.21,34.21,0,0,1-7.94,11.28,22.49,22.49,0,0,1-15.7,6.09A24.6,24.6,0,0,1,267.86,78a32.48,32.48,0,0,1-8.71-14.28,50.85,50.85,0,0,1-2.4-15.51,41.51,41.51,0,0,1,3.2-15.83,37.18,37.18,0,0,1,9.33-13.5,23.9,23.9,0,0,1,16.12-6.38m0-1a24.9,24.9,0,0,0-16.79,6.64A38.24,38.24,0,0,0,259,32a42.51,42.51,0,0,0-3.28,16.21A51.85,51.85,0,0,0,258.2,64a33.46,33.46,0,0,0,9,14.7,25.57,25.57,0,0,0,18.23,7,23.47,23.47,0,0,0,16.39-6.37A35.21,35.21,0,0,0,310,67.72c3.58-7.69-2.89-13.24-5-15.06l-.24-.2a24,24,0,0,0-4.41-3.06L308.07,43a11.42,11.42,0,0,0,3-13.31,35.13,35.13,0,0,0-9-12.49c-4.46-3.8-10.06-5.73-16.64-5.73Z"/><path d="M251.41,84.32a10.51,10.51,0,0,1-10.5-10.5V23.42a10.45,10.45,0,0,1,1.82-5.92,14.07,14.07,0,0,1,3.91-7.13,14,14,0,0,1,10.09-4.16,14.35,14.35,0,0,1,9.8,3.81c.25.22.48.46.7.7a14.35,14.35,0,0,1,3.81,9.8,14.06,14.06,0,0,1-2.84,8.58q0,.39,0,.78V73.82a10.51,10.51,0,0,1-10.5,10.5Z"/><path d="M256.73,6.72a13.86,13.86,0,0,1,9.47,3.68q.35.32.67.67a13.86,13.86,0,0,1,3.68,9.46A13.48,13.48,0,0,1,267.7,29c0,.31,0,.62,0,.93V73.82a10,10,0,0,1-10,10h-6.34a10,10,0,0,1-10-10V23.42a10,10,0,0,1,1.79-5.71,13.64,13.64,0,0,1,3.8-7,13.48,13.48,0,0,1,9.74-4m0-1A14.46,14.46,0,0,0,246.29,10a14.56,14.56,0,0,0-4,7.28,10.94,10.94,0,0,0-1.86,6.12v50.4a11,11,0,0,0,11,11h6.34a11,11,0,0,0,11-11V29.9c0-.21,0-.42,0-.63a14.56,14.56,0,0,0,2.83-8.73,14.85,14.85,0,0,0-3.94-10.14c-.23-.25-.47-.5-.73-.73a14.85,14.85,0,0,0-10.14-3.95Z"/><path d="M217.71,84.32a10.51,10.51,0,0,1-10.5-10.5V23.42a10.5,10.5,0,0,1,18-7.34l.56.57a19.23,19.23,0,0,1,11.59-3.81,17.12,17.12,0,0,1,10.81,3.47q.33.26.63.54a17.43,17.43,0,0,1,5,8.43l0,.13a37.49,37.49,0,0,1,.88,7.75,10.47,10.47,0,0,1-5.31,9.47l-6.34,3.6a10.5,10.5,0,0,1-8.51.83V73.82A10.51,10.51,0,0,1,224,84.32Z"/><path d="M237.37,13.34a16.63,16.63,0,0,1,10.5,3.36q.31.24.6.51a16.94,16.94,0,0,1,4.83,8.19l0,.12a37.11,37.11,0,0,1,.87,7.65,10,10,0,0,1-5.06,9l-6.34,3.6a10,10,0,0,1-8.76.54V73.82a10,10,0,0,1-10,10h-6.34a10,10,0,0,1-10-10V23.42a10,10,0,0,1,17.15-7l.87.89a18.7,18.7,0,0,1,11.64-4m0-1A19.73,19.73,0,0,0,225.83,16l-.26-.26a11.07,11.07,0,0,0-7.87-3.31,11,11,0,0,0-11,11v50.4a11,11,0,0,0,11,11H224a11,11,0,0,0,11-11V47.73a11,11,0,0,0,8.26-1.07l6.34-3.6a11,11,0,0,0,5.56-9.92,38,38,0,0,0-.9-7.86l0-.13a17.94,17.94,0,0,0-5.12-8.67c-.21-.19-.43-.38-.66-.56a17.62,17.62,0,0,0-11.12-3.57Z"/><path d="M192.22,85.19a25.09,25.09,0,0,1-17.88-6.84,33,33,0,0,1-8.84-14.49,51.34,51.34,0,0,1-2.42-15.66,42,42,0,0,1,3.24-16,37.75,37.75,0,0,1,9.46-13.68A24.4,24.4,0,0,1,192.22,12c6.46,0,12,1.89,16.32,5.61a34.63,34.63,0,0,1,8.88,12.31,10.92,10.92,0,0,1-2.84,12.72l-8.4,6.9a20.42,20.42,0,0,1,5,3.32l.23.19c2.27,1.95,8.31,7.12,4.88,14.49A34.7,34.7,0,0,1,208.26,79,23,23,0,0,1,192.22,85.19Z"/><path d="M192.22,12.48c6.34,0,11.72,1.85,16,5.49A34.15,34.15,0,0,1,217,30.11a10.42,10.42,0,0,1-2.7,12.13l-9.09,7.46a17.29,17.29,0,0,1,5.72,3.54l.22.18c2.21,1.89,8,6.88,4.75,13.9a34.21,34.21,0,0,1-7.94,11.28,22.49,22.49,0,0,1-15.7,6.09A24.6,24.6,0,0,1,174.67,78,32.48,32.48,0,0,1,166,63.7a50.85,50.85,0,0,1-2.4-15.51,41.51,41.51,0,0,1,3.2-15.83,37.18,37.18,0,0,1,9.33-13.5,23.9,23.9,0,0,1,16.12-6.38m0-1a24.9,24.9,0,0,0-16.79,6.64A38.24,38.24,0,0,0,165.84,32a42.51,42.51,0,0,0-3.28,16.21A51.85,51.85,0,0,0,165,64a33.46,33.46,0,0,0,9,14.7,25.57,25.57,0,0,0,18.23,7,23.47,23.47,0,0,0,16.39-6.37,35.21,35.21,0,0,0,8.17-11.6c3.58-7.69-2.89-13.24-5-15.06l-.24-.2a24,24,0,0,0-4.41-3.06L214.89,43a11.42,11.42,0,0,0,3-13.31,35.13,35.13,0,0,0-9-12.49c-4.46-3.8-10.06-5.73-16.64-5.73Z"/><path d="M148.44,85.19a25.09,25.09,0,0,1-17.88-6.84,33,33,0,0,1-8.84-14.49,51.34,51.34,0,0,1-2.42-15.66,42,42,0,0,1,3.24-16A37.75,37.75,0,0,1,132,18.49,24.4,24.4,0,0,1,148.44,12c.63,0,1.27,0,1.89.06a10.5,10.5,0,0,1,12.8-5.83,10.5,10.5,0,0,1,13.67,10V45.06c.07.93.07,1.95.07,3.13,0,.91,0,1.77-.07,2.65v23a10.51,10.51,0,0,1-10.5,10.5H160a10.47,10.47,0,0,1-3.48-.59A22.79,22.79,0,0,1,148.44,85.19Zm-.72-45.7a30,30,0,0,0-.87,8.27,29.06,29.06,0,0,0,1.3,9.17,41,41,0,0,0,1-9.17C149.1,42.39,148.11,40,147.72,39.49Z"/><path d="M166.3,6.22a10,10,0,0,1,10,10V45.06c.07.95.07,1.94.07,3.13,0,.92,0,1.75-.07,2.61v23a10,10,0,0,1-10,10H160a10,10,0,0,1-3.48-.62,22.33,22.33,0,0,1-8,1.49A24.6,24.6,0,0,1,130.9,78a32.49,32.49,0,0,1-8.71-14.28,50.85,50.85,0,0,1-2.4-15.51A41.51,41.51,0,0,1,123,32.36a37.18,37.18,0,0,1,9.33-13.5,23.9,23.9,0,0,1,16.12-6.38q1.12,0,2.21.08a10,10,0,0,1,12.48-5.83,10,10,0,0,1,3.17-.51m-18,52.32a40.08,40.08,0,0,0,1.34-10.78c0-6.2-1.3-8.48-1.65-8.75l-.12,0-.42-.13c-.44,1.21-1.06,3.84-1.06,8.93a28.73,28.73,0,0,0,1.54,9.92,7.15,7.15,0,0,0,.38.86m18-53.32a11,11,0,0,0-3.17.47A11,11,0,0,0,150,11.52c-.52,0-1,0-1.57,0a24.9,24.9,0,0,0-16.79,6.64A38.24,38.24,0,0,0,122.07,32a42.51,42.51,0,0,0-3.28,16.21A51.85,51.85,0,0,0,121.24,64a33.47,33.47,0,0,0,9,14.7,25.57,25.57,0,0,0,18.23,7,23.3,23.3,0,0,0,8.05-1.42,11,11,0,0,0,3.47.56h6.34a11,11,0,0,0,11-11v-23c.07-.89.07-1.74.07-2.65,0-1.17,0-2.19-.07-3.17V16.22a11,11,0,0,0-11-11ZM148.06,54.77a31.49,31.49,0,0,1-.72-7,36.58,36.58,0,0,1,.5-6.65,23.42,23.42,0,0,1,.75,6.65,42.82,42.82,0,0,1-.54,7Z"/><path d="M116.26,84.32a10.45,10.45,0,0,1-6.91-2.6,10.45,10.45,0,0,1-6.91,2.6H96.1a10.51,10.51,0,0,1-10.5-10.5V23.42a10.5,10.5,0,0,1,18-7.34l.56.57a19.23,19.23,0,0,1,11.59-3.81,17.12,17.12,0,0,1,10.81,3.47q.33.26.63.54a17.43,17.43,0,0,1,5,8.43l0,.12a37.57,37.57,0,0,1,.88,7.75c0,.11,0,.23,0,.34V73.82a10.51,10.51,0,0,1-10.5,10.5Z"/><path d="M115.75,13.34a16.63,16.63,0,0,1,10.5,3.36q.31.24.6.51a16.93,16.93,0,0,1,4.83,8.19l0,.12a37.15,37.15,0,0,1,.87,7.65c0,.11,0,.22,0,.32V73.82a10,10,0,0,1-10,10h-6.34A10,10,0,0,1,109.35,81a10,10,0,0,1-6.91,2.77H96.1a10,10,0,0,1-10-10V23.42a10,10,0,0,1,17.15-7l.87.89a18.71,18.71,0,0,1,11.64-4m0-1A19.74,19.74,0,0,0,104.22,16l-.26-.26a11.07,11.07,0,0,0-7.87-3.31,11,11,0,0,0-11,11v50.4a11,11,0,0,0,11,11h6.34a11,11,0,0,0,6.91-2.44,11,11,0,0,0,6.91,2.44h6.34a11,11,0,0,0,11-11V33.5c0-.12,0-.24,0-.35a38.05,38.05,0,0,0-.9-7.86l0-.13a17.93,17.93,0,0,0-5.12-8.67c-.21-.19-.43-.38-.66-.56a17.62,17.62,0,0,0-11.12-3.57Z"/><path d="M70.13,85.19a25.09,25.09,0,0,1-17.88-6.84A33,33,0,0,1,43.4,63.85,51.37,51.37,0,0,1,41,48.19a42,42,0,0,1,3.24-16,37.75,37.75,0,0,1,9.46-13.68A24.41,24.41,0,0,1,70.13,12c7,0,13.15,2.29,17.73,6.62a31.8,31.8,0,0,1,8.52,14.17,54.22,54.22,0,0,1,2.18,15.42,45.17,45.17,0,0,1-2.88,15.87,37.58,37.58,0,0,1-8.94,14.12A23.53,23.53,0,0,1,70.13,85.19Zm-.73-45.7a30,30,0,0,0-.87,8.27,29.08,29.08,0,0,0,1.3,9.17,41,41,0,0,0,1-9.17C70.79,42.39,69.8,40,69.41,39.49Z"/><path d="M70.13,12.48C77,12.48,83,14.72,87.52,19a31.31,31.31,0,0,1,8.39,14,53.64,53.64,0,0,1,2.16,15.28,44.68,44.68,0,0,1-2.85,15.7,37.09,37.09,0,0,1-8.82,13.93,23,23,0,0,1-16.26,6.87A24.6,24.6,0,0,1,52.59,78,32.48,32.48,0,0,1,43.88,63.7a50.88,50.88,0,0,1-2.4-15.51,41.51,41.51,0,0,1,3.2-15.82A37.19,37.19,0,0,1,54,18.87a23.9,23.9,0,0,1,16.12-6.38m-.18,46.06a40.07,40.07,0,0,0,1.34-10.78c0-6.2-1.3-8.48-1.65-8.75l-.12,0-.42-.13C68.66,40,68,42.67,68,47.75a28.74,28.74,0,0,0,1.54,9.92,7.14,7.14,0,0,0,.38.86m.18-47.06a24.9,24.9,0,0,0-16.79,6.64A38.25,38.25,0,0,0,43.76,32a42.52,42.52,0,0,0-3.28,16.21A51.88,51.88,0,0,0,42.93,64a33.45,33.45,0,0,0,9,14.7,25.57,25.57,0,0,0,18.23,7,24,24,0,0,0,17-7.15,38.08,38.08,0,0,0,9.06-14.3,45.66,45.66,0,0,0,2.91-16,54.72,54.72,0,0,0-2.2-15.56A32.3,32.3,0,0,0,88.2,18.24c-4.67-4.42-10.92-6.75-18.07-6.75Zm-.38,43.29a31.48,31.48,0,0,1-.72-7,36.59,36.59,0,0,1,.5-6.65,23.42,23.42,0,0,1,.75,6.65,42.82,42.82,0,0,1-.54,7Z"/><path d="M16.47,84.32A10.51,10.51,0,0,1,6,73.82V65.13a10.54,10.54,0,0,1-1.29-1.45l-2.16-3A10.5,10.5,0,0,1,4.36,46.39L6,45.07v-3.2a39.61,39.61,0,0,1,2.91-16,36.5,36.5,0,0,1,9.42-13.77A24.49,24.49,0,0,1,34.84,5.5c6.46,0,12,1.89,16.32,5.61A34.63,34.63,0,0,1,60,23.42l.23.5h0c.8,2.15,2,7.49-3.38,12.32-.51.46-1.28,1.12-2.31,2-3,2.55-5.44,4.57-9.53,4.57a10.44,10.44,0,0,1-3.15-.48A10.48,10.48,0,0,1,38,50.71l-4.7,3.83V73.82a10.51,10.51,0,0,1-10.5,10.5Z"/><path d="M34.84,6c6.34,0,11.72,1.85,16,5.49a34.15,34.15,0,0,1,8.75,12.14h0c.76,1.74,2.5,7.25-3.05,12.25-.51.46-1.28,1.11-2.29,2-3,2.49-5.3,4.45-9.2,4.45a10,10,0,0,1-3.69-.71,10,10,0,0,1-3.63,8.74l-4.89,4V73.82a10,10,0,0,1-10,10H16.47a10,10,0,0,1-10-10V64.91a10,10,0,0,1-1.38-1.53l-2.16-3A10,10,0,0,1,4.68,46.77l1.79-1.46V41.87A39.14,39.14,0,0,1,9.35,26a36,36,0,0,1,9.29-13.58A24,24,0,0,1,34.84,6m0-1A25,25,0,0,0,18,11.71a37,37,0,0,0-9.55,14A40.14,40.14,0,0,0,5.47,41.91v2.93L4,46A11,11,0,0,0,2.12,61l2.16,3a11,11,0,0,0,1.19,1.37v8.48a11,11,0,0,0,11,11h6.34a11,11,0,0,0,11-11v-19l4.52-3.68a11,11,0,0,0,4-8.13,10.94,10.94,0,0,0,2.65.32c4.27,0,6.85-2.17,9.85-4.68.87-.73,1.75-1.48,2.32-2,5.22-4.7,4.48-9.88,3.68-12.38l.07,0-.45-1a35.13,35.13,0,0,0-9-12.49C47,6.93,41.42,5,34.84,5Z"/><path class="cls-1" d="M292.4,80.19a25.09,25.09,0,0,1-17.88-6.84,33,33,0,0,1-8.84-14.49,51.34,51.34,0,0,1-2.42-15.66,42,42,0,0,1,3.24-16,37.75,37.75,0,0,1,9.46-13.68A24.4,24.4,0,0,1,292.4,7c6.46,0,12,1.89,16.32,5.61a34.63,34.63,0,0,1,8.88,12.31,10.92,10.92,0,0,1-2.84,12.72l-8.4,6.9a20.42,20.42,0,0,1,5,3.32l.23.19c2.27,1.95,8.31,7.12,4.88,14.49A34.7,34.7,0,0,1,308.44,74,23,23,0,0,1,292.4,80.19Z"/><path d="M292.4,7.48c6.34,0,11.72,1.85,16,5.49a34.15,34.15,0,0,1,8.75,12.14,10.42,10.42,0,0,1-2.7,12.13l-9.09,7.46a17.29,17.29,0,0,1,5.72,3.54l.22.18c2.21,1.89,8,6.88,4.75,13.9a34.21,34.21,0,0,1-7.94,11.28,22.49,22.49,0,0,1-15.7,6.09A24.6,24.6,0,0,1,274.86,73a32.48,32.48,0,0,1-8.71-14.28,50.85,50.85,0,0,1-2.4-15.51,41.51,41.51,0,0,1,3.2-15.83,37.18,37.18,0,0,1,9.33-13.5A23.9,23.9,0,0,1,292.4,7.48m0-1a24.9,24.9,0,0,0-16.79,6.64A38.24,38.24,0,0,0,266,27a42.51,42.51,0,0,0-3.28,16.21A51.85,51.85,0,0,0,265.2,59a33.46,33.46,0,0,0,9,14.7,25.57,25.57,0,0,0,18.23,7,23.47,23.47,0,0,0,16.39-6.37A35.21,35.21,0,0,0,317,62.72c3.58-7.69-2.89-13.24-5-15.06l-.24-.2a24,24,0,0,0-4.41-3.06L315.07,38a11,11,0,0,0,3.65-11.34,10.94,10.94,0,0,0-.67-2,35.13,35.13,0,0,0-9-12.49C304.58,8.41,299,6.48,292.4,6.48Z"/><path class="cls-1" d="M258.41,79.32a10.51,10.51,0,0,1-10.5-10.5V18.42a10.45,10.45,0,0,1,1.82-5.92,14.07,14.07,0,0,1,3.91-7.13,14,14,0,0,1,10.09-4.16A14.35,14.35,0,0,1,273.54,5c.25.22.48.46.7.7a14.35,14.35,0,0,1,3.81,9.8,14.06,14.06,0,0,1-2.84,8.58q0,.39,0,.78V68.82a10.51,10.51,0,0,1-10.5,10.5Z"/><path d="M263.73,1.72A13.86,13.86,0,0,1,273.2,5.4q.35.32.67.67a13.86,13.86,0,0,1,3.68,9.46A13.48,13.48,0,0,1,274.7,24c0,.31,0,.62,0,.93V68.82a10,10,0,0,1-10,10h-6.34a10,10,0,0,1-10-10V18.42a10,10,0,0,1,1.79-5.71,13.64,13.64,0,0,1,3.8-7,13.48,13.48,0,0,1,9.74-4m0-1A14.46,14.46,0,0,0,253.29,5a14.56,14.56,0,0,0-4,7.28,10.94,10.94,0,0,0-1.86,6.12v50.4a11,11,0,0,0,11,11h6.34a11,11,0,0,0,11-11V24.9c0-.21,0-.42,0-.63a14.56,14.56,0,0,0,2.83-8.73A14.85,14.85,0,0,0,274.61,5.4c-.23-.25-.47-.5-.73-.73A14.85,14.85,0,0,0,263.73.72Z"/><path class="cls-1" d="M224.71,79.32a10.51,10.51,0,0,1-10.5-10.5V18.42a10.5,10.5,0,0,1,18-7.34l.56.57a19.23,19.23,0,0,1,11.59-3.81,17.12,17.12,0,0,1,10.81,3.47q.33.26.63.54a17.43,17.43,0,0,1,5,8.43l0,.13a37.49,37.49,0,0,1,.88,7.75,10.47,10.47,0,0,1-5.31,9.47l-6.34,3.6a10.5,10.5,0,0,1-8.51.83V68.82A10.51,10.51,0,0,1,231,79.32Z"/><path d="M244.37,8.34a16.63,16.63,0,0,1,10.5,3.36q.31.24.6.51a16.94,16.94,0,0,1,4.83,8.19l0,.12a37.11,37.11,0,0,1,.87,7.65,10,10,0,0,1-5.06,9l-6.34,3.6a10,10,0,0,1-8.76.54V68.82a10,10,0,0,1-10,10h-6.34a10,10,0,0,1-10-10V18.42a10,10,0,0,1,17.15-7l.87.89a18.7,18.7,0,0,1,11.64-4m0-1A19.73,19.73,0,0,0,232.83,11l-.26-.26a11.07,11.07,0,0,0-7.87-3.31,11,11,0,0,0-11,11v50.4a11,11,0,0,0,11,11H231a11,11,0,0,0,11-11V42.73a11,11,0,0,0,8.26-1.07l6.34-3.6a11,11,0,0,0,5.56-9.92,38,38,0,0,0-.9-7.86l0-.13a17.94,17.94,0,0,0-5.12-8.67c-.21-.19-.43-.38-.66-.56a17.62,17.62,0,0,0-11.12-3.57Z"/><path class="cls-1" d="M199.22,80.19a25.09,25.09,0,0,1-17.88-6.84,33,33,0,0,1-8.84-14.49,51.34,51.34,0,0,1-2.42-15.66,42,42,0,0,1,3.24-16,37.75,37.75,0,0,1,9.46-13.68A24.4,24.4,0,0,1,199.22,7c6.46,0,12,1.89,16.32,5.61a34.63,34.63,0,0,1,8.88,12.31,10.92,10.92,0,0,1-2.84,12.72l-8.4,6.9a20.42,20.42,0,0,1,5,3.32l.23.19c2.27,1.95,8.31,7.12,4.88,14.49A34.7,34.7,0,0,1,215.26,74,23,23,0,0,1,199.22,80.19Z"/><path d="M199.22,7.48c6.34,0,11.72,1.85,16,5.49A34.15,34.15,0,0,1,224,25.11a10.42,10.42,0,0,1-2.7,12.13l-9.09,7.46a17.29,17.29,0,0,1,5.72,3.54l.22.18c2.21,1.89,8,6.88,4.75,13.9a34.21,34.21,0,0,1-7.94,11.28,22.49,22.49,0,0,1-15.7,6.09A24.6,24.6,0,0,1,181.67,73,32.48,32.48,0,0,1,173,58.7a50.85,50.85,0,0,1-2.4-15.51,41.51,41.51,0,0,1,3.2-15.83,37.18,37.18,0,0,1,9.33-13.5,23.9,23.9,0,0,1,16.12-6.38m0-1a24.9,24.9,0,0,0-16.79,6.64A38.24,38.24,0,0,0,172.84,27a42.51,42.51,0,0,0-3.28,16.21A51.85,51.85,0,0,0,172,59a33.46,33.46,0,0,0,9,14.7,25.57,25.57,0,0,0,18.23,7,23.47,23.47,0,0,0,16.39-6.37,35.21,35.21,0,0,0,8.17-11.6c3.58-7.69-2.89-13.24-5-15.06l-.24-.2a24,24,0,0,0-4.41-3.06L221.89,38a11,11,0,0,0,3.65-11.34,10.94,10.94,0,0,0-.67-2,35.13,35.13,0,0,0-9-12.49c-4.46-3.8-10.06-5.73-16.64-5.73Z"/><path class="cls-1" d="M155.44,80.19a25.09,25.09,0,0,1-17.88-6.84,33,33,0,0,1-8.84-14.49,51.34,51.34,0,0,1-2.42-15.66,42,42,0,0,1,3.24-16A37.75,37.75,0,0,1,139,13.49,24.4,24.4,0,0,1,155.44,7c.63,0,1.27,0,1.89.06a10.5,10.5,0,0,1,12.8-5.83,10.5,10.5,0,0,1,13.67,10V40.06c.07.93.07,1.95.07,3.13,0,.91,0,1.77-.07,2.65v23a10.51,10.51,0,0,1-10.5,10.5H167a10.47,10.47,0,0,1-3.48-.59A22.79,22.79,0,0,1,155.44,80.19Z"/><path d="M173.3,1.22a10,10,0,0,1,10,10V40.06c.07.95.07,1.94.07,3.13,0,.92,0,1.75-.07,2.61v23a10,10,0,0,1-10,10H167a10,10,0,0,1-3.48-.62,22.33,22.33,0,0,1-8,1.49A24.6,24.6,0,0,1,137.9,73a32.49,32.49,0,0,1-8.71-14.28,50.85,50.85,0,0,1-2.4-15.51A41.51,41.51,0,0,1,130,27.36a37.18,37.18,0,0,1,9.33-13.5,23.9,23.9,0,0,1,16.12-6.38q1.12,0,2.21.08a10,10,0,0,1,12.48-5.83,10,10,0,0,1,3.17-.51m0-1a11,11,0,0,0-3.17.47A11,11,0,0,0,157,6.52c-.52,0-1,0-1.57,0a24.9,24.9,0,0,0-16.79,6.64A38.24,38.24,0,0,0,129.07,27a42.51,42.51,0,0,0-3.28,16.21A51.85,51.85,0,0,0,128.24,59a33.47,33.47,0,0,0,9,14.7,25.57,25.57,0,0,0,18.23,7,23.3,23.3,0,0,0,8.05-1.42,11,11,0,0,0,3.47.56h6.34a11,11,0,0,0,11-11v-23c.07-.89.07-1.74.07-2.65,0-1.17,0-2.19-.07-3.17V11.22a11,11,0,0,0-11-11Z"/><path class="cls-1" d="M123.26,79.32a10.45,10.45,0,0,1-6.91-2.6,10.45,10.45,0,0,1-6.91,2.6H103.1a10.51,10.51,0,0,1-10.5-10.5V18.42a10.5,10.5,0,0,1,18-7.34l.56.57a19.23,19.23,0,0,1,11.59-3.81,17.12,17.12,0,0,1,10.81,3.47q.33.26.63.54a17.43,17.43,0,0,1,5,8.43l0,.12a37.57,37.57,0,0,1,.88,7.75c0,.11,0,.23,0,.34V68.82a10.51,10.51,0,0,1-10.5,10.5Z"/><path d="M122.75,8.34a16.63,16.63,0,0,1,10.5,3.36q.31.24.6.51a16.93,16.93,0,0,1,4.83,8.19l0,.12a37.15,37.15,0,0,1,.87,7.65c0,.11,0,.22,0,.32V68.82a10,10,0,0,1-10,10h-6.34A10,10,0,0,1,116.35,76a10,10,0,0,1-6.91,2.77H103.1a10,10,0,0,1-10-10V18.42a10,10,0,0,1,17.15-7l.87.89a18.71,18.71,0,0,1,11.64-4m0-1A19.74,19.74,0,0,0,111.22,11l-.26-.26a11.07,11.07,0,0,0-7.87-3.31,11,11,0,0,0-11,11v50.4a11,11,0,0,0,11,11h6.34a11,11,0,0,0,6.91-2.44,11,11,0,0,0,6.91,2.44h6.34a11,11,0,0,0,11-11V28.5c0-.12,0-.24,0-.36a38.05,38.05,0,0,0-.9-7.86l0-.13a17.93,17.93,0,0,0-5.12-8.67c-.21-.19-.43-.38-.66-.56a17.62,17.62,0,0,0-11.12-3.57Z"/><path class="cls-1" d="M77.13,80.19a25.09,25.09,0,0,1-17.88-6.84A33,33,0,0,1,50.4,58.85,51.37,51.37,0,0,1,48,43.19a42,42,0,0,1,3.24-16,37.75,37.75,0,0,1,9.46-13.68A24.41,24.41,0,0,1,77.13,7c7,0,13.15,2.29,17.73,6.62a31.8,31.8,0,0,1,8.52,14.17,54.22,54.22,0,0,1,2.18,15.42,45.17,45.17,0,0,1-2.88,15.87,37.58,37.58,0,0,1-8.94,14.12A23.53,23.53,0,0,1,77.13,80.19Z"/><path d="M77.13,7.48C84,7.48,90,9.72,94.52,14a31.31,31.31,0,0,1,8.39,14,53.64,53.64,0,0,1,2.16,15.28,44.68,44.68,0,0,1-2.85,15.7,37.09,37.09,0,0,1-8.82,13.93,23,23,0,0,1-16.26,6.87A24.6,24.6,0,0,1,59.59,73,32.48,32.48,0,0,1,50.88,58.7a50.88,50.88,0,0,1-2.4-15.51,41.51,41.51,0,0,1,3.2-15.82A37.19,37.19,0,0,1,61,13.87,23.9,23.9,0,0,1,77.13,7.48m0-1a24.9,24.9,0,0,0-16.79,6.64A38.25,38.25,0,0,0,50.76,27a42.52,42.52,0,0,0-3.28,16.21A51.88,51.88,0,0,0,49.93,59a33.45,33.45,0,0,0,9,14.7,25.57,25.57,0,0,0,18.23,7,24,24,0,0,0,17-7.15,38.08,38.08,0,0,0,9.06-14.3,45.66,45.66,0,0,0,2.91-16,54.72,54.72,0,0,0-2.2-15.56A32.3,32.3,0,0,0,95.2,13.24C90.53,8.82,84.28,6.48,77.13,6.48Z"/><path class="cls-1" d="M23.47,79.32A10.51,10.51,0,0,1,13,68.82V60.13a10.54,10.54,0,0,1-1.29-1.45l-2.16-3a10.5,10.5,0,0,1,1.84-14.34L13,40.07v-3.2a39.61,39.61,0,0,1,2.91-16A36.5,36.5,0,0,1,25.31,7.08,24.49,24.49,0,0,1,41.84.5c6.46,0,12,1.89,16.32,5.61A34.63,34.63,0,0,1,67,18.42l.23.5h0c.8,2.15,2,7.49-3.38,12.32-.51.46-1.28,1.12-2.31,2-3,2.55-5.44,4.57-9.53,4.57a10.44,10.44,0,0,1-3.15-.48A10.48,10.48,0,0,1,45,45.71l-4.7,3.83V68.82a10.51,10.51,0,0,1-10.5,10.5Z"/><path d="M41.84,1c6.34,0,11.72,1.85,16,5.49a34.15,34.15,0,0,1,8.75,12.14h0c.76,1.74,2.5,7.25-3.05,12.25-.51.46-1.28,1.11-2.29,2-3,2.49-5.3,4.45-9.2,4.45a10,10,0,0,1-3.69-.71,10,10,0,0,1-3.63,8.74l-4.89,4V68.82a10,10,0,0,1-10,10H23.47a10,10,0,0,1-10-10V59.91a10,10,0,0,1-1.38-1.53l-2.16-3a10,10,0,0,1,1.75-13.65l1.79-1.46V36.87A39.14,39.14,0,0,1,16.35,21,36,36,0,0,1,25.64,7.46,24,24,0,0,1,41.84,1m0-1A25,25,0,0,0,25,6.71a37,37,0,0,0-9.55,14,40.13,40.13,0,0,0-2.95,16.24v2.93L11,41A11,11,0,0,0,9.12,56l2.16,3a11,11,0,0,0,1.19,1.37v8.48a11,11,0,0,0,11,11h6.34a11,11,0,0,0,11-11v-19l4.52-3.68a11,11,0,0,0,4-8.13,10.94,10.94,0,0,0,2.65.32c4.27,0,6.85-2.17,9.85-4.68.87-.73,1.75-1.48,2.32-2,5.21-4.69,4.48-9.88,3.68-12.37l.07,0-.45-1a35.13,35.13,0,0,0-9-12.49C54,1.93,48.42,0,41.84,0Z"/></g></g></svg>