<?xml version="1.0" encoding="utf-8"?>
<!-- Generator: Adobe Illustrator 21.0.0, SVG Export Plug-In . SVG Version: 6.00 Build 0)  -->
<svg version="1.1" id="Calque_1" xmlns="http://www.w3.org/2000/svg" xmlns:xlink="http://www.w3.org/1999/xlink" x="0px" y="0px"
	 viewBox="0 0 315 440" style="enable-background:new 0 0 315 440;" xml:space="preserve">
<style type="text/css">
	.st0{fill:#1D1D1B;}
</style>
<path class="st0" d="M310,225.3c0.3-2.1-0.9-3.3-2.6-3.3c-1.4,0-3.2,0.8-4,1.9c-0.8,1.1-0.7,2.9-1,4.3c-4.3,0.4-8.1,1.1-12.6-0.8
	c0-6.8,0.1-14-0.1-21.1c-0.1-2.5,2.3-3.9,2.6-5.6c0.8-4.8,4.4-7.3,7.6-10.7v-9.7c4.7-3.7,3.1-8.9,3.3-13.7c0.1-3.3,0-6.7,0-10.3
	c-1.9-1.8-5.1-3.5-5.6-5.8c-1.6-6.2-4.2-11.6-7-17.3c-2-4-0.9-9.6-1.1-14.1c-8-6.7-9.1-17.4-16.4-23.9c0.3-4.8-5.7-5.8-6.2-9.1
	c-0.7-5.2-4.6-7.3-7.5-10.4c-4.5-4.9-9.4-9.5-14.2-14.3c-7.8-1.4-10.8-8.8-16.4-13c-1.2-0.9-3.4-0.4-4.4-1.3c-2-2-4.4-2.7-6.9-3.7
	c-2.4-0.9-4.3-3.5-5.9-5.7c-2.1-2.9-5.4-3.2-8.1-4.8c-5.8-3.5-11.8-6.7-18.1-8.7c-3.1-1-5.7-2.6-8.6-3.5c-3-0.9-6-0.4-9-2.9
	c-2.5-2.1-7.7,0.5-10.1-3.8c-2.6,0.2-5.6-0.2-7.8,0.9c-0.6,0.3-1.1,0.6-1.6,1c-0.1,0-0.3-0.1-0.4-0.1c-5.1-0.1-10.2,0-15.3,0.1
	c-0.8-0.5-1.5-1.1-2.2-2.1c-2.8,0-5.6-0.2-8.4,0.1c-3.2,0.3-6.6-1.2-9.7,1.4v6.9c-1,0.3-2,0.6-2.9,1.1c-1.5,0.7-2.9,1.5-4,2.3
	c0-1.2,0.1-2.4,0-3.6c-0.2-2.6,1.2-5.6-1.2-7.8c-4.6-1.3-10.3,1.8-13.7-3.6H77c-4.8,4.3-7.3,9.9-8.5,16.4c-0.6,3.4-2.9,6.6-4.4,9.8
	c0,0.1-0.7-0.1-1.2-0.2c-1.8-1.9-0.7-4.2-0.9-6.3c-0.2-2.2-0.2-4.5,0-6.7c0-0.5,0-1.1,0-1.6c-0.1-1.6-0.3-3.3,1.4-4.5
	c3-0.6,4.6-0.9,5-1.8c0.5-0.9-0.1-2.3-1.3-5.2c-4.4,0-8.9,0.1-13.3,0c-1.5,0-3.4-0.3-4.5-1.1c-4.8-3.7-8.9-3.1-12.7,1.5
	c-1.4,1.6-3.5,2.3-5.3,3.3c-5,3-10.5,6.3-9.5,13.8c-4.4,5.3-2.1,14.3-10.4,17.3c1.5,1.6,2.5,2.8,3.6,3.9c-1.1,1.2-2.7,2.3-3.1,3.7
	c-0.3,1.3,0.5,3.1,1.4,4.3c0.4,0.6,2.5,0.7,3.1,0.2c2-1.8,3.8-3.8,5.4-5.9c0.8-1.2,1-2.8,1.5-4.1h10.1c3-2.9,5.8-5.6,8.5-8.2
	c-1.1-1.3-2.1-2.5-3-3.7c5-2.4,1.4-8.4,4.7-11.5c1.7,0,3.4-0.2,5,0c3.2,0.5,7.4-1.8,9.4,1.2c3,4.5-3.1,7.2-3.8,11.3
	c-0.4,2.2-3.7,3.8-6.3,6.1c7.9,3,1.3,10.5,6.1,15.2h14c0.5,6.2,0.5,6.1-2.6,6.4c-4.3,0.4-8.8-1.2-13.1,0.9c0.6,1,1.1,1.8,1.6,2.6
	c2.6,4.3,1.9,6.3-2.4,6.5c-2.2,0.1-4.5-0.1-6.7,0c-1.9,0.1-2.8,1.1-2.9,3.1c-0.1,2,0.8,3,2.5,3.5c1.4,0.5,2.9,0.9,4.2,1.3
	c0,3.8-1.1,7.7,0.3,10.4c2.1,4-5.1,4.6-1.8,8.8h15.1c-0.4,2.6-0.7,4.5-1,6.2c-4.6,0.6-8.5-1-12.7,1.6v10.3c-2.6,2.6-4.5,4.5-7.4,7.4
	c3.9,3.1,9,5.6,10.3,8.6c1.9,4.3-1.4,10,5.5,9c1.2,2.1,4.5,2.7,4.4,5.9c-6.4,2.4-13.3-1.1-19.3,2.1c-1.1,5.8,0.5,9.9,6,12.1
	c0.5,0.2,1.2-0.2,1.6,0.1c1.9,0.9,2.9,3.7,1.9,5.3c-1,1.7-3,1.9-5.7,0.4c-1.3-0.8-1.9-2.6-4.1-2.4c-3.3,0.3-6.8,0.5-10,0
	c-5.5-0.9-8.7,3.4-13,5c-2.9,1.1-5,4.2-8.3,7.3c4.8,1.7,8.7,1.4,12.4,1c4.8-0.5,6.8,2.7,8.9,5.9c0.8,1.2,0.9,2.9,1.3,4.1
	c3.1,0.7,6.1-1.1,8.4,1.3c-1.4,7.6-9.1,3.8-12.9,7.1c0,3.4,1,7.2-0.2,9.9c-1.9,4,4.6,4.8,2.2,8.6h-8.1c-1.7,0-3.6-0.5-5,0.1
	c-1.9,0.9-3.5,2.6-4.8,4.3c-0.3,0.4,1.5,2.2,2.1,3.4c1.4,3.1,0.2,5.1-3.2,5.5c-2.1,0.2-4.5-0.8-5.8,0.9c-3.3,6.4,4,10,3,15.8
	c-0.4,2.1,2,4.6,3.1,6.9c2.9,6.2,9.1,9.5,13.5,15.4c-1,2.3,1.5,5.9-2.2,8.4c-2.3,1.6-1.1,4.8-3.4,7.1c-2.8,2.8-0.9,7.3-1.1,11
	c4.5,0.9,1,9.4,8.1,8.5c1.4-0.2,3.2,2.8,5,4.5c-1,1.1-2.2,2.1-2.9,3.4c-1.1,2.1,0.2,5.1,2.1,5.2c2.8,0.1,5.6-0.3,8.4,0.1
	c5.3,0.8,8.2,9.1,4.7,13c-1.5,1.7-3.3,3-4.7,4.8c-1.1,1.5-3.8,2-3.3,4.7c3.2,1.1,6,1.4,9.2-0.5c5.6-3.2,6.5-2.8,6.7,3
	c0.2,4.9,5.6,8.2,3.7,13.6c-0.1,0.2,0.7,0.8,1.1,1.2c3.2,3.1,6.2,5.8,5.7,11.2c-0.2,2.5,3,5.8,6.8,5.8c0.9,0,1.8-0.9,2.8-1.5v-10.1
	c2.7-2.7,5.4-5.5,8.2-8.2c1.3-1.3,4.3-0.1,5.3,1.9c2.6,5.5,3.5,5.8,7.3,2.2c1.2-1.2,2.3-2.5,3.6-3.5c2-1.6,3.9-1.3,5.7,0.6
	c1.1,1.2,2.4,2.3,3.7,3.5c-2.5,1.8-3.1,4.2-4,6.9c-0.7,2.4-3.8,4-5.6,6c-1.4,1.5-0.7,5.1,1.3,5.4c2.4,0.3,4.4,0.7,5.6,2.7
	c2.6,4.2,5.2,1.9,8.7,1.2c5.5-1.2,3.5-4.5,3.9-7.4c0.3-2.2,2.9-4,4.6-3c2.2,1.3,3.9,3.1,7,3.6c3.1,0.5,1.6,4.7,1.8,7.3
	c0.5,5.9,2.6,8.6,8.9,9c3.6,0.3,5,1.5,4.5,4.9c-0.3,2.4,0.5,4.1,2.1,5.9c1.3,1.4,1.2,4.5,2.6,5.5c2.9,2,4.9-2.2,6.8-2.2
	c4.6-0.1,8-2.4,12-3.8c2.5-0.9,6.6,1,8.1-0.4c2.6-2.4,5.8-2.5,8.3-4.4c0.9-0.6,1.7-1.9,2.5-1.9c5-0.2,10-0.2,15.1,0
	c0.5,0,0.9,0.3,1.4,0.6c0.5,0.3,0.9,0.7,1.4,0.9c0.3,1.5,0.1,3.1,0.2,4.7c0.1,1.6,0.5,3.1,2,4.5c2.2,2.1,2,3-0.1,5.5
	c-2,2.4-3.3,4.5-0.5,6.9c2,1.7,1.8,3.8,1.9,6c0.2,2.6-1.1,5.6,1.3,7.5c7.8-5.2,18.2-6.9,22.2-16.5c-0.6-3.5-4.3-5-3.7-9.1
	c0.9-5.4,0.3-11.1,0.1-16.7c0-1.5-0.7-3.2-1.7-4.3c-2.3-2.6-2.2-4.7,0.2-7c1.6-1.5,3.3-3.1,4.7-4.7c1.2-1.3-0.5-5.2-2.4-5
	c-4.2,0.4-7.5-0.8-10-4.2c-1.5-2.1-1.1-7.4,0.9-9.3c2.3,0.8,5.2-1,7.6,1c0.6,3.1,1.2,6.2,1.7,8.9c2.3-1.2,4.2-3.1,6-3
	c5.3,0.3,8.5-2,9.6-6.8c0.5-1.8,0.9-3.2,2.7-3.4c2.1-0.3,4.3-0.1,5.8-0.1c3.8-3.8,6.9-6.9,10.1-10.1c3.2-3.2,6.4-6.2,9.4-9.5
	c2.9-3.1,3.6-7.5,6.9-10.7c2.8-2.7,4.6-6.9,7.1-10.4c3.6-4.9,6.5-10.8,8-16.6c0.9-3.3,1.3-6.2,4-8.5c1.6-1.4,3.4-2.8,3-5.4
	c-0.7-4.5,0.3-8.5,3.3-12c-1.3-4.2,2.6-6.9,3.2-10.4c0.7-3.8,0.1-7.8,0.1-11.7c0-3.4,0.6-6.8-0.1-10c-0.9-4,3.5-5.4,3.5-8.7
	C309.9,227.6,309.8,226.4,310,225.3z"/>
</svg>
