<?xml version="1.0" standalone="no"?>
<!DOCTYPE svg PUBLIC "-//W3C//DTD SVG 1.1//EN" "http://www.w3.org/Graphics/SVG/1.1/DTD/svg11.dtd" >
<svg>
<metadata>
Created by FontForge 20090622 at Mon Jul 13 13:58:18 2020
 By deploy user
Copyright (c) 2020, JLFC
</metadata>
<defs>
<font id="TribaliumNeue-Regular" horiz-adv-x="600" >
  <font-face 
    font-family="Tribalium Neue"
    font-weight="400"
    font-stretch="normal"
    units-per-em="1000"
    panose-1="2 0 5 3 0 0 0 0 0 0"
    ascent="800"
    descent="-200"
    x-height="521"
    cap-height="775"
    bbox="-110 -294 1211 1040.64"
    underline-thickness="50"
    underline-position="-50"
    unicode-range="U+0020-U+2199"
  />
<missing-glyph horiz-adv-x="500" 
d="M410 800v-1000h-317v1000h317zM333 733h-165v-33h65v-37h-66v-33h166v33h-66v37h66v33zM267 604h-100v-104h166v34h-66v70zM233 570v-36h-33v36h33zM333 473h-166v-33h66v-37h-66v-33h100v70h66v33zM333 413h-33v-66h-133v-34h166v100zM333 291h-100v-56h34v23h33v-47
h-100v80h-33v-113h166v113zM333 118h-166v-113h166v113zM300 85v-47h-100v47h100zM333 -18h-166v-33h70l-70 -47v-33h166v33h-102l70 47h32v33z" />
    <glyph glyph-name=".notdef" horiz-adv-x="500" 
d="M410 800v-1000h-317v1000h317zM333 733h-165v-33h65v-37h-66v-33h166v33h-66v37h66v33zM267 604h-100v-104h166v34h-66v70zM233 570v-36h-33v36h33zM333 473h-166v-33h66v-37h-66v-33h100v70h66v33zM333 413h-33v-66h-133v-34h166v100zM333 291h-100v-56h34v23h33v-47
h-100v80h-33v-113h166v113zM333 118h-166v-113h166v113zM300 85v-47h-100v47h100zM333 -18h-166v-33h70l-70 -47v-33h166v33h-102l70 47h32v33z" />
    <glyph glyph-name=".null" horiz-adv-x="0" 
 />
    <glyph glyph-name="nonmarkingreturn" horiz-adv-x="333" 
 />
    <glyph glyph-name="space" unicode=" " horiz-adv-x="400" 
 />
    <glyph glyph-name="exclam" unicode="!" horiz-adv-x="294" 
d="M20 775q20 -3 46 -14.5t60.5 -36.5t59 -73.5t28.5 -111.5q-25 -23 -31.5 -48t-6.5 -84q0 -90 13 -183q-55 0 -71 -31l-2 1q20 80 20 175q0 89 -29 142t-72 62q33 7 58 -8t31 -33q0 50 -31 81t-60 36q33 8 67 -8.5t50 -59.5q-1 43 -19.5 81.5t-43 61.5t-42.5 36t-25 15z
M141 106q24 0 40 -18.5t10 -51.5q-12 12 -27.5 8.5t-20 -18.5t7.5 -40q-60 17 -60 70q0 21 14.5 35.5t35.5 14.5z" />
    <glyph glyph-name="quotedbl" unicode="&#x22;" horiz-adv-x="483" 
d="M151 761q44 0 68 -27.5t24 -65.5q0 -104 -153 -205l-2 2q98 96 98 178q0 50 -41 50q-22 0 -37.5 -17t-17.5 -36q-20 21 -20 48q0 30 22.5 51.5t58.5 21.5zM381 761q44 0 68 -27.5t24 -65.5q0 -104 -153 -205l-2 2q98 96 98 178q0 50 -41 50q-22 0 -37.5 -17t-17.5 -36
q-20 21 -20 48q0 30 22.5 51.5t58.5 21.5z" />
    <glyph glyph-name="numbersign" unicode="#" horiz-adv-x="857" 
d="M826 580q7 -38 -24 -59.5t-97 -17.5q61 -17 83 -55q-40 27 -124 40q-69 -149 -100 -328q68 4 122.5 24.5t51.5 48.5q22 -30 -3 -55t-74 -31q46 -3 80 13q-46 -44 -184 -47q-11 -71 -14 -164q-24 75 -24 164q-19 1 -75 3.5t-112.5 4.5t-103.5 2q-12 -84 -15 -174
q-23 81 -20 173q-127 -3 -142 -35q-7 38 24 59.5t97 17.5q-61 17 -83 55q35 -24 109 -37q20 161 114 326q-76 -2 -126.5 -22.5t-46.5 -51.5q-22 30 3 55t74 31q-46 3 -80 -13q49 47 203 47h2q48 74 110 134q-47 -64 -84 -135q19 -1 77.5 -3.5t114.5 -4.5t101 -1
q56 85 121 144q-48 -66 -89 -143q120 5 134 35zM521 159q13 165 107 333q-62 7 -158 10q8 -36 -25.5 -57.5t-93.5 -16.5q77 18 77 49q0 30 -84 31q-76 -154 -107 -332q67 -8 190 -11q-25 27 -1.5 53t70.5 21q-46 -18 -46 -44q0 -33 71 -36z" />
    <glyph glyph-name="dollar" unicode="$" 
d="M327 306q-90 9 -162 70.5t-72 153.5q0 73 60.5 130.5t149.5 69.5q-38 72 -104 58q6 11 36.5 14t65.5 -15q-5 28 7.5 46t37.5 18q30 0 46.5 -17.5t19.5 -36.5h-1q-15 21 -28 21q-25 0 -25 -87q80 -6 130.5 -60t37.5 -146q18 17 28 29.5t22.5 39t20.5 63.5h2
q-12 -213 -212 -239v1q88 49 88 136q0 56 -31.5 94.5t-85.5 44.5q5 -60 1 -166t-25 -181h-3q25 233 -13 346q-36 -5 -55.5 -26t-19.5 -51q0 -48 53 -79q-38 0 -66 22t-28 56q0 29 15 48q-37 -19 -57 -54.5t-20 -78.5q0 -45 29 -95.5t84 -80.5q-19 23 -20 48t22 47t69 31
q-39 -26 -45 -62.5t9.5 -64.5t38.5 -47zM422 331q58 8 99 -31t41 -109q0 -66 -65.5 -127t-169.5 -72q1 -69 24.5 -100.5t70.5 -31.5q-15 -15 -39.5 -16.5t-40.5 15.5q2 -22 -14 -37t-44 -15q-26 0 -37 15.5t-8 38.5q12 -18 29 -18q57 0 38 147h-15q-89 0 -151 55.5
t-62 136.5q0 27 -13 27q-15 0 -48 -28l-2 4q34 43 90 80t104 56l1 -2q-80 -56 -80 -142q0 -57 34 -94.5t92 -37.5q53 0 86.5 34t37.5 85q25 -54 5 -94t-70 -58q95 8 145 59.5t50 114.5q0 43 -23.5 70.5t-53.5 27.5q-33 0 -56 -18.5t-31 -44.5q-22 68 36.5 115.5t142.5 36.5
v-1q-68 -2 -103 -41z" />
    <glyph glyph-name="percent" unicode="%" horiz-adv-x="783" 
d="M238 526q-88 27 -88 103q0 31 21 52t52 21q35 0 59 -27t15 -75q-18 17 -40.5 12t-29.5 -27t11 -59zM438 320q152 335 345 337v2q-17 7 -45 4t-58.5 -8.5t-67.5 -28t-71.5 -53.5t-71.5 -85t-67 -123l-13 -31q-25 33 -65 37t-67 -26t-16 -85l1 -1q7 31 23.5 46t38.5 9
q33 -8 33 -55q0 -48 -29.5 -90.5t-69.5 -65t-85 -17.5t-73 44q-1 -35 14 -57.5t41 -29.5q31 -9 65.5 2t60.5 41q-21 -40 -65.5 -64t-110.5 -19l-1 -1q34 -11 64.5 -12.5t57 8.5t47.5 21.5t42 37t35 44t31.5 53.5l27 54.5t26 58t23.5 53.5zM596 -14q-88 27 -88 103
q0 31 21 52t52 21q35 0 59 -27t15 -75q-18 17 -40.5 12t-29.5 -27t11 -59z" />
    <glyph glyph-name="ampersand" unicode="&#x26;" horiz-adv-x="1107" 
d="M929 290q-33 0 -61 -12.5t-43 -27.5t-34.5 -27.5t-38.5 -12.5q-41 0 -47 32h-1q-6 -31 10 -47.5t46 -16.5t58 20q0 -29 26 -49.5t72 -14.5q-54 19 -54 59q0 21 17.5 34.5t43.5 13.5q39 0 68.5 -26.5t29.5 -67.5q0 -51 -37 -77.5t-98 -26.5q-136 0 -306 179l-19 20
q9 13 30 48l34 55.5t36 50.5t42.5 46.5t45 29t51.5 12.5q38 0 58.5 -21t20.5 -53q0 -37 -23 -59.5t-56 -22.5q-47 0 -73 42h-1q0 -39 21.5 -61.5t55.5 -22.5q49 0 87.5 34t38.5 88q0 70 -56 100q52 10 62.5 53t-25.5 76q4 -20 -2.5 -36.5t-16.5 -26t-34 -19.5t-37 -13.5
l-43 -11.5q-44 -11 -74 -27t-60.5 -50.5t-52 -67.5t-63.5 -104l-2 -3l-14 14q-45 45 -52 100t25 113q-63 -48 -70 -112q-60 72 -102.5 152t-42.5 132q0 41 24.5 67t61.5 26q40 0 64 -28t24 -73q0 -56 -43 -107q56 25 77 61q-1 -29 29.5 -36.5t69.5 24.5q-37 -8 -60 5.5
t-23 46.5q0 64 -38 105.5t-101 41.5q-61 0 -100.5 -36.5t-39.5 -98.5q0 -45 34 -104q-26 31 -45.5 45t-45.5 14q-47 0 -65 -35t11 -76h1q-6 33 8 52.5t46 19.5q30 0 62 -29t77 -97l9 -14q-256 -86 -256 -269q0 -89 53 -140.5t144 -51.5q48 0 94.5 21t82.5 56t61 67t45 66
q18 -18 32 -44t21 -58t-12.5 -62t-66.5 -46q76 0 101.5 31t17.5 80q62 -51 124.5 -81t142.5 -30q84 0 134.5 41t50.5 115q0 63 -45 103.5t-101 40.5zM253 39q-69 0 -107 42.5t-38 106.5q0 52 22 97t46 62q-21 -35 14.5 -76t112.5 -50v1q-46 13 -70 40.5t-24 56.5
q0 69 118 95q96 -114 168 -185q-117 -190 -242 -190z" />
    <glyph glyph-name="quotesingle" unicode="'" horiz-adv-x="253" 
d="M151 761q44 0 68 -27.5t24 -65.5q0 -104 -153 -205l-2 2q98 96 98 178q0 50 -41 50q-22 0 -37.5 -17t-17.5 -36q-20 21 -20 48q0 30 22.5 51.5t58.5 21.5z" />
    <glyph glyph-name="parenleft" unicode="(" horiz-adv-x="393" 
d="M362 796l1 -2q-104 -71 -160 -183t-56 -249q0 -136 49 -250.5t142 -197.5l-1 -2q-66 36 -164 134q-29 29 -39 6q-12 -28 16 -76q10 -17 24 -33l-1 -2q-40 29 -67.5 74.5t-25.5 83t40 44.5q-38 110 -38 216q0 139 71 255t209 182z" />
    <glyph glyph-name="parenright" unicode=")" horiz-adv-x="393" 
d="M31 796q138 -66 209 -182t71 -255q0 -106 -38 -216q38 -7 40 -44.5t-25.5 -83t-67.5 -74.5l-1 2q44 49 43 94q-1 26 -17 24q-11 -1 -25 -15q-98 -98 -164 -134l-1 2q93 83 142 197.5t49 250.5q0 137 -56 249t-160 183z" />
    <glyph glyph-name="asterisk" unicode="*" horiz-adv-x="370" 
d="M143 779v-1q24 -6 35.5 -20t11.5 -28q0 -15 -10 -23t-25 -8q-26 0 -44 18.5t-24 42.5h-1q2 -72 41 -98l-127 -30v-3l111 8q-24 -26 -29.5 -67t15.5 -84h1q-10 53 15.5 97.5t75.5 44.5q28 0 43 -19t10 -49t-31 -59l1 -3q96 84 42 152l116 27v2l-149 -12q17 19 17 45
q0 32 -29.5 49.5t-65.5 17.5z" />
    <glyph glyph-name="plus" unicode="+" horiz-adv-x="640" 
d="M464 383q34 0 55 -15t21 -38q0 -25 -18 -39.5t-40 -15.5q18 15 18 30q0 41 -168 43q-25 -104 14.5 -180t115.5 -84q-66 -8 -108 19t-54 77q-2 -38 19 -90q-54 65 -54 155q0 63 18 102q-64 -4 -88.5 -23t-24.5 -55q-9 15 -10.5 38.5t3.5 28.5q-46 -6 -61 -42q-2 14 -2 28
t12.5 27t33.5 23.5t60.5 16.5t93.5 7q27 67 27 126q0 66 -25 97q12 -3 24 -15.5t16 -27.5q-2 33 -16 63q47 -34 47 -124q0 -51 -28 -119q72 2 103 13.5t35 48.5q11 -15 6.5 -38.5t-25.5 -36.5z" />
    <glyph glyph-name="comma" unicode="," horiz-adv-x="222" 
d="M63 125l-1 -1q69 -125 69 -195q0 -35 -15.5 -50.5t-37.5 -15.5q-31 0 -54 34l-2 -1q1 -36 19 -58t50 -22q38 0 65.5 22.5t27.5 66.5q0 16 -6.5 39t-13.5 38.5t-17.5 36.5t-10.5 22q-8 15 -5 24t21 9q23 0 55 -15l1 3q-56 47 -145 63z" />
    <glyph glyph-name="hyphen" unicode="-" horiz-adv-x="628" 
d="M168 269q0 36 39 54t99 18q98 0 98 -36q0 -19 -14 -30q24 0 39 11.5t15 30.5q0 37 -49 51q23 21 20.5 47t-24.5 43q7 -41 -19 -58.5t-92 -16.5q-69 2 -103.5 -18t-34.5 -55q0 -27 26 -41z" />
    <glyph glyph-name="period" unicode="." horiz-adv-x="232" 
d="M140 -14q-60 17 -60 70q0 21 14.5 35.5t35.5 14.5q24 0 40 -18.5t10 -51.5q-12 12 -27.5 8.5t-20 -18.5t7.5 -40z" />
    <glyph glyph-name="slash" unicode="/" horiz-adv-x="502" 
d="M326 374q16 94 40 167t48.5 115.5t55 72t53 41.5t49.5 19v2q-26 -1 -55 -10.5t-66.5 -36.5t-69.5 -67.5t-60 -110t-41 -158.5l-5 -33q-32 25 -72.5 18t-56.5 -40.5t6 -87.5h1q-2 31 10 50t35 19t36.5 -19.5t13.5 -57.5q0 -46 -20.5 -88.5t-52.5 -66.5t-70.5 -29t-74.5 25
q17 -70 75 -70q32 0 63 19.5t48 54.5q-10 -44 -47 -78.5t-102 -46.5v-2q32 -1 60 5t49 16t39 29t30 37t23.5 46t18 49t13 54.5t10 54.5t8.5 56t8 52z" />
    <glyph glyph-name="zero" unicode="0" horiz-adv-x="655" 
d="M551 533q0 81 -56 134t-138 53q-70 0 -128 -32.5t-94 -85.5t-55.5 -118t-19.5 -133q0 -65 15.5 -126t47 -115t87.5 -87t129 -33q115 0 185.5 82.5t70.5 200.5q0 91 -43 137q16 -46 16 -127q0 -91 -42.5 -158t-110.5 -88q35 22 35 63q0 28 -17 49q1 -55 -32 -83.5
t-80 -28.5q-67 0 -109 53t-42 129q0 31 13 54t39 23q33 0 59 -35l2 1q-22 70 -71 70q-40 0 -64.5 -37.5t-20.5 -82.5q-18 75 -18 146q0 56 14 110.5t42 104.5t78.5 80.5t116.5 30.5q69 0 110 -45t41 -102q0 -69 -55 -69q-67 0 -89 99q-8 -45 -1 -74t22.5 -45.5t34 -22.5
t32.5 -6t19 4q-1 -19 -17 -52.5t-41 -63.5l2 -2q133 105 133 228z" />
    <glyph glyph-name="one" unicode="1" horiz-adv-x="544" 
d="M295 360q-35 -39 -110.5 -64.5t-135.5 -31.5v3q102 25 170 84t68 138q0 62 -29 110.5t-66 65.5q96 -10 117 -88q0 44 -15.5 84t-38 66t-42 41.5t-34.5 22.5q17 -3 37.5 -11t49 -27t50.5 -43.5t36 -65.5t11 -89q-15 -16 -25 -91.5t-10 -168.5q0 -74 9 -169q-7 -1 -15.5 -4
t-22.5 -10t-28.5 -15.5t-43.5 -24l-58 -30.5l-1 5q63 35 89.5 67.5t34.5 84.5t3 161zM514 61q-19 26 -60 30q53 -26 53 -70q0 -22 -16 -48l-2 1q10 43 -19 68t-79 25q-57 0 -145.5 -38.5t-144.5 -38.5q-35 0 -58 16t-23 46q0 46 64 57v-2q-28 -17 -28 -44q0 -47 57 -47
q36 0 89.5 26l110 52.5t100.5 26.5q32 0 63 -14t38 -46z" />
    <glyph glyph-name="two" unicode="2" horiz-adv-x="666" 
d="M54 113q95 23 181 74.5t143.5 113t91.5 126.5t34 119q0 63 -29 95t-78 32q-57 0 -102.5 -37t-74.5 -101.5t-47 -136.5t-28 -158h-5q-31 59 -41.5 134t7.5 146h2q-5 -72 7 -123q37 158 112.5 245.5t175.5 87.5q74 0 118 -46t44 -114q0 -167 -245 -358q-64 -50 -31 -55
q35 -4 170 48l1 -1q-84 -48 -199.5 -73t-205.5 -21zM580 26q47 -5 77 36q-7 -40 -47.5 -56t-88.5 -16q-53 0 -186.5 41t-191.5 41q-46 0 -72.5 -26t-12.5 -67l-1 -1q-37 22 -37 57q0 30 31 46.5t76 16.5q63 0 178 -22.5t161 -22.5q68 0 108 31.5t40 87.5q0 45 -36 75.5
t-99 19.5v2q71 35 129 3t58 -104q0 -42 -21.5 -80.5t-64.5 -61.5z" />
    <glyph glyph-name="three" unicode="3" horiz-adv-x="664" 
d="M160 317h-1q-62 151 -35 248h2q-2 -48 15 -89q25 117 89.5 191.5t161.5 74.5q72 0 112.5 -44.5t40.5 -108.5q0 -50 -28 -93.5t-66 -73l-111.5 -87t-129.5 -110.5l-1 2q44 54 102.5 113.5l90.5 91t56 72t24 80.5q0 48 -27 74.5t-69 26.5q-63 0 -112.5 -56t-76.5 -136.5
t-37 -175.5zM401 318q27 7 64.5 1t71.5 -18t58 -44.5t24 -79.5q0 -84 -73.5 -135.5t-187.5 -51.5q-85 0 -154.5 24.5t-108.5 64.5q-13 111 -65 162q29 -17 61.5 -58t53.5 -86q-10 42 -2 92q17 -69 73 -108t141 -39q92 0 148 36.5t56 98.5q0 49 -37 77t-105 28
q-97 0 -201 -68l-1 3q68 64 150 120t144 87v-3q-80 -58 -110 -103z" />
    <glyph glyph-name="four" unicode="4" horiz-adv-x="626" 
d="M418 310q0 -36 43 -60q-159 1 -325 -56q1 38 37 81.5t87 84l102 82t87 90t36 94.5q0 48 -34 76t-79 36l-1 -1q47 -35 57 -81.5t-9 -86t-54 -68.5q42 104 1.5 183t-147.5 102q111 -58 111 -181q0 -66 -34 -129.5t-82 -112.5t-96.5 -92.5t-82.5 -85t-35 -75.5h2
q26 25 109.5 54t221 48.5t298.5 -3.5l1 2q-74 26 -117 54t-43 67q0 42 63 65l-1 1q-52 -8 -84 -31t-32 -57zM646 128q-28 22 -96.5 44t-134.5 22q-70 0 -112 -22.5t-56 -55.5l2 -1q23 25 57 25q46 0 46 -32q0 -22 -21.5 -38t-56.5 -16q-33 0 -56 19t-32 49q-7 -40 16.5 -72
t73.5 -32q28 0 55 12t34 27q-4 -30 25.5 -56t69.5 -30q-57 33 -57 106t-42 83q72 12 150.5 1t133.5 -34z" />
    <glyph glyph-name="five" unicode="5" horiz-adv-x="652" 
d="M123 491q-56 0 -69 79q23 -38 68 -38q29 0 49.5 23.5t20.5 60.5q0 20 -10 32.5t-27 12.5q-19 0 -32.5 -14t-13.5 -34q-16 11 -16 32q0 32 26.5 53.5t72.5 21.5q45 0 136.5 -29t140.5 -29t86 24t45 80h1q14 -86 -26.5 -125t-104.5 -39q-57 0 -126.5 39.5t-130.5 39.5
q29 -21 29 -62q0 -35 -39.5 -99t-39.5 -103q0 -48 38 -48q24 0 62.5 18.5t118.5 65.5l121 70l2 -4q-108 -63 -204.5 -131.5t-122.5 -101.5q-99 66 -2 227q-22 -22 -53 -22zM376 378q87 15 161.5 -32t74.5 -146q0 -96 -77.5 -153t-181.5 -57q-80 0 -152.5 25t-110.5 64
q3 87 -45 192q63 -88 94 -167q-1 39 9 75q16 -62 69.5 -99.5t134.5 -37.5q84 0 143 42t59 116q0 59 -44 100.5t-126 41.5q-103 0 -184 -64l-1 3q127 118 297 203l1 -2q-85 -51 -121 -104z" />
    <glyph glyph-name="six" unicode="6" horiz-adv-x="641" 
d="M345 660q-59 0 -113 -33.5t-90 -93.5h-1q16 65 59 105.5t119 64.5q78 25 106 39t45 43q1 -28 -21 -51.5t-58 -35.5q71 1 115 -33t55 -96q36 51 67 146h2q-8 -67 -29 -122.5t-52.5 -95t-56.5 -62.5t-58 -47l-1 1q66 79 66 137q0 61 -40.5 97.5t-113.5 36.5zM377 365
q72 0 126.5 -47t54.5 -130q0 -86 -68.5 -142t-170.5 -56q-63 0 -113.5 28.5t-81.5 75.5t-47.5 105t-16.5 120q0 67 30 163.5t41 157.5l2 -1q0 -42 -1.5 -66t-10 -66t-26.5 -84q18 42 38 69t61 66l2 -1q-79 -91 -79 -233q0 -121 54 -202.5t134 -81.5q33 0 54.5 14t21.5 39
q0 36 -36 42v1q37 9 59 -5t20.5 -37t-15.5 -43q40 13 69.5 48t29.5 85q0 63 -40.5 100.5t-98.5 37.5q-71 0 -111.5 -37t-40.5 -88q0 -60 42 -105h-2q-26 14 -45 48t-19 68q0 64 46 110.5t138 46.5z" />
    <glyph glyph-name="seven" unicode="7" horiz-adv-x="592" 
d="M637 756q-24 -22 -83.5 -49t-138 -47t-155 -24.5t-140.5 24.5t-89 94h-1q0 -39 0.5 -62t6.5 -66.5t16.5 -77t32.5 -76.5t54 -81l4 3q-43 67 -55 113.5t7 69.5t66 23q206 0 348 49q-41 -80 -98 -224q-90 -226 -166.5 -319t-205.5 -133l1 -3q76 8 136.5 40t112 92.5t93 135
t90.5 187.5l27.5 63.5l26.5 62l23.5 52.5t24 50t22 39t23.5 35.5t22 24.5zM266 188q14 22 14 64q0 19 -12 35t-40 16q-41 0 -61 -37.5t9 -99.5l-2 -2q-27 32 -35 72t7.5 82.5t54.5 72.5l2 -1q-24 -25 -20.5 -39t15.5 -19.5t29 -5.5q34 0 81.5 23.5t74.5 71.5l2 -1
q-34 -114 -117 -233z" />
    <glyph glyph-name="eight" unicode="8" horiz-adv-x="619" 
d="M385 340q-62 4 -125 29t-110.5 74t-47.5 110q0 74 63 123t163 49q80 0 135.5 -47.5t55.5 -116.5q0 -36 -15.5 -66t-36 -48l-39.5 -34.5t-28.5 -33t-0.5 -35.5h-1q-21 20 -12.5 46.5t38.5 48.5q-44 -24 -86 -16t-68 43l1 1q39 -26 82 -26q47 0 82.5 34.5t35.5 83.5
q0 54 -40.5 88t-102.5 34q-49 0 -75.5 -23t-26.5 -57q0 -43 46 -63t101 7l1 -2q-31 -25 -72 -25.5t-69 19t-39 52.5t18 76q-26 -17 -40.5 -47.5t-14.5 -64.5q0 -76 62 -133.5t166 -76.5v-3zM435 315q57 -7 90.5 -44t33.5 -88q0 -88 -73 -140.5t-189 -52.5q-108 0 -172.5 55
t-64.5 128q0 36 17.5 66.5t41.5 50t47 35.5t35.5 31t6.5 29l1 1q15 -24 23 -45t7 -68.5t-24 -104.5l-2 1q31 122 -30 122q-30 0 -53.5 -28.5t-23.5 -72.5q0 -51 35 -89t92 -38q51 0 86.5 28t32.5 69q16 -19 16 -41q0 -36 -29 -62.5t-72 -33.5q114 -2 174.5 43.5t60.5 109.5
q0 46 -26 72.5t-65 26.5q-37 0 -63 -19.5t-36 -46.5h-1q3 59 61.5 98.5t114.5 39.5q35 0 60 -10l-1 -2q-59 15 -111 -20z" />
    <glyph glyph-name="nine" unicode="9" horiz-adv-x="598" 
d="M281 264q-38 0 -72.5 10t-69.5 38t-61 71.5t-44.5 115.5t-23.5 166h2q9 -58 20 -93t34 -83q-7 80 31 136.5t105 68.5q-38 12 -62.5 37.5t-23.5 53.5q18 -29 48 -43t112 -39q97 -29 141.5 -64.5t58.5 -105.5h-1q-37 59 -97 93t-118 34q-72 0 -109 -47.5t-37 -127.5
q0 -73 47 -126t120 -53q87 0 134.5 53.5t39.5 100.5l2 1q18 -79 -31.5 -138t-144.5 -59zM486 640q9 -73 35.5 -162.5t26.5 -156.5q0 -148 -78 -239.5t-198 -91.5q-53 0 -110.5 17.5t-75.5 39.5q17 64 80 177l5 -4q-37 -76 -5 -142t107 -66q97 0 157.5 84.5t60.5 236.5
q0 128 -73 224l2 1q39 -35 56 -60t37 -70q-9 21 -15 42.5t-9 35.5t-4.5 37.5t-1.5 31t0.5 34.5t0.5 30z" />
    <glyph glyph-name="colon" unicode=":" horiz-adv-x="282" 
d="M140 326q-60 17 -60 70q0 21 14.5 35.5t35.5 14.5q24 0 40 -18.5t10 -51.5q-12 12 -27.5 8.5t-20 -18.5t7.5 -40zM140 36q-60 17 -60 70q0 21 14.5 35.5t35.5 14.5q24 0 40 -18.5t10 -51.5q-12 12 -27.5 8.5t-20 -18.5t7.5 -40z" />
    <glyph glyph-name="semicolon" unicode=";" horiz-adv-x="360" 
d="M100 196q-60 17 -60 70q0 21 14.5 35.5t35.5 14.5q24 0 40 -18.5t10 -51.5q-12 12 -27.5 8.5t-20 -18.5t7.5 -40zM63 125l-1 -1q69 -125 69 -195q0 -35 -15.5 -50.5t-37.5 -15.5q-31 0 -54 34l-2 -1q1 -36 19 -58t50 -22q38 0 65.5 22.5t27.5 66.5q0 16 -6.5 39
t-13.5 38.5t-17.5 36.5t-10.5 22q-8 15 -5 24t21 9q23 0 55 -15l1 3q-56 47 -145 63z" />
    <glyph glyph-name="equal" unicode="=" horiz-adv-x="628" 
d="M133 379q0 36 50 54t128 18q126 0 126 -36q0 -18 -18 -30q31 0 50 11.5t19 30.5q0 38 -63 51q29 20 26 46.5t-31 43.5q9 -41 -24 -58.5t-119 -16.5q-88 2 -132.5 -18t-44.5 -55q0 -27 33 -41zM454 298q0 -36 -50 -54t-128 -18q-126 0 -126 36q0 18 18 30q-31 0 -50 -11.5
t-19 -30.5q0 -38 63 -51q-29 -20 -26 -46.5t31 -43.5q-9 41 24 58.5t119 16.5q88 -2 132.5 18t44.5 55q0 27 -33 41z" />
    <glyph glyph-name="question" unicode="?" horiz-adv-x="393" 
d="M179 775v-2q-35 -18 -57 -47t-23 -61q8 17 31 34.5t59 17.5q65 0 109.5 -47t44.5 -132q0 -52 -17.5 -108.5t-33 -86t-42.5 -74.5q-17 -28 3 -41q27 -17 85 24l1 -1q-30 -35 -91 -59t-115 -34v1q161 179 161 344q0 72 -32.5 112t-77.5 40q-38 0 -61 -26t-23 -70
q0 -51 23 -88.5t42 -46.5v-2q-42 9 -78.5 63t-36.5 120q0 116 129 170zM225 -14q-60 17 -60 70q0 21 14.5 35.5t35.5 14.5q24 0 40 -18.5t10 -51.5q-12 12 -27.5 8.5t-20 -18.5t7.5 -40z" />
    <glyph glyph-name="at" unicode="@" horiz-adv-x="1271" 
d="M860 281q0 -30 3.5 -64t12 -75.5t27.5 -68.5t46 -27q55 0 85.5 76t30.5 189q0 87 -26.5 159.5t-70.5 120t-101 80t-116 47t-119 14.5q-131 0 -235 -63.5t-159.5 -166.5t-55.5 -223q0 -189 121 -313t302 -124q91 0 150.5 21t137.5 73q-114 -131 -304 -131q-99 0 -180 29.5
t-133.5 77t-88.5 110t-51.5 126.5t-15.5 128q0 137 63 252t180 184t264 69q85 0 160.5 -22.5t162.5 -79.5q-51 77 -145 128l1 2q54 -19 107.5 -60.5t98.5 -99.5t72.5 -137.5t27.5 -164.5q0 -41 -6.5 -82.5t-14 -68.5l-13.5 -50t-5.5 -36.5t10.5 -19.5q19 -11 44.5 8.5
t48.5 65.5t33 104h2q-4 -76 -30 -133.5t-64.5 -87t-74.5 -43.5t-69 -14q-52 0 -80.5 40.5t-35.5 100.5q1 -50 -33.5 -95t-78.5 -49l-1 2q44 16 57 84t-9 122q-27 -64 -88 -107t-130 -43q-85 0 -142 51.5t-74 122t-6 144t49 117.5l2 -1q-31 -54 -30 -109q0 -27 12 -24
q7 1 16 14q20 28 36 46.5t42 42t57.5 36t66.5 12.5q58 0 92 -35t34 -86q0 -50 -21.5 -89t-64.5 -83l-2 2q48 94 31 169.5t-97 75.5q-74 0 -120 -57t-46 -135q0 -38 15 -73.5t53.5 -63t93.5 -27.5q95 0 163 64t68 141q0 31 -12 64.5t-23 53.5t-13.5 50.5t16.5 55.5
q-9 -41 11 -78.5t53 -37.5q14 0 29.5 6.5t25 14l21 17t13.5 11.5l1 -1q-64 -64 -64 -175z" />
    <glyph glyph-name="A" unicode="A" horiz-adv-x="633" 
d="M606 168q37 -62 24.5 -118t-67.5 -56q-63 0 -90 74q-28 -65 -96 -74q16 8 27.5 17.5t18.5 22.5l11.5 21.5t6.5 26.5t2.5 24t0 26.5t-0.5 23.5q0 32 -4 136t-4 197q0 105 6 132q-107 0 -192 -52q-78 -48 -68 -103q7 -36 55 -66l-1 -2q-36 11 -58 33.5t-23.5 51.5t13 58
t54 56.5t97.5 43.5q24 7 54 14.5l45.5 11.5t30.5 9.5t22 12.5q48 45 103 59l1 -2q-42 -28 -65 -83t-23 -169q0 -225 20 -336t66 -111q27 0 38 30.5t-5 89.5zM420 305l4 -1q-16 -141 -88 -227.5t-159 -86.5q-65 0 -104.5 45t-39.5 108q0 141 235 255q90 44 116 71.5t26 84.5
h3q5 -92 -3 -155t-36 -138h-2q9 38 10 66t-9 49.5t-36.5 20.5t-71.5 -21q-88 -44 -131 -103.5t-43 -116.5q0 -48 26.5 -82t71.5 -34q69 0 139.5 73.5t91.5 191.5z" />
    <glyph glyph-name="B" unicode="B" horiz-adv-x="729" 
d="M108 455q-31 0 -49.5 18.5t-18.5 45.5q0 34 24.5 56t60.5 22q29 0 54 -16.5t35 -38.5q0 88 -91 127q96 -10 117 -88q0 44 -15.5 84t-38 66t-42 41.5t-34.5 22.5q18 -4 37.5 -10.5t49 -24.5t51 -42t35.5 -66t11 -93q-37 -30 -39.5 -100t14.5 -160q-36 7 -68 -5q5 53 5 133
q0 68 -22 100t-56 32q-23 0 -35.5 -11.5t-12.5 -28.5t11.5 -28.5t28.5 -11.5q26 0 43 20q0 -17 -15.5 -30.5t-39.5 -13.5zM476 377q91 0 157 -54t66 -144q0 -86 -59.5 -137.5t-140.5 -51.5q-85 0 -140 56.5t-96 159.5q23 -82 -14 -129.5t-92 -47.5q-44 0 -73 28t-36 65
q43 -48 100 -48q40 0 59 26t19 60q0 29 -10.5 47.5t-28.5 18.5t-31 -18.5t-13 -42.5q-21 43 3.5 77t63.5 34q28 0 43 -16t34 -55t37 -64q74 -101 167 -101q62 0 104 38t42 105q0 78 -51 123.5t-116 45.5q-30 0 -50 -9q-8 -3 -16 -8q-31 -21 -31 -58q0 -24 18 -47.5t51 -37.5
v-2q-51 11 -86 40t-50.5 69t-21 80.5t-1.5 85.5h1q12 -112 78 -112t129 72.5t63 158.5q0 47 -22.5 73.5t-62.5 26.5q-52 0 -93 -38.5t-55 -114.5h-1q-2 55 12 96.5t39 63t51.5 32t54.5 10.5q59 0 99 -37.5t40 -103.5q0 -123 -140 -215z" />
    <glyph glyph-name="C" unicode="C" horiz-adv-x="684" 
d="M378 703q78 25 106 39t45 43q1 -28 -21 -51.5t-58 -35.5q71 1 115 -33t55 -96q41 57 67 146h2q-7 -62 -25 -115.5t-37.5 -88t-49.5 -67t-49.5 -48.5t-49.5 -38l-1 1q81 88 81 167q0 62 -40.5 98t-104.5 36q-55 0 -107.5 -26t-84.5 -71h-1q12 59 44.5 86.5t113.5 53.5z
M103 758q40 -22 69.5 -79t31.5 -145q36 11 51 44h1q-5 -28 -22 -50t-36 -38t-38 -35.5t-31.5 -54.5t-12.5 -83q0 -55 24.5 -119t77.5 -113q-41 58 -46 132t35 169q-12 -100 0.5 -172.5t43 -109t66 -52.5t77.5 -16q83 0 152.5 53.5t97.5 141.5h2q-5 -104 -84.5 -172.5
t-182.5 -68.5q-147 0 -236 101t-82 268q53 73 74.5 151t12 141t-44.5 107z" />
    <glyph glyph-name="D" unicode="D" horiz-adv-x="784" 
d="M163 499q0 -17 -15.5 -30.5t-39.5 -13.5q-31 0 -49.5 18.5t-18.5 45.5q0 34 24.5 56t60.5 22q29 0 54 -16.5t35 -38.5q0 88 -91 127q96 -10 117 -88q0 44 -15.5 84t-38 66t-42 41.5t-34.5 22.5q18 -4 37.5 -10.5t49 -24.5t51 -42t35.5 -66t11 -93q-37 -32 -39.5 -107.5
t14.5 -172.5q-36 7 -68 -5q5 75 5 153q0 68 -22 100t-56 32q-21 0 -34.5 -11.5t-13.5 -28.5t11.5 -28.5t28.5 -11.5q26 0 43 20zM287 734q197 -75 322 -207.5t125 -291.5q0 -123 -64 -184t-153 -61q-80 0 -133.5 49.5t-107.5 147.5q20 -81 -17.5 -129.5t-91.5 -48.5
q-44 0 -73 28t-36 65q43 -48 100 -48q40 0 59 26t19 60q0 66 -39 66q-18 0 -31 -18.5t-13 -42.5q-22 44 -0.5 77.5t62.5 33.5q23 0 43 -12t28 -21.5t28 -40.5l24 -37q68 -99 171 -99q67 0 117 49.5t50 139.5q0 76 -28.5 149.5t-69.5 123t-85 80t-77 30.5q-15 0 -24 -6
t-16.5 -23.5t-12.5 -36.5t-17 -58t-26 -76l-3 -8l-4 1l2 10q48 238 -44 314l-6 5l1 2z" />
    <glyph glyph-name="E" unicode="E" horiz-adv-x="693" 
d="M399 528q-37 0 -61 20t-24 53q0 40 31.5 61.5t95.5 41.5q72 21 103 39.5t38 46.5h1q3 -53 -41 -88q53 -10 85.5 -38.5t32.5 -71.5q0 -41 -30 -66t-78 -33v1q60 33 60 84q0 44 -35.5 65.5t-88.5 21.5q-55 0 -87 -16.5t-32 -42.5q0 -31 31.5 -43.5t66.5 -4.5
q-20 -30 -68 -30zM108 435q-31 0 -49.5 18.5t-18.5 45.5q0 34 24.5 56t60.5 22q29 0 54 -16.5t35 -38.5q0 88 -91 127q96 -10 117 -88q0 44 -15.5 84t-38 66t-42 41.5t-34.5 22.5q18 -4 37.5 -10.5t49 -24.5t51 -42t35.5 -66t11 -93q-16 -14 -25 -36t-12.5 -42t-1.5 -58
t4.5 -61.5t9.5 -74.5q-36 7 -68 -5q5 53 5 145q0 68 -22 100t-56 32q-21 0 -34.5 -11.5t-13.5 -28.5t11.5 -28.5t28.5 -11.5q26 0 43 20q0 -17 -15.5 -30.5t-39.5 -13.5zM300 282q-12 12 -13.5 25.5t16.5 29.5t52 28q38 13 62 34.5t26 41.5q8 -10 4 -33.5t-23 -37.5
q57 1 98 -19.5t41 -60.5q0 -27 -21.5 -39.5t-51.5 -6.5v1q31 10 31 36q0 25 -30 37t-74 12q-42 0 -76.5 -12t-40.5 -36zM267 140q0 -51 -40 -90t-96 -39q-42 0 -62.5 28.5t-10.5 70.5q19 -55 69 -55q36 0 62.5 22.5t26.5 58.5q0 20 -10 33.5t-28 13.5q-19 0 -32.5 -14
t-17.5 -34q-6 8 -6 21q0 34 30.5 60t85.5 26q37 0 69 -15.5t42 -41.5q-53 30 -105 20q23 -21 23 -65zM587 37q55 -19 86 -72h-2q-33 33 -100.5 41t-203.5 8q-106 0 -165 -14v3l12 4t19.5 8.5t23 15t23 22.5t18 32t8.5 42.5t-4 54.5q26 -31 28.5 -71.5t-16.5 -70.5
q287 -10 287 77q0 28 -27 46q73 -6 73 -55q0 -25 -17 -44.5t-43 -26.5z" />
    <glyph glyph-name="F" unicode="F" horiz-adv-x="631" 
d="M544 702q59 -8 93 -36.5t34 -73.5q0 -44 -30.5 -69.5t-77.5 -29.5v1q60 35 60 88q0 41 -38.5 62t-95.5 21q-59 0 -89 -16t-30 -43q0 -31 31.5 -43.5t66.5 -4.5q-20 -30 -68 -30q-37 0 -61 20t-24 53q0 40 32 62.5t95 40.5q72 21 103 39.5t38 46.5h1q2 -52 -40 -88z
M108 435q-31 0 -49.5 18.5t-18.5 45.5q0 34 24.5 56t60.5 22q29 0 54 -16.5t35 -38.5q0 88 -91 127q96 -10 117 -88q0 44 -15.5 84t-38 66t-42 41.5t-34.5 22.5q18 -4 37.5 -10.5t49 -24.5t51 -42t35.5 -66t11 -93q-37 -28 -39.5 -94t14.5 -151q-36 7 -68 -5q5 53 5 118
q0 68 -22 100t-56 32q-21 0 -34.5 -11.5t-13.5 -28.5t11.5 -28.5t28.5 -11.5q26 0 43 20q0 -17 -15.5 -30.5t-39.5 -13.5zM438 370q50 -1 85 -21t35 -59q0 -24 -21 -37.5t-52 -8.5v1q33 11 33 36q0 49 -93 49q-89 0 -104 -48q-24 20 -10.5 46t62.5 42q36 12 58 31.5t24 39.5
q9 -10 6.5 -33.5t-23.5 -37.5zM358 207q-22 21 -52.5 30t-54.5 7q10 -5 17.5 -22t7.5 -37q0 -16 -6 -46t-6 -57q0 -55 43 -106q-87 30 -87 116q-8 -21 -31 -32.5t-45 -11.5q-82 0 -96 79q35 -38 88 -38q37 0 63.5 23.5t26.5 58.5q0 20 -11 35t-29 15t-30.5 -15t-12.5 -36
q-22 44 6.5 77.5t80.5 33.5q40 0 75 -19t53 -55z" />
    <glyph glyph-name="G" unicode="G" horiz-adv-x="786" 
d="M403 660q-55 0 -107.5 -26t-84.5 -71h-1q12 59 44.5 86.5t113.5 53.5q78 25 106 39t45 43q1 -28 -21 -51.5t-58 -35.5q71 1 115 -33t55 -96q41 57 67 146h2q-7 -62 -25 -115.5t-37.5 -88t-49.5 -67t-49.5 -48.5t-49.5 -38l-1 1q81 88 81 167q0 62 -40.5 98t-104.5 36z
M636 231q-5 -104 -84.5 -172.5t-182.5 -68.5q-147 0 -236 101t-82 268q53 73 74.5 151t12 141t-44.5 107q40 -22 69.5 -79t31.5 -145q36 11 51 44h1q-5 -28 -22 -50t-36 -38t-38 -35.5t-31.5 -54.5t-12.5 -83q0 -55 24.5 -119t77.5 -113q-41 58 -46 132t35 169
q-12 -100 0.5 -172.5t43 -109t66 -52.5t77.5 -16q83 0 152.5 53.5t97.5 141.5h2zM588 324q85 0 139.5 -58.5t54.5 -152.5q0 -132 -96 -234.5t-222 -138.5l-1 2q37 16 73 54.5t36 93.5q0 32 -19.5 51t-53.5 19q-45 0 -74 -27t-29 -65q0 -26 12 -41t32 -15q36 0 50 39
q10 -32 -8.5 -54t-50.5 -22q-29 0 -49 18t-26 43q-29 -12 -44.5 5t-7.5 46q6 -19 21.5 -24t24.5 6q0 55 43 93t108 38q52 0 81.5 -27.5t29.5 -70.5q0 -38 -21 -69q49 35 93.5 108t44.5 158q0 80 -35.5 123t-95.5 43q-108 0 -162 -133h-5q6 27 22.5 61.5t46 78.5t82 86.5
t117.5 69.5l1 -2q-39 -22 -71 -52.5t-41 -49.5z" />
    <glyph glyph-name="H" unicode="H" horiz-adv-x="919" 
d="M108 435q-31 0 -49.5 18.5t-18.5 45.5q0 34 24.5 56t60.5 22q29 0 54 -16.5t35 -38.5q0 88 -91 127q96 -10 117 -88q0 44 -15.5 84t-38 66t-42 41.5t-34.5 22.5q18 -4 37.5 -10.5t49 -24.5t51 -42t35.5 -66t11 -93q-37 -28 -39.5 -94t14.5 -151q-36 7 -68 -5q5 53 5 118
q0 68 -22 100t-56 32q-21 0 -34.5 -11.5t-13.5 -28.5t11.5 -28.5t28.5 -11.5q26 0 43 20q0 -17 -15.5 -30.5t-39.5 -13.5zM650 294q17 85 14.5 151t-39.5 94q-3 51 11 93t35.5 66t51 42t49 24.5t37.5 10.5q-15 -7 -34.5 -22.5t-42 -41.5t-38 -66t-15.5 -84q21 78 117 88
q-91 -39 -91 -127q10 22 35 38.5t54 16.5q36 0 60.5 -22t24.5 -56q0 -27 -18.5 -45.5t-49.5 -18.5q-24 0 -39.5 13.5t-15.5 30.5q17 -20 43 -20q17 0 28.5 11.5t11.5 28.5t-13.5 28.5t-34.5 11.5q-34 0 -56 -32t-22 -100q0 -65 5 -118q-32 12 -68 5zM577 287q0 39 -58 39
q-55 0 -99.5 -23.5t-43.5 -53.5q-13 12 -14 30.5t7 29.5q-44 -2 -61 -35q-10 40 21.5 58.5t129.5 26.5l25 2q92 7 92 37q0 11 -12 11v1q14 2 25.5 -5.5t11.5 -22.5q0 -24 -31 -36q42 -14 42 -48q0 -20 -15.5 -32t-33.5 -11q14 16 14 32zM358 207q-22 21 -52.5 30t-54.5 7
q10 -5 17.5 -22t7.5 -37q0 -16 -6 -46t-6 -57q0 -55 43 -106q-87 30 -87 116q-8 -21 -31 -32.5t-45 -11.5q-82 0 -96 79q35 -38 88 -38q37 0 63.5 23.5t26.5 58.5q0 20 -11 35t-29 15t-30.5 -15t-12.5 -36q-22 44 6.5 77.5t80.5 33.5q40 0 75 -19t53 -55zM783 89q53 0 88 38
q-14 -79 -96 -79q-22 0 -45 11.5t-31 32.5q0 -86 -87 -116q43 51 43 106q0 27 -6 57t-6 46q0 20 7.5 37t17.5 22q-24 2 -54.5 -7t-52.5 -30q18 36 53 55t75 19q52 0 80.5 -33.5t6.5 -77.5q0 21 -12.5 36t-30.5 15t-29 -15t-11 -35q0 -35 26.5 -58.5t63.5 -23.5z" />
    <glyph glyph-name="I" unicode="I" horiz-adv-x="438" 
d="M309 294q-36 7 -68 -5q5 53 5 118q0 68 -22 100t-56 32q-21 0 -34.5 -11.5t-13.5 -28.5t11.5 -28.5t28.5 -11.5q26 0 43 20q0 -17 -15.5 -30.5t-39.5 -13.5q-31 0 -49.5 18.5t-18.5 45.5q0 34 24.5 56t60.5 22q29 0 54 -16.5t35 -38.5q0 88 -91 127q96 -10 117 -88
q0 44 -15.5 84t-38 66t-42 41.5t-34.5 22.5q18 -4 37.5 -10.5t49 -24.5t51 -42t35.5 -66t11 -93q-37 -28 -39.5 -94t14.5 -151zM270 281q40 0 75 -19t53 -55q-22 21 -52.5 30t-54.5 7q10 -5 17.5 -22t7.5 -37q0 -16 -6 -46t-6 -57q0 -55 43 -106q-87 30 -87 116
q-8 -21 -31 -32.5t-45 -11.5q-82 0 -96 79q35 -38 88 -38q37 0 63.5 23.5t26.5 58.5q0 20 -11 35t-29 15t-30.5 -15t-12.5 -36q-22 44 6.5 77.5t80.5 33.5z" />
    <glyph glyph-name="J" unicode="J" horiz-adv-x="476" 
d="M106 449q-30 0 -47.5 20t-17.5 47q0 41 37.5 69t106.5 28q47 0 86 -22t58 -61q-2 55 -33.5 88.5t-58.5 40.5q31 0 70 -25t47 -63q2 31 -6 60.5t-20.5 50.5t-30.5 41t-31 30.5t-28 20.5l-14 11q191 -64 184 -236q-23 -25 -30.5 -47.5t-7.5 -64.5q0 -73 13 -183
q-29 6 -58 0q43 319 -140 319q-41 0 -66.5 -18t-25.5 -44q0 -17 9.5 -26.5t23.5 -9.5q18 0 26 8q-2 -34 -46 -34zM341 241q41 0 64.5 -23.5t19.5 -51.5q-20 39 -55 36q-9 -74 30 -97q-24 -49 -83 -82t-129 -33q-88 0 -131.5 42.5t-43.5 103.5q0 86 91 133q-44 -47 -44 -121
q0 -56 38 -91.5t99 -35.5q85 0 129 55q-23 -14 -61 -14q-63 0 -87 40t-8 96q5 -43 31 -71.5t65 -28.5q34 0 55.5 16.5t21.5 46.5q0 20 -9 31t-22 11q-21 0 -31 -24q-8 26 10.5 44t49.5 18z" />
    <glyph glyph-name="K" unicode="K" horiz-adv-x="759" 
d="M108 445q-31 0 -49.5 18.5t-18.5 45.5q0 34 24.5 56t60.5 22q29 0 54 -16.5t35 -38.5q0 88 -91 127q96 -10 117 -88q0 44 -15.5 84t-38 66t-42 41.5t-34.5 22.5q18 -4 37.5 -10.5t49 -24.5t51 -42t35.5 -66t11 -93q-33 -23 -38.5 -70.5t7.5 -109.5q19 52 147 122
q69 38 106 71t37 74q0 37 -24.5 64.5t-67.5 34.5q68 7 109.5 -21t41.5 -80q0 -58 -47 -99h4q47 0 73.5 -31t0.5 -82q4 36 -19 51.5t-72 15.5q-53 0 -120.5 -24t-116 -62t-46.5 -74q-36 7 -68 -5q5 48 5 93q0 68 -22 100t-56 32q-21 0 -34.5 -11.5t-13.5 -28.5t11.5 -28.5
t28.5 -11.5q26 0 43 20q0 -17 -15.5 -30.5t-39.5 -13.5zM606 259q57 0 97.5 -33.5t40.5 -95.5t-41 -98t-103 -36q-48 0 -82 22q17 -39 70 -56q-125 0 -198 180q-3 -16 -27 -29q1 70 -33.5 122.5t-78.5 53.5q28 -37 28 -91q0 -23 -7.5 -56.5t-7.5 -64.5q0 -55 43 -106
q-96 26 -87 116q-8 -20 -34 -32t-49 -12q-75 0 -89 79q35 -38 79 -38t71.5 27t27.5 74q0 32 -12 51.5t-30 19.5q-17 0 -29 -15t-12 -36q-22 44 6.5 77.5t81.5 33.5q33 0 63.5 -18t48 -37t53 -64t53.5 -66q39 -44 73 -67.5t78 -23.5q43 0 69.5 24.5t26.5 65.5
q0 43 -26.5 65.5t-67.5 22.5t-74.5 -23.5t-47.5 -64.5q-5 51 32.5 90t93.5 39z" />
    <glyph glyph-name="L" unicode="L" horiz-adv-x="617" 
d="M108 455q-31 0 -49.5 18.5t-18.5 45.5q0 34 24.5 56t60.5 22q29 0 54 -16.5t35 -38.5q0 88 -91 127q96 -10 117 -88q0 44 -15.5 84t-38 66t-42 41.5t-34.5 22.5q18 -4 37.5 -10.5t49 -24.5t51 -42t35.5 -66t11 -93q-26 -32 -30 -107.5t5 -172.5q-36 7 -68 -5q5 53 5 153
q0 68 -22 100t-56 32q-21 0 -34.5 -11.5t-13.5 -28.5t11.5 -28.5t28.5 -11.5q26 0 43 20q0 -17 -15.5 -30.5t-39.5 -13.5zM479 272q56 0 97 -37t41 -99q0 -70 -44.5 -108t-108.5 -38q-30 0 -57 11.5t-45.5 27.5t-39 45t-32.5 51t-30 59q21 -77 -14.5 -126t-88.5 -49
q-45 0 -74 27t-35 66q42 -49 100 -49q41 0 59.5 24.5t18.5 62.5q0 66 -39 66q-20 0 -32 -18t-12 -43q-22 44 0 77.5t64 33.5q24 0 40.5 -15.5t35.5 -51t27 -46.5q39 -56 73 -82t83 -26q45 0 74.5 26t29.5 72q0 44 -26.5 68.5t-60.5 24.5q-31 0 -49 -17.5t-18 -48.5
q0 -23 14.5 -50.5t46.5 -49.5l-1 -2q-62 25 -105 82t-79 187l2 1q34 -83 85 -149q1 43 29.5 68t70.5 25z" />
    <glyph glyph-name="M" unicode="M" horiz-adv-x="908" 
d="M471 316q49 0 69 34q6 -40 -17 -62t-58 -22q-129 0 -188 257q-16 -22 -20 -60.5t-1 -70t13 -98.5q-36 7 -68 -5q5 53 5 118q0 68 -22 100t-56 32q-21 0 -34.5 -11.5t-13.5 -28.5t11.5 -28.5t28.5 -11.5q26 0 43 20q0 -17 -15.5 -30.5t-39.5 -13.5q-31 0 -49.5 18.5
t-18.5 45.5q0 34 24.5 56t60.5 22q29 0 54 -16.5t35 -38.5q0 88 -91 127q96 -10 117 -88q0 44 -15.5 84t-38 66t-42 41.5t-34.5 22.5q84 -18 126.5 -75t64.5 -145q13 -51 26.5 -88.5t33.5 -74.5t48 -56.5t62 -19.5zM465 345q-29 0 -41 20t-9 48q14 -26 48 -26q46 0 95 49
t55 126q0 2 0.5 8t0.5 8v1q3 42 20 76.5t38 54.5t47.5 35t44.5 21t34 9q-15 -7 -34.5 -22.5t-42 -41.5t-38 -66t-15.5 -84q21 78 117 88q-91 -39 -91 -127q10 22 35 38.5t54 16.5q36 0 60.5 -22t24.5 -56q0 -27 -18.5 -45.5t-49.5 -18.5q-24 0 -39.5 13.5t-15.5 30.5
q17 -20 43 -20q17 0 28.5 11.5t11.5 28.5t-13.5 28.5t-34.5 11.5q-34 0 -56 -32t-22 -100q0 -65 5 -118q-32 12 -68 5q9 62 12 92.5t1 68t-15 59.5q-26 -72 -74 -120.5t-98 -48.5zM358 207q-22 21 -52.5 30t-54.5 7q10 -5 17.5 -22t7.5 -37q0 -16 -6 -46t-6 -57
q0 -55 43 -106q-87 30 -87 116q-8 -21 -31 -32.5t-45 -11.5q-82 0 -96 79q35 -38 88 -38q37 0 63.5 23.5t26.5 58.5q0 20 -11 35t-29 15t-30.5 -15t-12.5 -36q-22 44 6.5 77.5t80.5 33.5q40 0 75 -19t53 -55zM772 89q53 0 88 38q-14 -79 -96 -79q-22 0 -45 11.5t-31 32.5
q0 -86 -87 -116q43 51 43 106q0 27 -6 57t-6 46q0 20 7.5 37t17.5 22q-24 2 -54.5 -7t-52.5 -30q18 36 53 55t75 19q52 0 80.5 -33.5t6.5 -77.5q0 21 -12.5 36t-30.5 15t-29 -15t-11 -35q0 -35 26.5 -58.5t63.5 -23.5z" />
    <glyph glyph-name="N" unicode="N" horiz-adv-x="876" 
d="M586 180q11 -36 -3.5 -56.5t-43.5 -20.5q-54 0 -115.5 75t-102.5 162.5t-58 154.5q-8 -22 -8 -58.5t2.5 -59.5t11.5 -83q-36 7 -68 -5q5 53 5 118q0 68 -22 100t-56 32q-21 0 -34.5 -11.5t-13.5 -28.5t11.5 -28.5t28.5 -11.5q26 0 43 20q0 -17 -15.5 -30.5t-39.5 -13.5
q-31 0 -49.5 18.5t-18.5 45.5q0 34 24.5 56t60.5 22q29 0 54 -16.5t35 -38.5q0 88 -91 127q96 -10 117 -88q0 44 -15.5 84t-38 66t-42 41.5t-34.5 22.5q16 -3 34 -9t44.5 -21t47.5 -35t38 -54.5t20 -76.5v-1q0 -2 0.5 -7t0.5 -7q5 -67 46 -164t99.5 -171.5t105.5 -74.5
q34 0 40 26zM607 294q17 85 14.5 151t-39.5 94q-3 51 11 93t35.5 66t51 42t49 24.5t37.5 10.5q-15 -7 -34.5 -22.5t-42 -41.5t-38 -66t-15.5 -84q21 78 117 88q-91 -39 -91 -127q10 22 35 38.5t54 16.5q36 0 60.5 -22t24.5 -56q0 -27 -18.5 -45.5t-49.5 -18.5
q-24 0 -39.5 13.5t-15.5 30.5q17 -20 43 -20q17 0 28.5 11.5t11.5 28.5t-13.5 28.5t-34.5 11.5q-34 0 -56 -32t-22 -100q0 -65 5 -118q-32 12 -68 5zM358 207q-22 21 -52.5 30t-54.5 7q10 -5 17.5 -22t7.5 -37q0 -16 -6 -46t-6 -57q0 -55 43 -106q-87 30 -87 116
q-8 -21 -31 -32.5t-45 -11.5q-82 0 -96 79q35 -38 88 -38q37 0 63.5 23.5t26.5 58.5q0 20 -11 35t-29 15t-30.5 -15t-12.5 -36q-22 44 6.5 77.5t80.5 33.5q40 0 75 -19t53 -55zM740 89q53 0 88 38q-14 -79 -96 -79q-22 0 -45 11.5t-31 32.5q0 -86 -87 -116q43 51 43 106
q0 27 -6 57t-6 46q0 20 7.5 37t17.5 22q-24 2 -54.5 -7t-52.5 -30q18 36 53 55t75 19q52 0 80.5 -33.5t6.5 -77.5q0 21 -12.5 36t-30.5 15t-29 -15t-11 -35q0 -35 26.5 -58.5t63.5 -23.5z" />
    <glyph glyph-name="O" unicode="O" horiz-adv-x="709" 
d="M644 463q0 112 -68.5 187t-183.5 75q-122 0 -227 -107q-16 -17 -23 -16q-20 4 -42 100h-1q16 -143 -49 -324q0 -75 19.5 -143t57 -123.5t101 -88.5t144.5 -33q97 0 166 48t99 126.5t20 174.5h-1q-6 -105 -51 -182t-96 -98q12 64 -27 135q7 -45 -0.5 -77.5t-26 -49.5
t-40.5 -24.5t-48 -7.5q-78 0 -133 54t-55 132q0 99 67 99q44 0 67 -41q-1 33 -20.5 54.5t-51.5 21.5q-53 0 -84 -54t-10 -138q-45 95 -45 192q0 78 31 149.5t99 121.5t160 50t153.5 -58.5t66.5 -152.5q-25 48 -75.5 74t-109.5 18q64 -7 109 -59t45 -126q0 -82 -47 -152
q110 83 110 243z" />
    <glyph glyph-name="P" unicode="P" horiz-adv-x="647" 
d="M269 294q-36 7 -68 -5q5 53 5 118q0 68 -22 100t-56 32q-21 0 -34.5 -11.5t-13.5 -28.5t11.5 -28.5t28.5 -11.5q26 0 43 20q0 -17 -15.5 -30.5t-39.5 -13.5q-31 0 -49.5 18.5t-18.5 45.5q0 34 24.5 56t60.5 22q29 0 54 -16.5t35 -38.5q0 88 -91 127q96 -10 117 -88
q0 44 -15.5 84t-38 66t-42 41.5t-34.5 22.5q18 -4 37.5 -10.5t49 -24.5t51 -42t35.5 -66t11 -93q-37 -28 -39.5 -94t14.5 -151zM304 424h1q12 -116 86 -116q59 0 129.5 77.5t70.5 172.5q0 55 -30 86t-77 31q-53 0 -100 -44t-61 -121h-2q-4 104 47.5 160t121.5 56
q69 0 115.5 -45t46.5 -114q0 -44 -18 -84.5t-52.5 -74.5t-59 -53t-62.5 -45q-43 -29 -58.5 -48.5t-5.5 -40.5q-101 32 -92 203zM230 281q40 0 75 -19t53 -55q-22 21 -52.5 30t-54.5 7q10 -5 17.5 -22t7.5 -37q0 -16 -6 -46t-6 -57q0 -55 43 -106q-87 30 -87 116
q-8 -21 -31 -32.5t-45 -11.5q-82 0 -96 79q35 -38 88 -38q37 0 63.5 23.5t26.5 58.5q0 20 -11 35t-29 15t-30.5 -15t-12.5 -36q-22 44 6.5 77.5t80.5 33.5z" />
    <glyph glyph-name="Q" unicode="Q" horiz-adv-x="704" 
d="M618 463q0 112 -67 187t-179 75q-122 0 -227 -107q-16 -17 -23 -16q-20 4 -42 100h-1q16 -141 -29 -324q0 -101 33 -187t106 -143.5t174 -57.5q65 0 117 23q-82 -54 -347 -106v-3q47 -42 133.5 -80.5t179.5 -38.5q55 0 113.5 21t103.5 63l1 2q-12 12 -31.5 28.5l-51 41.5
l-57.5 47l-4 -4q47 -40 48.5 -82t-35 -68t-92.5 -26q-70 0 -122 27t-76 65q81 23 142 49t115.5 63t87 82.5t46.5 107.5t3 137l-2 -1q-1 -104 -47 -180.5t-99 -98.5q12 64 -27 135q25 -159 -115 -159q-78 0 -133 54t-55 132q0 99 67 99q44 0 67 -41q-1 33 -20.5 54.5
t-51.5 21.5q-53 0 -84 -54t-10 -138q-35 95 -35 192q0 78 30 149.5t95.5 121.5t154.5 50q92 0 153.5 -58.5t66.5 -152.5q-25 48 -75.5 74t-109.5 18q63 -7 105.5 -56t42.5 -125q0 -86 -41 -156q104 84 104 243z" />
    <glyph glyph-name="R" unicode="R" horiz-adv-x="733" 
d="M108 435q-31 0 -49.5 18.5t-18.5 45.5q0 34 24.5 56t60.5 22q29 0 54 -16.5t35 -38.5q0 88 -91 127q96 -10 117 -88q0 44 -15.5 84t-38 66t-42 41.5t-34.5 22.5q18 -4 37.5 -10.5t49 -24.5t51 -42t35.5 -66t11 -93q-37 -28 -39.5 -94t14.5 -151q-36 7 -68 -5q5 53 5 118
q0 68 -22 100t-56 32q-21 0 -34.5 -11.5t-13.5 -28.5t11.5 -28.5t28.5 -11.5q26 0 43 20q0 -17 -15.5 -30.5t-39.5 -13.5zM608 -5q-76 0 -110 68q11 -51 39.5 -73t96.5 -20v-2q-26 -4 -46.5 -4t-36.5 2.5t-28.5 11.5t-21.5 17.5t-16 26.5t-11 33t-8 42.5t-6 49t-5 58.5
q-4 -28 -27 -64q4 83 -22.5 120t-84.5 15q-23 23 -32.5 83t1.5 106l2 -1q-3 -51 16.5 -81t62.5 -30q72 0 133 61.5t61 155.5q0 53 -26.5 83.5t-69.5 30.5q-62 0 -102 -60.5t-51 -158.5h-2q-1 147 45.5 207.5t117.5 60.5q63 0 105 -43.5t42 -115.5q0 -62 -31.5 -112.5
t-78 -79t-91.5 -44t-81 -16.5q63 -14 99 -48.5t63 -124.5q34 -110 99 -110q27 0 46 14.5t19 44.5q0 41 -27 74.5t-67 42.5v1q60 2 102 -30.5t42 -88.5q0 -52 -34 -77t-76 -25zM358 207q-22 21 -52.5 30t-54.5 7q10 -5 17.5 -22t7.5 -37q0 -16 -6 -46t-6 -57q0 -55 43 -106
q-87 30 -87 116q-8 -21 -31 -32.5t-45 -11.5q-82 0 -96 79q35 -38 88 -38q37 0 63.5 23.5t26.5 58.5q0 20 -11 35t-29 15t-30.5 -15t-12.5 -36q-22 44 6.5 77.5t80.5 33.5q40 0 75 -19t53 -55z" />
    <glyph glyph-name="S" unicode="S" horiz-adv-x="634" 
d="M327 306q-90 9 -162 70.5t-72 153.5q0 82 73 142t175 60q85 0 142 -54.5t43 -152.5q18 17 28 29.5t22.5 39t20.5 63.5h2q-12 -213 -212 -239v1q88 49 88 136q0 61 -36.5 100.5t-97.5 39.5q-47 0 -72.5 -22.5t-25.5 -56.5q0 -48 53 -79q-38 0 -66 22t-28 56q0 29 15 48
q-37 -19 -57 -54.5t-20 -78.5q0 -45 29 -95.5t84 -80.5q-19 23 -20 48t22 47t69 31q-39 -26 -45 -62.5t9.5 -64.5t38.5 -47zM422 331q58 8 99 -31t41 -109q0 -72 -76.5 -136.5t-194.5 -64.5q-89 0 -151 55.5t-62 136.5q0 27 -13 27q-15 0 -48 -28l-2 4q34 43 90 80t104 56
l1 -2q-80 -56 -80 -142q0 -57 34 -94.5t92 -37.5q53 0 86.5 34t37.5 85q25 -54 5 -94t-70 -58q95 8 145 59.5t50 114.5q0 43 -23.5 70.5t-53.5 27.5q-33 0 -56 -18.5t-31 -44.5q-22 68 36.5 115.5t142.5 36.5v-1q-68 -2 -103 -41z" />
    <glyph glyph-name="T" unicode="T" horiz-adv-x="780" 
d="M299 577q29 0 54 -16.5t35 -38.5q0 48 -26.5 79t-63.5 47q6 -15 -3 -37q-10 35 -51 43q13 -38 -7 -68q-1 38 -38 57.5t-93 19.5q-66 0 -66 -36q0 -18 15 -35q-55 13 -55 59q0 25 19.5 39t53.5 14q-23 24 -22 44t13 27q2 -45 53 -61q18 -6 78 -16q90 -15 103 -49
q95 -10 116 -88q0 44 -15.5 84t-38 66t-42 41.5t-34.5 22.5q18 -4 37.5 -10.5t49 -24.5t51 -42t35.5 -66t11 -93q-37 -28 -39.5 -94t14.5 -151q-36 7 -68 -5q5 53 5 118q0 68 -22 100t-56 32q-21 0 -34.5 -11.5t-13.5 -28.5t11.5 -28.5t28.5 -11.5q26 0 43 20
q0 -17 -15.5 -30.5t-39.5 -13.5q-31 0 -49.5 18.5t-18.5 45.5q0 34 24.5 56t60.5 22zM707 704q34 0 53.5 -14t19.5 -39q0 -46 -55 -59q15 17 15 35q0 35 -66 35q-50 0 -90 -20t-41 -56q-20 30 -7 68q-40 -8 -51 -43q-15 37 11.5 57t88.5 30q82 13 103 26q27 17 28 51
q12 -7 13 -27t-22 -44zM532 207q-22 21 -52.5 30t-54.5 7q10 -5 17.5 -22t7.5 -37q0 -16 -6 -46t-6 -57q0 -55 43 -106q-87 30 -87 116q-8 -21 -31 -32.5t-45 -11.5q-82 0 -96 79q35 -38 88 -38q37 0 63.5 23.5t26.5 58.5q0 20 -11 35t-29 15t-30.5 -15t-12.5 -36
q-22 44 6.5 77.5t80.5 33.5q40 0 75 -19t53 -55z" />
    <glyph glyph-name="U" unicode="U" horiz-adv-x="686" 
d="M447 280q17 91 14.5 159t-39.5 100q-3 51 11 93t35.5 66t51 42t49 24.5t37.5 10.5q-15 -7 -34.5 -22.5t-42 -41.5t-38 -66t-15.5 -84q21 78 117 88q-91 -39 -91 -127q9 23 34 39.5t55 16.5q35 0 59 -20t24 -55q0 -28 -20.5 -48t-45.5 -20q-24 0 -39.5 13.5t-15.5 30.5
q17 -20 43 -20q17 0 28.5 11.5t11.5 28.5t-13.5 28.5t-32.5 11.5q-35 0 -57.5 -31.5t-22.5 -100.5q0 -79 5 -129q-26 10 -68 2zM52 596q0 30 29.5 57t70.5 27q58 0 91.5 -44t33.5 -119q0 -164 -201 -402q0 -34 17 -56.5t46 -22.5q28 0 40 14q-23 1 -41 21t-14 52t41 59
q-19 -27 -9 -61t45 -34q36 0 95 57l28 27.5t28.5 27t26 21t31 19t33 10.5t41.5 5q93 0 131 -76q-59 39 -116 36q30 -22 30 -66q0 -12 -4.5 -35.5t-4.5 -45.5q0 -37 13.5 -70t26.5 -46q-31 7 -61 37t-25 72q-8 -16 -27 -24.5t-36 -8.5q-32 0 -48 21t-12 54q18 -38 56 -38
q30 0 51 24t21 58q0 26 -12 44t-33 18q-23 0 -51 -22.5t-56 -54.5l-57.5 -64t-65.5 -54.5t-71 -22.5q-41 0 -72.5 27.5t-40.5 72.5q87 96 139.5 211t52.5 211q0 55 -22.5 88.5t-60.5 33.5q-50 0 -77 -38z" />
    <glyph glyph-name="V" unicode="V" horiz-adv-x="630" 
d="M335 3q-15 47 11 99t73.5 102l97.5 102t86.5 115.5t36.5 125.5q0 37 -13 69t-39.5 57.5t-74 36.5t-109.5 2q32 62 104 99l-2 6q-78 -31 -192.5 -149.5t-173.5 -253.5l8 -3q50 105 132.5 174t163.5 69q59 0 93.5 -32t34.5 -87q0 -41 -17 -84.5t-43.5 -78.5l-57.5 -74
l-59 -72t-48.5 -72t-25.5 -74.5t9 -78.5zM-30 604v-6q63 5 79 -14.5t18 -83.5q4 -106 36.5 -213t94.5 -194t139 -115l1 2q-20 13 -33.5 39.5t-15.5 63t23.5 84.5t79.5 94l-2 3q-86 -55 -116 -102t-23 -94q-34 41 -65 96.5t-52.5 131.5t-20 148t45 146t130.5 126l5 3l-5 8
l-6 -4q-150 -102 -313 -119z" />
    <glyph glyph-name="W" unicode="W" horiz-adv-x="873" 
d="M599 727q134 0 199 -72.5t65 -176.5q0 -30 -5.5 -60.5t-12.5 -55t-21.5 -54.5t-24 -47t-28.5 -45t-26.5 -37.5l-27 -34.5t-20.5 -27q-36 -47 -45.5 -75.5t2.5 -54.5q-83 47 -102 135h3q18 -42 51 -42q29 0 66.5 40t94.5 136q-52 -54 -112 -54q-35 0 -54 17t-19 41
q0 41 56 63q-20 -26 -20 -49q0 -14 11.5 -23.5t29.5 -9.5q55 0 99.5 67t44.5 155q0 81 -38.5 131.5t-105.5 50.5q-51 0 -93 -29t-117 -104l-8 9q109 104 158 206zM461 394q9 -38 20.5 -92.5t18.5 -84t18 -69.5t22.5 -63.5t29 -51t41.5 -47t55 -36.5l-1 -4q-30 14 -53.5 28
l-43 26.5t-35.5 32l-28 34t-24 43t-19.5 48t-19 60.5t-18.5 69l-20 84l-5 21q-34 140 -76.5 206t-113.5 66q-69 0 -113.5 -45.5t-56.5 -103.5h-2q3 82 49.5 142t134.5 60q92 0 144.5 -72t90.5 -230zM317 280q43 0 74.5 -27.5t36.5 -77.5l-2 -2q-28 69 -99 69q-42 0 -69 -29
t-30 -74q29 31 69 23.5t58 -48.5q-36 27 -60.5 25t-37 -18t-12.5 -39q0 -50 48 -93l-1 -2q-112 14 -195 115t-83 223q0 100 64.5 180t172.5 121l1 -3q-98 -58 -138 -128t-40 -161q0 -72 33.5 -138.5t78.5 -103.5q-16 78 24 133t107 55z" />
    <glyph glyph-name="X" unicode="X" horiz-adv-x="828" 
d="M661 573q-18 0 -38.5 -16t-48 -55.5t-44 -66.5t-53 -91.5t-50.5 -87.5q-81 -138 -142.5 -202t-135.5 -64q-67 0 -103.5 46.5t-36.5 111.5q0 68 46 126t151 86l1 -2q-142 -68 -142 -196q0 -47 24.5 -81.5t73.5 -34.5q67 0 126 58.5t92.5 150.5t33.5 188q0 105 -41 167
t-107 62q-53 0 -83.5 -34.5t-30.5 -88.5q0 -41 20 -68.5t57 -27.5q16 0 35.5 9.5t28.5 21.5h1q-2 -35 -23 -54t-53 -19q-54 0 -86.5 41t-32.5 94q0 79 48.5 127.5t118.5 48.5q61 0 104.5 -39t62.5 -101.5t15.5 -142t-30.5 -157.5l8 13q76 127 146 264t84 194h2
q43 -50 58.5 -127.5t4 -154.5t-44.5 -134l-5 3q40 87 36 160t-47 73zM641 298q137 -39 137 -150q0 -73 -44.5 -115.5t-108.5 -42.5q-74 0 -112 58.5t-55 170.5q-34 -23 -85 -99l-2 1q14 32 34 69t32.5 58l38.5 63l32 52l5 -3q-29 -57 -29 -119q0 -83 37.5 -141.5
t103.5 -58.5q42 0 71.5 28t29.5 82q0 47 -23 85.5t-63 59.5z" />
    <glyph glyph-name="Y" unicode="Y" horiz-adv-x="704" 
d="M591 578q35 0 59 -20t24 -55q0 -28 -20.5 -48t-45.5 -20q-24 0 -39.5 13.5t-15.5 30.5q17 -20 43 -20q17 0 28.5 11.5t11.5 28.5t-13.5 28.5t-32.5 11.5q-35 0 -57.5 -31.5t-22.5 -100.5q0 -74 5 -126q-30 7 -68 0q17 90 14.5 158.5t-39.5 99.5q-3 51 11 93t35.5 66
t51 42t49 24.5t37.5 10.5q-15 -7 -34.5 -22.5t-42 -41.5t-38 -66t-15.5 -84q21 78 117 88q-91 -39 -91 -127q9 23 34 39.5t55 16.5zM616 186q-60 42 -106 38q42 -37 72.5 -100.5t30.5 -136.5q0 -99 -75.5 -165.5t-208.5 -79.5l-1 2q48 13 83.5 57t35.5 87q0 33 -20 53
t-58 20q-48 0 -78 -29t-30 -71q0 -26 11.5 -41.5t31.5 -15.5q37 0 55 39q7 -33 -11.5 -54t-49.5 -21q-30 0 -51 18.5t-26 40.5q-25 -11 -40.5 7t-10.5 45q6 -19 22.5 -24t25.5 6q0 57 46 98t109 41q57 0 87 -29.5t30 -72.5q0 -56 -43 -101q50 23 84.5 70t34.5 113
q0 73 -31 132q-14 -45 -44 -65t-60 -20q-33 0 -51 21t-14 54q0 -5 5 -13t20 -16.5t36 -8.5q29 0 50 22.5t21 60.5q0 28 -14.5 47t-38.5 19q-26 0 -55.5 -23t-57 -55.5l-57 -65.5t-65.5 -56t-72 -23q-41 0 -75 28t-43 71q93 99 145.5 205.5t52.5 203.5q0 71 -24.5 106.5
t-64.5 35.5q-50 0 -77 -38q0 32 26.5 58t73.5 26q63 0 98.5 -47.5t35.5 -135.5q0 -103 -58 -197.5t-172 -210.5q9 -25 33 -45t54 -20q24 0 36 10q-23 1 -40 21t-12.5 51.5t38.5 58.5q-19 -26 -10 -60t42 -34q47 0 105 66q53 60 85 83q50 34 101 34q89 0 128 -74z" />
    <glyph glyph-name="Z" unicode="Z" horiz-adv-x="716" 
d="M98 536q0 -39 25.5 -62.5t67.5 -23.5q34 0 56.5 21.5t16.5 56.5q-20 -35 -63 -35q-21 0 -33.5 13.5t-12.5 32.5q0 47 59 72t171 25q77 0 122 -8t63.5 -27.5t16 -46t-22.5 -67.5l2 -1q42 64 72.5 138.5t39.5 125.5h-2q-20 -54 -80 -70.5t-181 -16.5q-101 0 -167.5 19
t-80.5 54q-10 -37 9.5 -60t69.5 -27q-74 -9 -111 -39.5t-37 -73.5zM20 122q35 -38 88 -38q40 0 70 24t30 58q0 21 -11.5 35.5t-33.5 14.5q-21 0 -34.5 -15t-13.5 -36q-28 12 -28 37q0 30 35.5 48.5t135.5 42.5q174 41 273.5 126.5t144.5 261.5l4 -1q-22 -156 -118 -279
t-244 -171q-31 22 -70.5 24.5t-55.5 -8.5q15 -4 27 -16.5t29.5 -40.5t27.5 -42q23 -30 42.5 -50t58.5 -39t85 -19q83 0 143 57.5t87 157.5h4q-16 -131 -78.5 -197.5t-157.5 -66.5q-76 0 -133.5 35t-87.5 95q-3 -18 -3 -43q0 -36 9.5 -58.5t33.5 -47.5q-77 30 -77 126
q-8 -27 -36.5 -40.5t-55.5 -13.5q-76 0 -90 79z" />
    <glyph glyph-name="backslash" unicode="\" horiz-adv-x="492" 
d="M196 374q3 -17 8 -52t8.5 -56t10 -54.5t13 -54.5t18 -49t23.5 -46t30 -37t39 -29t49 -16t60 -5v2q-65 12 -102 46.5t-47 78.5q17 -35 48 -54.5t63 -19.5q58 0 75 70q-36 -30 -74.5 -25t-70.5 29t-52.5 66.5t-20.5 88.5q0 38 13.5 57.5t36.5 19.5t35 -19t10 -50h1
q20 41 12 69.5t-29.5 44.5t-51.5 15.5t-54 -19.5l-5 33q-13 89 -41 158.5t-60 110t-69.5 67.5t-66.5 36.5t-55 10.5v-2q27 -7 49.5 -19t53 -41.5t55 -72t48.5 -115.5t40 -167z" />
    <glyph glyph-name="underscore" unicode="_" horiz-adv-x="688" 
d="M128 -72q0 46 77 62t224 16q77 0 108 -8.5t31 -29.5q0 -20 -18 -34q22 0 38 13.5t16 38.5q0 22 -16 35.5t-46 13.5q24 15 25 41.5t-16 40.5q10 -75 -148 -75q-204 0 -273.5 -14.5t-69.5 -74.5q23 35 61 35q-10 -8 -10 -29t17 -31z" />
    <glyph glyph-name="grave" unicode="`" 
d="M435 581l-8 3q-36 13 -59.5 20t-45.5 10t-33 -4t-11 -25l-2 -1q-14 22 -7.5 37t24.5 17q-53 23 -85 48t-32 61q0 35 28 51t71 10q-33 -16 -33 -53q0 -42 46.5 -79t141.5 -79l9 -4z" />
    <glyph glyph-name="a" unicode="a" horiz-adv-x="552" 
d="M553 114q18 -55 0.5 -85.5t-57.5 -30.5q-65 0 -94 74q-8 -32 -28 -50.5t-46 -20.5q51 27 51 108q0 14 -5 55t-7 67q-23 -108 -80 -173t-130 -65q-62 0 -95 32.5t-33 81.5q0 55 42 93.5t136 81.5q34 15 50 23.5t33.5 20.5t21.5 23.5t4 27t-9 36.5l2 1q69 -109 -8 -220
l-2 1q25 53 1 74t-87 -3q-59 -23 -94.5 -62t-35.5 -87q0 -36 21 -58t60 -22q78 0 138 82.5t60 182.5q0 70 -40.5 123.5t-101.5 53.5q-35 0 -56 -22.5t-21 -60.5q0 -32 15 -62.5t35 -45.5v-1q-42 10 -70 42t-28 74q0 52 33.5 85t89.5 33q63 0 109.5 -59t50.5 -124
q12 146 72 225l1 -1q-43 -86 -43 -270q0 -102 25.5 -176.5t73.5 -74.5q23 0 36.5 19t7.5 54h2z" />
    <glyph glyph-name="b" unicode="b" horiz-adv-x="685" 
d="M199 279q-37 10 -68 -5q5 26 5 155q0 46 -10.5 74.5t-24.5 40.5t-46 31q35 -3 59 -15.5t30 -25.5q0 44 -29 74.5t-62 42.5q117 -22 117 -88q0 148 -130 214q184 -38 184 -236q-23 -25 -30.5 -47.5t-7.5 -64.5q0 -67 13 -150zM40 142q3 -15 16 -26.5t32 -11.5
q29 0 49.5 20.5t20.5 52.5q0 36 -33 36q-14 0 -30 -8q24 43 67 43q46 0 46 -49q0 -11 -4.5 -32t-4.5 -39q0 -47 51.5 -82.5t118.5 -35.5q-38 17 -59 57t-12 90q9 -51 48.5 -80t89.5 -29q63 0 105 39.5t42 104.5q0 62 -32 98q39 -9 61 -43q0 85 -57.5 142t-140.5 57
q-111 0 -199 -96l-5 6q60 84 80 119q50 28 120 28q100 0 167.5 -64t67.5 -170q0 -119 -81 -199t-204 -80q-82 0 -137.5 32.5t-69.5 77.5q-2 -10 -19 -22t-39 -12q-32 0 -45 25t-10 51z" />
    <glyph glyph-name="c" unicode="c" horiz-adv-x="564" 
d="M159 408q0 25 -27 32t-78 -14l-1 2q55 44 130.5 68.5t139.5 24.5q106 0 174 -77q25 92 -1 160l3 2q73 -166 -6 -293l-3 1q-20 78 -63 129.5t-109 51.5q-77 0 -120.5 -65t-30.5 -172h-1q-25 43 -46 53l-21 113h1q15 -39 38 -39q21 0 21 23zM544 161q3 -84 -50.5 -127.5
t-124.5 -43.5q-78 0 -135.5 49.5t-80.5 118.5q-8 -114 74 -161q-57 15 -83.5 56t-35.5 120q-3 26 -4.5 36t-6 25t-11.5 20t-19 5q-32 0 -44 -42q-3 12 -3 21q0 28 17 46t43 18q22 0 41 -22t50 -78q41 -73 89.5 -117t115.5 -44q54 0 102.5 31t64.5 89h1z" />
    <glyph glyph-name="d" unicode="d" horiz-adv-x="717" 
d="M472 153l3 -6q-84 -71 -106 -128q-58 -29 -127 -29q-81 0 -136.5 60t-55.5 155q0 130 91 223t224 93q100 0 147 -93v10q0 42 -7.5 64.5t-30.5 47.5q0 50 14 90.5t33 64t46.5 41t45 24.5t38.5 14q5 1 7 2q-55 -35 -78 -61q-52 -60 -52 -153q19 77 117 88
q-28 -8 -59.5 -40.5t-31.5 -76.5q7 14 30.5 27t58.5 14q-46 -22 -65 -50.5t-19 -95.5q0 -147 5 -165q-34 5 -65 -5q1 2 1.5 5.5t0.5 5.5q7 97 -24 156.5t-97 69.5q35 -17 56.5 -64.5t6.5 -97.5q-8 40 -26.5 68t-42.5 41.5t-45 19t-43 5.5q-47 0 -81 -31t-34 -78
q0 -55 38 -107.5t101 -87.5q-94 25 -146 80t-60 101q-13 -35 -4 -82.5t35 -88.5q-43 7 -64 37q0 -73 49 -123.5t117 -50.5q61 0 114 23.5t121 83.5zM609 78q45 0 78 39q-4 -32 -26 -55.5t-59 -23.5q-41 0 -58 27q-1 -31 -28 -55.5t-58 -33.5q40 52 40 100q0 15 -4.5 37
t-4.5 39q0 37 21 58q-40 -4 -77 -37q33 74 109 74q44 0 68 -20.5t24 -52.5q0 -19 -12 -34q0 26 -14 42t-34 16q-19 0 -29 -13.5t-10 -32.5q0 -31 21.5 -52.5t52.5 -21.5z" />
    <glyph glyph-name="e" unicode="e" horiz-adv-x="566" 
d="M178 291v1q139 -19 202.5 17.5t63.5 98.5q0 41 -27 67t-75 26q-57 0 -97 -35.5t-58 -86.5t-20 -112q-28 45 -59 54l-17 105h1q14 -38 39 -38q21 0 21 23q0 16 -11 26t-35.5 9t-55.5 -18l-1 1q50 40 137 66t151 26q74 0 120.5 -37.5t55.5 -101.5q-57 -16 -57 -46
q0 -11 10.5 -17.5t36.5 -1t62 29.5l1 -1q-45 -43 -132 -78t-187 -39q74 15 107 37q-101 -3 -176 25zM357 43q53 0 98.5 28t62.5 89l2 -1q-5 -80 -49.5 -121.5t-114.5 -41.5q-95 0 -153 62.5t-71 152.5q-1 -92 17.5 -141t58.5 -77q-50 17 -71 53.5t-32 116.5
q-9 64 -15.5 85.5t-23.5 21.5q-31 0 -40 -49q-3 15 -3 21q0 28 17 46.5t41 18.5q13 0 22.5 -4t18.5 -16t14 -21t16 -33t18 -38q77 -152 187 -152z" />
    <glyph glyph-name="f" unicode="f" horiz-adv-x="453" 
d="M508 688q5 -129 -126 -201l-1 1q16 40 19.5 84.5t-14.5 80.5t-61 36q-33 0 -59 -17.5t-46 -60t-19.5 -114.5t19.5 -181l5 -25l4 1q62 15 95 53t30 95l2 1q23 -62 11 -122.5t-54 -102.5l-1 1q20 46 26 82q-90 -35 -298 -42v2q69 11 103.5 38.5t34 64t-17.5 72.5t-49 74
l1 1q18 -14 30 -14q15 0 15 19q0 14 -11 23t-35 8.5t-56 -15.5l-1 4q27 11 60.5 42.5t60 61.5t68 53.5t85.5 23.5q64 0 94.5 -43.5t19.5 -93.5q24 17 43.5 51t19.5 59h3zM252 166q0 -23 -6.5 -51.5t-6.5 -42.5q0 -28 9 -48.5t30 -48.5q-31 9 -58 33.5t-28 55.5
q-6 -9 -24.5 -18t-37.5 -9q-37 0 -57 22.5t-24 56.5q33 -39 78 -39q32 0 54.5 20t22.5 54q0 21 -11 33.5t-30 12.5q-22 0 -35.5 -15.5t-13.5 -42.5q-12 15 -12 34q0 30 23 50t52 20q37 0 56 -21.5t19 -55.5z" />
    <glyph glyph-name="g" unicode="g" horiz-adv-x="578" 
d="M290 132q68 28 150 114.5t122 196.5l-5 3q-25 -63 -65 -63q-33 0 -53.5 29t-20.5 59q0 49 70 49v4q-191 22 -308 -34t-117 -186q0 -48 21 -95t56 -85t71.5 -67t75.5 -52l2 1q-7 12 16 29.5t66.5 35.5t86 33.5t88.5 29.5l-2 8q-161 -56 -228 -56q-71 0 -109.5 38t-38.5 98
q0 125 136 158v3q-110 -20 -151.5 -84.5t-12.5 -133.5q-47 61 -47 142t51 132.5t129 51.5q76 0 115.5 -45t39.5 -107q0 -67 -41.5 -120.5t-99.5 -80.5zM202 -164l4 -1q28 63 76.5 114t105.5 51q34 0 54 -21t20 -53q0 -59 -58 -100t-141 -41q-85 0 -130 39.5t-45 99.5
q0 84 99 140l-2 2q-63 -26 -99 -69.5t-36 -89.5q0 -70 57.5 -117t156.5 -47q101 0 176 53t75 135q0 45 -25.5 71.5t-54.5 29.5q18 11 61.5 14t80.5 -6l1 3q-51 18 -103 18t-97.5 -20t-74.5 -48t-52.5 -62.5t-33.5 -56.5t-15 -38z" />
    <glyph glyph-name="h" unicode="h" horiz-adv-x="730" 
d="M185 593q1 38 -11.5 74t-30 59.5t-38.5 43t-32.5 27t-17.5 10.5q6 0 24 -6.5t46 -24.5t53.5 -43t43.5 -68t17 -94q-38 -42 -38 -132q0 -62 13 -162q-36 6 -68 -5q5 105 5 167q0 56 -10.5 88.5t-24.5 45.5t-46 32q35 -3 59 -15.5t30 -25.5q0 23 -12.5 46t-30.5 37.5
t-30 23t-18 10.5q22 0 65 -24t52 -64zM624 106q26 -2 43.5 -18t17.5 -39q0 -27 -21 -43t-51 -16q-66 0 -81 51q-6 -29 -32 -29q-16 0 -25 14.5t-4 38.5q8 -20 17 -20q17 0 17 61q0 111 32 170q-11 -11 -30 -11q-35 0 -46 46q22 -17 45 -17q32 0 50.5 22.5t18.5 59.5
q0 43 -31.5 72t-86.5 29q-78 0 -141.5 -55.5t-55.5 -135.5q-65 96 64 180q4 3 17 11t18.5 12l13.5 10t11 11t3 10q0 25 -55 21q59 30 88 13q20 -12 5 -40q18 5 41 6.5t52.5 -2.5t53 -15.5t38.5 -38t12 -64.5q36 9 53 -23q23 -43 -22 -107q-6 -10 -14 -19q13 37 14 61t-5 32
t-17 8q-27 0 -49.5 -63t-22.5 -128q0 -60 15.5 -96.5t45.5 -36.5t30 29q0 32 -26 49zM178 252q73 0 106 -74q-36 35 -78 37q22 -21 22 -58q0 -17 -4.5 -39t-4.5 -37q0 -48 40 -100q-31 9 -58 33.5t-28 55.5q-6 -10 -22.5 -18.5t-35.5 -8.5q-36 0 -57 23t-28 56
q33 -39 78 -39q33 0 53.5 17t20.5 50q0 22 -10.5 37.5t-28.5 15.5q-20 0 -34 -16t-14 -42q-12 15 -12 34q0 31 26.5 52t68.5 21z" />
    <glyph glyph-name="i" unicode="i" horiz-adv-x="329" 
d="M196 644l-1 -1q-60 79 -60 118q0 22 12 35.5t33 13.5q16 0 27 -10.5t11 -24.5q-35 9 -37 -36q-1 -33 15 -95zM131 463q35 0 48 -41q0 33 -26 65.5t-65 44.5q24 -2 39.5 -5t33.5 -11t30 -24.5t18 -40.5q-1 84 -34 114q34 -14 56 -51.5t18 -84.5q-19 -26 -25.5 -47
t-6.5 -55q0 -20 7 -62q-27 6 -58 -5q5 38 5 87q0 36 -13.5 58.5t-36.5 22.5q-14 0 -24.5 -11.5t-10.5 -26.5h-1q-13 37 4.5 55t41.5 18zM238 147q0 -17 -4.5 -39t-4.5 -37q0 -48 40 -100q-31 9 -58 33.5t-28 55.5q-4 -11 -17 -19t-31 -8q-54 0 -65 79q20 -39 58 -39
q26 0 45 17.5t19 49.5q0 22 -10.5 37.5t-28.5 15.5q-20 0 -34 -16t-14 -42q-12 15 -12 34q0 31 26.5 52t68.5 21q73 0 106 -74q-37 33 -77 37q21 -21 21 -58z" />
    <glyph glyph-name="j" unicode="j" horiz-adv-x="363" 
d="M199 644l-1 -1q-60 79 -60 118q0 22 12 35.5t33 13.5q16 0 27 -10.5t11 -24.5q-35 10 -37 -36q-1 -32 15 -95zM42 380h-1q-8 31 17 56.5t65 25.5q49 0 82 -40q0 33 -31.5 65.5t-79.5 44.5q116 6 141 -81q-1 84 -34 114q34 -14 56 -51.5t18 -84.5q-21 -46 -26.5 -84.5
t-5.5 -97.5q0 -50 7 -92q-27 6 -58 -5q9 54 9 117q0 72 -24 111.5t-66 39.5q-25 0 -43.5 -11.5t-25.5 -26.5zM295 -31q0 -52 14.5 -70.5t43.5 -21.5q-11 -5 -36.5 -2t-39.5 18q-19 -52 -73 -87.5t-121 -35.5q-71 0 -123.5 42t-69.5 101l2 1q28 -47 81 -75.5t111 -28.5
q75 0 122 49.5t47 122.5q0 43 -19 69.5t-44 26.5q-20 0 -32 -16t-12 -37q-12 15 -12 36q0 29 26 50t61 21q30 0 56 -10.5t38 -23.5l-1 -1q-21 12 -48.5 13t-42.5 -9q33 -14 52.5 -49.5t19.5 -82.5z" />
    <glyph glyph-name="k" unicode="k" horiz-adv-x="599" 
d="M185 563q0 47 -12.5 84.5t-34 62t-38 37.5t-38.5 26q-5 3 -7 4q72 -23 106 -51q78 -63 78 -185q-23 -25 -30.5 -47.5t-7.5 -64.5q0 -95 13 -170q-31 10 -65 5q5 18 5 165q0 67 -19 95.5t-65 50.5q35 -1 58.5 -14t30.5 -27q0 44 -31.5 76.5t-59.5 40.5q98 -11 117 -88z
M533 142q22 8 44.5 -2t22.5 -37q0 -28 -23 -41.5t-54 -5.5q21 -34 -2.5 -64t-79.5 -15v1q28 0 42 12.5t14 27.5q0 29 -26 29q-14 0 -23.5 -12t-8.5 -36h-2q-13 101 -64.5 179t-134.5 87v2q113 9 176.5 44t63.5 95q0 30 -21.5 50.5t-56.5 20.5q-62 0 -104 -41.5t-53 -111.5
h-1q-4 70 44 133.5t125 63.5q58 0 89 -30.5t31 -77.5q0 -39 -25.5 -68.5t-67.5 -45.5t-71.5 -23.5t-61.5 -11.5q28 -9 59.5 -37t55 -56.5t53 -51.5t55.5 -23q33 0 33 22q0 10 -7.5 16.5t-20.5 6.5v1zM178 246q37 0 65 -20t41 -54q-36 34 -78 37q22 -21 22 -58
q0 -17 -4.5 -39t-4.5 -37q0 -48 40 -100q-31 9 -58 33.5t-28 55.5q-6 -9 -24.5 -18t-38.5 -9q-63 0 -80 79q33 -39 76 -39q31 0 53.5 19.5t22.5 51.5q0 19 -10.5 34t-28.5 15q-20 0 -34 -16t-14 -42q-12 15 -12 34q0 31 26.5 52t68.5 21z" />
    <glyph glyph-name="l" unicode="l" horiz-adv-x="348" 
d="M214 269q-31 10 -65 5q5 28 5 164q0 67 -19 95.5t-65 50.5q35 -1 58.5 -14t30.5 -27q0 44 -31.5 76.5t-59.5 40.5q98 -11 117 -88q0 47 -12.5 84.5t-34 62t-38 37.5t-38.5 26q-5 3 -7 4q72 -23 106 -51q78 -63 78 -185q-23 -25 -30.5 -47.5t-7.5 -64.5q0 -94 13 -169z
M105 210q27 41 69 41q44 0 44 -51q0 -17 -4.5 -47.5t-4.5 -52.5q0 -62 51 -62q65 0 96 73l2 -1q-9 -56 -39.5 -85.5t-70.5 -29.5q-49 0 -71 31.5t-14 78.5q-16 -37 -57 -37q-30 0 -51 20t-25 59q28 -38 75 -38q28 0 45.5 20t17.5 48q0 26 -17 35.5t-46 -2.5z" />
    <glyph glyph-name="m" unicode="m" horiz-adv-x="985" 
d="M144 384q0 -16 -13 -27.5t-33 -11.5q-25 0 -41.5 15.5t-16.5 43.5q0 33 24.5 53t58.5 20q51 0 78 -41q0 33 -26 65.5t-65 44.5q24 -2 39.5 -5t33.5 -11t30 -24.5t18 -40.5q-1 84 -34 114q34 -14 56 -51.5t18 -84.5q-19 -28 -25.5 -52.5t-6.5 -69.5q0 -23 7 -58
q-28 10 -58 -5q5 32 5 73q0 111 -70 111q-21 0 -33 -11t-12 -27q0 -13 8 -23t24 -10q25 0 34 13zM885 111q22 -4 38.5 -18t16.5 -39q0 -29 -19.5 -46.5t-53.5 -17.5q-53 0 -70 53q0 -14 -11 -21.5t-24 -7.5q-16 0 -25 14.5t-5 38.5q8 -20 26 -20q5 0 8 1.5t5 5t3 7t1.5 10.5
t0.5 11v13v13q0 37 10.5 86.5t32.5 85.5q-8 -9 -23 -13.5t-34.5 5t-29.5 39.5q19 -17 46 -17q28 0 43 23.5t15 53.5q0 42 -25.5 69t-75.5 27q-43 0 -77.5 -23.5t-43.5 -75.5h-1q-12 33 -3.5 58t23.5 38l30 27t15 25q0 29 -55 25q51 24 79 12t17 -48q28 16 62 16q40 0 70 -29
t24 -92q16 4 30.5 -1.5t23 -19.5t10.5 -32.5t-8 -44t-31 -51.5q12 36 12.5 60.5t-6.5 32.5t-16 8q-23 0 -41.5 -59.5t-18.5 -144.5q0 -118 51 -118q32 0 32 32q0 33 -28 49zM594 111q25 0 42.5 -15t17.5 -41q0 -30 -21.5 -47.5t-56.5 -17.5q-29 0 -48.5 14t-25.5 39
q0 -14 -10 -21.5t-23 -7.5q-16 0 -25 15t-3 38q9 -20 24 -20q12 0 16 14.5t4 46.5q0 38 10.5 87.5t33.5 84.5q-6 -6 -17.5 -10t-25.5 -4.5t-26.5 11t-18.5 34.5q19 -17 44 -17q26 0 43 21t17 58q0 44 -23.5 69t-62.5 25q-70 0 -124 -60.5t-35 -120.5q-19 25 -23.5 48
t4.5 42.5t16.5 30t22.5 25.5q3 3 24.5 22t32 33.5t10.5 28.5q0 29 -55 25q48 22 78.5 10.5t17.5 -46.5q22 16 57 16q41 0 71 -29t30 -90q0 -36 -23.5 -127t-23.5 -147q0 -41 12 -69t36 -28q15 0 25 8.5t10 22.5q0 33 -28 49zM210 246q73 0 106 -74q-37 33 -77 37
q21 -21 21 -58q0 -17 -4.5 -39t-4.5 -37q0 -48 40 -100q-31 9 -58 33.5t-28 55.5q-16 -27 -58 -27q-36 0 -57 23t-28 56q33 -39 78 -39q33 0 53.5 17t20.5 50q0 22 -10.5 37.5t-28.5 15.5q-20 0 -34 -16t-14 -42q-12 15 -12 34q0 31 26.5 52t68.5 21z" />
    <glyph glyph-name="n" unicode="n" horiz-adv-x="744" 
d="M144 384q0 -16 -13 -27.5t-33 -11.5q-25 0 -41.5 15.5t-16.5 43.5q0 33 24.5 53t58.5 20q51 0 78 -41q0 33 -26 65.5t-65 44.5q24 -2 39.5 -5t33.5 -11t30 -24.5t18 -40.5q-1 84 -34 114q34 -14 56 -51.5t18 -84.5q-19 -28 -25.5 -52.5t-6.5 -69.5q0 -23 7 -58
q-28 10 -58 -5q5 32 5 73q0 111 -70 111q-21 0 -33 -11t-12 -27q0 -13 8 -23t24 -10q25 0 34 13zM644 111q23 -1 39 -16.5t16 -42.5t-19.5 -44.5t-53.5 -17.5q-29 0 -49 14t-25 39q0 -14 -9.5 -22t-21.5 -8q-16 0 -25 15t-5 39q8 -20 26 -20q4 0 7 1t5 3t3.5 4.5t2.5 6.5
t1.5 7.5t0.5 9v9v10v10.5q0 109 42 173q-14 -16 -39 -16q-38 0 -49 46q22 -17 47 -17q27 0 42 19.5t15 53.5q0 45 -27.5 72.5t-79.5 27.5q-77 0 -143 -56.5t-45 -124.5q-65 87 20 146l24.5 16.5t25 17.5t18 15t15.5 18t4 17q0 29 -55 25q32 13 60 13q52 0 36 -49
q32 16 71 16q49 0 82.5 -29.5t32.5 -91.5q27 7 45.5 -11.5t15 -56.5t-35.5 -81q12 36 12.5 60.5t-6.5 32.5t-16 8q-24 0 -42.5 -59.5t-18.5 -154.5q0 -106 51 -106q33 0 33 30q0 33 -28 49zM210 246q73 0 106 -74q-37 33 -77 37q21 -21 21 -58q0 -17 -4.5 -39t-4.5 -37
q0 -48 40 -100q-31 9 -58 33.5t-28 55.5q-16 -27 -58 -27q-36 0 -57 23t-28 56q33 -39 78 -39q33 0 53.5 17t20.5 50q0 22 -10.5 37.5t-28.5 15.5q-20 0 -34 -16t-14 -42q-12 15 -12 34q0 31 26.5 52t68.5 21z" />
    <glyph glyph-name="o" unicode="o" horiz-adv-x="588" 
d="M323 35q144 0 209 117q-22 -75 -81 -118.5t-132 -43.5q-140 0 -218 140q7 -73 107 -137q-85 21 -123.5 93.5t-34.5 176.5q52 115 20 271l2 1q30 -79 58 -99q29 37 81.5 61t107.5 24q100 0 164.5 -64t64.5 -155q0 -84 -50.5 -142t-146.5 -79q110 39 110 144q0 66 -44 126
q84 -49 81 -149q45 109 -12 190.5t-168 81.5q-87 0 -148 -58.5t-61 -158.5q0 -98 64 -160t150 -62z" />
    <glyph glyph-name="p" unicode="p" horiz-adv-x="720" 
d="M129 384q-2 -17 -13.5 -27.5t-30.5 -10.5q-26 0 -43 15t-17 43q0 33 24.5 53t58.5 20q51 0 78 -41q0 33 -26 65.5t-65 44.5q24 -2 39.5 -5t33.5 -11t30 -24.5t18 -40.5q-1 84 -34 114q34 -14 56 -51.5t18 -84.5q-19 -28 -25.5 -52.5t-6.5 -69.5q0 -23 7 -58
q-28 10 -58 -5q5 32 5 73q0 111 -70 111q-21 0 -33 -11t-12 -27q0 -13 8 -23t24 -10q25 0 34 13zM445 521q93 0 164 -67t71 -185q0 -119 -81 -199t-204 -80q-88 0 -164 62q-2 -212 24 -342l-3 -3q-25 63 -52 87q-29 -31 -69 -31q-36 0 -54 25t-20 58q32 -38 68 -38
q37 0 55.5 44t18.5 162q0 178 -49 178q-17 0 -27.5 -13.5t-10.5 -39.5q-12 15 -12 34q0 31 26.5 52t68.5 21q73 0 106 -74q-32 36 -77 37q0 -26 3.5 -50t15 -51.5t29.5 -47.5t49.5 -33.5t72.5 -13.5q-39 20 -56.5 57.5t-4.5 86.5q14 -51 52.5 -78.5t87.5 -27.5q62 0 102 38
t40 103q0 62 -29 98q39 -7 61 -35q0 89 -58 149t-140 60q-111 0 -199 -96l-5 6q64 64 80 119q50 28 120 28z" />
    <glyph glyph-name="q" unicode="q" horiz-adv-x="601" 
d="M561 394q-19 -20 -27.5 -57t-8.5 -113q0 -7 -1 -79.5t0 -115t4 -110.5t11.5 -121t21.5 -91l-3 -1q-40 66 -66 94q-15 -36 -49 -46t-65.5 6.5t-38.5 50.5l1 1q26 -17 55 -17q20 0 35 6t26 20.5t18.5 29.5t11.5 41.5t6.5 48t3 58t0.5 62t-0.5 69.5t-0.5 72q0 59 -2 97.5
t-8.5 79t-18.5 64t-33.5 41t-52.5 21.5q35 -17 56.5 -64.5t6.5 -97.5q-16 75 -60.5 104.5t-89.5 29.5q-48 0 -79 -29.5t-31 -78.5q0 -54 34.5 -108t92.5 -88q-94 25 -146 80t-60 101q-13 -35 -4 -82.5t35 -88.5q-43 7 -64 37q0 -73 49 -122.5t117 -49.5q116 0 235 105l3 -6
q-84 -71 -106 -128q-58 -29 -127 -29q-81 0 -136.5 60t-55.5 155q0 130 91 223t224 93q71 0 124 -36t72 -91z" />
    <glyph glyph-name="r" unicode="r" horiz-adv-x="506" 
d="M144 384q0 -16 -13 -27.5t-33 -11.5q-25 0 -41.5 15.5t-16.5 43.5q0 33 24.5 53t58.5 20q51 0 78 -41q0 33 -26 65.5t-65 44.5q24 -2 39.5 -5t33.5 -11t30 -24.5t18 -40.5q-1 84 -34 114q34 -14 56 -51.5t18 -84.5q-19 -28 -25.5 -52.5t-6.5 -69.5q0 -23 7 -58
q-28 10 -58 -5q5 32 5 73q0 111 -70 111q-21 0 -33 -11t-12 -27q0 -13 8 -23t24 -10q25 0 34 13zM513 513q22 -140 -93 -247l-2 2q34 44 44 89.5t-6 74.5t-52 29q-55 0 -89 -61t-15 -121q-31 45 -25 89t41 78q3 3 14 13t15 14.5l10.5 12t9 13.5t2.5 12q0 28 -55 23
q33 14 56.5 12.5t33.5 -15.5t1 -33q28 -13 61.5 -10t48.5 25zM210 246q73 0 106 -74q-37 33 -77 37q21 -21 21 -58q0 -17 -4.5 -39t-4.5 -37q0 -48 40 -100q-31 9 -58 33.5t-28 55.5q-16 -27 -58 -27q-36 0 -57 23t-28 56q33 -39 78 -39q33 0 53.5 17t20.5 50
q0 22 -10.5 37.5t-28.5 15.5q-20 0 -34 -16t-14 -42q-12 15 -12 34q0 31 26.5 52t68.5 21z" />
    <glyph glyph-name="s" unicode="s" horiz-adv-x="530" 
d="M356 58v1q26 12 45 33.5t19 47.5q0 31 -28 50.5t-103 44.5l-30 10q-89 30 -128 65t-39 83q0 52 50.5 90t133.5 38q70 0 122.5 -31.5t66.5 -81.5q-48 -5 -48 -33q0 -10 6 -18t28 -14.5t59 -4.5v-2q-74 -19 -108 -4.5t-34 47.5q0 28 28 52q-12 28 -43 46.5t-67 18.5
t-55 -20.5t-19 -47.5q0 -45 53 -75l-1 -1q-86 27 -86 76q0 41 36 64q-72 -23 -72 -83q0 -66 119 -108l40 -14q87 -30 126 -60t39 -71q0 -82 -110 -98zM344 32q47 0 88 29t53 88h1q7 -75 -35.5 -114.5t-111.5 -39.5q-139 0 -210 126q-9 -48 21 -81.5t89 -44.5v-1
q-70 0 -109 24.5t-39 72.5q0 12 4 35.5t4 35.5q0 44 -34 44q-33 0 -43 -48q-15 23 -4 55.5t44 32.5q25 0 46 -18.5t50 -63.5q43 -68 84.5 -100t101.5 -32z" />
    <glyph glyph-name="t" unicode="t" horiz-adv-x="430" 
d="M338 323q11 30 13.5 52.5t-4.5 38.5t-18.5 27t-36 16t-48.5 7t-64 0t-75.5 -5.5t-89.5 -9.5v3q61 8 102.5 37.5t58 69.5t22 86t-6.5 86l3 2q13 -37 20 -77.5t2.5 -90.5t-25.5 -87q131 9 162 20q44 18 48 67h2q14 -109 -63 -243zM384 211h3q2 -62 -10.5 -107.5t-35.5 -69
t-47.5 -34t-51.5 -10.5q-38 0 -77.5 21t-56.5 60q-3 -23 4.5 -54t27.5 -51l-2 -2q-73 60 -73 135q0 50 32 132t32 124q0 93 -89 76v2q44 14 88 10t60 -24q-20 -22 -42 -106.5t-22 -138.5q0 -62 31.5 -98t90.5 -36q57 0 95 44.5t43 126.5z" />
    <glyph glyph-name="u" unicode="u" horiz-adv-x="654" 
d="M548 479q35 0 58 -20.5t23 -53.5q0 -27 -16.5 -42.5t-40.5 -15.5q-17 0 -30 10t-13 27q9 -13 29 -13q15 0 24 9t9 25t-12.5 26.5t-32.5 10.5q-71 0 -71 -120q0 -35 5 -61q-28 7 -58 -1q9 40 9 64q0 41 -6.5 66t-24.5 54q-3 48 18 85t54 50q-34 -31 -35 -113q8 32 28.5 50
t40.5 23t53 7q-40 -12 -66 -44t-26 -65q28 42 81 42zM528 77q47 0 78 37q-17 -77 -85 -77q-19 0 -35.5 8t-22.5 17q-1 -31 -28 -53.5t-59 -31.5q23 29 32 49t9 47q0 15 -4 37t-4 39q0 38 20 58q-43 0 -97 -70q-52 -68 -85 -134q-19 -13 -52 -13q-54 0 -89 35t-35 91
q0 39 27 89l54 102.5t27 99.5q0 37 -16 58.5t-39 21.5q-17 0 -26.5 -9t-9.5 -22q0 -29 30 -50q-29 0 -48.5 16.5t-19.5 41.5q0 26 20 46t58 20q31 0 53.5 -17t32.5 -40q12 26 42 26q16 0 26 -14t2 -35q-8 20 -28 20q-29 0 -29 -57q0 -90 -91 -191q38 38 77 38q21 0 37 -14
t15 -37q-16 23 -52 23q-45 0 -73 -32t-28 -78q0 -34 18.5 -56.5t54.5 -22.5q28 0 49 17.5t56 58.5q7 8 10 12q57 68 90.5 91.5t77.5 23.5q38 0 62.5 -20t24.5 -52q0 -25 -14 -37q0 26 -14 42t-34 16q-38 0 -38 -46q0 -30 21 -51t52 -21z" />
    <glyph glyph-name="v" unicode="v" horiz-adv-x="619" 
d="M363 20q9 43 30.5 82t42 62t36.5 54t16 62q0 39 -26 79q49 -10 66 -55q9 72 -30 112t-105 40q-56 0 -104 -23.5t-110 -82.5l-5 6q84 78 107 135q3 1 22.5 4.5t30.5 7t26.5 9.5t23 15.5t7.5 21.5q0 14 -13 23t-42 4q54 31 88 10t7 -72q67 -17 102.5 -61.5t35.5 -104.5
q0 -38 -16 -72t-41 -62t-52 -55t-54 -63.5t-41 -76.5zM17 431q27 24 53 24q25 0 38.5 -31.5t33.5 -120.5q10 -48 16.5 -74.5t17.5 -67t20.5 -62.5t24.5 -48t31 -38.5t37.5 -19.5t47.5 -3v1q-37 20 -56 63q40 -5 67.5 14.5t27.5 50.5q0 32 -34 44q12 -27 -1 -45t-43 -18
q-44 0 -77.5 42t-48 105.5t-19.5 137t7 136.5q-34 0 -77 -25t-68 -63z" />
    <glyph glyph-name="w" unicode="w" horiz-adv-x="801" 
d="M619 521q63 -9 102.5 -52.5t39.5 -104.5q0 -48 -15.5 -94t-44 -87t-54 -71.5t-61.5 -67.5t-50 -54q-21 3 -40.5 22.5t-25 49t21.5 65.5h1q-4 -30 9 -49.5t40 -19.5q41 0 88.5 66t47.5 154q0 55 -26 90q21 -1 42 -10t30 -25q-4 62 -39 97.5t-93 35.5q-51 0 -87.5 -29
t-36.5 -71q0 -38 -11.5 -80t-21.5 -70.5t-12.5 -78.5t16.5 -105l-1 -1q-30 45 -37.5 86t-0.5 92t7 59q0 58 -37 89q49 0 66 -45q11 73 -18.5 110t-81.5 37q-73 0 -159 -91l-5 7q58 56 87 116q35 30 83 30q43 0 78.5 -27.5t42.5 -83.5q4 25 23 48t39.5 36.5t37 29.5t16.5 30
t-13 23t-42 4q25 19 59 19q50 0 50 -44q0 -17 -14 -35zM342 163q35 -12 35 -50q0 -30 -31.5 -47t-72.5 -12q14 -42 64 -63v-1q-26 -4 -47 1.5t-37 16t-30 34.5t-23.5 45.5t-20 61.5t-17 70.5l-17.5 83.5q-17 86 -33 120.5t-42 34.5q-21 0 -52 -27l-3 2q25 38 68 63t77 25
q-13 -84 0 -182t50 -168.5t85 -70.5q34 0 46.5 17.5t0.5 45.5z" />
    <glyph glyph-name="x" unicode="x" 
d="M590 97q0 -37 -33.5 -55.5t-78.5 -5.5q5 -16 31.5 -36t49.5 -27v-1q-93 -5 -158.5 75.5t-85.5 209.5q-5 -54 -23.5 -99.5t-34.5 -74t-16 -45.5q0 -44 55 -38q-29 -15 -53 -7.5t-26 31.5q-31 -34 -79 -34q-50 0 -79 40t-29 96q0 58 29.5 100.5t82.5 42.5q25 0 41.5 -18.5
t11.5 -44.5q-17 29 -48 29q-32 0 -50 -29t-18 -74q0 -41 20 -70t53 -29q51 0 95 76.5t44 164.5q0 82 -29 140t-69 58q-16 0 -26 -9t-10 -24q0 -18 11.5 -35.5t29.5 -27.5q-40 -5 -67 16.5t-27 55.5q0 30 22 51.5t58 21.5q39 0 68.5 -35t44 -88t16.5 -114q1 121 82 184
t188 52v-2q-42 -2 -71 -15.5t-29 -33.5q0 -8 5 -13.5t19.5 -11.5t24.5 -9.5t36 -10.5q9 -3 14 -4v-5q-111 27 -178 -12t-67 -130q0 -75 43 -136t114 -61q34 0 50 13.5t16 30.5q0 16 -9 25q14 -3 26.5 -15t12.5 -33z" />
    <glyph glyph-name="y" unicode="y" horiz-adv-x="623" 
d="M210 -175q0 34 29.5 70t71 71.5t83 76t71 100t29.5 127.5q0 49 -26 89q49 -10 66 -55q9 72 -29.5 114.5t-100.5 42.5q-58 0 -106.5 -25t-112.5 -86l-5 4q78 73 107 137q3 1 22.5 4.5t30.5 7t26.5 9.5t23 15.5t7.5 21.5q0 14 -13 23t-42 4q54 31 88 10.5t7 -70.5
q63 -16 99.5 -62.5t36.5 -115.5t-31 -135t-75 -115t-88.5 -92t-75.5 -82.5t-31 -70.5q0 -26 13.5 -39t34.5 -13q32 0 66 37.5t57 123.5h2q-16 -116 -71.5 -172.5t-172.5 -56.5v2q52 14 70 29q-30 10 -45.5 29.5t-15.5 41.5zM17 430q23 28 53 28t44 -33t28 -122
q51 -332 184 -313v1q-37 20 -56 63q41 -5 71.5 12.5t30.5 48.5q0 19 -11.5 31.5t-29.5 16.5q9 -15 9 -31q0 -32 -39 -32q-53 0 -91.5 72t-46.5 165.5t7 183.5q-41 0 -85 -24.5t-70 -63.5z" />
    <glyph glyph-name="z" unicode="z" horiz-adv-x="547" 
d="M471 547q-15 -30 -41 -38.5t-85 -8.5q-109 0 -199 -46q-24 61 -17 128h-6q-7 -40 -4.5 -91.5t4.5 -83.5t10.5 -74t13.5 -63.5t14 -53.5h2q-22 129 25 193t128 64q26 0 44.5 -14t27 -53t-15.5 -109h2q69 141 98 250h-1zM129 47q-24 0 -37 10.5t-13 28.5q0 14 12 24t29 10
q41 0 64 -45h1q1 29 -19 51.5t-52 22.5q-36 0 -57 -20t-21 -49q0 -31 22 -50t61 -19q-33 -29 -99 -40v-1q72 -13 144 26.5t126.5 108.5t100 153.5t71.5 162.5t32 134h-4q-60 -206 -163 -357t-198 -151zM296 78q49 -44 114 -44q34 0 56 12.5t22 34.5q0 17 -12.5 28.5
t-31.5 11.5q-23 0 -38.5 -16.5t-16.5 -47.5h-1q-9 42 9 69t54 27q34 0 55 -18.5t21 -50.5q0 -47 -38.5 -69.5t-92.5 -22.5q-45 0 -86 15l1 2q59 -18 69 -6q5 7 -15 15q-18 7 -46 7q-67 0 -117 -25l-1 2q62 33 95 76z" />
    <glyph glyph-name="exclamdown" unicode="&#xa1;" horiz-adv-x="294" 
d="M141 655q-21 0 -35.5 14.5t-14.5 35.5q0 53 60 70q-13 -23 -7.5 -40t20 -18.5t27.5 8.5q6 -33 -10 -51.5t-40 -18.5zM176 354q0 -59 6.5 -84t31.5 -48q-4 -63 -28.5 -111.5t-59 -73.5t-60.5 -36.5t-46 -14.5q7 2 25 15t42.5 36t43 61.5t19.5 81.5q-16 -43 -50 -59.5
t-67 -8.5q29 5 60 36t31 81q-6 -18 -31 -33t-58 -8q43 9 72 62t29 142q0 95 -20 175l2 1q16 -31 71 -31q-13 -93 -13 -183z" />
    <glyph glyph-name="dieresis" unicode="&#xa8;" horiz-adv-x="412" 
d="M140 663q-60 17 -60 70q0 21 14.5 35.5t35.5 14.5q24 0 40 -18.5t10 -51.5q-12 12 -27.5 8.5t-20 -18.5t7.5 -40zM290 663q-60 17 -60 70q0 21 14.5 35.5t35.5 14.5q24 0 40 -18.5t10 -51.5q-12 12 -27.5 8.5t-20 -18.5t7.5 -40z" />
    <glyph glyph-name="guillemotleft" unicode="&#xab;" horiz-adv-x="483" 
d="M102 761q36 0 58.5 -21.5t22.5 -51.5q0 -27 -20 -48q-2 19 -17.5 36t-37.5 17q-41 0 -41 -50q0 -82 98 -178l-2 -2q-153 101 -153 205q0 38 24 65.5t68 27.5zM332 761q36 0 58.5 -21.5t22.5 -51.5q0 -27 -20 -48q-2 19 -17.5 36t-37.5 17q-41 0 -41 -50q0 -82 98 -178
l-2 -2q-153 101 -153 205q0 38 24 65.5t68 27.5z" />
    <glyph glyph-name="uni00AD" unicode="&#xad;" horiz-adv-x="628" 
d="M168 269q0 36 39 54t99 18q98 0 98 -36q0 -19 -14 -30q24 0 39 11.5t15 30.5q0 37 -49 51q23 21 20.5 47t-24.5 43q7 -41 -19 -58.5t-92 -16.5q-69 2 -103.5 -18t-34.5 -55q0 -27 26 -41z" />
    <glyph glyph-name="acute" unicode="&#xb4;" 
d="M180 581l-4 12l9 4q95 42 141.5 79t46.5 79q0 37 -33 53q43 6 71 -10t28 -51q0 -36 -32 -61t-85 -48q18 -2 24.5 -17t-7.5 -37l-2 1q0 18 -11 25t-33 4t-45.5 -10t-59.5 -20z" />
    <glyph glyph-name="periodcentered" unicode="&#xb7;" horiz-adv-x="232" 
d="M140 208q-60 17 -60 70q0 21 14.5 35.5t35.5 14.5q24 0 40 -18.5t10 -51.5q-12 12 -27.5 8.5t-20 -18.5t7.5 -40z" />
    <glyph glyph-name="cedilla" unicode="&#xb8;" 
d="M241 -12q31 -16 59.5 -20t113.5 -2v-5q-62 1 -103.5 -6t-62.5 -21.5t-30 -29t-13 -36.5q12 25 39 46.5t66 21.5q35 0 55.5 -14.5t20.5 -41.5q0 -47 -43 -79.5t-116 -32.5q-45 0 -71 18.5t-33 39.5l2 1q31 -41 103 -41q47 0 79 26.5t32 62.5q0 46 -44 46q-31 0 -61 -30
t-39 -71l-2 -7h-2q4 100 50 175z" />
    <glyph glyph-name="guillemotright" unicode="&#xbb;" horiz-adv-x="483" 
d="M151 761q44 0 68 -27.5t24 -65.5q0 -104 -153 -205l-2 2q98 96 98 178q0 50 -41 50q-22 0 -37.5 -17t-17.5 -36q-20 21 -20 48q0 30 22.5 51.5t58.5 21.5zM381 761q44 0 68 -27.5t24 -65.5q0 -104 -153 -205l-2 2q98 96 98 178q0 50 -41 50q-22 0 -37.5 -17t-17.5 -36
q-20 21 -20 48q0 30 22.5 51.5t58.5 21.5z" />
    <glyph glyph-name="questiondown" unicode="&#xbf;" horiz-adv-x="423" 
d="M208 775q60 -17 60 -70q0 -21 -14.5 -35.5t-35.5 -14.5q-24 0 -40 18.5t-10 51.5q12 -12 27.5 -8.5t20 18.5t-7.5 40zM254 -14v2q35 18 57 47t23 61q-8 -17 -31 -34.5t-59 -17.5q-65 0 -109.5 47t-44.5 132q0 52 17.5 108.5t33 86t42.5 74.5q17 28 -3 41q-27 17 -85 -24
l-1 1q30 35 91 59t115 34v-1q-161 -179 -161 -344q0 -72 32.5 -112t77.5 -40q38 0 61 26t23 70q0 51 -23 88.5t-42 46.5v2q42 -9 78.5 -63t36.5 -120q0 -116 -129 -170z" />
    <glyph glyph-name="Agrave" unicode="&#xc0;" horiz-adv-x="633" 
d="M307 777q-53 23 -85 48t-32 61q0 35 28 51t71 10q-33 -16 -33 -53q0 -42 46.5 -79t141.5 -79l9 -4l-4 -12l-8 3q-36 13 -59.5 20t-45.5 10t-33 -4t-11 -25l-2 -1q-14 22 -7.5 37t24.5 17zM606 168q37 -62 24.5 -118t-67.5 -56q-63 0 -90 74q-28 -65 -96 -74
q16 8 27.5 17.5t18.5 22.5l11.5 21.5t6.5 26.5t2.5 24t0 26.5t-0.5 23.5q0 32 -4 136t-4 197q0 105 6 132q-107 0 -192 -52q-78 -48 -68 -103q7 -36 55 -66l-1 -2q-36 11 -58 33.5t-23.5 51.5t13 58t54 56.5t97.5 43.5q24 7 54 14.5l45.5 11.5t30.5 9.5t22 12.5
q48 45 103 59l1 -2q-42 -28 -65 -83t-23 -169q0 -225 20 -336t66 -111q27 0 38 30.5t-5 89.5zM420 305l4 -1q-16 -141 -88 -227.5t-159 -86.5q-65 0 -104.5 45t-39.5 108q0 141 235 255q90 44 116 71.5t26 84.5h3q5 -92 -3 -155t-36 -138h-2q9 38 10 66t-9 49.5t-36.5 20.5
t-71.5 -21q-88 -44 -131 -103.5t-43 -116.5q0 -48 26.5 -82t71.5 -34q69 0 139.5 73.5t91.5 191.5z" />
    <glyph glyph-name="Aacute" unicode="&#xc1;" horiz-adv-x="633" 
d="M202 723l-8 -3l-4 12l9 4q95 42 141.5 79t46.5 79q0 37 -33 53q43 6 71 -10t28 -51q0 -36 -32 -61t-85 -48q18 -2 24.5 -17t-7.5 -37l-2 1q0 18 -11 25t-33 4t-45.5 -10t-59.5 -20zM606 168q37 -62 24.5 -118t-67.5 -56q-63 0 -90 74q-28 -65 -96 -74q16 8 27.5 17.5
t18.5 22.5l11.5 21.5t6.5 26.5t2.5 24t0 26.5t-0.5 23.5q0 32 -4 136t-4 197q0 105 6 132q-107 0 -192 -52q-78 -48 -68 -103q7 -36 55 -66l-1 -2q-36 11 -58 33.5t-23.5 51.5t13 58t54 56.5t97.5 43.5q24 7 54 14.5l45.5 11.5t30.5 9.5t22 12.5q48 45 103 59l1 -2
q-42 -28 -65 -83t-23 -169q0 -225 20 -336t66 -111q27 0 38 30.5t-5 89.5zM420 305l4 -1q-16 -141 -88 -227.5t-159 -86.5q-65 0 -104.5 45t-39.5 108q0 141 235 255q90 44 116 71.5t26 84.5h3q5 -92 -3 -155t-36 -138h-2q9 38 10 66t-9 49.5t-36.5 20.5t-71.5 -21
q-88 -44 -131 -103.5t-43 -116.5q0 -48 26.5 -82t71.5 -34q69 0 139.5 73.5t91.5 191.5z" />
    <glyph glyph-name="Acircumflex" unicode="&#xc2;" horiz-adv-x="633" 
d="M205 756q-30 0 -43.5 16t-13 34t8.5 33q12 -36 46 -36q35 0 64 28.5t41 54.5t17 47h2q35 -130 118 -130q43 0 50 36q20 -25 8 -54t-48 -29q-30 0 -58.5 20t-44.5 20q-18 0 -27 -16q-6 10 1.5 22t27.5 7q-22 23 -32 45q-12 -47 -44 -72.5t-73 -25.5zM606 168
q37 -62 24.5 -118t-67.5 -56q-63 0 -90 74q-28 -65 -96 -74q16 8 27.5 17.5t18.5 22.5l11.5 21.5t6.5 26.5t2.5 24t0 26.5t-0.5 23.5q0 32 -4 136t-4 197q0 105 6 132q-107 0 -192 -52q-78 -48 -68 -103q7 -36 55 -66l-1 -2q-36 11 -58 33.5t-23.5 51.5t13 58t54 56.5
t97.5 43.5q24 7 54 14.5l45.5 11.5t30.5 9.5t22 12.5q48 45 103 59l1 -2q-42 -28 -65 -83t-23 -169q0 -225 20 -336t66 -111q27 0 38 30.5t-5 89.5zM420 305l4 -1q-16 -141 -88 -227.5t-159 -86.5q-65 0 -104.5 45t-39.5 108q0 141 235 255q90 44 116 71.5t26 84.5h3
q5 -92 -3 -155t-36 -138h-2q9 38 10 66t-9 49.5t-36.5 20.5t-71.5 -21q-88 -44 -131 -103.5t-43 -116.5q0 -48 26.5 -82t71.5 -34q69 0 139.5 73.5t91.5 191.5z" />
    <glyph glyph-name="Adieresis" unicode="&#xc4;" horiz-adv-x="633" 
d="M276 752q-60 17 -60 70q0 21 14.5 35.5t35.5 14.5q24 0 40 -18.5t10 -51.5q-12 12 -27.5 8.5t-20 -18.5t7.5 -40zM426 752q-60 17 -60 70q0 21 14.5 35.5t35.5 14.5q24 0 40 -18.5t10 -51.5q-12 12 -27.5 8.5t-20 -18.5t7.5 -40zM606 168q37 -62 24.5 -118t-67.5 -56
q-63 0 -90 74q-28 -65 -96 -74q16 8 27.5 17.5t18.5 22.5l11.5 21.5t6.5 26.5t2.5 24t0 26.5t-0.5 23.5q0 32 -4 136t-4 197q0 105 6 132q-107 0 -192 -52q-78 -48 -68 -103q7 -36 55 -66l-1 -2q-36 11 -58 33.5t-23.5 51.5t13 58t54 56.5t97.5 43.5q24 7 54 14.5l45.5 11.5
t30.5 9.5t22 12.5q48 45 103 59l1 -2q-42 -28 -65 -83t-23 -169q0 -225 20 -336t66 -111q27 0 38 30.5t-5 89.5zM420 305l4 -1q-16 -141 -88 -227.5t-159 -86.5q-65 0 -104.5 45t-39.5 108q0 141 235 255q90 44 116 71.5t26 84.5h3q5 -92 -3 -155t-36 -138h-2q9 38 10 66
t-9 49.5t-36.5 20.5t-71.5 -21q-88 -44 -131 -103.5t-43 -116.5q0 -48 26.5 -82t71.5 -34q69 0 139.5 73.5t91.5 191.5z" />
    <glyph glyph-name="Ccedilla" unicode="&#xc7;" horiz-adv-x="684" 
d="M413 660q-55 0 -107.5 -26t-84.5 -71h-1q12 59 44.5 86.5t113.5 53.5q78 25 106 39t45 43q1 -28 -21 -51.5t-58 -35.5q71 1 115 -33t55 -96q41 57 67 146h2q-7 -62 -25 -115.5t-37.5 -88t-49.5 -67t-49.5 -48.5t-49.5 -38l-1 1q81 88 81 167q0 62 -40.5 98t-104.5 36z
M394 36q83 0 152.5 53.5t97.5 141.5h2q-5 -104 -84.5 -172.5t-182.5 -68.5q-147 0 -236 101t-82 268q53 73 74.5 151t12 141t-44.5 107q40 -22 69.5 -79t31.5 -145q36 11 51 44h1q-5 -28 -22 -50t-36 -38t-38 -35.5t-31.5 -54.5t-12.5 -83q0 -55 24.5 -119t77.5 -113
q-41 58 -46 132t35 169q-12 -100 0.5 -172.5t43 -109t66 -52.5t77.5 -16zM275 -12q31 -16 59.5 -20t113.5 -2v-5q-62 1 -103.5 -6t-62.5 -21.5t-30 -29t-13 -36.5q12 25 39 46.5t66 21.5q35 0 55.5 -14.5t20.5 -41.5q0 -47 -43 -79.5t-116 -32.5q-45 0 -71 18.5t-33 39.5
l2 1q31 -41 103 -41q47 0 79 26.5t32 62.5q0 46 -44 46q-31 0 -61 -30t-39 -71l-2 -7h-2q4 100 50 175z" />
    <glyph glyph-name="Egrave" unicode="&#xc8;" horiz-adv-x="693" 
d="M398 869q-53 23 -85 48t-32 61q0 35 28 51t71 10q-33 -16 -33 -53q0 -42 46.5 -79t141.5 -79l9 -4l-4 -12l-8 3q-36 13 -59.5 20t-45.5 10t-33 -4t-11 -25l-2 -1q-14 22 -7.5 37t24.5 17zM314 601q0 40 31.5 61.5t95.5 41.5q72 21 103 39.5t38 46.5h1q3 -53 -41 -88
q53 -10 85.5 -38.5t32.5 -71.5q0 -41 -30 -66t-78 -33v1q60 33 60 84q0 44 -35.5 65.5t-88.5 21.5q-55 0 -87 -16.5t-32 -42.5q0 -31 31.5 -43.5t66.5 -4.5q-20 -30 -68 -30q-37 0 -61 20t-24 53zM108 435q-31 0 -49.5 18.5t-18.5 45.5q0 34 24.5 56t60.5 22q29 0 54 -16.5
t35 -38.5q0 88 -91 127q96 -10 117 -88q0 44 -15.5 84t-38 66t-42 41.5t-34.5 22.5q18 -4 37.5 -10.5t49 -24.5t51 -42t35.5 -66t11 -93q-16 -14 -25 -36t-12.5 -42t-1.5 -58t4.5 -61.5t9.5 -74.5q-36 7 -68 -5q5 53 5 145q0 68 -22 100t-56 32q-21 0 -34.5 -11.5
t-13.5 -28.5t11.5 -28.5t28.5 -11.5q26 0 43 20q0 -17 -15.5 -30.5t-39.5 -13.5zM490 245q31 10 31 36q0 25 -30 37t-74 12q-42 0 -76.5 -12t-40.5 -36q-12 12 -13.5 25.5t16.5 29.5t52 28q38 13 62 34.5t26 41.5q8 -10 4 -33.5t-23 -37.5q57 1 98 -19.5t41 -60.5
q0 -27 -21.5 -39.5t-51.5 -6.5v1zM267 140q0 -51 -40 -90t-96 -39q-42 0 -62.5 28.5t-10.5 70.5q19 -55 69 -55q36 0 62.5 22.5t26.5 58.5q0 20 -10 33.5t-28 13.5q-19 0 -32.5 -14t-17.5 -34q-6 8 -6 21q0 34 30.5 60t85.5 26q37 0 69 -15.5t42 -41.5q-53 30 -105 20
q23 -21 23 -65zM587 37q55 -19 86 -72h-2q-33 33 -100.5 41t-203.5 8q-106 0 -165 -14v3l12 4t19.5 8.5t23 15t23 22.5t18 32t8.5 42.5t-4 54.5q26 -31 28.5 -71.5t-16.5 -70.5q287 -10 287 77q0 28 -27 46q73 -6 73 -55q0 -25 -17 -44.5t-43 -26.5z" />
    <glyph glyph-name="Eacute" unicode="&#xc9;" horiz-adv-x="693" 
d="M293 815l-8 -3l-4 12l9 4q95 42 141.5 79t46.5 79q0 37 -33 53q43 6 71 -10t28 -51q0 -36 -32 -61t-85 -48q18 -2 24.5 -17t-7.5 -37l-2 1q0 18 -11 25t-33 4t-45.5 -10t-59.5 -20zM314 601q0 40 31.5 61.5t95.5 41.5q72 21 103 39.5t38 46.5h1q3 -53 -41 -88
q53 -10 85.5 -38.5t32.5 -71.5q0 -41 -30 -66t-78 -33v1q60 33 60 84q0 44 -35.5 65.5t-88.5 21.5q-55 0 -87 -16.5t-32 -42.5q0 -31 31.5 -43.5t66.5 -4.5q-20 -30 -68 -30q-37 0 -61 20t-24 53zM108 435q-31 0 -49.5 18.5t-18.5 45.5q0 34 24.5 56t60.5 22q29 0 54 -16.5
t35 -38.5q0 88 -91 127q96 -10 117 -88q0 44 -15.5 84t-38 66t-42 41.5t-34.5 22.5q18 -4 37.5 -10.5t49 -24.5t51 -42t35.5 -66t11 -93q-16 -14 -25 -36t-12.5 -42t-1.5 -58t4.5 -61.5t9.5 -74.5q-36 7 -68 -5q5 53 5 145q0 68 -22 100t-56 32q-21 0 -34.5 -11.5
t-13.5 -28.5t11.5 -28.5t28.5 -11.5q26 0 43 20q0 -17 -15.5 -30.5t-39.5 -13.5zM490 245q31 10 31 36q0 25 -30 37t-74 12q-42 0 -76.5 -12t-40.5 -36q-12 12 -13.5 25.5t16.5 29.5t52 28q38 13 62 34.5t26 41.5q8 -10 4 -33.5t-23 -37.5q57 1 98 -19.5t41 -60.5
q0 -27 -21.5 -39.5t-51.5 -6.5v1zM267 140q0 -51 -40 -90t-96 -39q-42 0 -62.5 28.5t-10.5 70.5q19 -55 69 -55q36 0 62.5 22.5t26.5 58.5q0 20 -10 33.5t-28 13.5q-19 0 -32.5 -14t-17.5 -34q-6 8 -6 21q0 34 30.5 60t85.5 26q37 0 69 -15.5t42 -41.5q-53 30 -105 20
q23 -21 23 -65zM587 37q55 -19 86 -72h-2q-33 33 -100.5 41t-203.5 8q-106 0 -165 -14v3l12 4t19.5 8.5t23 15t23 22.5t18 32t8.5 42.5t-4 54.5q26 -31 28.5 -71.5t-16.5 -70.5q287 -10 287 77q0 28 -27 46q73 -6 73 -55q0 -25 -17 -44.5t-43 -26.5z" />
    <glyph glyph-name="Ecircumflex" unicode="&#xca;" horiz-adv-x="693" 
d="M296 848q-30 0 -43.5 16t-13 34t8.5 33q12 -36 46 -36q35 0 64 28.5t41 54.5t17 47h2q35 -130 118 -130q43 0 50 36q20 -25 8 -54t-48 -29q-30 0 -58.5 20t-44.5 20q-18 0 -27 -16q-6 10 1.5 22t27.5 7q-22 23 -32 45q-12 -47 -44 -72.5t-73 -25.5zM583 790
q3 -53 -41 -88q53 -10 85.5 -38.5t32.5 -71.5q0 -41 -30 -66t-78 -33v1q60 33 60 84q0 44 -35.5 65.5t-88.5 21.5q-55 0 -87 -16.5t-32 -42.5q0 -31 31.5 -43.5t66.5 -4.5q-20 -30 -68 -30q-37 0 -61 20t-24 53q0 40 31.5 61.5t95.5 41.5q72 21 103 39.5t38 46.5h1zM108 435
q-31 0 -49.5 18.5t-18.5 45.5q0 34 24.5 56t60.5 22q29 0 54 -16.5t35 -38.5q0 88 -91 127q96 -10 117 -88q0 44 -15.5 84t-38 66t-42 41.5t-34.5 22.5q18 -4 37.5 -10.5t49 -24.5t51 -42t35.5 -66t11 -93q-16 -14 -25 -36t-12.5 -42t-1.5 -58t4.5 -61.5t9.5 -74.5
q-36 7 -68 -5q5 53 5 145q0 68 -22 100t-56 32q-21 0 -34.5 -11.5t-13.5 -28.5t11.5 -28.5t28.5 -11.5q26 0 43 20q0 -17 -15.5 -30.5t-39.5 -13.5zM490 245q31 10 31 36q0 25 -30 37t-74 12q-42 0 -76.5 -12t-40.5 -36q-12 12 -13.5 25.5t16.5 29.5t52 28q38 13 62 34.5
t26 41.5q8 -10 4 -33.5t-23 -37.5q57 1 98 -19.5t41 -60.5q0 -27 -21.5 -39.5t-51.5 -6.5v1zM267 140q0 -51 -40 -90t-96 -39q-42 0 -62.5 28.5t-10.5 70.5q19 -55 69 -55q36 0 62.5 22.5t26.5 58.5q0 20 -10 33.5t-28 13.5q-19 0 -32.5 -14t-17.5 -34q-6 8 -6 21
q0 34 30.5 60t85.5 26q37 0 69 -15.5t42 -41.5q-53 30 -105 20q23 -21 23 -65zM587 37q55 -19 86 -72h-2q-33 33 -100.5 41t-203.5 8q-106 0 -165 -14v3l12 4t19.5 8.5t23 15t23 22.5t18 32t8.5 42.5t-4 54.5q26 -31 28.5 -71.5t-16.5 -70.5q287 -10 287 77q0 28 -27 46
q73 -6 73 -55q0 -25 -17 -44.5t-43 -26.5z" />
    <glyph glyph-name="Edieresis" unicode="&#xcb;" horiz-adv-x="693" 
d="M367 844q-60 17 -60 70q0 21 14.5 35.5t35.5 14.5q24 0 40 -18.5t10 -51.5q-12 12 -27.5 8.5t-20 -18.5t7.5 -40zM517 844q-60 17 -60 70q0 21 14.5 35.5t35.5 14.5q24 0 40 -18.5t10 -51.5q-12 12 -27.5 8.5t-20 -18.5t7.5 -40zM314 601q0 40 31.5 61.5t95.5 41.5
q72 21 103 39.5t38 46.5h1q3 -53 -41 -88q53 -10 85.5 -38.5t32.5 -71.5q0 -41 -30 -66t-78 -33v1q60 33 60 84q0 44 -35.5 65.5t-88.5 21.5q-55 0 -87 -16.5t-32 -42.5q0 -31 31.5 -43.5t66.5 -4.5q-20 -30 -68 -30q-37 0 -61 20t-24 53zM108 435q-31 0 -49.5 18.5
t-18.5 45.5q0 34 24.5 56t60.5 22q29 0 54 -16.5t35 -38.5q0 88 -91 127q96 -10 117 -88q0 44 -15.5 84t-38 66t-42 41.5t-34.5 22.5q18 -4 37.5 -10.5t49 -24.5t51 -42t35.5 -66t11 -93q-16 -14 -25 -36t-12.5 -42t-1.5 -58t4.5 -61.5t9.5 -74.5q-36 7 -68 -5q5 53 5 145
q0 68 -22 100t-56 32q-21 0 -34.5 -11.5t-13.5 -28.5t11.5 -28.5t28.5 -11.5q26 0 43 20q0 -17 -15.5 -30.5t-39.5 -13.5zM300 282q-12 12 -13.5 25.5t16.5 29.5t52 28q38 13 62 34.5t26 41.5q8 -10 4 -33.5t-23 -37.5q57 1 98 -19.5t41 -60.5q0 -27 -21.5 -39.5t-51.5 -6.5
v1q31 10 31 36q0 25 -30 37t-74 12q-42 0 -76.5 -12t-40.5 -36zM267 140q0 -51 -40 -90t-96 -39q-42 0 -62.5 28.5t-10.5 70.5q19 -55 69 -55q36 0 62.5 22.5t26.5 58.5q0 20 -10 33.5t-28 13.5q-19 0 -32.5 -14t-17.5 -34q-6 8 -6 21q0 34 30.5 60t85.5 26q37 0 69 -15.5
t42 -41.5q-53 30 -105 20q23 -21 23 -65zM587 37q55 -19 86 -72h-2q-33 33 -100.5 41t-203.5 8q-106 0 -165 -14v3l12 4t19.5 8.5t23 15t23 22.5t18 32t8.5 42.5t-4 54.5q26 -31 28.5 -71.5t-16.5 -70.5q287 -10 287 77q0 28 -27 46q73 -6 73 -55q0 -25 -17 -44.5t-43 -26.5
z" />
    <glyph glyph-name="Igrave" unicode="&#xcc;" horiz-adv-x="438" 
d="M388 812l-8 3q-36 13 -59.5 20t-45.5 10t-33 -4t-11 -25l-2 -1q-14 22 -7.5 37t24.5 17q-53 23 -85 48t-32 61q0 35 28 51t71 10q-33 -16 -33 -53q0 -42 46.5 -79t141.5 -79l9 -4zM309 294q-36 7 -68 -5q5 53 5 118q0 68 -22 100t-56 32q-21 0 -34.5 -11.5t-13.5 -28.5
t11.5 -28.5t28.5 -11.5q26 0 43 20q0 -17 -15.5 -30.5t-39.5 -13.5q-31 0 -49.5 18.5t-18.5 45.5q0 34 24.5 56t60.5 22q29 0 54 -16.5t35 -38.5q0 88 -91 127q96 -10 117 -88q0 44 -15.5 84t-38 66t-42 41.5t-34.5 22.5q18 -4 37.5 -10.5t49 -24.5t51 -42t35.5 -66t11 -93
q-37 -28 -39.5 -94t14.5 -151zM270 281q40 0 75 -19t53 -55q-22 21 -52.5 30t-54.5 7q10 -5 17.5 -22t7.5 -37q0 -16 -6 -46t-6 -57q0 -55 43 -106q-87 30 -87 116q-8 -21 -31 -32.5t-45 -11.5q-82 0 -96 79q35 -38 88 -38q37 0 63.5 23.5t26.5 58.5q0 20 -11 35t-29 15
t-30.5 -15t-12.5 -36q-22 44 6.5 77.5t80.5 33.5z" />
    <glyph glyph-name="Iacute" unicode="&#xcd;" horiz-adv-x="438" 
d="M133 812l-4 12l9 4q95 42 141.5 79t46.5 79q0 37 -33 53q43 6 71 -10t28 -51q0 -36 -32 -61t-85 -48q18 -2 24.5 -17t-7.5 -37l-2 1q0 18 -11 25t-33 4t-45.5 -10t-59.5 -20zM309 294q-36 7 -68 -5q5 53 5 118q0 68 -22 100t-56 32q-21 0 -34.5 -11.5t-13.5 -28.5
t11.5 -28.5t28.5 -11.5q26 0 43 20q0 -17 -15.5 -30.5t-39.5 -13.5q-31 0 -49.5 18.5t-18.5 45.5q0 34 24.5 56t60.5 22q29 0 54 -16.5t35 -38.5q0 88 -91 127q96 -10 117 -88q0 44 -15.5 84t-38 66t-42 41.5t-34.5 22.5q18 -4 37.5 -10.5t49 -24.5t51 -42t35.5 -66t11 -93
q-37 -28 -39.5 -94t14.5 -151zM270 281q40 0 75 -19t53 -55q-22 21 -52.5 30t-54.5 7q10 -5 17.5 -22t7.5 -37q0 -16 -6 -46t-6 -57q0 -55 43 -106q-87 30 -87 116q-8 -21 -31 -32.5t-45 -11.5q-82 0 -96 79q35 -38 88 -38q37 0 63.5 23.5t26.5 58.5q0 20 -11 35t-29 15
t-30.5 -15t-12.5 -36q-22 44 6.5 77.5t80.5 33.5z" />
    <glyph glyph-name="Icircumflex" unicode="&#xce;" horiz-adv-x="438" 
d="M434 931q20 -25 8 -54t-48 -29q-30 0 -58.5 20t-44.5 20q-18 0 -27 -16q-6 10 1.5 22t27.5 7q-22 23 -32 45q-12 -47 -44 -72.5t-73 -25.5q-30 0 -43.5 16t-13 34t8.5 33q12 -36 46 -36q35 0 64 28.5t41 54.5t17 47h2q35 -130 118 -130q43 0 50 36zM165 577
q29 0 54 -16.5t35 -38.5q0 88 -91 127q96 -10 117 -88q0 44 -15.5 84t-38 66t-42 41.5t-34.5 22.5q18 -4 37.5 -10.5t49 -24.5t51 -42t35.5 -66t11 -93q-37 -28 -39.5 -94t14.5 -151q-36 7 -68 -5q5 53 5 118q0 68 -22 100t-56 32q-21 0 -34.5 -11.5t-13.5 -28.5t11.5 -28.5
t28.5 -11.5q26 0 43 20q0 -17 -15.5 -30.5t-39.5 -13.5q-31 0 -49.5 18.5t-18.5 45.5q0 34 24.5 56t60.5 22zM398 207q-22 21 -52.5 30t-54.5 7q10 -5 17.5 -22t7.5 -37q0 -16 -6 -46t-6 -57q0 -55 43 -106q-87 30 -87 116q-8 -21 -31 -32.5t-45 -11.5q-82 0 -96 79
q35 -38 88 -38q37 0 63.5 23.5t26.5 58.5q0 20 -11 35t-29 15t-30.5 -15t-12.5 -36q-22 44 6.5 77.5t80.5 33.5q40 0 75 -19t53 -55z" />
    <glyph glyph-name="Idieresis" unicode="&#xcf;" horiz-adv-x="438" 
d="M215 844q-60 17 -60 70q0 21 14.5 35.5t35.5 14.5q24 0 40 -18.5t10 -51.5q-12 12 -27.5 8.5t-20 -18.5t7.5 -40zM365 844q-60 17 -60 70q0 21 14.5 35.5t35.5 14.5q24 0 40 -18.5t10 -51.5q-12 12 -27.5 8.5t-20 -18.5t7.5 -40zM309 294q-36 7 -68 -5q5 53 5 118
q0 68 -22 100t-56 32q-21 0 -34.5 -11.5t-13.5 -28.5t11.5 -28.5t28.5 -11.5q26 0 43 20q0 -17 -15.5 -30.5t-39.5 -13.5q-31 0 -49.5 18.5t-18.5 45.5q0 34 24.5 56t60.5 22q29 0 54 -16.5t35 -38.5q0 88 -91 127q96 -10 117 -88q0 44 -15.5 84t-38 66t-42 41.5t-34.5 22.5
q18 -4 37.5 -10.5t49 -24.5t51 -42t35.5 -66t11 -93q-37 -28 -39.5 -94t14.5 -151zM270 281q40 0 75 -19t53 -55q-22 21 -52.5 30t-54.5 7q10 -5 17.5 -22t7.5 -37q0 -16 -6 -46t-6 -57q0 -55 43 -106q-87 30 -87 116q-8 -21 -31 -32.5t-45 -11.5q-82 0 -96 79
q35 -38 88 -38q37 0 63.5 23.5t26.5 58.5q0 20 -11 35t-29 15t-30.5 -15t-12.5 -36q-22 44 6.5 77.5t80.5 33.5z" />
    <glyph glyph-name="Ograve" unicode="&#xd2;" horiz-adv-x="709" 
d="M522 765l-8 3q-36 13 -59.5 20t-45.5 10t-33 -4t-11 -25l-2 -1q-14 22 -7.5 37t24.5 17q-53 23 -85 48t-32 61q0 35 28 51t71 10q-33 -16 -33 -53q0 -42 46.5 -79t141.5 -79l9 -4zM644 463q0 112 -68.5 187t-183.5 75q-122 0 -227 -107q-16 -17 -23 -16q-20 4 -42 100h-1
q16 -143 -49 -324q0 -75 19.5 -143t57 -123.5t101 -88.5t144.5 -33q97 0 166 48t99 126.5t20 174.5h-1q-6 -105 -51 -182t-96 -98q12 64 -27 135q7 -45 -0.5 -77.5t-26 -49.5t-40.5 -24.5t-48 -7.5q-78 0 -133 54t-55 132q0 99 67 99q44 0 67 -41q-1 33 -20.5 54.5
t-51.5 21.5q-53 0 -84 -54t-10 -138q-45 95 -45 192q0 78 31 149.5t99 121.5t160 50t153.5 -58.5t66.5 -152.5q-25 48 -75.5 74t-109.5 18q64 -7 109 -59t45 -126q0 -82 -47 -152q110 83 110 243z" />
    <glyph glyph-name="Oacute" unicode="&#xd3;" horiz-adv-x="709" 
d="M267 765l-4 12l9 4q95 42 141.5 79t46.5 79q0 37 -33 53q43 6 71 -10t28 -51q0 -36 -32 -61t-85 -48q18 -2 24.5 -17t-7.5 -37l-2 1q0 18 -11 25t-33 4t-45.5 -10t-59.5 -20zM644 463q0 112 -68.5 187t-183.5 75q-122 0 -227 -107q-16 -17 -23 -16q-20 4 -42 100h-1
q16 -143 -49 -324q0 -75 19.5 -143t57 -123.5t101 -88.5t144.5 -33q97 0 166 48t99 126.5t20 174.5h-1q-6 -105 -51 -182t-96 -98q12 64 -27 135q7 -45 -0.5 -77.5t-26 -49.5t-40.5 -24.5t-48 -7.5q-78 0 -133 54t-55 132q0 99 67 99q44 0 67 -41q-1 33 -20.5 54.5
t-51.5 21.5q-53 0 -84 -54t-10 -138q-45 95 -45 192q0 78 31 149.5t99 121.5t160 50t153.5 -58.5t66.5 -152.5q-25 48 -75.5 74t-109.5 18q64 -7 109 -59t45 -126q0 -82 -47 -152q110 83 110 243z" />
    <glyph glyph-name="Ocircumflex" unicode="&#xd4;" horiz-adv-x="709" 
d="M278 801q-30 0 -43.5 16t-13 34t8.5 33q12 -36 46 -36q35 0 64 28.5t41 54.5t17 47h2q35 -130 118 -130q43 0 50 36q20 -26 8 -54.5t-48 -28.5q-30 0 -58.5 20t-44.5 20q-18 0 -27 -16q-6 10 1.5 22t27.5 7q-22 23 -32 45q-12 -47 -44 -72.5t-73 -25.5zM657 339
q10 -96 -20 -174.5t-99 -126.5t-166 -48q-81 0 -144.5 33t-101 88.5t-57 123.5t-19.5 143q65 181 49 324h1q23 -100 44 -100q6 0 21 16q105 107 227 107q115 0 183.5 -75t68.5 -187q0 -160 -110 -243q47 71 47 152q0 74 -45 126t-109 59q59 8 109.5 -18t75.5 -74
q-5 94 -66.5 152.5t-153.5 58.5t-160 -50t-99 -121.5t-31 -149.5q0 -97 45 -192q-21 84 10 138t84 54q32 0 51.5 -21.5t20.5 -54.5q-23 41 -67 41q-67 0 -67 -99q0 -78 55 -132t133 -54q26 0 48 7.5t40.5 24.5t26 49.5t0.5 77.5q39 -71 27 -135q51 21 96 98t51 182h1z" />
    <glyph glyph-name="Odieresis" unicode="&#xd6;" horiz-adv-x="709" 
d="M349 797q-60 17 -60 70q0 21 14.5 35.5t35.5 14.5q24 0 40 -18.5t10 -51.5q-12 12 -27.5 8.5t-20 -18.5t7.5 -40zM499 797q-60 17 -60 70q0 21 14.5 35.5t35.5 14.5q24 0 40 -18.5t10 -51.5q-12 12 -27.5 8.5t-20 -18.5t7.5 -40zM644 463q0 112 -68.5 187t-183.5 75
q-122 0 -227 -107q-16 -17 -23 -16q-20 4 -42 100h-1q16 -143 -49 -324q0 -75 19.5 -143t57 -123.5t101 -88.5t144.5 -33q97 0 166 48t99 126.5t20 174.5h-1q-6 -105 -51 -182t-96 -98q12 64 -27 135q7 -45 -0.5 -77.5t-26 -49.5t-40.5 -24.5t-48 -7.5q-78 0 -133 54
t-55 132q0 99 67 99q44 0 67 -41q-1 33 -20.5 54.5t-51.5 21.5q-53 0 -84 -54t-10 -138q-45 95 -45 192q0 78 31 149.5t99 121.5t160 50t153.5 -58.5t66.5 -152.5q-25 48 -75.5 74t-109.5 18q64 -7 109 -59t45 -126q0 -82 -47 -152q110 83 110 243z" />
    <glyph glyph-name="Ugrave" unicode="&#xd9;" horiz-adv-x="686" 
d="M472 731l-8 3q-36 13 -59.5 20t-45.5 10t-33 -4t-11 -25l-2 -1q-14 22 -7.5 37t24.5 17q-53 23 -85 48t-32 61q0 35 28 51t71 10q-33 -16 -33 -53q0 -42 46.5 -79t141.5 -79l9 -4zM447 280q17 91 14.5 159t-39.5 100q-3 51 11 93t35.5 66t51 42t49 24.5t37.5 10.5
q-15 -7 -34.5 -22.5t-42 -41.5t-38 -66t-15.5 -84q21 78 117 88q-91 -39 -91 -127q9 23 34 39.5t55 16.5q35 0 59 -20t24 -55q0 -28 -20.5 -48t-45.5 -20q-24 0 -39.5 13.5t-15.5 30.5q17 -20 43 -20q17 0 28.5 11.5t11.5 28.5t-13.5 28.5t-32.5 11.5q-35 0 -57.5 -31.5
t-22.5 -100.5q0 -79 5 -129q-26 10 -68 2zM52 596q0 30 29.5 57t70.5 27q58 0 91.5 -44t33.5 -119q0 -164 -201 -402q0 -34 17 -56.5t46 -22.5q28 0 40 14q-23 1 -41 21t-14 52t41 59q-19 -27 -9 -61t45 -34q36 0 95 57l28 27.5t28.5 27t26 21t31 19t33 10.5t41.5 5
q93 0 131 -76q-59 39 -116 36q30 -22 30 -66q0 -12 -4.5 -35.5t-4.5 -45.5q0 -37 13.5 -70t26.5 -46q-31 7 -61 37t-25 72q-8 -16 -27 -24.5t-36 -8.5q-32 0 -48 21t-12 54q18 -38 56 -38q30 0 51 24t21 58q0 26 -12 44t-33 18q-23 0 -51 -22.5t-56 -54.5l-57.5 -64
t-65.5 -54.5t-71 -22.5q-41 0 -72.5 27.5t-40.5 72.5q87 96 139.5 211t52.5 211q0 55 -22.5 88.5t-60.5 33.5q-50 0 -77 -38z" />
    <glyph glyph-name="Uacute" unicode="&#xda;" horiz-adv-x="686" 
d="M217 731l-4 12l9 4q95 42 141.5 79t46.5 79q0 37 -33 53q43 6 71 -10t28 -51q0 -36 -32 -61t-85 -48q18 -2 24.5 -17t-7.5 -37l-2 1q0 18 -11 25t-33 4t-45.5 -10t-59.5 -20zM447 280q17 91 14.5 159t-39.5 100q-3 51 11 93t35.5 66t51 42t49 24.5t37.5 10.5
q-15 -7 -34.5 -22.5t-42 -41.5t-38 -66t-15.5 -84q21 78 117 88q-91 -39 -91 -127q9 23 34 39.5t55 16.5q35 0 59 -20t24 -55q0 -28 -20.5 -48t-45.5 -20q-24 0 -39.5 13.5t-15.5 30.5q17 -20 43 -20q17 0 28.5 11.5t11.5 28.5t-13.5 28.5t-32.5 11.5q-35 0 -57.5 -31.5
t-22.5 -100.5q0 -79 5 -129q-26 10 -68 2zM52 596q0 30 29.5 57t70.5 27q58 0 91.5 -44t33.5 -119q0 -164 -201 -402q0 -34 17 -56.5t46 -22.5q28 0 40 14q-23 1 -41 21t-14 52t41 59q-19 -27 -9 -61t45 -34q36 0 95 57l28 27.5t28.5 27t26 21t31 19t33 10.5t41.5 5
q93 0 131 -76q-59 39 -116 36q30 -22 30 -66q0 -12 -4.5 -35.5t-4.5 -45.5q0 -37 13.5 -70t26.5 -46q-31 7 -61 37t-25 72q-8 -16 -27 -24.5t-36 -8.5q-32 0 -48 21t-12 54q18 -38 56 -38q30 0 51 24t21 58q0 26 -12 44t-33 18q-23 0 -51 -22.5t-56 -54.5l-57.5 -64
t-65.5 -54.5t-71 -22.5q-41 0 -72.5 27.5t-40.5 72.5q87 96 139.5 211t52.5 211q0 55 -22.5 88.5t-60.5 33.5q-50 0 -77 -38z" />
    <glyph glyph-name="Ucircumflex" unicode="&#xdb;" horiz-adv-x="686" 
d="M228 767q-30 0 -43.5 16t-13 34t8.5 33q12 -36 46 -36q35 0 64 28.5t41 54.5t17 47h2q35 -130 118 -130q43 0 50 36q20 -26 8 -54.5t-48 -28.5q-30 0 -58.5 20t-44.5 20q-18 0 -27 -16q-6 10 1.5 22t27.5 7q-22 23 -32 45q-12 -47 -44 -72.5t-73 -25.5zM591 578
q35 0 59 -20t24 -55q0 -28 -20.5 -48t-45.5 -20q-24 0 -39.5 13.5t-15.5 30.5q17 -20 43 -20q17 0 28.5 11.5t11.5 28.5t-13.5 28.5t-32.5 11.5q-35 0 -57.5 -31.5t-22.5 -100.5q0 -79 5 -129q-26 10 -68 2q17 91 14.5 159t-39.5 100q-3 51 11 93t35.5 66t51 42t49 24.5
t37.5 10.5q-15 -7 -34.5 -22.5t-42 -41.5t-38 -66t-15.5 -84q21 78 117 88q-91 -39 -91 -127q9 23 34 39.5t55 16.5zM615 178q-59 39 -116 36q30 -22 30 -66q0 -12 -4.5 -35.5t-4.5 -45.5q0 -37 13.5 -70t26.5 -46q-31 7 -61 37t-25 72q-8 -16 -27 -24.5t-36 -8.5
q-32 0 -48 21t-12 54q18 -38 56 -38q30 0 51 24t21 58q0 26 -12 44t-33 18q-23 0 -51 -22.5t-56 -54.5l-57.5 -64t-65.5 -54.5t-71 -22.5q-41 0 -72.5 27.5t-40.5 72.5q87 96 139.5 211t52.5 211q0 55 -22.5 88.5t-60.5 33.5q-50 0 -77 -38q0 30 29.5 57t70.5 27
q58 0 91.5 -44t33.5 -119q0 -164 -201 -402q0 -34 17 -56.5t46 -22.5q28 0 40 14q-23 1 -41 21t-14 52t41 59q-19 -27 -9 -61t45 -34q36 0 95 57l28 27.5t28.5 27t26 21t31 19t33 10.5t41.5 5q93 0 131 -76z" />
    <glyph glyph-name="Udieresis" unicode="&#xdc;" horiz-adv-x="686" 
d="M299 763q-60 17 -60 70q0 21 14.5 35.5t35.5 14.5q24 0 40 -18.5t10 -51.5q-12 12 -27.5 8.5t-20 -18.5t7.5 -40zM449 763q-60 17 -60 70q0 21 14.5 35.5t35.5 14.5q24 0 40 -18.5t10 -51.5q-12 12 -27.5 8.5t-20 -18.5t7.5 -40zM447 280q17 91 14.5 159t-39.5 100
q-3 51 11 93t35.5 66t51 42t49 24.5t37.5 10.5q-15 -7 -34.5 -22.5t-42 -41.5t-38 -66t-15.5 -84q21 78 117 88q-91 -39 -91 -127q9 23 34 39.5t55 16.5q35 0 59 -20t24 -55q0 -28 -20.5 -48t-45.5 -20q-24 0 -39.5 13.5t-15.5 30.5q17 -20 43 -20q17 0 28.5 11.5t11.5 28.5
t-13.5 28.5t-32.5 11.5q-35 0 -57.5 -31.5t-22.5 -100.5q0 -79 5 -129q-26 10 -68 2zM52 596q0 30 29.5 57t70.5 27q58 0 91.5 -44t33.5 -119q0 -164 -201 -402q0 -34 17 -56.5t46 -22.5q28 0 40 14q-23 1 -41 21t-14 52t41 59q-19 -27 -9 -61t45 -34q36 0 95 57l28 27.5
t28.5 27t26 21t31 19t33 10.5t41.5 5q93 0 131 -76q-59 39 -116 36q30 -22 30 -66q0 -12 -4.5 -35.5t-4.5 -45.5q0 -37 13.5 -70t26.5 -46q-31 7 -61 37t-25 72q-8 -16 -27 -24.5t-36 -8.5q-32 0 -48 21t-12 54q18 -38 56 -38q30 0 51 24t21 58q0 26 -12 44t-33 18
q-23 0 -51 -22.5t-56 -54.5l-57.5 -64t-65.5 -54.5t-71 -22.5q-41 0 -72.5 27.5t-40.5 72.5q87 96 139.5 211t52.5 211q0 55 -22.5 88.5t-60.5 33.5q-50 0 -77 -38z" />
    <glyph glyph-name="Yacute" unicode="&#xdd;" horiz-adv-x="704" 
d="M224 723l-8 -3l-4 12l9 4q95 42 141.5 79t46.5 79q0 37 -33 53q43 6 71 -10t28 -51q0 -36 -32 -61t-85 -48q18 -2 24.5 -17t-7.5 -37l-2 1q0 18 -11 25t-33 4t-45.5 -10t-59.5 -20zM591 578q35 0 59 -20t24 -55q0 -28 -20.5 -48t-45.5 -20q-24 0 -39.5 13.5t-15.5 30.5
q17 -20 43 -20q17 0 28.5 11.5t11.5 28.5t-13.5 28.5t-32.5 11.5q-35 0 -57.5 -31.5t-22.5 -100.5q0 -74 5 -126q-30 7 -68 0q17 90 14.5 158.5t-39.5 99.5q-3 51 11 93t35.5 66t51 42t49 24.5t37.5 10.5q-15 -7 -34.5 -22.5t-42 -41.5t-38 -66t-15.5 -84q21 78 117 88
q-91 -39 -91 -127q9 23 34 39.5t55 16.5zM616 186q-60 42 -106 38q42 -37 72.5 -100.5t30.5 -136.5q0 -99 -75.5 -165.5t-208.5 -79.5l-1 2q48 13 83.5 57t35.5 87q0 33 -20 53t-58 20q-48 0 -78 -29t-30 -71q0 -26 11.5 -41.5t31.5 -15.5q37 0 55 39q7 -33 -11.5 -54
t-49.5 -21q-30 0 -51 18.5t-26 40.5q-25 -11 -40.5 7t-10.5 45q6 -19 22.5 -24t25.5 6q0 57 46 98t109 41q57 0 87 -29.5t30 -72.5q0 -56 -43 -101q50 23 84.5 70t34.5 113q0 73 -31 132q-14 -45 -44 -65t-60 -20q-33 0 -51 21t-14 54q0 -5 5 -13t20 -16.5t36 -8.5
q29 0 50 22.5t21 60.5q0 28 -14.5 47t-38.5 19q-26 0 -55.5 -23t-57 -55.5l-57 -65.5t-65.5 -56t-72 -23q-41 0 -75 28t-43 71q93 99 145.5 205.5t52.5 203.5q0 71 -24.5 106.5t-64.5 35.5q-50 0 -77 -38q0 32 26.5 58t73.5 26q63 0 98.5 -47.5t35.5 -135.5
q0 -103 -58 -197.5t-172 -210.5q9 -25 33 -45t54 -20q24 0 36 10q-23 1 -40 21t-12.5 51.5t38.5 58.5q-19 -26 -10 -60t42 -34q47 0 105 66q53 60 85 83q50 34 101 34q89 0 128 -74z" />
    <glyph glyph-name="agrave" unicode="&#xe0;" horiz-adv-x="552" 
d="M263 648q-53 23 -85 48t-32 61q0 35 28 51t71 10q-33 -16 -33 -53q0 -42 46.5 -79t141.5 -79l9 -4l-4 -12l-8 3q-36 13 -59.5 20t-45.5 10t-33 -4t-11 -25l-2 -1q-14 22 -7.5 37t24.5 17zM553 114q18 -55 0.5 -85.5t-57.5 -30.5q-65 0 -94 74q-8 -32 -28 -50.5t-46 -20.5
q51 27 51 108q0 14 -5 55t-7 67q-23 -108 -80 -173t-130 -65q-62 0 -95 32.5t-33 81.5q0 55 42 93.5t136 81.5q34 15 50 23.5t33.5 20.5t21.5 23.5t4 27t-9 36.5l2 1q69 -109 -8 -220l-2 1q25 53 1 74t-87 -3q-59 -23 -94.5 -62t-35.5 -87q0 -36 21 -58t60 -22
q78 0 138 82.5t60 182.5q0 70 -40.5 123.5t-101.5 53.5q-35 0 -56 -22.5t-21 -60.5q0 -32 15 -62.5t35 -45.5v-1q-42 10 -70 42t-28 74q0 52 33.5 85t89.5 33q63 0 109.5 -59t50.5 -124q12 146 72 225l1 -1q-43 -86 -43 -270q0 -102 25.5 -176.5t73.5 -74.5q23 0 36.5 19
t7.5 54h2z" />
    <glyph glyph-name="aacute" unicode="&#xe1;" 
d="M188 584l-8 -3l-4 12l9 4q95 42 141.5 79t46.5 79q0 37 -33 53q43 6 71 -10t28 -51q0 -36 -32 -61t-85 -48q18 -2 24.5 -17t-7.5 -37l-2 1q0 18 -11 25t-33 4t-45.5 -10t-59.5 -20zM553 114q18 -55 0.5 -85.5t-57.5 -30.5q-65 0 -94 74q-8 -32 -28 -50.5t-46 -20.5
q51 27 51 108q0 14 -5 55t-7 67q-23 -108 -80 -173t-130 -65q-62 0 -95 32.5t-33 81.5q0 55 42 93.5t136 81.5q34 15 50 23.5t33.5 20.5t21.5 23.5t4 27t-9 36.5l2 1q69 -109 -8 -220l-2 1q25 53 1 74t-87 -3q-59 -23 -94.5 -62t-35.5 -87q0 -36 21 -58t60 -22
q78 0 138 82.5t60 182.5q0 70 -40.5 123.5t-101.5 53.5q-35 0 -56 -22.5t-21 -60.5q0 -32 15 -62.5t35 -45.5v-1q-42 10 -70 42t-28 74q0 52 33.5 85t89.5 33q63 0 109.5 -59t50.5 -124q12 146 72 225l1 -1q-43 -86 -43 -270q0 -102 25.5 -176.5t73.5 -74.5q23 0 36.5 19
t7.5 54h2z" />
    <glyph glyph-name="acircumflex" unicode="&#xe2;" horiz-adv-x="552" 
d="M161 618q-30 0 -43.5 16t-13 34t8.5 33q12 -36 46 -36q35 0 64 28.5t41 54.5t17 47h2q35 -130 118 -130q43 0 50 36q20 -25 8 -54t-48 -29q-30 0 -58.5 20t-44.5 20q-18 0 -27 -16q-6 10 1.5 22t27.5 7q-22 23 -32 45q-12 -47 -44 -72.5t-73 -25.5zM553 114
q18 -55 0.5 -85.5t-57.5 -30.5q-65 0 -94 74q-8 -32 -28 -50.5t-46 -20.5q51 27 51 108q0 14 -5 55t-7 67q-23 -108 -80 -173t-130 -65q-62 0 -95 32.5t-33 81.5q0 55 42 93.5t136 81.5q34 15 50 23.5t33.5 20.5t21.5 23.5t4 27t-9 36.5l2 1q69 -109 -8 -220l-2 1
q25 53 1 74t-87 -3q-59 -23 -94.5 -62t-35.5 -87q0 -36 21 -58t60 -22q78 0 138 82.5t60 182.5q0 70 -40.5 123.5t-101.5 53.5q-35 0 -56 -22.5t-21 -60.5q0 -32 15 -62.5t35 -45.5v-1q-42 10 -70 42t-28 74q0 52 33.5 85t89.5 33q63 0 109.5 -59t50.5 -124q12 146 72 225
l1 -1q-43 -86 -43 -270q0 -102 25.5 -176.5t73.5 -74.5q23 0 36.5 19t7.5 54h2z" />
    <glyph glyph-name="adieresis" unicode="&#xe4;" horiz-adv-x="552" 
d="M217 630q-60 17 -60 70q0 21 14.5 35.5t35.5 14.5q24 0 40 -18.5t10 -51.5q-12 12 -27.5 8.5t-20 -18.5t7.5 -40zM367 630q-60 17 -60 70q0 21 14.5 35.5t35.5 14.5q24 0 40 -18.5t10 -51.5q-12 12 -27.5 8.5t-20 -18.5t7.5 -40zM553 114q18 -55 0.5 -85.5t-57.5 -30.5
q-65 0 -94 74q-8 -32 -28 -50.5t-46 -20.5q51 27 51 108q0 14 -5 55t-7 67q-23 -108 -80 -173t-130 -65q-62 0 -95 32.5t-33 81.5q0 55 42 93.5t136 81.5q34 15 50 23.5t33.5 20.5t21.5 23.5t4 27t-9 36.5l2 1q69 -109 -8 -220l-2 1q25 53 1 74t-87 -3q-59 -23 -94.5 -62
t-35.5 -87q0 -36 21 -58t60 -22q78 0 138 82.5t60 182.5q0 70 -40.5 123.5t-101.5 53.5q-35 0 -56 -22.5t-21 -60.5q0 -32 15 -62.5t35 -45.5v-1q-42 10 -70 42t-28 74q0 52 33.5 85t89.5 33q63 0 109.5 -59t50.5 -124q12 146 72 225l1 -1q-43 -86 -43 -270
q0 -102 25.5 -176.5t73.5 -74.5q23 0 36.5 19t7.5 54h2z" />
    <glyph glyph-name="ccedilla" unicode="&#xe7;" 
d="M159 408q0 25 -27 32t-78 -14l-1 2q55 44 130.5 68.5t139.5 24.5q106 0 174 -77q25 92 -1 160l3 2q73 -166 -6 -293l-3 1q-20 78 -63 129.5t-109 51.5q-77 0 -120.5 -65t-30.5 -172h-1q-25 43 -46 53l-21 113h1q15 -39 38 -39q21 0 21 23zM544 161q3 -84 -50.5 -127.5
t-124.5 -43.5q-78 0 -135.5 49.5t-80.5 118.5q-8 -114 74 -161q-57 15 -83.5 56t-35.5 120q-3 26 -4.5 36t-6 25t-11.5 20t-19 5q-32 0 -44 -42q-3 12 -3 21q0 28 17 46t43 18q22 0 41 -22t50 -78q41 -73 89.5 -117t115.5 -44q54 0 102.5 31t64.5 89h1zM271 -12
q31 -16 59.5 -20t113.5 -2v-5q-62 1 -103.5 -6t-62.5 -21.5t-30 -29t-13 -36.5q12 25 39 46.5t66 21.5q35 0 55.5 -14.5t20.5 -41.5q0 -47 -43 -79.5t-116 -32.5q-45 0 -71 18.5t-33 39.5l2 1q31 -41 103 -41q47 0 79 26.5t32 62.5q0 46 -44 46q-31 0 -61 -30t-39 -71l-2 -7
h-2q4 100 50 175z" />
    <glyph glyph-name="egrave" unicode="&#xe8;" horiz-adv-x="566" 
d="M440 581l-8 3q-36 13 -59.5 20t-45.5 10t-33 -4t-11 -25l-2 -1q-14 22 -7.5 37t24.5 17q-53 23 -85 48t-32 61q0 35 28 51t71 10q-33 -16 -33 -53q0 -42 46.5 -79t141.5 -79l9 -4zM178 291v1q139 -19 202.5 17.5t63.5 98.5q0 41 -27 67t-75 26q-57 0 -97 -35.5t-58 -86.5
t-20 -112q-28 45 -59 54l-17 105h1q14 -38 39 -38q21 0 21 23q0 16 -11 26t-35.5 9t-55.5 -18l-1 1q50 40 137 66t151 26q74 0 120.5 -37.5t55.5 -101.5q-57 -16 -57 -46q0 -11 10.5 -17.5t36.5 -1t62 29.5l1 -1q-45 -43 -132 -78t-187 -39q74 15 107 37q-101 -3 -176 25z
M357 43q53 0 98.5 28t62.5 89l2 -1q-5 -80 -49.5 -121.5t-114.5 -41.5q-95 0 -153 62.5t-71 152.5q-1 -92 17.5 -141t58.5 -77q-50 17 -71 53.5t-32 116.5q-9 64 -15.5 85.5t-23.5 21.5q-31 0 -40 -49q-3 15 -3 21q0 28 17 46.5t41 18.5q13 0 22.5 -4t18.5 -16t14 -21
t16 -33t18 -38q77 -152 187 -152z" />
    <glyph glyph-name="eacute" unicode="&#xe9;" 
d="M180 581l-4 12l9 4q95 42 141.5 79t46.5 79q0 37 -33 53q43 6 71 -10t28 -51q0 -36 -32 -61t-85 -48q18 -2 24.5 -17t-7.5 -37l-2 1q0 18 -11 25t-33 4t-45.5 -10t-59.5 -20zM178 291v1q139 -19 202.5 17.5t63.5 98.5q0 41 -27 67t-75 26q-57 0 -97 -35.5t-58 -86.5
t-20 -112q-28 45 -59 54l-17 105h1q14 -38 39 -38q21 0 21 23q0 16 -11 26t-35.5 9t-55.5 -18l-1 1q50 40 137 66t151 26q74 0 120.5 -37.5t55.5 -101.5q-57 -16 -57 -46q0 -11 10.5 -17.5t36.5 -1t62 29.5l1 -1q-45 -43 -132 -78t-187 -39q74 15 107 37q-101 -3 -176 25z
M357 43q53 0 98.5 28t62.5 89l2 -1q-5 -80 -49.5 -121.5t-114.5 -41.5q-95 0 -153 62.5t-71 152.5q-1 -92 17.5 -141t58.5 -77q-50 17 -71 53.5t-32 116.5q-9 64 -15.5 85.5t-23.5 21.5q-31 0 -40 -49q-3 15 -3 21q0 28 17 46.5t41 18.5q13 0 22.5 -4t18.5 -16t14 -21
t16 -33t18 -38q77 -152 187 -152z" />
    <glyph glyph-name="ecircumflex" unicode="&#xea;" horiz-adv-x="566" 
d="M196 608q-30 0 -43.5 16t-13 34t8.5 33q12 -36 46 -36q35 0 64 28.5t41 54.5t17 47h2q35 -130 118 -130q43 0 50 36q20 -25 8 -54t-48 -29q-30 0 -58.5 20t-44.5 20q-18 0 -27 -16q-6 10 1.5 22t27.5 7q-22 23 -32 45q-12 -47 -44 -72.5t-73 -25.5zM152 411q0 16 -11 26
t-35.5 9t-55.5 -18l-1 1q50 40 137 66t151 26q74 0 120.5 -37.5t55.5 -101.5q-57 -16 -57 -46q0 -11 10.5 -17.5t36.5 -1t62 29.5l1 -1q-45 -43 -132 -78t-187 -39q74 15 107 37q-101 -3 -176 25v1q139 -19 202.5 17.5t63.5 98.5q0 41 -27 67t-75 26q-57 0 -97 -35.5
t-58 -86.5t-20 -112q-28 45 -59 54l-17 105h1q14 -38 39 -38q21 0 21 23zM357 43q53 0 98.5 28t62.5 89l2 -1q-5 -80 -49.5 -121.5t-114.5 -41.5q-95 0 -153 62.5t-71 152.5q-1 -92 17.5 -141t58.5 -77q-50 17 -71 53.5t-32 116.5q-9 64 -15.5 85.5t-23.5 21.5
q-31 0 -40 -49q-3 15 -3 21q0 28 17 46.5t41 18.5q13 0 22.5 -4t18.5 -16t14 -21t16 -33t18 -38q77 -152 187 -152z" />
    <glyph glyph-name="edieresis" unicode="&#xeb;" horiz-adv-x="566" 
d="M252 620q-60 17 -60 70q0 21 14.5 35.5t35.5 14.5q24 0 40 -18.5t10 -51.5q-12 12 -27.5 8.5t-20 -18.5t7.5 -40zM402 620q-60 17 -60 70q0 21 14.5 35.5t35.5 14.5q24 0 40 -18.5t10 -51.5q-12 12 -27.5 8.5t-20 -18.5t7.5 -40zM178 291v1q139 -19 202.5 17.5t63.5 98.5
q0 41 -27 67t-75 26q-57 0 -97 -35.5t-58 -86.5t-20 -112q-28 45 -59 54l-17 105h1q14 -38 39 -38q21 0 21 23q0 16 -11 26t-35.5 9t-55.5 -18l-1 1q50 40 137 66t151 26q74 0 120.5 -37.5t55.5 -101.5q-57 -16 -57 -46q0 -11 10.5 -17.5t36.5 -1t62 29.5l1 -1
q-45 -43 -132 -78t-187 -39q74 15 107 37q-101 -3 -176 25zM357 43q53 0 98.5 28t62.5 89l2 -1q-5 -80 -49.5 -121.5t-114.5 -41.5q-95 0 -153 62.5t-71 152.5q-1 -92 17.5 -141t58.5 -77q-50 17 -71 53.5t-32 116.5q-9 64 -15.5 85.5t-23.5 21.5q-31 0 -40 -49q-3 15 -3 21
q0 28 17 46.5t41 18.5q13 0 22.5 -4t18.5 -16t14 -21t16 -33t18 -38q77 -152 187 -152z" />
    <glyph glyph-name="igrave" unicode="&#xec;" horiz-adv-x="329" 
d="M297 607l9 -4l-4 -12l-8 3q-36 13 -59.5 20t-45.5 10t-33 -4t-11 -25l-2 -1q-14 22 -7.5 37t24.5 17q-53 23 -85 48t-32 61q0 35 28 51t71 10q-33 -16 -33 -53q0 -42 46.5 -79t141.5 -79zM131 463q35 0 48 -41q0 33 -26 65.5t-65 44.5q24 -2 39.5 -5t33.5 -11t30 -24.5
t18 -40.5q-1 84 -34 114q34 -14 56 -51.5t18 -84.5q-19 -26 -25.5 -47t-6.5 -55q0 -20 7 -62q-27 6 -58 -5q5 38 5 87q0 36 -13.5 58.5t-36.5 22.5q-14 0 -24.5 -11.5t-10.5 -26.5h-1q-13 37 4.5 55t41.5 18zM188 242q73 0 106 -74q-37 33 -77 37q21 -21 21 -58
q0 -17 -4.5 -39t-4.5 -37q0 -48 40 -100q-31 9 -58 33.5t-28 55.5q-4 -11 -17 -19t-31 -8q-54 0 -65 79q20 -39 58 -39q26 0 45 17.5t19 49.5q0 22 -10.5 37.5t-28.5 15.5q-20 0 -34 -16t-14 -42q-12 15 -12 34q0 31 26.5 52t68.5 21z" />
    <glyph glyph-name="iacute" unicode="&#xed;" horiz-adv-x="329" 
d="M217 585q0 18 -11 25t-33 4t-45.5 -10t-59.5 -20l-8 -3l-4 12l9 4q95 42 141.5 79t46.5 79q0 37 -33 53q43 6 71 -10t28 -51q0 -36 -32 -61t-85 -48q18 -2 24.5 -17t-7.5 -37zM175 565q34 -14 56 -51.5t18 -84.5q-19 -26 -25.5 -47t-6.5 -55q0 -20 7 -62q-27 6 -58 -5
q5 38 5 87q0 36 -13.5 58.5t-36.5 22.5q-14 0 -24.5 -11.5t-10.5 -26.5h-1q-13 37 4.5 55t41.5 18q35 0 48 -41q0 33 -26 65.5t-65 44.5q24 -2 39.5 -5t33.5 -11t30 -24.5t18 -40.5q-1 84 -34 114zM188 242q73 0 106 -74q-37 33 -77 37q21 -21 21 -58q0 -17 -4.5 -39
t-4.5 -37q0 -48 40 -100q-31 9 -58 33.5t-28 55.5q-4 -11 -17 -19t-31 -8q-54 0 -65 79q20 -39 58 -39q26 0 45 17.5t19 49.5q0 22 -10.5 37.5t-28.5 15.5q-20 0 -34 -16t-14 -42q-12 15 -12 34q0 31 26.5 52t68.5 21z" />
    <glyph glyph-name="icircumflex" unicode="&#xee;" horiz-adv-x="329" 
d="M348 701q20 -25 8 -54t-48 -29q-30 0 -58.5 20t-44.5 20q-18 0 -27 -16q-6 10 1.5 22t27.5 7q-22 23 -32 45q-12 -47 -44 -72.5t-73 -25.5q-30 0 -43.5 16t-13 34t8.5 33q12 -36 46 -36q35 0 64 28.5t41 54.5t17 47h2q35 -130 118 -130q43 0 50 36zM131 463q35 0 48 -41
q0 33 -26 65.5t-65 44.5q24 -2 39.5 -5t33.5 -11t30 -24.5t18 -40.5q-1 84 -34 114q34 -14 56 -51.5t18 -84.5q-19 -26 -25.5 -47t-6.5 -55q0 -20 7 -62q-27 6 -58 -5q5 38 5 87q0 36 -13.5 58.5t-36.5 22.5q-14 0 -24.5 -11.5t-10.5 -26.5h-1q-13 37 4.5 55t41.5 18z
M188 242q73 0 106 -74q-37 33 -77 37q21 -21 21 -58q0 -17 -4.5 -39t-4.5 -37q0 -48 40 -100q-31 9 -58 33.5t-28 55.5q-4 -11 -17 -19t-31 -8q-54 0 -65 79q20 -39 58 -39q26 0 45 17.5t19 49.5q0 22 -10.5 37.5t-28.5 15.5q-20 0 -34 -16t-14 -42q-12 15 -12 34
q0 31 26.5 52t68.5 21z" />
    <glyph glyph-name="idieresis" unicode="&#xef;" horiz-adv-x="329" 
d="M114 630q-60 17 -60 70q0 21 14.5 35.5t35.5 14.5q24 0 40 -18.5t10 -51.5q-12 12 -27.5 8.5t-20 -18.5t7.5 -40zM254 750q24 0 40 -18.5t10 -51.5q-12 12 -27.5 8.5t-20 -18.5t7.5 -40q-60 17 -60 70q0 21 14.5 35.5t35.5 14.5zM175 565q34 -14 56 -51.5t18 -84.5
q-19 -26 -25.5 -47t-6.5 -55q0 -20 7 -62q-27 6 -58 -5q5 38 5 87q0 36 -13.5 58.5t-36.5 22.5q-14 0 -24.5 -11.5t-10.5 -26.5h-1q-13 37 4.5 55t41.5 18q35 0 48 -41q0 33 -26 65.5t-65 44.5q24 -2 39.5 -5t33.5 -11t30 -24.5t18 -40.5q-1 84 -34 114zM188 242
q73 0 106 -74q-37 33 -77 37q21 -21 21 -58q0 -17 -4.5 -39t-4.5 -37q0 -48 40 -100q-31 9 -58 33.5t-28 55.5q-4 -11 -17 -19t-31 -8q-54 0 -65 79q20 -39 58 -39q26 0 45 17.5t19 49.5q0 22 -10.5 37.5t-28.5 15.5q-20 0 -34 -16t-14 -42q-12 15 -12 34q0 31 26.5 52
t68.5 21z" />
    <glyph glyph-name="ograve" unicode="&#xf2;" horiz-adv-x="588" 
d="M448 591l-8 3q-36 13 -59.5 20t-45.5 10t-33 -4t-11 -25l-2 -1q-14 22 -7.5 37t24.5 17q-53 23 -85 48t-32 61q0 35 28 51t71 10q-33 -16 -33 -53q0 -42 46.5 -79t141.5 -79l9 -4zM323 35q144 0 209 117q-22 -75 -81 -118.5t-132 -43.5q-140 0 -218 140q7 -73 107 -137
q-85 21 -123.5 93.5t-34.5 176.5q52 115 20 271l2 1q30 -79 58 -99q29 37 81.5 61t107.5 24q100 0 164.5 -64t64.5 -155q0 -84 -50.5 -142t-146.5 -79q110 39 110 144q0 66 -44 126q84 -49 81 -149q45 109 -12 190.5t-168 81.5q-87 0 -148 -58.5t-61 -158.5q0 -98 64 -160
t150 -62z" />
    <glyph glyph-name="oacute" unicode="&#xf3;" 
d="M180 581l-4 12l9 4q95 42 141.5 79t46.5 79q0 37 -33 53q43 6 71 -10t28 -51q0 -36 -32 -61t-85 -48q18 -2 24.5 -17t-7.5 -37l-2 1q0 18 -11 25t-33 4t-45.5 -10t-59.5 -20zM323 35q144 0 209 117q-22 -75 -81 -118.5t-132 -43.5q-140 0 -218 140q7 -73 107 -137
q-85 21 -123.5 93.5t-34.5 176.5q52 115 20 271l2 1q30 -79 58 -99q29 37 81.5 61t107.5 24q100 0 164.5 -64t64.5 -155q0 -84 -50.5 -142t-146.5 -79q110 39 110 144q0 66 -44 126q84 -49 81 -149q45 109 -12 190.5t-168 81.5q-87 0 -148 -58.5t-61 -158.5q0 -98 64 -160
t150 -62z" />
    <glyph glyph-name="ocircumflex" unicode="&#xf4;" horiz-adv-x="588" 
d="M204 618q-30 0 -43.5 16t-13 34t8.5 33q12 -36 46 -36q35 0 64 28.5t41 54.5t17 47h2q35 -130 118 -130q43 0 50 36q20 -25 8 -54t-48 -29q-30 0 -58.5 20t-44.5 20q-18 0 -27 -16q-6 10 1.5 22t27.5 7q-22 23 -32 45q-12 -47 -44 -72.5t-73 -25.5zM323 35q144 0 209 117
q-22 -75 -81 -118.5t-132 -43.5q-140 0 -218 140q7 -73 107 -137q-85 21 -123.5 93.5t-34.5 176.5q52 115 20 271l2 1q30 -79 58 -99q29 37 81.5 61t107.5 24q100 0 164.5 -64t64.5 -155q0 -84 -50.5 -142t-146.5 -79q110 39 110 144q0 66 -44 126q84 -49 81 -149
q45 109 -12 190.5t-168 81.5q-87 0 -148 -58.5t-61 -158.5q0 -98 64 -160t150 -62z" />
    <glyph glyph-name="odieresis" unicode="&#xf6;" horiz-adv-x="588" 
d="M260 630q-60 17 -60 70q0 21 14.5 35.5t35.5 14.5q24 0 40 -18.5t10 -51.5q-12 12 -27.5 8.5t-20 -18.5t7.5 -40zM410 630q-60 17 -60 70q0 21 14.5 35.5t35.5 14.5q24 0 40 -18.5t10 -51.5q-12 12 -27.5 8.5t-20 -18.5t7.5 -40zM323 35q144 0 209 117
q-22 -75 -81 -118.5t-132 -43.5q-140 0 -218 140q7 -73 107 -137q-85 21 -123.5 93.5t-34.5 176.5q52 115 20 271l2 1q30 -79 58 -99q29 37 81.5 61t107.5 24q100 0 164.5 -64t64.5 -155q0 -84 -50.5 -142t-146.5 -79q110 39 110 144q0 66 -44 126q84 -49 81 -149
q45 109 -12 190.5t-168 81.5q-87 0 -148 -58.5t-61 -158.5q0 -98 64 -160t150 -62z" />
    <glyph glyph-name="ugrave" unicode="&#xf9;" horiz-adv-x="654" 
d="M319 648q-53 23 -85 48t-32 61q0 35 28 51t71 10q-33 -16 -33 -53q0 -42 46.5 -79t141.5 -79l9 -4l-4 -12l-8 3q-36 13 -59.5 20t-45.5 10t-33 -4t-11 -25l-2 -1q-14 22 -7.5 37t24.5 17zM548 479q35 0 58 -20.5t23 -53.5q0 -27 -16.5 -42.5t-40.5 -15.5q-17 0 -30 10
t-13 27q9 -13 29 -13q15 0 24 9t9 25t-12.5 26.5t-32.5 10.5q-71 0 -71 -120q0 -35 5 -61q-28 7 -58 -1q9 40 9 64q0 41 -6.5 66t-24.5 54q-3 48 18 85t54 50q-34 -31 -35 -113q8 32 28.5 50t40.5 23t53 7q-40 -12 -66 -44t-26 -65q28 42 81 42zM528 77q47 0 78 37
q-17 -77 -85 -77q-19 0 -35.5 8t-22.5 17q-1 -31 -28 -53.5t-59 -31.5q23 29 32 49t9 47q0 15 -4 37t-4 39q0 38 20 58q-43 0 -97 -70q-52 -68 -85 -134q-19 -13 -52 -13q-54 0 -89 35t-35 91q0 39 27 89l54 102.5t27 99.5q0 37 -16 58.5t-39 21.5q-17 0 -26.5 -9t-9.5 -22
q0 -29 30 -50q-29 0 -48.5 16.5t-19.5 41.5q0 26 20 46t58 20q31 0 53.5 -17t32.5 -40q12 26 42 26q16 0 26 -14t2 -35q-8 20 -28 20q-29 0 -29 -57q0 -90 -91 -191q38 38 77 38q21 0 37 -14t15 -37q-16 23 -52 23q-45 0 -73 -32t-28 -78q0 -34 18.5 -56.5t54.5 -22.5
q28 0 49 17.5t56 58.5q7 8 10 12q57 68 90.5 91.5t77.5 23.5q38 0 62.5 -20t24.5 -52q0 -25 -14 -37q0 26 -14 42t-34 16q-38 0 -38 -46q0 -30 21 -51t52 -21z" />
    <glyph glyph-name="uacute" unicode="&#xfa;" 
d="M188 584l-8 -3l-4 12l9 4q95 42 141.5 79t46.5 79q0 37 -33 53q43 6 71 -10t28 -51q0 -36 -32 -61t-85 -48q18 -2 24.5 -17t-7.5 -37l-2 1q0 18 -11 25t-33 4t-45.5 -10t-59.5 -20zM548 479q35 0 58 -20.5t23 -53.5q0 -27 -16.5 -42.5t-40.5 -15.5q-17 0 -30 10t-13 27
q9 -13 29 -13q15 0 24 9t9 25t-12.5 26.5t-32.5 10.5q-71 0 -71 -120q0 -35 5 -61q-28 7 -58 -1q9 40 9 64q0 41 -6.5 66t-24.5 54q-3 48 18 85t54 50q-34 -31 -35 -113q8 32 28.5 50t40.5 23t53 7q-40 -12 -66 -44t-26 -65q28 42 81 42zM528 77q47 0 78 37q-17 -77 -85 -77
q-19 0 -35.5 8t-22.5 17q-1 -31 -28 -53.5t-59 -31.5q23 29 32 49t9 47q0 15 -4 37t-4 39q0 38 20 58q-43 0 -97 -70q-52 -68 -85 -134q-19 -13 -52 -13q-54 0 -89 35t-35 91q0 39 27 89l54 102.5t27 99.5q0 37 -16 58.5t-39 21.5q-17 0 -26.5 -9t-9.5 -22q0 -29 30 -50
q-29 0 -48.5 16.5t-19.5 41.5q0 26 20 46t58 20q31 0 53.5 -17t32.5 -40q12 26 42 26q16 0 26 -14t2 -35q-8 20 -28 20q-29 0 -29 -57q0 -90 -91 -191q38 38 77 38q21 0 37 -14t15 -37q-16 23 -52 23q-45 0 -73 -32t-28 -78q0 -34 18.5 -56.5t54.5 -22.5q28 0 49 17.5
t56 58.5q7 8 10 12q57 68 90.5 91.5t77.5 23.5q38 0 62.5 -20t24.5 -52q0 -25 -14 -37q0 26 -14 42t-34 16q-38 0 -38 -46q0 -30 21 -51t52 -21z" />
    <glyph glyph-name="ucircumflex" unicode="&#xfb;" horiz-adv-x="654" 
d="M217 618q-30 0 -43.5 16t-13 34t8.5 33q12 -36 46 -36q35 0 64 28.5t41 54.5t17 47h2q35 -130 118 -130q43 0 50 36q20 -25 8 -54t-48 -29q-30 0 -58.5 20t-44.5 20q-18 0 -27 -16q-6 10 1.5 22t27.5 7q-22 23 -32 45q-12 -47 -44 -72.5t-73 -25.5zM548 479
q35 0 58 -20.5t23 -53.5q0 -27 -16.5 -42.5t-40.5 -15.5q-17 0 -30 10t-13 27q9 -13 29 -13q15 0 24 9t9 25t-12.5 26.5t-32.5 10.5q-71 0 -71 -120q0 -35 5 -61q-28 7 -58 -1q9 40 9 64q0 41 -6.5 66t-24.5 54q-3 48 18 85t54 50q-34 -31 -35 -113q8 32 28.5 50t40.5 23
t53 7q-40 -12 -66 -44t-26 -65q28 42 81 42zM528 77q47 0 78 37q-17 -77 -85 -77q-19 0 -35.5 8t-22.5 17q-1 -31 -28 -53.5t-59 -31.5q23 29 32 49t9 47q0 15 -4 37t-4 39q0 38 20 58q-43 0 -97 -70q-52 -68 -85 -134q-19 -13 -52 -13q-54 0 -89 35t-35 91q0 39 27 89
l54 102.5t27 99.5q0 37 -16 58.5t-39 21.5q-17 0 -26.5 -9t-9.5 -22q0 -29 30 -50q-29 0 -48.5 16.5t-19.5 41.5q0 26 20 46t58 20q31 0 53.5 -17t32.5 -40q12 26 42 26q16 0 26 -14t2 -35q-8 20 -28 20q-29 0 -29 -57q0 -90 -91 -191q38 38 77 38q21 0 37 -14t15 -37
q-16 23 -52 23q-45 0 -73 -32t-28 -78q0 -34 18.5 -56.5t54.5 -22.5q28 0 49 17.5t56 58.5q7 8 10 12q57 68 90.5 91.5t77.5 23.5q38 0 62.5 -20t24.5 -52q0 -25 -14 -37q0 26 -14 42t-34 16q-38 0 -38 -46q0 -30 21 -51t52 -21z" />
    <glyph glyph-name="udieresis" unicode="&#xfc;" horiz-adv-x="654" 
d="M273 630q-60 17 -60 70q0 21 14.5 35.5t35.5 14.5q24 0 40 -18.5t10 -51.5q-12 12 -27.5 8.5t-20 -18.5t7.5 -40zM423 630q-60 17 -60 70q0 21 14.5 35.5t35.5 14.5q24 0 40 -18.5t10 -51.5q-12 12 -27.5 8.5t-20 -18.5t7.5 -40zM548 479q35 0 58 -20.5t23 -53.5
q0 -27 -16.5 -42.5t-40.5 -15.5q-17 0 -30 10t-13 27q9 -13 29 -13q15 0 24 9t9 25t-12.5 26.5t-32.5 10.5q-71 0 -71 -120q0 -35 5 -61q-28 7 -58 -1q9 40 9 64q0 41 -6.5 66t-24.5 54q-3 48 18 85t54 50q-34 -31 -35 -113q8 32 28.5 50t40.5 23t53 7q-40 -12 -66 -44
t-26 -65q28 42 81 42zM528 77q47 0 78 37q-17 -77 -85 -77q-19 0 -35.5 8t-22.5 17q-1 -31 -28 -53.5t-59 -31.5q23 29 32 49t9 47q0 15 -4 37t-4 39q0 38 20 58q-43 0 -97 -70q-52 -68 -85 -134q-19 -13 -52 -13q-54 0 -89 35t-35 91q0 39 27 89l54 102.5t27 99.5
q0 37 -16 58.5t-39 21.5q-17 0 -26.5 -9t-9.5 -22q0 -29 30 -50q-29 0 -48.5 16.5t-19.5 41.5q0 26 20 46t58 20q31 0 53.5 -17t32.5 -40q12 26 42 26q16 0 26 -14t2 -35q-8 20 -28 20q-29 0 -29 -57q0 -90 -91 -191q38 38 77 38q21 0 37 -14t15 -37q-16 23 -52 23
q-45 0 -73 -32t-28 -78q0 -34 18.5 -56.5t54.5 -22.5q28 0 49 17.5t56 58.5q7 8 10 12q57 68 90.5 91.5t77.5 23.5q38 0 62.5 -20t24.5 -52q0 -25 -14 -37q0 26 -14 42t-34 16q-38 0 -38 -46q0 -30 21 -51t52 -21z" />
    <glyph glyph-name="yacute" unicode="&#xfd;" 
d="M230 621l-4 12l9 4q95 42 141.5 79t46.5 79q0 37 -33 53q43 6 71 -10t28 -51q0 -36 -32 -61t-85 -48q18 -2 24.5 -17t-7.5 -37l-2 1q0 18 -11 25t-33 4t-45.5 -10t-59.5 -20zM210 -175q0 34 29.5 70t71 71.5t83 76t71 100t29.5 127.5q0 49 -26 89q49 -10 66 -55
q9 72 -29.5 114.5t-100.5 42.5q-58 0 -106.5 -25t-112.5 -86l-5 4q78 73 107 137q3 1 22.5 4.5t30.5 7t26.5 9.5t23 15.5t7.5 21.5q0 14 -13 23t-42 4q54 31 88 10.5t7 -70.5q63 -16 99.5 -62.5t36.5 -115.5t-31 -135t-75 -115t-88.5 -92t-75.5 -82.5t-31 -70.5
q0 -26 13.5 -39t34.5 -13q32 0 66 37.5t57 123.5h2q-16 -116 -71.5 -172.5t-172.5 -56.5v2q52 14 70 29q-30 10 -45.5 29.5t-15.5 41.5zM17 430q23 28 53 28t44 -33t28 -122q51 -332 184 -313v1q-37 20 -56 63q41 -5 71.5 12.5t30.5 48.5q0 19 -11.5 31.5t-29.5 16.5
q9 -15 9 -31q0 -32 -39 -32q-53 0 -91.5 72t-46.5 165.5t7 183.5q-41 0 -85 -24.5t-70 -63.5z" />
    <glyph glyph-name="ydieresis" unicode="&#xff;" horiz-adv-x="623" 
d="M253 670q-60 17 -60 70q0 21 14.5 35.5t35.5 14.5q24 0 40 -18.5t10 -51.5q-12 12 -27.5 8.5t-20 -18.5t7.5 -40zM403 670q-60 17 -60 70q0 21 14.5 35.5t35.5 14.5q24 0 40 -18.5t10 -51.5q-12 12 -27.5 8.5t-20 -18.5t7.5 -40zM210 -175q0 34 29.5 70t71 71.5t83 76
t71 100t29.5 127.5q0 49 -26 89q49 -10 66 -55q9 72 -29.5 114.5t-100.5 42.5q-58 0 -106.5 -25t-112.5 -86l-5 4q78 73 107 137q3 1 22.5 4.5t30.5 7t26.5 9.5t23 15.5t7.5 21.5q0 14 -13 23t-42 4q54 31 88 10.5t7 -70.5q63 -16 99.5 -62.5t36.5 -115.5t-31 -135t-75 -115
t-88.5 -92t-75.5 -82.5t-31 -70.5q0 -26 13.5 -39t34.5 -13q32 0 66 37.5t57 123.5h2q-16 -116 -71.5 -172.5t-172.5 -56.5v2q52 14 70 29q-30 10 -45.5 29.5t-15.5 41.5zM17 430q23 28 53 28t44 -33t28 -122q51 -332 184 -313v1q-37 20 -56 63q41 -5 71.5 12.5t30.5 48.5
q0 19 -11.5 31.5t-29.5 16.5q9 -15 9 -31q0 -32 -39 -32q-53 0 -91.5 72t-46.5 165.5t7 183.5q-41 0 -85 -24.5t-70 -63.5z" />
    <glyph glyph-name="Cacute" unicode="&#x106;" horiz-adv-x="684" 
d="M275 800l-4 12l9 4q95 42 141.5 79t46.5 79q0 37 -33 53q43 6 71 -10t28 -51q0 -36 -32 -61t-85 -48q18 -2 24.5 -17t-7.5 -37l-2 1q0 18 -11 25t-33 4t-45.5 -10t-59.5 -20zM378 703q78 25 106 39t45 43q1 -28 -21 -51.5t-58 -35.5q71 1 115 -33t55 -96q41 57 67 146h2
q-7 -62 -25 -115.5t-37.5 -88t-49.5 -67t-49.5 -48.5t-49.5 -38l-1 1q81 88 81 167q0 62 -40.5 98t-104.5 36q-55 0 -107.5 -26t-84.5 -71h-1q12 59 44.5 86.5t113.5 53.5zM103 758q40 -22 69.5 -79t31.5 -145q36 11 51 44h1q-5 -28 -22 -50t-36 -38t-38 -35.5t-31.5 -54.5
t-12.5 -83q0 -55 24.5 -119t77.5 -113q-41 58 -46 132t35 169q-12 -100 0.5 -172.5t43 -109t66 -52.5t77.5 -16q83 0 152.5 53.5t97.5 141.5h2q-5 -104 -84.5 -172.5t-182.5 -68.5q-147 0 -236 101t-82 268q53 73 74.5 151t12 141t-44.5 107z" />
    <glyph glyph-name="cacute" unicode="&#x107;" 
d="M188 614l-8 -3l-4 12l9 4q95 42 141.5 79t46.5 79q0 37 -33 53q43 6 71 -10t28 -51q0 -36 -32 -61t-85 -48q18 -2 24.5 -17t-7.5 -37l-2 1q0 18 -11 25t-33 4t-45.5 -10t-59.5 -20zM159 408q0 25 -27 32t-78 -14l-1 2q55 44 130.5 68.5t139.5 24.5q106 0 174 -77
q25 92 -1 160l3 2q73 -166 -6 -293l-3 1q-20 78 -63 129.5t-109 51.5q-77 0 -120.5 -65t-30.5 -172h-1q-25 43 -46 53l-21 113h1q15 -39 38 -39q21 0 21 23zM544 161q3 -84 -50.5 -127.5t-124.5 -43.5q-78 0 -135.5 49.5t-80.5 118.5q-8 -114 74 -161q-57 15 -83.5 56
t-35.5 120q-3 26 -4.5 36t-6 25t-11.5 20t-19 5q-32 0 -44 -42q-3 12 -3 21q0 28 17 46t43 18q22 0 41 -22t50 -78q41 -73 89.5 -117t115.5 -44q54 0 102.5 31t64.5 89h1z" />
    <glyph glyph-name="Ccircumflex" unicode="&#x108;" horiz-adv-x="684" 
d="M286 836q-30 0 -43.5 16t-13 34t8.5 33q12 -36 46 -36q35 0 64 28.5t41 54.5t17 47h2q35 -130 118 -130q43 0 50 36q20 -25 8 -54t-48 -29q-30 0 -58.5 20t-44.5 20q-18 0 -27 -16q-6 10 1.5 22t27.5 7q-22 23 -32 45q-12 -47 -44 -72.5t-73 -25.5zM413 660
q-55 0 -107.5 -26t-84.5 -71h-1q12 59 44.5 86.5t113.5 53.5q78 25 106 39t45 43q1 -28 -21 -51.5t-58 -35.5q71 1 115 -33t55 -96q41 57 67 146h2q-7 -62 -25 -115.5t-37.5 -88t-49.5 -67t-49.5 -48.5t-49.5 -38l-1 1q81 88 81 167q0 62 -40.5 98t-104.5 36zM394 36
q83 0 152.5 53.5t97.5 141.5h2q-5 -104 -84.5 -172.5t-182.5 -68.5q-147 0 -236 101t-82 268q53 73 74.5 151t12 141t-44.5 107q40 -22 69.5 -79t31.5 -145q36 11 51 44h1q-5 -28 -22 -50t-36 -38t-38 -35.5t-31.5 -54.5t-12.5 -83q0 -55 24.5 -119t77.5 -113
q-41 58 -46 132t35 169q-12 -100 0.5 -172.5t43 -109t66 -52.5t77.5 -16z" />
    <glyph glyph-name="ccircumflex" unicode="&#x109;" horiz-adv-x="564" 
d="M184 648q-30 0 -43.5 16t-13 34t8.5 33q12 -36 46 -36q35 0 64 28.5t41 54.5t17 47h2q35 -130 118 -130q43 0 50 36q20 -25 8 -54t-48 -29q-30 0 -58.5 20t-44.5 20q-18 0 -27 -16q-6 10 1.5 22t27.5 7q-22 23 -32 45q-12 -47 -44 -72.5t-73 -25.5zM159 408q0 25 -27 32
t-78 -14l-1 2q55 44 130.5 68.5t139.5 24.5q106 0 174 -77q25 92 -1 160l3 2q73 -166 -6 -293l-3 1q-20 78 -63 129.5t-109 51.5q-77 0 -120.5 -65t-30.5 -172h-1q-25 43 -46 53l-21 113h1q15 -39 38 -39q21 0 21 23zM544 161q3 -84 -50.5 -127.5t-124.5 -43.5
q-78 0 -135.5 49.5t-80.5 118.5q-8 -114 74 -161q-57 15 -83.5 56t-35.5 120q-3 26 -4.5 36t-6 25t-11.5 20t-19 5q-32 0 -44 -42q-3 12 -3 21q0 28 17 46t43 18q22 0 41 -22t50 -78q41 -73 89.5 -117t115.5 -44q54 0 102.5 31t64.5 89h1z" />
    <glyph glyph-name="Cdotaccent" unicode="&#x10a;" horiz-adv-x="684" 
d="M414 828q-60 17 -60 70q0 21 14.5 35.5t35.5 14.5q24 0 40 -18.5t10 -51.5q-12 12 -27.5 8.5t-20 -18.5t7.5 -40zM378 703q78 25 106 39t45 43q1 -28 -21 -51.5t-58 -35.5q71 1 115 -33t55 -96q41 57 67 146h2q-7 -62 -25 -115.5t-37.5 -88t-49.5 -67t-49.5 -48.5
t-49.5 -38l-1 1q81 88 81 167q0 62 -40.5 98t-104.5 36q-55 0 -107.5 -26t-84.5 -71h-1q12 59 44.5 86.5t113.5 53.5zM103 758q40 -22 69.5 -79t31.5 -145q36 11 51 44h1q-5 -28 -22 -50t-36 -38t-38 -35.5t-31.5 -54.5t-12.5 -83q0 -55 24.5 -119t77.5 -113q-41 58 -46 132
t35 169q-12 -100 0.5 -172.5t43 -109t66 -52.5t77.5 -16q83 0 152.5 53.5t97.5 141.5h2q-5 -104 -84.5 -172.5t-182.5 -68.5q-147 0 -236 101t-82 268q53 73 74.5 151t12 141t-44.5 107z" />
    <glyph glyph-name="cdotaccent" unicode="&#x10b;" 
d="M321 668q-60 17 -60 70q0 21 14.5 35.5t35.5 14.5q24 0 40 -18.5t10 -51.5q-12 12 -27.5 8.5t-20 -18.5t7.5 -40zM159 408q0 25 -27 32t-78 -14l-1 2q55 44 130.5 68.5t139.5 24.5q106 0 174 -77q25 92 -1 160l3 2q73 -166 -6 -293l-3 1q-20 78 -63 129.5t-109 51.5
q-77 0 -120.5 -65t-30.5 -172h-1q-25 43 -46 53l-21 113h1q15 -39 38 -39q21 0 21 23zM544 161q3 -84 -50.5 -127.5t-124.5 -43.5q-78 0 -135.5 49.5t-80.5 118.5q-8 -114 74 -161q-57 15 -83.5 56t-35.5 120q-3 26 -4.5 36t-6 25t-11.5 20t-19 5q-32 0 -44 -42q-3 12 -3 21
q0 28 17 46t43 18q22 0 41 -22t50 -78q41 -73 89.5 -117t115.5 -44q54 0 102.5 31t64.5 89h1z" />
    <glyph glyph-name="Edotaccent" unicode="&#x116;" horiz-adv-x="693" 
d="M424 840q-60 17 -60 70q0 21 14.5 35.5t35.5 14.5q24 0 40 -18.5t10 -51.5q-12 12 -27.5 8.5t-20 -18.5t7.5 -40zM399 528q-37 0 -61 20t-24 53q0 40 31.5 61.5t95.5 41.5q72 21 103 39.5t38 46.5h1q3 -53 -41 -88q53 -10 85.5 -38.5t32.5 -71.5q0 -41 -30 -66t-78 -33v1
q60 33 60 84q0 44 -35.5 65.5t-88.5 21.5q-55 0 -87 -16.5t-32 -42.5q0 -31 31.5 -43.5t66.5 -4.5q-20 -30 -68 -30zM108 435q-31 0 -49.5 18.5t-18.5 45.5q0 34 24.5 56t60.5 22q29 0 54 -16.5t35 -38.5q0 88 -91 127q96 -10 117 -88q0 44 -15.5 84t-38 66t-42 41.5
t-34.5 22.5q18 -4 37.5 -10.5t49 -24.5t51 -42t35.5 -66t11 -93q-16 -14 -25 -36t-12.5 -42t-1.5 -58t4.5 -61.5t9.5 -74.5q-36 7 -68 -5q5 53 5 145q0 68 -22 100t-56 32q-21 0 -34.5 -11.5t-13.5 -28.5t11.5 -28.5t28.5 -11.5q26 0 43 20q0 -17 -15.5 -30.5t-39.5 -13.5z
M300 282q-12 12 -13.5 25.5t16.5 29.5t52 28q38 13 62 34.5t26 41.5q8 -10 4 -33.5t-23 -37.5q57 1 98 -19.5t41 -60.5q0 -27 -21.5 -39.5t-51.5 -6.5v1q31 10 31 36q0 25 -30 37t-74 12q-42 0 -76.5 -12t-40.5 -36zM267 140q0 -51 -40 -90t-96 -39q-42 0 -62.5 28.5
t-10.5 70.5q19 -55 69 -55q36 0 62.5 22.5t26.5 58.5q0 20 -10 33.5t-28 13.5q-19 0 -32.5 -14t-17.5 -34q-6 8 -6 21q0 34 30.5 60t85.5 26q37 0 69 -15.5t42 -41.5q-53 30 -105 20q23 -21 23 -65zM587 37q55 -19 86 -72h-2q-33 33 -100.5 41t-203.5 8q-106 0 -165 -14v3
l12 4t19.5 8.5t23 15t23 22.5t18 32t8.5 42.5t-4 54.5q26 -31 28.5 -71.5t-16.5 -70.5q287 -10 287 77q0 28 -27 46q73 -6 73 -55q0 -25 -17 -44.5t-43 -26.5z" />
    <glyph glyph-name="edotaccent" unicode="&#x117;" 
d="M333 618q-60 17 -60 70q0 21 14.5 35.5t35.5 14.5q24 0 40 -18.5t10 -51.5q-12 12 -27.5 8.5t-20 -18.5t7.5 -40zM178 291v1q139 -19 202.5 17.5t63.5 98.5q0 41 -27 67t-75 26q-57 0 -97 -35.5t-58 -86.5t-20 -112q-28 45 -59 54l-17 105h1q14 -38 39 -38q21 0 21 23
q0 16 -11 26t-35.5 9t-55.5 -18l-1 1q50 40 137 66t151 26q74 0 120.5 -37.5t55.5 -101.5q-57 -16 -57 -46q0 -11 10.5 -17.5t36.5 -1t62 29.5l1 -1q-45 -43 -132 -78t-187 -39q74 15 107 37q-101 -3 -176 25zM357 43q53 0 98.5 28t62.5 89l2 -1q-5 -80 -49.5 -121.5
t-114.5 -41.5q-95 0 -153 62.5t-71 152.5q-1 -92 17.5 -141t58.5 -77q-50 17 -71 53.5t-32 116.5q-9 64 -15.5 85.5t-23.5 21.5q-31 0 -40 -49q-3 15 -3 21q0 28 17 46.5t41 18.5q13 0 22.5 -4t18.5 -16t14 -21t16 -33t18 -38q77 -152 187 -152z" />
    <glyph glyph-name="Gcircumflex" unicode="&#x11c;" horiz-adv-x="786" 
d="M278 819q-30 0 -43.5 16t-13 34t8.5 33q12 -36 46 -36q35 0 64 28.5t41 54.5t17 47h2q35 -130 118 -130q43 0 50 36q20 -26 8 -54.5t-48 -28.5q-30 0 -58.5 20t-44.5 20q-18 0 -27 -16q-6 10 1.5 22t27.5 7q-22 23 -32 45q-12 -47 -44 -72.5t-73 -25.5zM403 660
q-55 0 -107.5 -26t-84.5 -71h-1q12 59 44.5 86.5t113.5 53.5q78 25 106 39t45 43q1 -28 -21 -51.5t-58 -35.5q71 1 115 -33t55 -96q41 57 67 146h2q-7 -62 -25 -115.5t-37.5 -88t-49.5 -67t-49.5 -48.5t-49.5 -38l-1 1q81 88 81 167q0 62 -40.5 98t-104.5 36zM636 231
q-5 -104 -84.5 -172.5t-182.5 -68.5q-147 0 -236 101t-82 268q53 73 74.5 151t12 141t-44.5 107q40 -22 69.5 -79t31.5 -145q36 11 51 44h1q-5 -28 -22 -50t-36 -38t-38 -35.5t-31.5 -54.5t-12.5 -83q0 -55 24.5 -119t77.5 -113q-41 58 -46 132t35 169q-12 -100 0.5 -172.5
t43 -109t66 -52.5t77.5 -16q83 0 152.5 53.5t97.5 141.5h2zM588 324q85 0 139.5 -58.5t54.5 -152.5q0 -132 -96 -234.5t-222 -138.5l-1 2q37 16 73 54.5t36 93.5q0 32 -19.5 51t-53.5 19q-45 0 -74 -27t-29 -65q0 -26 12 -41t32 -15q36 0 50 39q10 -32 -8.5 -54t-50.5 -22
q-29 0 -49 18t-26 43q-29 -12 -44.5 5t-7.5 46q6 -19 21.5 -24t24.5 6q0 55 43 93t108 38q52 0 81.5 -27.5t29.5 -70.5q0 -38 -21 -69q49 35 93.5 108t44.5 158q0 80 -35.5 123t-95.5 43q-108 0 -162 -133h-5q6 27 22.5 61.5t46 78.5t82 86.5t117.5 69.5l1 -2
q-39 -22 -71 -52.5t-41 -49.5z" />
    <glyph glyph-name="gcircumflex" unicode="&#x11d;" horiz-adv-x="578" 
d="M194 618q-30 0 -43.5 16t-13 34t8.5 33q12 -36 46 -36q35 0 64 28.5t41 54.5t17 47h2q35 -130 118 -130q43 0 50 36q20 -25 8 -54t-48 -29q-30 0 -58.5 20t-44.5 20q-18 0 -27 -16q-6 10 1.5 22t27.5 7q-22 23 -32 45q-12 -47 -44 -72.5t-73 -25.5zM287 5
q-39 23 -75.5 52t-71.5 67t-56 85t-21 95q0 130 117 186t308 34v-4q-70 0 -70 -49q0 -30 20.5 -59t53.5 -29q40 0 65 63l5 -3q-40 -110 -122 -196.5t-150 -114.5l-3 6q58 27 99.5 80.5t41.5 120.5q0 62 -39.5 107t-115.5 45q-78 0 -129 -51.5t-51 -132.5t47 -142
q-29 69 12.5 133.5t151.5 84.5v-3q-136 -33 -136 -158q0 -60 38.5 -98t109.5 -38q67 0 228 56l2 -8q-46 -14 -88.5 -29.5t-86 -33.5t-66.5 -35.5t-16 -29.5zM475 61q52 0 103 -18l-1 -3q-37 9 -80.5 6t-61.5 -14q29 -3 54.5 -29.5t25.5 -71.5q0 -82 -75 -135t-176 -53
q-99 0 -156.5 47t-57.5 117q0 46 36 89.5t99 69.5l2 -2q-99 -56 -99 -140q0 -60 45 -99.5t130 -39.5q83 0 141 41t58 100q0 32 -20 53t-54 21q-57 0 -105.5 -51t-76.5 -114l-4 1q5 16 15 38t33.5 56.5t52.5 62.5t74.5 48t97.5 20z" />
    <glyph glyph-name="Gdotaccent" unicode="&#x120;" horiz-adv-x="786" 
d="M406 811q-60 17 -60 70q0 21 14.5 35.5t35.5 14.5q24 0 40 -18.5t10 -51.5q-12 12 -27.5 8.5t-20 -18.5t7.5 -40zM403 660q-55 0 -107.5 -26t-84.5 -71h-1q12 59 44.5 86.5t113.5 53.5q78 25 106 39t45 43q1 -28 -21 -51.5t-58 -35.5q71 1 115 -33t55 -96q41 57 67 146h2
q-7 -62 -25 -115.5t-37.5 -88t-49.5 -67t-49.5 -48.5t-49.5 -38l-1 1q81 88 81 167q0 62 -40.5 98t-104.5 36zM636 231q-5 -104 -84.5 -172.5t-182.5 -68.5q-147 0 -236 101t-82 268q53 73 74.5 151t12 141t-44.5 107q40 -22 69.5 -79t31.5 -145q36 11 51 44h1
q-5 -28 -22 -50t-36 -38t-38 -35.5t-31.5 -54.5t-12.5 -83q0 -55 24.5 -119t77.5 -113q-41 58 -46 132t35 169q-12 -100 0.5 -172.5t43 -109t66 -52.5t77.5 -16q83 0 152.5 53.5t97.5 141.5h2zM588 324q85 0 139.5 -58.5t54.5 -152.5q0 -132 -96 -234.5t-222 -138.5l-1 2
q37 16 73 54.5t36 93.5q0 32 -19.5 51t-53.5 19q-45 0 -74 -27t-29 -65q0 -26 12 -41t32 -15q36 0 50 39q10 -32 -8.5 -54t-50.5 -22q-29 0 -49 18t-26 43q-29 -12 -44.5 5t-7.5 46q6 -19 21.5 -24t24.5 6q0 55 43 93t108 38q52 0 81.5 -27.5t29.5 -70.5q0 -38 -21 -69
q49 35 93.5 108t44.5 158q0 80 -35.5 123t-95.5 43q-108 0 -162 -133h-5q6 27 22.5 61.5t46 78.5t82 86.5t117.5 69.5l1 -2q-39 -22 -71 -52.5t-41 -49.5z" />
    <glyph glyph-name="gdotaccent" unicode="&#x121;" 
d="M314 618q-60 17 -60 70q0 21 14.5 35.5t35.5 14.5q24 0 40 -18.5t10 -51.5q-12 12 -27.5 8.5t-20 -18.5t7.5 -40zM290 132q68 28 150 114.5t122 196.5l-5 3q-25 -63 -65 -63q-33 0 -53.5 29t-20.5 59q0 49 70 49v4q-191 22 -308 -34t-117 -186q0 -48 21 -95t56 -85
t71.5 -67t75.5 -52l2 1q-7 12 16 29.5t66.5 35.5t86 33.5t88.5 29.5l-2 8q-161 -56 -228 -56q-71 0 -109.5 38t-38.5 98q0 125 136 158v3q-110 -20 -151.5 -84.5t-12.5 -133.5q-47 61 -47 142t51 132.5t129 51.5q76 0 115.5 -45t39.5 -107q0 -67 -41.5 -120.5t-99.5 -80.5z
M202 -164l4 -1q28 63 76.5 114t105.5 51q34 0 54 -21t20 -53q0 -59 -58 -100t-141 -41q-85 0 -130 39.5t-45 99.5q0 84 99 140l-2 2q-63 -26 -99 -69.5t-36 -89.5q0 -70 57.5 -117t156.5 -47q101 0 176 53t75 135q0 45 -25.5 71.5t-54.5 29.5q18 11 61.5 14t80.5 -6l1 3
q-51 18 -103 18t-97.5 -20t-74.5 -48t-52.5 -62.5t-33.5 -56.5t-15 -38z" />
    <glyph glyph-name="Hcircumflex" unicode="&#x124;" horiz-adv-x="919" 
d="M345 776q-30 0 -43.5 16t-13 34t8.5 33q12 -36 46 -36q35 0 64 28.5t41 54.5t17 47h2q35 -130 118 -130q43 0 50 36q20 -25 8 -54t-48 -29q-30 0 -58.5 20t-44.5 20q-18 0 -27 -16q-6 10 1.5 22t27.5 7q-22 23 -32 45q-12 -47 -44 -72.5t-73 -25.5zM108 435
q-31 0 -49.5 18.5t-18.5 45.5q0 34 24.5 56t60.5 22q29 0 54 -16.5t35 -38.5q0 88 -91 127q96 -10 117 -88q0 44 -15.5 84t-38 66t-42 41.5t-34.5 22.5q18 -4 37.5 -10.5t49 -24.5t51 -42t35.5 -66t11 -93q-37 -28 -39.5 -94t14.5 -151q-36 7 -68 -5q5 53 5 118
q0 68 -22 100t-56 32q-21 0 -34.5 -11.5t-13.5 -28.5t11.5 -28.5t28.5 -11.5q26 0 43 20q0 -17 -15.5 -30.5t-39.5 -13.5zM625 539q-3 51 11 93t35.5 66t51 42t49 24.5t37.5 10.5q-15 -7 -34.5 -22.5t-42 -41.5t-38 -66t-15.5 -84q21 78 117 88q-91 -39 -91 -127
q10 22 35 38.5t54 16.5q36 0 60.5 -22t24.5 -56q0 -27 -18.5 -45.5t-49.5 -18.5q-24 0 -39.5 13.5t-15.5 30.5q17 -20 43 -20q17 0 28.5 11.5t11.5 28.5t-13.5 28.5t-34.5 11.5q-34 0 -56 -32t-22 -100q0 -65 5 -118q-32 12 -68 5q17 85 14.5 151t-39.5 94zM577 287
q0 39 -58 39q-55 0 -99.5 -23.5t-43.5 -53.5q-13 12 -14 30.5t7 29.5q-44 -2 -61 -35q-10 40 21.5 58.5t129.5 26.5l25 2q92 7 92 37q0 11 -12 11v1q14 2 25.5 -5.5t11.5 -22.5q0 -24 -31 -36q42 -14 42 -48q0 -20 -15.5 -32t-33.5 -11q14 16 14 32zM358 207
q-22 21 -52.5 30t-54.5 7q10 -5 17.5 -22t7.5 -37q0 -16 -6 -46t-6 -57q0 -55 43 -106q-87 30 -87 116q-8 -21 -31 -32.5t-45 -11.5q-82 0 -96 79q35 -38 88 -38q37 0 63.5 23.5t26.5 58.5q0 20 -11 35t-29 15t-30.5 -15t-12.5 -36q-22 44 6.5 77.5t80.5 33.5q40 0 75 -19
t53 -55zM783 89q53 0 88 38q-14 -79 -96 -79q-22 0 -45 11.5t-31 32.5q0 -86 -87 -116q43 51 43 106q0 27 -6 57t-6 46q0 20 7.5 37t17.5 22q-24 2 -54.5 -7t-52.5 -30q18 36 53 55t75 19q52 0 80.5 -33.5t6.5 -77.5q0 21 -12.5 36t-30.5 15t-29 -15t-11 -35
q0 -35 26.5 -58.5t63.5 -23.5z" />
    <glyph glyph-name="hcircumflex" unicode="&#x125;" horiz-adv-x="730" 
d="M185 593q1 38 -11.5 74t-30 59.5t-38.5 43t-32.5 27t-17.5 10.5q6 0 24 -6.5t46 -24.5t53.5 -43t43.5 -68t17 -94q-38 -42 -38 -132q0 -62 13 -162q-36 6 -68 -5q5 105 5 167q0 56 -10.5 88.5t-24.5 45.5t-46 32q35 -3 59 -15.5t30 -25.5q0 23 -12.5 46t-30.5 37.5
t-30 23t-18 10.5q22 0 65 -24t52 -64zM339 618q-30 0 -43.5 16t-13 34t8.5 33q12 -36 46 -36q35 0 64 28.5t41 54.5t17 47h2q35 -130 118 -130q43 0 50 36q20 -25 8 -54t-48 -29q-30 0 -58.5 20t-44.5 20q-18 0 -27 -16q-6 10 1.5 22t27.5 7q-22 23 -32 45
q-12 -47 -44 -72.5t-73 -25.5zM624 106q26 -2 43.5 -18t17.5 -39q0 -27 -21 -43t-51 -16q-66 0 -81 51q-6 -29 -32 -29q-16 0 -25 14.5t-4 38.5q8 -20 17 -20q17 0 17 61q0 111 32 170q-11 -11 -30 -11q-35 0 -46 46q22 -17 45 -17q32 0 50.5 22.5t18.5 59.5q0 43 -31.5 72
t-86.5 29q-78 0 -141.5 -55.5t-55.5 -135.5q-65 96 64 180q4 3 17 11t18.5 12l13.5 10t11 11t3 10q0 25 -55 21q59 30 88 13q20 -12 5 -40q18 5 41 6.5t52.5 -2.5t53 -15.5t38.5 -38t12 -64.5q36 9 53 -23q23 -43 -22 -107q-6 -10 -14 -19q13 37 14 61t-5 32t-17 8
q-27 0 -49.5 -63t-22.5 -128q0 -60 15.5 -96.5t45.5 -36.5t30 29q0 32 -26 49zM178 252q73 0 106 -74q-36 35 -78 37q22 -21 22 -58q0 -17 -4.5 -39t-4.5 -37q0 -48 40 -100q-31 9 -58 33.5t-28 55.5q-6 -10 -22.5 -18.5t-35.5 -8.5q-36 0 -57 23t-28 56q33 -39 78 -39
q33 0 53.5 17t20.5 50q0 22 -10.5 37.5t-28.5 15.5q-20 0 -34 -16t-14 -42q-12 15 -12 34q0 31 26.5 52t68.5 21z" />
    <glyph glyph-name="Idotaccent" unicode="&#x130;" horiz-adv-x="438" 
d="M272 840q-60 17 -60 70q0 21 14.5 35.5t35.5 14.5q24 0 40 -18.5t10 -51.5q-12 12 -27.5 8.5t-20 -18.5t7.5 -40zM309 294q-36 7 -68 -5q5 53 5 118q0 68 -22 100t-56 32q-21 0 -34.5 -11.5t-13.5 -28.5t11.5 -28.5t28.5 -11.5q26 0 43 20q0 -17 -15.5 -30.5t-39.5 -13.5
q-31 0 -49.5 18.5t-18.5 45.5q0 34 24.5 56t60.5 22q29 0 54 -16.5t35 -38.5q0 88 -91 127q96 -10 117 -88q0 44 -15.5 84t-38 66t-42 41.5t-34.5 22.5q18 -4 37.5 -10.5t49 -24.5t51 -42t35.5 -66t11 -93q-37 -28 -39.5 -94t14.5 -151zM270 281q40 0 75 -19t53 -55
q-22 21 -52.5 30t-54.5 7q10 -5 17.5 -22t7.5 -37q0 -16 -6 -46t-6 -57q0 -55 43 -106q-87 30 -87 116q-8 -21 -31 -32.5t-45 -11.5q-82 0 -96 79q35 -38 88 -38q37 0 63.5 23.5t26.5 58.5q0 20 -11 35t-29 15t-30.5 -15t-12.5 -36q-22 44 6.5 77.5t80.5 33.5z" />
    <glyph glyph-name="dotlessi" unicode="&#x131;" horiz-adv-x="329" 
d="M131 463q35 0 48 -41q0 33 -26 65.5t-65 44.5q24 -2 39.5 -5t33.5 -11t30 -24.5t18 -40.5q-1 84 -34 114q34 -14 56 -51.5t18 -84.5q-19 -26 -25.5 -47t-6.5 -55q0 -20 7 -62q-27 6 -58 -5q5 38 5 87q0 36 -13.5 58.5t-36.5 22.5q-14 0 -24.5 -11.5t-10.5 -26.5h-1
q-13 37 4.5 55t41.5 18zM238 147q0 -17 -4.5 -39t-4.5 -37q0 -48 40 -100q-31 9 -58 33.5t-28 55.5q-4 -11 -17 -19t-31 -8q-54 0 -65 79q20 -39 58 -39q26 0 45 17.5t19 49.5q0 22 -10.5 37.5t-28.5 15.5q-20 0 -34 -16t-14 -42q-12 15 -12 34q0 31 26.5 52t68.5 21
q73 0 106 -74q-37 33 -77 37q21 -21 21 -58z" />
    <glyph glyph-name="Jcircumflex" unicode="&#x134;" horiz-adv-x="476" 
d="M437 901q20 -25 8 -54t-48 -29q-30 0 -58.5 20t-44.5 20q-18 0 -27 -16q-6 10 1.5 22t27.5 7q-22 23 -32 45q-12 -47 -44 -72.5t-73 -25.5q-30 0 -43.5 16t-13 34t8.5 33q12 -36 46 -36q35 0 64 28.5t41 54.5t17 47h2q35 -130 118 -130q43 0 50 36zM106 449
q-30 0 -47.5 20t-17.5 47q0 41 37.5 69t106.5 28q47 0 86 -22t58 -61q-2 55 -33.5 88.5t-58.5 40.5q31 0 70 -25t47 -63q2 31 -6 60.5t-20.5 50.5t-30.5 41t-31 30.5t-28 20.5l-14 11q191 -64 184 -236q-23 -25 -30.5 -47.5t-7.5 -64.5q0 -73 13 -183q-29 6 -58 0
q43 319 -140 319q-41 0 -66.5 -18t-25.5 -44q0 -17 9.5 -26.5t23.5 -9.5q18 0 26 8q-2 -34 -46 -34zM341 241q41 0 64.5 -23.5t19.5 -51.5q-20 39 -55 36q-9 -74 30 -97q-24 -49 -83 -82t-129 -33q-88 0 -131.5 42.5t-43.5 103.5q0 86 91 133q-44 -47 -44 -121
q0 -56 38 -91.5t99 -35.5q85 0 129 55q-23 -14 -61 -14q-63 0 -87 40t-8 96q5 -43 31 -71.5t65 -28.5q34 0 55.5 16.5t21.5 46.5q0 20 -9 31t-22 11q-21 0 -31 -24q-8 26 10.5 44t49.5 18z" />
    <glyph glyph-name="Lacute" unicode="&#x139;" horiz-adv-x="617" 
d="M108 455q-31 0 -49.5 18.5t-18.5 45.5q0 34 24.5 56t60.5 22q29 0 54 -16.5t35 -38.5q0 88 -91 127q96 -10 117 -88q0 44 -15.5 84t-38 66t-42 41.5t-34.5 22.5q18 -4 37.5 -10.5t49 -24.5t51 -42t35.5 -66t11 -93q-26 -32 -30 -107.5t5 -172.5q-36 7 -68 -5q5 53 5 153
q0 68 -22 100t-56 32q-21 0 -34.5 -11.5t-13.5 -28.5t11.5 -28.5t28.5 -11.5q26 0 43 20q0 -17 -15.5 -30.5t-39.5 -13.5zM345 451l-8 -3l-4 12l9 4q95 42 141.5 79t46.5 79q0 37 -33 53q43 6 71 -10t28 -51q0 -36 -32 -61t-85 -48q18 -2 24.5 -17t-7.5 -37l-2 1
q0 18 -11 25t-33 4t-45.5 -10t-59.5 -20zM479 272q56 0 97 -37t41 -99q0 -70 -44.5 -108t-108.5 -38q-30 0 -57 11.5t-45.5 27.5t-39 45t-32.5 51t-30 59q21 -77 -14.5 -126t-88.5 -49q-45 0 -74 27t-35 66q42 -49 100 -49q41 0 59.5 24.5t18.5 62.5q0 66 -39 66
q-20 0 -32 -18t-12 -43q-22 44 0 77.5t64 33.5q24 0 40.5 -15.5t35.5 -51t27 -46.5q39 -56 73 -82t83 -26q45 0 74.5 26t29.5 72q0 44 -26.5 68.5t-60.5 24.5q-31 0 -49 -17.5t-18 -48.5q0 -23 14.5 -50.5t46.5 -49.5l-1 -2q-62 25 -105 82t-79 187l2 1q34 -83 85 -149
q1 43 29.5 68t70.5 25z" />
    <glyph glyph-name="lacute" unicode="&#x13a;" 
d="M214 269q-31 10 -65 5q5 28 5 164q0 67 -19 95.5t-65 50.5q35 -1 58.5 -14t30.5 -27q0 44 -31.5 76.5t-59.5 40.5q98 -11 117 -88q0 47 -12.5 84.5t-34 62t-38 37.5t-38.5 26q-5 3 -7 4q72 -23 106 -51q78 -63 78 -185q-23 -25 -30.5 -47.5t-7.5 -64.5q0 -94 13 -169z
M260 347l-4 12l9 4q95 42 141.5 79t46.5 79q0 37 -33 53q43 6 71 -10t28 -51q0 -36 -32 -61t-85 -48q18 -2 24.5 -17t-7.5 -37l-2 1q0 18 -11 25t-33 4t-45.5 -10t-59.5 -20zM105 210q27 41 69 41q44 0 44 -51q0 -17 -4.5 -47.5t-4.5 -52.5q0 -62 51 -62q65 0 96 73l2 -1
q-9 -56 -39.5 -85.5t-70.5 -29.5q-49 0 -71 31.5t-14 78.5q-16 -37 -57 -37q-30 0 -51 20t-25 59q28 -38 75 -38q28 0 45.5 20t17.5 48q0 26 -17 35.5t-46 -2.5z" />
    <glyph glyph-name="Ldot" unicode="&#x13f;" horiz-adv-x="617" 
d="M108 455q-31 0 -49.5 18.5t-18.5 45.5q0 34 24.5 56t60.5 22q29 0 54 -16.5t35 -38.5q0 88 -91 127q96 -10 117 -88q0 44 -15.5 84t-38 66t-42 41.5t-34.5 22.5q18 -4 37.5 -10.5t49 -24.5t51 -42t35.5 -66t11 -93q-26 -32 -30 -107.5t5 -172.5q-36 7 -68 -5q5 53 5 153
q0 68 -22 100t-56 32q-21 0 -34.5 -11.5t-13.5 -28.5t11.5 -28.5t28.5 -11.5q26 0 43 20q0 -17 -15.5 -30.5t-39.5 -13.5zM441 437q-60 17 -60 70q0 21 14.5 35.5t35.5 14.5q24 0 40 -18.5t10 -51.5q-12 12 -27.5 8.5t-20 -18.5t7.5 -40zM479 272q56 0 97 -37t41 -99
q0 -70 -44.5 -108t-108.5 -38q-30 0 -57 11.5t-45.5 27.5t-39 45t-32.5 51t-30 59q21 -77 -14.5 -126t-88.5 -49q-45 0 -74 27t-35 66q42 -49 100 -49q41 0 59.5 24.5t18.5 62.5q0 66 -39 66q-20 0 -32 -18t-12 -43q-22 44 0 77.5t64 33.5q24 0 40.5 -15.5t35.5 -51
t27 -46.5q39 -56 73 -82t83 -26q45 0 74.5 26t29.5 72q0 44 -26.5 68.5t-60.5 24.5q-31 0 -49 -17.5t-18 -48.5q0 -23 14.5 -50.5t46.5 -49.5l-1 -2q-62 25 -105 82t-79 187l2 1q34 -83 85 -149q1 43 29.5 68t70.5 25z" />
    <glyph glyph-name="ldot" unicode="&#x140;" horiz-adv-x="348" 
d="M286 674q-60 17 -60 70q0 21 14.5 35.5t35.5 14.5q24 0 40 -18.5t10 -51.5q-12 12 -27.5 8.5t-20 -18.5t7.5 -40zM214 269q-31 10 -65 5q5 28 5 164q0 67 -19 95.5t-65 50.5q35 -1 58.5 -14t30.5 -27q0 44 -31.5 76.5t-59.5 40.5q98 -11 117 -88q0 47 -12.5 84.5t-34 62
t-38 37.5t-38.5 26q-5 3 -7 4q72 -23 106 -51q78 -63 78 -185q-23 -25 -30.5 -47.5t-7.5 -64.5q0 -94 13 -169zM105 210q27 41 69 41q44 0 44 -51q0 -17 -4.5 -47.5t-4.5 -52.5q0 -62 51 -62q65 0 96 73l2 -1q-9 -56 -39.5 -85.5t-70.5 -29.5q-49 0 -71 31.5t-14 78.5
q-16 -37 -57 -37q-30 0 -51 20t-25 59q28 -38 75 -38q28 0 45.5 20t17.5 48q0 26 -17 35.5t-46 -2.5z" />
    <glyph glyph-name="Nacute" unicode="&#x143;" horiz-adv-x="876" 
d="M343 649l-8 -3l-4 12l9 4q95 42 141.5 79t46.5 79q0 37 -33 53q43 6 71 -10t28 -51q0 -36 -32 -61t-85 -48q18 -2 24.5 -17t-7.5 -37l-2 1q0 18 -11 25t-33 4t-45.5 -10t-59.5 -20zM586 180q11 -36 -3.5 -56.5t-43.5 -20.5q-54 0 -115.5 75t-102.5 162.5t-58 154.5
q-8 -22 -8 -58.5t2.5 -59.5t11.5 -83q-36 7 -68 -5q5 53 5 118q0 68 -22 100t-56 32q-21 0 -34.5 -11.5t-13.5 -28.5t11.5 -28.5t28.5 -11.5q26 0 43 20q0 -17 -15.5 -30.5t-39.5 -13.5q-31 0 -49.5 18.5t-18.5 45.5q0 34 24.5 56t60.5 22q29 0 54 -16.5t35 -38.5
q0 88 -91 127q96 -10 117 -88q0 44 -15.5 84t-38 66t-42 41.5t-34.5 22.5q16 -3 34 -9t44.5 -21t47.5 -35t38 -54.5t20 -76.5v-1q0 -2 0.5 -7t0.5 -7q5 -67 46 -164t99.5 -171.5t105.5 -74.5q34 0 40 26zM582 539q-3 51 11 93t35.5 66t51 42t49 24.5t37.5 10.5
q-15 -7 -34.5 -22.5t-42 -41.5t-38 -66t-15.5 -84q21 78 117 88q-91 -39 -91 -127q10 22 35 38.5t54 16.5q36 0 60.5 -22t24.5 -56q0 -27 -18.5 -45.5t-49.5 -18.5q-24 0 -39.5 13.5t-15.5 30.5q17 -20 43 -20q17 0 28.5 11.5t11.5 28.5t-13.5 28.5t-34.5 11.5
q-34 0 -56 -32t-22 -100q0 -65 5 -118q-32 12 -68 5q17 85 14.5 151t-39.5 94zM358 207q-22 21 -52.5 30t-54.5 7q10 -5 17.5 -22t7.5 -37q0 -16 -6 -46t-6 -57q0 -55 43 -106q-87 30 -87 116q-8 -21 -31 -32.5t-45 -11.5q-82 0 -96 79q35 -38 88 -38q37 0 63.5 23.5
t26.5 58.5q0 20 -11 35t-29 15t-30.5 -15t-12.5 -36q-22 44 6.5 77.5t80.5 33.5q40 0 75 -19t53 -55zM740 89q53 0 88 38q-14 -79 -96 -79q-22 0 -45 11.5t-31 32.5q0 -86 -87 -116q43 51 43 106q0 27 -6 57t-6 46q0 20 7.5 37t17.5 22q-24 2 -54.5 -7t-52.5 -30
q18 36 53 55t75 19q52 0 80.5 -33.5t6.5 -77.5q0 21 -12.5 36t-30.5 15t-29 -15t-11 -35q0 -35 26.5 -58.5t63.5 -23.5z" />
    <glyph glyph-name="nacute" unicode="&#x144;" horiz-adv-x="744" 
d="M328 584l-8 -3l-4 12l9 4q95 42 141.5 79t46.5 79q0 37 -33 53q43 6 71 -10t28 -51q0 -36 -32 -61t-85 -48q18 -2 24.5 -17t-7.5 -37l-2 1q0 18 -11 25t-33 4t-45.5 -10t-59.5 -20zM144 384q0 -16 -13 -27.5t-33 -11.5q-25 0 -41.5 15.5t-16.5 43.5q0 33 24.5 53t58.5 20
q51 0 78 -41q0 33 -26 65.5t-65 44.5q24 -2 39.5 -5t33.5 -11t30 -24.5t18 -40.5q-1 84 -34 114q34 -14 56 -51.5t18 -84.5q-19 -28 -25.5 -52.5t-6.5 -69.5q0 -23 7 -58q-28 10 -58 -5q5 32 5 73q0 111 -70 111q-21 0 -33 -11t-12 -27q0 -13 8 -23t24 -10q25 0 34 13z
M644 111q23 -1 39 -16.5t16 -42.5t-19.5 -44.5t-53.5 -17.5q-29 0 -49 14t-25 39q0 -14 -9.5 -22t-21.5 -8q-16 0 -25 15t-5 39q8 -20 26 -20q4 0 7 1t5 3t3.5 4.5t2.5 6.5t1.5 7.5t0.5 9v9v10v10.5q0 109 42 173q-14 -16 -39 -16q-38 0 -49 46q22 -17 47 -17q27 0 42 19.5
t15 53.5q0 45 -27.5 72.5t-79.5 27.5q-77 0 -143 -56.5t-45 -124.5q-65 87 20 146l24.5 16.5t25 17.5t18 15t15.5 18t4 17q0 29 -55 25q32 13 60 13q52 0 36 -49q32 16 71 16q49 0 82.5 -29.5t32.5 -91.5q27 7 45.5 -11.5t15 -56.5t-35.5 -81q12 36 12.5 60.5t-6.5 32.5
t-16 8q-24 0 -42.5 -59.5t-18.5 -154.5q0 -106 51 -106q33 0 33 30q0 33 -28 49zM210 246q73 0 106 -74q-37 33 -77 37q21 -21 21 -58q0 -17 -4.5 -39t-4.5 -37q0 -48 40 -100q-31 9 -58 33.5t-28 55.5q-16 -27 -58 -27q-36 0 -57 23t-28 56q33 -39 78 -39q33 0 53.5 17
t20.5 50q0 22 -10.5 37.5t-28.5 15.5q-20 0 -34 -16t-14 -42q-12 15 -12 34q0 31 26.5 52t68.5 21z" />
    <glyph glyph-name="OE" unicode="&#x152;" horiz-adv-x="1039" 
d="M778 701q65 20 98.5 39t52.5 50q1 -28 -21 -51.5t-58 -35.5q71 1 112 -27.5t41 -76.5q0 -32 -21 -53t-54 -23q30 32 30 65q0 38 -33.5 57.5t-90.5 19.5t-88 -16.5t-31 -42.5q0 -20 18 -32.5t40 -15.5t40 0q-14 -30 -68 -30q-34 0 -59.5 19.5t-25.5 50.5q0 44 29 64.5
t89 38.5zM644 463q0 112 -68.5 187t-183.5 75q-122 0 -227 -107q-16 -17 -23 -16q-20 4 -42 100h-1q16 -143 -49 -324q0 -75 19.5 -143t57 -123.5t101 -88.5t144.5 -33q97 0 166 48t99 126.5t20 174.5h-1q-6 -105 -51 -182t-96 -98q12 64 -27 135q7 -45 -0.5 -77.5
t-26 -49.5t-40.5 -24.5t-48 -7.5q-78 0 -133 54t-55 132q0 99 67 99q44 0 67 -41q-1 33 -20.5 54.5t-51.5 21.5q-53 0 -84 -54t-10 -138q-45 95 -45 192q0 78 31 149.5t99 121.5t160 50t153.5 -58.5t66.5 -152.5q-25 48 -75.5 74t-109.5 18q64 -7 109 -59t45 -126
q0 -82 -47 -152q110 83 110 243zM716 374q71 38 73 67q8 -10 4 -33.5t-23 -37.5q57 1 98 -19.5t41 -60.5q0 -29 -22 -42.5t-51 -10.5q31 18 31 44q0 25 -30 37t-74 12q-66 0 -77 -48q-18 23 -9.5 48.5t39.5 43.5zM920 163q73 -8 73 -55q0 -45 -66 -69q60 -19 92 -74
q-52 49 -306 49q-106 0 -165 -14l-1 2q93 31 101 180q20 -35 21 -75.5t-15 -66.5q293 -12 293 76q0 29 -27 47z" />
    <glyph glyph-name="oe" unicode="&#x153;" horiz-adv-x="951" 
d="M323 35q144 0 209 117q-22 -75 -81 -118.5t-132 -43.5q-140 0 -218 140q7 -73 107 -137q-85 21 -123.5 93.5t-34.5 176.5q52 115 20 271l2 1q30 -79 58 -99q29 37 81.5 61t107.5 24q100 0 164.5 -64t64.5 -155q0 -84 -50.5 -142t-146.5 -79q110 39 110 144q0 66 -44 126
q84 -49 81 -149q45 109 -12 190.5t-168 81.5q-87 0 -148 -58.5t-61 -158.5q0 -98 64 -160t150 -62zM563 291v1q139 -19 202.5 17.5t63.5 98.5q0 41 -27 67t-75 26q-56 0 -95 -31.5t-54 -72t-14 -81.5h-2q-5 53 -18 85t-49 57l-1 1q42 28 104 45t124 17q71 0 119 -38t57 -101
q-57 -16 -57 -46q0 -11 10.5 -17.5t36.5 -1t62 29.5l1 -1q-45 -43 -132 -78t-187 -39q74 15 107 37q-89 -7 -176 25zM749 53q54 0 97.5 25t60.5 81h1q-1 -82 -47.5 -122.5t-111.5 -40.5q-45 0 -77.5 18t-48.5 43.5t-27 51t-22 43.5t-25 18q-22 0 -45 -33l-2 1q57 90 75 135
q-2 -46 12 -93.5t55.5 -87t104.5 -39.5z" />
    <glyph glyph-name="Racute" unicode="&#x154;" horiz-adv-x="733" 
d="M336 793l-8 -3l-4 12l9 4q95 42 141.5 79t46.5 79q0 37 -33 53q43 6 71 -10t28 -51q0 -36 -32 -61t-85 -48q18 -2 24.5 -17t-7.5 -37l-2 1q0 18 -11 25t-33 4t-45.5 -10t-59.5 -20zM108 435q-31 0 -49.5 18.5t-18.5 45.5q0 34 24.5 56t60.5 22q29 0 54 -16.5t35 -38.5
q0 88 -91 127q96 -10 117 -88q0 44 -15.5 84t-38 66t-42 41.5t-34.5 22.5q18 -4 37.5 -10.5t49 -24.5t51 -42t35.5 -66t11 -93q-37 -28 -39.5 -94t14.5 -151q-36 7 -68 -5q5 53 5 118q0 68 -22 100t-56 32q-21 0 -34.5 -11.5t-13.5 -28.5t11.5 -28.5t28.5 -11.5q26 0 43 20
q0 -17 -15.5 -30.5t-39.5 -13.5zM608 -5q-76 0 -110 68q11 -51 39.5 -73t96.5 -20v-2q-26 -4 -46.5 -4t-36.5 2.5t-28.5 11.5t-21.5 17.5t-16 26.5t-11 33t-8 42.5t-6 49t-5 58.5q-4 -28 -27 -64q4 83 -22.5 120t-84.5 15q-23 23 -32.5 83t1.5 106l2 -1q-3 -51 16.5 -81
t62.5 -30q72 0 133 61.5t61 155.5q0 53 -26.5 83.5t-69.5 30.5q-62 0 -102 -60.5t-51 -158.5h-2q-1 147 45.5 207.5t117.5 60.5q63 0 105 -43.5t42 -115.5q0 -62 -31.5 -112.5t-78 -79t-91.5 -44t-81 -16.5q63 -14 99 -48.5t63 -124.5q34 -110 99 -110q27 0 46 14.5t19 44.5
q0 41 -27 74.5t-67 42.5v1q60 2 102 -30.5t42 -88.5q0 -52 -34 -77t-76 -25zM358 207q-22 21 -52.5 30t-54.5 7q10 -5 17.5 -22t7.5 -37q0 -16 -6 -46t-6 -57q0 -55 43 -106q-87 30 -87 116q-8 -21 -31 -32.5t-45 -11.5q-82 0 -96 79q35 -38 88 -38q37 0 63.5 23.5
t26.5 58.5q0 20 -11 35t-29 15t-30.5 -15t-12.5 -36q-22 44 6.5 77.5t80.5 33.5q40 0 75 -19t53 -55z" />
    <glyph glyph-name="racute" unicode="&#x155;" 
d="M188 584l-8 -3l-4 12l9 4q95 42 141.5 79t46.5 79q0 37 -33 53q43 6 71 -10t28 -51q0 -36 -32 -61t-85 -48q18 -2 24.5 -17t-7.5 -37l-2 1q0 18 -11 25t-33 4t-45.5 -10t-59.5 -20zM144 384q0 -16 -13 -27.5t-33 -11.5q-25 0 -41.5 15.5t-16.5 43.5q0 33 24.5 53t58.5 20
q51 0 78 -41q0 33 -26 65.5t-65 44.5q24 -2 39.5 -5t33.5 -11t30 -24.5t18 -40.5q-1 84 -34 114q34 -14 56 -51.5t18 -84.5q-19 -28 -25.5 -52.5t-6.5 -69.5q0 -23 7 -58q-28 10 -58 -5q5 32 5 73q0 111 -70 111q-21 0 -33 -11t-12 -27q0 -13 8 -23t24 -10q25 0 34 13z
M513 513q22 -140 -93 -247l-2 2q34 44 44 89.5t-6 74.5t-52 29q-55 0 -89 -61t-15 -121q-31 45 -25 89t41 78q3 3 14 13t15 14.5l10.5 12t9 13.5t2.5 12q0 28 -55 23q33 14 56.5 12.5t33.5 -15.5t1 -33q28 -13 61.5 -10t48.5 25zM210 246q73 0 106 -74q-37 33 -77 37
q21 -21 21 -58q0 -17 -4.5 -39t-4.5 -37q0 -48 40 -100q-31 9 -58 33.5t-28 55.5q-16 -27 -58 -27q-36 0 -57 23t-28 56q33 -39 78 -39q33 0 53.5 17t20.5 50q0 22 -10.5 37.5t-28.5 15.5q-20 0 -34 -16t-14 -42q-12 15 -12 34q0 31 26.5 52t68.5 21z" />
    <glyph glyph-name="Sacute" unicode="&#x15a;" horiz-adv-x="634" 
d="M219 773l-8 -3l-4 12l9 4q95 42 141.5 79t46.5 79q0 37 -33 53q43 6 71 -10t28 -51q0 -36 -32 -61t-85 -48q18 -2 24.5 -17t-7.5 -37l-2 1q0 18 -11 25t-33 4t-45.5 -10t-59.5 -20zM327 306q-90 9 -162 70.5t-72 153.5q0 82 73 142t175 60q85 0 142 -54.5t43 -152.5
q18 17 28 29.5t22.5 39t20.5 63.5h2q-12 -213 -212 -239v1q88 49 88 136q0 61 -36.5 100.5t-97.5 39.5q-47 0 -72.5 -22.5t-25.5 -56.5q0 -48 53 -79q-38 0 -66 22t-28 56q0 29 15 48q-37 -19 -57 -54.5t-20 -78.5q0 -45 29 -95.5t84 -80.5q-19 23 -20 48t22 47t69 31
q-39 -26 -45 -62.5t9.5 -64.5t38.5 -47zM422 331q58 8 99 -31t41 -109q0 -72 -76.5 -136.5t-194.5 -64.5q-89 0 -151 55.5t-62 136.5q0 27 -13 27q-15 0 -48 -28l-2 4q34 43 90 80t104 56l1 -2q-80 -56 -80 -142q0 -57 34 -94.5t92 -37.5q53 0 86.5 34t37.5 85q25 -54 5 -94
t-70 -58q95 8 145 59.5t50 114.5q0 43 -23.5 70.5t-53.5 27.5q-33 0 -56 -18.5t-31 -44.5q-22 68 36.5 115.5t142.5 36.5v-1q-68 -2 -103 -41z" />
    <glyph glyph-name="sacute" unicode="&#x15b;" 
d="M180 581l-4 12l9 4q95 42 141.5 79t46.5 79q0 37 -33 53q43 6 71 -10t28 -51q0 -36 -32 -61t-85 -48q18 -2 24.5 -17t-7.5 -37l-2 1q0 18 -11 25t-33 4t-45.5 -10t-59.5 -20zM356 58v1q26 12 45 33.5t19 47.5q0 31 -28 50.5t-103 44.5l-30 10q-89 30 -128 65t-39 83
q0 52 50.5 90t133.5 38q70 0 122.5 -31.5t66.5 -81.5q-48 -5 -48 -33q0 -10 6 -18t28 -14.5t59 -4.5v-2q-74 -19 -108 -4.5t-34 47.5q0 28 28 52q-12 28 -43 46.5t-67 18.5t-55 -20.5t-19 -47.5q0 -45 53 -75l-1 -1q-86 27 -86 76q0 41 36 64q-72 -23 -72 -83
q0 -66 119 -108l40 -14q87 -30 126 -60t39 -71q0 -82 -110 -98zM344 32q47 0 88 29t53 88h1q7 -75 -35.5 -114.5t-111.5 -39.5q-139 0 -210 126q-9 -48 21 -81.5t89 -44.5v-1q-70 0 -109 24.5t-39 72.5q0 12 4 35.5t4 35.5q0 44 -34 44q-33 0 -43 -48q-15 23 -4 55.5
t44 32.5q25 0 46 -18.5t50 -63.5q43 -68 84.5 -100t101.5 -32z" />
    <glyph glyph-name="Scircumflex" unicode="&#x15c;" horiz-adv-x="634" 
d="M222 806q-30 0 -43.5 16t-13 34t8.5 33q12 -36 46 -36q35 0 64 28.5t41 54.5t17 47h2q35 -130 118 -130q43 0 50 36q20 -25 8 -54t-48 -29q-30 0 -58.5 20t-44.5 20q-18 0 -27 -16q-6 10 1.5 22t27.5 7q-22 23 -32 45q-12 -47 -44 -72.5t-73 -25.5zM327 306
q-90 9 -162 70.5t-72 153.5q0 82 73 142t175 60q85 0 142 -54.5t43 -152.5q18 17 28 29.5t22.5 39t20.5 63.5h2q-12 -213 -212 -239v1q88 49 88 136q0 61 -36.5 100.5t-97.5 39.5q-47 0 -72.5 -22.5t-25.5 -56.5q0 -48 53 -79q-38 0 -66 22t-28 56q0 29 15 48
q-37 -19 -57 -54.5t-20 -78.5q0 -45 29 -95.5t84 -80.5q-19 23 -20 48t22 47t69 31q-39 -26 -45 -62.5t9.5 -64.5t38.5 -47zM422 331q58 8 99 -31t41 -109q0 -72 -76.5 -136.5t-194.5 -64.5q-89 0 -151 55.5t-62 136.5q0 27 -13 27q-15 0 -48 -28l-2 4q34 43 90 80t104 56
l1 -2q-80 -56 -80 -142q0 -57 34 -94.5t92 -37.5q53 0 86.5 34t37.5 85q25 -54 5 -94t-70 -58q95 8 145 59.5t50 114.5q0 43 -23.5 70.5t-53.5 27.5q-33 0 -56 -18.5t-31 -44.5q-22 68 36.5 115.5t142.5 36.5v-1q-68 -2 -103 -41z" />
    <glyph glyph-name="scircumflex" unicode="&#x15d;" horiz-adv-x="530" 
d="M161 618q-30 0 -43.5 16t-13 34t8.5 33q12 -36 46 -36q35 0 64 28.5t41 54.5t17 47h2q35 -130 118 -130q43 0 50 36q20 -25 8 -54t-48 -29q-30 0 -58.5 20t-44.5 20q-18 0 -27 -16q-6 10 1.5 22t27.5 7q-22 23 -32 45q-12 -47 -44 -72.5t-73 -25.5zM417 375q0 -10 6 -18
t28 -14.5t59 -4.5v-2q-74 -19 -108 -4.5t-34 47.5q0 28 28 52q-12 28 -43 46.5t-67 18.5t-55 -20.5t-19 -47.5q0 -45 53 -75l-1 -1q-86 27 -86 76q0 41 36 64q-72 -23 -72 -83q0 -66 119 -108l40 -14q87 -30 126 -60t39 -71q0 -82 -110 -98v1q26 12 45 33.5t19 47.5
q0 31 -28 50.5t-103 44.5l-30 10q-89 30 -128 65t-39 83q0 52 50.5 90t133.5 38q70 0 122.5 -31.5t66.5 -81.5q-48 -5 -48 -33zM485 149h1q7 -75 -35.5 -114.5t-111.5 -39.5q-139 0 -210 126q-9 -48 21 -81.5t89 -44.5v-1q-70 0 -109 24.5t-39 72.5q0 12 4 35.5t4 35.5
q0 44 -34 44q-33 0 -43 -48q-15 23 -4 55.5t44 32.5q25 0 46 -18.5t50 -63.5q43 -68 84.5 -100t101.5 -32q47 0 88 29t53 88z" />
    <glyph glyph-name="Scedilla" unicode="&#x15e;" horiz-adv-x="634" 
d="M327 306q-90 9 -162 70.5t-72 153.5q0 82 73 142t175 60q85 0 142 -54.5t43 -152.5q18 17 28 29.5t22.5 39t20.5 63.5h2q-12 -213 -212 -239v1q88 49 88 136q0 61 -36.5 100.5t-97.5 39.5q-47 0 -72.5 -22.5t-25.5 -56.5q0 -48 53 -79q-38 0 -66 22t-28 56q0 29 15 48
q-37 -19 -57 -54.5t-20 -78.5q0 -45 29 -95.5t84 -80.5q-19 23 -20 48t22 47t69 31q-39 -26 -45 -62.5t9.5 -64.5t38.5 -47zM422 331q58 8 99 -31t41 -109q0 -72 -76.5 -136.5t-194.5 -64.5q-89 0 -151 55.5t-62 136.5q0 27 -13 27q-15 0 -48 -28l-2 4q34 43 90 80t104 56
l1 -2q-80 -56 -80 -142q0 -57 34 -94.5t92 -37.5q53 0 86.5 34t37.5 85q25 -54 5 -94t-70 -58q95 8 145 59.5t50 114.5q0 43 -23.5 70.5t-53.5 27.5q-33 0 -56 -18.5t-31 -44.5q-22 68 36.5 115.5t142.5 36.5v-1q-68 -2 -103 -41zM250 -12q31 -16 59.5 -20t113.5 -2v-5
q-62 1 -103.5 -6t-62.5 -21.5t-30 -29t-13 -36.5q12 25 39 46.5t66 21.5q35 0 55.5 -14.5t20.5 -41.5q0 -47 -43 -79.5t-116 -32.5q-45 0 -71 18.5t-33 39.5l2 1q31 -41 103 -41q47 0 79 26.5t32 62.5q0 46 -44 46q-31 0 -61 -30t-39 -71l-2 -7h-2q4 100 50 175z" />
    <glyph glyph-name="scedilla" unicode="&#x15f;" 
d="M417 375q0 -10 6 -18t28 -14.5t59 -4.5v-2q-74 -19 -108 -4.5t-34 47.5q0 28 28 52q-12 28 -43 46.5t-67 18.5t-55 -20.5t-19 -47.5q0 -45 53 -75l-1 -1q-86 27 -86 76q0 41 36 64q-72 -23 -72 -83q0 -66 119 -108l40 -14q87 -30 126 -60t39 -71q0 -82 -110 -98v1
q26 12 45 33.5t19 47.5q0 31 -28 50.5t-103 44.5l-30 10q-89 30 -128 65t-39 83q0 52 50.5 90t133.5 38q70 0 122.5 -31.5t66.5 -81.5q-48 -5 -48 -33zM485 149h1q7 -75 -35.5 -114.5t-111.5 -39.5q-139 0 -210 126q-9 -48 21 -81.5t89 -44.5v-1q-70 0 -109 24.5t-39 72.5
q0 12 4 35.5t4 35.5q0 44 -34 44q-33 0 -43 -48q-15 23 -4 55.5t44 32.5q25 0 46 -18.5t50 -63.5q43 -68 84.5 -100t101.5 -32q47 0 88 29t53 88zM241 -12q31 -16 59.5 -20t113.5 -2v-5q-62 1 -103.5 -6t-62.5 -21.5t-30 -29t-13 -36.5q12 25 39 46.5t66 21.5
q35 0 55.5 -14.5t20.5 -41.5q0 -47 -43 -79.5t-116 -32.5q-45 0 -71 18.5t-33 39.5l2 1q31 -41 103 -41q47 0 79 26.5t32 62.5q0 46 -44 46q-31 0 -61 -30t-39 -71l-2 -7h-2q4 100 50 175z" />
    <glyph glyph-name="uni0162" unicode="&#x162;" horiz-adv-x="780" 
d="M299 577q29 0 54 -16.5t35 -38.5q0 48 -26.5 79t-63.5 47q6 -15 -3 -37q-10 35 -51 43q13 -38 -7 -68q-1 38 -38 57.5t-93 19.5q-66 0 -66 -36q0 -18 15 -35q-55 13 -55 59q0 25 19.5 39t53.5 14q-23 24 -22 44t13 27q2 -45 53 -61q18 -6 78 -16q90 -15 103 -49
q95 -10 116 -88q0 44 -15.5 84t-38 66t-42 41.5t-34.5 22.5q18 -4 37.5 -10.5t49 -24.5t51 -42t35.5 -66t11 -93q-37 -28 -39.5 -94t14.5 -151q-36 7 -68 -5q5 53 5 118q0 68 -22 100t-56 32q-21 0 -34.5 -11.5t-13.5 -28.5t11.5 -28.5t28.5 -11.5q26 0 43 20
q0 -17 -15.5 -30.5t-39.5 -13.5q-31 0 -49.5 18.5t-18.5 45.5q0 34 24.5 56t60.5 22zM707 704q34 0 53.5 -14t19.5 -39q0 -46 -55 -59q15 17 15 35q0 35 -66 35q-50 0 -90 -20t-41 -56q-20 30 -7 68q-40 -8 -51 -43q-15 37 11.5 57t88.5 30q82 13 103 26q27 17 28 51
q12 -7 13 -27t-22 -44zM404 281q40 0 75 -19t53 -55q-22 21 -52.5 30t-54.5 7q10 -5 17.5 -22t7.5 -37q0 -16 -6 -46t-6 -57q0 -55 43 -106q-87 30 -87 116q-8 -21 -31 -32.5t-45 -11.5q-82 0 -96 79q35 -38 88 -38q37 0 63.5 23.5t26.5 58.5q0 20 -11 35t-29 15t-30.5 -15
t-12.5 -36q-22 44 6.5 77.5t80.5 33.5zM333 -12q31 -16 59.5 -20t113.5 -2v-5q-62 1 -103.5 -6t-62.5 -21.5t-30 -29t-13 -36.5q12 25 39 46.5t66 21.5q35 0 55.5 -14.5t20.5 -41.5q0 -47 -43 -79.5t-116 -32.5q-45 0 -71 18.5t-33 39.5l2 1q31 -41 103 -41q47 0 79 26.5
t32 62.5q0 46 -44 46q-31 0 -61 -30t-39 -71l-2 -7h-2q4 100 50 175z" />
    <glyph glyph-name="uni0163" unicode="&#x163;" horiz-adv-x="430" 
d="M338 323q11 30 13.5 52.5t-4.5 38.5t-18.5 27t-36 16t-48.5 7t-64 0t-75.5 -5.5t-89.5 -9.5v3q61 8 102.5 37.5t58 69.5t22 86t-6.5 86l3 2q13 -37 20 -77.5t2.5 -90.5t-25.5 -87q131 9 162 20q44 18 48 67h2q14 -109 -63 -243zM384 211h3q2 -62 -10.5 -107.5t-35.5 -69
t-47.5 -34t-51.5 -10.5q-38 0 -77.5 21t-56.5 60q-3 -23 4.5 -54t27.5 -51l-2 -2q-73 60 -73 135q0 50 32 132t32 124q0 93 -89 76v2q44 14 88 10t60 -24q-20 -22 -42 -106.5t-22 -138.5q0 -62 31.5 -98t90.5 -36q57 0 95 44.5t43 126.5zM171 -12q31 -16 59.5 -20t113.5 -2
v-5q-62 1 -103.5 -6t-62.5 -21.5t-30 -29t-13 -36.5q12 25 39 46.5t66 21.5q35 0 55.5 -14.5t20.5 -41.5q0 -47 -43 -79.5t-116 -32.5q-45 0 -71 18.5t-33 39.5l2 1q31 -41 103 -41q47 0 79 26.5t32 62.5q0 46 -44 46q-31 0 -61 -30t-39 -71l-2 -7h-2q4 100 50 175z" />
    <glyph glyph-name="Wcircumflex" unicode="&#x174;" horiz-adv-x="873" 
d="M322 775q-30 0 -43.5 16t-13 34t8.5 33q12 -36 46 -36q35 0 64 28.5t41 54.5t17 47h2q35 -130 118 -130q43 0 50 36q20 -26 8 -54.5t-48 -28.5q-30 0 -58.5 20t-44.5 20q-18 0 -27 -16q-6 10 1.5 22t27.5 7q-22 23 -32 45q-12 -47 -44 -72.5t-73 -25.5zM599 727
q134 0 199 -72.5t65 -176.5q0 -30 -5.5 -60.5t-12.5 -55t-21.5 -54.5t-24 -47t-28.5 -45t-26.5 -37.5l-27 -34.5t-20.5 -27q-36 -47 -45.5 -75.5t2.5 -54.5q-83 47 -102 135h3q18 -42 51 -42q29 0 66.5 40t94.5 136q-52 -54 -112 -54q-35 0 -54 17t-19 41q0 41 56 63
q-20 -26 -20 -49q0 -14 11.5 -23.5t29.5 -9.5q55 0 99.5 67t44.5 155q0 81 -38.5 131.5t-105.5 50.5q-51 0 -93 -29t-117 -104l-8 9q109 104 158 206zM461 394q9 -38 20.5 -92.5t18.5 -84t18 -69.5t22.5 -63.5t29 -51t41.5 -47t55 -36.5l-1 -4q-30 14 -53.5 28l-43 26.5
t-35.5 32l-28 34t-24 43t-19.5 48t-19 60.5t-18.5 69l-20 84l-5 21q-34 140 -76.5 206t-113.5 66q-69 0 -113.5 -45.5t-56.5 -103.5h-2q3 82 49.5 142t134.5 60q92 0 144.5 -72t90.5 -230zM317 280q43 0 74.5 -27.5t36.5 -77.5l-2 -2q-28 69 -99 69q-42 0 -69 -29t-30 -74
q29 31 69 23.5t58 -48.5q-36 27 -60.5 25t-37 -18t-12.5 -39q0 -50 48 -93l-1 -2q-112 14 -195 115t-83 223q0 100 64.5 180t172.5 121l1 -3q-98 -58 -138 -128t-40 -161q0 -72 33.5 -138.5t78.5 -103.5q-16 78 24 133t107 55z" />
    <glyph glyph-name="wcircumflex" unicode="&#x175;" horiz-adv-x="801" 
d="M319 649q-30 0 -43.5 16t-13 34t8.5 33q12 -36 46 -36q35 0 64 28.5t41 54.5t17 47h2q35 -130 118 -130q43 0 50 36q20 -26 8 -54.5t-48 -28.5q-30 0 -58.5 20t-44.5 20q-18 0 -27 -16q-6 10 1.5 22t27.5 7q-22 23 -32 45q-12 -47 -44 -72.5t-73 -25.5zM619 521
q63 -9 102.5 -52.5t39.5 -104.5q0 -48 -15.5 -94t-44 -87t-54 -71.5t-61.5 -67.5t-50 -54q-21 3 -40.5 22.5t-25 49t21.5 65.5h1q-4 -30 9 -49.5t40 -19.5q41 0 88.5 66t47.5 154q0 55 -26 90q21 -1 42 -10t30 -25q-4 62 -39 97.5t-93 35.5q-51 0 -87.5 -29t-36.5 -71
q0 -38 -11.5 -80t-21.5 -70.5t-12.5 -78.5t16.5 -105l-1 -1q-30 45 -37.5 86t-0.5 92t7 59q0 58 -37 89q49 0 66 -45q11 73 -18.5 110t-81.5 37q-73 0 -159 -91l-5 7q58 56 87 116q35 30 83 30q43 0 78.5 -27.5t42.5 -83.5q4 25 23 48t39.5 36.5t37 29.5t16.5 30t-13 23
t-42 4q25 19 59 19q50 0 50 -44q0 -17 -14 -35zM342 163q35 -12 35 -50q0 -30 -31.5 -47t-72.5 -12q14 -42 64 -63v-1q-26 -4 -47 1.5t-37 16t-30 34.5t-23.5 45.5t-20 61.5t-17 70.5l-17.5 83.5q-17 86 -33 120.5t-42 34.5q-21 0 -52 -27l-3 2q25 38 68 63t77 25
q-13 -84 0 -182t50 -168.5t85 -70.5q34 0 46.5 17.5t0.5 45.5z" />
    <glyph glyph-name="Ycircumflex" unicode="&#x176;" horiz-adv-x="704" 
d="M227 756q-30 0 -43.5 16t-13 34t8.5 33q12 -36 46 -36q35 0 64 28.5t41 54.5t17 47h2q35 -130 118 -130q43 0 50 36q20 -25 8 -54t-48 -29q-30 0 -58.5 20t-44.5 20q-18 0 -27 -16q-6 10 1.5 22t27.5 7q-22 23 -32 45q-12 -47 -44 -72.5t-73 -25.5zM591 578q35 0 59 -20
t24 -55q0 -28 -20.5 -48t-45.5 -20q-24 0 -39.5 13.5t-15.5 30.5q17 -20 43 -20q17 0 28.5 11.5t11.5 28.5t-13.5 28.5t-32.5 11.5q-35 0 -57.5 -31.5t-22.5 -100.5q0 -74 5 -126q-30 7 -68 0q17 90 14.5 158.5t-39.5 99.5q-3 51 11 93t35.5 66t51 42t49 24.5t37.5 10.5
q-15 -7 -34.5 -22.5t-42 -41.5t-38 -66t-15.5 -84q21 78 117 88q-91 -39 -91 -127q9 23 34 39.5t55 16.5zM616 186q-60 42 -106 38q42 -37 72.5 -100.5t30.5 -136.5q0 -99 -75.5 -165.5t-208.5 -79.5l-1 2q48 13 83.5 57t35.5 87q0 33 -20 53t-58 20q-48 0 -78 -29t-30 -71
q0 -26 11.5 -41.5t31.5 -15.5q37 0 55 39q7 -33 -11.5 -54t-49.5 -21q-30 0 -51 18.5t-26 40.5q-25 -11 -40.5 7t-10.5 45q6 -19 22.5 -24t25.5 6q0 57 46 98t109 41q57 0 87 -29.5t30 -72.5q0 -56 -43 -101q50 23 84.5 70t34.5 113q0 73 -31 132q-14 -45 -44 -65t-60 -20
q-33 0 -51 21t-14 54q0 -5 5 -13t20 -16.5t36 -8.5q29 0 50 22.5t21 60.5q0 28 -14.5 47t-38.5 19q-26 0 -55.5 -23t-57 -55.5l-57 -65.5t-65.5 -56t-72 -23q-41 0 -75 28t-43 71q93 99 145.5 205.5t52.5 203.5q0 71 -24.5 106.5t-64.5 35.5q-50 0 -77 -38q0 32 26.5 58
t73.5 26q63 0 98.5 -47.5t35.5 -135.5q0 -103 -58 -197.5t-172 -210.5q9 -25 33 -45t54 -20q24 0 36 10q-23 1 -40 21t-12.5 51.5t38.5 58.5q-19 -26 -10 -60t42 -34q47 0 105 66q53 60 85 83q50 34 101 34q89 0 128 -74z" />
    <glyph glyph-name="ycircumflex" unicode="&#x177;" horiz-adv-x="623" 
d="M197 658q-30 0 -43.5 16t-13 34t8.5 33q12 -36 46 -36q35 0 64 28.5t41 54.5t17 47h2q35 -130 118 -130q43 0 50 36q20 -25 8 -54t-48 -29q-30 0 -58.5 20t-44.5 20q-18 0 -27 -16q-6 10 1.5 22t27.5 7q-22 23 -32 45q-12 -47 -44 -72.5t-73 -25.5zM320 -209
q32 0 66 37.5t57 123.5h2q-16 -116 -71.5 -172.5t-172.5 -56.5v2q52 14 70 29q-30 10 -45.5 29.5t-15.5 41.5q0 34 29.5 70t71 71.5t83 76t71 100t29.5 127.5q0 49 -26 89q49 -10 66 -55q9 72 -29.5 114.5t-100.5 42.5q-58 0 -106.5 -25t-112.5 -86l-5 4q78 73 107 137
q3 1 22.5 4.5t30.5 7t26.5 9.5t23 15.5t7.5 21.5q0 14 -13 23t-42 4q54 31 88 10.5t7 -70.5q63 -16 99.5 -62.5t36.5 -115.5t-31 -135t-75 -115t-88.5 -92t-75.5 -82.5t-31 -70.5q0 -26 13.5 -39t34.5 -13zM326 -10q-133 -19 -184 313q-14 89 -28 122t-44 33t-53 -28l-2 3
q26 39 70 63.5t85 24.5q-15 -90 -7 -183.5t46.5 -165.5t91.5 -72q39 0 39 32q0 16 -9 31q18 -4 29.5 -16.5t11.5 -31.5q0 -31 -30.5 -48.5t-71.5 -12.5q19 -43 56 -63v-1z" />
    <glyph glyph-name="Ydieresis" unicode="&#x178;" horiz-adv-x="704" 
d="M298 752q-60 17 -60 70q0 21 14.5 35.5t35.5 14.5q24 0 40 -18.5t10 -51.5q-12 12 -27.5 8.5t-20 -18.5t7.5 -40zM448 752q-60 17 -60 70q0 21 14.5 35.5t35.5 14.5q24 0 40 -18.5t10 -51.5q-12 12 -27.5 8.5t-20 -18.5t7.5 -40zM591 578q35 0 59 -20t24 -55
q0 -28 -20.5 -48t-45.5 -20q-24 0 -39.5 13.5t-15.5 30.5q17 -20 43 -20q17 0 28.5 11.5t11.5 28.5t-13.5 28.5t-32.5 11.5q-35 0 -57.5 -31.5t-22.5 -100.5q0 -74 5 -126q-30 7 -68 0q17 90 14.5 158.5t-39.5 99.5q-3 51 11 93t35.5 66t51 42t49 24.5t37.5 10.5
q-15 -7 -34.5 -22.5t-42 -41.5t-38 -66t-15.5 -84q21 78 117 88q-91 -39 -91 -127q9 23 34 39.5t55 16.5zM616 186q-60 42 -106 38q42 -37 72.5 -100.5t30.5 -136.5q0 -99 -75.5 -165.5t-208.5 -79.5l-1 2q48 13 83.5 57t35.5 87q0 33 -20 53t-58 20q-48 0 -78 -29t-30 -71
q0 -26 11.5 -41.5t31.5 -15.5q37 0 55 39q7 -33 -11.5 -54t-49.5 -21q-30 0 -51 18.5t-26 40.5q-25 -11 -40.5 7t-10.5 45q6 -19 22.5 -24t25.5 6q0 57 46 98t109 41q57 0 87 -29.5t30 -72.5q0 -56 -43 -101q50 23 84.5 70t34.5 113q0 73 -31 132q-14 -45 -44 -65t-60 -20
q-33 0 -51 21t-14 54q0 -5 5 -13t20 -16.5t36 -8.5q29 0 50 22.5t21 60.5q0 28 -14.5 47t-38.5 19q-26 0 -55.5 -23t-57 -55.5l-57 -65.5t-65.5 -56t-72 -23q-41 0 -75 28t-43 71q93 99 145.5 205.5t52.5 203.5q0 71 -24.5 106.5t-64.5 35.5q-50 0 -77 -38q0 32 26.5 58
t73.5 26q63 0 98.5 -47.5t35.5 -135.5q0 -103 -58 -197.5t-172 -210.5q9 -25 33 -45t54 -20q24 0 36 10q-23 1 -40 21t-12.5 51.5t38.5 58.5q-19 -26 -10 -60t42 -34q47 0 105 66q53 60 85 83q50 34 101 34q89 0 128 -74z" />
    <glyph glyph-name="Zacute" unicode="&#x179;" horiz-adv-x="716" 
d="M312 720l-4 12l9 4q95 42 141.5 79t46.5 79q0 37 -33 53q43 6 71 -10t28 -51q0 -36 -32 -61t-85 -48q18 -2 24.5 -17t-7.5 -37l-2 1q0 18 -11 25t-33 4t-45.5 -10t-59.5 -20zM98 536q0 -39 25.5 -62.5t67.5 -23.5q34 0 56.5 21.5t16.5 56.5q-20 -35 -63 -35
q-21 0 -33.5 13.5t-12.5 32.5q0 47 59 72t171 25q77 0 122 -8t63.5 -27.5t16 -46t-22.5 -67.5l2 -1q42 64 72.5 138.5t39.5 125.5h-2q-20 -54 -80 -70.5t-181 -16.5q-101 0 -167.5 19t-80.5 54q-10 -37 9.5 -60t69.5 -27q-74 -9 -111 -39.5t-37 -73.5zM20 122q35 -38 88 -38
q40 0 70 24t30 58q0 21 -11.5 35.5t-33.5 14.5q-21 0 -34.5 -15t-13.5 -36q-28 12 -28 37q0 30 35.5 48.5t135.5 42.5q174 41 273.5 126.5t144.5 261.5l4 -1q-22 -156 -118 -279t-244 -171q-31 22 -70.5 24.5t-55.5 -8.5q15 -4 27 -16.5t29.5 -40.5t27.5 -42
q23 -30 42.5 -50t58.5 -39t85 -19q83 0 143 57.5t87 157.5h4q-16 -131 -78.5 -197.5t-157.5 -66.5q-76 0 -133.5 35t-87.5 95q-3 -18 -3 -43q0 -36 9.5 -58.5t33.5 -47.5q-77 30 -77 126q-8 -27 -36.5 -40.5t-55.5 -13.5q-76 0 -90 79z" />
    <glyph glyph-name="zacute" unicode="&#x17a;" 
d="M180 581l-4 12l9 4q95 42 141.5 79t46.5 79q0 37 -33 53q43 6 71 -10t28 -51q0 -36 -32 -61t-85 -48q18 -2 24.5 -17t-7.5 -37l-2 1q0 18 -11 25t-33 4t-45.5 -10t-59.5 -20zM471 547q-15 -30 -41 -38.5t-85 -8.5q-109 0 -199 -46q-24 61 -17 128h-6q-7 -40 -4.5 -91.5
t4.5 -83.5t10.5 -74t13.5 -63.5t14 -53.5h2q-22 129 25 193t128 64q26 0 44.5 -14t27 -53t-15.5 -109h2q69 141 98 250h-1zM129 47q-24 0 -37 10.5t-13 28.5q0 14 12 24t29 10q41 0 64 -45h1q1 29 -19 51.5t-52 22.5q-36 0 -57 -20t-21 -49q0 -31 22 -50t61 -19
q-33 -29 -99 -40v-1q72 -13 144 26.5t126.5 108.5t100 153.5t71.5 162.5t32 134h-4q-60 -206 -163 -357t-198 -151zM296 78q49 -44 114 -44q34 0 56 12.5t22 34.5q0 17 -12.5 28.5t-31.5 11.5q-23 0 -38.5 -16.5t-16.5 -47.5h-1q-9 42 9 69t54 27q34 0 55 -18.5t21 -50.5
q0 -47 -38.5 -69.5t-92.5 -22.5q-45 0 -86 15l1 2q59 -18 69 -6q5 7 -15 15q-18 7 -46 7q-67 0 -117 -25l-1 2q62 33 95 76z" />
    <glyph glyph-name="Zdotaccent" unicode="&#x17b;" horiz-adv-x="716" 
d="M451 748q-60 17 -60 70q0 21 14.5 35.5t35.5 14.5q24 0 40 -18.5t10 -51.5q-12 12 -27.5 8.5t-20 -18.5t7.5 -40zM98 536q0 -39 25.5 -62.5t67.5 -23.5q34 0 56.5 21.5t16.5 56.5q-20 -35 -63 -35q-21 0 -33.5 13.5t-12.5 32.5q0 47 59 72t171 25q77 0 122 -8t63.5 -27.5
t16 -46t-22.5 -67.5l2 -1q42 64 72.5 138.5t39.5 125.5h-2q-20 -54 -80 -70.5t-181 -16.5q-101 0 -167.5 19t-80.5 54q-10 -37 9.5 -60t69.5 -27q-74 -9 -111 -39.5t-37 -73.5zM20 122q35 -38 88 -38q40 0 70 24t30 58q0 21 -11.5 35.5t-33.5 14.5q-21 0 -34.5 -15
t-13.5 -36q-28 12 -28 37q0 30 35.5 48.5t135.5 42.5q174 41 273.5 126.5t144.5 261.5l4 -1q-22 -156 -118 -279t-244 -171q-31 22 -70.5 24.5t-55.5 -8.5q15 -4 27 -16.5t29.5 -40.5t27.5 -42q23 -30 42.5 -50t58.5 -39t85 -19q83 0 143 57.5t87 157.5h4
q-16 -131 -78.5 -197.5t-157.5 -66.5q-76 0 -133.5 35t-87.5 95q-3 -18 -3 -43q0 -36 9.5 -58.5t33.5 -47.5q-77 30 -77 126q-8 -27 -36.5 -40.5t-55.5 -13.5q-76 0 -90 79z" />
    <glyph glyph-name="zdotaccent" unicode="&#x17c;" 
d="M320 621q-60 17 -60 70q0 21 14.5 35.5t35.5 14.5q24 0 40 -18.5t10 -51.5q-12 12 -27.5 8.5t-20 -18.5t7.5 -40zM471 547q-15 -30 -41 -38.5t-85 -8.5q-109 0 -199 -46q-24 61 -17 128h-6q-7 -40 -4.5 -91.5t4.5 -83.5t10.5 -74t13.5 -63.5t14 -53.5h2q-22 129 25 193
t128 64q26 0 44.5 -14t27 -53t-15.5 -109h2q69 141 98 250h-1zM129 47q-24 0 -37 10.5t-13 28.5q0 14 12 24t29 10q41 0 64 -45h1q1 29 -19 51.5t-52 22.5q-36 0 -57 -20t-21 -49q0 -31 22 -50t61 -19q-33 -29 -99 -40v-1q72 -13 144 26.5t126.5 108.5t100 153.5t71.5 162.5
t32 134h-4q-60 -206 -163 -357t-198 -151zM296 78q49 -44 114 -44q34 0 56 12.5t22 34.5q0 17 -12.5 28.5t-31.5 11.5q-23 0 -38.5 -16.5t-16.5 -47.5h-1q-9 42 9 69t54 27q34 0 55 -18.5t21 -50.5q0 -47 -38.5 -69.5t-92.5 -22.5q-45 0 -86 15l1 2q59 -18 69 -6q5 7 -15 15
q-18 7 -46 7q-67 0 -117 -25l-1 2q62 33 95 76z" />
    <glyph glyph-name="circumflex" unicode="&#x2c6;" 
d="M481 830q20 -26 8 -54.5t-48 -28.5q-30 0 -58.5 20t-44.5 20q-18 0 -27 -16q-6 10 1.5 22t27.5 7q-22 23 -32 45q-12 -47 -44 -72.5t-73 -25.5q-30 0 -43.5 16t-13 34t8.5 33q12 -36 46 -36q35 0 64 28.5t41 54.5t17 47h2q35 -130 118 -130q43 0 50 36z" />
    <glyph glyph-name="dotaccent" unicode="&#x2d9;" horiz-adv-x="232" 
d="M140 671q-60 17 -60 70q0 21 14.5 35.5t35.5 14.5q24 0 40 -18.5t10 -51.5q-12 12 -27.5 8.5t-20 -18.5t7.5 -40z" />
    <glyph glyph-name="Wgrave" unicode="&#x1e80;" horiz-adv-x="873" 
d="M424 796q-53 23 -85 48t-32 61q0 35 28 51t71 10q-33 -16 -33 -53q0 -42 46.5 -79t141.5 -79l9 -4l-4 -12l-8 3q-36 13 -59.5 20t-45.5 10t-33 -4t-11 -25l-2 -1q-14 22 -7.5 37t24.5 17zM599 727q134 0 199 -72.5t65 -176.5q0 -30 -5.5 -60.5t-12.5 -55t-21.5 -54.5
t-24 -47t-28.5 -45t-26.5 -37.5l-27 -34.5t-20.5 -27q-36 -47 -45.5 -75.5t2.5 -54.5q-83 47 -102 135h3q18 -42 51 -42q29 0 66.5 40t94.5 136q-52 -54 -112 -54q-35 0 -54 17t-19 41q0 41 56 63q-20 -26 -20 -49q0 -14 11.5 -23.5t29.5 -9.5q55 0 99.5 67t44.5 155
q0 81 -38.5 131.5t-105.5 50.5q-51 0 -93 -29t-117 -104l-8 9q109 104 158 206zM461 394q9 -38 20.5 -92.5t18.5 -84t18 -69.5t22.5 -63.5t29 -51t41.5 -47t55 -36.5l-1 -4q-30 14 -53.5 28l-43 26.5t-35.5 32l-28 34t-24 43t-19.5 48t-19 60.5t-18.5 69l-20 84l-5 21
q-34 140 -76.5 206t-113.5 66q-69 0 -113.5 -45.5t-56.5 -103.5h-2q3 82 49.5 142t134.5 60q92 0 144.5 -72t90.5 -230zM317 280q43 0 74.5 -27.5t36.5 -77.5l-2 -2q-28 69 -99 69q-42 0 -69 -29t-30 -74q29 31 69 23.5t58 -48.5q-36 27 -60.5 25t-37 -18t-12.5 -39
q0 -50 48 -93l-1 -2q-112 14 -195 115t-83 223q0 100 64.5 180t172.5 121l1 -3q-98 -58 -138 -128t-40 -161q0 -72 33.5 -138.5t78.5 -103.5q-16 78 24 133t107 55z" />
    <glyph glyph-name="wgrave" unicode="&#x1e81;" horiz-adv-x="801" 
d="M421 679q-53 23 -85 48t-32 61q0 35 28 51t71 10q-33 -16 -33 -53q0 -42 46.5 -79t141.5 -79l9 -4l-4 -12l-8 3q-36 13 -59.5 20t-45.5 10t-33 -4t-11 -25l-2 -1q-14 22 -7.5 37t24.5 17zM619 521q63 -9 102.5 -52.5t39.5 -104.5q0 -48 -15.5 -94t-44 -87t-54 -71.5
t-61.5 -67.5t-50 -54q-21 3 -40.5 22.5t-25 49t21.5 65.5h1q-4 -30 9 -49.5t40 -19.5q41 0 88.5 66t47.5 154q0 55 -26 90q21 -1 42 -10t30 -25q-4 62 -39 97.5t-93 35.5q-51 0 -87.5 -29t-36.5 -71q0 -38 -11.5 -80t-21.5 -70.5t-12.5 -78.5t16.5 -105l-1 -1
q-30 45 -37.5 86t-0.5 92t7 59q0 58 -37 89q49 0 66 -45q11 73 -18.5 110t-81.5 37q-73 0 -159 -91l-5 7q58 56 87 116q35 30 83 30q43 0 78.5 -27.5t42.5 -83.5q4 25 23 48t39.5 36.5t37 29.5t16.5 30t-13 23t-42 4q25 19 59 19q50 0 50 -44q0 -17 -14 -35zM342 163
q35 -12 35 -50q0 -30 -31.5 -47t-72.5 -12q14 -42 64 -63v-1q-26 -4 -47 1.5t-37 16t-30 34.5t-23.5 45.5t-20 61.5t-17 70.5l-17.5 83.5q-17 86 -33 120.5t-42 34.5q-21 0 -52 -27l-3 2q25 38 68 63t77 25q-13 -84 0 -182t50 -168.5t85 -70.5q34 0 46.5 17.5t0.5 45.5z" />
    <glyph glyph-name="Wacute" unicode="&#x1e82;" horiz-adv-x="873" 
d="M319 742l-8 -3l-4 12l9 4q95 42 141.5 79t46.5 79q0 37 -33 53q43 6 71 -10t28 -51q0 -36 -32 -61t-85 -48q18 -2 24.5 -17t-7.5 -37l-2 1q0 18 -11 25t-33 4t-45.5 -10t-59.5 -20zM599 727q134 0 199 -72.5t65 -176.5q0 -30 -5.5 -60.5t-12.5 -55t-21.5 -54.5t-24 -47
t-28.5 -45t-26.5 -37.5l-27 -34.5t-20.5 -27q-36 -47 -45.5 -75.5t2.5 -54.5q-83 47 -102 135h3q18 -42 51 -42q29 0 66.5 40t94.5 136q-52 -54 -112 -54q-35 0 -54 17t-19 41q0 41 56 63q-20 -26 -20 -49q0 -14 11.5 -23.5t29.5 -9.5q55 0 99.5 67t44.5 155
q0 81 -38.5 131.5t-105.5 50.5q-51 0 -93 -29t-117 -104l-8 9q109 104 158 206zM461 394q9 -38 20.5 -92.5t18.5 -84t18 -69.5t22.5 -63.5t29 -51t41.5 -47t55 -36.5l-1 -4q-30 14 -53.5 28l-43 26.5t-35.5 32l-28 34t-24 43t-19.5 48t-19 60.5t-18.5 69l-20 84l-5 21
q-34 140 -76.5 206t-113.5 66q-69 0 -113.5 -45.5t-56.5 -103.5h-2q3 82 49.5 142t134.5 60q92 0 144.5 -72t90.5 -230zM317 280q43 0 74.5 -27.5t36.5 -77.5l-2 -2q-28 69 -99 69q-42 0 -69 -29t-30 -74q29 31 69 23.5t58 -48.5q-36 27 -60.5 25t-37 -18t-12.5 -39
q0 -50 48 -93l-1 -2q-112 14 -195 115t-83 223q0 100 64.5 180t172.5 121l1 -3q-98 -58 -138 -128t-40 -161q0 -72 33.5 -138.5t78.5 -103.5q-16 78 24 133t107 55z" />
    <glyph glyph-name="wacute" unicode="&#x1e83;" 
d="M188 584l-8 -3l-4 12l9 4q95 42 141.5 79t46.5 79q0 37 -33 53q43 6 71 -10t28 -51q0 -36 -32 -61t-85 -48q18 -2 24.5 -17t-7.5 -37l-2 1q0 18 -11 25t-33 4t-45.5 -10t-59.5 -20zM619 521q63 -9 102.5 -52.5t39.5 -104.5q0 -48 -15.5 -94t-44 -87t-54 -71.5
t-61.5 -67.5t-50 -54q-21 3 -40.5 22.5t-25 49t21.5 65.5h1q-4 -30 9 -49.5t40 -19.5q41 0 88.5 66t47.5 154q0 55 -26 90q21 -1 42 -10t30 -25q-4 62 -39 97.5t-93 35.5q-51 0 -87.5 -29t-36.5 -71q0 -38 -11.5 -80t-21.5 -70.5t-12.5 -78.5t16.5 -105l-1 -1
q-30 45 -37.5 86t-0.5 92t7 59q0 58 -37 89q49 0 66 -45q11 73 -18.5 110t-81.5 37q-73 0 -159 -91l-5 7q58 56 87 116q35 30 83 30q43 0 78.5 -27.5t42.5 -83.5q4 25 23 48t39.5 36.5t37 29.5t16.5 30t-13 23t-42 4q25 19 59 19q50 0 50 -44q0 -17 -14 -35zM342 163
q35 -12 35 -50q0 -30 -31.5 -47t-72.5 -12q14 -42 64 -63v-1q-26 -4 -47 1.5t-37 16t-30 34.5t-23.5 45.5t-20 61.5t-17 70.5l-17.5 83.5q-17 86 -33 120.5t-42 34.5q-21 0 -52 -27l-3 2q25 38 68 63t77 25q-13 -84 0 -182t50 -168.5t85 -70.5q34 0 46.5 17.5t0.5 45.5z" />
    <glyph glyph-name="Wdieresis" unicode="&#x1e84;" horiz-adv-x="873" 
d="M393 771q-60 17 -60 70q0 21 14.5 35.5t35.5 14.5q24 0 40 -18.5t10 -51.5q-12 12 -27.5 8.5t-20 -18.5t7.5 -40zM543 771q-60 17 -60 70q0 21 14.5 35.5t35.5 14.5q24 0 40 -18.5t10 -51.5q-12 12 -27.5 8.5t-20 -18.5t7.5 -40zM599 727q134 0 199 -72.5t65 -176.5
q0 -30 -5.5 -60.5t-12.5 -55t-21.5 -54.5t-24 -47t-28.5 -45t-26.5 -37.5l-27 -34.5t-20.5 -27q-36 -47 -45.5 -75.5t2.5 -54.5q-83 47 -102 135h3q18 -42 51 -42q29 0 66.5 40t94.5 136q-52 -54 -112 -54q-35 0 -54 17t-19 41q0 41 56 63q-20 -26 -20 -49q0 -14 11.5 -23.5
t29.5 -9.5q55 0 99.5 67t44.5 155q0 81 -38.5 131.5t-105.5 50.5q-51 0 -93 -29t-117 -104l-8 9q109 104 158 206zM461 394q9 -38 20.5 -92.5t18.5 -84t18 -69.5t22.5 -63.5t29 -51t41.5 -47t55 -36.5l-1 -4q-30 14 -53.5 28l-43 26.5t-35.5 32l-28 34t-24 43t-19.5 48
t-19 60.5t-18.5 69l-20 84l-5 21q-34 140 -76.5 206t-113.5 66q-69 0 -113.5 -45.5t-56.5 -103.5h-2q3 82 49.5 142t134.5 60q92 0 144.5 -72t90.5 -230zM317 280q43 0 74.5 -27.5t36.5 -77.5l-2 -2q-28 69 -99 69q-42 0 -69 -29t-30 -74q29 31 69 23.5t58 -48.5
q-36 27 -60.5 25t-37 -18t-12.5 -39q0 -50 48 -93l-1 -2q-112 14 -195 115t-83 223q0 100 64.5 180t172.5 121l1 -3q-98 -58 -138 -128t-40 -161q0 -72 33.5 -138.5t78.5 -103.5q-16 78 24 133t107 55z" />
    <glyph glyph-name="wdieresis" unicode="&#x1e85;" horiz-adv-x="801" 
d="M375 661q-60 17 -60 70q0 21 14.5 35.5t35.5 14.5q24 0 40 -18.5t10 -51.5q-12 12 -27.5 8.5t-20 -18.5t7.5 -40zM525 661q-60 17 -60 70q0 21 14.5 35.5t35.5 14.5q24 0 40 -18.5t10 -51.5q-12 12 -27.5 8.5t-20 -18.5t7.5 -40zM619 521q63 -9 102.5 -52.5t39.5 -104.5
q0 -48 -15.5 -94t-44 -87t-54 -71.5t-61.5 -67.5t-50 -54q-21 3 -40.5 22.5t-25 49t21.5 65.5h1q-4 -30 9 -49.5t40 -19.5q41 0 88.5 66t47.5 154q0 55 -26 90q21 -1 42 -10t30 -25q-4 62 -39 97.5t-93 35.5q-51 0 -87.5 -29t-36.5 -71q0 -38 -11.5 -80t-21.5 -70.5
t-12.5 -78.5t16.5 -105l-1 -1q-30 45 -37.5 86t-0.5 92t7 59q0 58 -37 89q49 0 66 -45q11 73 -18.5 110t-81.5 37q-73 0 -159 -91l-5 7q58 56 87 116q35 30 83 30q43 0 78.5 -27.5t42.5 -83.5q4 25 23 48t39.5 36.5t37 29.5t16.5 30t-13 23t-42 4q25 19 59 19q50 0 50 -44
q0 -17 -14 -35zM342 163q35 -12 35 -50q0 -30 -31.5 -47t-72.5 -12q14 -42 64 -63v-1q-26 -4 -47 1.5t-37 16t-30 34.5t-23.5 45.5t-20 61.5t-17 70.5l-17.5 83.5q-17 86 -33 120.5t-42 34.5q-21 0 -52 -27l-3 2q25 38 68 63t77 25q-13 -84 0 -182t50 -168.5t85 -70.5
q34 0 46.5 17.5t0.5 45.5z" />
    <glyph glyph-name="Ygrave" unicode="&#x1ef2;" horiz-adv-x="704" 
d="M329 777q-53 23 -85 48t-32 61q0 35 28 51t71 10q-33 -16 -33 -53q0 -42 46.5 -79t141.5 -79l9 -4l-4 -12l-8 3q-36 13 -59.5 20t-45.5 10t-33 -4t-11 -25l-2 -1q-14 22 -7.5 37t24.5 17zM591 578q35 0 59 -20t24 -55q0 -28 -20.5 -48t-45.5 -20q-24 0 -39.5 13.5
t-15.5 30.5q17 -20 43 -20q17 0 28.5 11.5t11.5 28.5t-13.5 28.5t-32.5 11.5q-35 0 -57.5 -31.5t-22.5 -100.5q0 -74 5 -126q-30 7 -68 0q17 90 14.5 158.5t-39.5 99.5q-3 51 11 93t35.5 66t51 42t49 24.5t37.5 10.5q-15 -7 -34.5 -22.5t-42 -41.5t-38 -66t-15.5 -84
q21 78 117 88q-91 -39 -91 -127q9 23 34 39.5t55 16.5zM616 186q-60 42 -106 38q42 -37 72.5 -100.5t30.5 -136.5q0 -99 -75.5 -165.5t-208.5 -79.5l-1 2q48 13 83.5 57t35.5 87q0 33 -20 53t-58 20q-48 0 -78 -29t-30 -71q0 -26 11.5 -41.5t31.5 -15.5q37 0 55 39
q7 -33 -11.5 -54t-49.5 -21q-30 0 -51 18.5t-26 40.5q-25 -11 -40.5 7t-10.5 45q6 -19 22.5 -24t25.5 6q0 57 46 98t109 41q57 0 87 -29.5t30 -72.5q0 -56 -43 -101q50 23 84.5 70t34.5 113q0 73 -31 132q-14 -45 -44 -65t-60 -20q-33 0 -51 21t-14 54q0 -5 5 -13t20 -16.5
t36 -8.5q29 0 50 22.5t21 60.5q0 28 -14.5 47t-38.5 19q-26 0 -55.5 -23t-57 -55.5l-57 -65.5t-65.5 -56t-72 -23q-41 0 -75 28t-43 71q93 99 145.5 205.5t52.5 203.5q0 71 -24.5 106.5t-64.5 35.5q-50 0 -77 -38q0 32 26.5 58t73.5 26q63 0 98.5 -47.5t35.5 -135.5
q0 -103 -58 -197.5t-172 -210.5q9 -25 33 -45t54 -20q24 0 36 10q-23 1 -40 21t-12.5 51.5t38.5 58.5q-19 -26 -10 -60t42 -34q47 0 105 66q53 60 85 83q50 34 101 34q89 0 128 -74z" />
    <glyph glyph-name="ygrave" unicode="&#x1ef3;" horiz-adv-x="623" 
d="M441 631l-8 3q-36 13 -59.5 20t-45.5 10t-33 -4t-11 -25l-2 -1q-14 22 -7.5 37t24.5 17q-53 23 -85 48t-32 61q0 35 28 51t71 10q-33 -16 -33 -53q0 -42 46.5 -79t141.5 -79l9 -4zM210 -175q0 34 29.5 70t71 71.5t83 76t71 100t29.5 127.5q0 49 -26 89q49 -10 66 -55
q9 72 -29.5 114.5t-100.5 42.5q-58 0 -106.5 -25t-112.5 -86l-5 4q78 73 107 137q3 1 22.5 4.5t30.5 7t26.5 9.5t23 15.5t7.5 21.5q0 14 -13 23t-42 4q54 31 88 10.5t7 -70.5q63 -16 99.5 -62.5t36.5 -115.5t-31 -135t-75 -115t-88.5 -92t-75.5 -82.5t-31 -70.5
q0 -26 13.5 -39t34.5 -13q32 0 66 37.5t57 123.5h2q-16 -116 -71.5 -172.5t-172.5 -56.5v2q52 14 70 29q-30 10 -45.5 29.5t-15.5 41.5zM17 430q23 28 53 28t44 -33t28 -122q51 -332 184 -313v1q-37 20 -56 63q41 -5 71.5 12.5t30.5 48.5q0 19 -11.5 31.5t-29.5 16.5
q9 -15 9 -31q0 -32 -39 -32q-53 0 -91.5 72t-46.5 165.5t7 183.5q-41 0 -85 -24.5t-70 -63.5z" />
    <glyph glyph-name="endash" unicode="&#x2013;" horiz-adv-x="564" 
d="M128 269q0 23 20 39.5t53 24.5t64 11t64 3q77 0 108 -8.5t31 -29.5q0 -20 -18 -34q22 0 38 13.5t16 38.5q0 22 -16 35.5t-46 13.5q15 11 19.5 27t1 30t-11.5 25q-1 -42 -36 -58.5t-112 -16.5q-49 0 -76 -0.5t-59.5 -3.5t-48.5 -8.5t-31.5 -15t-21.5 -25t-6 -36.5
q21 35 61 35q-10 -8 -10 -29t17 -31z" />
    <glyph glyph-name="emdash" unicode="&#x2014;" horiz-adv-x="688" 
d="M128 269q0 46 77 62t224 16q77 0 108 -8.5t31 -29.5q0 -20 -18 -34q22 0 38 13.5t16 38.5q0 22 -16 35.5t-46 13.5q24 15 25 41.5t-16 40.5q10 -75 -148 -75q-204 0 -273.5 -14.5t-69.5 -74.5q23 35 61 35q-10 -8 -10 -29t17 -31z" />
    <glyph glyph-name="quoteleft" unicode="&#x2018;" horiz-adv-x="253" 
d="M162 761q36 0 58.5 -21.5t22.5 -51.5q0 -27 -20 -48q-2 19 -17.5 36t-37.5 17q-41 0 -41 -50q0 -82 98 -178l-2 -2q-153 101 -153 205q0 38 24 65.5t68 27.5z" />
    <glyph glyph-name="quoteright" unicode="&#x2019;" horiz-adv-x="253" 
d="M151 761q44 0 68 -27.5t24 -65.5q0 -104 -153 -205l-2 2q98 96 98 178q0 50 -41 50q-22 0 -37.5 -17t-17.5 -36q-20 21 -20 48q0 30 22.5 51.5t58.5 21.5z" />
    <glyph glyph-name="quotesinglbase" unicode="&#x201a;" horiz-adv-x="253" 
d="M151 -187q-36 0 -58.5 21.5t-22.5 51.5q0 27 20 48q2 -19 17.5 -36t37.5 -17q41 0 41 50q0 82 -98 178l2 2q153 -101 153 -205q0 -38 -24 -65.5t-68 -27.5z" />
    <glyph glyph-name="quotedblleft" unicode="&#x201c;" horiz-adv-x="483" 
d="M162 761q36 0 58.5 -21.5t22.5 -51.5q0 -27 -20 -48q-2 19 -17.5 36t-37.5 17q-41 0 -41 -50q0 -82 98 -178l-2 -2q-153 101 -153 205q0 38 24 65.5t68 27.5zM392 761q36 0 58.5 -21.5t22.5 -51.5q0 -27 -20 -48q-2 19 -17.5 36t-37.5 17q-41 0 -41 -50q0 -82 98 -178
l-2 -2q-153 101 -153 205q0 38 24 65.5t68 27.5z" />
    <glyph glyph-name="quotedblright" unicode="&#x201d;" horiz-adv-x="483" 
d="M151 761q44 0 68 -27.5t24 -65.5q0 -104 -153 -205l-2 2q98 96 98 178q0 50 -41 50q-22 0 -37.5 -17t-17.5 -36q-20 21 -20 48q0 30 22.5 51.5t58.5 21.5zM381 761q44 0 68 -27.5t24 -65.5q0 -104 -153 -205l-2 2q98 96 98 178q0 50 -41 50q-22 0 -37.5 -17t-17.5 -36
q-20 21 -20 48q0 30 22.5 51.5t58.5 21.5z" />
    <glyph glyph-name="quotedblbase" unicode="&#x201e;" horiz-adv-x="443" 
d="M101 -184q-36 0 -58.5 21.5t-22.5 51.5q0 27 20 48q2 -19 17.5 -36t37.5 -17q41 0 41 50q0 82 -98 178l2 2q153 -101 153 -205q0 -38 -24 -65.5t-68 -27.5zM331 -184q-36 0 -58.5 21.5t-22.5 51.5q0 27 20 48q2 -19 17.5 -36t37.5 -17q41 0 41 50q0 82 -98 178l2 2
q153 -101 153 -205q0 -38 -24 -65.5t-68 -27.5z" />
    <glyph glyph-name="bullet" unicode="&#x2022;" horiz-adv-x="371" 
d="M201 194q-101 30 -101 118q0 35 24.5 59.5t59.5 24.5q40 0 67 -31t17 -87q-21 20 -46 14.5t-33 -31t12 -67.5z" />
    <glyph glyph-name="ellipsis" unicode="&#x2026;" horiz-adv-x="672" 
d="M353 267q-60 17 -60 70q0 21 14.5 35.5t35.5 14.5q24 0 40 -18.5t10 -51.5q-12 12 -27.5 8.5t-20 -18.5t7.5 -40zM140 -14q-60 17 -60 70q0 21 14.5 35.5t35.5 14.5q24 0 40 -18.5t10 -51.5q-12 12 -27.5 8.5t-20 -18.5t7.5 -40zM580 -14q-60 17 -60 70q0 21 14.5 35.5
t35.5 14.5q24 0 40 -18.5t10 -51.5q-12 12 -27.5 8.5t-20 -18.5t7.5 -40z" />
    <glyph glyph-name="Euro" unicode="&#x20ac;" horiz-adv-x="750" 
d="M229 496q-52 0 -78.5 29.5t-23.5 77.5h2q6 -20 20.5 -34t33.5 -14t29 14t10 34q0 17 -8 42t-8 43q0 38 32.5 69t64.5 40q-59 -56 -50 -134q112 127 259 127q109 0 166 -47t57 -113q0 -34 -18 -60t-51 -33q28 33 28 74q0 56 -48.5 92t-125.5 36q-53 0 -104.5 -24.5
t-85.5 -58.5t-55 -67t-21 -53q15 -6 46.5 0.5t56.5 23.5q-33 -64 -128 -64zM118 349q3 46 47.5 62t155.5 16h26.5h31h31t32.5 -1.5l29.5 -3.5t27 -5.5t20.5 -8t14.5 -11.5t4.5 -15q0 -16 -18 -27q21 -2 38.5 10.5t17.5 35.5q0 22 -18 37t-44 20q18 24 17.5 44t-10.5 36
q-1 -42 -47.5 -58.5t-153.5 -16.5q-111 0 -174 -11t-83 -30t-13 -48q6 15 24 25t37 10q-6 -9 -6 -29.5t13 -30.5zM88 244h1q3 35 62 53.5t160 18.5q71 0 114 -9.5t43 -39.5q0 -21 -18 -37q21 0 40.5 14t19.5 35q0 34 -44 56.5t-136 22.5q-137 0 -206.5 -21.5t-104.5 -66.5
l1 -1q36 33 89 46q-43 -23 -21 -71zM229 284q83 0 128 -66q-29 17 -57.5 23t-45.5 1q0 -20 19 -52t50.5 -65t81.5 -56.5t103 -23.5q80 0 131 35.5t51 101.5q0 51 -21 94q65 -35 65 -108q0 -81 -67.5 -129.5t-164.5 -48.5q-46 0 -85.5 11t-70 33t-50 41t-43.5 47
q-7 -43 8 -80.5t43 -59.5l-1 -1q-19 9 -38.5 21.5t-39 37t-19.5 50.5q0 17 8 42.5t8 42.5q0 20 -10 34t-28 14q-21 0 -35.5 -13.5t-19.5 -34.5q-6 9 -6 22q0 34 27.5 60.5t78.5 26.5z" />
    <glyph glyph-name="arrowleft" unicode="&#x2190;" horiz-adv-x="736" 
d="M20 279v3q76 7 129 32t108 73q2 2 44 41t65 55l1 -2q-26 -22 -57.5 -79.5t-34.5 -98.5q-30 6 -61 2t-96 -14t-98 -12zM358 70l2 1q-45 48 -58.5 84t2 56.5t47.5 30t80 9.5q84 0 139 -23t55 -62q0 -34 -38 -47v-1q38 6 58.5 28.5t20.5 49.5q0 29 -20.5 49t-57.5 28
q18 16 17.5 42t-17.5 48q12 -75 -158 -75q-220 0 -404 -24v-2q86 1 149 -35.5t183 -156.5z" />
    <glyph glyph-name="arrowup" unicode="&#x2191;" horiz-adv-x="543" 
d="M299 669h3q7 -76 32 -129t73 -108q2 -2 41 -44t55 -65l-2 -1q-22 26 -79.5 57.5t-98.5 34.5q6 30 2 61t-14 96t-12 98zM90 331l1 -2q48 45 84 58.5t56.5 -2t30 -47.5t9.5 -80q0 -84 -23 -139t-62 -55q-34 0 -47 38h-1q6 -38 28.5 -58.5t49.5 -20.5q29 0 49 20.5t28 57.5
q16 -18 42 -17.5t48 17.5q-75 -12 -75 158q0 220 -24 404h-2q1 -86 -35.5 -149t-156.5 -183z" />
    <glyph glyph-name="arrowright" unicode="&#x2192;" horiz-adv-x="736" 
d="M378 476l-2 -1q45 -48 58.5 -84t-2 -56.5t-47.5 -30t-80 -9.5q-84 0 -139 23t-55 62q0 34 38 47v1q-38 -6 -58.5 -28.5t-20.5 -49.5q0 -29 20.5 -49t57.5 -28q-18 -16 -17.5 -42t17.5 -48q-12 75 158 75q220 0 404 24v2q-86 -1 -149 35.5t-183 156.5zM716 267v-3
q-76 -7 -129 -32t-108 -73q-2 -2 -44 -41t-65 -55l-1 2q26 22 57.5 79.5t34.5 98.5q30 -6 61 -2t96 14t98 12z" />
    <glyph glyph-name="arrowdown" unicode="&#x2193;" horiz-adv-x="563" 
d="M483 253l-1 2q-48 -45 -84 -58.5t-56.5 2t-30 47.5t-9.5 80q0 84 23 139t62 55q34 0 47 -38h1q-6 38 -28.5 58.5t-49.5 20.5q-29 0 -49 -20.5t-28 -57.5q-16 18 -42 17.5t-48 -17.5q75 12 75 -158q0 -220 24 -404h2q-1 86 35.5 149t156.5 183zM274 -85h-3q-7 76 -32 129
t-73 108q-2 2 -41 44t-55 65l2 1q22 -26 79.5 -57.5t98.5 -34.5q-6 -30 -2 -61t14 -96t12 -98z" />
    <glyph glyph-name="arrowboth" unicode="&#x2194;" horiz-adv-x="777" 
d="M0 338v3q75 3 129.5 25t112.5 67q8 6 32 26.5l44.5 36.5t37.5 27l1 -2q-27 -20 -61.5 -75.5t-39.5 -97.5q-30 8 -61.5 5.5t-96.5 -9t-98 -6.5zM461 518l-2 -1q43 -51 58 -86t2.5 -54t-38.5 -27.5t-72 -11.5q-30 -2 -122 -2.5t-171 -3.5t-111 -10v-2q84 2 144 -38.5
t177 -170.5l2 1q-149 179 90 190q62 2 197 -1t167 6v2q-84 -1 -144.5 39.5t-176.5 169.5zM787 291v-3q-75 -3 -129.5 -25t-112.5 -67q-8 -6 -32 -26.5l-44.5 -36.5t-37.5 -27l-1 2q27 20 61.5 75.5t39.5 97.5q30 -8 61.5 -5.5t96.5 9t98 6.5z" />
    <glyph glyph-name="arrowupdn" unicode="&#x2195;" horiz-adv-x="587" 
d="M317 708h3q3 -75 25 -129.5t67 -112.5q6 -8 26.5 -32t36.5 -44.5t27 -37.5l-2 -1q-20 27 -75.5 61.5t-97.5 39.5q8 30 5.5 61.5t-9 96.5t-6.5 98zM497 247l-1 2q-51 -43 -86 -58t-54 -2.5t-27.5 38.5t-11.5 72q-2 30 -2.5 122t-3.5 171t-10 111h-2q2 -84 -38.5 -144
t-170.5 -177l1 -2q179 149 190 -90q2 -62 -1 -197t6 -167h2q-1 84 39.5 144.5t169.5 176.5zM270 -79h-3q-3 75 -25 129.5t-67 112.5q-6 8 -26.5 32t-36.5 44.5t-27 37.5l2 1q20 -27 75.5 -61.5t97.5 -39.5q-8 -30 -5.5 -61.5t9 -96.5t6.5 -98z" />
    <glyph glyph-name="uni2196" unicode="&#x2196;" horiz-adv-x="579" 
d="M58 588l2 3q58 -48 113 -68t129 -26q6 0 62 -2t83 -7l-1 -2q-34 3 -97 -15t-94 -46q-5 15 -38.5 42t-83.5 63t-75 58zM149 202l2 -1q3 66 18.5 101t41 38.5t55 -12.5t63.5 -50q59 -59 81.5 -113t-4.5 -84q-24 -24 -60 -7h-1q34 -23 63 -21.5t48 20.5q43 43 0 110
q23 -1 41.5 17.5t21.5 45.5q-44 -62 -165 59q-147 148 -302 269l-2 -2q62 -59 80 -129.5t19 -240.5z" />
    <glyph glyph-name="uni2197" unicode="&#x2197;" horiz-adv-x="689" 
d="M230 429l-1 -2q66 -3 101 -18.5t38.5 -41t-12.5 -55t-50 -63.5q-59 -59 -113 -81.5t-84 4.5q-24 24 -7 60v1q-23 -34 -21.5 -63t20.5 -48q43 -43 110 0q-1 -23 17.5 -41.5t45.5 -21.5q-62 44 59 165q148 147 269 302l-2 2q-59 -62 -129.5 -80t-240.5 -19zM616 520l3 -2
q-48 -58 -68 -113t-26 -129q0 -6 -2 -62t-7 -83l-2 1q3 34 -15 97t-46 94q15 5 42 38.5t63 83.5t58 75z" />
    <glyph glyph-name="uni2198" unicode="&#x2198;" horiz-adv-x="649" 
d="M470 387l-2 1q-3 -66 -18.5 -101t-41 -38.5t-55 12.5t-63.5 50q-59 59 -81.5 113t4.5 84q24 24 60 7h1q-34 23 -63 21.5t-48 -20.5q-43 -43 0 -110q-23 1 -41.5 -17.5t-21.5 -45.5q44 62 165 -59q147 -148 302 -269l2 2q-62 59 -80 129.5t-19 240.5zM561 1l-2 -3
q-58 48 -113 68t-129 26q-6 0 -62 2t-83 7l1 2q34 -3 97 15t94 46q5 -15 38.5 -42t83.5 -63t75 -58z" />
    <glyph glyph-name="uni2199" unicode="&#x2199;" horiz-adv-x="677" 
d="M447 127l1 2q-66 3 -101 18.5t-38.5 41t12.5 55t50 63.5q59 59 113 81.5t84 -4.5q24 -24 7 -60v-1q23 34 21.5 63t-20.5 48q-43 43 -110 0q1 23 -17.5 41.5t-45.5 21.5q62 -44 -59 -165q-148 -147 -269 -302l2 -2q59 62 129.5 80t240.5 19zM61 36l-3 2q48 58 68 113
t26 129q0 6 2 62t7 83l2 -1q-3 -34 15 -97t46 -94q-15 -5 -42 -38.5t-63 -83.5t-58 -75z" />
    <glyph glyph-name="dieresis.cap" horiz-adv-x="412" 
d="M140 613q-60 17 -60 70q0 21 14.5 35.5t35.5 14.5q24 0 40 -18.5t10 -51.5q-12 12 -27.5 8.5t-20 -18.5t7.5 -40zM290 613q-60 17 -60 70q0 21 14.5 35.5t35.5 14.5q24 0 40 -18.5t10 -51.5q-12 12 -27.5 8.5t-20 -18.5t7.5 -40z" />
    <glyph glyph-name="dotaccent.cap" horiz-adv-x="232" 
d="M140 671q-60 17 -60 70q0 21 14.5 35.5t35.5 14.5q24 0 40 -18.5t10 -51.5q-12 12 -27.5 8.5t-20 -18.5t7.5 -40z" />
    <glyph glyph-name="grave.cap" 
d="M435 581l-8 3q-36 13 -59.5 20t-45.5 10t-33 -4t-11 -25l-2 -1q-14 22 -7.5 37t24.5 17q-53 23 -85 48t-32 61q0 35 28 51t71 10q-33 -16 -33 -53q0 -42 46.5 -79t141.5 -79l9 -4z" />
    <glyph glyph-name="acute.cap" 
d="M180 581l-4 12l9 4q95 42 141.5 79t46.5 79q0 37 -33 53q43 6 71 -10t28 -51q0 -36 -32 -61t-85 -48q18 -2 24.5 -17t-7.5 -37l-2 1q0 18 -11 25t-33 4t-45.5 -10t-59.5 -20z" />
    <glyph glyph-name="circumflex.cap" 
d="M481 700q20 -26 8 -54.5t-48 -28.5q-30 0 -58.5 20t-44.5 20q-18 0 -27 -16q-6 10 1.5 22t27.5 7q-22 23 -32 45q-12 -47 -44 -72.5t-73 -25.5q-30 0 -43.5 16t-13 34t8.5 33q12 -36 46 -36q35 0 64 28.5t41 54.5t17 47h2q35 -130 118 -130q43 0 50 36z" />
    <glyph glyph-name="cedilla.cap" 
d="M241 -12q31 -16 59.5 -20t113.5 -2v-5q-62 1 -103.5 -6t-62.5 -21.5t-30 -29t-13 -36.5q12 25 39 46.5t66 21.5q35 0 55.5 -14.5t20.5 -41.5q0 -47 -43 -79.5t-116 -32.5q-45 0 -71 18.5t-33 39.5l2 1q31 -41 103 -41q47 0 79 26.5t32 62.5q0 46 -44 46q-31 0 -61 -30
t-39 -71l-2 -7h-2q4 100 50 175z" />
    </font>
</defs>
</svg>
