<?xml version="1.0" standalone="no"?>
<!DOCTYPE svg PUBLIC "-//W3C//DTD SVG 1.1//EN" "http://www.w3.org/Graphics/SVG/1.1/DTD/svg11.dtd" >
<svg>
<metadata>
Created by FontForge 20090622 at Mon Jul 13 13:58:41 2020
 By deploy user
Copyright (c) 2020, JLFC
</metadata>
<defs>
<font id="TribaliumNeue-Poster" horiz-adv-x="600" >
  <font-face 
    font-family="Tribalium Neue Poster"
    font-weight="400"
    font-stretch="normal"
    units-per-em="1000"
    panose-1="2 0 5 3 0 0 0 0 0 0"
    ascent="800"
    descent="-200"
    x-height="541"
    cap-height="795"
    bbox="-139 -314 1241 1098.56"
    underline-thickness="50"
    underline-position="-50"
    unicode-range="U+0020-U+2199"
  />
<missing-glyph horiz-adv-x="500" 
d="M410 800v-1000h-317v1000h317zM333 733h-165v-33h65v-37h-66v-33h166v33h-66v37h66v33zM267 604h-100v-104h166v34h-66v70zM233 570v-36h-33v36h33zM333 473h-166v-33h66v-37h-66v-33h100v70h66v33zM333 413h-33v-66h-133v-34h166v100zM333 291h-100v-56h34v23h33v-47
h-100v80h-33v-113h166v113zM333 118h-166v-113h166v113zM300 85v-47h-100v47h100zM333 -18h-166v-33h70l-70 -47v-33h166v33h-102l70 47h32v33z" />
    <glyph glyph-name=".notdef" horiz-adv-x="500" 
d="M410 800v-1000h-317v1000h317zM333 733h-165v-33h65v-37h-66v-33h166v33h-66v37h66v33zM267 604h-100v-104h166v34h-66v70zM233 570v-36h-33v36h33zM333 473h-166v-33h66v-37h-66v-33h100v70h66v33zM333 413h-33v-66h-133v-34h166v100zM333 291h-100v-56h34v23h33v-47
h-100v80h-33v-113h166v113zM333 118h-166v-113h166v113zM300 85v-47h-100v47h100zM333 -18h-166v-33h70l-70 -47v-33h166v33h-102l70 47h32v33z" />
    <glyph glyph-name=".null" horiz-adv-x="0" 
 />
    <glyph glyph-name="nonmarkingreturn" horiz-adv-x="333" 
 />
    <glyph glyph-name="space" unicode=" " horiz-adv-x="400" 
 />
    <glyph glyph-name="exclam" unicode="!" horiz-adv-x="294" 
d="M2 768l6 20l16 7q17 -2 39.5 -10t54 -27.5t58 -46.5t46 -72.5t22.5 -100.5l-7 -11q-19 -18 -25 -40t-6 -80q0 -30 5 -97t10 -95l-16 -12q-49 5 -63 -23l-34 -7l-11 6l-11 16q20 83 20 174q0 80 -26.5 134.5t-62.5 50.5v35q28 10 60 4q-13 19 -30.5 29t-30.5 6l-2 37
q41 15 84 1q-14 26 -35.5 48.5t-34 31t-16.5 9.5zM16 765q7 -2 25.5 -15t45 -44t38.5 -68q-43 34 -96 21l1 -20q19 -3 41 -20.5t32 -46.5q-35 19 -71 11v-20q39 -8 64 -61.5t25 -132.5q0 -95 -20 -173l8 -11l2 -1l20 4q17 31 75 25q-5 29 -10 96.5t-5 97.5q0 58 6.5 81.5
t26.5 43.5l5 8q-3 53 -22 96.5t-43.5 69t-54 44t-50.5 26t-37 9.5zM189 224q-13 81 -13 183q0 59 6.5 84t31.5 48q-4 63 -28.5 111.5t-59 73.5t-60.5 36.5t-46 14.5q7 -2 25 -15t42.5 -36t43 -61.5t19.5 -81.5q-16 43 -50 59.5t-67 8.5q29 -5 60 -36t31 -81q-6 18 -31 33
t-58 8q43 -9 72 -62t29 -142q0 -95 -20 -175l2 -1q16 31 71 31zM152 -36q-91 23 -91 92q0 29 23.5 49.5t56.5 20.5q43 0 65.5 -29t12.5 -71l-44 -9q-8 10 -8 4q1 -10 14 -31zM147 -24l17 15q-14 26 -3 40q8 10 20 -2l25 5q7 35 -12 58.5t-53 23.5q-27 0 -46 -17.5t-19 -42.5
q0 -58 71 -80zM151 -14q-13 23 -7.5 40t20 18.5t27.5 -8.5q6 33 -10 51.5t-40 18.5q-21 0 -35.5 -14.5t-14.5 -35.5q0 -53 60 -70z" />
    <glyph glyph-name="quotedbl" unicode="&#x22;" horiz-adv-x="483" 
d="M381 781q53 0 87.5 -32t34.5 -81q0 -114 -170 -223l-32 1l-9 9v20q94 88 94 168q0 30 -11 30q-9 0 -17.5 -13.5t-7.5 -27.5l-47 -11q-22 22 -30 46q0 -113 -170 -222l-32 1l-9 9v20q94 88 94 168q0 30 -11 30q-9 0 -17.5 -13.5t-7.5 -27.5l-47 -11q-33 33 -33 67
q0 39 32 66t79 27q46 0 78.5 -24t40.5 -63q3 37 34.5 62t76.5 25zM98 455q160 104 160 213q0 46 -30 74.5t-77 28.5q-41 0 -68.5 -24t-27.5 -59q0 -30 24 -55l26 6q2 17 14 30.5t26 13.5q26 0 26 -40q0 -80 -94 -171v-14l2 -2zM328 455q160 104 160 213q0 46 -30 74.5
t-77 28.5q-41 0 -68.5 -24t-27.5 -59q0 -30 24 -55l26 6q2 17 14 30.5t26 13.5q26 0 26 -40q0 -80 -94 -171v-14l2 -2zM151 761q44 0 68 -27.5t24 -65.5q0 -104 -153 -205l-2 2q98 96 98 178q0 50 -41 50q-22 0 -37.5 -17t-17.5 -36q-20 21 -20 48q0 30 22.5 51.5t58.5 21.5
zM381 761q44 0 68 -27.5t24 -65.5q0 -104 -153 -205l-2 2q98 96 98 178q0 50 -41 50q-22 0 -37.5 -17t-17.5 -36q-20 21 -20 48q0 30 22.5 51.5t58.5 21.5z" />
    <glyph glyph-name="numbersign" unicode="#" horiz-adv-x="857" 
d="M854 591q10 -37 -8.5 -63.5t-60.5 -37.5q23 -18 33 -40l-39 -24q-34 27 -95 38q-57 -129 -86 -281q84 13 106 38q9 10 0 17l53 13q41 -47 0 -86l11 -11q-38 -53 -184 -59q-10 -82 -11 -155l-56 -5q-26 78 -27 160l-46 2q-112 6 -188 6q-10 -65 -13 -163l-56 -5
q-24 78 -24 166q-46 -3 -66.5 -10t-18.5 -19l-55 4q-10 37 8.5 63.5t60.5 37.5q-23 18 -33 40l39 24q32 -24 74 -33q21 135 96 277q-51 -7 -79 -23t-18 -33l-51 -13q-41 47 0 86l-11 11q41 58 213 61q53 77 117 136l42 -26q-34 -45 -73 -113l25 -1q127 -7 209 -6
q57 84 127 146l42 -26q-36 -49 -75 -116q36 4 50.5 10t11.5 17zM757 494q45 7 68 30t16 58l-29 2q-9 -22 -98 -28q38 69 79 126l-22 13q-64 -60 -120 -141q-84 -2 -219 6l-45 2q36 66 76 120l-22 13q-56 -53 -109 -131q-158 -2 -206 -50l12 -12q-41 -33 -11 -74l27 7
q-2 23 36 40.5t101 21.5q-84 -149 -106 -302q-54 9 -88 32l-21 -13q15 -25 44 -41q-45 -7 -68 -30t-16 -58l29 -2q11 25 113 29q-2 -90 21 -166l29 3q3 93 14 164q80 0 203 -6l60 -3q0 -82 24 -158l29 3q3 78 12 155q137 5 181 49l-12 12q41 33 11 74l-27 -7
q1 -13 -18 -25.5t-52 -22t-72 -13.5q29 163 93 305q70 -11 106 -36l21 13q-15 25 -44 41zM692 545q120 5 134 35q7 -38 -24 -59.5t-97 -17.5q61 -17 83 -55q-40 27 -124 40q-69 -149 -100 -328q68 4 122.5 24.5t51.5 48.5q22 -30 -3 -55t-74 -31q46 -3 80 13
q-46 -44 -184 -47q-11 -71 -14 -164q-24 75 -24 164q-19 1 -75 3.5t-112.5 4.5t-103.5 2q-12 -84 -15 -174q-23 81 -20 173q-127 -3 -142 -35q-7 38 24 59.5t97 17.5q-61 17 -83 55q35 -24 109 -37q20 161 114 326q-76 -2 -126.5 -22.5t-46.5 -51.5q-22 30 3 55t74 31
q-46 3 -80 -13q49 47 203 47h2q48 74 110 134q-47 -64 -84 -135q19 -1 77.5 -3.5t114.5 -4.5t101 -1q56 85 121 144q-48 -66 -89 -143zM521 159q13 165 107 333q-62 7 -158 10q8 -36 -25.5 -57.5t-93.5 -16.5q77 18 77 49q0 30 -84 31q-76 -154 -107 -332q67 -8 190 -11
q-25 27 -1.5 53t70.5 21q-46 -18 -46 -44q0 -33 71 -36zM350 418q60 -5 98.5 15.5t37.5 57.5q80 -3 123 -7q-66 -118 -90 -239q-55 14 -92 -10t-22 -59q-89 3 -152 9q31 166 101 313q59 -3 59 -21q0 -23 -65 -39zM365 487l-17 -38q50 12 50 28q0 9 -33 10zM589 476
q-3 0 -34.5 1.5t-54.5 2.5q-5 -38 -52 -58.5t-112 -12.5l-1 9q-43 -108 -65 -224q64 -6 117 -7q-5 34 32.5 56.5t87.5 14.5q22 106 82 218zM465 195q0 13 11.5 22t40.5 18q-6 -34 -9 -65q-43 4 -43 25zM499 217q-19 -8 -19 -22q0 -9 14 -13q1 10 5 35z" />
    <glyph glyph-name="dollar" unicode="$" 
d="M488 346q48 -15 76 -56.5t28 -98.5q0 -73 -68 -135.5t-167 -79.5q4 -58 23.5 -79t61.5 -15l16 -13q-7 -23 -36 -36.5t-59 -8.5q-24 -37 -79 -37q-48 0 -67 31.5t3 78.5l26 2q3 -4 15 -22l8 -14q5 4 8.5 37.5t0.5 69.5q-95 5 -161.5 64t-68.5 142q-9 -9 -16 -14l-40 7
l-5 11l1 13q27 36 82 75.5t113 64.5q-56 35 -88 87t-32 110q0 73 56 132t144 81q-27 35 -66 23l-21 20l-3 12q5 10 36.5 18.5t62.5 3.5q13 51 74 51q34 0 58 -17.5t32 -34t6 -23.5l-23 -19h-11l-14 5q0 -12 -5 -34q64 -12 107 -48.5t56 -91.5q11 29 16 56l24 13h13l24 -18
q-12 -234 -244 -262l-8 5q-5 -28 -10 -47q69 52 168 37l20 -16v-8l-24 -16q-23 0 -43 -6zM342 -16q97 13 166 74t69 133q0 63 -34.5 104.5t-88.5 46.5q29 19 71 20l15 10v1l-13 10q-93 13 -156 -40t-39 -125h28q18 56 73 56q25 0 43.5 -26t18.5 -62q0 -52 -32.5 -92.5
t-88.5 -59.5q60 55 19 135l-28 -4q-4 -49 -34 -79.5t-75 -30.5q-50 0 -80.5 33.5t-30.5 88.5q0 82 74 134l4 12l-1 1q51 -22 104 -28l10 18q-40 32 -43.5 78t32.5 75q-2 -56 -9 -119l15 -11h3l14 7q22 74 26 175t-1 162q40 -10 63.5 -43.5t23.5 -82.5q0 -82 -80 -127l-8 -9
v-1l17 -10q212 28 225 248l-15 11h-2l-15 -8q-13 -61 -39 -96q-2 71 -48 119t-122 58q2 68 10 68q4 0 16 -17l12 -4h1l15 12q-3 20 -23.5 41t-57.5 21q-27 0 -43 -14.5t-18 -39.5q-35 8 -64 2t-35 -16l16 -15q49 10 81 -41q-89 -17 -147 -75.5t-58 -131.5q0 -64 38.5 -118.5
t103.5 -85.5l-16 4q-57 -22 -114 -61t-87 -78l-1 -10l2 -4l23 -4q32 27 34 26.5t2 -17.5q0 -85 66.5 -143.5t161.5 -58.5h1q7 -58 0 -92.5t-24 -34.5q-3 0 -5.5 1t-5 4t-5 6.5t-8 12l-10.5 16.5q-19 -42 -4 -69t54 -27q55 0 70 40q26 -9 54.5 1t35.5 34q-51 -8 -75 18.5
t-27 93.5zM324 480q-39 -26 -45 -62.5t9.5 -64.5t38.5 -47q-90 9 -162 70.5t-72 153.5q0 73 60.5 130.5t149.5 69.5q-38 72 -104 58q6 11 36.5 14t65.5 -15q-5 28 7.5 46t37.5 18q30 0 46.5 -17.5t19.5 -36.5h-1q-15 21 -28 21q-25 0 -25 -87q80 -6 130.5 -60t37.5 -146
q18 17 28 29.5t22.5 39t20.5 63.5h2q-12 -213 -212 -239v1q88 49 88 136q0 56 -31.5 94.5t-85.5 44.5q5 -60 1 -166t-25 -181h-3q25 233 -13 346q-36 -5 -55.5 -26t-19.5 -51q0 -48 53 -79q-38 0 -66 22t-28 56q0 29 15 48q-37 -19 -57 -54.5t-20 -78.5q0 -45 29 -95.5
t84 -80.5q-19 23 -20 48t22 47t69 31zM258 616q0 50 49 64q21 -72 18 -197l-4 7q-53 -10 -80 -37t-22 -60q-64 61 -64 137q0 57 32 95v-10q0 -37 31.5 -62.5t77.5 -25.5l8 19q-46 26 -46 70zM273 616q0 -38 37 -60q-3 62 -14 108q-23 -15 -23 -48zM389 664q2 -149 -6 -221
q62 41 62 112q0 79 -56 109zM207 426q20 55 103 72v26l-3 -7q-44 -3 -79 15.5t-49 49.5q-9 -24 -9 -52q0 -54 37 -104zM422 331q58 8 99 -31t41 -109q0 -66 -65.5 -127t-169.5 -72q1 -69 24.5 -100.5t70.5 -31.5q-15 -15 -39.5 -16.5t-40.5 15.5q2 -22 -14 -37t-44 -15
q-26 0 -37 15.5t-8 38.5q12 -18 29 -18q57 0 38 147h-15q-89 0 -151 55.5t-62 136.5q0 27 -13 27q-15 0 -48 -28l-2 4q34 43 90 80t104 56l1 -2q-80 -56 -80 -142q0 -57 34 -94.5t92 -37.5q53 0 86.5 34t37.5 85q25 -54 5 -94t-70 -58q95 8 145 59.5t50 114.5
q0 43 -23.5 70.5t-53.5 27.5q-33 0 -56 -18.5t-31 -44.5q-22 68 36.5 115.5t142.5 36.5v-1q-68 -2 -103 -41zM403 181q36 -63 10 -116q67 44 67 121q0 31 -14.5 54.5t-32.5 23.5q-47 0 -61 -56h-52q-16 40 -3 79q-44 6 -83 21l-1 -2q-73 -48 -73 -129q0 -50 26.5 -81
t69.5 -31q41 0 67 29.5t27 78.5z" />
    <glyph glyph-name="percent" unicode="%" horiz-adv-x="783" 
d="M240 494q-65 16 -99.5 51.5t-34.5 83.5q0 43 34.5 73t82.5 30q63 0 96.5 -43t18.5 -104l-65 -13q-11 15 -11 6q1 -15 20 -46zM232 512l25 22q-19 35 -5 56q11 18 30 -1l37 8q10 51 -18 85.5t-78 34.5q-39 0 -67 -26t-28 -62q0 -86 104 -117zM238 526q-27 49 -1 76
q22 21 50 5q5 -3 10 -7q9 48 -15 75t-59 27q-31 0 -52 -21t-21 -52q0 -76 88 -103zM50 137l50 11q22 -34 57.5 -39.5t68.5 12.5t57 56t24 82q0 13 -4 23.5t-7 11.5q-16 5 -26 -45l-45 -9l-8 8l-6 7q-15 80 45 115.5t119 5.5q32 72 72 128t80.5 89t80 54t76 28t64 7.5
t47.5 -5.5l18 -15v-9l-24 -16q-89 1 -168.5 -79t-154.5 -246l-21 -48l-23.5 -53t-25.5 -51.5t-30 -52t-33.5 -45.5t-39 -40.5t-44.5 -29t-53 -19t-60.5 -2.5t-69.5 14l-9 26l8 7l19 5q22 -1 42 0q-39 11 -58.5 40.5t-17.5 73.5zM65 130q-2 -78 66 -97q28 -7 60 -1
q-41 -24 -105 -19l-12 -3l-1 -1l6 -17q33 -10 63.5 -11.5t55 3t48.5 18.5t41.5 28.5t36.5 39.5t31.5 44.5t28 51t24 50.5l23 52l21.5 48q148 328 331 331l15 10v2l-12 10q-17 7 -46.5 4t-61.5 -9t-71 -29t-75.5 -54.5t-74.5 -86.5t-69 -125l-5 -11q-23 18 -53.5 20.5
t-56.5 -9t-40.5 -41t-6.5 -70.5l4 -5l1 -1l26 5q6 27 17 39t26 8q22 -5 22 -45q0 -47 -26.5 -87t-62.5 -59.5t-76 -15t-65 38.5zM438 320q-7 -15 -23.5 -53.5t-26 -58l-27 -54.5t-31.5 -53.5t-35 -44t-42 -37t-47.5 -21.5t-57 -8.5t-64.5 12.5l1 1q66 -5 110.5 19t65.5 64
q-26 -30 -60.5 -41t-65.5 -2q-26 7 -41 29.5t-14 57.5q28 -39 73 -44t85 17.5t69.5 65t29.5 90.5q0 47 -33 55q-22 6 -38.5 -9t-23.5 -46l-1 1q-11 55 16 85t67 26t65 -37l13 31q30 69 67 123t71.5 85t71.5 53.5t67.5 28t58.5 8.5t45 -4v-2q-193 -2 -345 -337zM598 -46
q-65 16 -99.5 51.5t-34.5 83.5q0 43 34.5 73t82.5 30q63 0 96.5 -43t18.5 -104l-65 -13q-11 15 -11 6q1 -15 20 -46zM590 -28l25 22q-19 35 -5 56q11 18 30 -1l37 8q10 51 -18 85.5t-78 34.5q-39 0 -67 -26t-28 -62q0 -86 104 -117zM596 -14q-27 49 -1 76q22 21 50 5
q5 -3 10 -7q9 48 -15 75t-59 27q-31 0 -52 -21t-21 -52q0 -76 88 -103z" />
    <glyph glyph-name="ampersand" unicode="&#x26;" horiz-adv-x="1107" 
d="M20 182q0 185 248 278q-74 111 -110 111q-17 0 -23 -14t0 -39l-24 -19h-11l-20 7q-39 52 -14 98t91 46q17 0 30 -4q-3 15 -3 29q0 68 47.5 111.5t122.5 43.5q74 0 121.5 -47t47.5 -120q0 -26 12.5 -32.5t44.5 2.5l23 -30q-26 -28 -66.5 -35t-64.5 9q-23 -19 -70 -37
l-31 27q42 47 42 102q0 37 -16 59t-42 22q-25 0 -40.5 -20t-15.5 -53q0 -39 28 -100.5t76 -126.5q22 42 71 77l41 -24q-28 -47 -27 -95t31 -87q66 112 115 159.5t135 69.5l26 6.5t23.5 6.5t21 7.5t17 9t14 11t8 13t3 16.5t-3.5 20l46 17q45 -40 43.5 -84.5t-47.5 -69.5
q39 -37 39 -95q0 -57 -44 -98h14q72 0 124 -48.5t52 -115.5q0 -80 -58.5 -128t-156.5 -48q-124 0 -238 79q-23 -84 -161 -79l-9 35q56 15 69.5 57t-18.5 92q-52 -74 -124.5 -129t-161.5 -55q-104 0 -165.5 57.5t-61.5 154.5zM35 182q0 -93 57 -147.5t155 -54.5q48 0 94 19.5
t82 51.5t61.5 62.5t47.5 64.5q16 -20 25.5 -43t12.5 -49.5t-15 -50t-56 -36.5l5 -19q131 0 136 92q121 -92 250 -92q92 0 146 45t54 121q0 64 -47.5 109t-113.5 45q-29 0 -54.5 -9t-37.5 -17.5t-30 -23.5q-37 -30 -55 -30q-28 0 -32 24l-15 8h-1l-15 -8q-7 -35 12.5 -55.5
t58.5 -20.5q20 0 46 10q9 -28 40 -43.5t72 -10.5l3 19q-44 16 -44 50q0 17 12.5 27.5t33.5 10.5q35 0 59 -24.5t24 -59.5q0 -45 -31 -69.5t-89 -24.5q-129 0 -295 176l-13 14l23 38l34 55.5t35 49t41 47t41 28.5t48 13q30 0 47 -17t17 -47q0 -32 -17.5 -52t-46.5 -20
q-38 0 -60 37l-13 5h-1l-15 -10q0 -43 25 -68.5t67 -25.5q58 0 99.5 38.5t41.5 93.5q0 62 -45 97q46 18 52.5 59.5t-31.5 79.5l-25 -9q4 -18 -2 -32t-15 -23t-29.5 -17t-34.5 -12t-41 -11q-45 -11 -77 -28t-61.5 -49.5t-52 -66t-60.5 -97.5q-41 41 -47.5 94.5t22.5 106.5
l-22 13q-50 -38 -69 -89q-52 67 -87 136.5t-35 116.5q0 37 20 60t51 23q33 0 53 -24.5t20 -66.5q0 -53 -39 -101l17 -15q42 17 66 41q15 -20 50.5 -18t63.5 28l-13 17q-65 -15 -65 42q0 70 -43 113.5t-111 43.5t-111.5 -40.5t-43.5 -104.5q0 -22 8 -49q-23 14 -50 14
q-57 0 -78 -40.5t12 -86.5l12 -4h1l15 12q-5 28 5 44t34 16q47 0 126 -121l3 -4q-252 -89 -252 -274zM929 290q-33 0 -61 -12.5t-43 -27.5t-34.5 -27.5t-38.5 -12.5q-41 0 -47 32h-1q-6 -31 10 -47.5t46 -16.5t58 20q0 -29 26 -49.5t72 -14.5q-54 19 -54 59q0 21 17.5 34.5
t43.5 13.5q39 0 68.5 -26.5t29.5 -67.5q0 -51 -37 -77.5t-98 -26.5q-136 0 -306 179l-19 20q9 13 30 48l34 55.5t36 50.5t42.5 46.5t45 29t51.5 12.5q38 0 58.5 -21t20.5 -53q0 -37 -23 -59.5t-56 -22.5q-47 0 -73 42h-1q0 -39 21.5 -61.5t55.5 -22.5q49 0 87.5 34t38.5 88
q0 70 -56 100q52 10 62.5 53t-25.5 76q4 -20 -2.5 -36.5t-16.5 -26t-34 -19.5t-37 -13.5l-43 -11.5q-44 -11 -74 -27t-60.5 -50.5t-52 -67.5t-63.5 -104l-2 -3l-14 14q-45 45 -52 100t25 113q-63 -48 -70 -112q-60 72 -102.5 152t-42.5 132q0 41 24.5 67t61.5 26
q40 0 64 -28t24 -73q0 -56 -43 -107q56 25 77 61q-1 -29 29.5 -36.5t69.5 24.5q-37 -8 -60 5.5t-23 46.5q0 64 -38 105.5t-101 41.5q-61 0 -100.5 -36.5t-39.5 -98.5q0 -45 34 -104q-26 31 -45.5 45t-45.5 14q-47 0 -65 -35t11 -76h1q-6 33 8 52.5t46 19.5q30 0 62 -29
t77 -97l9 -14q-256 -86 -256 -269q0 -89 53 -140.5t144 -51.5q48 0 94.5 21t82.5 56t61 67t45 66q18 -18 32 -44t21 -58t-12.5 -62t-66.5 -46q76 0 101.5 31t17.5 80q62 -51 124.5 -81t142.5 -30q84 0 134.5 41t50.5 115q0 63 -45 103.5t-101 40.5zM594 244l8 -8
q85 -90 153 -131.5t131 -41.5q105 0 105 84q0 31 -20 52.5t-48 21.5q-31 0 -31 -28q0 -31 45 -44l-5 -33q-43 -9 -81.5 5t-53.5 43q-19 -6 -37 -6q-47 0 -70.5 25t-14.5 66l24 13h11l24 -13q2 -11 5.5 -15t12.5 -4q11 0 45 28l10 8h-4q-50 0 -79 29.5t-28 78.5l24 16h11
l21 -8q20 -34 48 -34q22 0 35.5 17t13.5 45q0 54 -49 54q-21 0 -42.5 -12t-37.5 -27t-38 -45.5t-33.5 -48t-34.5 -55.5q-3 -6 -9.5 -16t-7.5 -12t-3 -4zM253 39q-69 0 -107 42.5t-38 106.5q0 52 22 97t46 62q-21 -35 14.5 -76t112.5 -50v1q-46 13 -70 40.5t-24 56.5
q0 69 118 95q96 -114 168 -185q-117 -190 -242 -190zM123 188q0 64 32 117q8 -34 48.5 -60.5t97.5 -33.5l17 10v1l-11 10q-37 10 -60 34t-23 53q0 59 96 83q84 -100 158 -174q-113 -179 -225 -179q-59 0 -94.5 38t-35.5 101zM138 188q0 -59 31 -94t84 -35q101 0 208 168
q-74 75 -147 163q-75 -23 -75 -71q0 -26 21.5 -48.5t55.5 -30.5l17 -15v-8l-28 -17q-48 5 -89 25t-61 48q-17 -40 -17 -85z" />
    <glyph glyph-name="quotesingle" unicode="'" horiz-adv-x="253" 
d="M151 781q53 0 87.5 -32t34.5 -81q0 -114 -170 -223l-32 1l-9 9v20q94 88 94 168q0 30 -11 30q-9 0 -17.5 -13.5t-7.5 -27.5l-47 -11q-33 33 -33 67q0 39 32 66t79 27zM151 771q-41 0 -68.5 -24t-27.5 -59q0 -30 24 -55l26 6q2 17 14 30.5t26 13.5q26 0 26 -40
q0 -80 -94 -171v-14l2 -2l19 -1q160 104 160 213q0 46 -30 74.5t-77 28.5zM151 761q-36 0 -58.5 -21.5t-22.5 -51.5q0 -27 20 -48q2 19 17.5 36t37.5 17q41 0 41 -50q0 -82 -98 -178l2 -2q153 101 153 205q0 38 -24 65.5t-68 27.5z" />
    <glyph glyph-name="parenleft" unicode="(" horiz-adv-x="393" 
d="M387 808l5 -10l-8 -17q-99 -66 -153 -175.5t-54 -243.5q0 -133 48 -246t137 -191l4 -16l-4 -9l-35 -8q-35 19 -70 45t-54 44l-52 51l1 -4q2 -5 5.5 -13t9 -17.5t14 -21.5t19.5 -23l2 -15l-4 -9l-39 -7q-79 57 -102 129.5t29 101.5q-34 103 -34 206q0 152 78.5 271
t223.5 186zM375 800l-19 5q-138 -66 -213.5 -182.5t-75.5 -263.5q0 -105 36 -210q-34 -13 -37.5 -51t23.5 -84t75 -81l22 4l1 2l-2 11q-32 35 -41 79q-4 21 5 19q5 -1 13 -9q98 -98 168 -136l20 5l1 2l-3 11q-90 80 -138 194t-48 247q0 135 54 245t155 179l5 12zM362 796
q-138 -66 -209 -182t-71 -255q0 -106 38 -216q-38 -7 -40 -44.5t25.5 -83t67.5 -74.5l1 2q-44 49 -43 94q1 26 17 24q11 -1 25 -15q98 -98 164 -134l1 2q-93 83 -142 197.5t-49 250.5q0 137 56 249t160 183z" />
    <glyph glyph-name="parenright" unicode=")" horiz-adv-x="393" 
d="M6 808l33 8q145 -67 223.5 -186t78.5 -271q0 -103 -34 -206q52 -29 29 -101.5t-102 -129.5l-39 7l-4 9l2 15q11 11 19.5 23t14 21.5t9 17.5t4.5 13l2 4l-52 -51t-54 -44t-70 -45l-35 8l-4 9l4 16q89 78 137 191t48 246q0 134 -54 243.5t-153 175.5l-8 17zM18 800l-1 -2
l5 -12q101 -69 155 -179t54 -245q0 -133 -48 -247t-138 -194l-3 -11l1 -2l20 -5q70 38 168 136q20 20 19 -1q-2 -33 -31 -74q-6 -8 -11 -14l-2 -11l1 -2l22 -4q48 35 75 81t23.5 84t-37.5 51q36 105 36 210q0 147 -75.5 263.5t-213.5 182.5zM31 796l-1 -2q104 -71 160 -183
t56 -249q0 -136 -49 -250.5t-142 -197.5l1 -2q66 36 164 134q29 29 39 6q12 -28 -16 -76q-10 -17 -24 -33l1 -2q40 29 67.5 74.5t25.5 83t-40 44.5q38 110 38 216q0 139 -71 255t-209 182z" />
    <glyph glyph-name="asterisk" unicode="*" horiz-adv-x="370" 
d="M-30 607v39l112 26q-26 35 -26 92l24 16h12l24 -13q4 -21 15.5 -34.5t23.5 -13.5q5 0 5 11t-8 19.5t-21 9.5l-18 16v8l24 16q55 2 93 -23.5t38 -63.5q0 -10 -3 -21l135 10v-38l-106 -25q36 -71 -67 -160l-42 9l-3 11l4 14q17 16 23.5 39.5t1 40t-21.5 16.5
q-32 0 -51 -38.5t-9 -84.5l-24 -19h-12l-21 8q-39 72 -8 140zM-15 618l101 8q-19 -30 -20 -69t18 -76l13 -5h1l15 12q-10 51 13 90.5t63 39.5q35 0 39 -38t-28 -72l-3 -10l1 -3l24 -5q98 86 53 154l110 26v20l-140 -11q8 16 8 33q0 33 -31.5 55t-78.5 22l-15 -10v-1l11 -10
q16 -4 26 -14.5t10 -23.5q0 -21 -20 -21q-18 0 -33 15t-20 38l-15 8h-1l-15 -10q2 -62 32 -94l-118 -27v-21zM143 779v-1q24 -6 35.5 -20t11.5 -28q0 -15 -10 -23t-25 -8q-26 0 -44 18.5t-24 42.5h-1q2 -72 41 -98l-127 -30v-3l111 8q-24 -26 -29.5 -67t15.5 -84h1
q-10 53 15.5 97.5t75.5 44.5q28 0 43 -19t10 -49t-31 -59l1 -3q96 84 42 152l116 27v2l-149 -12q17 19 17 45q0 32 -29.5 49.5t-65.5 17.5z" />
    <glyph glyph-name="plus" unicode="+" horiz-adv-x="640" 
d="M74 283q-18 60 33.5 94t168.5 39q21 52 21 106q0 32 -8.5 61.5t-15.5 29.5l-11 18q13 10 31 10q-1 3 -4.5 9t-4.5 8l16 15q49 -9 76 -51t27 -107q0 -43 -19 -97q48 3 59.5 15.5t10.5 57.5l24 8q66 -47 33 -103q59 -20 59 -66q0 -33 -28 -54.5t-69 -20.5l-19 31
q16 6 16 19q0 18 -112 23q-17 -90 19 -158t102 -67v-37q-70 -12 -124 11q6 -15 15 -30l-20 -14q-51 27 -83 86t-32 126q0 43 9 77q-26 -6 -36 -19.5t-8 -41.5l-51 -9q-13 17 -17 38q-1 -1 -1.5 -3t-1.5 -4l-2 -4zM87 292l29 -2q9 21 28 30q-2 -31 13 -56l28 5
q0 30 17.5 45.5t60.5 20.5q-13 -36 -13 -90q0 -62 30 -120t77 -83q-20 38 -29 65q52 -44 136 -33v20q-69 8 -104 79.5t-15 164.5q140 -3 140 -33q0 -12 -13 -22l11 -18q31 2 51.5 20t20.5 45q0 22 -17.5 38.5t-46.5 22.5q20 21 14.5 49.5t-36.5 50.5q1 -50 -16.5 -65.5
t-87.5 -18.5q23 60 23 108q0 60 -24 100t-67 48q12 -21 20 -39q-27 14 -45 -1q17 1 28.5 -28.5t11.5 -72.5q0 -57 -24 -116q-226 -6 -201 -114zM102 294q-2 14 -2 28t12.5 27t33.5 23.5t60.5 16.5t93.5 7q27 67 27 126q0 66 -25 97q12 -3 24 -15.5t16 -27.5q-2 33 -16 63
q47 -34 47 -124q0 -51 -28 -119q72 2 103 13.5t35 48.5q11 -15 6.5 -38.5t-25.5 -36.5q34 0 55 -15t21 -38q0 -25 -18 -39.5t-40 -15.5q18 15 18 30q0 41 -168 43q-25 -104 14.5 -180t115.5 -84q-66 -8 -108 19t-54 77q-2 -38 19 -90q-54 65 -54 155q0 63 18 102
q-64 -4 -88.5 -23t-24.5 -55q-9 15 -10.5 38.5t3.5 28.5q-46 -6 -61 -42z" />
    <glyph glyph-name="comma" unicode="," horiz-adv-x="222" 
d="M-8 -102l12 14l10 5l32 -5q19 -29 32 -29q23 0 23 46q0 67 -67 189l2 16l7 6l23 5q45 -7 92.5 -28t73.5 -43l5 -15l-3 -10l-35 -10q-24 13 -37 14q0 -3 7 -17q45 -90 45 -131q0 -48 -34.5 -78.5t-88.5 -30.5q-44 0 -71.5 28t-27.5 74zM66 135l-14 -3l-1 -1l-2 -12
q67 -121 67 -190q0 -56 -38 -56q-21 0 -42 30l-19 3l-2 -1l-8 -9q1 -41 23.5 -65.5t60.5 -24.5q48 0 78 27.5t30 71.5q0 38 -43 127q-14 28 -9 31q1 1 5 1q20 0 49 -14l20 6l1 3l-4 11q-61 49 -152 65zM63 125l-1 -1q69 -125 69 -195q0 -35 -15.5 -50.5t-37.5 -15.5
q-31 0 -54 34l-2 -1q1 -36 19 -58t50 -22q38 0 65.5 22.5t27.5 66.5q0 16 -6.5 39t-13.5 38.5t-17.5 36.5t-10.5 22q-8 15 -5 24t21 9q23 0 55 -15l1 3q-56 47 -145 63z" />
    <glyph glyph-name="hyphen" unicode="-" horiz-adv-x="628" 
d="M434 375q40 -22 40 -58q0 -29 -27.5 -47t-67.5 -15l-12 24q7 16 7 22q0 20 -68 20q-61 0 -88.5 -18.5t-16.5 -50.5l-19 -12q-70 25 -70 70t45.5 70t122.5 23q56 -1 72 10.5t8 47.5l43 18q67 -48 31 -104zM390 265q30 0 49.5 14.5t19.5 37.5q0 37 -43 55q18 21 14 47.5
t-30 46.5l-24 -10q6 -36 -15 -50t-81 -13q-71 2 -112 -20t-41 -63q0 -40 60 -61q-13 38 19 60t100 22q83 0 83 -26q0 -16 -8 -22zM395 368q49 -14 49 -51q0 -19 -15 -30.5t-39 -11.5q14 11 14 30q0 36 -98 36q-60 0 -99 -18t-39 -54q-26 14 -26 41q0 35 34.5 55t103.5 18
q66 -1 92 16.5t19 58.5q22 -17 24.5 -43t-20.5 -47z" />
    <glyph glyph-name="period" unicode="." horiz-adv-x="232" 
d="M141 -36q-91 23 -91 92q0 29 23.5 49.5t56.5 20.5q43 0 65.5 -29t12.5 -71l-44 -9q-8 10 -8 4q1 -10 14 -31zM136 -24l17 15q-14 26 -3 40q8 10 20 -2l25 5q7 35 -12 58.5t-53 23.5q-27 0 -46 -17.5t-19 -42.5q0 -58 71 -80zM140 -14q-13 23 -7.5 40t20 18.5t27.5 -8.5
q6 33 -10 51.5t-40 18.5q-21 0 -35.5 -14.5t-14.5 -35.5q0 -53 60 -70z" />
    <glyph glyph-name="slash" unicode="/" horiz-adv-x="502" 
d="M-1 101l43 18q27 -27 58 -24t57 22.5t43.5 57.5t17.5 82q0 24 -6 40.5t-14 16.5q-6 0 -11 -16.5t-4 -36.5l-24 -16h-11l-22 10q-37 73 11 121.5t113 33.5q14 94 45.5 168t68 116.5t78.5 70t74.5 37t59.5 9.5l26 -16v-9l-17 -15q-169 -42 -229 -401q-3 -17 -8 -52.5
t-8.5 -58t-10.5 -57t-14.5 -57.5t-20 -52.5t-26.5 -48.5t-35 -39t-45.5 -30.5t-57.5 -16.5t-71 -3l-22 16v9l19 16q26 4 45 12q-38 2 -66 27t-36 66zM15 96q9 -36 33 -57t57 -21q25 0 52 11q-36 -31 -93 -42l-12 -10v-2l14 -10q44 -3 79.5 7.5t60 25.5t45 46t32 54.5
t22.5 67.5t15 68t11 72.5t10 65.5q60 358 235 407l11 10v2l-16 10q-27 -1 -57.5 -11t-70 -37.5t-73 -69t-62.5 -113t-43 -161.5l-2 -14q-37 16 -76.5 2.5t-55 -48.5t7.5 -88l13 -6h1l15 10q-1 27 7.5 43t22.5 16q16 0 25.5 -18t9.5 -49q0 -46 -19 -86t-48 -61t-63 -25.5
t-64 21.5zM326 374l-8.5 -58t-9.5 -62t-11 -60t-16 -59.5t-22 -52t-30.5 -46.5t-40.5 -33.5t-53.5 -22.5t-67.5 -5v2q65 12 102 46.5t47 78.5q-17 -35 -48 -54.5t-63 -19.5q-58 0 -75 70q36 -30 74.5 -25t70.5 29t52.5 66.5t20.5 88.5q0 38 -13.5 57.5t-36.5 19.5t-35 -19
t-10 -50h-1q-20 41 -12 69.5t29.5 44.5t51.5 15.5t54 -19.5l5 33q13 89 41 158.5t60 110t69.5 67.5t66.5 36.5t55 10.5v-2q-27 -7 -49.5 -19t-53 -41.5t-55 -72t-48.5 -115.5t-40 -167z" />
    <glyph glyph-name="zero" unicode="0" horiz-adv-x="655" 
d="M30 351q0 94 36 181t112.5 147.5t178.5 60.5q95 0 159.5 -59.5t64.5 -147.5q0 -49 -22 -97q31 -22 48.5 -66t17.5 -97q0 -131 -81 -217t-205 -86q-65 0 -119 24t-88.5 62.5t-58 89t-33.5 102t-10 103.5zM45 351q0 -52 9.5 -102.5t32 -99.5t55.5 -86t84 -60t113 -23
q118 0 194.5 83t76.5 210q0 53 -19 98.5t-49 61.5q24 49 24 100q0 84 -60 140.5t-149 56.5q-73 0 -134 -34t-99 -89t-58.5 -121t-20.5 -135zM551 533q0 81 -56 134t-138 53q-70 0 -128 -32.5t-94 -85.5t-55.5 -118t-19.5 -133q0 -65 15.5 -126t47 -115t87.5 -87t129 -33
q115 0 185.5 82.5t70.5 200.5q0 91 -43 137q16 -46 16 -127q0 -91 -42.5 -158t-110.5 -88q35 22 35 63q0 28 -17 49q1 -55 -32 -83.5t-80 -28.5q-67 0 -109 53t-42 129q0 31 13 54t39 23q33 0 59 -35l2 1q-22 70 -71 70q-40 0 -64.5 -37.5t-20.5 -82.5q-18 75 -18 146
q0 56 14 110.5t42 104.5t78.5 80.5t116.5 30.5q69 0 110 -45t41 -102q0 -69 -55 -69q-67 0 -89 99q-8 -45 -1 -74t22.5 -45.5t34 -22.5t32.5 -6t19 4q-1 -19 -17 -52.5t-41 -63.5l2 -2q133 105 133 228zM124 358q0 55 13 108.5t39.5 101t74 77t109.5 29.5q58 0 97 -39.5
t39 -97.5q0 -59 -40 -59q-55 0 -74 91h-30q-8 -44 0 -77t27 -49.5t38.5 -24.5t39.5 -8q-13 -51 -53 -97l1 -13l2 -2l20 -1q70 55 107 120q19 -46 19 -134q0 -68 -25 -124t-69 -88q6 13 6 29q0 49 -51 82q13 -61 -13.5 -98t-79.5 -37q-58 0 -97 49.5t-39 122.5
q0 30 10.5 48.5t26.5 18.5q24 0 47 -31l19 -3l2 1l7 12q-24 77 -85 77q-55 0 -84 -54q-4 27 -4 70zM139 358q0 -24 1 -34q31 28 72 28q35 0 62 -23.5t38 -64.5l-10 -17l-11 -6l-32 5q-22 30 -37 30q-8 0 -15 -17.5t-7 -39.5q0 -69 35 -115.5t86 -46.5q46 0 67.5 34t10.5 89
l23 10q55 -34 58 -84q58 67 58 177q0 63 -9 101q-36 -51 -96 -97l-34 1l-9 9l-1 18q33 36 50 86q-60 8 -88 57t-12 121h56q17 -91 61 -91q25 0 25 49q0 54 -34.5 90.5t-86.5 36.5q-58 0 -102 -28t-69 -74t-37.5 -97.5t-12.5 -106.5z" />
    <glyph glyph-name="one" unicode="1" horiz-adv-x="544" 
d="M-10 52q0 62 94 78l30 -17v-8l-11 -14q-17 -7 -17 -28q0 -15 6 -21t21 -6q19 0 26 5.5t10 20.5q77 42 98.5 86t19.5 160q-47 -26 -112.5 -43.5t-109.5 -20.5l-26 16v10l17 15q101 23 161 78.5t60 125.5q0 53 -28 104.5t-61 57.5l15 35q43 -3 77 -17q-18 41 -46 68t-47 36
l-8 13l9 19l17 6q19 -4 41.5 -13t55.5 -30t57.5 -48t40.5 -71.5t13 -96.5l-7 -10q-9 -4 -18.5 -87t-9.5 -160q0 -65 8 -159q28 5 47 5q49 0 86.5 -21.5t44.5 -54.5l-11 -12l-3 -1q7 -15 7 -31q0 -27 -22 -61l-34 -7l-11 6l-12 16q10 32 -8.5 52t-58.5 20q-49 0 -134 -37
q-93 -40 -156 -40q-49 0 -80 23t-31 59zM5 52q0 -32 26.5 -52t69.5 -20q60 0 150 39q88 38 140 38q46 0 69 -22.5t14 -58.5l8 -11l2 -1l20 4q18 29 18 53q0 18 -11 37l18 5q-7 30 -39.5 49t-76.5 19q-25 0 -61 -9q-9 97 -9 173q0 86 9.5 163t21.5 90l4 6q3 50 -12.5 92.5
t-38.5 68.5t-53.5 46t-52 28t-39.5 12l-9 -19q27 -13 62 -50.5t51 -92.5q-34 30 -92 36l-8 -19q35 -16 60.5 -65t25.5 -102q0 -72 -61.5 -129.5t-165.5 -82.5l-11 -10v-3l16 -10q51 4 120 25t111 52q4 -133 -17 -181.5t-103 -93.5l-8 -11l1 -5l10 -3q-28 -11 -51 -11
q-42 0 -42 37q0 24 21 35l7 9v2l-18 10q-76 -14 -76 -67zM169 42l58 30.5t43.5 24t28.5 15.5t22.5 10t15.5 4q-9 95 -9 169q0 93 10 168.5t25 91.5q3 48 -11 89t-36 65.5t-50.5 43.5t-49 27t-37.5 11q15 -7 34.5 -22.5t42 -41.5t38 -66t15.5 -84q-21 78 -117 88
q37 -17 66 -65.5t29 -110.5q0 -79 -68 -138t-170 -84v-3q60 6 135.5 31.5t110.5 64.5q5 -109 -3 -161t-34.5 -84.5t-89.5 -67.5zM20 52q0 -30 23 -46t58 -16q56 0 144.5 38.5t145.5 38.5q50 0 79 -25t19 -68l2 -1q16 26 16 48q0 44 -53 70q41 -4 60 -30q-7 32 -38 46t-63 14
q-44 0 -100.5 -26.5l-110 -52.5t-89.5 -26q-57 0 -57 47q0 27 28 44v2q-64 -11 -64 -57z" />
    <glyph glyph-name="two" unicode="2" horiz-adv-x="666" 
d="M696 168q0 -50 -29 -96l21 -6q-4 -43 -50 -69.5t-117 -26.5q-60 0 -192 40q-134 42 -186 42q-34 0 -50.5 -20.5t-5.5 -49.5l-4 -13l-7 -7l-32 -4q-54 33 -54 77q0 39 44 63l-6 4l-4 9l16 20q121 28 223.5 101.5t156.5 158t54 155.5q0 52 -20 79.5t-57 27.5
q-83 0 -141.5 -109t-80.5 -309l-25 -15h-14l-21 8q-37 70 -47 153t10 148l23 11h13l14 -10q45 106 116 163t159 57q83 0 137.5 -51t54.5 -129q0 -174 -257 -374l-19 -14.5l-15 -11t-7 -5.5q-13 3 32 39q251 195 251 366q0 74 -50 122t-127 48q-93 0 -166 -69t-115 -196
q0 28 1 44l-15 11h-2l-14 -7q-19 -61 -9 -141.5t44 -146.5l13 -5h5l15 9q24 205 85 314.5t152 109.5q44 0 68 -30.5t24 -86.5q0 -53 -33 -117t-89 -123.5t-140 -109.5t-177 -73l-10 -13l1 -3l13 -7h12q-61 -19 -61 -65q0 -38 44 -66l19 2l1 1l3 10q-11 34 9.5 57t61.5 23
q56 0 190 -42q132 -40 188 -40q63 0 103.5 21.5t47.5 58.5l-25 7q34 45 34 101q0 79 -66.5 113.5t-142.5 -3.5l-8 -9v-2l18 -10q50 9 83.5 -15.5t33.5 -69.5q0 -51 -35 -80t-98 -29q-46 0 -149 21q-112 19 -143 22q175 21 293 89l4 16l-1 1l-16 2q-134 -50 -154 -49l22.5 9
l53.5 21l76 29l27 -3l8 -8l-6 -23q-91 -54 -235 -83l45 -8q16 -4 29 -5q103 -21 146 -21q57 0 87.5 26t30.5 73q0 42 -29.5 63t-75.5 11l-30 17v8l12 14q58 26 110 20.5t88.5 -44t36.5 -93.5zM320 212q-64 -50 -31 -55q35 -4 170 48l1 -1q-84 -48 -199.5 -73t-205.5 -21
l-1 3q95 23 181 74.5t143.5 113t91.5 126.5t34 119q0 63 -29 95t-78 32q-57 0 -102.5 -37t-74.5 -101.5t-47 -136.5t-28 -158h-5q-31 59 -41.5 134t7.5 146h2q-5 -72 7 -123q37 158 112.5 245.5t175.5 87.5q74 0 118 -46t44 -114q0 -167 -245 -358zM20 35q0 30 31 46.5
t76 16.5q63 0 178 -22.5t161 -22.5q68 0 108 31.5t40 87.5q0 45 -36 75.5t-99 19.5v2q71 35 129 3t58 -104q0 -42 -21.5 -80.5t-64.5 -61.5q47 -5 77 36q-7 -40 -47.5 -56t-88.5 -16q-53 0 -186.5 41t-191.5 41q-46 0 -72.5 -26t-12.5 -67l-1 -1q-37 22 -37 57zM300 165
q-6 -3 -3 0h3z" />
    <glyph glyph-name="three" unicode="3" horiz-adv-x="664" 
d="M2 234l32 30q39 -18 80 -67l1 4h56q14 -68 61.5 -103.5t124.5 -35.5q81 0 127.5 31t46.5 84q0 85 -112 85q-86 0 -189 -67l-39 8l-10 19l1 13q46 57 147 158q48 48 68.5 71t37.5 55t17 65q0 38 -17.5 59.5t-48.5 21.5q-71 0 -126.5 -99.5t-69.5 -253.5l-25 -15h-10
l-23 10q-68 162 -36 266l23 12h13l11 -7q38 88 103 136t146 48q80 0 131.5 -48.5t51.5 -124.5q0 -78 -66 -146l32 -14v-10l-9 -12q-52 -38 -80 -67q35 -2 67 -11t62.5 -27t49 -50t18.5 -75q0 -91 -81.5 -149t-209.5 -58q-92 0 -169.5 28t-117.5 70l-6 8q-14 118 -63 158z
M20 234q46 -46 60 -156l4 -6q40 -40 113 -66t161 -26q122 0 199 55t77 142q0 45 -20.5 77t-53.5 48t-66 22.5t-67 5.5q28 36 93 83l6 8v3l-22 9q-44 -23 -67 -38q63 51 93 94t30 100q0 71 -47 117t-121 46q-86 0 -151.5 -57.5t-98.5 -159.5q-2 20 -1 30l-15 10h-2l-14 -7
q-29 -100 35 -255l14 -6h1l15 9q16 159 74.5 259t136.5 100q37 0 59 -24.5t22 -66.5q0 -34 -18 -68t-39 -57.5t-70 -72.5q-88 -86 -143 -153l-1 -10l1 -2l8 -1l-2 -6l1 -3l22 -5q103 66 193 66q61 0 94 -24.5t33 -70.5q0 -57 -51 -91t-138 -34q-80 0 -131.5 36t-67.5 103
h-30q-3 -17 -3 -31q-45 66 -88 90zM124 565h2q-2 -48 15 -89q25 117 89.5 191.5t161.5 74.5q72 0 112.5 -44.5t40.5 -108.5q0 -50 -28 -93.5t-66 -73l-111.5 -87t-129.5 -110.5l-1 2q44 54 102.5 113.5l90.5 91t56 72t24 80.5q0 48 -27 74.5t-69 26.5q-63 0 -112.5 -56
t-76.5 -136.5t-37 -175.5h-1q-62 151 -35 248zM30 241q29 -17 61.5 -58t53.5 -86q-10 42 -2 92q17 -69 73 -108t141 -39q92 0 148 36.5t56 98.5q0 49 -37 77t-105 28q-97 0 -201 -68l-1 3q68 64 150 120t144 87v-3q-80 -58 -110 -103q27 7 64.5 1t71.5 -18t58 -44.5
t24 -79.5q0 -84 -73.5 -135.5t-187.5 -51.5q-85 0 -154.5 24.5t-108.5 64.5q-13 111 -65 162z" />
    <glyph glyph-name="four" unicode="4" horiz-adv-x="626" 
d="M670 139l2 -20l-7 -8l-29 -3q-100 43 -219 38q16 -25 16 -69q0 -43 22.5 -70.5t58.5 -29.5l4 -20q-47 -15 -98.5 2.5t-73.5 53.5q-35 -15 -70 -15q-72 0 -104.5 49t-4.5 113q-111 -31 -145 -65l-17 -5h-11l-24 16q-1 28 20.5 62t45.5 58l69 66q46 43 71 68.5t59 68
t49.5 86t15.5 90.5q0 57 -28 101.5t-78 66.5l19 35q83 -15 135 -59l4 4l23 5q64 -10 102 -46t38 -86q0 -33 -16 -66.5t-51 -69t-60 -57.5t-71 -59q-60 -47 -94.5 -80t-49.5 -66q120 33 229 41q-14 20 -14 41q0 41 39 70t106 38l21 -5l8 -7l-9 -25q-51 -17 -51 -49
q0 -29 33.5 -53t113.5 -52l12 -20l-5 -9l-25 -10q-50 8 -95 9q46 -11 84 -28t50 -30zM656 120l1 1l-2 15q-28 23 -99.5 45.5t-140.5 22.5q-68 0 -117 -22.5t-65 -61.5l7 -13l2 -1l18 2q19 22 46 22q31 0 31 -22q0 -19 -17.5 -31.5t-45.5 -12.5q-38 0 -60 31t-18 83
q208 51 433 21l15 6l1 2l-8 13q-80 28 -115 54t-35 58q0 36 53 56l6 16l-1 1l-13 3q-60 -9 -94.5 -35t-34.5 -63q0 -28 24 -50q-137 -5 -275 -50q9 38 47 77t109 95l56 46t49.5 45t46 50t28 49t12.5 54q0 46 -34 78.5t-91 43.5l-14 -3l-1 -1l2 -15q44 -32 53 -80t-18 -92
q16 89 -31 154t-144 85l-10 -19q49 -25 76 -70.5t27 -101.5q0 -48 -16 -92.5t-50.5 -88t-61 -70l-72.5 -69.5q-43 -40 -65 -62.5t-43.5 -54.5t-21.5 -58l15 -10h2l10 3q41 39 180 74q-39 -66 -11.5 -117.5t95.5 -51.5q41 0 78 21q14 -37 62.5 -57.5t96.5 -4.5q-43 1 -69 32
t-26 78q0 54 -24 78q58 6 128.5 -6t116.5 -31zM631 209q-161 23 -298.5 3.5t-221 -48.5t-109.5 -54h-2q1 34 35 75.5t82.5 85t96.5 92.5t82 112.5t34 129.5q0 123 -111 181q107 -23 147.5 -102t-1.5 -183q35 29 54 68.5t9 86t-57 81.5l1 1q45 -8 79 -36t34 -76
q0 -46 -36 -94.5t-87 -90l-102 -82t-87 -84t-37 -81.5q166 57 325 56q-43 24 -43 60q0 34 32 57t84 31l1 -1q-63 -23 -63 -65q0 -39 43 -67t117 -54zM247 116q14 33 56 55.5t112 22.5q66 0 134.5 -22t96.5 -44l-1 -1q-55 23 -133.5 34t-150.5 -1q42 -10 42 -83t57 -106
q-40 4 -69.5 30t-25.5 56q-7 -15 -34 -27t-55 -12q-50 0 -73.5 32t-16.5 72q9 -30 32 -49t56 -19q35 0 56.5 16t21.5 38q0 32 -46 32q-34 0 -57 -25zM227 101l-9 19q14 41 63 65q-28 -5 -70 -14q-2 -44 15.5 -70.5t47.5 -26.5q22 0 35 9.5t13 24.5q0 12 -16 12
q-20 0 -37 -21l-31 -4z" />
    <glyph glyph-name="five" unicode="5" horiz-adv-x="652" 
d="M13 272l50 19q36 -47 65 -99h48q13 -63 59 -96.5t117 -33.5q78 0 125 38t47 100q0 56 -37.5 89t-102.5 33q-92 0 -170 -63l-50 8q-103 68 -41 204q-86 0 -100 104l53 13q16 -36 46 -36q17 0 28.5 18.5t11.5 45.5q0 25 -7 25q-9 0 -14 -14.5t1 -28.5l-17 -14
q-29 6 -45.5 22.5t-16.5 38.5q0 41 36.5 68t92.5 27q46 0 144 -29q91 -29 133 -29q91 0 102 90l24 14h11l24 -13q16 -88 -27.5 -139.5t-132.5 -51.5q-65 0 -140 41q-43 24 -64 31q6 -17 6 -35q0 -39 -43 -107q-36 -60 -36 -95q0 -28 8 -28q9 0 23 5t41.5 20l44 24t60.5 35
l123 70l35 -8l5 -12l-7 -18l-13 -8l8 -28q-54 -30 -92 -68q92 -4 152.5 -60.5t60.5 -140.5q0 -99 -82.5 -164.5t-206.5 -65.5q-85 0 -166.5 28t-121.5 70l-5 10q3 94 -47 194zM31 267q47 -100 44 -188l4 -7q40 -41 116.5 -66.5t157.5 -25.5q117 0 195.5 62.5t78.5 157.5
q0 94 -69 144.5t-156 46.5q36 42 103 82l-6 20l-49 -21q42 26 63 38l5 13l-2 4l-20 5l-118 -68l-79 -45.5t-54.5 -27t-43.5 -12.5q-23 0 -23 38q0 36 38 100q41 64 41 102q0 29 -15 50q36 -5 95 -37q25 -14 37.5 -20t39.5 -13t56 -7q81 0 120 47.5t26 128.5l-15 8h-1l-15 -9
q-12 -95 -116 -95q-47 0 -138 29q-93 29 -139 29q-50 0 -82 -24t-32 -61q0 -19 13.5 -33t36.5 -18q-9 21 0.5 39t26.5 18q22 0 22 -35q0 -31 -16 -52.5t-39 -21.5q-36 0 -55 33l-28 -7q15 -87 84 -87q7 0 21 2q-71 -142 26 -205l16 2l-1 -2l1 -3l23 -5q79 62 175 62
q71 0 113 -36t42 -96q0 -66 -51.5 -107t-135.5 -41q-74 0 -123.5 34t-65.5 96h-29q-4 -14 -5 -21q-32 62 -72 116zM54 570q13 -79 69 -79q31 0 53 22q-97 -161 2 -227q26 33 122.5 101.5t204.5 131.5l-2 4l-121 -70t-118.5 -65.5t-62.5 -18.5q-38 0 -38 48q0 39 39.5 103
t39.5 99q0 41 -29 62q61 0 130.5 -39.5t126.5 -39.5q64 0 104.5 39t26.5 125h-1q-8 -56 -45 -80t-86 -24t-140.5 29t-136.5 29q-46 0 -72.5 -21.5t-26.5 -53.5q0 -21 16 -32q0 20 13.5 34t32.5 14q17 0 27 -12.5t10 -32.5q0 -37 -20.5 -60.5t-49.5 -23.5q-45 0 -68 38z
M45 271q48 -105 45 -192q38 -39 110.5 -64t152.5 -25q104 0 181.5 57t77.5 153q0 99 -74.5 146t-161.5 32q36 53 121 104l-1 2q-170 -85 -297 -203l1 -3q81 64 184 64q82 0 126 -41.5t44 -100.5q0 -74 -59 -116t-143 -42q-81 0 -134.5 37.5t-69.5 99.5q-10 -36 -9 -75
q-31 79 -94 167z" />
    <glyph glyph-name="six" unicode="6" horiz-adv-x="641" 
d="M453 373q61 -20 98 -70t37 -115q0 -93 -77 -155.5t-192 -62.5q-127 0 -208 97.5t-81 251.5q0 73 33 174q27 85 39 156l38 11l11 -5l12 -14v-4q48 52 146 86q88 27 106 39t46 65h26q37 -64 -27 -117q74 -19 107 -75q11 23 34 89l22 11h13l24 -18q-7 -70 -29.5 -128
t-56 -99.5t-60 -66.5t-61.5 -50zM319 -20q109 0 181.5 59.5t72.5 148.5q0 81 -56 134t-140 53q-90 0 -144.5 -46t-54.5 -121q0 -37 20.5 -73t51.5 -52l7 -1h2l11 17q-38 41 -38 98q0 51 38 83t99 32q55 0 89.5 -36t34.5 -92q0 -66 -55 -106q9 35 -20.5 57t-76.5 11l-11 -10
v-1l13 -10q23 -3 23 -32q0 -20 -16.5 -31.5t-44.5 -11.5q-73 0 -123 79t-50 195q0 139 75 226l-4 16l-2 1l-17 -2l-13 -12q70 97 174 97q65 0 102 -33t37 -91q0 -55 -63 -131l1 -13l1 -1l20 -1q35 25 60 48.5t58 64t54.5 97t29.5 124.5l-15 11h-2l-14 -7q-26 -79 -47 -115
q-32 88 -134 102q36 22 47.5 53t-6.5 64q-25 -46 -36 -57q-22 -20 -115 -49q-4 -2 -9 -3q-122 -40 -167 -122q1 16 1 48l-8 9l-2 1l-22 -7q-12 -67 -39 -152q-32 -102 -32 -171q0 -149 76.5 -244t197.5 -95zM345 660q-59 0 -113 -33.5t-90 -93.5h-1q16 65 59 105.5t119 64.5
q78 25 106 39t45 43q1 -28 -21 -51.5t-58 -35.5q71 1 115 -33t55 -96q36 51 67 146h2q-8 -67 -29 -122.5t-52.5 -95t-56.5 -62.5t-58 -47l-1 1q66 79 66 137q0 61 -40.5 97.5t-113.5 36.5zM377 365q72 0 126.5 -47t54.5 -130q0 -86 -68.5 -142t-170.5 -56q-63 0 -113.5 28.5
t-81.5 75.5t-47.5 105t-16.5 120q0 67 30 163.5t41 157.5l2 -1q0 -42 -1.5 -66t-10 -66t-26.5 -84q18 42 38 69t61 66l2 -1q-79 -91 -79 -233q0 -121 54 -202.5t134 -81.5q33 0 54.5 14t21.5 39q0 36 -36 42v1q37 9 59 -5t20.5 -37t-15.5 -43q40 13 69.5 48t29.5 85
q0 63 -40.5 100.5t-98.5 37.5q-71 0 -111.5 -37t-40.5 -88q0 -60 42 -105h-2q-26 14 -45 48t-19 68q0 64 46 110.5t138 46.5zM407 383l-1 14q63 76 63 129q0 55 -32.5 84.5t-91.5 29.5q-77 0 -138 -64l10 -5l6 -23q-76 -83 -76 -224q0 -60 16 -116q0 79 59.5 128t154.5 49
q10 0 30 -2zM141 523h1l-2 -2zM247 197q0 -60 40 -97l-18 -28h-11q22 -12 47 -12q46 0 46 33q0 12 -4 18t-10 4l-22 17v7l17 15q42 12 76.5 -2t43.5 -44q26 36 26 76q0 52 -30.5 85t-78.5 33q-55 0 -88.5 -29t-33.5 -76z" />
    <glyph glyph-name="seven" unicode="7" horiz-adv-x="592" 
d="M666 763l1 -21q-19 -15 -42.5 -56t-40 -78l-52.5 -120l-31 -71q-50 -113 -93 -189t-98 -139.5t-121 -97t-149 -41.5l-26 11l-4 10l15 20q79 23 133 63.5t99 112.5l-11 6l-7 16l2 10q9 13 9 53q0 31 -22 31q-30 0 -38 -37t14 -74l-2 -16l-10 -9l-38 1q-46 52 -47.5 113.5
t40.5 111.5l-28 3q-35 41 -59 87.5t-35.5 81t-17.5 81.5t-6.5 68.5t-0.5 63.5l24 16h11l23 -10q22 -60 81.5 -86.5t130.5 -21.5t144 24.5t128 45.5t77 47l33 1zM487 421q11 24 28 64.5l26.5 62l23.5 52t23.5 49l21 39t22 34t20.5 23.5l-1 15l-5 4l-19 -1q-24 -21 -81 -47.5
t-132.5 -45.5t-148.5 -24t-134.5 22.5t-85.5 89.5l-14 6h-1l-15 -10q0 -50 2 -81t11.5 -84t34.5 -104t65 -100l21 -2l4 3l4 13q-40 61 -52.5 104t2 65t55.5 22q189 0 323 41q-36 -75 -87 -202l-2 -6l-4 6l-2 1l-20 -4q-27 -47 -69.5 -68.5t-73.5 -21.5q-26 0 -29.5 13
t16.5 34l-4 16l-2 1l-16 -1q-61 -47 -69.5 -115.5t40.5 -125.5l22 -1l2 2l2 12q-24 44 -11.5 83t50.5 39q17 0 27 -11t10 -30q0 -41 -12 -59l6 -14l2 -1l19 3l15 23q-53 -95 -112 -144.5t-147 -76.5l-10 -13l1 -3l16 -7q63 7 116.5 31t96.5 60.5t84 94t74.5 122t72.5 153.5z
M31 754q25 -65 89 -94t140.5 -24.5t155 24.5t138 47t83.5 49l5 -4q-11 -10 -22 -24.5t-23.5 -35.5t-22 -39t-24 -50l-23.5 -52.5l-26.5 -62l-27.5 -63.5q-49 -113 -90.5 -187.5t-93 -135t-112 -92.5t-136.5 -40l-1 3q129 40 205.5 133t166.5 319q57 144 98 224
q-142 -49 -348 -49q-47 0 -66 -23t-7 -69.5t55 -113.5l-4 -3q-32 38 -54 81t-32.5 76.5t-16.5 77t-6.5 66.5t-0.5 62h1zM393 441l-1 11q36 88 69 161q-129 -33 -299 -33q-74 0 -36 -94q14 -37 47 -87l12 10l27 1l12 -6l6 -23q-37 -35 -3 -35q29 0 67.5 20.5t64.5 67.5l28 6z
M383 421l2 -1q-32 -140 -117 -233l-2 1q14 22 14 64q0 19 -12 35t-40 16q-41 0 -61 -37.5t9 -99.5l-2 -2q-27 32 -35 72t7.5 82.5t54.5 72.5l2 -1q-24 -25 -20.5 -39t15.5 -19.5t29 -5.5q34 0 81.5 23.5t74.5 71.5z" />
    <glyph glyph-name="eight" unicode="8" horiz-adv-x="619" 
d="M499 317q42 -20 66 -55t24 -79q0 -94 -81.5 -153.5t-210.5 -59.5q-113 0 -190 58.5t-77 144.5q0 30 10.5 56t31.5 48t34.5 33t37.5 29q40 29 41 46q-113 72 -113 168q0 83 73 137.5t183 54.5q92 0 156.5 -53.5t64.5 -130.5q0 -35 -17 -68.5t-32 -49t-41 -37.5
q-38 -32 -34 -48q31 9 62 9q42 0 72 -12l7 -4l10 -18l-5 -9l-28 -10q-21 6 -44 3zM297 -20q123 0 200 56t77 147q0 49 -30 85t-79 50q38 16 77 7l17 6l1 2l-7 13q-27 11 -66 11q-41 0 -84 -19l10 10q-7 15 0.5 28.5t35.5 37.5q26 22 40 36.5t29.5 45.5t15.5 65
q0 73 -60 123.5t-146 50.5q-104 0 -172.5 -51.5t-68.5 -130.5q0 -95 110 -163q1 -16 -9 -28.5t-35 -30.5q-24 -17 -37 -28t-32.5 -32t-29 -45.5t-9.5 -52.5q0 -82 72.5 -137.5t179.5 -55.5zM385 343v-3q-62 4 -125 29t-110.5 74t-47.5 110q0 74 63 123t163 49
q80 0 135.5 -47.5t55.5 -116.5q0 -36 -15.5 -66t-36 -48l-39.5 -34.5t-28.5 -33t-0.5 -35.5h-1q-21 20 -12.5 46.5t38.5 48.5q-44 -24 -86 -16t-68 43l1 1q39 -26 82 -26q47 0 82.5 34.5t35.5 83.5q0 54 -40.5 88t-102.5 34q-49 0 -75.5 -23t-26.5 -57q0 -43 46 -63t101 7
l1 -2q-31 -25 -72 -25.5t-69 19t-39 52.5t18 76q-26 -17 -40.5 -47.5t-14.5 -64.5q0 -76 62 -133.5t166 -76.5zM258 460q21 -27 54 -39.5t69 -7.5q-20 -31 -9 -57q-91 19 -145.5 73t-54.5 124q0 24 8 46q4 -39 40 -65t79.5 -26t83.5 27l4 12l-1 2l-20 5q-45 -23 -85 -7.5
t-40 54.5q0 32 23.5 51t63.5 19q56 0 92 -31.5t36 -80.5q0 -44 -30.5 -76t-72.5 -32q-37 0 -74 24l-19 -1l-1 -1zM354 371q-1 14 5 30q-78 2 -116 57l1 18l8 8l32 1q37 -24 69 -24q36 0 62 29t26 69q0 45 -31.5 73.5t-81.5 28.5q-34 0 -53 -15.5t-19 -44.5q0 -35 34 -46.5
t73 10.5l35 -8l4 -10l-5 -16q-48 -38 -111.5 -31.5t-98.5 48.5q2 -61 47 -108.5t120 -68.5zM435 315q57 -7 90.5 -44t33.5 -88q0 -88 -73 -140.5t-189 -52.5q-108 0 -172.5 55t-64.5 128q0 36 17.5 66.5t41.5 50t47 35.5t35.5 31t6.5 29l1 1q15 -24 23 -45t7 -68.5
t-24 -104.5l-2 1q31 122 -30 122q-30 0 -53.5 -28.5t-23.5 -72.5q0 -51 35 -89t92 -38q51 0 86.5 28t32.5 69q16 -19 16 -41q0 -36 -29 -62.5t-72 -33.5q114 -2 174.5 43.5t60.5 109.5q0 46 -26 72.5t-65 26.5q-37 0 -63 -19.5t-36 -46.5h-1q3 59 61.5 98.5t114.5 39.5
q35 0 60 -10l-1 -2q-59 15 -111 -20zM384 330q-38 -23 -62 -54t-26 -66l15 -11h1l14 7q10 27 33 43t52 16q34 0 55 -24.5t21 -64.5q0 -54 -41 -90.5t-113 -48.5q50 34 50 82q0 26 -20 47l-26 -7q2 -36 -28 -61t-76 -25q-48 0 -80 33.5t-32 83.5q0 37 18.5 64t43.5 27
q19 0 23.5 -28t-8.5 -82l8 -11l2 -1l21 5q49 120 5 206q77 -35 150 -40zM281 207q2 64 72 116q-50 8 -94 25q29 -81 -18 -192l-35 -8l-12 6l-11 16q7 27 9 50.5t-0.5 37t-8.5 13.5q-18 0 -32.5 -25t-14.5 -56q0 -46 28 -76.5t69 -30.5q42 0 68 24t20 58l48 13q29 -29 29 -59
q0 -34 -24 -61q47 16 72.5 46.5t25.5 71.5q0 36 -17 57.5t-44 21.5q-53 0 -72 -55l-22 -11h-12z" />
    <glyph glyph-name="nine" unicode="9" horiz-adv-x="598" 
d="M550 483q28 -91 28 -162q0 -156 -85 -253.5t-221 -97.5q-61 0 -129 22t-84 47l-3 11q15 61 86 188l38 5l14 -11l7 -16q-34 -64 -10.5 -124t82.5 -60q84 0 135.5 79.5t52.5 213.5q-28 -38 -75.5 -59.5t-104.5 -21.5q-138 0 -215 108.5t-86 316.5l24 16h13l24 -14
q5 -34 12 -67q29 63 91 93q-65 42 -57 96l51 9q13 -22 24 -31.5t36.5 -19.5t85.5 -28q123 -38 170 -85v3l12 14l12 6l37 -14q7 -59 35 -164zM272 -20q128 0 209.5 95t81.5 246q0 66 -27 159q-27 94 -35 161l-22 8l-2 -1l-8 -9l-1 -41q-24 41 -67.5 66.5t-120.5 48.5
q-83 25 -109 38t-42 39l-28 -5q-1 -25 17.5 -49t50.5 -40q-46 -16 -76.5 -53.5t-39.5 -88.5q-16 43 -26 112l-15 9h-2l-15 -10q10 -201 83 -306t203 -105q74 0 126 36.5t66 94.5q3 -25 3 -52q0 -143 -55 -227t-148 -84q-66 0 -94 62t6 132l-5 12l-5 4l-22 -3
q-66 -118 -82 -179l3 -9q19 -23 80.5 -42t117.5 -19zM455 460l2 1q18 -79 -31.5 -138t-144.5 -59q-38 0 -72.5 10t-69.5 38t-61 71.5t-44.5 115.5t-23.5 166h2q9 -58 20 -93t34 -83q-7 80 31 136.5t105 68.5q-38 12 -62.5 37.5t-23.5 53.5q18 -29 48 -43t112 -39
q97 -29 141.5 -64.5t58.5 -105.5h-1q-37 59 -97 93t-118 34q-72 0 -109 -47.5t-37 -127.5q0 -73 47 -126t120 -53q87 0 134.5 53.5t39.5 100.5zM413 567l-2 -1l-5 -15q30 -42 45 -81h-1l-2 -1l-8 -11q8 -44 -35.5 -93t-123.5 -49q-65 0 -108.5 48.5t-43.5 120.5
q0 79 34.5 122t96.5 43q50 0 101 -27.5t86 -73.5l-17 16zM486 640q9 -73 35.5 -162.5t26.5 -156.5q0 -148 -78 -239.5t-198 -91.5q-53 0 -110.5 17.5t-75.5 39.5q17 64 80 177l5 -4q-37 -76 -5 -142t107 -66q97 0 157.5 84.5t60.5 236.5q0 128 -73 224l2 1q39 -35 56 -60
t37 -70q-9 21 -15 42.5t-9 35.5t-4.5 37.5t-1.5 31t0.5 34.5t0.5 30zM434 473q-13 34 -44 77l8 22l7 4q-67 64 -145 64q-56 0 -86 -40.5t-30 -114.5q0 -68 39.5 -113.5t97.5 -45.5q75 0 114.5 46t29.5 87z" />
    <glyph glyph-name="colon" unicode=":" horiz-adv-x="282" 
d="M141 304q-91 23 -91 92q0 29 23.5 49.5t56.5 20.5q43 0 65.5 -29t12.5 -71l-44 -9q-8 10 -8 4q1 -10 14 -31zM136 316l17 15q-14 26 -3 40q8 10 20 -2l25 5q7 35 -12 58.5t-53 23.5q-27 0 -46 -17.5t-19 -42.5q0 -58 71 -80zM140 326q-13 23 -7.5 40t20 18.5t27.5 -8.5
q6 33 -10 51.5t-40 18.5q-21 0 -35.5 -14.5t-14.5 -35.5q0 -53 60 -70zM141 14q-91 23 -91 92q0 29 23.5 49.5t56.5 20.5q43 0 65.5 -29t12.5 -71l-44 -9q-8 10 -8 4q1 -10 14 -31zM136 26l17 15q-14 26 -3 40q8 10 20 -2l25 5q7 35 -12 58.5t-53 23.5q-27 0 -46 -17.5
t-19 -42.5q0 -58 71 -80zM140 36q-13 23 -7.5 40t20 18.5t27.5 -8.5q6 33 -10 51.5t-40 18.5q-21 0 -35.5 -14.5t-14.5 -35.5q0 -53 60 -70z" />
    <glyph glyph-name="semicolon" unicode=";" horiz-adv-x="360" 
d="M101 174q-91 23 -91 92q0 29 23.5 49.5t56.5 20.5q43 0 65.5 -29t12.5 -71l-44 -9q-8 10 -8 4q1 -10 14 -31zM96 186l17 15q-14 26 -3 40q8 10 20 -2l25 5q7 35 -12 58.5t-53 23.5q-27 0 -46 -17.5t-19 -42.5q0 -58 71 -80zM100 196q-13 23 -7.5 40t20 18.5t27.5 -8.5
q6 33 -10 51.5t-40 18.5q-21 0 -35.5 -14.5t-14.5 -35.5q0 -53 60 -70zM-8 -102l12 14l10 5l32 -5q19 -29 32 -29q23 0 23 46q0 67 -67 189l2 16l7 6l23 5q45 -7 92.5 -28t73.5 -43l5 -15l-3 -10l-35 -10q-24 13 -37 14q0 -3 7 -17q45 -90 45 -131q0 -48 -34.5 -78.5
t-88.5 -30.5q-44 0 -71.5 28t-27.5 74zM66 135l-14 -3l-1 -1l-2 -12q67 -121 67 -190q0 -56 -38 -56q-21 0 -42 30l-19 3l-2 -1l-8 -9q1 -41 23.5 -65.5t60.5 -24.5q48 0 78 27.5t30 71.5q0 38 -43 127q-14 28 -9 31q1 1 5 1q20 0 49 -14l20 6l1 3l-4 11q-61 49 -152 65z
M63 125l-1 -1q69 -125 69 -195q0 -35 -15.5 -50.5t-37.5 -15.5q-31 0 -54 34l-2 -1q1 -36 19 -58t50 -22q38 0 65.5 22.5t27.5 66.5q0 16 -6.5 39t-13.5 38.5t-17.5 36.5t-10.5 22q-8 15 -5 24t21 9q23 0 55 -15l1 3q-56 47 -145 63z" />
    <glyph glyph-name="equal" unicode="=" horiz-adv-x="628" 
d="M151 350q-90 25 -90 70t59 70t157 23q72 -1 92.5 10.5t10.5 47.5l55 18q41 -23 51.5 -50t-11.5 -54q52 -21 52 -58q0 -29 -35 -47t-87 -15l-16 24q9 16 9 22q0 20 -87 20q-79 0 -114.5 -18.5t-20.5 -50.5zM277 503q-91 2 -144 -20t-53 -63q0 -39 78 -61q-18 38 23.5 60
t129.5 22q106 0 106 -26q0 -16 -10 -22l12 -18q39 0 63.5 14.5t24.5 37.5q0 37 -55 55q23 21 18 47.5t-38 46.5l-31 -10q8 -36 -19.5 -50t-104.5 -13zM133 379q-33 14 -33 41q0 35 44.5 55t132.5 18q86 -1 119 16.5t24 58.5q28 -17 31 -43.5t-26 -46.5q63 -13 63 -51
q0 -19 -19 -30.5t-50 -11.5q18 12 18 30q0 36 -126 36q-78 0 -128 -18t-50 -54zM436 327q90 -25 90 -70t-59 -70t-157 -23q-72 1 -92.5 -10.5t-10.5 -47.5l-55 -18q-41 23 -51.5 50t11.5 54q-52 21 -52 58q0 29 35 47t87 15l16 -24q-9 -16 -9 -22q0 -20 87 -20
q79 0 114.5 18.5t20.5 50.5zM310 174q91 -2 144 20t53 63q0 39 -78 61q18 -38 -23.5 -60t-129.5 -22q-106 0 -106 26q0 16 10 22l-12 18q-39 0 -63.5 -14.5t-24.5 -37.5q0 -37 55 -55q-23 -21 -18 -47.5t38 -46.5l31 10q-8 36 19.5 50t104.5 13zM454 298q33 -14 33 -41
q0 -35 -44.5 -55t-132.5 -18q-86 1 -119 -16.5t-24 -58.5q-28 17 -31 43.5t26 46.5q-63 13 -63 51q0 19 19 30.5t50 11.5q-18 -12 -18 -30q0 -36 126 -36q78 0 128 18t50 54z" />
    <glyph glyph-name="question" unicode="?" horiz-adv-x="393" 
d="M20 605q0 129 153 191l36 -16v-9l-12 -14q-19 -10 -33 -22q16 2 25 2q82 0 133 -55t51 -144q0 -54 -19 -113t-35 -89.5t-43 -76.5q-11 -17 0 -15q13 1 47 26l34 -1l8 -8v-19q-30 -39 -101.5 -66.5t-130.5 -38.5l-30 17v7l5 9q156 172 156 333q0 57 -23 94.5t-57 37.5
q-25 0 -39.5 -20.5t-14.5 -55.5q0 -40 20.5 -80t44.5 -52v-9l-30 -17q-58 9 -101.5 70.5t-43.5 133.5zM35 605q0 -66 38 -124.5t89 -68.5l18 10v2l-9 9q-15 8 -35.5 43t-20.5 83q0 40 18.5 63t50.5 23q41 0 68 -40t27 -102q0 -162 -157 -337l-4 -7v-1l18 -10q57 11 120.5 36
t93.5 60v14l-1 1l-20 1q-48 -34 -67 -23q-12 6 1 27q27 45 43 75t34 88t18 111q0 85 -46.5 137t-122.5 52q-35 0 -60 -15q18 32 57 52l8 9v2l-21 9q-138 -58 -138 -179zM179 775v-2q-35 -18 -57 -47t-23 -61q8 17 31 34.5t59 17.5q65 0 109.5 -47t44.5 -132
q0 -52 -17.5 -108.5t-33 -86t-42.5 -74.5q-17 -28 3 -41q27 -17 85 24l1 -1q-30 -35 -91 -59t-115 -34v1q161 179 161 344q0 72 -32.5 112t-77.5 40q-38 0 -61 -26t-23 -70q0 -51 23 -88.5t42 -46.5v-2q-42 9 -78.5 63t-36.5 120q0 116 129 170zM226 -36q-91 23 -91 92
q0 29 23.5 49.5t56.5 20.5q43 0 65.5 -29t12.5 -71l-44 -9q-8 10 -8 4q1 -10 14 -31zM221 -24l17 15q-14 26 -3 40q8 10 20 -2l25 5q7 35 -12 58.5t-53 23.5q-27 0 -46 -17.5t-19 -42.5q0 -58 71 -80zM225 -14q-13 23 -7.5 40t20 18.5t27.5 -8.5q6 33 -10 51.5t-40 18.5
q-21 0 -35.5 -14.5t-14.5 -35.5q0 -53 60 -70z" />
    <glyph glyph-name="at" unicode="@" horiz-adv-x="1271" 
d="M90 276q0 110 41.5 207.5t112.5 167t170.5 110t212.5 40.5q108 0 200 -34q-24 17 -42 25l-9 19l5 9l31 9q58 -20 115.5 -63.5t106 -104t78.5 -143.5t30 -171q0 -77 -30 -184q-9 -34 -9 -55q17 9 43.5 64t33.5 103l24 13h13l24 -16q-2 -65 -23 -119t-50.5 -87t-66 -55.5
t-68.5 -31.5t-60 -9q-77 0 -116 66q-46 -66 -114 -69l-23 10l-5 8l13 21q18 1 32 34.5t15 76.5q-38 -42 -92.5 -67t-108.5 -25q-65 0 -116 26t-80 68t-44 94.5t-13.5 104.5t17 99.5t43.5 78.5l31 4l11 -6l9 -20q-31 -52 -26 -55.5t-29 -46.5q21 28 37 46.5t45 44.5t65.5 40
t78.5 14q75 0 120 -48q-1 33 26 73l53 -14q-11 -27 2 -63.5t30 -36.5q21 0 58 35l4 2l11 10l35 -1l8 -8v-20q-60 -54 -60 -165q0 -82 19 -148.5t40 -66.5q35 0 60.5 71t25.5 174q0 85 -24.5 154t-64.5 114t-93.5 76t-108.5 44t-112 13q-178 0 -299 -124.5t-121 -308.5
q0 -181 111.5 -299t281.5 -118q87 0 142 20t139 76l36 -28q-50 -60 -134.5 -102.5t-198.5 -42.5q-105 0 -191.5 31.5t-142 81.5t-94 116t-55 131.5t-16.5 130.5zM875 281q0 109 60 168v14l-1 1l-20 1q-2 -2 -12 -10q-42 -37 -68 -37q-24 0 -40.5 34t-8.5 70l-28 7
q-20 -33 -19 -59t23 -74q26 -59 26 -96q0 -76 -65.5 -135.5t-150.5 -59.5q-73 0 -110 47t-37 107q0 77 43.5 129.5t107.5 52.5q67 0 83 -68.5t-30 -162.5l2 -11l2 -2h22q45 46 67.5 87t22.5 92q0 57 -40 94t-101 37q-38 0 -72 -13t-62 -38t-44 -43.5t-36 -46.5
q-10 -14 -10 1q2 35 28 91l9 16l-6 14l-2 1l-18 -2q-40 -46 -51 -122.5t7 -149.5t78 -126.5t150 -53.5q62 0 120 33t93 87q8 -52 -6 -99t-42 -58l-8 -13l1 -2l14 -6q34 3 64.5 27.5t47.5 60.5q33 -85 115 -85q34 0 73 14.5t79.5 45.5t68.5 90.5t32 137.5l-15 10h-2l-15 -8
q-8 -46 -27.5 -90t-41 -66.5t-35.5 -14.5q-9 4 8 67q29 104 29 181q0 86 -28.5 167t-75 140.5t-101.5 101.5t-111 62l-18 -5l-1 -2l6 -13q56 -30 99 -74q-125 67 -270 67q-223 0 -372.5 -148t-149.5 -367q0 -65 16 -129.5t53 -128.5t91.5 -113t138 -79.5t185.5 -30.5
q199 0 315 134l-19 15q-79 -52 -135.5 -72t-144.5 -20q-176 0 -292 121.5t-116 305.5q0 188 125.5 315.5t309.5 127.5q58 0 115 -14t112.5 -45.5t97.5 -77.5t67.5 -117t25.5 -157q0 -112 -28.5 -183.5t-72.5 -71.5q-31 0 -52.5 65.5t-21.5 159.5zM860 281q0 -30 3.5 -64
t12 -75.5t27.5 -68.5t46 -27q55 0 85.5 76t30.5 189q0 87 -26.5 159.5t-70.5 120t-101 80t-116 47t-119 14.5q-131 0 -235 -63.5t-159.5 -166.5t-55.5 -223q0 -189 121 -313t302 -124q91 0 150.5 21t137.5 73q-114 -131 -304 -131q-99 0 -180 29.5t-133.5 77t-88.5 110
t-51.5 126.5t-15.5 128q0 137 63 252t180 184t264 69q85 0 160.5 -22.5t162.5 -79.5q-51 77 -145 128l1 2q54 -19 107.5 -60.5t98.5 -99.5t72.5 -137.5t27.5 -164.5q0 -41 -6.5 -82.5t-14 -68.5l-13.5 -50t-5.5 -36.5t10.5 -19.5q19 -11 44.5 8.5t48.5 65.5t33 104h2
q-4 -76 -30 -133.5t-64.5 -87t-74.5 -43.5t-69 -14q-52 0 -80.5 40.5t-35.5 100.5q1 -50 -33.5 -95t-78.5 -49l-1 2q44 16 57 84t-9 122q-27 -64 -88 -107t-130 -43q-85 0 -142 51.5t-74 122t-6 144t49 117.5l2 -1q-31 -54 -30 -109q0 -27 12 -24q7 1 16 14q20 28 36 46.5
t42 42t57.5 36t66.5 12.5q58 0 92 -35t34 -86q0 -50 -21.5 -89t-64.5 -83l-2 2q48 94 31 169.5t-97 75.5q-74 0 -120 -57t-46 -135q0 -38 15 -73.5t53.5 -63t93.5 -27.5q95 0 163 64t68 141q0 31 -12 64.5t-23 53.5t-13.5 50.5t16.5 55.5q-9 -41 11 -78.5t53 -37.5
q14 0 29.5 6.5t25 14l21 17t13.5 11.5l1 -1q-64 -64 -64 -175zM439 259q0 -64 36.5 -104t95.5 -40q79 0 140 56t61 129q0 30 -13 64q-3 -49 -27 -89.5t-70 -87.5h-38l-9 9l-2 15q43 88 31.5 154t-69.5 66t-97 -49.5t-39 -122.5z" />
    <glyph glyph-name="A" unicode="A" horiz-adv-x="633" 
d="M630 182q48 -81 27.5 -144.5t-94.5 -63.5q-58 0 -93 41q-37 -37 -101 -42l-17 34q12 5 22 12t16.5 12.5t11 18t6.5 17t3.5 21t1.5 19.5v23v21q-38 -83 -101 -132t-135 -49q-74 0 -124 49.5t-50 123.5q0 133 198 244q-69 30 -78.5 84.5t42.5 108.5t145 81l69 17
q60 16 71 25q49 49 120 66l28 -10l5 -9l-8 -17q-79 -48 -79 -239q0 -123 8 -221.5t20.5 -150.5t27.5 -52q11 0 12.5 30.5t-8.5 63.5l4 13l8 9zM563 -16q63 0 80.5 58.5t-24.5 130.5l-24 2l-1 -1l-3 -10q13 -44 7 -75.5t-26 -31.5q-33 0 -52 111t-19 326q0 99 19.5 157
t61.5 87l5 12l-1 2l-17 6q-59 -15 -109 -62q-14 -11 -78 -28q-29 -6 -68 -17q-55 -16 -96.5 -43.5t-60 -58.5t-20 -62t22 -57.5t67.5 -40.5q-209 -111 -209 -246q0 -70 45.5 -116.5t113.5 -46.5q84 0 152.5 70.5t96.5 183.5q2 -56 2 -78q0 -3 0.5 -23t0 -26l-2 -23t-5.5 -25
l-10 -20t-16.5 -20.5t-24.5 -15.5l9 -19q60 7 93 53q30 -53 91 -53zM606 168q37 -62 24.5 -118t-67.5 -56q-63 0 -90 74q-28 -65 -96 -74q16 8 27.5 17.5t18.5 22.5l11.5 21.5t6.5 26.5t2.5 24t0 26.5t-0.5 23.5q0 32 -4 136t-4 197q0 105 6 132q-107 0 -192 -52
q-78 -48 -68 -103q7 -36 55 -66l-1 -2q-36 11 -58 33.5t-23.5 51.5t13 58t54 56.5t97.5 43.5q24 7 54 14.5l45.5 11.5t30.5 9.5t22 12.5q48 45 103 59l1 -2q-42 -28 -65 -83t-23 -169q0 -225 20 -336t66 -111q27 0 38 30.5t-5 89.5zM395 554q0 -53 -23 -78.5t-111 -68.5
l-14 -7l-3 8q-79 50 -37 111q37 53 136 79q40 11 81 13q-4 -23 -4 -51l-7 4h-3zM407 600q-114 -10 -170 -66q-48 -47 -15 -90q12 -15 34 -27q83 40 103.5 63.5t20.5 77.5l25 16zM425 352l4 -1q-16 -173 -89 -267t-163 -94q-65 0 -104.5 45t-39.5 108q0 141 235 255
q90 44 116 71.5t26 84.5h3q10 -90 3 -162t-41 -131h-2q9 38 9.5 66t-9.5 49.5t-36.5 20.5t-71.5 -21q-88 -44 -131 -103.5t-43 -116.5q0 -48 26.5 -82t71.5 -34q73 0 144 81t92 231zM272 367q65 33 85.5 8.5t-0.5 -112.5l15 -12h2l14 7q-6 -69 -71.5 -138.5t-127.5 -69.5
q-36 0 -59.5 30t-23.5 76q0 60 44 116t122 95zM365 241l-24 19q21 86 7.5 106.5t-69.5 -8.5q-74 -37 -116 -90.5t-42 -111.5q0 -42 19.5 -69t48.5 -27q51 0 102 51.5t81 129.5h-7z" />
    <glyph glyph-name="B" unicode="B" horiz-adv-x="729" 
d="M535 391q87 -16 140.5 -74.5t53.5 -137.5q0 -89 -66 -149t-164 -60q-131 0 -211 123q-16 -39 -50.5 -61.5t-80.5 -22.5q-66 0 -108 47.5t-31 110.5l28 3q43 -76 102 -76q22 0 35 18t13 48l-9 46q-2 0 -6 -9t-6.5 -21.5t-0.5 -18.5l-54 -8q-24 43 -9 83.5t60 56.5
q5 48 5 138q0 13 -2 33q-25 -25 -66 -25q-42 0 -70 24t-28 60q0 41 33 69.5t82 28.5q15 0 37 -5q-23 31 -63 43l15 35q43 -3 77 -17q-18 41 -46 68t-47 36l-8 13l9 19l17 6q21 -5 42.5 -13.5t54.5 -26t60 -49t40 -71.5q23 46 66.5 72t97.5 26q75 0 122 -45t47 -116
q0 -109 -111 -201zM499 -20q92 0 153.5 56.5t61.5 142.5q0 82 -58 139.5t-148 66.5q123 91 123 207q0 67 -43 109t-111 42q-66 0 -110.5 -39.5t-57.5 -107.5q-3 44 -20.5 81t-40 58t-51.5 37.5t-48 22.5t-36 10l-9 -19q27 -13 62 -50.5t51 -92.5q-34 30 -92 36l-8 -19
q55 -23 74 -73q-32 20 -66 20q-43 0 -71.5 -25t-28.5 -63q0 -32 23.5 -53t59.5 -21q29 0 49.5 16t20.5 38l-27 6q-13 -16 -31 -16q-11 0 -18 8.5t-7 21.5q0 30 33 30q29 0 46 -32.5t17 -89.5q0 -97 -6 -144q-40 -11 -57 -47t2 -75l28 4q0 20 9 35.5t20 15.5q10 0 17 -16
t7 -40q0 -34 -17 -55t-46 -21q-33 0 -63.5 21.5t-51.5 59.5q-10 -58 28 -102t96 -44q51 0 84.5 30t41.5 80q80 -149 216 -149zM201 294q5 53 5 133q0 68 -22 100t-56 32q-23 0 -35.5 -11.5t-12.5 -28.5t11.5 -28.5t28.5 -11.5q26 0 43 20q0 -17 -15.5 -30.5t-39.5 -13.5
q-31 0 -49.5 18.5t-18.5 45.5q0 34 24.5 56t60.5 22q29 0 54 -16.5t35 -38.5q0 88 -91 127q96 -10 117 -88q0 44 -15.5 84t-38 66t-42 41.5t-34.5 22.5q18 -4 37.5 -10.5t49 -24.5t51 -42t35.5 -66t11 -93q-37 -30 -39.5 -100t14.5 -160q-36 7 -68 -5zM476 377q91 0 157 -54
t66 -144q0 -86 -59.5 -137.5t-140.5 -51.5q-85 0 -140 56.5t-96 159.5q23 -82 -14 -129.5t-92 -47.5q-44 0 -73 28t-36 65q43 -48 100 -48q40 0 59 26t19 60q0 29 -10.5 47.5t-28.5 18.5t-31 -18.5t-13 -42.5q-21 43 3.5 77t63.5 34q28 0 43 -16t34 -55t37 -64
q74 -101 167 -101q62 0 104 38t42 105q0 78 -51 123.5t-116 45.5q-30 0 -50 -9q-8 -3 -16 -8q-31 -21 -31 -58q0 -24 18 -47.5t51 -37.5v-2q-52 12 -89 42t-53 68t-22.5 81.5t2.5 83.5h4q12 -112 78 -112t129 72.5t63 158.5q0 47 -22.5 73.5t-62.5 26.5q-52 0 -93 -38.5
t-55 -114.5h-1q-2 55 12 96.5t39 63t51.5 32t54.5 10.5q59 0 99 -37.5t40 -103.5q0 -123 -140 -215zM283 475l-14 -8q3 60 34 84l2 2v-22l15 -10h1l15 8q13 68 48 106.5t85 38.5q33 0 51.5 -23.5t18.5 -66.5q0 -78 -57.5 -149.5t-119.5 -71.5q-51 0 -63 103l-15 9h-1z
M296 523q-7 -15 -10 -37l28 -16q9 -97 48 -97q55 0 108.5 69.5t53.5 141.5q0 80 -55 80q-44 0 -75.5 -37t-43.5 -103l-24 -13h-12zM160 513q-12 26 -32 26q-18 0 -18 -20t10 -20q11 0 24 18zM210 286q23 9 56 3l18 11l-3 23q37 -116 158 -143l18 10v2l-9 9q-27 12 -43.5 33
t-16.5 43q0 30 22 47.5t60 17.5q64 0 108 -45.5t44 -113.5q0 -59 -36.5 -96t-94.5 -37q-84 0 -155 97q-18 24 -39 67q-12 25 -20 37.5t-25.5 23.5t-41.5 11zM270 278h-2q19 -14 42 -60q21 -41 38 -65q36 -49 69.5 -71t73.5 -22q52 0 84 34t32 89q0 64 -39 106.5t-98 42.5
q-67 0 -67 -55q0 -21 15.5 -40t39.5 -29l14 -13v-9l-30 -17q-115 23 -161 116z" />
    <glyph glyph-name="C" unicode="C" horiz-adv-x="684" 
d="M31 360l4 8q73 99 84 211t-46 174l35 28q82 -41 111 -144q35 48 149 86q88 27 106 39t46 65h26q37 -64 -27 -117q73 -19 108 -76q15 32 32 90l23 11h13l24 -18q-7 -66 -26 -122.5t-40 -92.5t-54 -71t-53.5 -51.5t-52.5 -39.5l-34 1l-8 8v19q77 83 77 158q0 53 -31 83.5
t-84 30.5q-78 0 -137 -53l11 -8q-4 -23 -17 -44.5t-23.5 -32t-31.5 -28.5q-24 -22 -36 -35.5t-22.5 -45t-10.5 -76.5q0 -15 1 -23q11 52 36 108l55 -9q-20 -160 21 -248.5t135 -88.5q74 0 135.5 50.5t86.5 133.5l23 11h13l24 -16q-4 -110 -90.5 -187.5t-206.5 -77.5
q-163 0 -259.5 108.5t-88.5 281.5zM46 359q-8 -169 84.5 -274t248.5 -105q113 0 195 73t87 178l-15 10h-2l-14 -7q-27 -85 -92 -136.5t-144 -51.5q-101 0 -146 88.5t-26 250.5l-29 5q-48 -107 -33 -201q-29 63 -29 128q0 46 12 79.5t24.5 47.5t37.5 37q19 17 28.5 26.5
t21.5 28.5t16 40l-13 11q63 63 155 63q59 0 94.5 -33.5t35.5 -90.5q0 -76 -77 -160v-14l1 -1l20 -1q31 22 51 38.5t51 50t51 68.5t38.5 89.5t25.5 117.5l-15 11h-2l-14 -7q-23 -75 -47 -115q-32 88 -134 102q36 22 47.5 53t-6.5 64q-25 -46 -36 -57q-22 -20 -115 -49
q-4 -2 -9 -3q-76 -25 -110 -50t-50 -68q-20 126 -103 172l-19 -15q54 -67 42.5 -177t-84.5 -210zM378 703q78 25 106 39t45 43q1 -28 -21 -51.5t-58 -35.5q71 1 115 -33t55 -96q41 57 67 146h2q-7 -62 -25 -115.5t-37.5 -88t-49.5 -67t-49.5 -48.5t-49.5 -38l-1 1
q81 88 81 167q0 62 -40.5 98t-104.5 36q-55 0 -107.5 -26t-84.5 -71h-1q12 59 44.5 86.5t113.5 53.5zM103 758q40 -22 69.5 -79t31.5 -145q36 11 51 44h1q-5 -28 -22 -50t-36 -38t-38 -35.5t-31.5 -54.5t-12.5 -83q0 -55 24.5 -119t77.5 -113q-41 58 -46 132t35 169
q-12 -100 0.5 -172.5t43 -109t66 -52.5t77.5 -16q83 0 152.5 53.5t97.5 141.5h2q-5 -104 -84.5 -172.5t-182.5 -68.5q-147 0 -236 101t-82 268q53 73 74.5 151t12 141t-44.5 107zM218 555v-2l1 1z" />
    <glyph glyph-name="D" unicode="D" horiz-adv-x="784" 
d="M10 519q0 41 33 69.5t82 28.5q15 0 37 -5q-23 31 -63 43l15 35q43 -3 77 -17q-18 41 -46 68t-47 36l-8 13l9 19l17 6q71 -15 125 -59l9 16l48 -20q215 -81 340.5 -220.5t125.5 -296.5q0 -120 -67.5 -192.5t-179.5 -72.5q-122 0 -213 120q-14 -46 -50.5 -73.5t-86.5 -27.5
q-66 0 -108 47.5t-31 110.5l28 3q43 -76 102 -76q22 0 35 18t13 48q0 42 -11 42q-7 0 -10.5 -17t-0.5 -28l-54 -8q-25 45 -12 84.5t55 55.5l-2 1q5 87 5 157q0 13 -2 33q-25 -25 -66 -25q-42 0 -70 24t-28 60zM25 519q0 -32 23.5 -53t59.5 -21q29 0 49.5 16t20.5 38l-27 6
q-13 -16 -31 -16q-11 0 -18 8.5t-7 21.5q0 14 9 22t24 8q29 0 46 -32.5t17 -89.5q0 -79 -5 -152l19 -9q-47 -5 -67 -42.5t2 -82.5l28 4q0 20 9 35.5t20 15.5q24 0 24 -56q0 -34 -17 -55t-46 -21q-33 0 -63.5 21.5t-51.5 59.5q-10 -58 28 -102t96 -44q54 0 89 35.5t39 91.5
q46 -70 98 -108t124 -38q105 0 168.5 69.5t63.5 185.5q0 155 -123 292t-334 216l-34 14l-10 -19l13 -11q86 -71 39 -304l-3 -19l30 -7l7 18q21 56 37 114q16 53 23.5 66t21.5 13q30 0 71.5 -29t80.5 -77t66 -120t27 -147q0 -79 -43 -129t-109 -50q-93 0 -159 95q-4 5 -18 29
q-14 22 -21.5 32t-22.5 25.5t-33 22t-40 6.5h-7q34 11 78 -1q-20 157 -16 204q4 57 34 82l5 7q3 53 -12 96.5t-38 69t-54.5 44.5t-52 26t-39.5 11l-9 -19q27 -13 62 -50.5t51 -92.5q-34 30 -92 36l-8 -19q55 -23 74 -73q-32 20 -66 20q-43 0 -71.5 -25t-28.5 -63zM40 519
q0 34 24.5 56t60.5 22q29 0 54 -16.5t35 -38.5q0 88 -91 127q96 -10 117 -88q0 44 -15.5 84t-38 66t-42 41.5t-34.5 22.5q18 -4 37.5 -10.5t49 -24.5t51 -42t35.5 -66t11 -93q-37 -32 -39.5 -107.5t14.5 -172.5q-36 7 -68 -5q5 75 5 153q0 68 -22 100t-56 32
q-21 0 -34.5 -11.5t-13.5 -28.5t11.5 -28.5t28.5 -11.5q26 0 43 20q0 -17 -15.5 -30.5t-39.5 -13.5q-31 0 -49.5 18.5t-18.5 45.5zM58 102q43 -48 100 -48q40 0 59 26t19 60q0 66 -39 66q-18 0 -31 -18.5t-13 -42.5q-22 44 -0.5 77.5t62.5 33.5q23 0 43 -12t28 -21.5
t28 -40.5l24 -37q68 -99 171 -99q67 0 117 49.5t50 139.5q0 76 -28.5 149.5t-69.5 123t-85 80t-77 30.5q-15 0 -24 -6t-16.5 -23.5t-12.5 -36.5t-17 -58t-26 -76l-3 -8l-4 1l2 10q48 238 -44 314l-6 5l1 2l21 -8q197 -75 322 -207.5t125 -291.5q0 -123 -64 -184t-153 -61
q-80 0 -133.5 49.5t-107.5 147.5q20 -81 -17.5 -129.5t-91.5 -48.5q-44 0 -73 28t-36 65zM284 256q24 -15 61 -71l3 -5l14 -23q63 -91 147 -91q60 0 98.5 47.5t38.5 121.5t-26 144t-63 116.5t-75.5 74.5t-65.5 28q-4 0 -6.5 -3.5t-8.5 -19t-16 -49.5q-13 -52 -37 -115
l-11 -27l-51 12q2 -21 15 -130zM110 519q0 -20 12 -20q9 0 22 18l16 -4q-12 26 -32 26q-18 0 -18 -20zM284 420l1 5q12 55 15 102q-19 -31 -16 -107z" />
    <glyph glyph-name="E" unicode="E" horiz-adv-x="693" 
d="M638 38q39 -24 64 -69l-21 -24h-13l-18 5q-28 29 -89 36.5t-194 7.5q-107 0 -165 -15l-30 17q-22 -5 -41 -5q-58 0 -87 37.5t-14 93.5l54 1q9 -28 18 -38t25 -10q25 0 42 17.5t17 43.5q0 25 -10 25q-16 0 -19 -36l-49 -7q-16 19 -16 38q0 32 20.5 56.5t57.5 37.5
q6 46 6 157q0 13 -2 33q-25 -25 -66 -25q-42 0 -70 24t-28 60q0 41 33 69.5t82 28.5q15 0 37 -5q-23 31 -63 43l15 35q43 -3 77 -17q-18 41 -46 68t-47 36l-8 13l9 19l17 6q19 -4 39 -11.5t50 -23t56.5 -42.5t42.5 -61q31 37 129 67q68 19 91.5 34t28.5 39l24 13h12l24 -16
q3 -44 -27 -82q49 -17 76.5 -48.5t27.5 -71.5q0 -46 -37.5 -78t-102.5 -42l-28 17v7l12 14q22 10 35 28.5t13 39.5q0 67 -94 67q-89 0 -89 -39q0 -22 23.5 -29t58.5 6l20 -8q1 -26 -30 -46.5t-72 -20.5q-45 0 -78 23l-4 -5q-43 -33 -29 -170q27 18 57 27q33 12 52 31t16 37
l54 5q19 -35 4 -69q55 -8 88.5 -34t33.5 -63t-35 -56.5t-80 -8.5l-18 16v7l17 16q14 2 14 17q0 29 -74 29q-88 0 -88 -37l-29 -8v-1l-13 -8q55 -13 81 -49t1 -74q-8 14 -21 25q22 -51 6 -99q217 -3 217 58q0 21 -14 30q-6 5 -12 -2l20 39q52 -2 82 -22t30 -54q0 -42 -39 -70
zM131 1q61 0 106 41.5t45 97.5q0 33 -15 57q62 -2 98 -38q9 37 -31.5 65t-95.5 28q-26 0 -47 -6q38 17 75 11l18 11l-2 15l9 -9l24 6q4 20 33.5 30t68.5 10q89 0 89 -39q0 -20 -20 -26l-11 -10v-1l12 -10q37 -8 64 8.5t27 47.5q0 37 -35 61t-92 28q21 31 6 66l-29 -3
q-1 -19 -22.5 -37.5t-55.5 -30.5q-56 -19 -74 -48q-11 72 -6 126t34 79l5 7q1 8 1 23q25 -43 89 -43q34 0 61 16.5t26 39.5q-40 -15 -71 -5.5t-31 37.5q0 22 28 35.5t76 13.5q52 0 80.5 -20t28.5 -57q0 -47 -52 -75l-8 -9v-1l17 -10q57 10 89 38.5t32 70.5q0 41 -29.5 71
t-80.5 44q35 36 33 83l-15 10h-1l-15 -8q-5 -25 -32.5 -41.5t-97.5 -36.5q-60 -18 -93.5 -38t-42.5 -54q-11 42 -36.5 74t-56.5 50t-53 26.5t-42 12.5l-9 -19q27 -13 62 -50.5t51 -92.5q-34 30 -92 36l-8 -19q55 -23 74 -73q-32 20 -66 20q-43 0 -71.5 -25t-28.5 -63
q0 -32 23.5 -53t59.5 -21q29 0 49.5 16t20.5 38l-27 6q-13 -16 -31 -16q-11 0 -18 8.5t-7 21.5q0 14 9 22t24 8q29 0 46 -32.5t17 -89.5q0 -130 -7 -163q-36 -11 -56.5 -34t-20.5 -54q0 -15 9 -27l27 4q3 18 13 29t22 11q23 0 23 -37q0 -30 -21.5 -50.5t-52.5 -20.5
q-39 0 -55 48l-29 -1q-11 -48 14 -79.5t74 -31.5zM399 528q-37 0 -61 20t-24 53q0 40 31.5 61.5t95.5 41.5q72 21 103 39.5t38 46.5h1q3 -53 -41 -88q53 -10 85.5 -38.5t32.5 -71.5q0 -41 -30 -66t-78 -33v1q60 33 60 84q0 44 -35.5 65.5t-88.5 21.5q-55 0 -87 -16.5
t-32 -42.5q0 -31 31.5 -43.5t66.5 -4.5q-20 -30 -68 -30zM201 262q5 53 5 145q0 68 -22 100t-56 32q-21 0 -34.5 -11.5t-13.5 -28.5t11.5 -28.5t28.5 -11.5q26 0 43 20q0 -17 -15.5 -30.5t-39.5 -13.5q-31 0 -49.5 18.5t-18.5 45.5q0 34 24.5 56t60.5 22q29 0 54 -16.5
t35 -38.5q0 88 -91 127q96 -10 117 -88q0 44 -15.5 84t-38 66t-42 41.5t-34.5 22.5q18 -4 37.5 -10.5t49 -24.5t51 -42t35.5 -66t11 -93q-16 -14 -25 -36t-12.5 -42t-1.5 -58t4.5 -61.5t9.5 -74.5q-36 7 -68 -5zM160 493q-12 26 -32 26q-18 0 -18 -20q0 -19 13 -19
q11 0 21 17zM300 282q-12 12 -13.5 25.5t16.5 29.5t52 28q38 13 62 34.5t26 41.5q8 -10 4 -33.5t-23 -37.5q57 1 98 -19.5t41 -60.5q0 -27 -21.5 -39.5t-51.5 -6.5v1q31 10 31 36q0 25 -30 37t-74 12q-42 0 -76.5 -12t-40.5 -36zM244 205q23 -21 23 -65q0 -51 -40 -90
t-96 -39q-42 0 -62.5 28.5t-10.5 70.5q19 -55 69 -55q36 0 62.5 22.5t26.5 58.5q0 20 -10 33.5t-28 13.5q-19 0 -32.5 -14t-17.5 -34q-6 8 -6 21q0 34 30.5 60t85.5 26q37 0 69 -15.5t42 -41.5q-53 30 -105 20zM673 -45l13 15q-27 46 -70 67q46 25 46 71q0 28 -23 45t-64 20
l-9 -18q20 -13 20 -38q0 -74 -251 -68q15 34 9 71.5t-31 67.5l-26 -8q10 -46 1 -81t-30.5 -52.5t-35 -24.5t-24.5 -9l-11 -10v-3l18 -10q59 14 162 14q134 0 198 -7.5t95 -38.5l11 -3h2zM587 37q55 -19 86 -72h-2q-33 33 -100.5 41t-203.5 8q-106 0 -165 -14v3l12 4
t19.5 8.5t23 15t23 22.5t18 32t8.5 42.5t-4 54.5q26 -31 28.5 -71.5t-16.5 -70.5q287 -10 287 77q0 28 -27 46q73 -6 73 -55q0 -25 -17 -44.5t-43 -26.5z" />
    <glyph glyph-name="F" unicode="F" horiz-adv-x="631" 
d="M543 509q50 28 50 73q0 63 -104 63q-89 0 -89 -39q0 -22 23.5 -29t58.5 6l20 -8q1 -26 -30 -46.5t-72 -20.5q-47 0 -79 24l-6 -7q-26 -19 -30.5 -65.5t5.5 -112.5q22 26 73 43q31 9 48 26t14 34l53 6q22 -39 7 -70q47 -10 75 -35.5t28 -60.5q0 -34 -34.5 -53.5
t-78.5 -11.5l-20 16v7l16 14q17 4 17 19q0 29 -63 29q-69 0 -77 -39l-32 -5q52 -25 72 -73l-43 -22q-17 19 -43 30q4 -13 4 -31t-6 -46q-6 -33 -6 -57q0 -53 41 -101l-28 -26q-83 23 -108 85q-29 -12 -55 -12q-67 0 -101.5 42t-24.5 112l29 2q11 -34 35 -54.5t54 -20.5
q25 0 42.5 18t17.5 44q0 30 -10 30q-7 0 -11 -12.5t-1 -26.5l-53 -8q-25 43 -10.5 81t61.5 56q4 64 4 131q0 13 -2 33q-25 -25 -66 -25q-42 0 -70 24t-28 60q0 41 33 69.5t82 28.5q15 0 37 -5q-23 31 -63 43l15 35q43 -3 77 -17q-18 41 -46 68t-47 36l-8 13l9 19l17 6
q27 -6 56 -17t70.5 -43.5t61.5 -77.5q31 36 130 67q68 19 91.5 34t28.5 39l24 13h12l24 -16q3 -41 -26 -81q53 -15 83 -46.5t30 -74.5q0 -51 -39 -83.5t-103 -35.5l-26 16v7zM608 582q0 -48 -53 -79l-7 -9v-1l16 -10q56 4 89 33.5t33 75.5q0 43 -31.5 73.5t-87.5 42.5
q34 37 32 82l-15 10h-1l-15 -8q-5 -25 -32.5 -41.5t-97.5 -36.5q-60 -18 -94.5 -38.5t-41.5 -55.5q-11 42 -36.5 75t-56.5 50.5t-53.5 26.5t-42.5 13l-9 -19q27 -13 62 -50.5t51 -92.5q-34 30 -92 36l-8 -19q55 -23 74 -73q-32 20 -66 20q-43 0 -71.5 -25t-28.5 -63
q0 -32 23.5 -53t59.5 -21q29 0 49.5 16t20.5 38l-27 6q-13 -16 -31 -16q-11 0 -18 8.5t-7 21.5q0 14 9 22t24 8q29 0 46 -32.5t17 -89.5q0 -84 -5 -137q-42 -13 -58.5 -46.5t2.5 -72.5l28 4q0 17 8.5 29t19.5 12q10 0 17.5 -12t7.5 -28q0 -31 -21.5 -51.5t-53.5 -20.5
q-34 0 -63 22t-40 60q-9 -66 21.5 -104.5t89.5 -38.5q35 0 65 20q16 -65 93 -91l16 15q-39 48 -39 100q0 25 6 59q6 26 6 44q0 28 -12 48q42 -8 69 -33l23 12q-30 58 -101 74l14 9q-16 90 -15 157t34 94l6 7q1 9 1 25q24 -45 90 -45q34 0 61 16.5t26 39.5
q-41 -15 -71.5 -5.5t-30.5 37.5q0 49 104 49q56 0 87.5 -19t31.5 -54zM671 592q0 -44 -30.5 -69.5t-77.5 -29.5v1q60 35 60 88q0 41 -38.5 62t-95.5 21q-59 0 -89 -16t-30 -43q0 -31 31.5 -43.5t66.5 -4.5q-20 -30 -68 -30q-37 0 -61 20t-24 53q0 40 32 62.5t95 40.5
q72 21 103 39.5t38 46.5h1q2 -52 -40 -88q59 -8 93 -36.5t34 -73.5zM110 775q18 -4 37.5 -10.5t49 -24.5t51 -42t35.5 -66t11 -93q-37 -30 -39.5 -100t14.5 -160q-36 7 -68 -5q5 53 5 133q0 68 -22 100t-56 32q-21 0 -34.5 -11.5t-13.5 -28.5t11.5 -28.5t28.5 -11.5
q26 0 43 20q0 -17 -15.5 -30.5t-39.5 -13.5q-31 0 -49.5 18.5t-18.5 45.5q0 34 24.5 56t60.5 22q29 0 54 -16.5t35 -38.5q0 88 -91 127q96 -10 117 -88q0 44 -15.5 84t-38 66t-42 41.5t-34.5 22.5zM160 493q-12 26 -32 26q-18 0 -18 -20t12 -20q9 0 22 18zM368 380
q-55 -18 -71 -47t14 -58l24 4q13 41 90 41q78 0 78 -39q0 -19 -23 -27l-10 -9v-1l13 -10q36 -5 63 11.5t27 44.5q0 35 -30 59t-79 30q23 28 4 66l-28 -3q-2 -18 -21 -35t-51 -27zM321 282q-24 20 -10.5 46t62.5 42q36 12 58 31.5t24 39.5q9 -10 6.5 -33.5t-23.5 -37.5
q50 -1 85 -21t35 -59q0 -24 -21 -37.5t-52 -8.5v1q33 11 33 36q0 49 -93 49q-89 0 -104 -48zM143 155q-22 44 6.5 77.5t80.5 33.5q40 0 75 -19t53 -55q-22 21 -52.5 30t-54.5 7q10 -5 17.5 -22t7.5 -37q0 -16 -6 -46t-6 -57q0 -55 43 -106q-87 30 -87 116q-8 -21 -31 -32.5
t-45 -11.5q-82 0 -96 79q35 -38 88 -38q37 0 63.5 23.5t26.5 58.5q0 20 -11 35t-29 15t-30.5 -15t-12.5 -36z" />
    <glyph glyph-name="G" unicode="G" horiz-adv-x="786" 
d="M632 340q81 -14 130.5 -76.5t49.5 -150.5q0 -130 -97 -241t-248 -153l-28 10l-5 9l10 18l-13 -1q-30 0 -57 15.5t-40 40.5q-46 -2 -58.5 37.5t22.5 85.5l27 -4q1 -9 3 -16q10 31 37 56q-161 2 -256.5 110t-87.5 280l4 8q73 99 84 211t-46 174l35 28q82 -41 111 -144
q35 48 149 86q88 27 106 39t46 65h26q37 -64 -27 -117q73 -19 108 -76q15 32 32 90l23 11h13l24 -18q-7 -66 -26 -122.5t-40 -92.5t-54 -71t-53.5 -51.5t-52.5 -39.5l-34 1l-8 8v19q77 83 77 158q0 53 -31 83.5t-84 30.5q-78 0 -137 -53l11 -8q-4 -23 -17 -44.5t-23.5 -32
t-31.5 -28.5q-24 -22 -36 -35.5t-22.5 -45t-10.5 -76.5q0 -15 1 -23q11 52 36 108l55 -9q-20 -160 21 -248.5t135 -88.5q74 0 135.5 50.5t86.5 133.5l8 4q-5 1 -16 1q-45 0 -77.5 -29.5t-57.5 -93.5l-23 -10h-16l-24 19q4 20 14 46t33 64.5t54 74t81 72t110 60.5l32 -8
l5 -10l-9 -19q-48 -24 -88 -71zM468 -270q143 41 236 149t93 234q0 91 -52 151.5t-135 68.5q34 48 97 84l6 13l-1 2l-19 5q-68 -28 -122 -71.5t-84.5 -89t-47 -80.5t-23.5 -62l15 -12h5l14 6q51 127 148 127q55 0 85.5 -41t30.5 -115q0 -120 -89 -219q2 14 2 22
q0 49 -35 78.5t-91 29.5h-2q66 32 107 91t45 130l-15 10h-2l-14 -7q-27 -85 -92 -136.5t-144 -51.5q-101 0 -146 88.5t-26 250.5l-29 5q-48 -107 -33 -201q-29 63 -29 128q0 46 12 79.5t24.5 47.5t37.5 37q19 17 28.5 26.5t21.5 28.5t16 40l-13 11q63 63 155 63
q59 0 94.5 -33.5t35.5 -90.5q0 -76 -77 -160v-14l1 -1l20 -1q31 22 51 38.5t51 50t51 68.5t38.5 89.5t25.5 117.5l-15 11h-2l-14 -7q-23 -75 -47 -115q-32 88 -134 102q36 22 47.5 53t-6.5 64q-25 -46 -36 -57q-22 -20 -115 -49q-4 -2 -9 -3q-76 -25 -110 -50t-50 -68
q-20 126 -103 172l-19 -15q54 -67 42.5 -177t-84.5 -210l-3 -6q-8 -169 84.5 -274t248.5 -105q11 0 31 2q-63 -41 -65 -109q-5 -3 -9 1.5t-8.5 18t-7.5 35.5q-34 -46 -19.5 -79t54.5 -27q10 -25 34 -41t52 -16q41 0 63 26.5t10 62.5h-28q-12 -32 -36 -32q-13 0 -21 12.5
t-8 33.5q0 35 25 58.5t63 23.5q27 0 42.5 -16t15.5 -44q0 -52 -33 -88t-67 -51l-7 -13l1 -2zM403 660q-55 0 -107.5 -26t-84.5 -71h-1q12 59 44.5 86.5t113.5 53.5q78 25 106 39t45 43q1 -28 -21 -51.5t-58 -35.5q71 1 115 -33t55 -96q41 57 67 146h2q-7 -62 -25 -115.5
t-37.5 -88t-49.5 -67t-49.5 -48.5t-49.5 -38l-1 1q81 88 81 167q0 62 -40.5 98t-104.5 36zM636 231q-5 -104 -84.5 -172.5t-182.5 -68.5q-147 0 -236 101t-82 268q53 73 74.5 151t12 141t-44.5 107q40 -22 69.5 -79t31.5 -145q36 11 51 44h1q-5 -28 -22 -50t-36 -38
t-38 -35.5t-31.5 -54.5t-12.5 -83q0 -55 24.5 -119t77.5 -113q-41 58 -46 132t35 169q-12 -100 0.5 -172.5t43 -109t66 -52.5t77.5 -16q83 0 152.5 53.5t97.5 141.5h2zM208 555l1 -1l-1 -1v2zM588 324q85 0 139.5 -58.5t54.5 -152.5q0 -132 -96 -234.5t-222 -138.5l-1 2
q37 16 73 54.5t36 93.5q0 32 -19.5 51t-53.5 19q-45 0 -74 -27t-29 -65q0 -26 12 -41t32 -15q36 0 50 39q10 -32 -8.5 -54t-50.5 -22q-29 0 -49 18t-26 43q-29 -12 -44.5 5t-7.5 46q6 -19 21.5 -24t24.5 6q0 55 43 93t108 38q52 0 81.5 -27.5t29.5 -70.5q0 -38 -21 -69
q49 35 93.5 108t44.5 158q0 80 -35.5 123t-95.5 43q-108 0 -162 -133h-5q6 27 22.5 61.5t46 78.5t82 86.5t117.5 69.5l1 -2q-39 -22 -71 -52.5t-41 -49.5zM665 216q-7 -61 -41.5 -113t-88.5 -86q43 -8 71.5 -33.5t34.5 -62.5q58 85 58 178q0 78 -34 117zM516 -136
q9 -22 6 -42q20 30 20 68q0 50 -43 50q-31 0 -52 -20.5t-21 -51.5q0 -36 14 -36q13 0 24 32h52z" />
    <glyph glyph-name="H" unicode="H" horiz-adv-x="919" 
d="M811 415q-41 0 -66 25q-2 -20 -2 -33q0 -63 5 -116q47 -19 61 -56.5t-11 -80.5l-53 8q3 13 -1 26t-9 13q-12 0 -12 -30q0 -26 17.5 -44t42.5 -18q41 0 71 38l48 -16q-6 -48 -40 -75.5t-87 -27.5q-26 0 -55 12q-25 -62 -108 -85l-28 26q41 48 41 101q0 24 -6 57
q-6 28 -6 46q0 19 4 31q-50 -20 -67 -80l-29 2q-8 53 26 97h5l-13 22l2 12q6 6 6 18q0 11 -5.5 15t-22.5 4q-48 0 -84.5 -20.5t-26.5 -42.5l-34 -10q10 -14 14 -25l-43 -22q-17 19 -43 30q4 -13 4 -31t-6 -46q-6 -33 -6 -57q0 -53 41 -101l-28 -26q-83 23 -108 85
q-29 -12 -55 -12q-67 0 -101.5 42t-24.5 112l29 2q11 -34 35 -54.5t54 -20.5q25 0 42.5 18t17.5 44q0 30 -12 30q-6 0 -9.5 -13t-0.5 -26l-53 -8q-25 43 -11 80.5t61 56.5q5 53 5 116q0 13 -2 33q-25 -25 -66 -25q-42 0 -70 24t-28 60q0 41 33 69.5t82 28.5q15 0 37 -5
q-23 31 -63 43l15 35q43 -3 77 -17q-18 41 -46 68t-47 36l-8 13l9 19l17 6q21 -5 42 -12.5t55 -27.5t58 -46t40.5 -72t12.5 -101l-9 -11q-24 -17 -28.5 -55.5t7.5 -133.5q35 33 163 43l25 2q60 5 64 16l-12 8v8l20 16q27 7 51 -7t26 -38q7 65 0.5 95.5t-27.5 45.5l-9 11
q-4 55 12.5 101t40.5 72t58 46t55 27.5t42 12.5l17 -6l9 -19l-8 -13q-19 -9 -47 -36t-46 -68q47 22 115 16.5t127 -39.5q-73 22 -128.5 11.5t-84.5 -49.5q20 5 37 5q49 0 82 -28.5t33 -69.5q0 -36 -28 -60t-70 -24zM768 485l-27 -6q0 -22 20.5 -38t49.5 -16q36 0 59.5 21
t23.5 53q0 38 -28.5 63t-71.5 25q-34 0 -66 -20q14 39 53 63t93 25q-109 21 -172 -32q16 55 51 92.5t62 50.5l-9 19q-19 -4 -39.5 -11t-52 -26t-54.5 -44.5t-38 -69t-12 -96.5l6 -7q32 -25 33.5 -88t-14.5 -148l14 -9q-9 -2 -27 -8q5 10 5 20q0 31 -32 48q21 15 21 36
q0 19 -16.5 30.5t-37.5 7.5l-13 -10v-1l15 -10q-3 0 -3 -1q0 -21 -78 -27l-25 -2q-100 -8 -137 -27.5t-30 -61.5q-11 4 -21 6l14 9q-16 85 -14.5 148t33.5 88l6 7q3 53 -12 96.5t-38 69t-54.5 44.5t-52 26t-39.5 11l-9 -19q27 -13 62 -50.5t51 -92.5q-34 30 -92 36l-8 -19
q55 -23 74 -73q-32 20 -66 20q-43 0 -71.5 -25t-28.5 -63q0 -32 23.5 -53t59.5 -21q29 0 49.5 16t20.5 38l-27 6q-13 -16 -31 -16q-11 0 -18 8.5t-7 21.5q0 14 9 22t24 8q29 0 46 -32.5t17 -89.5q0 -71 -6 -122q-42 -14 -58 -47t3 -72l28 4q0 17 8.5 29t19.5 12
q10 0 17.5 -12t7.5 -28q0 -31 -21.5 -51.5t-53.5 -20.5q-34 0 -63 22t-40 60q-9 -66 21.5 -104.5t89.5 -38.5q35 0 65 20q16 -65 93 -91l16 15q-39 48 -39 100q0 24 6 59q6 26 6 44q0 29 -12 48q42 -8 69 -33l23 12q-18 36 -57 58l7 -1q8 16 27 25q-6 -31 18 -52l25 7
q-2 26 38 46.5t90 20.5q43 0 43 -29q0 -13 -10 -25l10 -17h11q-46 -44 -37 -106q12 43 41 66t63 28q-12 -19 -12 -48q0 -18 6 -44q6 -35 6 -59q0 -52 -39 -100l16 -15q77 26 93 91q30 -20 65 -20q45 0 74.5 23t36.5 64l-26 9q-32 -35 -77 -35q-32 0 -53.5 20.5t-21.5 51.5
q0 16 7.5 28t17.5 12q11 0 19.5 -12t8.5 -29l28 -4q19 39 3 72t-58 47q-6 51 -6 122q0 57 17 89.5t46 32.5q15 0 24 -8t9 -22q0 -13 -7 -21.5t-18 -8.5q-18 0 -31 16zM201 289q5 53 5 118q0 68 -22 100t-56 32q-21 0 -34.5 -11.5t-13.5 -28.5t11.5 -28.5t28.5 -11.5
q26 0 43 20q0 -17 -15.5 -30.5t-39.5 -13.5q-31 0 -49.5 18.5t-18.5 45.5q0 34 24.5 56t60.5 22q29 0 54 -16.5t35 -38.5q0 88 -91 127q96 -10 117 -88q0 44 -15.5 84t-38 66t-42 41.5t-34.5 22.5q18 -4 37.5 -10.5t49 -24.5t51 -42t35.5 -66t11 -93q-37 -28 -39.5 -94
t14.5 -151q-36 7 -68 -5zM811 435q-24 0 -39.5 13.5t-15.5 30.5q17 -20 43 -20q17 0 28.5 11.5t11.5 28.5t-13.5 28.5t-34.5 11.5q-34 0 -56 -32t-22 -100q0 -65 5 -118q-32 12 -68 5q17 85 14.5 151t-39.5 94q-3 51 11 93t35.5 66t51 42t49 24.5t37.5 10.5
q-15 -7 -34.5 -22.5t-42 -41.5t-38 -66t-15.5 -84q21 78 117 88q-91 -39 -91 -127q10 22 35 38.5t54 16.5q36 0 60.5 -22t24.5 -56q0 -27 -18.5 -45.5t-49.5 -18.5zM160 493q-12 26 -32 26q-18 0 -18 -20t13 -20q11 0 21 18zM759 493l16 4q12 -17 21 -17q13 0 13 19
q0 20 -18 20q-20 0 -32 -26zM612 298q0 -20 -15.5 -32t-33.5 -11q14 16 14 32q0 39 -58 39q-55 0 -99.5 -23.5t-43.5 -53.5q-13 12 -14 30.5t7 29.5q-44 -2 -61 -35q-10 40 21.5 58.5t129.5 26.5l25 2q92 7 92 37q0 11 -12 11v1q14 2 25.5 -5.5t11.5 -22.5q0 -24 -31 -36
q42 -14 42 -48zM630 371q-4 -13 -15 -24l11 -9zM143 170q-22 44 6.5 77.5t80.5 33.5q40 0 75 -19t53 -55q-22 21 -52.5 30t-54.5 7q10 -5 17.5 -22t7.5 -37q0 -16 -6 -46t-6 -57q0 -55 43 -106q-87 30 -87 116q-8 -21 -31 -32.5t-45 -11.5q-82 0 -96 79q35 -38 88 -38
q37 0 63.5 23.5t26.5 58.5q0 20 -11 35t-29 15t-30.5 -15t-12.5 -36zM561 207q18 36 53 55t75 19q52 0 80.5 -33.5t6.5 -77.5q0 21 -12.5 36t-30.5 15t-29 -15t-11 -35q0 -35 26.5 -58.5t63.5 -23.5q53 0 88 38q-14 -79 -96 -79q-22 0 -45 11.5t-31 32.5q0 -86 -87 -116
q43 51 43 106q0 27 -6 57t-6 46q0 20 7.5 37t17.5 22q-24 2 -54.5 -7t-52.5 -30z" />
    <glyph glyph-name="I" unicode="I" horiz-adv-x="438" 
d="M50 499q0 41 33 69.5t82 28.5q15 0 37 -5q-23 31 -63 43l15 35q43 -3 77 -17q-18 41 -46 68t-47 36l-8 13l9 19l17 6q21 -5 42 -12.5t55 -27.5t58 -46t40.5 -72t12.5 -101l-9 -11q-26 -18 -29.5 -65t14.5 -169l-4 -2q69 -24 92 -81l-43 -22q-17 19 -43 30q4 -13 4 -31
t-6 -46q-6 -33 -6 -57q0 -53 41 -101l-28 -26q-83 23 -108 85q-29 -12 -55 -12q-67 0 -101.5 42t-24.5 112l29 2q11 -34 35 -54.5t54 -20.5q25 0 42.5 18t17.5 44q0 30 -12 30q-6 0 -9.5 -13t-0.5 -26l-53 -8q-25 43 -11 80.5t61 56.5q5 53 5 116q0 13 -2 33
q-25 -25 -66 -25q-42 0 -70 24t-28 60zM65 499q0 -32 23.5 -53t59.5 -21q29 0 49.5 16t20.5 38l-27 6q-13 -16 -31 -16q-11 0 -18 8.5t-7 21.5q0 14 9 22t24 8q29 0 46 -32.5t17 -89.5q0 -71 -6 -122q-42 -14 -58 -47t3 -72l28 4q0 17 8.5 29t19.5 12q10 0 17.5 -12t7.5 -28
q0 -31 -21.5 -51.5t-53.5 -20.5q-34 0 -63 22t-40 60q-9 -66 21.5 -104.5t89.5 -38.5q35 0 65 20q16 -65 93 -91l16 15q-39 48 -39 100q0 24 6 59q6 26 6 44q0 29 -12 48q42 -8 69 -33l23 12q-30 58 -101 74l14 9q-16 85 -14.5 148t33.5 88l6 7q3 53 -12 96.5t-38 69
t-54.5 44.5t-52 26t-39.5 11l-9 -19q27 -13 62 -50.5t51 -92.5q-34 30 -92 36l-8 -19q55 -23 74 -73q-32 20 -66 20q-43 0 -71.5 -25t-28.5 -63zM309 294q-36 7 -68 -5q5 53 5 118q0 68 -22 100t-56 32q-21 0 -34.5 -11.5t-13.5 -28.5t11.5 -28.5t28.5 -11.5q26 0 43 20
q0 -17 -15.5 -30.5t-39.5 -13.5q-31 0 -49.5 18.5t-18.5 45.5q0 34 24.5 56t60.5 22q29 0 54 -16.5t35 -38.5q0 88 -91 127q96 -10 117 -88q0 44 -15.5 84t-38 66t-42 41.5t-34.5 22.5q18 -4 37.5 -10.5t49 -24.5t51 -42t35.5 -66t11 -93q-37 -28 -39.5 -94t14.5 -151z
M150 499q0 -20 12 -20t22 18l16 -4q-12 26 -32 26q-18 0 -18 -20zM270 281q40 0 75 -19t53 -55q-22 21 -52.5 30t-54.5 7q10 -5 17.5 -22t7.5 -37q0 -16 -6 -46t-6 -57q0 -55 43 -106q-87 30 -87 116q-8 -21 -31 -32.5t-45 -11.5q-82 0 -96 79q35 -38 88 -38q37 0 63.5 23.5
t26.5 58.5q0 20 -11 35t-29 15t-30.5 -15t-12.5 -36q-22 44 6.5 77.5t80.5 33.5z" />
    <glyph glyph-name="J" unicode="J" horiz-adv-x="476" 
d="M405 246q39 -21 48 -54.5t-17 -68.5l-25 3q4 -4 9 -4l8 -21q-24 -56 -93 -93.5t-147 -37.5q-92 0 -148.5 45.5t-56.5 120.5q0 100 117 156l33 -30q-19 -15 -31 -47.5t-12 -66.5q0 -49 29 -78t78 -29q19 0 36 3q-80 14 -96 82.5t43 159.5l27 -9q-17 -62 1 -110.5t58 -48.5
q47 0 47 43q0 9 -2 15l-4 -11l-52 1q-11 27 0 50.5t39 35.5v-1q21 149 -7 225.5t-102 76.5q-28 0 -45 -11.5t-17 -30.5t7 -19l12 9l40 -13q2 -25 -19.5 -42t-56.5 -17q-41 0 -68 25t-27 62q0 52 48.5 84.5t125.5 32.5q42 0 75 -13q-16 15 -31 19l-11 12l6 27q38 6 83 -17
q-9 18 -22 35t-26 29.5t-24 21.5t-20 15.5t-10 6.5l-2 15l15 17l15 3q1 0 3 -1q18 -6 34.5 -12.5t51.5 -27.5t58.5 -47t41.5 -71t16 -98l-6 -9q-19 -20 -25.5 -40.5t-6.5 -60.5q0 -71 13 -181l-7 -10h-1zM384 190q25 -9 40 -61q25 37 11 69.5t-54 46.5l17 10
q-13 111 -13 182q0 41 7 62t27 43l4 7q2 52 -15 95.5t-42.5 69t-55.5 44t-50 26t-29 10.5h-2l-15 -17l10 -7l21 -15.5t24.5 -21.5t26.5 -28.5t23 -35t16 -41.5q-46 41 -98 41l-4 -20q15 -4 36 -21t34 -45q-50 40 -118 40q-71 0 -115 -29.5t-44 -77.5q0 -33 23 -55t57 -22
q26 0 43 12t18 31l-26 8q-4 -5 -15 -5q-18 0 -18 26q0 23 21.5 37.5t55.5 14.5q166 0 125 -308l10 -6q-30 -6 -45.5 -26.5t-7.5 -46.5l28 -1q7 18 17 18q6 0 11 -9t5 -23q0 -53 -62 -53q-47 0 -70 50.5t-3 121.5q-61 -95 -38.5 -161.5t110.5 -66.5l16 1q-34 -22 -84 -22
q-55 0 -88.5 32t-33.5 85q0 71 40 114l-18 16q-99 -51 -99 -142q0 -71 52 -113.5t138 -42.5q73 0 136.5 34.5t88.5 86.5l-5 13q-29 15 -24 76zM325 254q43 319 -140 319q-41 0 -66.5 -18t-25.5 -44q0 -17 9.5 -26.5t23.5 -9.5q18 0 26 8q-2 -34 -46 -34q-30 0 -47.5 20
t-17.5 47q0 41 37.5 69t106.5 28q47 0 86 -22t58 -61q-2 55 -33.5 88.5t-58.5 40.5q31 0 70 -25t47 -63q2 31 -6 60.5t-20.5 50.5t-30.5 41t-31 30.5t-28 20.5l-14 11q191 -64 184 -236q-23 -25 -30.5 -47.5t-7.5 -64.5q0 -73 13 -183q-29 6 -58 0zM341 241q41 0 64.5 -23.5
t19.5 -51.5q-20 39 -55 36q-9 -74 30 -97q-24 -49 -83 -82t-129 -33q-88 0 -131.5 42.5t-43.5 103.5q0 86 91 133q-44 -47 -44 -121q0 -56 38 -91.5t99 -35.5q85 0 129 55q-23 -14 -61 -14q-63 0 -87 40t-8 96q5 -43 31 -71.5t65 -28.5q34 0 55.5 16.5t21.5 46.5q0 20 -9 31
t-22 11q-21 0 -31 -24q-8 26 10.5 44t49.5 18zM409 128q-5 19 -18 43q6 -33 18 -43z" />
    <glyph glyph-name="K" unicode="K" horiz-adv-x="759" 
d="M606 279q74 0 121 -41.5t47 -107.5q0 -65 -46 -108t-118 -46l-9 -34q-69 -4 -126 36t-95 119l-8 -5l-39 16q3 56 -25 110q1 -7 1 -20q0 -34 -6 -51q-1 -3 -1 -7q-8 -32 -8 -63q0 -53 41 -100l-26 -28q-92 23 -114 86q-31 -12 -58 -12q-105 0 -120 103l47 16
q13 -14 17.5 -18.5t18 -12t27.5 -7.5q32 0 50.5 21.5t18.5 59.5q0 17 -3.5 32.5t-9.5 15.5q-7 0 -9.5 -13.5t1.5 -22.5l-54 -8q-25 43 -10.5 81t60.5 56q5 53 5 91q0 13 -2 33q-25 -25 -66 -25q-42 0 -70 24t-28 60q0 41 33 69.5t82 28.5q15 0 37 -5q-23 31 -63 43l15 35
q43 -3 77 -17q-18 41 -46 68t-47 36l-8 13l9 19l17 6q21 -5 42 -12.5t55 -27.5t58 -46t40.5 -72t12.5 -101l-9 -11q-34 -21 -30 -97q34 29 111 71q70 39 98.5 67t28.5 60q0 35 -22.5 57t-58.5 23l4 37q84 13 140 -21.5t56 -97.5q0 -46 -29 -84q67 -19 70 -77.5t-62 -120.5
l-24 10q23 65 14 86t-59 21q-52 0 -112.5 -22.5t-101.5 -55.5t-40 -60l2 -10q32 -15 58 -41t61 -71l34 -43q11 49 54 81t99 32zM600 -14q70 0 114.5 40t44.5 104q0 62 -42.5 100.5t-110.5 38.5q-61 0 -103 -40.5t-38 -95.5l-5 5q-15 15 -53 65q-69 91 -121 112l-3 15
q-2 46 90.5 97.5t178.5 51.5q61 0 73 -27t-14 -93q44 42 54.5 83t-10 68t-64.5 34q36 39 36 90q0 56 -47 87t-120 24l-2 -20q37 -6 58.5 -30t21.5 -59q0 -34 -31 -65t-104 -71q-97 -53 -131 -91q-7 46 -0.5 80.5t31.5 51.5l6 7q3 53 -12 96.5t-38 69t-54.5 44.5t-52 26
t-39.5 11l-9 -19q27 -13 62 -50.5t51 -92.5q-34 30 -92 36l-8 -19q55 -23 74 -73q-32 20 -66 20q-43 0 -71.5 -25t-28.5 -63q0 -32 23.5 -53t59.5 -21q29 0 49.5 16t20.5 38l-27 6q-13 -16 -31 -16q-11 0 -18 8.5t-7 21.5q0 14 9 22t24 8q29 0 46 -32.5t17 -89.5
q0 -37 -5 -92l7 -4q-45 -12 -64 -45.5t1 -74.5l28 4q0 16 8 28.5t18 12.5q11 0 19 -17.5t8 -43.5q0 -42 -23 -66.5t-61 -24.5q-35 0 -68 35l-26 -9q16 -87 104 -87q37 0 69 20q10 -67 97 -92l15 16q-39 48 -39 100q0 25 8 65q7 37 7 56q0 38 -16 73q30 -18 50.5 -62.5
t19.5 -95.5l22 -9l17 10q73 -162 201 -162l5 20q-25 8 -39 19q23 -5 46 -5zM201 324q5 48 5 93q0 68 -22 100t-56 32q-21 0 -34.5 -11.5t-13.5 -28.5t11.5 -28.5t28.5 -11.5q26 0 43 20q0 -17 -15.5 -30.5t-39.5 -13.5q-31 0 -49.5 18.5t-18.5 45.5q0 34 24.5 56t60.5 22
q29 0 54 -16.5t35 -38.5q0 88 -91 127q96 -10 117 -88q0 44 -15.5 84t-38 66t-42 41.5t-34.5 22.5q18 -4 37.5 -10.5t49 -24.5t51 -42t35.5 -66t11 -93q-33 -23 -38.5 -70.5t7.5 -109.5q19 52 147 122q69 38 106 71t37 74q0 37 -24.5 64.5t-67.5 34.5q68 7 109.5 -21
t41.5 -80q0 -58 -47 -99h4q47 0 73.5 -31t0.5 -82q4 36 -19 51.5t-72 15.5q-53 0 -120.5 -24t-116 -62t-46.5 -74q-36 7 -68 -5zM160 503q-12 26 -32 26q-18 0 -18 -20t10 -20q11 0 24 18zM606 259q57 0 97.5 -33.5t40.5 -95.5t-41 -98t-103 -36q-48 0 -82 22q17 -39 70 -56
q-125 0 -198 180q-3 -16 -27 -29q1 70 -33.5 122.5t-78.5 53.5q28 -37 28 -91q0 -23 -7.5 -56.5t-7.5 -64.5q0 -55 43 -106q-96 26 -87 116q-8 -20 -34 -32t-49 -12q-75 0 -89 79q35 -38 79 -38t71.5 27t27.5 74q0 32 -12 51.5t-30 19.5q-17 0 -29 -15t-12 -36
q-22 44 6.5 77.5t81.5 33.5q33 0 63.5 -18t48 -37t53 -64t53.5 -66q39 -44 73 -67.5t78 -23.5q43 0 69.5 24.5t26.5 65.5q0 43 -26.5 65.5t-67.5 22.5t-74.5 -23.5t-47.5 -64.5q-5 51 32.5 90t93.5 39zM600 50q-37 0 -66 19.5t-66 59.5l26 -2q13 37 42 59t66 22t58 -20.5
t21 -57.5t-22 -58.5t-59 -21.5zM506 116l-9 1q54 -57 103 -57q31 0 48.5 18.5t17.5 51.5q0 68 -64 68q-34 0 -60 -22t-36 -60z" />
    <glyph glyph-name="L" unicode="L" horiz-adv-x="617" 
d="M10 519q0 41 33 69.5t82 28.5q15 0 37 -5q-23 31 -63 43l15 35q43 -3 77 -17q-18 41 -46 68t-47 36l-8 13l9 19l17 6q21 -5 42 -12.5t55 -27.5t58 -46t40.5 -72t12.5 -101l-5 -7q-31 -36 -24 -203l25 -6q21 -57 49 -100q36 52 110 52q72 0 120 -44.5t48 -111.5
q0 -73 -51 -119.5t-132 -46.5q-104 0 -177 109q-15 -42 -50 -66t-80 -24q-56 0 -95 32.5t-45 84.5l48 16q38 -49 83 -49q48 0 48 67q0 44 -10 44q-7 0 -11 -16t-1 -31l-54 -8q-26 48 -11 88t61 54v-1q6 42 6 157q0 13 -2 33q-25 -25 -66 -25q-42 0 -70 24t-28 60zM25 519
q0 -32 23.5 -53t59.5 -21q29 0 49.5 16t20.5 38l-27 6q-13 -16 -31 -16q-11 0 -18 8.5t-7 21.5q0 14 9 22t24 8q29 0 46 -32.5t17 -89.5q0 -100 -5 -152l18 -9q-52 -2 -75 -40t1 -85l28 4q0 21 9 36t20 15q24 0 24 -56q0 -77 -63 -77q-49 0 -89 46l-26 -9q8 -45 42 -73
t82 -28q50 0 84 32.5t39 84.5q36 -64 79 -100t105 -36q74 0 121 43t47 113q0 63 -44 104.5t-109 41.5q-40 0 -68.5 -18.5t-39.5 -50.5q-37 51 -63 119l-21 5l-2 -1l-4 -7q-6 79 -1 138t26 86l3 5q3 53 -12 96.5t-38 69t-54.5 44.5t-52 26t-39.5 11l-9 -19q27 -13 62 -50.5
t51 -92.5q-34 30 -92 36l-8 -19q55 -23 74 -73q-32 20 -66 20q-43 0 -71.5 -25t-28.5 -63zM269 279q-36 7 -68 -5q5 53 5 153q0 68 -22 100t-56 32q-21 0 -34.5 -11.5t-13.5 -28.5t11.5 -28.5t28.5 -11.5q26 0 43 20q0 -17 -15.5 -30.5t-39.5 -13.5q-31 0 -49.5 18.5
t-18.5 45.5q0 34 24.5 56t60.5 22q29 0 54 -16.5t35 -38.5q0 88 -91 127q96 -10 117 -88q0 44 -15.5 84t-38 66t-42 41.5t-34.5 22.5q18 -4 37.5 -10.5t49 -24.5t51 -42t35.5 -66t11 -93q-26 -32 -30 -107.5t5 -172.5zM110 519q0 -19 13 -19q11 0 21 17l16 -4q-12 26 -32 26
q-18 0 -18 -20zM48 102q42 -49 100 -49q41 0 59.5 24.5t18.5 62.5q0 66 -39 66q-20 0 -32 -18t-12 -43q-22 44 0 77.5t64 33.5q24 0 40.5 -15.5t35.5 -51t27 -46.5q39 -56 73 -82t83 -26q45 0 74.5 26t29.5 72q0 44 -26.5 68.5t-60.5 24.5q-31 0 -49 -17.5t-18 -48.5
q0 -23 14.5 -50.5t46.5 -49.5l-1 -2q-46 16 -77 40t-59.5 81t-47.5 148l2 1q34 -83 85 -149q1 43 29.5 68t70.5 25q56 0 97 -37t41 -99q0 -70 -44.5 -108t-108.5 -38q-30 0 -57 11.5t-45.5 27.5t-39 45t-32.5 51t-30 59q21 -77 -14.5 -126t-88.5 -49q-45 0 -74 27t-35 66z
M209 266q18 -1 31.5 -7t24.5 -19t17.5 -23.5t16.5 -28.5l11 -19t12 -20q41 -59 72 -81.5t72 -22.5q40 0 64.5 24t24.5 64q0 36 -20.5 59.5t-51.5 23.5q-52 0 -52 -56q0 -24 15 -49.5t40 -42.5l4 -12l-1 -2l-19 -5q-76 29 -120 88t-68 172l3 -44q-45 12 -76 1zM288 258
q11 -52 55.5 -120t100.5 -85v-1q-30 5 -56.5 27.5t-45.5 51.5t-35.5 58t-32.5 50.5t-30 24.5q10 1 44 -6zM446 160q0 46 37 46q24 0 40.5 -21t16.5 -52q0 -51 -37 -70l-3 10q-24 14 -39 38.5t-15 48.5z" />
    <glyph glyph-name="M" unicode="M" horiz-adv-x="908" 
d="M10 499q0 41 33 69.5t82 28.5q15 0 37 -5q-23 31 -63 43l15 35q43 -3 77 -17q-18 41 -46 68t-47 36l-8 13l13 27q91 -16 145.5 -72.5t82.5 -165.5q26 -103 53 -153q0 6 2 16l52 8q7 -15 11 -19t14 -4q44 0 81 54.5t41 128.5q1 15 5.5 33.5t19 46.5t37 51.5t64 45
t94.5 30.5l13 -27l-8 -13q-19 -9 -47 -36t-46 -68q47 22 115 16.5t127 -39.5q-73 22 -128.5 11.5t-84.5 -49.5q20 5 37 5q49 0 82 -28.5t33 -69.5q0 -36 -28 -60t-70 -24q-41 0 -66 25q-2 -20 -2 -33q0 -63 5 -116q47 -19 61 -56.5t-11 -80.5l-53 8q3 13 -0.5 25t-10.5 12
q-11 0 -11 -27t17 -45t43 -18q41 0 71 38l48 -16q-6 -48 -40 -75.5t-87 -27.5q-26 0 -55 12q-25 -62 -108 -85l-28 26q41 48 41 101q0 24 -6 57q-6 28 -6 46q0 19 4 31q-50 -20 -67 -80l-29 2q-7 49 21 90.5t81 60.5l-4 2q15 99 16 136q-26 -37 -61 -66h5
q11 -50 -18.5 -82.5t-84.5 -32.5q-116 0 -179 150q4 -38 14 -105l-4 -2q69 -24 92 -81l-43 -22q-17 19 -43 30q4 -13 4 -31t-6 -46q-6 -33 -6 -57q0 -53 41 -101l-28 -26q-83 23 -108 85q-29 -12 -55 -12q-67 0 -101.5 42t-24.5 112l29 2q11 -34 35 -54.5t54 -20.5
q25 0 42.5 18t17.5 44q0 28 -11 28q-7 0 -10.5 -11.5t-0.5 -25.5l-53 -8q-25 43 -11 80.5t61 56.5q5 53 5 116q0 13 -2 33q-25 -25 -66 -25q-42 0 -70 24t-28 60zM25 499q0 -32 23.5 -53t59.5 -21q29 0 49.5 16t20.5 38l-27 6q-13 -16 -31 -16q-11 0 -18 8.5t-7 21.5
q0 14 9 22t24 8q29 0 46 -32.5t17 -89.5q0 -71 -6 -122q-42 -14 -58 -47t3 -72l28 4q0 17 8.5 29t19.5 12q10 0 17.5 -12t7.5 -28q0 -31 -21.5 -51.5t-53.5 -20.5q-34 0 -63 22t-40 60q-9 -66 21.5 -104.5t89.5 -38.5q35 0 65 20q16 -65 93 -91l16 15q-39 48 -39 100
q0 24 6 59q6 26 6 44q0 29 -12 48q42 -8 69 -33l23 12q-30 58 -101 74l14 9q-11 78 -13.5 104.5t2.5 79.5q61 -223 192 -223q45 0 71 27t19 69l-23 2q63 38 104 120q8 -43 -12 -179l14 -9q-55 -12 -88 -53t-25 -94q12 43 41 66t63 28q-12 -19 -12 -48q0 -18 6 -44
q6 -35 6 -59q0 -52 -39 -100l16 -15q77 26 93 91q30 -20 65 -20q45 0 74.5 23t36.5 64l-26 9q-32 -35 -77 -35q-32 0 -53.5 20.5t-21.5 51.5q0 16 7.5 28t17.5 12q11 0 19.5 -12t8.5 -29l28 -4q19 39 3 72t-58 47q-6 51 -6 122q0 57 17 89.5t46 32.5q15 0 24 -8t9 -22
q0 -13 -7 -21.5t-18 -8.5q-18 0 -31 16l-27 -6q0 -22 20.5 -38t49.5 -16q36 0 59.5 21t23.5 53q0 38 -28.5 63t-71.5 25q-34 0 -66 -20q14 39 53 63t93 25q-109 21 -172 -32q16 55 51 92.5t62 50.5l-9 19q-47 -10 -83.5 -30.5t-56.5 -42.5t-33 -48t-17 -43t-5 -32
q-4 -79 -45 -135.5t-92 -56.5q-24 0 -35 21l-28 -4q-4 -36 13.5 -57.5t51.5 -21.5q31 0 59 15q-17 -24 -53 -24q-30 0 -55 18.5t-43.5 53.5t-31 72t-25.5 87q-26 102 -74.5 156.5t-128.5 71.5l-9 -19q27 -13 62 -50.5t51 -92.5q-34 30 -92 36l-8 -19q55 -23 74 -73
q-32 20 -66 20q-43 0 -71.5 -25t-28.5 -63zM40 499q0 34 24.5 56t60.5 22q29 0 54 -16.5t35 -38.5q0 88 -91 127q96 -10 117 -88q0 44 -15.5 84t-38 66t-42 41.5t-34.5 22.5q84 -18 126.5 -75t64.5 -145q13 -51 26.5 -88.5t33.5 -74.5t48 -56.5t62 -19.5q49 0 69 34
q6 -40 -17 -62t-58 -22q-129 0 -188 257q-16 -22 -20 -60.5t-1 -70t13 -98.5q-36 7 -68 -5q5 53 5 118q0 68 -22 100t-56 32q-21 0 -34.5 -11.5t-13.5 -28.5t11.5 -28.5t28.5 -11.5q26 0 43 20q0 -17 -15.5 -30.5t-39.5 -13.5q-31 0 -49.5 18.5t-18.5 45.5zM415 413
q14 -26 48 -26q57 0 102 58t50 143q1 19 8 41.5t25 53t57 55.5t93 37q-15 -7 -34.5 -22.5t-42 -41.5t-38 -66t-15.5 -84q21 78 117 88q-91 -39 -91 -127q10 22 35 38.5t54 16.5q36 0 60.5 -22t24.5 -56q0 -27 -18.5 -45.5t-49.5 -18.5q-24 0 -39.5 13.5t-15.5 30.5
q17 -20 43 -20q17 0 28.5 11.5t11.5 28.5t-13.5 28.5t-34.5 11.5q-34 0 -56 -32t-22 -100q0 -65 5 -118q-32 12 -68 5q9 62 12 92.5t1 68t-15 59.5q-26 -72 -74 -120.5t-98 -48.5q-29 0 -41 20t-9 48zM110 499q0 -19 13 -19q11 0 21 17l16 -4q-12 26 -32 26q-18 0 -18 -20z
M798 499q0 20 -18 20q-20 0 -32 -26l16 4q10 -17 21 -17q13 0 13 19zM230 281q40 0 75 -19t53 -55q-22 21 -52.5 30t-54.5 7q10 -5 17.5 -22t7.5 -37q0 -16 -6 -46t-6 -57q0 -55 43 -106q-87 30 -87 116q-8 -21 -31 -32.5t-45 -11.5q-82 0 -96 79q35 -38 88 -38
q37 0 63.5 23.5t26.5 58.5q0 20 -11 35t-29 15t-30.5 -15t-12.5 -36q-22 44 6.5 77.5t80.5 33.5zM678 281q52 0 80.5 -33.5t6.5 -77.5q0 21 -12.5 36t-30.5 15t-29 -15t-11 -35q0 -35 26.5 -58.5t63.5 -23.5q53 0 88 38q-14 -79 -96 -79q-22 0 -45 11.5t-31 32.5
q0 -86 -87 -116q43 51 43 106q0 27 -6 57t-6 46q0 20 7.5 37t17.5 22q-24 2 -54.5 -7t-52.5 -30q18 36 53 55t75 19z" />
    <glyph glyph-name="N" unicode="N" horiz-adv-x="876" 
d="M768 415q-41 0 -66 25q-2 -20 -2 -33q0 -63 5 -116q47 -19 61 -56.5t-11 -80.5l-53 8q3 13 -2 26t-10 13q-1 0 -3.5 -4.5t-4.5 -12t-2 -13.5q0 -26 17.5 -44t42.5 -18q41 0 71 38l48 -16q-6 -48 -40 -75.5t-87 -27.5q-26 0 -55 12q-25 -62 -108 -85l-28 26q41 48 41 101
v10q-20 -9 -43 -9q-79 0 -165 118l-29 -15q-17 19 -43 30q4 -13 4 -31t-6 -46q-6 -33 -6 -57q0 -53 41 -101l-28 -26q-83 23 -108 85q-29 -12 -55 -12q-67 0 -101.5 42t-24.5 112l29 2q11 -34 35 -54.5t54 -20.5q25 0 42.5 18t17.5 44q0 6 -2 13.5t-4.5 12t-3.5 4.5
q-5 0 -10 -13t-2 -26l-53 -8q-25 43 -11 80.5t61 56.5q5 53 5 116q0 13 -2 33q-25 -25 -66 -25q-42 0 -70 24t-28 60q0 41 33 69.5t82 28.5q15 0 37 -5q-23 31 -63 43l15 35q43 -3 77 -17q-18 41 -46 68t-47 36l-8 13l9 19l17 6q18 -4 37.5 -10.5t50.5 -23.5t54.5 -39.5
t43 -60t22.5 -82.5v-3q0 -9 1 -10v-1q5 -79 56.5 -186.5t107.5 -166.5q27 53 91 77l-4 2q18 122 14.5 169t-29.5 65l-9 11q-4 55 12.5 101t40.5 72t58 46t55 27.5t42 12.5l17 -6l9 -19l-8 -13q-19 -9 -47 -36t-46 -68q47 22 115 16.5t127 -39.5q-73 22 -128.5 11.5
t-84.5 -49.5q20 5 37 5q49 0 82 -28.5t33 -69.5q0 -36 -28 -60t-70 -24zM725 485l-27 -6q0 -22 20.5 -38t49.5 -16q36 0 59.5 21t23.5 53q0 38 -28.5 63t-71.5 25q-34 0 -66 -20q14 39 53 63t93 25q-109 21 -172 -32q16 55 51 92.5t62 50.5l-9 19q-19 -4 -39.5 -11t-52 -26
t-54.5 -44.5t-38 -69t-12 -96.5l6 -7q32 -25 33.5 -88t-14.5 -148l14 -9q-40 -9 -70 -35t-40 -62q-61 51 -120.5 169.5t-65.5 205.5q-1 4 -1 12v3q-4 54 -28.5 95t-59.5 63t-60 32.5t-48 15.5l-9 -19q27 -13 62 -50.5t51 -92.5q-34 30 -92 36l-8 -19q55 -23 74 -73
q-32 20 -66 20q-43 0 -71.5 -25t-28.5 -63q0 -32 23.5 -53t59.5 -21q29 0 49.5 16t20.5 38l-27 6q-13 -16 -31 -16q-11 0 -18 8.5t-7 21.5q0 14 9 22t24 8q29 0 46 -32.5t17 -89.5q0 -71 -6 -122q-42 -14 -58 -47t3 -72l28 4q0 17 8.5 29t19.5 12q10 0 17.5 -12t7.5 -28
q0 -31 -21.5 -51.5t-53.5 -20.5q-34 0 -63 22t-40 60q-9 -66 21.5 -104.5t89.5 -38.5q35 0 65 20q16 -65 93 -91l16 15q-39 48 -39 100q0 24 6 59q6 26 6 44q0 29 -12 48q42 -8 69 -33l23 12q-30 58 -101 74l14 9q-14 90 -15 134q21 -55 49.5 -110.5t63.5 -108t77 -85
t80 -32.5q39 0 56 25q2 -24 2 -36q0 -52 -39 -100l16 -15q77 26 93 91q30 -20 65 -20q45 0 74.5 23t36.5 64l-26 9q-32 -35 -77 -35q-32 0 -53.5 20.5t-21.5 51.5q0 16 7.5 28t17.5 12q11 0 19.5 -12t8.5 -29l28 -4q19 39 3 72t-58 47q-6 51 -6 122q0 57 17 89.5t46 32.5
q15 0 24 -8t9 -22q0 -13 -7 -21.5t-18 -8.5q-18 0 -31 16zM546 154q34 0 40 26q11 -36 -3.5 -56.5t-43.5 -20.5q-54 0 -115.5 75t-102.5 162.5t-58 154.5q-8 -22 -8 -58.5t2.5 -59.5t11.5 -83q-36 7 -68 -5q5 53 5 118q0 68 -22 100t-56 32q-21 0 -34.5 -11.5t-13.5 -28.5
t11.5 -28.5t28.5 -11.5q26 0 43 20q0 -17 -15.5 -30.5t-39.5 -13.5q-31 0 -49.5 18.5t-18.5 45.5q0 34 24.5 56t60.5 22q29 0 54 -16.5t35 -38.5q0 88 -91 127q96 -10 117 -88q0 44 -15.5 84t-38 66t-42 41.5t-34.5 22.5q16 -3 34 -9t44.5 -21t47.5 -35t38 -54.5t20 -76.5
v-1q0 -2 0.5 -7t0.5 -7q5 -67 46 -164t99.5 -171.5t105.5 -74.5zM768 435q-24 0 -39.5 13.5t-15.5 30.5q17 -20 43 -20q17 0 28.5 11.5t11.5 28.5t-13.5 28.5t-34.5 11.5q-34 0 -56 -32t-22 -100q0 -65 5 -118q-32 12 -68 5q17 85 14.5 151t-39.5 94q-3 51 11 93t35.5 66
t51 42t49 24.5t37.5 10.5q-15 -7 -34.5 -22.5t-42 -41.5t-38 -66t-15.5 -84q21 78 117 88q-91 -39 -91 -127q10 22 35 38.5t54 16.5q36 0 60.5 -22t24.5 -56q0 -27 -18.5 -45.5t-49.5 -18.5zM160 493q-12 26 -32 26q-18 0 -18 -20t10 -20q11 0 24 18zM716 493l16 4
q13 -18 24 -18q10 0 10 20t-18 20q-20 0 -32 -26zM293 338l7 -47l-4 -2q15 -5 30 -13q-12 20 -33 62zM143 170q-22 44 6.5 77.5t80.5 33.5q40 0 75 -19t53 -55q-22 21 -52.5 30t-54.5 7q10 -5 17.5 -22t7.5 -37q0 -16 -6 -46t-6 -57q0 -55 43 -106q-87 30 -87 116
q-8 -21 -31 -32.5t-45 -11.5q-82 0 -96 79q35 -38 88 -38q37 0 63.5 23.5t26.5 58.5q0 20 -11 35t-29 15t-30.5 -15t-12.5 -36zM518 207q18 36 53 55t75 19q52 0 80.5 -33.5t6.5 -77.5q0 21 -12.5 36t-30.5 15t-29 -15t-11 -35q0 -35 26.5 -58.5t63.5 -23.5q53 0 88 38
q-14 -79 -96 -79q-22 0 -45 11.5t-31 32.5q0 -86 -87 -116q43 51 43 106q0 27 -6 57t-6 46q0 20 7.5 37t17.5 22q-24 2 -54.5 -7t-52.5 -30zM510 178q30 45 87 55q-12 -19 -12 -48v-3h-14q-3 -18 -25 -18q-16 0 -36 14zM570 192q0 12 4 24q-26 -10 -46 -36q12 -6 18 -6
t7.5 1.5t2.5 8.5z" />
    <glyph glyph-name="O" unicode="O" horiz-adv-x="709" 
d="M687 344q17 -164 -71.5 -269t-243.5 -105q-160 0 -256 112t-96 297l2 5l13 38.5l13.5 43.5t12.5 53l8.5 55.5t4 63.5t-4.5 66l24 18h12l24 -13q14 -59 10 -83l1 2q2 3 3 4q111 113 249 113q124 0 203 -79t79 -203q0 -54 -14 -104h2zM372 -20q148 0 232 101t68 259l-15 9
h-1l-15 -9q-5 -91 -38 -159t-76 -99q4 78 -82 192q39 -108 18 -168.5t-96 -60.5q-73 0 -123 51t-50 125q0 89 52 89q34 0 54 -36l28 5q-1 38 -25 62t-62 24q-44 0 -74.5 -29t-38.5 -78q-11 44 -11 97q0 57 17.5 111.5t50.5 99.5t87 72.5t120 27.5q73 0 126 -41t71 -109
q-70 65 -164 51v-20q60 -7 100.5 -57t40.5 -118q0 -79 -44 -146l21 -14q116 87 116 251q0 119 -74.5 195.5t-192.5 76.5q-130 0 -238 -110q-13 -14 -16.5 -9.5t-22.5 88.5l-15 8h-1l-15 -11q16 -138 -48 -320l-1 -3q0 -180 92 -289t245 -109zM656 339h1q10 -96 -20 -174.5
t-99 -126.5t-166 -48q-81 0 -144.5 33t-101 88.5t-57 123.5t-19.5 143q65 181 49 324h1q23 -100 44 -100q6 0 21 16q105 107 227 107q115 0 183.5 -75t68.5 -187q0 -160 -110 -243q47 71 47 152q0 74 -45 126t-109 59q59 8 109.5 -18t75.5 -74q-5 94 -66.5 152.5
t-153.5 58.5t-160 -50t-99 -121.5t-31 -149.5q0 -97 45 -192q-21 84 10 138t84 54q32 0 51.5 -21.5t20.5 -54.5q-23 41 -67 41q-67 0 -67 -99q0 -78 55 -132t133 -54q26 0 48 7.5t40.5 24.5t26 49.5t0.5 77.5q39 -71 27 -135q51 21 96 98t51 182zM241 375q46 0 75 -29.5
t27 -74.5l-52 -9q-19 38 -45 38q-37 0 -37 -79q0 -70 45.5 -118t112.5 -48q66 0 83.5 57.5t-19.5 158.5l26 9q77 -102 84 -169q55 59 76 159q-32 -43 -74 -72l-39 26q47 67 47 148q0 68 -41.5 117t-99.5 49v37q80 16 151 -24q-24 50 -68 77.5t-101 27.5q-83 0 -144 -45.5
t-88.5 -112t-27.5 -143.5q0 -15 2 -39q37 59 107 59z" />
    <glyph glyph-name="P" unicode="P" horiz-adv-x="647" 
d="M10 499q0 41 33 69.5t82 28.5q15 0 37 -5q-23 31 -63 43l15 35q43 -3 77 -17q-18 41 -46 68t-47 36l-8 13l9 19l17 6q21 -5 43 -13.5t54.5 -26.5t59.5 -49.5t40 -72.5q25 53 71.5 83t105.5 30q82 0 137 -51.5t55 -127.5q0 -47 -19.5 -90t-55.5 -78.5t-63.5 -57
t-67.5 -47.5q-70 -49 -48 -70l-33 -24l-12 6l-38 -20q-17 19 -43 30q4 -13 4 -31t-6 -46q-6 -33 -6 -57q0 -53 41 -101l-28 -26q-83 23 -108 85q-29 -12 -55 -12q-67 0 -101.5 42t-24.5 112l29 2q11 -34 35 -54.5t54 -20.5q25 0 42.5 18t17.5 44q0 28 -11 28q-8 0 -11 -11.5
t0 -25.5l-53 -8q-25 43 -11 80.5t61 56.5q5 53 5 116q0 13 -2 33q-25 -25 -66 -25q-42 0 -70 24t-28 60zM25 499q0 -32 23.5 -53t59.5 -21q29 0 49.5 16t20.5 38l-27 6q-13 -16 -31 -16q-11 0 -18 8.5t-7 21.5q0 14 9 22t24 8q29 0 46 -32.5t17 -89.5q0 -71 -6 -122
q-42 -14 -58 -47t3 -72l28 4q0 17 8.5 29t19.5 12q25 0 25 -40q0 -31 -21.5 -51.5t-53.5 -20.5q-34 0 -63 22t-40 60q-9 -66 21.5 -104.5t89.5 -38.5q35 0 65 20q16 -65 93 -91l16 15q-39 48 -39 100q0 24 6 59q6 26 6 44q0 29 -12 48q42 -8 69 -33l23 12l-6 10
q14 -7 26 -11l19 14q-8 15 5 32.5t53 44.5q31 20 50.5 34.5t51 42.5t50 53.5t33 61.5t14.5 73q0 73 -50.5 121t-126.5 48q-71 0 -119.5 -45.5t-61.5 -121.5q-2 46 -19.5 83.5t-40 60t-52 39t-48.5 23t-36 10.5l-9 -19q27 -13 62 -50.5t51 -92.5q-34 30 -92 36l-8 -19
q55 -23 74 -73q-32 20 -66 20q-43 0 -71.5 -25t-28.5 -63zM269 294q-36 7 -68 -5q5 53 5 118q0 68 -22 100t-56 32q-21 0 -34.5 -11.5t-13.5 -28.5t11.5 -28.5t28.5 -11.5q26 0 43 20q0 -17 -15.5 -30.5t-39.5 -13.5q-31 0 -49.5 18.5t-18.5 45.5q0 34 24.5 56t60.5 22
q29 0 54 -16.5t35 -38.5q0 88 -91 127q96 -10 117 -88q0 44 -15.5 84t-38 66t-42 41.5t-34.5 22.5q18 -4 37.5 -10.5t49 -24.5t51 -42t35.5 -66t11 -93q-37 -28 -39.5 -94t14.5 -151zM304 424h1q12 -116 86 -116q59 0 129.5 77.5t70.5 172.5q0 55 -30 86t-77 31
q-53 0 -100 -44t-61 -121h-2q-4 104 47.5 160t121.5 56q69 0 115.5 -45t46.5 -114q0 -44 -18 -84.5t-52.5 -74.5t-59 -53t-62.5 -45q-43 -29 -58.5 -48.5t-5.5 -40.5q-101 32 -92 203zM270 286l14 9q-16 85 -14.5 148t33.5 88l3 4v-25l15 -10h2l15 8q13 69 54 113t92 44
q41 0 66.5 -29t25.5 -78q0 -93 -65.5 -166.5t-119.5 -73.5q-59 0 -71 107l-15 9h-1l-15 -9q-5 -105 30 -158q-20 12 -49 19zM285 436l14 8h11l25 -15q9 -101 56 -101q49 0 109.5 70t60.5 160q0 44 -21 70.5t-56 26.5q-45 0 -83 -43t-49 -109l-24 -13h-13l-20 13
q-11 -24 -10 -67zM110 499q0 -20 11 -20q10 0 23 18l16 -4q-12 26 -32 26q-18 0 -18 -20zM230 281q40 0 75 -19t53 -55q-22 21 -52.5 30t-54.5 7q10 -5 17.5 -22t7.5 -37q0 -16 -6 -46t-6 -57q0 -55 43 -106q-87 30 -87 116q-8 -21 -31 -32.5t-45 -11.5q-82 0 -96 79
q35 -38 88 -38q37 0 63.5 23.5t26.5 58.5q0 20 -11 35t-29 15t-30.5 -15t-12.5 -36q-22 44 6.5 77.5t80.5 33.5z" />
    <glyph glyph-name="Q" unicode="Q" horiz-adv-x="704" 
d="M690 -119l2 -14v-2l-5 -7q-44 -42 -109.5 -67.5t-131.5 -25.5q-102 0 -197.5 43t-138.5 84l-7 10v21q92 19 213 50q-134 18 -215 128t-81 277v3q46 182 29 323l24 18h12l24 -13q14 -59 10 -83l1 2q2 3 3 4q111 113 249 113q121 0 198.5 -79t77.5 -203q0 -54 -14 -105
l32 -12q34 -218 -134 -340h9q42 -37 74 -61l16 -13q54 -45 59 -51zM677 -135v2l-2 11q-11 11 -69 59q-30 23 -72 59l-21 -1l-4 -4l1 -15q40 -33 43.5 -70.5t-28 -62.5t-84.5 -25q-56 0 -103.5 20.5t-74.5 56.5q228 69 320.5 174.5t68.5 270.5l-22 8l-2 -1l-8 -9
q-1 -89 -34.5 -157t-78.5 -100q3 48 -24 103q73 41 111.5 113.5t38.5 165.5q0 119 -73 195.5t-188 76.5q-130 0 -238 -110q-13 -14 -16.5 -9.5t-22.5 88.5l-15 8h-1l-15 -11q16 -140 -29 -321v-2q0 -177 91 -287.5t237 -110.5l22 1q-146 -40 -267 -65v-12l5 -7
q46 -42 136.5 -82t186.5 -40q63 0 125.5 24.5t105.5 65.5zM524 -12l57.5 -47l51 -41.5t31.5 -28.5l-1 -2q-45 -42 -103.5 -63t-113.5 -21q-93 0 -179.5 38.5t-133.5 80.5v3q265 52 347 106q-52 -23 -117 -23q-101 0 -174 57.5t-106 143.5t-33 187q45 183 29 324h1
q23 -100 44 -100q6 0 21 16q105 107 227 107q112 0 179 -75t67 -187q0 -159 -104 -243q41 70 41 156q0 76 -42.5 125t-105.5 56q59 8 109.5 -18t75.5 -74q-5 94 -66.5 152.5t-153.5 58.5q-89 0 -154.5 -50t-95.5 -121.5t-30 -149.5q0 -97 35 -192q-21 84 10 138t84 54
q32 0 51.5 -21.5t20.5 -54.5q-23 41 -67 41q-67 0 -67 -99q0 -78 55 -132t133 -54q140 0 115 159q39 -71 27 -135q53 22 99 98.5t47 180.5l2 1q11 -75 -3 -137t-46.5 -107.5t-87 -82.5t-115.5 -63t-142 -49q24 -38 76 -65t122 -27q56 0 92.5 26t35 68t-48.5 82zM540 376
q0 -106 -61 -184q-20 37 -50 77q69 -224 -82 -224q-73 0 -123 51t-50 125q0 89 52 89q34 0 54 -36l28 5q-1 38 -25 62t-62 24q-40 0 -69 -24.5t-40 -65.5q-5 30 -5 80q0 57 17 111.5t48.5 99.5t83.5 72.5t116 27.5q72 0 125 -40.5t71 -108.5q-32 29 -75.5 42.5t-87.5 7.5
v-20q60 -7 97.5 -54.5t37.5 -116.5zM415 266l26 9q23 -30 40 -58q44 68 44 159q0 69 -38 115t-97 47v37q78 16 150 -24q-23 50 -67 77.5t-101 27.5q-80 0 -138.5 -45.5t-85 -112t-26.5 -143.5v-28q38 48 99 48q46 0 75 -29.5t27 -74.5l-52 -9q-19 38 -45 38q-37 0 -37 -79
q0 -70 45.5 -118t112.5 -48q132 0 68 211zM600 280q-35 -59 -100 -99q18 -39 21 -72q62 63 79 171zM441 -172q75 0 93.5 50t-39.5 94v9q-83 -50 -211 -91q56 -62 157 -62z" />
    <glyph glyph-name="R" unicode="R" horiz-adv-x="733" 
d="M748 97q0 -42 -25.5 -73.5t-68.5 -42.5l10 -7v-9l-20 -16q-114 -18 -157 24.5t-55 153.5l-34 7q6 100 -22 123q-11 -2 -16 -8q20 -19 28 -41l-43 -22q-17 19 -43 30q4 -13 4 -31t-6 -46q-6 -33 -6 -57q0 -53 41 -101l-28 -26q-83 23 -108 85q-29 -12 -55 -12
q-67 0 -101.5 42t-24.5 112l29 2q11 -34 35 -54.5t54 -20.5q26 0 43 18.5t17 46.5q0 25 -12 25q-7 0 -10 -11.5t0 -25.5l-53 -8q-25 43 -11 80.5t61 56.5q5 53 5 116q0 13 -2 33q-25 -25 -66 -25q-42 0 -70 24t-28 60q0 41 33 69.5t82 28.5q15 0 37 -5q-23 31 -63 43l15 35
q43 -3 77 -17q-18 41 -46 68t-47 36l-8 13l9 19l17 6q21 -5 42 -13t53 -25t59 -47t41 -69q48 112 166 112q78 0 127.5 -50t49.5 -129q0 -52 -21.5 -96.5t-57 -75.5t-74.5 -52t-80 -33q40 -22 65.5 -59.5t45.5 -102.5q30 -96 71 -96q35 0 35 39q0 35 -22.5 64.5t-52.5 33.5
l-19 16v8l22 16q77 5 129.5 -35t52.5 -104zM608 -15q54 0 89.5 31.5t35.5 80.5q0 58 -46 95t-114 34l-14 -10v-1l12 -10q34 -7 58 -38t24 -69q0 -49 -50 -49q-53 0 -85 103q-22 73 -50.5 110.5t-77.5 56.5q41 9 81.5 28t79.5 49.5t63.5 76.5t24.5 101q0 75 -45.5 122
t-116.5 47q-136 0 -168 -162q-4 43 -22.5 79t-40.5 56.5t-51 36.5t-47 22t-35 10l-9 -19q27 -13 62 -50.5t51 -92.5q-34 30 -92 36l-8 -19q55 -23 74 -73q-32 20 -66 20q-43 0 -71.5 -25t-28.5 -63q0 -32 23.5 -53t59.5 -21q29 0 49.5 16t20.5 38l-27 6q-13 -16 -31 -16
q-11 0 -18 8.5t-7 21.5q0 14 9 22t24 8q29 0 46 -32.5t17 -89.5q0 -71 -6 -122q-42 -14 -58 -47t3 -72l28 4q0 17 8.5 29t19.5 12q10 0 17.5 -12t7.5 -28q0 -31 -21.5 -51.5t-53.5 -20.5q-34 0 -63 22t-40 60q-9 -66 21.5 -104.5t89.5 -38.5q35 0 65 20q16 -65 93 -91l16 15
q-39 48 -39 100q0 24 6 59q6 26 6 44q0 29 -12 48q42 -8 69 -33l23 12q-13 28 -41 50q23 9 44 9q45 -16 39 -130l27 -6l5 8q3 -33 7.5 -56.5t11 -47t16 -37t23.5 -26.5t32.5 -16.5t43.5 -6t57 4.5l13 10v2l-15 10q-57 -1 -83 16q27 -11 57 -11zM201 289q5 53 5 118
q0 68 -22 100t-56 32q-21 0 -34.5 -11.5t-13.5 -28.5t11.5 -28.5t28.5 -11.5q26 0 43 20q0 -17 -15.5 -30.5t-39.5 -13.5q-31 0 -49.5 18.5t-18.5 45.5q0 34 24.5 56t60.5 22q29 0 54 -16.5t35 -38.5q0 88 -91 127q96 -10 117 -88q0 44 -15.5 84t-38 66t-42 41.5t-34.5 22.5
q18 -4 37.5 -10.5t49 -24.5t51 -42t35.5 -66t11 -93q-37 -28 -39.5 -94t14.5 -151q-36 7 -68 -5zM574 216q60 2 102 -30.5t42 -88.5q0 -52 -34 -77t-76 -25q-76 0 -110 68q11 -51 39.5 -73t96.5 -20v-2q-26 -4 -46.5 -4t-36.5 2.5t-28.5 11.5t-21.5 17.5t-16 26.5t-11 33
t-8 42.5t-6 49t-5 58.5q-4 -28 -27 -64q4 84 -24 121t-93 18q-28 24 -36 95t17 140l2 -1q-11 -74 9 -117.5t68 -43.5q72 0 133 61.5t61 155.5q0 53 -26.5 83.5t-69.5 30.5q-62 0 -102 -60.5t-51 -158.5h-2q-1 147 45.5 207.5t117.5 60.5q63 0 105 -43.5t42 -115.5
q0 -62 -31.5 -112.5t-78 -79t-91.5 -44t-81 -16.5q63 -14 99 -48.5t63 -124.5q34 -110 99 -110q27 0 46 14.5t19 44.5q0 41 -27 74.5t-67 42.5v1zM371 363q-33 0 -49.5 25t-14.5 72l7 -5h2l15 9q10 97 47.5 153.5t90.5 56.5q37 0 59 -28t22 -76q0 -83 -54 -145t-125 -62z
M346 460l-24 -15q0 -72 49 -72q65 0 114.5 59.5t49.5 137.5q0 43 -18 68.5t-48 25.5q-46 0 -79.5 -55.5t-43.5 -148.5zM160 493q-12 26 -32 26q-18 0 -18 -20q0 -19 13 -19q11 0 21 17zM143 170q-22 44 6.5 77.5t80.5 33.5q40 0 75 -19t53 -55q-22 21 -52.5 30t-54.5 7
q10 -5 17.5 -22t7.5 -37q0 -16 -6 -46t-6 -57q0 -55 43 -106q-87 30 -87 116q-8 -21 -31 -32.5t-45 -11.5q-82 0 -96 79q35 -38 88 -38q37 0 63.5 23.5t26.5 58.5q0 20 -11 35t-29 15t-30.5 -15t-12.5 -36z" />
    <glyph glyph-name="S" unicode="S" horiz-adv-x="634" 
d="M486 346q48 -15 77 -56.5t29 -98.5q0 -76 -86 -148.5t-215 -72.5q-100 0 -170 60t-73 146q-9 -9 -16 -14l-40 7l-5 11l1 13q27 36 82 75.5t113 64.5q-56 35 -88 87t-32 110q0 91 82.5 156.5t195.5 65.5q81 0 137.5 -39.5t73.5 -105.5q10 23 16 57l24 13h13l24 -18
q-12 -234 -244 -262l-28 17v7l12 14q76 41 76 120q0 54 -28.5 87t-75.5 33q-68 0 -68 -59q0 -45 48 -66l-14 -33q-44 -3 -79 15.5t-49 49.5q-9 -24 -9 -52q0 -54 37 -104q21 60 123 76l20 -33q-39 -19 -42.5 -64t30.5 -77q30 37 83 55t114 9l20 -16v-8l-24 -16q-24 0 -45 -6
zM291 -20q123 0 204.5 68.5t81.5 142.5q0 63 -35 104.5t-89 46.5q28 18 72 20l15 10v1l-13 10q-93 13 -156 -40t-39 -125h28q18 56 73 56q25 0 43.5 -26t18.5 -62q0 -52 -32.5 -92.5t-88.5 -59.5q60 55 19 135l-28 -4q-4 -49 -34 -79.5t-75 -30.5q-50 0 -80.5 33.5
t-30.5 88.5q0 82 74 134l4 12l-1 1q51 -22 104 -28l10 18q-42 34 -43.5 82t39.5 76l-11 18q-53 -10 -80 -37t-22 -60q-64 61 -64 137q0 57 32 95v-10q0 -37 31.5 -62.5t77.5 -25.5l8 19q-46 26 -46 70q0 32 22 50.5t61 18.5q53 0 86 -36t33 -94q0 -82 -80 -127l-8 -9v-1
l17 -10q212 28 225 248l-15 11h-2l-15 -8q-12 -60 -39 -97q-2 80 -57.5 130t-144.5 50q-107 0 -185 -63t-78 -149q0 -64 38.5 -118.5t103.5 -85.5l-16 4q-57 -22 -114 -61t-87 -78l-1 -10l2 -4l23 -4q32 27 34 26.5t2 -17.5q0 -85 66.5 -143.5t161.5 -58.5zM324 480
q-39 -26 -45 -62.5t9.5 -64.5t38.5 -47q-90 9 -162 70.5t-72 153.5q0 82 73 142t175 60q85 0 142 -54.5t43 -152.5q18 17 28 29.5t22.5 39t20.5 63.5h2q-12 -213 -212 -239v1q88 49 88 136q0 61 -36.5 100.5t-97.5 39.5q-47 0 -72.5 -22.5t-25.5 -56.5q0 -48 53 -79
q-38 0 -66 22t-28 56q0 29 15 48q-37 -19 -57 -54.5t-20 -78.5q0 -45 29 -95.5t84 -80.5q-19 23 -20 48t22 47t69 31zM422 331q58 8 99 -31t41 -109q0 -72 -76.5 -136.5t-194.5 -64.5q-89 0 -151 55.5t-62 136.5q0 27 -13 27q-15 0 -48 -28l-2 4q34 43 90 80t104 56l1 -2
q-80 -56 -80 -142q0 -57 34 -94.5t92 -37.5q53 0 86.5 34t37.5 85q25 -54 5 -94t-70 -58q95 8 145 59.5t50 114.5q0 43 -23.5 70.5t-53.5 27.5q-33 0 -56 -18.5t-31 -44.5q-22 68 36.5 115.5t142.5 36.5v-1q-68 -2 -103 -41zM403 181q36 -63 10 -116q67 44 67 121
q0 31 -14.5 54.5t-32.5 23.5q-47 0 -61 -56h-52q-16 40 -3 79q-44 6 -83 21l-1 -2q-73 -48 -73 -129q0 -50 26.5 -81t69.5 -31q41 0 67 29.5t27 78.5z" />
    <glyph glyph-name="T" unicode="T" horiz-adv-x="780" 
d="M751 718q59 -16 59 -67q0 -30 -23 -51t-64 -30l-20 22v14q7 5 7 21q0 9 -7 12t-29 3q-48 0 -76 -17.5t-25 -45.5l-50 -11q-13 18 -17 33l-6 -3h-4q5 -33 2 -63l-9 -10q-26 -19 -29 -66t14 -168l-4 -2q69 -24 92 -81l-43 -22q-17 19 -43 30q4 -13 4 -31t-6 -46
q-6 -33 -6 -57q0 -53 41 -101l-28 -26q-83 23 -108 85q-29 -12 -55 -12q-67 0 -101.5 42t-24.5 112l29 2q11 -34 35 -54.5t54 -20.5q26 0 43 18.5t17 46.5q0 25 -11 25q-6 0 -10 -12t-1 -25l-53 -8q-25 43 -11 80.5t61 56.5q5 53 5 116q0 13 -2 33q-25 -25 -66 -25
q-42 0 -70 24t-28 60q0 46 41 76l-18 4q2 31 -23.5 47.5t-77.5 16.5q-22 0 -29 -3.5t-7 -12.5q0 -14 7 -21v-14l-20 -22q-41 9 -64 30t-23 51q0 51 59 67q-26 52 25 78l40 -15q-1 -32 19.5 -42.5t85.5 -20.5q96 -15 122 -52q26 -5 44 -13q-18 41 -46 68t-47 36l-8 13l13 28
q64 -13 114 -45t77 -77q32 29 113 42q36 6 49.5 8.5t30 9.5t21 17.5t4.5 27.5l40 15q51 -26 25 -78zM729 582q66 17 66 69q0 24 -17 40.5t-47 20.5q14 20 12.5 40.5t-19.5 31.5l-23 -9q-1 -33 -25.5 -44.5t-84.5 -21.5q-5 -1 -8 -1q-104 -16 -116 -60q-45 105 -180 137
l-9 -19q27 -13 62 -50.5t51 -92.5q-32 27 -81 35q-20 35 -113 50q-78 13 -97 25q-20 14 -21 42l-23 9q-18 -11 -19.5 -31.5t12.5 -40.5q-30 -4 -47 -20.5t-17 -40.5q0 -52 66 -69l15 17q-11 11 -11 28q0 26 51 26q54 0 84.5 -17.5t31.5 -49.5l27 -6q17 26 14 55
q14 -12 18 -27l28 -1q4 10 6 20q34 -22 50 -60q-32 20 -66 20q-43 0 -71.5 -25t-28.5 -63q0 -32 23.5 -53t59.5 -21q29 0 49.5 16t20.5 38l-27 6q-13 -16 -31 -16q-11 0 -18 8.5t-7 21.5q0 14 9 22t24 8q29 0 46 -32.5t17 -89.5q0 -71 -6 -122q-42 -14 -58 -47t3 -72l28 4
q0 17 8.5 29t19.5 12q10 0 17.5 -12t7.5 -28q0 -31 -21.5 -51.5t-53.5 -20.5q-34 0 -63 22t-40 60q-9 -66 21.5 -104.5t89.5 -38.5q35 0 65 20q16 -65 93 -91l16 15q-39 48 -39 100q0 24 6 59q6 26 6 44q0 29 -12 48q42 -8 69 -33l23 12q-30 58 -101 74l14 9
q-16 85 -14.5 148t33.5 88l6 7q3 35 -4 69l20 1q6 17 18 26q-3 -28 14 -54l27 6q1 29 33.5 47.5t82.5 18.5q51 0 51 -25q0 -17 -11 -28zM284 775q18 -4 37.5 -10.5t49 -24.5t51 -42t35.5 -66t11 -93q-37 -28 -39.5 -94t14.5 -151q-36 7 -68 -5q5 53 5 118q0 68 -22 100
t-56 32q-21 0 -34.5 -11.5t-13.5 -28.5t11.5 -28.5t28.5 -11.5q26 0 43 20q0 -17 -15.5 -30.5t-39.5 -13.5q-31 0 -49.5 18.5t-18.5 45.5q0 34 24.5 56t60.5 22q29 0 54 -16.5t35 -38.5q0 48 -26.5 79t-63.5 47q6 -15 -3 -37q-10 35 -51 43q13 -38 -7 -68q-1 38 -38 57.5
t-93 19.5q-66 0 -66 -36q0 -18 15 -35q-55 13 -55 59q0 25 19.5 39t53.5 14q-23 24 -22 44t13 27q2 -45 53 -61q18 -6 78 -16q90 -15 103 -49q95 -10 116 -88q0 44 -15.5 84t-38 66t-42 41.5t-34.5 22.5zM707 704q34 0 53.5 -14t19.5 -39q0 -46 -55 -59q15 17 15 35
q0 35 -66 35q-50 0 -90 -20t-41 -56q-20 30 -7 68q-40 -8 -51 -43q-15 37 11.5 57t88.5 30q82 13 103 26q27 17 28 51q12 -7 13 -27t-22 -44zM272 594q14 3 27 3q16 0 36 -5q-8 10 -11 13l-4 -8l-47 1zM334 493q-12 26 -32 26q-18 0 -18 -20t10 -20q11 0 24 18zM317 170
q-22 44 6.5 77.5t80.5 33.5q40 0 75 -19t53 -55q-22 21 -52.5 30t-54.5 7q10 -5 17.5 -22t7.5 -37q0 -16 -6 -46t-6 -57q0 -55 43 -106q-87 30 -87 116q-8 -21 -31 -32.5t-45 -11.5q-82 0 -96 79q35 -38 88 -38q37 0 63.5 23.5t26.5 58.5q0 20 -11 35t-29 15t-30.5 -15
t-12.5 -36z" />
    <glyph glyph-name="U" unicode="U" horiz-adv-x="686" 
d="M-10 89l5 12q85 93 136 205.5t51 205.5q0 45 -15 73.5t-38 28.5q-35 0 -57 -36l-50 11q-4 43 36.5 77t93.5 34q71 0 113 -49.5t42 -133.5q0 -139 -135 -323l25 -15q-17 -17 -14.5 -44.5t18.5 -27.5q13 0 27.5 10t47.5 41l25 25.5t29 28l27 21.5t35.5 22t38.5 13l-15 9
q17 95 16.5 159.5t-33.5 89.5l-7 10q-4 55 12.5 101t40.5 72t58 46t55 27.5t42 12.5l17 -6l9 -19l-8 -13q-19 -9 -47 -36t-46 -68q47 22 115 16.5t127 -39.5q-73 22 -127.5 11.5t-84.5 -48.5q20 5 36 5q49 0 81 -27t32 -68q0 -35 -29 -61.5t-67 -26.5q-41 0 -66 25
q-2 -20 -2 -33q0 -94 7 -143q52 -16 82.5 -57t29.5 -96q-58 57 -107 75q7 -15 7 -38q0 -11 -4 -36q-5 -20 -5 -45q0 -35 11 -64.5t20 -37.5l2 -13l-19 -23q-38 6 -69 29.5t-44 55.5q-23 -7 -40 -7q-40 0 -64 21t-26 57q-102 -115 -188 -115q-52 0 -92.5 33.5t-50.5 85.5z
M407 538l5 -7q34 -28 35 -93.5t-15 -156.5l18 -11q33 5 45.5 2.5t37.5 -14.5q-8 45 -8 149q0 58 17.5 90t47.5 32q13 0 22 -8.5t9 -21.5t-7 -21.5t-18 -8.5q-18 0 -31 16l-27 -6q0 -22 20.5 -38t49.5 -16q32 0 56.5 23.5t24.5 54.5q0 37 -27.5 61t-70.5 24q-33 0 -66 -20
q15 38 53.5 62t92.5 25q-109 21 -172 -32q16 55 51 92.5t62 50.5l-9 19q-19 -4 -39.5 -11t-52 -26t-54.5 -44.5t-38 -69t-12 -96.5zM447 280q17 91 14.5 159t-39.5 100q-3 51 11 93t35.5 66t51 42t49 24.5t37.5 10.5q-15 -7 -34.5 -22.5t-42 -41.5t-38 -66t-15.5 -84
q21 78 117 88q-91 -39 -91 -127q9 23 34 39.5t55 16.5q35 0 59 -20t24 -55q0 -28 -20.5 -48t-45.5 -20q-24 0 -39.5 13.5t-15.5 30.5q17 -20 43 -20q17 0 28.5 11.5t11.5 28.5t-13.5 28.5t-32.5 11.5q-35 0 -57.5 -31.5t-22.5 -100.5q0 -79 5 -129q-26 10 -68 2zM5 88
q10 -47 46 -77.5t82 -30.5q36 0 74 22t60 44t57 62l17 19q-14 -48 6 -79t64 -31q27 0 50 14q8 -32 34 -57t62 -33l14 17q-12 11 -24 42t-12 67q0 25 5 47q4 23 4 34q0 34 -17 55q53 -7 115 -60q-10 56 -53.5 88.5t-104.5 32.5q-24 0 -46 -5.5t-36 -11t-33 -20t-27.5 -22
t-28.5 -28t-27 -26.5q-33 -32 -50.5 -43t-34.5 -11q-24 0 -31.5 27.5t8.5 52.5l-22 13l-8 -6q144 190 144 333q0 80 -38 126.5t-102 46.5q-45 0 -80 -28.5t-35 -65.5l27 -6q24 34 65 34q30 0 49 -30.5t19 -81.5q0 -94 -51 -207t-137 -208zM52 596q0 30 29.5 57t70.5 27
q58 0 91.5 -44t33.5 -119q0 -164 -201 -402q0 -34 17 -56.5t46 -22.5q28 0 40 14q-23 1 -41 21t-14 52t41 59q-19 -27 -9 -61t45 -34q36 0 95 57l28 27.5t28.5 27t26 21t31 19t33 10.5t41.5 5q93 0 131 -76q-59 39 -116 36q30 -22 30 -66q0 -12 -4.5 -35.5t-4.5 -45.5
q0 -37 13.5 -70t26.5 -46q-31 7 -61 37t-25 72q-8 -16 -27 -24.5t-36 -8.5q-32 0 -48 21t-12 54q18 -38 56 -38q30 0 51 24t21 58q0 26 -12 44t-33 18q-23 0 -51 -22.5t-56 -54.5l-57.5 -64t-65.5 -54.5t-71 -22.5q-41 0 -72.5 27.5t-40.5 72.5q87 96 139.5 211t52.5 211
q0 55 -22.5 88.5t-60.5 33.5q-50 0 -77 -38zM556 493l16 4q13 -18 21 -18q13 0 13 20t-16 20q-20 0 -34 -26zM354 141q54 57 80 57q13 0 21.5 -14.5t8.5 -37.5q0 -30 -17 -51t-40 -21q-41 0 -53 67zM369 139q11 -55 38 -55q17 0 29.5 18.5t12.5 43.5q0 17 -5 29.5t-12 12.5
q-15 0 -63 -49zM91 113q1 -30 14.5 -48.5t33.5 -18.5q5 0 13 2q-25 13 -35.5 38.5t0.5 57.5zM98 109l8 9q-3 -21 5.5 -40t23.5 -26q-35 7 -37 57z" />
    <glyph glyph-name="V" unicode="V" horiz-adv-x="630" 
d="M670 547q0 -42 -14.5 -83t-46.5 -84.5t-54 -68.5t-65 -70l-35.5 -37.5l-30.5 -34t-27.5 -34.5t-20 -32.5t-14 -33t-3.5 -31.5t6 -33l-12 -17l7 3l7 -15l-5 -9l-31 -9q-86 29 -153.5 120.5t-102 202.5t-38.5 219q-2 61 -12 71.5t-59 6.5l-26 16v13l21 16q67 7 127.5 26.5
t96 39t82.5 50.5l32 22l29 -45q101 95 171 121l34 -10l5 -14l-11 -17q-47 -23 -75 -60q98 2 158 -50t60 -139zM349 6q-5 15 -5.5 29.5t4 30t9.5 28.5t17 30.5l20.5 29t26 31.5t27.5 30.5l31 32.5q42 44 64 69t53 67t45 82t14 81q0 36 -12.5 68t-38.5 59.5t-71.5 41.5
t-104.5 9q31 48 87 77l7 12l-2 6l-20 6q-80 -31 -196.5 -150.5t-175.5 -253.5q-2 183 169 285l15 9l-18 28l-19 -13q-70 -47 -140 -77t-167 -40l-13 -10v-6l16 -10q52 4 65.5 -10.5t15.5 -77.5q4 -107 37 -215t97.5 -197.5t145.5 -118.5l18 5l1 2l-5 12l-7 5l2 1zM404 712
q62 9 109.5 -2t74 -36.5t39.5 -57.5t13 -69q0 -62 -36.5 -125.5t-86.5 -115.5l-97.5 -102t-73.5 -102t-11 -99l-5 -2q-14 43 -9 78.5t25.5 74.5t48.5 72l59 72l57.5 74t43.5 78.5t17 84.5q0 55 -34.5 87t-93.5 32q-81 0 -163.5 -69t-132.5 -174l-8 3q59 135 173.5 253.5
t192.5 149.5l2 -6q-72 -37 -104 -99zM392 261q-54 -46 -79.5 -94t-23.5 -84.5t15.5 -63t33.5 -39.5l-1 -2q-77 28 -139 115t-94.5 194t-36.5 213q-2 64 -18 83.5t-79 14.5v6q163 17 313 119l6 4l5 -8l-5 -3q-87 -52 -130.5 -126t-45 -146t20 -148t52.5 -131.5t65 -96.5
q-7 47 23 94t116 102zM316 705l-11 -7q-127 -75 -154 -201q63 108 165 208zM382 272q-131 -84 -145 -164q-106 154 -109 308l7 -11l8 -3l19 5q49 105 128 171t154 66q53 0 83 -29t30 -80q0 -33 -9.5 -65t-32 -66.5t-39 -56l-48.5 -60.5l-26 -31l2 11l-2 3zM144 392
q11 -129 88 -251q30 68 145 142l28 -3l11 13q43 52 64 80t41.5 73.5t20.5 88.5q0 47 -25.5 73t-72.5 26q-71 0 -146.5 -66t-123.5 -169zM305 55q-19 96 90 192q-91 -113 -90 -192zM359 -7l2 -1l-1 -1z" />
    <glyph glyph-name="W" unicode="W" horiz-adv-x="873" 
d="M893 478q0 -35 -6 -69t-20 -67.5l-25 -58t-32.5 -56.5l-31 -46t-32.5 -43.5t-25 -32.5q-61 -80 -35 -117l-20 -12q8 -5 19 -10l11 -17l-2 -12l-36 -11q-98 44 -147 93t-80 137l-31 4q-13 34 -29.5 48t-43.5 14q-37 0 -57 -39q37 5 70 -14t46 -55l-42 -21q-69 55 -69 -11
q0 -46 42 -82l4 -16l-4 -8l-24 -9q-125 13 -217 120t-92 238q0 93 54 170h-7l-24 16q2 101 61.5 163.5t152.5 62.5q79 0 132 -43t90 -136q89 89 129 179l23 10q136 1 217 -71.5t81 -197.5zM668 -9q-11 22 -1.5 49.5t42.5 70.5l21.5 27.5l27 35t27 38.5t28.5 46l24.5 48
t22 54.5t13 56.5t5.5 61q0 119 -75 189t-204 70l-14 -6q-45 -97 -148 -197q-37 102 -88 147.5t-128 45.5q-86 0 -140.5 -58.5t-58.5 -153.5l15 -10h2l15 8q13 63 55.5 102t99.5 39q60 0 100.5 -61t74.5 -203l5 -21q17 -72 33 -133q-35 54 -105 54q-68 0 -109.5 -47.5
t-39.5 -117.5q-79 92 -79 209q0 94 41 160.5t130 119.5l6 12l-1 3l-19 6q-115 -43 -181 -126t-66 -184q0 -126 86.5 -229.5t204.5 -118.5l15 6l1 2l-3 11q-43 40 -43 86q0 34 20.5 44t65.5 -20l23 12q-17 38 -53 51t-68 -3q8 30 29.5 48t49.5 18q59 0 85 -63l25 -3l2 2l2 4
q30 -91 76 -141t142 -94l21 7l1 4l-8 11q-31 15 -56 39q16 -12 30 -20zM599 727q134 0 199 -72.5t65 -176.5q0 -30 -5.5 -60.5t-12.5 -55t-21.5 -54.5t-24 -47t-28.5 -45t-26.5 -37.5l-27 -34.5t-20.5 -27q-36 -47 -45.5 -75.5t2.5 -54.5q-83 47 -102 135h3q18 -42 51 -42
q29 0 66.5 40t94.5 136q-52 -54 -112 -54q-35 0 -54 17t-19 41q0 41 56 63q-20 -26 -20 -49q0 -14 11.5 -23.5t29.5 -9.5q55 0 99.5 67t44.5 155q0 81 -38.5 131.5t-105.5 50.5q-51 0 -93 -29t-117 -104l-8 9q109 104 158 206zM461 394q9 -38 20.5 -92.5t18.5 -84t18 -69.5
t22.5 -63.5t29 -51t41.5 -47t55 -36.5l-1 -4q-30 14 -53.5 28l-43 26.5t-35.5 32l-28 34t-24 43t-19.5 48t-19 60.5t-18.5 69l-20 84l-5 21q-34 140 -76.5 206t-113.5 66q-69 0 -113.5 -45.5t-56.5 -103.5h-2q3 82 49.5 142t134.5 60q92 0 144.5 -72t90.5 -230zM78 542
q59 61 154 99q-11 3 -23 3q-44 0 -79 -27.5t-52 -74.5zM476 396l-5 21q-12 49 -21 79q57 57 81.5 79t59.5 41t68 19q59 0 94 -46.5t35 -125.5q0 -81 -40 -146.5t-89 -65.5q-26 0 -26 23q0 20 17 43l-18 15q-65 -26 -65 -72q0 -30 25 -49t63 -19q31 0 67 17
q-77 -119 -116 -119q-13 0 -20.5 7.5t-16.5 28.5l-14 6h-3l-12 -9q-18 56 -40 163q-8 39 -24 110zM317 280q43 0 74.5 -27.5t36.5 -77.5l-2 -2q-28 69 -99 69q-42 0 -69 -29t-30 -74q29 31 69 23.5t58 -48.5q-36 27 -60.5 25t-37 -18t-12.5 -39q0 -50 48 -93l-1 -2
q-112 14 -195 115t-83 223q0 100 64.5 180t172.5 121l1 -3q-98 -58 -138 -128t-40 -161q0 -72 33.5 -138.5t78.5 -103.5q-16 78 24 133t107 55zM659 625q-42 0 -79 -27t-114 -104q10 -35 20 -75l5 -21l24 -110q17 -85 34 -144l-3 -2h13l23 -10q9 -21 13 -26.5t11 -5.5
q25 0 85 86q-16 -4 -36 -4q-44 0 -73.5 22t-29.5 56q0 54 83 85l33 -27q-20 -23 -20 -44q0 -13 11 -13q42 0 78 63.5t36 138.5q0 74 -31 118t-83 44zM273 608q-88 -50 -128.5 -115.5t-40.5 -158.5q0 -91 52 -170q10 61 54 98.5t107 37.5q42 0 79 -21l-22 88l-5 21
q-41 174 -93 227z" />
    <glyph glyph-name="X" unicode="X" horiz-adv-x="828" 
d="M644 319q164 -46 164 -171q0 -78 -51.5 -128t-131.5 -50q-74 0 -119.5 47t-67.5 147q-40 -54 -43 -59l-36 -5q-101 -130 -210 -130q-75 0 -122.5 49.5t-47.5 128.5q0 84 58.5 145t165.5 88l28 -10l5 -9l-11 -19q-130 -61 -130 -181q0 -43 19 -69.5t49 -26.5
q83 0 152.5 117t69.5 260q0 93 -33 151t-85 58q-38 0 -61 -28t-23 -75q0 -34 13 -55t34 -21q26 0 41 24l20 7h10l24 -18q-1 -43 -30 -69t-76 -26q-63 0 -106 45t-43 110q0 85 56 140.5t141 55.5q100 0 159.5 -83.5t54.5 -214.5q129 238 147 316l24 13h10l18 -5
q70 -79 76 -210t-55 -234l-36 -7l-14 9l-9 18q19 37 28.5 87.5t6.5 86t-16 35.5q-27 0 -133 -175l7 -4l6 -19q-27 -52 -27 -114q0 -78 31.5 -129t79.5 -51q32 0 51.5 24t19.5 66q0 43 -20.5 78t-55.5 52l-9 19l5 9zM625 -20q74 0 121 47t47 121q0 117 -148 160l-17 -6l-1 -2
l6 -13q36 -20 57 -56.5t21 -79.5q0 -46 -23.5 -73t-62.5 -27q-55 0 -90.5 53t-35.5 137q0 60 27 114l-5 14l-5 3l-8 -1q63 106 97.5 149t55.5 43t28.5 -33.5t-0.5 -85.5t-31 -100l6 -13l5 -3l21 4q56 97 50.5 225t-70.5 203l-11 3h-2l-15 -8q-12 -48 -65 -156t-118 -222
q24 147 -30 251t-162 104q-79 0 -130.5 -52.5t-51.5 -133.5q0 -61 38.5 -103t95.5 -42q39 0 64 22.5t27 59.5l-15 11h-1l-12 -4q-7 -11 -22.5 -19t-29.5 -8q-28 0 -45 23.5t-17 62.5q0 51 27 82t72 31q59 0 96 -60t37 -159q0 -97 -33.5 -187t-89 -145t-114.5 -55
q-37 0 -60 29.5t-23 76.5q0 123 133 187l7 13l-1 2l-17 6q-99 -26 -153.5 -84t-54.5 -138q0 -74 43 -121t112 -47q107 0 209 142l6 -10l2 -1l19 3q40 57 62 80q20 -111 62.5 -162.5t115.5 -51.5zM661 573q-18 0 -38.5 -16t-48 -55.5t-44 -66.5t-53 -91.5t-50.5 -87.5
q-81 -138 -142.5 -202t-135.5 -64q-67 0 -103.5 46.5t-36.5 111.5q0 68 46 126t151 86l1 -2q-142 -68 -142 -196q0 -47 24.5 -81.5t73.5 -34.5q67 0 126 58.5t92.5 150.5t33.5 188q0 105 -41 167t-107 62q-53 0 -83.5 -34.5t-30.5 -88.5q0 -41 20 -68.5t57 -27.5
q16 0 35.5 9.5t28.5 21.5h1q-2 -35 -23 -54t-53 -19q-54 0 -86.5 41t-32.5 94q0 79 48.5 127.5t118.5 48.5q61 0 104.5 -39t62.5 -101.5t15.5 -142t-30.5 -157.5l8 13q76 127 146 264t84 194h2q43 -50 58.5 -127.5t4 -154.5t-44.5 -134l-5 3q40 87 36 160t-47 73zM641 298
q137 -39 137 -150q0 -73 -44.5 -115.5t-108.5 -42.5q-74 0 -112 58.5t-55 170.5q-34 -23 -85 -99l-2 1q14 32 34 69t32.5 58l38.5 63l32 52l5 -3q-29 -57 -29 -119q0 -83 37.5 -141.5t103.5 -58.5q42 0 71.5 28t29.5 82q0 47 -23 85.5t-63 59.5z" />
    <glyph glyph-name="Y" unicode="Y" horiz-adv-x="704" 
d="M591 598q49 0 81 -27t32 -68q0 -35 -29 -61.5t-67 -26.5q-41 0 -66 25q-2 -20 -2 -33q0 -82 6 -135q55 -16 86.5 -60t33.5 -110q-39 51 -85 79q62 -91 62 -194q0 -109 -85.5 -180.5t-230.5 -84.5l-23 10l-5 8l5 8h-6q-30 0 -58 15.5t-41 39.5q-32 2 -49.5 27.5t-7.5 60.5
l49 1q13 54 64.5 91t117.5 37h4q-46 26 -41 79q-26 -30 -42.5 -47t-43 -39t-54.5 -32.5t-58 -10.5q-53 0 -96 34t-52 84l5 12q91 95 142 200t51 198q0 57 -16 89.5t-43 32.5q-19 0 -31 -7.5t-26 -28.5l-50 11q-4 46 34.5 78.5t95.5 32.5q78 0 121 -53.5t43 -149.5
q0 -148 -144 -320l26 -15q-11 -7 -14 -24.5t1 -32t12 -14.5q30 0 83 60q1 1 10 11.5t13 14.5l14.5 15t18 17l19.5 16t22.5 16t24 13t26.5 11l-12 7q17 94 16.5 159t-32.5 89l-8 10q-4 55 12.5 101t40.5 72t58 46t55 27.5t42 12.5l17 -6l9 -19l-8 -13q-19 -9 -47 -36t-46 -68
q47 22 115 16.5t127 -39.5q-73 22 -127.5 11.5t-84.5 -48.5q20 5 36 5zM608 425q32 0 56.5 23.5t24.5 54.5q0 37 -27.5 61t-70.5 24q-33 0 -66 -20q15 38 53.5 62t92.5 25q-109 21 -172 -32q16 55 51 92.5t62 50.5l-9 19q-19 -4 -39.5 -11t-52 -26t-54.5 -44.5t-38 -69
t-12 -96.5l5 -7q12 -10 20 -22.5t11 -34t4.5 -35.5t-2 -47.5t-5.5 -49.5t-8 -60l18 -11q42 8 80 -5q-17 4 -42 4q-28 0 -56.5 -10t-45.5 -20t-41.5 -33t-29.5 -29l-24 -28q-56 -63 -94 -63q-21 0 -28 28t9 51l-22 13q-41 -32 -43.5 -76t30.5 -63q-22 0 -41.5 15t-29.5 38
q113 117 171 212t58 198q0 92 -39 142.5t-110 50.5q-49 0 -82 -27t-33 -67l27 -6q24 34 65 34q35 0 54.5 -34.5t19.5 -97.5q0 -93 -50.5 -198.5t-143.5 -203.5l-4 -9q10 -46 48 -76.5t85 -30.5q36 0 73.5 22t59 43.5t56.5 62.5l43.5 49t36 31t38.5 15t27.5 -15.5t10.5 -40.5
q0 -32 -16 -52.5t-40 -20.5q-16 0 -27.5 6.5t-15 12t-3.5 9.5l-30 1q-4 -37 18.5 -61.5t61.5 -24.5q67 0 104 60q16 -42 16 -97q0 -83 -59 -140q13 31 13 58q0 50 -36.5 81t-95.5 31q-68 0 -118 -43t-52 -102q-11 -7 -19 17l-29 -1q-6 -30 11 -50.5t44 -17.5q10 -23 35 -39
t53 -16q39 0 61 25t15 62l-29 2q-14 -33 -41 -33q-12 0 -20 12.5t-8 34.5q0 39 26.5 64.5t66.5 25.5q63 0 63 -63q0 -41 -33 -82t-75 -52l-9 -14l1 -2l14 -6q137 14 217.5 82.5t80.5 172.5q0 61 -23 120.5t-64 103.5q54 -15 105 -66q-23 100 -114 120q-7 58 -7 142
q0 58 17.5 90t47.5 32q13 0 22 -8.5t9 -21.5t-7 -21.5t-18 -8.5q-18 0 -31 16l-27 -6q0 -22 20.5 -38t49.5 -16zM591 578q35 0 59 -20t24 -55q0 -28 -20.5 -48t-45.5 -20q-24 0 -39.5 13.5t-15.5 30.5q17 -20 43 -20q17 0 28.5 11.5t11.5 28.5t-13.5 28.5t-32.5 11.5
q-35 0 -57.5 -31.5t-22.5 -100.5q0 -74 5 -126q-30 7 -68 0q17 90 14.5 158.5t-39.5 99.5q-3 51 11 93t35.5 66t51 42t49 24.5t37.5 10.5q-15 -7 -34.5 -22.5t-42 -41.5t-38 -66t-15.5 -84q21 78 117 88q-91 -39 -91 -127q9 23 34 39.5t55 16.5zM302 143q53 60 85 83
q50 34 101 34q89 0 128 -74q-60 42 -106 38q42 -37 72.5 -100.5t30.5 -136.5q0 -99 -75.5 -165.5t-208.5 -79.5l-1 2q48 13 83.5 57t35.5 87q0 33 -20 53t-58 20q-48 0 -78 -29t-30 -71q0 -26 11.5 -41.5t31.5 -15.5q37 0 55 39q7 -33 -11.5 -54t-49.5 -21q-30 0 -51 18.5
t-26 40.5q-25 -11 -40.5 7t-10.5 45q6 -19 22.5 -24t25.5 6q0 57 46 98t109 41q57 0 87 -29.5t30 -72.5q0 -56 -43 -101q50 23 84.5 70t34.5 113q0 73 -31 132q-14 -45 -44 -65t-60 -20q-33 0 -51 21t-14 54q0 -5 5 -13t20 -16.5t36 -8.5q29 0 50 22.5t21 60.5
q0 28 -14.5 47t-38.5 19q-26 0 -55.5 -23t-57 -55.5l-57 -65.5t-65.5 -56t-72 -23q-41 0 -75 28t-43 71q93 99 145.5 205.5t52.5 203.5q0 71 -24.5 106.5t-64.5 35.5q-50 0 -77 -38q0 32 26.5 58t73.5 26q63 0 98.5 -47.5t35.5 -135.5q0 -103 -58 -197.5t-172 -210.5
q9 -25 33 -45t54 -20q24 0 36 10q-23 1 -40 21t-12.5 51.5t38.5 58.5q-19 -26 -10 -60t42 -34q47 0 105 66zM556 493l16 4q13 -18 24 -18q10 0 10 20t-16 20q-20 0 -34 -26zM348 113l33 -1l15 -10q0 -3 2.5 -6.5t10 -7.5t18.5 -4q17 0 29 18t12 45q0 20 -7.5 33t-18.5 13
q-25 0 -94 -80zM101 72q-4 12 -4 30l-9 -10q6 -11 13 -20zM443 7q74 -29 77 -104q16 38 16 77t-7 68q-36 -36 -86 -41zM387 -146q5 -18 2 -38q28 36 28 72q0 53 -48 53q-34 0 -56 -22.5t-22 -57.5t15 -35q16 0 28 32z" />
    <glyph glyph-name="Z" unicode="Z" horiz-adv-x="716" 
d="M-11 178l29 2q11 -35 35 -55.5t55 -20.5q29 0 49.5 18t20.5 44q0 30 -15 30q-9 0 -14.5 -14t-1.5 -31l-18 -12q-72 16 -72 63q0 37 41.5 60.5t153.5 50.5q199 47 294 158l-2 1l-9 19q39 77 10 101t-160 24q-200 0 -200 -77q0 -24 20 -24q22 0 36 29l51 -5
q11 -46 -18.5 -77.5t-82.5 -31.5q-54 0 -88.5 29.5t-34.5 76.5q0 78 100 116q-50 32 -27 97l52 1q7 -32 64.5 -49.5t157.5 -17.5q126 0 171.5 15t62.5 61l22 11h14l24 -19q-3 -17 -14 -55l15 -15q-23 -167 -126.5 -294.5t-258.5 -176.5l-23 3q-28 21 -54 22q10 -11 26 -37
q15 -24 26 -39q35 -48 70.5 -74t91.5 -26q71 0 124 53t78 150l23 12h15l24 -18q-16 -136 -85.5 -211t-180.5 -75q-112 0 -190 67q7 -29 38 -59l-31 -29q-74 25 -97 90q-32 -16 -70 -16q-63 0 -95.5 42t-25.5 113zM4 177q-7 -67 21.5 -105.5t84.5 -38.5q48 0 80 26
q15 -70 83 -97l17 16q-22 23 -30.5 44t-8.5 54q74 -96 209 -96q104 0 169 71t82 202l-15 11h-4l-14 -7q-27 -99 -83.5 -153.5t-132.5 -54.5q-61 0 -100 28t-74 76q-13 18 -27 40q-23 38 -40 51q48 8 88 -22l14 -2q149 49 249 172.5t123 286.5l-11 11l-4 1l-2 -1q10 32 15 58
l-15 12h-2l-14 -7q-18 -47 -69 -63.5t-178 -16.5q-99 0 -160 17.5t-74 49.5l-28 -1q-18 -65 43 -89q-54 -15 -83.5 -44.5t-29.5 -69.5q0 -43 30 -69.5t78 -26.5q44 0 69.5 26t18.5 64l-28 3q-17 -30 -50 -30q-14 0 -22.5 10t-8.5 26q0 87 215 87q138 0 172 -28t-6 -107
l6 -13l2 -1l9 1q-95 -123 -313 -175q-107 -26 -145 -46.5t-38 -54.5q0 -40 60 -53q-6 23 3.5 40t27.5 17q30 0 30 -40q0 -29 -25 -50.5t-60 -21.5t-64 22.5t-40 60.5zM98 536q0 43 37 73.5t111 39.5q-50 4 -69.5 27t-9.5 60q14 -35 80.5 -54t167.5 -19q121 0 181 16.5
t80 70.5h2q-7 -54 -36.5 -128.5t-75.5 -135.5l-2 1q45 80 8 114.5t-187 34.5q-112 0 -171 -25t-59 -72q0 -19 12.5 -32.5t33.5 -13.5q43 0 63 35q6 -35 -16.5 -56.5t-56.5 -21.5q-42 0 -67.5 23.5t-25.5 62.5zM20 122q35 -38 88 -38q40 0 70 24t30 58q0 21 -11.5 35.5
t-33.5 14.5q-21 0 -34.5 -15t-13.5 -36q-28 12 -28 37q0 30 35.5 48.5t135.5 42.5q174 41 273.5 126.5t144.5 261.5l4 -1q-22 -156 -118 -279t-244 -171q-31 22 -70.5 24.5t-55.5 -8.5q15 -4 27 -16.5t29.5 -40.5t27.5 -42q23 -30 42.5 -50t58.5 -39t85 -19q83 0 143 57.5
t87 157.5h4q-16 -131 -78.5 -197.5t-157.5 -66.5q-76 0 -133.5 35t-87.5 95q-3 -18 -3 -43q0 -36 9.5 -58.5t33.5 -47.5q-77 30 -77 126q-8 -27 -36.5 -40.5t-55.5 -13.5q-76 0 -90 79z" />
    <glyph glyph-name="backslash" unicode="\" horiz-adv-x="492" 
d="M523 101q-8 -41 -36 -66t-66 -27q19 -8 45 -12l19 -16v-9l-22 -16q-38 -3 -71 3t-57.5 16.5t-45.5 30.5t-35 39t-26.5 48.5t-20 52.5t-14.5 57.5t-10.5 57t-8.5 58t-8 52.5q-60 359 -229 401l-17 15v9l26 16q27 0 59.5 -9.5t74.5 -37t78.5 -70t68 -116.5t45.5 -168
q65 15 113 -33.5t11 -121.5l-22 -10h-11l-24 16q1 20 -4 36.5t-11 16.5q-8 0 -14 -16.5t-6 -40.5q0 -44 17.5 -82t43.5 -57.5t57 -22.5t58 24zM507 96l-24 10q-30 -26 -64 -21.5t-63 25.5t-48 61t-19 86q0 31 9.5 49t25.5 18q14 0 22.5 -16t7.5 -43l15 -10h1l13 6
q18 37 12.5 69.5t-27.5 48.5t-51.5 23t-57.5 -7l-2 14q-14 90 -43 161.5t-62.5 113t-73 69t-70 37.5t-57.5 11l-16 -10v-2l11 -10q175 -49 235 -407q3 -17 10 -65.5t11 -72.5t15 -68t22.5 -67.5t32 -54.5t45 -46t60 -25.5t79.5 -7.5l14 10v2l-12 10q-57 11 -93 42
q27 -11 52 -11q33 0 57 21t33 57zM196 374q-16 94 -40 167t-48.5 115.5t-55 72t-53 41.5t-49.5 19v2q26 -1 55 -10.5t66.5 -36.5t69.5 -67.5t60 -110t41 -158.5l5 -33q32 25 72.5 18t56.5 -40.5t-6 -87.5h-1q2 31 -10 50t-35 19t-36.5 -19.5t-13.5 -57.5q0 -46 20.5 -88.5
t52.5 -66.5t70.5 -29t74.5 25q-17 -70 -75 -70q-32 0 -63 19.5t-48 54.5q10 -44 47 -78.5t102 -46.5v-2q-37 -2 -67.5 5t-53.5 22.5t-40.5 33.5t-30.5 46.5t-22 52t-16 59.5t-11 60t-9.5 62z" />
    <glyph glyph-name="underscore" unicode="_" horiz-adv-x="688" 
d="M164 -97q-28 -4 -49.5 7t-29.5 32q-4 -6 -5 -7l-50 11q-1 28 7.5 47.5t32.5 32.5t49.5 20t76 10.5t92 4.5t115.5 1q81 0 105.5 18.5t3.5 62.5l20 13q42 -18 58 -48.5t-2 -60.5q46 -17 46 -61q0 -33 -28 -54t-67 -17l-11 23l3 12q7 5 7 18q0 7 -8.5 10.5t-32.5 5.5t-68 2
q-230 0 -264 -38q-15 -17 -1 -45zM145 -88q-6 23 5.5 38.5t45 26t90.5 15t143 4.5q72 0 98 -6t26 -22t-12 -26l9 -18q30 0 49.5 17.5t19.5 44.5q0 45 -51 56q22 24 10.5 55.5t-52.5 49.5q24 -49 -5 -72t-118 -23q-54 0 -85.5 -0.5t-72 -1.5t-63 -4t-49 -7.5t-40 -12
t-26 -17.5t-17.5 -24t-5 -32l27 -6q12 18 25 25q-5 -21 8.5 -39.5t39.5 -20.5zM128 -72q-17 10 -17 31t10 29q-38 0 -61 -35q0 60 69.5 74.5t273.5 14.5q158 0 148 75q17 -14 16 -40.5t-25 -41.5q30 0 46 -13.5t16 -35.5q0 -25 -16 -38.5t-38 -13.5q18 14 18 34
q0 21 -31 29.5t-108 8.5q-147 0 -224 -16t-77 -62z" />
    <glyph glyph-name="grave" unicode="`" 
d="M455 551l-38 15q-97 35 -106 28q-3 -2 -3 -11l-12 -14l-10 -5l-32 5q-28 40 -9 67q-99 50 -99 111q0 44 42 67t102 12l8 -38q-6 5 -12 1.5t-10 -13.5t-4 -21q0 -35 39 -67t131 -73l31 -14zM445 566l11 31l-20 9q-97 43 -138 77.5t-41 71.5q0 33 24 44l-4 19
q-50 7 -83 -13t-33 -58q0 -60 104 -108q-27 -22 -1 -61l19 -3l2 1l8 9q0 12 5.5 16.5t21 3.5t39 -8.5t63.5 -21.5zM435 581l-8 3q-36 13 -59.5 20t-45.5 10t-33 -4t-11 -25l-2 -1q-14 22 -7.5 37t24.5 17q-53 23 -85 48t-32 61q0 35 28 51t71 10q-33 -16 -33 -53
q0 -42 46.5 -79t141.5 -79l9 -4z" />
    <glyph glyph-name="a" unicode="a" horiz-adv-x="552" 
d="M580 123q22 -65 -1 -105t-83 -40q-55 0 -91 38q-46 -50 -134 -30l1 20q41 6 58.5 27t18.5 66q-35 -60 -84.5 -93t-107.5 -33q-71 0 -114.5 37t-43.5 97q0 52 35 91.5t117 80.5q-39 19 -62.5 52t-23.5 72q0 60 43 99t110 39q41 0 81 -23.5t68 -62.5q17 64 62 124l39 1
l9 -8l2 -15q-41 -77 -41 -265q0 -92 21.5 -161.5t47.5 -69.5q11 0 15 16t-2 38l24 19h14zM496 -12q51 0 70.5 35.5t0.5 93.5l-14 7h-2l-15 -12q5 -26 -3.5 -43.5t-25.5 -17.5q-36 0 -60 68.5t-24 172.5q0 182 41 266l-2 11l-1 1l-23 -1q-49 -66 -65 -153q-24 51 -66.5 83
t-88.5 32q-61 0 -99.5 -36t-38.5 -92q0 -41 27 -75t71 -48q-90 -43 -127 -82t-37 -91q0 -56 39 -90t104 -34t118 45.5t85 127.5q4 -40 4 -47q0 -56 -20.5 -81t-69.5 -32q93 -22 130 42q33 -50 92 -50zM551 114h2q18 -55 0.5 -85.5t-57.5 -30.5q-65 0 -94 74
q-8 -32 -28 -50.5t-46 -20.5q51 27 51 108q0 14 -5 55t-7 67q-23 -108 -80 -173t-130 -65q-62 0 -95 32.5t-33 81.5q0 55 42 93.5t136 81.5q34 15 50 23.5t33.5 20.5t21.5 23.5t4 27t-9 36.5l2 1q69 -109 -8 -220l-2 1q25 53 1 74t-87 -3q-59 -23 -94.5 -62t-35.5 -87
q0 -36 21 -58t60 -22q78 0 138 82.5t60 182.5q0 70 -40.5 123.5t-101.5 53.5q-35 0 -56 -22.5t-21 -60.5q0 -32 15 -62.5t35 -45.5v-1q-42 10 -70 42t-28 74q0 52 33.5 85t89.5 33q63 0 109.5 -59t50.5 -124q12 146 72 225l1 -1q-43 -86 -43 -270q0 -102 25.5 -176.5
t73.5 -74.5q23 0 36.5 19t7.5 54zM302 423l-2 -1l-7 -13q19 -43 1.5 -63.5t-89.5 -52.5l-3 3q-18 13 -31 43t-13 57q0 34 16.5 53.5t45.5 19.5q51 0 88 -47zM209 306q63 29 74.5 47t-6.5 56l9 18q-29 32 -66 32q-22 0 -34.5 -16.5t-12.5 -46.5q0 -23 11 -50.5t25 -39.5z
M218 257q54 21 72 5t-5 -63l7 -13l2 -1l19 3q17 25 26 45q-19 -78 -69 -132t-106 -54q-31 0 -48.5 18.5t-17.5 51.5q0 43 32 80t88 60zM291 174l-12 6l-10 19q22 43 10.5 55t-55.5 -6q-52 -21 -81.5 -55.5t-29.5 -75.5q0 -60 51 -60q38 0 76.5 33t62.5 86z" />
    <glyph glyph-name="b" unicode="b" horiz-adv-x="685" 
d="M-12 589q54 14 109 -1q-24 38 -67 48l12 29l17 6q48 -12 65 -19q-31 79 -109 112l19 35q222 -39 220 -260l-6 -9q-19 -20 -25.5 -40.5t-6.5 -60.5v-19q22 31 46 73q17 15 58 27.5t90 12.5q116 0 190.5 -71.5t74.5 -182.5q0 -127 -90.5 -213t-224.5 -86q-70 0 -129 24
t-88 64q-26 -12 -48 -12q-44 0 -67.5 30.5t-16.5 76.5l57 1q4 -30 20 -30q17 0 28.5 15t11.5 38q0 16 -6 16q-3 0 -21 -10l-36 25q20 39 56 53l-12 6l-8 11q5 23 5 151q0 27 -3 46t-6.5 30.5t-16 22.5t-21 17t-32 19.5t-39.5 24.5zM17 584q9 -6 28 -16.5t25 -14.5t18 -13.5
t15.5 -17.5t9 -22t7 -31t1.5 -40q0 -128 -5 -153l21 -11q32 15 81 -3q-6 18 -12 82l20 -1q84 93 188 93q68 0 118 -43.5t62 -110.5q-21 14 -40 18l-14 -17q28 -31 28 -91q0 -59 -37 -96.5t-95 -37.5q-70 0 -106.5 56t-7.5 134q-44 -64 -41.5 -124.5t45.5 -98.5
q-48 11 -80 39.5t-32 63.5q0 20 5 40q4 20 4 31q0 28 -16 43.5t-45 15.5q-53 0 -80 -48l20 -14q13 7 23 7q18 0 18 -26q0 -27 -16 -45t-39 -18q-27 0 -33 30l-30 -1q-4 -38 16 -62.5t54 -24.5q27 0 54 18q24 -42 81.5 -68t129.5 -26q128 0 214 82.5t86 206.5
q0 107 -70.5 175.5t-179.5 68.5q-43 0 -80.5 -11t-53.5 -23q-22 -38 -72 -109q-3 29 -3 59q0 41 7 62t27 43l4 7q0 205 -196 246l-10 -19q90 -45 115 -141q-32 22 -92 34l-8 -19q26 -10 46.5 -30t28.5 -45q-47 23 -106 17zM199 279q-37 10 -68 -5q5 26 5 155
q0 46 -10.5 74.5t-24.5 40.5t-46 31q35 -3 59 -15.5t30 -25.5q0 44 -29 74.5t-62 42.5q117 -22 117 -88q0 148 -130 214q184 -38 184 -236q-23 -25 -30.5 -47.5t-7.5 -64.5q0 -67 13 -150zM40 142q3 -15 16 -26.5t32 -11.5q29 0 49.5 20.5t20.5 52.5q0 36 -33 36
q-14 0 -30 -8q24 43 67 43q46 0 46 -49q0 -11 -4.5 -32t-4.5 -39q0 -47 51.5 -82.5t118.5 -35.5q-38 17 -59 57t-12 90q9 -51 48.5 -80t89.5 -29q63 0 105 39.5t42 104.5q0 62 -32 98q39 -9 61 -43q0 85 -57.5 142t-140.5 57q-111 0 -199 -96l-5 6q60 84 80 119
q50 28 120 28q100 0 167.5 -64t67.5 -170q0 -119 -81 -199t-204 -80q-82 0 -137.5 32.5t-69.5 77.5q-2 -10 -19 -22t-39 -12q-32 0 -45 25t-10 51zM212 253q26 -18 26 -54q0 -12 -4 -33q-5 -18 -5 -38q0 -48 60 -79q-28 42 -22.5 97t43.5 108l26 -9q-25 -70 5 -123.5
t95 -53.5q52 0 84.5 34.5t32.5 89.5q0 29 -9 55.5t-22 34.5l25 29q8 0 26 -6q-17 55 -60.5 88t-98.5 33q-51 0 -92 -21t-85 -69l-12 -3h-3q6 -50 10 -68z" />
    <glyph glyph-name="c" unicode="c" horiz-adv-x="564" 
d="M574 165q4 -85 -53.5 -140t-151.5 -55q-62 0 -121 32l-16 -28q-73 16 -108 60.5t-46 136.5q-1 11 -4 28l-5 29l-2 11q-2 0 -5 -4t-7 -12.5t-6 -18.5l-55 1q1 2 0 5.5t-2.5 11t-1.5 16.5q0 35 26 59.5t64 24.5h8l-17 88q-1 0 -4 -2t-5 -2l-33 8l-4 10l5 16q53 44 136 72.5
t157 28.5q86 0 154 -46q5 71 -11 105l9 17l12 8l38 -7q79 -180 -8 -318l-30 -7l-11 4l-15 11q-20 80 -57.5 123.5t-85.5 43.5q-65 0 -99 -62t-22 -157l-18 -13l9 -15l9 -16q43 -79 86 -115t93 -36t88 29.5t51 78.5l23 12h12zM369 -20q86 0 139.5 50.5t50.5 130.5l-15 10h-1
l-14 -7q-14 -51 -56.5 -82t-96.5 -31q-55 0 -101 37.5t-91 118.5q-25 43 -26 44l8 -3h1l15 11q-12 99 26.5 162.5t109.5 63.5q54 0 95 -45t62 -128l10 -7l3 -1l18 4q81 131 7 302l-22 4l-3 -2l-6 -12q20 -50 7 -129q-69 60 -166 60q-70 0 -148 -26.5t-131 -68.5l-4 -12l1 -2
l19 -5q11 6 23 9l22 -117l8 -6q-17 9 -33 9q-32 0 -53.5 -21.5t-21.5 -52.5q0 -11 3 -23l29 -1q11 35 30 35q10 0 15 -14.5t11 -62.5q10 -85 39.5 -127t90.5 -58l11 19q-49 29 -62 82q35 -50 87 -79t110 -29zM166 258q-25 43 -46 53l-21 113h1q15 -39 38 -39q21 0 21 23
q0 25 -27 32t-78 -14l-1 2q55 44 130.5 68.5t139.5 24.5q106 0 174 -77q25 92 -1 160l3 2q73 -166 -6 -293l-3 1q-20 78 -63 129.5t-109 51.5q-77 0 -120.5 -65t-30.5 -172h-1zM138 395q-12 0 -24 33l-8 3q38 5 38 -23q0 -13 -6 -13zM543 161h1q3 -84 -50.5 -127.5
t-124.5 -43.5q-78 0 -135.5 49.5t-80.5 118.5q-8 -114 74 -161q-57 15 -83.5 56t-35.5 120q-3 26 -4.5 36t-6 25t-11.5 20t-19 5q-32 0 -44 -42q-3 12 -3 21q0 28 17 46t43 18q22 0 41 -22t50 -78q41 -73 89.5 -117t115.5 -44q54 0 102.5 31t64.5 89z" />
    <glyph glyph-name="d" unicode="d" horiz-adv-x="717" 
d="M670 135l48 -13q-3 -45 -36 -74.5t-80 -29.5q-17 0 -40 7q-30 -53 -105 -71l-28 27q39 50 39 95q0 12 -3 29q-52 -49 -70 -97q-23 -15 -65.5 -26.5t-87.5 -11.5q-96 0 -159 67t-63 168q0 140 101 238t244 98q59 0 103 -27q-6 12 -19 25l-5 9q0 63 19.5 111t50.5 74.5
t59.5 42t56 24t29.5 10.5l25 -34l-22.5 -14.5t-32.5 -22.5t-29.5 -31.5t-26.5 -46.5q35 17 82 20l8 -28l-10 -13q-28 -7 -51 -41q28 6 53 5l11 -33q-46 -20 -61.5 -46.5t-15.5 -86.5q0 -144 3 -159l-5 -11l-6 -5q38 -8 60.5 -32t22.5 -57q0 -25 -23 -52l-49 11q1 17 -4.5 31
t-13.5 14q-2 0 -4 -3t-3.5 -9.5t-1.5 -13.5q0 -22 13 -38t31 -16q28 0 61 37zM602 28q39 0 67 24.5t33 63.5l-26 7q-32 -35 -67 -35q-25 0 -42 18.5t-17 45.5q0 36 24 36q14 0 23.5 -13.5t9.5 -34.5l27 -6q15 19 15 40q0 37 -29.5 60t-77.5 23q-87 0 -123 -80l24 -11
q19 17 39 26q-7 -17 -8 -34l-12 2q-66 -58 -116 -81t-109 -23q-55 0 -96.5 38t-51.5 95q33 -20 71 -18q-45 54 -48 127q61 -100 194 -135l11 19q-60 33 -95.5 83.5t-35.5 102.5q0 42 29 70.5t71 28.5q56 0 93 -32.5t49 -93.5l29 -1q20 64 -16 123q54 -57 45 -181l-2 -12
l20 -12q26 9 58 5l16 13q-4 14 -4 162q0 60 15.5 88t59.5 49l-6 19q-36 0 -68 -17q10 28 33 48t41 25l-6 20q-59 -8 -94 -38q3 13 7.5 25.5t9 22.5t11.5 20t12 16.5t14 15l13 12.5t14 10.5l13 8.5l12.5 8t10.5 7l-13 18l-9 -3q-25 -8 -41 -14.5t-46.5 -26.5t-49 -43.5
t-33.5 -65t-15 -93.5l4 -7q28 -31 32 -66q-49 54 -130 54q-137 0 -233.5 -95t-96.5 -231q0 -97 59 -161t148 -64q80 0 140 33q20 54 94 118l3 -20q4 -20 4 -35q0 -46 -37 -94l16 -16q32 10 57 30t35 44q24 -12 48 -12zM237 46q61 0 114 23.5t121 83.5l3 -6
q-84 -71 -106 -128q-58 -29 -127 -29q-81 0 -136.5 60t-55.5 155q0 130 91 223t224 93q100 0 147 -93v10q0 42 -7.5 64.5t-30.5 47.5q0 50 14 90.5t33 64t46.5 41t45 24.5t38.5 14q5 1 7 2q-55 -35 -78 -61q-52 -60 -52 -153q19 77 117 88q-28 -8 -59.5 -40.5t-31.5 -76.5
q7 14 30.5 27t58.5 14q-46 -22 -65 -50.5t-19 -95.5q0 -147 5 -165q-34 5 -65 -5q1 2 1.5 5.5t0.5 5.5q7 97 -24 156.5t-97 69.5q35 -17 56.5 -64.5t6.5 -97.5q-8 40 -26.5 68t-42.5 41.5t-45 19t-43 5.5q-47 0 -81 -31t-34 -78q0 -55 38 -107.5t101 -87.5q-94 25 -146 80
t-60 101q-13 -35 -4 -82.5t35 -88.5q-43 7 -64 37q0 -73 49 -123.5t117 -50.5zM136 247q16 -53 48 -82q-30 -10 -75 3q14 -45 49.5 -73.5t78.5 -28.5q53 0 97.5 20t104.5 70l-37 17q24 61 82 84l-16 9l3 17q2 37 1 55l-3 -8l-54 1q-22 126 -129 126q-36 0 -60.5 -25.5
t-24.5 -63.5q0 -52 36.5 -102t97.5 -81l-20 -35q-109 25 -179 97zM609 78q45 0 78 39q-4 -32 -26 -55.5t-59 -23.5q-41 0 -58 27q-1 -31 -28 -55.5t-58 -33.5q40 52 40 100q0 15 -4.5 37t-4.5 39q0 37 21 58q-40 -4 -77 -37q33 74 109 74q44 0 68 -20.5t24 -52.5
q0 -19 -12 -34q0 26 -14 42t-34 16q-19 0 -29 -13.5t-10 -32.5q0 -31 21.5 -52.5t52.5 -21.5z" />
    <glyph glyph-name="e" unicode="e" horiz-adv-x="566" 
d="M-7 242q0 37 25 61t63 24h-4l-14 82l-2 -1l-30 4l-8 8l2 20q49 43 145.5 72t166.5 29q85 0 141 -43.5t65 -116.5l-17 -17q-40 -10 -40 -28q2 -2 8.5 -0.5t22.5 9.5t35 20l32 -1l8 -9l-1 -19q-45 -46 -145 -86t-211 -41l-8 37l27 5q-36 7 -57 13l-1 -5l-23 -4l1 -3l2 -4
t2 -3.5t1 -2.5q4 -11 17 -37q38 -75 76.5 -108.5t84.5 -33.5q51 0 86 27.5t48 79.5l36 10l11 -5l12 -15q-4 -85 -56 -134.5t-138 -49.5q-77 0 -141 42q8 -8 20 -15l-26 -33q-66 20 -93.5 59t-40.5 132q-6 48 -13 77q-3 -8 -6 -21l-15 -8h-45v12q-3 13 -3 21zM8 242
q0 -6 3 -20v-3h30q7 41 25 41q11 0 24 -98q12 -86 35.5 -123.5t77.5 -55.5l14 18q-45 31 -61 97q69 -112 200 -112q79 0 126.5 46t52.5 126l-8 10l-2 1l-21 -6q-15 -52 -54 -81t-93 -29q-51 0 -93 35.5t-81 111.5q-13 26 -18 38l-14 28l3 -4l28 5l1 12q57 -20 128 -23
q-29 -10 -67 -17l4 -20q102 4 192.5 40t135.5 80l1 14l-1 1l-19 1q-68 -43 -83 -27q-3 3 -3 8q0 24 46 36l11 11q-10 68 -61.5 108t-129.5 40q-65 0 -156 -27t-141 -67l-2 -15l1 -1l18 -2l18 9l19 -112q-4 1 -13 1q-31 0 -52 -21.5t-21 -53.5zM178 291v1q139 -19 202.5 17.5
t63.5 98.5q0 41 -27 67t-75 26q-57 0 -97 -35.5t-58 -86.5t-20 -112q-28 45 -59 54l-17 105h1q14 -38 39 -38q21 0 21 23q0 16 -11 26t-35.5 9t-55.5 -18l-1 1q50 40 137 66t151 26q74 0 120.5 -37.5t55.5 -101.5q-57 -16 -57 -46q0 -11 10.5 -17.5t36.5 -1t62 29.5l1 -1
q-45 -43 -132 -78t-187 -39q74 15 107 37q-101 -3 -176 25zM185 301q10 88 51.5 139t105.5 51q40 0 63.5 -22.5t23.5 -60.5q0 -65 -64 -93.5t-180 -13.5zM201 309q103 -11 158 14.5t55 84.5q0 34 -19 53.5t-53 19.5q-55 0 -93 -46t-48 -126zM95 434l11 -5q11 -31 25 -31
q6 0 6 13q0 33 -42 23zM357 43q53 0 98.5 28t62.5 89l2 -1q-5 -80 -49.5 -121.5t-114.5 -41.5q-95 0 -153 62.5t-71 152.5q-1 -92 17.5 -141t58.5 -77q-50 17 -71 53.5t-32 116.5q-9 64 -15.5 85.5t-23.5 21.5q-31 0 -40 -49q-3 15 -3 21q0 28 17 46.5t41 18.5q13 0 22.5 -4
t18.5 -16t14 -21t16 -33t18 -38q77 -152 187 -152z" />
    <glyph glyph-name="f" unicode="f" horiz-adv-x="453" 
d="M356 478l-4 14q26 66 17 121.5t-44 55.5q-65 0 -86 -94.5t11 -254.5v1q80 32 74 120l12 15l11 5l36 -8q27 -71 14 -137.5t-65 -116.5h-38l-7 8l-4 15q13 29 17 44q-26 -6 -72 -13q54 -25 54 -87q0 -27 -8 -59q-5 -21 -5 -35q0 -42 38 -92l-28 -27q-34 8 -62.5 28
t-42.5 44q-24 -8 -44 -8q-58 0 -89 40.5t-21 104.5l28 4q37 -69 79 -69q20 0 33.5 15t13.5 39q0 26 -11 26q-9 0 -14.5 -13t-4.5 -32l-49 -11q-23 27 -23 52q0 41 36 67q-72 -3 -74 -3l-24 16v9l20 16q103 15 117.5 74t-62.5 148v18l2 2l-25 -10l-36 11l-3 13l14 16
q12 4 29 17t26.5 22.5l33.5 34.5q33 34 54 53t62.5 38.5t85.5 19.5q48 0 85.5 -22.5t52.5 -60.5q10 26 9 40l24 16h15l24 -16q6 -143 -145 -225l-30 4zM325 679q45 0 57.5 -57.5t-15.5 -129.5l3 -11l1 -1l18 -2q139 77 134 210l-15 10h-3l-15 -10q0 -34 -31 -74
q-3 48 -39.5 79.5t-91.5 31.5q-40 0 -79 -19t-59 -37t-53 -52q-60 -62 -89 -74l-9 -11l1 -4l21 -7q37 16 59 14.5t22 -21.5v-9q-5 0 -21 12l-20 -1l-1 -1v-13q31 -36 47 -70.5t17 -68.5t-30.5 -59t-95.5 -35l-13 -10v-2l15 -10q175 5 280 35q-6 -27 -22 -61l3 -11l1 -1h22
q46 46 58 109t-12 127l-21 5l-2 -1l-8 -10q6 -102 -102 -134l-2 13q-33 169 -9 265t99 96zM508 688q5 -129 -126 -201l-1 1q16 40 19.5 84.5t-14.5 80.5t-61 36q-33 0 -59 -17.5t-46 -60t-19.5 -114.5t19.5 -181l5 -25l4 1q62 15 95 53t30 95l2 1q23 -62 11 -122.5
t-54 -102.5l-1 1q20 46 26 82q-90 -35 -298 -42v2q69 11 103.5 38.5t34 64t-17.5 72.5t-49 74l1 1q18 -14 30 -14q15 0 15 19q0 14 -11 23t-35 8.5t-56 -15.5l-1 4q27 11 60.5 42.5t60 61.5t68 53.5t85.5 23.5q64 0 94.5 -43.5t19.5 -93.5q24 17 43.5 51t19.5 59h3zM267 166
q0 40 -24.5 63.5t-65.5 23.5q-36 0 -63 -23.5t-27 -56.5q0 -21 15 -40l27 6q0 22 9.5 35t24.5 13q26 0 26 -36q0 -28 -17.5 -46t-44.5 -18q-52 0 -92 74q-9 -60 18 -97t77 -37q26 0 52 14q9 -25 34 -45.5t58 -30.5l16 16q-36 48 -36 91q0 15 5 37q8 30 8 57zM102 173
q0 30 23 50t52 20q37 0 56 -21.5t19 -55.5q0 -23 -6.5 -51.5t-6.5 -42.5q0 -28 9 -48.5t30 -48.5q-31 9 -58 33.5t-28 55.5q-6 -9 -24.5 -18t-37.5 -9q-37 0 -57 22.5t-24 56.5q33 -39 78 -39q32 0 54.5 20t22.5 54q0 21 -11 33.5t-30 12.5q-22 0 -35.5 -15.5t-13.5 -42.5
q-12 15 -12 34z" />
    <glyph glyph-name="g" unicode="g" horiz-adv-x="578" 
d="M20 -93q0 49 35 93.5t97 74.5q-119 111 -119 229q0 136 126 200.5t338 38.5l21 -16v-11l-24 -16q-28 1 -37 -5t-9 -24q0 -25 14 -46.5t30 -21.5q18 0 39 55l37 8l15 -9l8 -17q-37 -105 -122.5 -200.5t-171.5 -127.5l-32 8l-7 14l11 19q57 24 93 76t36 110q0 60 -34 96
t-91 36q-66 0 -108 -46t-42 -118v-4q54 80 181 101l30 -17v-10l-17 -16q-119 -25 -119 -139q0 -55 31 -85.5t87 -30.5q61 0 223 56l34 -12l4 -16l-17 -18q-38 -12 -104 -36l19 1q66 0 119 -22l14 -18l-4 -10l-30 -12q-28 10 -74 8q45 -39 45 -96q0 -86 -82.5 -147
t-198.5 -61q-106 0 -175 52t-69 132zM35 -93q0 -76 64 -125t165 -49q110 0 188 58t78 140q0 33 -16.5 60.5t-43.5 41.5q56 11 103 -3l18 7l1 3l-9 12q-52 19 -108 19q-100 0 -175 -66l2 6q-3 4 7 12.5t32 20t52 24.5t71 27.5t86 28.5l11 12l-2 8l-20 7q-158 -55 -223 -55
q-62 0 -97.5 33.5t-35.5 92.5q0 119 125 148l11 10v3l-18 10q-77 -14 -125.5 -52.5t-59.5 -90.5q-8 30 -8 57q0 76 46.5 125t118.5 49q64 0 102 -39t38 -103q0 -59 -36.5 -112t-95.5 -80l-7 -13l3 -6l19 -5q81 32 162 124t118 193l-6 12l-5 3l-22 -5q-22 -57 -51 -57
q-23 0 -41 24t-18 54q0 21 12.5 30t42.5 9l15 10v4l-13 10q-204 24 -323 -38t-119 -192q0 -120 125 -231q-64 -28 -101 -72.5t-37 -93.5zM290 132l-3 6q58 27 99.5 80.5t41.5 120.5q0 62 -39.5 107t-115.5 45q-78 0 -129 -51.5t-51 -132.5t47 -142q-29 69 12.5 133.5
t151.5 84.5v-3q-136 -33 -136 -158q0 -60 38.5 -98t109.5 -38q67 0 228 56l2 -8q-46 -14 -88.5 -29.5t-86 -33.5t-66.5 -35.5t-16 -29.5l-2 -1q-39 23 -75.5 52t-71.5 67t-56 85t-21 95q0 130 117 186t308 34v-4q-70 0 -70 -49q0 -30 20.5 -59t53.5 -29q40 0 65 63l5 -3
q-40 -110 -122 -196.5t-150 -114.5zM202 -164q5 16 15 38t33.5 56.5t52.5 62.5t74.5 48t97.5 20t103 -18l-1 -3q-37 9 -80.5 6t-61.5 -14q29 -3 54.5 -29.5t25.5 -71.5q0 -82 -75 -135t-176 -53q-99 0 -156.5 47t-57.5 117q0 46 36 89.5t99 69.5l2 -2q-99 -56 -99 -140
q0 -60 45 -99.5t130 -39.5q83 0 141 41t58 100q0 32 -20 53t-54 21q-57 0 -105.5 -51t-76.5 -114zM103 -76q0 80 91 131q37 -31 85 -59h10q-42 -38 -67.5 -84t-33.5 -73l10 -13l4 -1l18 6q32 72 77.5 115.5t90.5 43.5q26 0 42.5 -17.5t16.5 -46.5q0 -55 -53 -93t-131 -38
q-74 0 -117 34.5t-43 94.5zM118 -76q0 -56 38.5 -87.5t106.5 -31.5q72 0 120.5 35t48.5 86q0 25 -12 39.5t-32 14.5q-40 0 -82.5 -42.5t-73.5 -113.5l-29 -10l-15 4l-15 19q0 5 8.5 26t30 57t49.5 66h13q-44 25 -82 55q-74 -47 -74 -117z" />
    <glyph glyph-name="h" unicode="h" horiz-adv-x="730" 
d="M615 127q43 -1 71.5 -23t28.5 -55t-29.5 -56t-72.5 -23q-53 0 -84 28q-13 -6 -29 -6q-50 0 -59 44.5t34 95.5q2 62 18 114q-63 9 -66 98l25 7q39 -37 54 -37q17 0 28 17t11 45q0 37 -23.5 59t-64.5 22q-74 0 -125 -54t-41 -123l-45 -12v-4l-7 -4q44 -20 68.5 -66.5
t20.5 -109.5q-46 62 -71 85q1 -4 1 -12q0 -13 -5 -43q-4 -17 -4 -33q0 -45 39 -95l-28 -27q-75 18 -105 71q-23 -7 -40 -7q-58 0 -90.5 42t-27.5 110l28 4q39 -76 83 -76t44 47q0 33 -11 33q-6 0 -11.5 -14t-4.5 -31l-49 -11q-23 27 -23 52q0 29 19.5 51t51.5 34l-8 8
q5 105 5 167q0 33 -3 55t-6.5 36t-15.5 26t-21 18t-32 20l-40 25q53 12 104 1q-23 29 -52 43l-7 12l6 21q12 18 84 -17q-14 32 -38.5 59.5t-39.5 38t-20 12.5l-6 12l7 19l14 7q8 0 29.5 -7.5t54 -27t61.5 -47.5t49.5 -74.5t19.5 -101.5l-6 -9q-32 -32 -32 -121v-24
q28 36 77 67l15 10q34 23 34 28q0 3 -35 0l-14 33q53 30 100.5 25.5t51.5 -38.5q30 2 59 -2t59.5 -15.5t50.5 -37.5t23 -64q55 -7 57 -67t-54 -122l-47 17q14 39 14 68q-11 -28 -22 -77.5t-11 -78.5q0 -45 9 -79t20 -34q3 0 3 9q0 23 -14 33l-4 12zM32 614l28 -16.5
t24.5 -15t18 -14.5t15.5 -19t9.5 -25t7 -36.5t1.5 -48.5q0 -62 -5 -167l20 -9q33 11 80 0q-15 127 -15 176q0 88 34 125l4 7q1 53 -18.5 97.5t-46.5 71t-57 45t-50 25.5t-27 7l-7 -19q6 -4 12 -7.5t23.5 -18.5t31 -30.5t28 -40.5t21.5 -52q-23 19 -53 30.5t-43 11.5l-6 -19
q6 -3 17 -10t30 -25.5t28 -38.5q-47 22 -105 16zM146 272q5 105 5 167q0 56 -10.5 88.5t-24.5 45.5t-46 32q35 -3 59 -15.5t30 -25.5q0 23 -12.5 46t-30.5 37.5t-30 23t-18 10.5q22 0 65 -24t52 -64q1 38 -11.5 74t-30 59.5t-38.5 43t-32.5 27t-17.5 10.5q6 0 24 -6.5
t46 -24.5t53.5 -43t43.5 -68t17 -94q-38 -42 -38 -132q0 -62 13 -162q-36 6 -68 -5zM613 -20q37 0 62 20t25 49q0 27 -21 45.5t-54 21.5l-9 -18q19 -14 19 -41q0 -19 -15 -19q-20 0 -33 34t-13 89q0 57 20.5 119t36.5 62q5 0 7 -11t-1.5 -31.5t-11.5 -45.5l25 -9
q32 38 41.5 77.5t-5.5 65t-49 24.5q0 41 -21 68.5t-51 36t-63 13t-57 -1.5q4 21 -12 32t-46 8.5t-62 -18.5l8 -19q39 3 39 -11q0 -10 -41 -36l-15 -10q-138 -89 -68 -194l27 7q-7 71 48.5 125.5t133.5 54.5q47 0 75 -25t28 -66q0 -33 -14.5 -52.5t-39.5 -19.5q-23 0 -64 40
q3 -89 65 -89h5q-22 -56 -22 -149l-2 -44q-9 21 -13 47q-27 -42 -18.5 -74.5t43.5 -32.5q18 0 31 11q30 -33 82 -33zM624 106q26 -2 43.5 -18t17.5 -39q0 -27 -21 -43t-51 -16q-66 0 -81 51q-6 -29 -32 -29q-16 0 -25 14.5t-4 38.5q8 -20 17 -20q17 0 17 61q0 111 32 170
q-11 -11 -30 -11q-35 0 -46 46q22 -17 45 -17q32 0 50.5 22.5t18.5 59.5q0 43 -31.5 72t-86.5 29q-78 0 -141.5 -55.5t-55.5 -135.5q-65 96 64 180q4 3 17 11t18.5 12l13.5 10t11 11t3 10q0 25 -55 21q59 30 88 13q20 -12 5 -40q18 5 41 6.5t52.5 -2.5t53 -15.5t38.5 -38
t12 -64.5q36 9 53 -23q23 -43 -22 -107q-6 -10 -14 -19q13 37 14 61t-5 32t-17 8q-27 0 -49.5 -63t-22.5 -128q0 -60 15.5 -96.5t45.5 -36.5t30 29q0 32 -26 49zM312 127q-7 62 -44 98.5t-90 36.5q-47 0 -78.5 -23.5t-31.5 -59.5q0 -21 15 -40l27 6q0 21 9.5 34.5t23.5 13.5
q10 0 17 -12.5t7 -30.5q0 -57 -59 -57q-55 0 -96 81q-4 -63 24.5 -102t78.5 -39q24 0 48 13q10 -25 34.5 -45t57.5 -30l16 16q-37 48 -37 94q0 15 4 35q5 28 5 41q0 24 -9 42q32 -14 78 -72zM83 179q0 31 26.5 52t68.5 21q73 0 106 -74q-36 35 -78 37q22 -21 22 -58
q0 -17 -4.5 -39t-4.5 -37q0 -48 40 -100q-31 9 -58 33.5t-28 55.5q-6 -10 -22.5 -18.5t-35.5 -8.5q-36 0 -57 23t-28 56q33 -39 78 -39q33 0 53.5 17t20.5 50q0 22 -10.5 37.5t-28.5 15.5q-20 0 -34 -16t-14 -42q-12 15 -12 34z" />
    <glyph glyph-name="i" unicode="i" horiz-adv-x="329" 
d="M213 626l-39 1q-69 90 -69 134q0 31 21 50t54 19q29 0 49.5 -18t18.5 -42l-37 -19q-1 10 -1 0q0 -46 16 -105l-5 -13zM180 820q-27 0 -43.5 -16.5t-16.5 -42.5q0 -41 63 -124l23 -1l1 1l4 9q-31 125 3 119l19 10q0 18 -16 31.5t-37 13.5zM196 644l-1 -1q-60 79 -60 118
q0 22 12 35.5t33 13.5q16 0 27 -10.5t11 -24.5q-35 9 -37 -36q-1 -33 15 -95zM312 116q-7 6 -17 16q-19 19 -28 27q1 -4 1 -12q0 -13 -5 -43q-4 -17 -4 -33q0 -45 39 -95l-27 -27q-33 7 -61.5 26t-43.5 43q-17 -5 -31 -5q-41 0 -66 27.5t-30 77.5l40 7q-16 23 -16 44
q0 30 20.5 52.5t55.5 33.5l-4 2q6 40 6 90q0 23 -7 42t-13 19q-4 0 -6 -7.5t2 -13.5l-25 -17h-12l-22 11q-16 40 3 69.5t62 32.5q-26 29 -56 32l9 38q53 -2 85 -14q-3 7 -7 12v14l22 22q51 -16 79.5 -61t23.5 -100l-4 -7q-16 -21 -22 -40t-6 -52q0 -13 6 -55q1 -4 2.5 -11.5
t1.5 -9.5l-5 -3q71 -33 85 -124zM245 187q10 -4 21 -12t17 -13.5t20 -20t19 -18.5q-9 60 -45.5 94.5t-88.5 34.5l-16 -1q34 11 70 -2q-10 64 -10 78q0 57 29 96l3 5q5 48 -18.5 89t-64.5 57l-16 -16q12 -12 20 -44q-33 24 -96 28l-5 -20q41 -12 65 -51q-12 2 -18 2
q-38 0 -55.5 -25t-4.5 -61l14 -7h1l15 10q0 11 6 19.5t14 8.5q15 0 25 -20t10 -51q0 -49 -5 -86l20 -10q-41 -5 -67 -27t-26 -55q0 -21 15 -40l27 6q0 21 9.5 34.5t23.5 13.5q10 0 17 -12.5t7 -30.5q0 -25 -13.5 -41t-35.5 -16q-28 0 -45 33l-28 -5q12 -88 80 -88
q21 0 39 10q11 -24 35.5 -43.5t55.5 -28.5l16 16q-37 48 -37 94q0 15 4 35q5 28 5 41q0 22 -8 40zM224 265q-27 6 -58 -5q5 38 5 87q0 36 -13.5 58.5t-36.5 22.5q-14 0 -24.5 -11.5t-10.5 -26.5h-1q-13 37 4.5 55t41.5 18q35 0 48 -41q0 33 -26 65.5t-65 44.5q24 -2 39.5 -5
t33.5 -11t30 -24.5t18 -40.5q-1 84 -34 114q34 -14 56 -51.5t18 -84.5q-19 -26 -25.5 -47t-6.5 -55q0 -20 7 -62zM188 242q73 0 106 -74q-37 33 -77 37q21 -21 21 -58q0 -17 -4.5 -39t-4.5 -37q0 -48 40 -100q-31 9 -58 33.5t-28 55.5q-4 -11 -17 -19t-31 -8q-54 0 -65 79
q20 -39 58 -39q26 0 45 17.5t19 49.5q0 22 -10.5 37.5t-28.5 15.5q-20 0 -34 -16t-14 -42q-12 15 -12 34q0 31 26.5 52t68.5 21zM153 173q-8 0 -13.5 -14t-4.5 -31l-38 -9q13 -26 31 -26q15 0 24.5 12.5t9.5 34.5q0 33 -9 33z" />
    <glyph glyph-name="j" unicode="j" horiz-adv-x="363" 
d="M216 626l-39 1q-69 90 -69 134q0 31 21 50t54 19q29 0 49.5 -18t18.5 -42l-38 -20q5 -64 16 -104l-5 -13zM183 820q-27 0 -43.5 -16.5t-16.5 -42.5q0 -41 63 -124l23 -1l1 1l4 9q-32 125 0 120q2 -1 3 -1l19 10q0 18 -16 31.5t-37 13.5zM199 644l-1 -1q-60 79 -60 118
q0 22 12 35.5t33 13.5q16 0 27 -10.5t11 -24.5q-35 10 -37 -36q-1 -32 15 -95zM369 -104l5 -33q-10 -8 -35 -8.5t-46 5.5q-28 -49 -86.5 -79.5t-123.5 -30.5q-77 0 -140.5 45.5t-81.5 115.5l10 17l11 6l34 -7q26 -45 71 -71t97 -26q61 0 100 42.5t39 109.5q0 28 -11 52
t-22 24q-7 0 -11 -13t-2 -27l-50 -11q-23 28 -23 54t18.5 48.5t48.5 33.5l-10 5q10 56 10 119q0 60 -16.5 95.5t-43.5 35.5q-32 0 -42 -28l-23 -10h-10l-23 11q-13 42 21.5 76.5t88.5 34.5q7 0 23 -2q-33 31 -72 34l5 37q65 5 109 -13q-6 12 -8 13v14l22 22q51 -17 79.5 -61
t23.5 -99l-1 -2v-2q-20 -43 -25.5 -80t-5.5 -96q0 -52 10 -105q52 -18 58 -37v-17l-8 -7l-31 -4q-8 5 -19 9q42 -47 42 -117q0 -45 9 -59t35 -14zM111 408q35 0 55 -37.5t20 -103.5q0 -61 -9 -115l20 -11q35 11 71 -2q-10 57 -10 108q0 58 5.5 96t25.5 82l1 3q5 48 -18.5 89
t-64.5 57l-16 -16q13 -13 21 -47q-41 34 -119 31l-3 -20q60 -14 90 -64q-26 14 -57 14q-46 0 -76 -29.5t-20 -65.5l14 -7h1l14 6q14 32 55 32zM192 150q9 54 9 117q0 72 -24 111.5t-66 39.5q-25 0 -43.5 -11.5t-25.5 -26.5h-1q-8 31 17 56.5t65 25.5q49 0 82 -40
q0 33 -31.5 65.5t-79.5 44.5q116 6 141 -81q-1 84 -34 114q34 -14 56 -51.5t18 -84.5q-21 -46 -26.5 -84.5t-5.5 -97.5q0 -50 7 -92q-27 6 -58 -5zM285 -126q37 -17 73 -7l-3 20q-25 3 -35 20.5t-10 61.5q0 89 -61 131q29 4 57 -12l19 2l1 1v14q-12 13 -42 25t-63 12
q-41 0 -71.5 -24t-30.5 -57q0 -22 15 -42l27 6q0 18 8.5 30.5t20.5 12.5q19 0 33.5 -25.5t14.5 -60.5q0 -71 -43.5 -116.5t-110.5 -45.5q-55 0 -103.5 27t-75.5 72l-20 4l-2 -1l-7 -12q19 -65 77 -107.5t130 -42.5q66 0 121.5 32t80.5 82zM295 -31q0 -52 14.5 -70.5
t43.5 -21.5q-11 -5 -36.5 -2t-39.5 18q-19 -52 -73 -87.5t-121 -35.5q-71 0 -123.5 42t-69.5 101l2 1q28 -47 81 -75.5t111 -28.5q75 0 122 49.5t47 122.5q0 43 -19 69.5t-44 26.5q-20 0 -32 -16t-12 -37q-12 15 -12 36q0 29 26 50t61 21q30 0 56 -10.5t38 -23.5l-1 -1
q-21 12 -48.5 13t-42.5 -9q33 -14 52.5 -49.5t19.5 -82.5z" />
    <glyph glyph-name="k" unicode="k" horiz-adv-x="599" 
d="M-4 173l29 4q37 -80 82 -80q20 0 33 14.5t13 39.5q0 26 -9 26q-8 0 -13.5 -14t-4.5 -31l-49 -11q-23 27 -23 52q0 32 22.5 54.5t50.5 31.5l-5 11q3 15 3 159q0 71 -22.5 96.5t-106.5 56.5q58 23 116 7q-22 35 -51 42l-10 13l8 28q47 -3 82 -20q-10 25 -26.5 46.5
t-29.5 31.5t-32.5 22.5l-22.5 14.5l25 34q2 -2 29.5 -10.5t56 -24t59.5 -42t50.5 -74.5t19.5 -111l-6 -9q-19 -20 -25.5 -40.5t-6.5 -60.5v-8q24 53 73 86.5t107 33.5q68 0 109 -35t41 -93q0 -55 -50 -96t-143 -62q27 -20 67 -64q68 -76 96 -76v3l-28 19v8l15 13
q37 18 74.5 -0.5t37.5 -54.5q0 -26 -19.5 -45t-49.5 -24q7 -44 -35 -68t-98 -7l-17 15v8l7 5l-10 6q-11 95 -53 161t-86 82q34 -27 46 -64l-45 -21q-5 6 -13 12q1 -4 1 -12q0 -13 -5 -43q-4 -17 -4 -33q0 -45 39 -95l-28 -27q-34 8 -62.5 28t-42.5 44q-24 -8 -45 -8
q-56 0 -85.5 40t-29.5 116zM11 173q0 -146 100 -146q27 0 53 14q9 -25 34 -45.5t58 -30.5l16 16q-37 48 -37 94q0 15 4 35q5 28 5 41q0 23 -9 41q19 -7 40 -27l24 11q-23 59 -85 76l16 9l7 -6q70 -7 121 -78t65 -179l15 -9h2l15 10q-1 17 4 27.5t13 10.5q11 0 11 -19
q0 -30 -41 -30l-15 -10v-1l11 -10q52 -14 86 11t21 65q30 0 50.5 17t20.5 43q0 30 -28.5 45t-58.5 3l-10 -9v-1l15 -10q13 0 13 -13q0 -12 -18 -12q-16 0 -34.5 12t-32 25.5t-37.5 40.5q-50 56 -83 76q98 18 151.5 57.5t53.5 95.5q0 53 -37 85.5t-98 32.5q-78 0 -133.5 -63
t-50.5 -145l15 -9h1l15 8q10 67 48.5 106t93.5 39q28 0 45.5 -17t17.5 -44q0 -111 -226 -129l-10 -7q-11 80 -11 159q0 41 7 62t27 43l4 7q0 37 -8 69.5t-19 55t-29 42t-33 30.5t-36 21.5t-32 15t-28 9.5l-9 3l-13 -18q1 -1 10.5 -7l12.5 -8l13 -8.5t14 -10.5l13 -12.5
t14 -15t12 -16.5t11.5 -20t9 -22.5t7.5 -25.5q-35 30 -94 38l-6 -20q18 -5 41 -25t33 -48q-49 26 -110 13q68 -26 89.5 -54.5t21.5 -97.5q0 -155 -4 -162l16 -13q-34 -5 -58.5 -28t-24.5 -53q0 -21 15 -40l27 6q0 21 9.5 34.5t23.5 13.5q10 0 17 -11.5t7 -27.5
q0 -26 -17.5 -43.5t-43.5 -17.5q-55 0 -96 86zM56 777q72 -23 106 -51q78 -63 78 -185q-23 -25 -30.5 -47.5t-7.5 -64.5q0 -95 13 -170q-31 10 -65 5q5 18 5 165q0 67 -19 95.5t-65 50.5q35 -1 58.5 -14t30.5 -27q0 44 -31.5 76.5t-59.5 40.5q98 -11 117 -88
q0 47 -12.5 84.5t-34 62t-38 37.5t-38.5 26q-5 3 -7 4zM239 265q83 -9 134.5 -87t64.5 -179h2q-1 24 8.5 36t23.5 12q26 0 26 -29q0 -15 -14 -27.5t-42 -12.5v-1q56 -15 79.5 15t2.5 64q31 -8 54 5.5t23 41.5q0 27 -22.5 37t-44.5 2v-1q13 0 20.5 -6.5t7.5 -16.5
q0 -22 -33 -22q-26 0 -55.5 23t-53 51.5t-55 56.5t-59.5 37q32 4 61.5 11.5t71.5 23.5t67.5 45.5t25.5 68.5q0 47 -31 77.5t-89 30.5q-77 0 -125 -63.5t-44 -133.5h1q11 70 53 111.5t104 41.5q35 0 56.5 -20.5t21.5 -50.5q0 -60 -63.5 -95t-176.5 -44v-2zM231 287
q218 15 218 119q0 23 -13 37t-35 14q-49 0 -83 -37.5t-45 -102.5l-24 -13h-10l1 -11zM31 116q33 -39 76 -39q31 0 53.5 19.5t22.5 51.5q0 19 -10.5 34t-28.5 15q-20 0 -34 -16t-14 -42q-12 15 -12 34q0 31 26.5 52t68.5 21q37 0 65 -20t41 -54q-36 34 -78 37q22 -21 22 -58
q0 -17 -4.5 -39t-4.5 -37q0 -48 40 -100q-31 9 -58 33.5t-28 55.5q-6 -9 -24.5 -18t-38.5 -9q-63 0 -80 79z" />
    <glyph glyph-name="l" unicode="l" horiz-adv-x="348" 
d="M-5 591q58 23 116 7q-22 35 -51 42l-10 13l8 28q47 -3 82 -20q-10 25 -26.5 46.5t-29.5 31.5t-32.5 22.5l-22.5 14.5l25 34q2 -2 29.5 -10.5t56 -24t59.5 -42t50.5 -74.5t19.5 -111l-6 -9q-19 -20 -25.5 -40.5t-6.5 -60.5q0 -38 3 -78.5t6 -64t5 -28.5l-20 -12
q23 -18 23 -55q0 -19 -4 -49q-5 -25 -5 -51q0 -42 25 -42q40 0 66 65l35 8l12 -6l11 -15q-9 -61 -47 -98t-93 -37q-45 0 -75 20.5t-38 56.5q-13 -4 -29 -4q-59 0 -87.5 44t-15.5 114l29 1q23 -78 73 -78q14 0 23.5 14t9.5 34q0 10 -1 14.5t-7 4.5t-15.5 -5t-28.5 -17l-23 11
q14 55 69 78l-7 5l-6 10q5 22 5 160q0 71 -22.5 96.5t-106.5 56.5zM28 590q68 -26 89.5 -54.5t21.5 -97.5q0 -137 -5 -162l17 -12q32 4 58 -5l20 12q-13 72 -13 167q0 41 7 62t27 43l4 7q0 37 -8 69.5t-19 55t-29 42t-33 30.5t-36 21.5t-32 15t-28 9.5l-9 3l-13 -18
q1 -1 10.5 -7l12.5 -8l13 -8.5t14 -10.5l13 -12.5t14 -15t12 -16.5t11.5 -20t9 -22.5t7.5 -25.5q-35 30 -94 38l-6 -20q18 -5 41 -25t33 -48q-49 26 -110 13zM214 269q-31 10 -65 5q5 28 5 164q0 67 -19 95.5t-65 50.5q35 -1 58.5 -14t30.5 -27q0 44 -31.5 76.5t-59.5 40.5
q98 -11 117 -88q0 47 -12.5 84.5t-34 62t-38 37.5t-38.5 26q-5 3 -7 4q72 -23 106 -51q78 -63 78 -185q-23 -25 -30.5 -47.5t-7.5 -64.5q0 -94 13 -169zM18 204q-13 -65 12.5 -105.5t75.5 -40.5q21 0 41 10q4 -39 30.5 -61t70.5 -22q48 0 82 33.5t43 89.5l-8 11l-2 1l-21 -5
q-28 -67 -82 -67q-36 0 -36 52q0 26 5 53q4 28 4 47q0 61 -59 61q-33 0 -60 -21.5t-36 -56.5q26 16 42.5 21t24.5 -1.5t8 -25.5q0 -25 -14 -41.5t-34 -16.5q-63 0 -87 85zM105 210q27 41 69 41q44 0 44 -51q0 -17 -4.5 -47.5t-4.5 -52.5q0 -62 51 -62q65 0 96 73l2 -1
q-9 -56 -39.5 -85.5t-70.5 -29.5q-49 0 -71 31.5t-14 78.5q-16 -37 -57 -37q-30 0 -51 20t-25 59q28 -38 75 -38q28 0 45.5 20t17.5 48q0 26 -17 35.5t-46 -2.5z" />
    <glyph glyph-name="m" unicode="m" horiz-adv-x="985" 
d="M877 132q42 -3 67.5 -24.5t25.5 -53.5q0 -37 -28.5 -60.5t-74.5 -23.5t-75 29q-15 -5 -30 -5q-33 0 -49.5 23t-9.5 60l43 4v27q0 67 26 138q-54 6 -71 67l45 18q18 -17 32 -17q11 0 19.5 17t8.5 40q0 76 -71 76q-78 0 -92 -86l-24 -13h-9q-2 -13 -8 -37t-7 -30
q-26 -96 -26 -153q0 -17 3.5 -35.5t7.5 -30t7 -11.5q5 0 5 11q0 9 -4 19t-8 12l-7 12l9 25q43 4 72.5 -18t29.5 -57q0 -37 -30.5 -61t-77.5 -24q-50 0 -80 28q-16 -4 -27 -4q-44 0 -56 35t17 79l25 -2v2q0 70 26 138q-28 2 -47 19.5t-24 48.5l45 17q18 -17 30 -17t21 17
t9 42q0 35 -15 54.5t-41 19.5q-59 0 -104.5 -57.5t-23.5 -105.5l-49 -17l-8 11l3 -17q1 -2 1 -6t1 -6q66 -35 80 -120l-25 -9q-7 6 -17 16q-19 19 -28 27q1 -4 1 -12q0 -13 -5 -43q-4 -17 -4 -33q0 -45 39 -95l-28 -27q-73 18 -105 70q-18 -6 -40 -6q-58 0 -90.5 42
t-27.5 110l28 4q39 -76 83 -76t44 47q0 33 -9 33q-8 0 -13.5 -14t-4.5 -31l-49 -11q-23 27 -23 52q0 28 19.5 51t53.5 34q5 31 5 73q0 15 -1 21q-22 -27 -64 -27q-38 0 -63 22.5t-25 56.5q0 40 32.5 66.5t80.5 26.5q8 0 24 -2q-26 31 -58 34l9 38q53 -2 85 -14q-3 7 -7 12
v14l22 22q49 -16 77.5 -58t26.5 -95l17 16q38 34 38 52q0 6 -3 6q-2 0 -32 -2l-13 34q47 26 92.5 21t56.5 -36q18 2 27 2q86 0 118 -73q8 9 29 28q16 14 16 20t-3 6q-2 0 -32 -2l-14 34q50 27 95 22t55 -38q15 3 32 3q55 0 89 -32.5t36 -87.5q53 -5 60 -58q8 -60 -45 -125
q-25 -31 -59 -54q-2 -26 -2 -36q0 -23 4 -46.5t8.5 -37.5t8.5 -14q3 0 3 12q0 9 -4.5 19t-8.5 12l-7 13zM344 127q-14 87 -79 117q-11 59 -11 77q0 43 6 67t23 49l3 5q5 48 -18.5 89t-64.5 57l-16 -16q12 -12 20 -44q-33 24 -96 28l-5 -20q47 -14 71 -62q-26 13 -54 13
q-42 0 -70 -23.5t-28 -59.5q0 -31 20.5 -50t52.5 -19q26 0 43.5 14t17.5 35l-27 6q-6 -9 -20 -9q-19 0 -19 23q0 28 30 28q26 0 40.5 -26.5t14.5 -74.5q0 -44 -6 -80q-33 -8 -52.5 -29t-19.5 -49q0 -21 15 -40l27 6q0 21 9.5 34.5t23.5 13.5q10 0 17 -12.5t7 -30.5
q0 -57 -59 -57q-55 0 -96 81q-4 -63 24.5 -102t78.5 -39q29 0 48 12q10 -24 35 -44t57 -30l16 16q-37 48 -37 94q0 15 4 35q5 28 5 41q0 22 -8 40q10 -4 21 -12t17 -13.5t20 -20t19 -18.5zM188 258q5 32 5 73q0 111 -70 111q-21 0 -33 -11t-12 -27q0 -13 8 -23t24 -10
q25 0 34 13q0 -16 -13 -27.5t-33 -11.5q-25 0 -41.5 15.5t-16.5 43.5q0 33 24.5 53t58.5 20q51 0 78 -41q0 33 -26 65.5t-65 44.5q24 -2 39.5 -5t33.5 -11t30 -24.5t18 -40.5q-1 84 -34 114q34 -14 56 -51.5t18 -84.5q-19 -28 -25.5 -52.5t-6.5 -69.5q0 -30 7 -65
q-30 9 -58 2zM867 -20q40 0 64 20t24 54q0 25 -18.5 43.5t-49.5 23.5l-9 -19q20 -11 20 -40q0 -22 -17 -22q-15 0 -25.5 30t-10.5 78q0 67 15.5 130.5t29.5 63.5q4 0 6 -9.5t0.5 -26t-6 -35.5t-15 -41t-24.5 -39q82 52 98 128q12 58 -22 83q-15 11 -36 10q1 54 -29 86.5
t-81 32.5q-24 0 -45 -7q-1 33 -36 41t-84 -15l8 -19q23 1 31 -2t8 -13q0 -9 -21 -28q-35 -30 -44 -51q-9 44 -39 69t-74 25q-21 0 -39 -6q-2 30 -38 38t-82 -13l7 -19q23 1 31 -2t8 -13q0 -20 -43 -59l-20 -18q-43 -45 -48 -80.5t27 -78.5l26 9q-17 54 32 111t113 57
q33 0 52 -22t19 -62q0 -31 -12.5 -50t-32.5 -19q-17 0 -34 14l-25 -9q15 -62 75 -52q-31 -68 -31 -149q0 -51 -5 -51t-23 45q-25 -38 -16 -68t43 -30q19 0 31 9q25 -33 76 -33q41 0 67 20.5t26 54.5q0 28 -21.5 47t-53.5 19l-7 -19q20 -11 20 -40q0 -21 -20 -21
q-14 0 -23.5 24.5t-9.5 62.5q0 57 26 155q14 55 18 84l1 -2l14 -7h1l15 8q7 43 35 67t71 24q41 0 63.5 -22.5t22.5 -63.5q0 -29 -12.5 -48t-30.5 -19q-21 0 -36 14l-24 -10q20 -59 74 -51q-31 -68 -31 -149q0 -51 -3 -51q-6 0 -12 14l-29 -3q-4 -28 8.5 -46t36.5 -18
q19 0 34 10q26 -34 71 -34zM885 111q22 -4 38.5 -18t16.5 -39q0 -29 -19.5 -46.5t-53.5 -17.5q-53 0 -70 53q0 -14 -11 -21.5t-24 -7.5q-16 0 -25 14.5t-5 38.5q8 -20 26 -20q5 0 8 1.5t5 5t3 7t1.5 10.5t0.5 11v13v13q0 37 10.5 86.5t32.5 85.5q-8 -9 -23 -13.5t-34.5 5
t-29.5 39.5q19 -17 46 -17q28 0 43 23.5t15 53.5q0 42 -25.5 69t-75.5 27q-43 0 -77.5 -23.5t-43.5 -75.5h-1q-12 33 -3.5 58t23.5 38l30 27t15 25q0 29 -55 25q51 24 79 12t17 -48q28 16 62 16q40 0 70 -29t24 -92q16 4 30.5 -1.5t23 -19.5t10.5 -32.5t-8 -44t-31 -51.5
q12 36 12.5 60.5t-6.5 32.5t-16 8q-23 0 -41.5 -59.5t-18.5 -144.5q0 -118 51 -118q32 0 32 32q0 33 -28 49zM485 521q41 0 71 -29t30 -90q0 -36 -23.5 -127t-23.5 -147q0 -41 12 -69t36 -28q15 0 25 8.5t10 22.5q0 33 -28 49q25 0 42.5 -15t17.5 -41q0 -30 -21.5 -47.5
t-56.5 -17.5q-29 0 -48.5 14t-25.5 39q0 -14 -10 -21.5t-23 -7.5q-16 0 -25 15t-3 38q9 -20 24 -20q12 0 16 14.5t4 46.5q0 38 10.5 87.5t33.5 84.5q-6 -6 -17.5 -10t-25.5 -4.5t-26.5 11t-18.5 34.5q19 -17 44 -17q26 0 43 21t17 58q0 44 -23.5 69t-62.5 25
q-70 0 -124 -60.5t-35 -120.5q-19 25 -23.5 48t4.5 42.5t16.5 30t22.5 25.5q3 3 24.5 22t32 33.5t10.5 28.5q0 29 -55 25q48 22 78.5 10.5t17.5 -46.5q22 16 57 16zM153 396q-12 26 -30 26q-17 0 -17 -18q0 -12 9 -12t10 10zM862 224q12 24 18 48.5t6 37.5l1 12
q-3 0 -7 -10.5t-9.5 -34t-8.5 -53.5zM115 173q0 31 26.5 52t68.5 21q73 0 106 -74q-37 33 -77 37q21 -21 21 -58q0 -17 -4.5 -39t-4.5 -37q0 -48 40 -100q-31 9 -58 33.5t-28 55.5q-16 -27 -58 -27q-36 0 -57 23t-28 56q33 -39 78 -39q33 0 53.5 17t20.5 50q0 22 -10.5 37.5
t-28.5 15.5q-20 0 -34 -16t-14 -42q-12 15 -12 34z" />
    <glyph glyph-name="n" unicode="n" horiz-adv-x="744" 
d="M634 131q40 3 67.5 -20t27.5 -59q0 -35 -29.5 -58.5t-73.5 -23.5q-49 0 -79 27q-16 -4 -26 -4q-33 0 -50 24t-8 60l42 4q-1 6 0.5 16t1.5 11q0 78 23 137q-35 4 -54 30.5t-17 66.5l25 7q29 -25 36.5 -30t17.5 -5q27 0 27 53q0 80 -77 80q-73 0 -126 -55t-31 -108l-49 -17
l-12 19l9 -37q66 -35 80 -120l-25 -9q-7 6 -17 16q-19 19 -28 27q1 -4 1 -12q0 -13 -5 -43q-4 -17 -4 -33q0 -45 39 -95l-28 -27q-73 18 -105 70q-18 -6 -40 -6q-58 0 -90.5 42t-27.5 110l28 4q39 -76 83 -76t44 47q0 30 -11 30q-8 0 -12.5 -12t-3.5 -30l-49 -11
q-23 27 -23 52q0 28 19.5 51t53.5 34q5 31 5 73q0 15 -1 21q-22 -27 -64 -27q-38 0 -63 22.5t-25 56.5q0 40 32.5 66.5t80.5 26.5q8 0 24 -2q-26 31 -58 34l9 38q53 -2 85 -14q-3 7 -7 12v14l22 22q50 -16 78 -58t26 -95l12 8l3 1.5t3 2t4 2.5q32 22 42.5 32.5t10.5 21.5
q0 6 -3 6q-2 0 -32 -2l-13 34q40 20 83 20q56 0 67 -37q17 4 40 4q61 0 99.5 -32t44.5 -87q47 -5 58 -47.5t-17 -99t-84 -96.5q-2 -28 -2 -41q0 -22 3.5 -42.5t8.5 -32t9 -11.5q5 0 5 10q0 9 -5 19t-9 12l-7 13zM344 127q-14 87 -79 117q-13 70 -13 100q0 47 31 93l3 5
q5 48 -18.5 89t-64.5 57l-16 -16q12 -12 20 -44q-33 24 -96 28l-5 -20q47 -14 71 -62q-26 13 -54 13q-42 0 -70 -23.5t-28 -59.5q0 -31 20.5 -50t52.5 -19q26 0 43.5 14t17.5 35l-27 6q-6 -9 -22 -9q-17 0 -17 23q0 28 30 28q26 0 40.5 -26.5t14.5 -74.5q0 -44 -6 -80
q-33 -8 -52.5 -29t-19.5 -49q0 -21 15 -40l27 6q0 21 9.5 34.5t23.5 13.5q10 0 17 -12.5t7 -30.5q0 -57 -59 -57q-55 0 -96 81q-4 -63 24.5 -102t78.5 -39q29 0 48 12q10 -24 35 -44t57 -30l16 16q-37 48 -37 94q0 15 4 35q5 28 5 41q0 22 -8 40q10 -4 21 -12t17 -13.5
t20 -20t19 -18.5zM188 258q5 32 5 73q0 111 -70 111q-21 0 -33 -11t-12 -27q0 -13 8 -23t24 -10q25 0 34 13q0 -16 -13 -27.5t-33 -11.5q-25 0 -41.5 15.5t-16.5 43.5q0 33 24.5 53t58.5 20q51 0 78 -41q0 33 -26 65.5t-65 44.5q24 -2 39.5 -5t33.5 -11t30 -24.5t18 -40.5
q-1 84 -34 114q34 -14 56 -51.5t18 -84.5q-19 -28 -25.5 -52.5t-6.5 -69.5q0 -30 7 -65q-30 9 -58 2zM626 -20q38 0 63 20.5t25 51.5q0 29 -19.5 48.5t-49.5 20.5l-8 -19q20 -11 20 -40q0 -20 -18 -20q-16 0 -26 25.5t-10 70.5q0 15 2 45q83 56 101 134q13 60 -21 85
q-15 11 -36 10q-3 56 -37.5 87.5t-92.5 31.5q-29 0 -53 -8q0 41 -54 41q-32 0 -66 -14l7 -19q23 1 31 -2t8 -13q0 -13 -12.5 -26t-47.5 -36l-10.5 -7l-10.5 -7q-94 -66 -23 -160l26 9q-17 58 40 113t134 55q44 0 68 -23.5t24 -66.5q0 -63 -42 -63q-11 0 -20 4t-15.5 9
t-28.5 24q-2 -39 16.5 -62.5t49.5 -23.5l10 1q-28 -61 -28 -148q0 -51 -5 -51q-6 0 -12 14l-29 -3q-5 -28 8 -46.5t37 -18.5q18 0 30 9q26 -32 75 -32zM644 111q23 -1 39 -16.5t16 -42.5t-19.5 -44.5t-53.5 -17.5q-29 0 -49 14t-25 39q0 -14 -9.5 -22t-21.5 -8q-16 0 -25 15
t-5 39q8 -20 26 -20q4 0 7 1t5 3t3.5 4.5t2.5 6.5t1.5 7.5t0.5 9v9v10v10.5q0 109 42 173q-14 -16 -39 -16q-38 0 -49 46q22 -17 47 -17q27 0 42 19.5t15 53.5q0 45 -27.5 72.5t-79.5 27.5q-77 0 -143 -56.5t-45 -124.5q-65 87 20 146l24.5 16.5t25 17.5t18 15t15.5 18t4 17
q0 29 -55 25q32 13 60 13q52 0 36 -49q32 16 71 16q49 0 82.5 -29.5t32.5 -91.5q27 7 45.5 -11.5t15 -56.5t-35.5 -81q12 36 12.5 60.5t-6.5 32.5t-16 8q-24 0 -42.5 -59.5t-18.5 -154.5q0 -106 51 -106q33 0 33 30q0 33 -28 49zM153 396q-12 26 -30 26q-17 0 -17 -18
q0 -12 9 -12t10 10zM649 342q4 0 6 -10.5t0 -27.5t-6.5 -37t-16 -42t-27.5 -39q4 62 17.5 109t26.5 47zM619 220q13 25 20.5 52t7.5 38t-1 15q-3 -1 -8 -12.5t-11 -37t-8 -55.5zM115 173q0 31 26.5 52t68.5 21q73 0 106 -74q-37 33 -77 37q21 -21 21 -58q0 -17 -4.5 -39
t-4.5 -37q0 -48 40 -100q-31 9 -58 33.5t-28 55.5q-16 -27 -58 -27q-36 0 -57 23t-28 56q33 -39 78 -39q33 0 53.5 17t20.5 50q0 22 -10.5 37.5t-28.5 15.5q-20 0 -34 -16t-14 -42q-12 15 -12 34z" />
    <glyph glyph-name="o" unicode="o" horiz-adv-x="588" 
d="M20 264l1 5q51 109 19 264l11 16l12 6l35 -8q15 -40 34 -73q36 30 86.5 48.5t100.5 18.5q110 0 184.5 -69t74.5 -170q0 -80 -44 -139l29 -8q-20 -82 -88.5 -133.5t-155.5 -51.5q-51 0 -96 17l-11 -16q-98 19 -147.5 94.5t-44.5 198.5zM35 263q-5 -114 39 -186.5
t130 -93.5l12 18q48 -21 103 -21q80 0 142.5 46.5t84.5 122.5l-27 8q-63 -112 -196 -112q-84 0 -141.5 61t-57.5 151q0 91 54.5 149t139.5 58q86 0 137.5 -55t45.5 -134q-21 52 -76 85l-20 -15q41 -57 41 -120q0 -100 -100 -135l8 -19q100 22 154.5 82t54.5 149
q0 97 -70 163t-174 66q-52 0 -104.5 -21t-85.5 -56q-22 31 -43 85l-21 5l-2 -1l-8 -11q31 -154 -19 -265zM323 35q144 0 209 117q-22 -75 -81 -118.5t-132 -43.5q-140 0 -218 140q7 -73 107 -137q-85 21 -123.5 93.5t-34.5 176.5q52 115 20 271l2 1q30 -79 58 -99
q29 37 81.5 61t107.5 24q100 0 164.5 -64t64.5 -155q0 -84 -50.5 -142t-146.5 -79q110 39 110 144q0 66 -44 126q84 -49 81 -149q45 109 -12 190.5t-168 81.5q-87 0 -148 -58.5t-61 -158.5q0 -98 64 -160t150 -62zM139 257q0 -85 53.5 -143.5t130.5 -58.5q75 0 125 38
q-42 -22 -104 -35l-16 37q103 30 103 130q0 68 -44 121l37 28q34 -18 59 -45q-13 56 -57.5 90.5t-107.5 34.5q-79 0 -129 -55t-50 -142z" />
    <glyph glyph-name="p" unicode="p" horiz-adv-x="720" 
d="M445 541q114 0 189.5 -77.5t75.5 -194.5q0 -127 -90.5 -213t-224.5 -86q-73 0 -134 33q5 -202 24 -292l-5 -12l-10 -10l-44 5q-17 45 -31 67q-31 -18 -64 -18q-55 0 -83.5 40.5t-17.5 102.5l27 4q43 -62 68 -62q44 0 44 186q0 29 -4 68t-8.5 64.5t-6.5 25.5q-1 0 -3.5 -6
t-4 -16t-0.5 -18l-49 -11q-23 27 -23 52q0 28 19.5 51t53.5 34q5 31 5 73q0 15 -1 22q-21 -27 -62 -27q-40 0 -65 22t-25 56q0 40 32.5 66.5t80.5 26.5q8 0 24 -2q-26 31 -58 34l9 38q53 -2 85 -14q-2 7 -7 12v14l22 22q44 -14 71 -49t32 -80q5 10 11 30q13 12 57 25.5
t91 13.5zM395 -20q128 0 214 82.5t86 206.5q0 114 -71 188t-179 74q-82 0 -134 -33q-14 -53 -64 -104q5 19 21 43l3 5q5 48 -18.5 89t-64.5 57l-16 -16q12 -12 20 -44q-33 24 -96 28l-5 -20q47 -14 71 -62q-26 13 -54 13q-42 0 -70 -23.5t-28 -59.5q0 -31 20.5 -49.5
t54.5 -18.5q25 0 41 13t18 34l-27 7q-6 -9 -22 -9q-17 0 -17 23q0 28 30 28q26 0 40.5 -26.5t14.5 -74.5q0 -44 -6 -80q-33 -8 -52.5 -29t-19.5 -49q0 -21 15 -40l27 6q0 43 23 43q9 0 16.5 -20.5t12.5 -59.5t5 -88q0 -196 -59 -196q-35 0 -80 66q-10 -58 14.5 -94.5
t71.5 -36.5q36 0 68 24q18 -21 39 -74l25 -3l3 3l4 9q-22 104 -24 314q68 -46 149 -46zM173 258q5 32 5 73q0 111 -70 111q-21 0 -33 -11t-12 -27q0 -13 8 -23t24 -10q25 0 34 13q-2 -17 -13.5 -27.5t-30.5 -10.5q-26 0 -43 15t-17 43q0 33 24.5 53t58.5 20q51 0 78 -41
q0 33 -26 65.5t-65 44.5q24 -2 39.5 -5t33.5 -11t30 -24.5t18 -40.5q-1 84 -34 114q34 -14 56 -51.5t18 -84.5q-19 -28 -25.5 -52.5t-6.5 -69.5q0 -31 7 -66q-34 13 -58 3zM445 521q93 0 164 -67t71 -185q0 -119 -81 -199t-204 -80q-88 0 -164 62q-2 -212 24 -342l-3 -3
q-25 63 -52 87q-29 -31 -69 -31q-36 0 -54 25t-20 58q32 -38 68 -38q37 0 55.5 44t18.5 162q0 178 -49 178q-17 0 -27.5 -13.5t-10.5 -39.5q-12 15 -12 34q0 31 26.5 52t68.5 21q73 0 106 -74q-32 36 -77 37q0 -26 3.5 -50t15 -51.5t29.5 -47.5t49.5 -33.5t72.5 -13.5
q-39 20 -56.5 57.5t-4.5 86.5q14 -51 52.5 -78.5t87.5 -27.5q62 0 102 38t40 103q0 62 -29 98q39 -7 61 -35q0 89 -58 149t-140 60q-111 0 -199 -96l-5 6q64 64 80 119q50 28 120 28zM347 160h-29q-21 -82 35 -133q-61 14 -86.5 61.5t-27.5 108.5q28 -6 51 -32l25 11
q-21 47 -65 68q-11 59 -11 77q0 29 2 41l20 -1q84 93 188 93q69 0 120 -48t61 -121q-19 10 -41 15l-15 -16q26 -31 26 -92q0 -59 -34.5 -95t-92.5 -36q-46 0 -79.5 26t-46.5 73zM264 249q50 -26 68 -77l-4 -2h32q10 -47 40 -73t73 -26q51 0 81.5 33t30.5 88q0 30 -8.5 57
t-20.5 34l27 29q21 -5 28 -7q-14 62 -59 100.5t-103 38.5q-51 0 -92 -21t-85 -69l-12 -3h-5q-1 -8 -1 -30q0 -45 10 -72zM138 395q-10 27 -30 27q-16 0 -16 -18q0 -13 8 -13q5 0 10 11zM314 55q-26 46 -11 104l-18 -8q-14 19 -30 28q8 -88 59 -124z" />
    <glyph glyph-name="q" unicode="q" horiz-adv-x="601" 
d="M20 205q0 140 101 238t244 98q78 0 141 -40t84 -104l-4 -14q-31 -25 -31 -159q0 -7 -1 -80.5t0 -116t4 -110t11.5 -119.5t21.5 -89l-14 -18l-13 -5l-30 7q-35 57 -40 64q-28 -25 -69.5 -26.5t-75 20.5t-40.5 59l5 12l7 7l32 1q24 -15 42 -15q27 0 42.5 21t21 59.5t7 92
t-0.5 118.5q-51 -49 -70 -98q-23 -15 -65.5 -26.5t-87.5 -11.5q-96 0 -159 67t-63 168zM35 205q0 -97 59 -161t148 -64q80 0 140 33q22 58 98 122q2 -71 1 -131.5t-7.5 -104.5t-25.5 -69t-53 -25q-22 0 -47 15l-19 -1l-1 -1l-4 -9q13 -56 75.5 -66.5t95.5 34.5
q15 -18 50 -76l18 -4l3 1l9 12q-13 38 -21 90.5t-11 119.5t-4 110t0 114.5t1 79.5q0 130 32 163l3 10q-21 60 -79 97t-131 37q-137 0 -233.5 -95t-96.5 -231zM561 394q-19 -20 -27.5 -57t-8.5 -113q0 -7 -1 -79.5t0 -115t4 -110.5t11.5 -121t21.5 -91l-3 -1q-40 66 -66 94
q-15 -36 -49 -46t-65.5 6.5t-38.5 50.5l1 1q26 -17 55 -17q20 0 35 6t26 20.5t18.5 29.5t11.5 41.5t6.5 48t3 58t0.5 62t-0.5 69.5t-0.5 72q0 59 -2 97.5t-8.5 79t-18.5 64t-33.5 41t-52.5 21.5q35 -17 56.5 -64.5t6.5 -97.5q-16 75 -60.5 104.5t-89.5 29.5q-48 0 -79 -29.5
t-31 -78.5q0 -54 34.5 -108t92.5 -88q-94 25 -146 80t-60 101q-13 -35 -4 -82.5t35 -88.5q-43 7 -64 37q0 -73 49 -122.5t117 -49.5q116 0 235 105l3 -6q-84 -71 -106 -128q-58 -29 -127 -29q-81 0 -136.5 60t-55.5 155q0 130 91 223t224 93q71 0 124 -36t72 -91zM89 189
q33 -20 71 -18q-45 54 -48 127q61 -100 194 -135l12 19q-54 31 -87 83t-33 104q0 44 26 71t69 27q51 0 87 -33.5t48 -92.5l29 -1q12 40 1 82q22 -63 22 -220v-44l-18 2q-62 -54 -114.5 -78t-110.5 -24q-55 0 -96.5 37.5t-51.5 93.5zM109 168q14 -45 49.5 -72.5t78.5 -27.5
q55 0 104 23t111 77l12 2h1v32q0 70 -5 128l-45 1q-10 60 -42.5 93t-79.5 33q-37 0 -58.5 -24t-21.5 -64q0 -53 34.5 -104.5t88.5 -79.5l-22 -35q-108 25 -178 97q17 -55 48 -82q-33 -10 -75 3z" />
    <glyph glyph-name="r" unicode="r" horiz-adv-x="506" 
d="M542 523q27 -154 -105 -274h-36l-9 9l-1 18q16 19 26.5 42.5t14.5 44.5t2.5 39t-9.5 28.5t-21 10.5q-39 0 -65.5 -58.5t-7.5 -105.5l-49 -17l-6 8l1 -7q1 -2 1 -6t1 -6q66 -35 80 -120l-25 -9q-7 6 -17 16q-19 19 -28 27q1 -4 1 -12q0 -13 -5 -43q-4 -17 -4 -33
q0 -45 39 -95l-28 -27q-73 18 -105 70q-18 -6 -40 -6q-58 0 -90.5 42t-27.5 110l28 4q39 -76 83 -76t44 47q0 33 -9 33q-8 0 -13.5 -14t-4.5 -31l-49 -11q-23 27 -23 52q0 28 19.5 51t53.5 34q5 31 5 73q0 15 -1 21q-22 -27 -64 -27q-38 0 -63 22.5t-25 56.5q0 40 32.5 66.5
t80.5 26.5q8 0 24 -2q-26 31 -58 34l9 38q53 -2 85 -14q-3 7 -7 12v14l22 22q45 -14 73 -51t31 -84l5 5q30 29 30 40q0 4 -4 4q-5 1 -31 -2l-13 34q54 30 103 16.5t44 -54.5q40 -8 56 22zM344 127q-14 87 -79 117q-11 59 -11 77q0 43 6 67t23 49l3 5q5 48 -18.5 89t-64.5 57
l-16 -16q12 -12 20 -44q-33 24 -96 28l-5 -20q47 -14 71 -62q-26 13 -54 13q-42 0 -70 -23.5t-28 -59.5q0 -31 20.5 -50t52.5 -19q26 0 43.5 14t17.5 35l-27 6q-6 -9 -22 -9q-17 0 -17 23q0 28 30 28q26 0 40.5 -26.5t14.5 -74.5q0 -44 -6 -80q-33 -8 -52.5 -29t-19.5 -49
q0 -21 15 -40l27 6q0 21 9.5 34.5t23.5 13.5q10 0 17 -12.5t7 -30.5q0 -57 -59 -57q-55 0 -96 81q-4 -63 24.5 -102t78.5 -39q29 0 48 12q10 -24 35 -44t57 -30l16 16q-37 48 -37 94q0 15 4 35q5 28 5 41q0 22 -8 40q10 -4 21 -12t17 -13.5t20 -20t19 -18.5zM188 254
q5 32 5 77q0 111 -70 111q-21 0 -33 -11t-12 -27q0 -13 8 -23t24 -10q25 0 34 13q0 -16 -13 -27.5t-33 -11.5q-25 0 -41.5 15.5t-16.5 43.5q0 33 24.5 53t58.5 20q51 0 78 -41q0 33 -26 65.5t-65 44.5q24 -2 39.5 -5t33.5 -11t30 -24.5t18 -40.5q-1 84 -34 114
q34 -14 56 -51.5t18 -84.5q-19 -28 -25.5 -52.5t-6.5 -69.5q0 -35 7 -70q-26 9 -58 3zM430 259q121 112 98 256l-27 4q-23 -33 -81 -16q11 36 -27 49.5t-87 -9.5l7 -19q39 4 39 -13q0 -15 -35 -47l-11 -11q-42 -39 -46.5 -87t28.5 -93l26 9q-16 55 14.5 112t75.5 57
t46 -59.5t-44 -117.5l1 -13l2 -2h21zM403 498q28 -13 61.5 -10t48.5 25q22 -140 -93 -247l-2 2q34 44 44 89.5t-6 74.5t-52 29q-55 0 -89 -61t-15 -121q-31 45 -25 89t41 78q3 3 14 13t15 14.5l10.5 12t9 13.5t2.5 12q0 28 -55 23q33 14 56.5 12.5t33.5 -15.5t1 -33z
M153 396q-12 26 -30 26q-15 0 -15 -18q0 -13 5 -13q6 0 12 11zM115 173q0 31 26.5 52t68.5 21q73 0 106 -74q-37 33 -77 37q21 -21 21 -58q0 -17 -4.5 -39t-4.5 -37q0 -48 40 -100q-31 9 -58 33.5t-28 55.5q-16 -27 -58 -27q-36 0 -57 23t-28 56q33 -39 78 -39q33 0 53.5 17
t20.5 50q0 22 -10.5 37.5t-28.5 15.5q-20 0 -34 -16t-14 -42q-12 15 -12 34z" />
    <glyph glyph-name="s" unicode="s" horiz-adv-x="530" 
d="M-1 142q-27 45 -6.5 84.5t69.5 39.5q34 0 62 -21t60 -71q40 -64 72 -90.5t72 -30.5l-2 1v8l14 13q22 9 36 27.5t14 37.5q0 24 -21 39t-90 38l-30 10q-97 31 -142 71t-45 95q0 63 62 105.5t152 42.5q84 0 147.5 -40.5t73.5 -99.5l-15 -12q-22 -1 -28.5 -3.5t-6.5 -10.5
q0 -21 67 -17l26 -16v-9l-15 -15q-74 -24 -130.5 -6t-56.5 67q0 27 25 55q-25 42 -77 42q-20 0 -32 -13t-12 -35q0 -40 44 -61l6 -23l-8 -8l-26 -5q-34 11 -60 26q22 -20 73 -38l40 -14q94 -32 137.5 -64.5t47.5 -74.5l20 -12q8 -81 -40.5 -130t-136.5 -49q-39 0 -77 10
l-17 -11q-86 -2 -135 29.5t-49 87.5q0 13 4 39q4 22 4 32l-4 24q-1 0 -4 -4.5t-6 -14t-5 -20.5zM9 153l28 3q9 40 28 40t19 -34q0 -10 -4 -34t-4 -37q0 -51 43 -79t120 -28l15 10v1l-7 6q41 -16 92 -16q80 0 124.5 44.5t37.5 120.5l-15 9h-1l-4 -2q0 43 -40.5 75t-134.5 64
l-40 14q-109 39 -109 99q0 17 7 31q-1 -4 -1 -12q0 -54 96 -86l16 3l1 1l-4 16q-45 25 -45 66q0 26 16.5 42t42.5 16q30 0 55.5 -14.5t38.5 -38.5q-27 -26 -27 -54q0 -43 47.5 -58t114.5 5l10 10v2l-16 10q-77 -5 -77 27q0 23 50 24q-9 57 -68.5 94.5t-137.5 37.5
q-85 0 -142 -39.5t-57 -98.5q0 -52 42 -89t135 -68l30 -10q73 -25 97 -42t24 -44q0 -21 -15 -41t-40 -31l-9 -9v-1l17 -10q38 7 60 17q-32 -23 -74 -23q-52 0 -90 28t-83 99q-31 48 -55 67.5t-54 19.5q-39 0 -56 -33t3 -70zM356 58v1q26 12 45 33.5t19 47.5q0 31 -28 50.5
t-103 44.5l-30 10q-89 30 -128 65t-39 83q0 52 50.5 90t133.5 38q70 0 122.5 -31.5t66.5 -81.5q-48 -5 -48 -33q0 -10 6 -18t28 -14.5t59 -4.5v-2q-74 -19 -108 -4.5t-34 47.5q0 28 28 52q-12 28 -43 46.5t-67 18.5t-55 -20.5t-19 -47.5q0 -45 53 -75l-1 -1q-86 27 -86 76
q0 41 36 64q-72 -23 -72 -83q0 -66 119 -108l40 -14q87 -30 126 -60t39 -71q0 -82 -110 -98zM344 32q47 0 88 29t53 88h1q7 -75 -35.5 -114.5t-111.5 -39.5q-139 0 -210 126q-9 -48 21 -81.5t89 -44.5v-1q-70 0 -109 24.5t-39 72.5q0 12 4 35.5t4 35.5q0 44 -34 44
q-33 0 -43 -48q-15 23 -4 55.5t44 32.5q25 0 46 -18.5t50 -63.5q43 -68 84.5 -100t101.5 -32zM147 72q17 -48 84 -65q-49 23 -84 65z" />
    <glyph glyph-name="t" unicode="t" horiz-adv-x="430" 
d="M393 231l24 -16q5 -113 -42 -179t-133 -66q-46 0 -88 21q6 -11 12 -14v-21l-9 -9l-35 -1q-87 71 -87 153q0 52 35 143q29 73 29 113q0 39 -13 51t-46 4l-55 35v10l21 16q55 6 92.5 32.5t52 63.5t18.5 80.5t-8 82.5l10 15l11 7l39 -8q49 -139 11 -243q88 6 113 17.5
t26 51.5l25 15h12l24 -14q16 -116 -68 -262l-34 -7l-11 6l-11 17q27 70 3.5 96t-116.5 24q15 -10 20 -19l-1 -18q-14 -3 -37 -93.5t-23 -140.5q0 -55 24 -84.5t68 -29.5q46 0 75.5 42t32.5 114l25 15h14zM242 -20q78 0 121 62.5t39 168.5l-15 10h-3l-15 -9
q-4 -75 -37.5 -118.5t-85.5 -43.5q-51 0 -79 32.5t-28 91.5q0 51 21.5 135t38.5 103l1 13q-16 20 -59 27q129 10 171.5 -15t11.5 -111l7 -12l2 -1l20 4q78 138 65 249l-15 9h-2l-15 -9q-3 -45 -36 -57.5t-138 -18.5q47 102 -4 246l-22 5l-3 -2l-7 -10q12 -40 7 -84t-20 -82
t-54 -66t-96 -35l-13 -10v-3l17 -10l16 2l-8 -8v-2l18 -10q37 8 54 -8t17 -58t-30 -117q-34 -89 -34 -139q0 -78 78 -143l21 1l2 2v14q-18 18 -24 51q47 -44 115 -44zM338 323q11 30 13.5 52.5t-4.5 38.5t-18.5 27t-36 16t-48.5 7t-64 0t-75.5 -5.5t-89.5 -9.5v3
q61 8 102.5 37.5t58 69.5t22 86t-6.5 86l3 2q13 -37 20 -77.5t2.5 -90.5t-25.5 -87q131 9 162 20q44 18 48 67h2q14 -109 -63 -243zM384 211h3q2 -62 -10.5 -107.5t-35.5 -69t-47.5 -34t-51.5 -10.5q-38 0 -77.5 21t-56.5 60q-3 -23 4.5 -54t27.5 -51l-2 -2q-73 60 -73 135
q0 50 32 132t32 124q0 93 -89 76v2q44 14 88 10t60 -24q-20 -22 -42 -106.5t-22 -138.5q0 -62 31.5 -98t90.5 -36q57 0 95 44.5t43 126.5z" />
    <glyph glyph-name="u" unicode="u" horiz-adv-x="654" 
d="M572 327q-44 0 -65 31q-2 -22 -2 -36q0 -32 5 -62q35 -10 55 -32.5t20 -53.5q0 -28 -16 -45t-53 -30q8 -2 12 -2q32 0 61 36l48 -15q-7 -46 -39 -73.5t-77 -27.5q-18 0 -39 7q-29 -49 -107 -69l-28 27q24 30 32 48.5t8 42.5q0 13 -4 33q-4 24 -4 43v3q-7 -7 -23 -27
q-43 -57 -77 -121q-4 -15 -28.5 -24.5t-55.5 -9.5q-67 0 -110.5 41t-43.5 105q0 49 55 144q18 32 27 49.5t17.5 45t8.5 52.5q0 24 -8 42t-17 18q-6 0 -6 -11q0 -13 7.5 -24t17.5 -14l-14 -32q-45 -4 -77 19.5t-32 58.5q0 37 31 61.5t77 24.5q54 0 92 -38q18 7 36 7
q36 0 52.5 -24.5t0.5 -57.5l-50 -1q-2 -10 -2 -23q0 -62 -44 -133q38 0 62.5 -23.5t18.5 -56.5l-49 -9q-14 21 -32 21q-30 0 -50.5 -25.5t-20.5 -64.5q0 -59 43 -59q18 0 34 14.5t59 65.5q65 81 111 105q12 46 12 76q0 43 -6.5 64.5t-25.5 47.5q-9 110 102 165l22 -22v-14
q-2 -2 -8 -11q36 11 85 13l10 -38q-31 -3 -57 -32q16 2 25 2q48 0 79.5 -26.5t31.5 -67.5q0 -34 -24.5 -56t-62.5 -22zM570 174q0 30 -20.5 51t-53.5 28q-6 35 -6 69q0 110 56 110q13 0 21.5 -7.5t8.5 -19.5q0 -24 -18 -24q-11 0 -17 9l-27 -6q0 -19 17 -33t41 -14
q32 0 52 19t20 49q0 37 -27 60.5t-69 23.5q-30 0 -56 -14q23 47 71 61l-5 20q-65 -4 -97 -27q8 30 21 43l-16 16q-42 -24 -64 -63t-18 -87q20 -26 26 -48.5t6 -65.5q0 -30 -13 -81q-43 -20 -114 -106q-52 -61 -69 -72.5t-35 -11.5q-27 0 -42.5 18.5t-15.5 50.5
q0 43 24.5 71.5t61.5 28.5q26 0 40 -19l27 5q1 26 -18.5 44t-48.5 18q-13 0 -25 -3q54 77 54 146q0 47 14 47q9 0 14 -14l28 1q10 25 -3 43.5t-39 18.5q-24 0 -40 -13q-34 44 -88 44q-40 0 -66.5 -21.5t-26.5 -54.5q0 -29 24 -48.5t59 -19.5l8 18q-23 16 -23 42q0 21 21 21
q17 0 28.5 -20t11.5 -50q0 -26 -9 -55t-18 -46.5t-28 -50.5q-53 -92 -53 -139q0 -60 39 -98t100 -38q45 0 66 19q35 70 83 132q33 42 57 57q-7 -21 -7 -39q0 -19 4 -41t4 -35q0 -42 -38 -90l16 -16q75 23 93 72q24 -12 48 -12q38 0 64.5 22.5t35.5 62.5l-26 8
q-30 -33 -67 -33q-16 0 -27 7q-1 -1 -2 -1l1 1q-30 18 -30 55q0 36 23 36q18 0 27.5 -21.5t2.5 -50.5q47 20 47 61zM422 254q9 41 9 70q0 41 -6.5 66t-24.5 54q-3 48 18 85t54 50q-34 -31 -35 -113q8 32 28.5 50t40.5 23t53 7q-40 -12 -66 -44t-26 -65q28 42 81 42
q35 0 58 -20.5t23 -53.5q0 -27 -16.5 -42.5t-40.5 -15.5q-17 0 -30 10t-13 27q9 -13 29 -13q15 0 24 9t9 25t-12.5 26.5t-32.5 10.5q-71 0 -71 -120q0 -38 5 -64q-22 5 -58 -4zM300 131q57 68 90.5 91.5t77.5 23.5q38 0 62.5 -20t24.5 -52q0 -25 -14 -37q0 26 -14 42t-34 16
q-38 0 -38 -46q0 -30 21 -51t52 -21q47 0 78 37q-17 -77 -85 -77q-19 0 -35.5 8t-22.5 17q-1 -31 -28 -53.5t-59 -31.5q23 29 32 49t9 47q0 15 -4 37t-4 39q0 38 20 58q-43 0 -97 -70q-52 -68 -85 -134q-19 -13 -52 -13q-54 0 -89 35t-35 91q0 39 27 89l54 102.5t27 99.5
q0 37 -16 58.5t-39 21.5q-17 0 -26.5 -9t-9.5 -22q0 -29 30 -50q-29 0 -48.5 16.5t-19.5 41.5q0 26 20 46t58 20q31 0 53.5 -17t32.5 -40q12 26 42 26q16 0 26 -14t2 -35q-8 20 -28 20q-29 0 -29 -57q0 -90 -91 -191q38 38 77 38q21 0 37 -14t15 -37q-16 23 -52 23
q-45 0 -73 -32t-28 -78q0 -34 18.5 -56.5t54.5 -22.5q28 0 49 17.5t56 58.5q7 8 10 12zM516 395l32 7q4 -11 8 -11q7 0 7 13q0 18 -17 18q-19 0 -30 -27zM485 149q0 -31 20 -44q9 23 4 46.5t-16 23.5q-8 0 -8 -26z" />
    <glyph glyph-name="v" unicode="v" horiz-adv-x="619" 
d="M-12 440q26 43 80.5 73.5t98.5 27.5l24 -19q-11 -60 -9 -125q58 59 76 112q5 1 23.5 4t29 5.5t24 6.5t20 10t6.5 14q0 17 -33 5l-16 34q46 26 85 26.5t60.5 -25.5t8.5 -64q64 -23 98.5 -69t34.5 -108q0 -38 -18 -75.5t-35 -58t-51 -55.5q-26 -26 -40.5 -43t-33 -46
t-29.5 -61l-30 -9l5 -7v-6l-20 -16q-32 -6 -60 1t-47.5 20.5t-38 42t-29.5 52t-23.5 66.5t-19 70l-17.5 76q-30 136 -42 136q-11 0 -36 -21h-36l-9 9zM3 439l1 -13l2 -2h21q25 21 43 21q15 0 26.5 -28.5t30.5 -115.5q10 -48 16.5 -75t18 -68t22 -64t27 -50.5t34 -40.5
t42 -20t52.5 -3l15 10v1l-8 9q-29 16 -44 43q33 2 57 19q-5 -17 -11 -44l6 -8l2 -1l23 7q11 31 30 60t34 46t41 44q33 35 50 55t33.5 55.5t16.5 71.5q0 62 -35 107t-100 65q15 34 0 58t-47 25.5t-73 -18.5l9 -19q38 7 38 -17q0 -12 -10 -20.5t-30 -14.5t-31.5 -8l-33.5 -6
q-27 -63 -103 -133q-5 76 7 152l-15 12q-39 0 -85 -27t-72 -65zM363 20q9 43 30.5 82t42 62t36.5 54t16 62q0 39 -26 79q49 -10 66 -55q9 72 -30 112t-105 40q-56 0 -104 -23.5t-110 -82.5l-5 6q84 78 107 135q3 1 22.5 4.5t30.5 7t26.5 9.5t23 15.5t7.5 21.5q0 14 -13 23
t-42 4q54 31 88 10t7 -72q67 -17 102.5 -61.5t35.5 -104.5q0 -38 -16 -72t-41 -62t-52 -55t-54 -63.5t-41 -76.5zM17 431l-2 2q25 38 68 63t77 25q-12 -63 -7 -136.5t19.5 -137t48 -105.5t77.5 -42q30 0 43 18t1 45q34 -12 34 -44q0 -31 -27.5 -50.5t-67.5 -14.5
q19 -43 56 -63v-1q-26 -4 -47.5 3t-37.5 19.5t-31 38.5t-24.5 48t-20.5 62.5t-17.5 67t-16.5 74.5q-20 89 -33.5 120.5t-38.5 31.5q-26 0 -53 -24zM170 344l19 -1q62 58 107 80.5t97 22.5q51 0 83 -26.5t37 -72.5q-32 25 -77 25q37 -45 37 -92q0 -21 -7.5 -41t-15.5 -33
t-26 -36q-19 -25 -33 -47q-5 47 -75 56q21 -28 15 -48.5t-33 -20.5q-48 0 -83 66.5t-45 167.5zM186 333q11 -92 43 -152.5t69 -60.5q23 0 20 23q-3 25 -32 48q80 0 108 -38q6 7 18 23q17 21 25 33.5t14.5 31.5t6.5 39q0 56 -47 100q41 8 82 -9q-22 65 -100 65q-50 0 -92 -22
t-105 -81h-10zM323 35q2 -3 6 -7.5t4 -5.5q3 14 4 17q-3 -1 -7 -2t-7 -2z" />
    <glyph glyph-name="w" unicode="w" horiz-adv-x="801" 
d="M658 533q61 -18 97 -63.5t36 -105.5q0 -50 -16 -97.5t-48 -93t-55.5 -73.5t-63.5 -69q-31 -32 -50 -55l-23 -6q-53 8 -77 45l-2 -2l-41 4q-16 23 -28 50q-27 -27 -73 -33q13 -16 39 -27l14 -13v-7l-20 -16q-107 -19 -161 80q-33 62 -69 237q-1 5 -2 11q-9 44 -18 76.5
t-16 47.5t-11 15q-7 0 -35 -24l-30 -1l-12 7l-5 20q26 42 80.5 73t98.5 28l23 -19q-7 -56 -6 -98q30 36 52 80q42 37 106 37q85 0 127 -64q17 17 47 39q33 25 33 38q0 5 -1 7t-5.5 2.5t-12.5 -1.5l-23 -6l-18 7q-7 21 23.5 39t70.5 18q35 0 57.5 -18t22.5 -46q0 -10 -5 -23z
M597 38q39 40 62 67.5t54.5 72t47 91t15.5 95.5q0 61 -37.5 105t-99.5 58q9 15 9 29q0 25 -18 39.5t-47 14.5q-30 0 -57.5 -14t-22.5 -30q61 17 61 -12q0 -17 -39 -46t-59 -55q-16 37 -48.5 57.5t-75.5 20.5q-55 0 -93 -32q-29 -58 -79 -108q-4 64 5 128l-15 12
q-39 0 -85 -27t-72 -65l4 -14l3 -2l18 1q28 24 42 24q31 0 60 -147q12 -62 20.5 -97t21.5 -80t27 -68.5t34 -45.5t46.5 -28.5t59.5 -1.5l13 10v1l-9 9q-37 16 -50 43q37 0 64.5 16.5t33.5 41.5q9 -36 34 -75l24 -2l1 1l3 10q-14 47 -15 88.5t4 62t17 60.5q24 70 24 120
q0 38 31.5 64t77.5 26q44 0 73 -23.5t39 -67.5q-38 19 -77 11q36 -31 36 -98q0 -85 -43 -147.5t-78 -62.5q-19 0 -28.5 16t-5.5 42l-15 11h-1l-12 -4q-36 -46 -18 -95t72 -58l14 4q15 19 49 54zM619 521q63 -9 102.5 -52.5t39.5 -104.5q0 -48 -15.5 -94t-44 -87t-54 -71.5
t-61.5 -67.5t-50 -54q-21 3 -40.5 22.5t-25 49t21.5 65.5h1q-4 -30 9 -49.5t40 -19.5q41 0 88.5 66t47.5 154q0 55 -26 90q21 -1 42 -10t30 -25q-4 62 -39 97.5t-93 35.5q-51 0 -87.5 -29t-36.5 -71q0 -38 -11.5 -80t-21.5 -70.5t-12.5 -78.5t16.5 -105l-1 -1
q-30 45 -37.5 86t-0.5 92t7 59q0 58 -37 89q49 0 66 -45q11 73 -18.5 110t-81.5 37q-73 0 -159 -91l-5 7q58 56 87 116q35 30 83 30q43 0 78.5 -27.5t42.5 -83.5q4 25 23 48t39.5 36.5t37 29.5t16.5 30t-13 23t-42 4q25 19 59 19q50 0 50 -44q0 -17 -14 -35zM342 163
q35 -12 35 -50q0 -30 -31.5 -47t-72.5 -12q14 -42 64 -63v-1q-26 -4 -47 1.5t-37 16t-30 34.5t-23.5 45.5t-20 61.5t-17 70.5l-17.5 83.5q-17 86 -33 120.5t-42 34.5q-21 0 -52 -27l-3 2q25 38 68 63t77 25q-13 -84 0 -182t50 -168.5t85 -70.5q34 0 46.5 17.5t0.5 45.5z
M340 363q52 -27 52 -95q0 -11 -4 -45q-7 -52 -4 -78q-19 30 -66 32q20 -30 14 -48.5t-37 -18.5q-42 0 -76.5 74.5t-45.5 177.5l15 -1q83 88 148 88q41 0 64 -26.5t24 -72.5q-33 25 -84 13zM453 114q7 16 16 26l20 7h10l25 -18q-4 -22 1 -36.5t17 -14.5q29 0 67.5 59
t38.5 141q0 38 -12.5 65t-33.5 34q28 20 81 7q-23 62 -91 62q-40 0 -67 -23t-27 -57q0 -54 -25 -123q-24 -79 -20 -129zM374 232q3 20 3 36q0 40 -15.5 62t-51.5 34q50 22 97 7q-9 68 -71 68q-26 0 -55 -16t-44.5 -30.5t-41.5 -42.5l-6 1q12 -95 43.5 -163t62.5 -68
q24 0 24 18.5t-24 47.5q39 6 73 -11q1 20 5 49q0 1 0.5 3.5t0.5 4.5z" />
    <glyph glyph-name="x" unicode="x" 
d="M620 97q0 -33 -24.5 -56t-63.5 -29q27 -20 40 -20l17 -16v-8l-22 -16q-82 -6 -148 43.5t-103 143.5l-26 -51q-19 -35 -19 -50q0 -17 8.5 -18.5t49.5 8.5l16 -16q-24 -33 -69 -40.5t-70 15.5q-32 -17 -68 -17q-61 0 -99.5 44t-38.5 112q0 72 39.5 117.5t102.5 45.5
q54 0 75 -40t-10 -84l-26 3q-15 47 -34 47q-15 0 -26.5 -24t-11.5 -59q0 -33 12 -56t31 -23q23 0 48.5 34t43 86.5t17.5 100.5q0 64 -22 121t-44 57q-8 0 -8 -13q0 -18 12 -34t23 -12l-9 -35q-54 -12 -96.5 15.5t-42.5 74.5q0 40 31.5 66.5t78.5 26.5q45 0 80.5 -31.5
t55.5 -88.5q39 65 112 96.5t160 21.5l21 -16v-9l-22 -16q-78 -3 -78 -29q0 -3 1.5 -4.5t9.5 -4.5t24 -8l47 -14l17 -15v-13l-32 -16q-101 26 -157 -6t-56 -115q0 -73 37.5 -125t89.5 -52q39 0 39 27q0 13 -6 19l20 24q32 -3 52.5 -22.5t20.5 -46.5zM503 21q43 -2 72.5 19.5
t29.5 56.5q0 22 -14 37.5t-37 20.5l-14 -17q5 -3 5 -18q0 -34 -51 -34q-59 0 -100.5 55t-41.5 132q0 86 60.5 121.5t165.5 10.5l19 10v5l-11 10q-59 17 -73.5 23t-14.5 16q0 15 23.5 26t62.5 13l14 10v2l-13 10q-94 10 -166.5 -30.5t-102.5 -117.5q-16 69 -51 109t-81 40
q-41 0 -68 -23.5t-27 -59.5q0 -39 33 -63.5t78 -18.5l5 19q-14 7 -23.5 22.5t-9.5 31.5q0 23 21 23q32 0 57.5 -56.5t25.5 -131.5q0 -82 -40.5 -156.5t-83.5 -74.5q-25 0 -41.5 25t-16.5 64q0 42 15 67.5t38 25.5q31 0 48 -54q27 40 8.5 74t-61.5 34q-56 0 -91.5 -43
t-35.5 -110q0 -64 34.5 -105t88.5 -41q36 0 72 22q15 -25 56.5 -21.5t66.5 37.5q-43 -12 -60 -8t-17 28q0 17 21 55q28 51 39 90q32 -107 96.5 -166t147.5 -55l14 10v1l-11 10q-30 8 -60 38zM551 145q14 -3 26.5 -15t12.5 -33q0 -37 -33.5 -55.5t-78.5 -5.5q5 -16 31.5 -36
t49.5 -27v-1q-93 -5 -158.5 75.5t-85.5 209.5q-5 -54 -23.5 -99.5t-34.5 -74t-16 -45.5q0 -44 55 -38q-29 -15 -53 -7.5t-26 31.5q-31 -34 -79 -34q-50 0 -79 40t-29 96q0 58 29.5 100.5t82.5 42.5q25 0 41.5 -18.5t11.5 -44.5q-17 29 -48 29q-32 0 -50 -29t-18 -74
q0 -41 20 -70t53 -29q51 0 95 76.5t44 164.5q0 82 -29 140t-69 58q-16 0 -26 -9t-10 -24q0 -18 11.5 -35.5t29.5 -27.5q-40 -5 -67 16.5t-27 55.5q0 30 22 51.5t58 21.5q39 0 68.5 -35t44 -88t16.5 -114q1 121 82 184t188 52v-2q-42 -2 -71 -15.5t-29 -33.5q0 -8 5 -13.5
t19.5 -11.5t24.5 -9.5t36 -10.5q9 -3 14 -4v-5q-111 27 -178 -12t-67 -130q0 -75 43 -136t114 -61q34 0 50 13.5t16 30.5q0 16 -9 25z" />
    <glyph glyph-name="y" unicode="y" horiz-adv-x="623" 
d="M-12 425v16q27 43 83 72.5t106 27.5l24 -19q-14 -61 -13 -125q47 48 75 108q7 3 36.5 8.5t48.5 14t19 21.5q0 14 -33 5l-16 34q45 26 84 26.5t61 -25t9 -62.5q63 -23 97 -72.5t34 -116.5q0 -44 -14 -88.5t-31 -77t-49.5 -73t-52 -61l-55.5 -56.5q-37 -37 -53.5 -55
t-31 -41.5t-14.5 -42.5q0 -32 18 -32q24 0 50.5 41.5t44.5 107.5l23 12h13l24 -18q-17 -132 -84.5 -192.5t-195.5 -58.5l-24 16v9l17 15q20 5 35 10q-43 29 -43 72q0 36 25.5 69.5t75.5 77.5q-122 29 -169 327q-21 139 -42 139q-9 0 -14.5 -4t-17.5 -20h-43zM3 427l2 -3h24
q19 24 41 24q20 0 32 -30t25 -117q49 -318 180 -322q-40 -36 -57 -52.5t-36 -46t-19 -55.5q0 -46 52 -73q-15 -8 -50 -17l-11 -10v-2l15 -10q118 0 180 56.5t79 181.5l-15 11h-2l-14 -7q-19 -71 -49 -112.5t-60 -41.5q-33 0 -33 42q0 20 15.5 45.5t33 44.5t54.5 56
l55.5 56.5t51 59.5t48 71t30 75.5t13.5 86.5q0 67 -35 115.5t-98 68.5q15 33 0 57t-47 25t-73 -19l9 -19q38 7 38 -17q0 -13 -15 -23t-31 -14.5t-37.5 -9t-23.5 -4.5q-30 -66 -100 -132q-6 80 10 153l-15 12q-45 0 -93 -26.5t-74 -65.5v-12zM210 -175q0 34 29.5 70t71 71.5
t83 76t71 100t29.5 127.5q0 49 -26 89q49 -10 66 -55q9 72 -29.5 114.5t-100.5 42.5q-58 0 -106.5 -25t-112.5 -86l-5 4q78 73 107 137q3 1 22.5 4.5t30.5 7t26.5 9.5t23 15.5t7.5 21.5q0 14 -13 23t-42 4q54 31 88 10.5t7 -70.5q63 -16 99.5 -62.5t36.5 -115.5t-31 -135
t-75 -115t-88.5 -92t-75.5 -82.5t-31 -70.5q0 -26 13.5 -39t34.5 -13q32 0 66 37.5t57 123.5h2q-16 -116 -71.5 -172.5t-172.5 -56.5v2q52 14 70 29q-30 10 -45.5 29.5t-15.5 41.5zM17 430l-2 3q26 39 70 63.5t85 24.5q-15 -90 -7 -183.5t46.5 -165.5t91.5 -72q39 0 39 32
q0 16 -9 31q18 -4 29.5 -16.5t11.5 -31.5q0 -31 -30.5 -48.5t-71.5 -12.5q19 -43 56 -63v-1q-133 -19 -184 313q-14 89 -28 122t-44 33t-53 -28zM177 342l18 1q66 62 111 85t98 23q48 0 79 -28.5t36 -75.5q-32 25 -77 25q37 -46 37 -102q0 -59 -23.5 -112t-51 -84.5
t-72.5 -72.5q-25 14 -41 42q40 1 68 21.5t28 50.5q0 21 -14.5 36.5t-38.5 21.5l-16 -15q7 -14 7 -26q0 -22 -24 -22q-45 0 -79.5 67.5t-44.5 164.5zM193 333q11 -90 42.5 -151.5t65.5 -61.5q9 0 9 12q0 10 -5 22l3 11l20 20q34 -6 54 -25t20 -45q0 -30 -25.5 -52t-64.5 -28
q8 -11 18 -19q63 58 98.5 115.5t35.5 138.5q0 61 -46 110q40 7 81 -9q-21 70 -95 70q-50 0 -92 -22.5t-109 -85.5h-10z" />
    <glyph glyph-name="z" unicode="z" horiz-adv-x="547" 
d="M-10 -33v7l20 16q31 4 51 12q-55 24 -55 78q0 38 31 63.5t77 25.5q34 0 60.5 -18t36.5 -47q69 55 140 185l-9 9q22 70 15 112.5t-41 42.5q-74 0 -107.5 -65t-14.5 -173l-24 -19h-14l-23 12q-12 43 -18.5 71t-17 87.5t-9.5 103.5t5 117l25 15h17l24 -18q-5 -41 7 -97
q82 33 179 33q55 0 71 6t30 31l39 18h15l24 -18q-7 -87 -65.5 -223t-143.5 -238l-2 -1q19 -18 43 -29q-5 47 21 77t74 30q46 0 76 -25t30 -64q0 -50 -44.5 -81t-116.5 -31q-37 0 -72 9.5t-50 20.5q-32 -6 -63 -22l-23 5q-89 -52 -179 -34zM5 -30l12 -10q85 -15 171 38l1 -2
l20 -5q44 23 101 24l-12 -1q-26 -3 2 -15q43 -17 96 -17q66 0 106 28t40 74q0 35 -25 57t-66 22q-44 0 -66 -30.5t-12 -77.5l15 -8h1l15 10q2 54 40 54q13 0 21 -8.5t8 -21.5q0 -37 -63 -37q-57 0 -104 41l-18 -1q87 98 149 237.5t72 232.5l-15 11h-4l-32 -14
q-14 -26 -34.5 -33.5t-78.5 -7.5q-98 0 -190 -39q-16 57 -11 110l-15 11h-6l-15 -9q-18 -168 39 -370l14 -7h2l15 12q-19 112 18.5 178.5t119.5 66.5q43 0 54 -43.5t-12 -119.5l10 -9q-84 -155 -168 -209q-2 33 -26.5 55t-59.5 22q-40 0 -66.5 -22.5t-26.5 -56.5
q0 -29 18.5 -49t50.5 -27q-26 -16 -72 -23l-13 -10v-1zM123 582h6q-7 -67 17 -128q90 46 199 46q59 0 85 8.5t41 38.5h1q-29 -109 -98 -250h-2q24 70 15.5 109t-27 53t-44.5 14q-81 0 -128 -64t-25 -193h-2q-9 32 -14 53.5t-13.5 63.5t-10.5 74t-4.5 83.5t4.5 91.5zM20 -30
v1q66 11 99 40q-39 0 -61 19t-22 50q0 29 21 49t57 20q32 0 52 -22.5t19 -51.5h-1q-23 45 -64 45q-17 0 -29 -10t-12 -24q0 -18 13 -28.5t37 -10.5q95 0 198 151t163 357h4q-6 -56 -32 -134t-71.5 -162.5t-100 -153.5t-126.5 -108.5t-144 -26.5zM201 2q62 33 95 76
q49 -44 114 -44q34 0 56 12.5t22 34.5q0 17 -12.5 28.5t-31.5 11.5q-23 0 -38.5 -16.5t-16.5 -47.5h-1q-9 42 9 69t54 27q34 0 55 -18.5t21 -50.5q0 -47 -38.5 -69.5t-92.5 -22.5q-45 0 -86 15l1 2q59 -18 69 -6q5 7 -15 15q-18 7 -46 7q-67 0 -117 -25zM94 86q0 10 7.5 17
t18.5 7q30 0 51 -40l5 -2q-27 -11 -47 -11q-35 0 -35 29zM419 54q39 3 39 27q0 20 -14 20q-25 0 -25 -47zM107 86q0 -9 6.5 -14t15.5 -5q13 0 26 4q-17 29 -35 29q-13 0 -13 -14z" />
    <glyph glyph-name="exclamdown" unicode="&#xa1;" horiz-adv-x="294" 
d="M152 797l29 -26q-18 -29 -13 -33q1 -2 7 6l44 -9q10 -42 -12.5 -71t-65.5 -29q-33 0 -56.5 20.5t-23.5 49.5q0 69 91 92zM147 785q-71 -22 -71 -80q0 -25 19 -42.5t46 -17.5q34 0 53 23.5t12 58.5l-25 5q-16 -15 -22 3q-6 15 5 35zM151 775q-60 -17 -60 -70
q0 -21 14.5 -35.5t35.5 -14.5q24 0 40 18.5t10 51.5q-12 -12 -27.5 -8.5t-20 18.5t7.5 40zM2 -7l10 13q4 1 16.5 9.5t34 31t35.5 48.5q-43 -14 -84 1l2 37q13 -4 30.5 6t30.5 29q-32 -6 -60 4v35q36 -4 62.5 50.5t26.5 134.5q0 92 -20 174l11 16l11 6l34 -7q14 -28 63 -23
l16 -12q-5 -28 -10 -95t-5 -97q0 -58 6 -80t25 -40l7 -11q-3 -55 -22.5 -100.5t-46 -72.5t-58 -46.5t-54 -27.5t-39.5 -10l-16 7zM16 -4l6 -20q16 2 37 9.5t50.5 26t54 44t43.5 69t22 96.5l-5 8q-20 20 -26.5 43.5t-6.5 81.5q0 30 5 97.5t10 96.5q-58 -6 -75 25l-20 4l-2 -1
l-8 -11q20 -78 20 -173q0 -79 -25 -132.5t-64 -61.5v-20q36 -8 71 11q-10 -29 -32 -46.5t-41 -20.5l-1 -20q53 -13 96 21q-12 -37 -38.5 -68t-45 -44t-25.5 -15zM189 537q-55 0 -71 31l-2 -1q20 -80 20 -175q0 -89 -29 -142t-72 -62q33 -7 58 8t31 33q0 -50 -31 -81t-60 -36
q33 -8 67 8.5t50 59.5q-1 -43 -19.5 -81.5t-43 -61.5t-42.5 -36t-25 -15q20 3 46 14.5t60.5 36.5t59 73.5t28.5 111.5q-25 23 -31.5 48t-6.5 84q0 102 13 183z" />
    <glyph glyph-name="dieresis" unicode="&#xa8;" 
d="M314 694q-8 10 -8 4q1 -10 14 -31l-29 -26q-68 17 -85 62l-42 -9q-8 10 -8 4q1 -10 14 -31l-29 -26q-91 23 -91 92q0 29 23.5 49.5t56.5 20.5q57 0 75 -45q9 20 29.5 32.5t45.5 12.5q43 0 65.5 -29t12.5 -71zM195 711q7 35 -12 58.5t-53 23.5q-27 0 -46 -17.5t-19 -42.5
q0 -58 71 -80l17 15q-14 26 -3 40q8 10 20 -2zM303 668q-14 26 -3 40q8 10 20 -2l25 5q7 35 -12 58.5t-53 23.5q-27 0 -46 -17.5t-19 -42.5q0 -58 71 -80zM130 783q24 0 40 -18.5t10 -51.5q-12 12 -27.5 8.5t-20 -18.5t7.5 -40q-60 17 -60 70q0 21 14.5 35.5t35.5 14.5z
M330 713q-12 12 -27.5 8.5t-20 -18.5t7.5 -40q-60 17 -60 70q0 21 14.5 35.5t35.5 14.5q24 0 40 -18.5t10 -51.5z" />
    <glyph glyph-name="guillemotleft" unicode="&#xab;" horiz-adv-x="483" 
d="M327 643q0 -80 94 -168v-20l-9 -9l-32 -1q-170 109 -170 222q-8 -24 -30 -46l-47 11q1 14 -7.5 27.5t-17.5 13.5q-11 0 -11 -30q0 -80 94 -168v-20l-9 -9l-32 -1q-170 109 -170 223q0 49 34.5 81t87.5 32q45 0 76.5 -25t34.5 -62q8 39 40.5 63t78.5 24q47 0 79 -27
t32 -66q0 -34 -33 -67l-47 11q1 14 -7.5 27.5t-17.5 13.5q-11 0 -11 -30zM174 633q24 25 24 55q0 35 -27.5 59t-68.5 24q-47 0 -77 -28.5t-30 -74.5q0 -109 160 -213l19 1l2 2v14q-94 91 -94 171q0 40 26 40q14 0 26 -13.5t14 -30.5zM406 458v14q-94 91 -94 171q0 40 26 40
q14 0 26 -13.5t14 -30.5l26 -6q24 25 24 55q0 35 -27.5 59t-68.5 24q-47 0 -77 -28.5t-30 -74.5q0 -109 160 -213l19 1zM102 761q36 0 58.5 -21.5t22.5 -51.5q0 -27 -20 -48q-2 19 -17.5 36t-37.5 17q-41 0 -41 -50q0 -82 98 -178l-2 -2q-153 101 -153 205q0 38 24 65.5
t68 27.5zM297 643q0 -82 98 -178l-2 -2q-153 101 -153 205q0 38 24 65.5t68 27.5q36 0 58.5 -21.5t22.5 -51.5q0 -27 -20 -48q-2 19 -17.5 36t-37.5 17q-41 0 -41 -50z" />
    <glyph glyph-name="uni00AD" unicode="&#xad;" horiz-adv-x="628" 
d="M434 375q40 -22 40 -58q0 -29 -27.5 -47t-67.5 -15l-12 24q7 16 7 22q0 20 -68 20q-61 0 -88.5 -18.5t-16.5 -50.5l-19 -12q-70 25 -70 70t45.5 70t122.5 23q56 -1 72 10.5t8 47.5l43 18q67 -48 31 -104zM390 265q30 0 49.5 14.5t19.5 37.5q0 37 -43 55q18 21 14 47.5
t-30 46.5l-24 -10q6 -36 -15 -50t-81 -13q-71 2 -112 -20t-41 -63q0 -40 60 -61q-13 38 19 60t100 22q83 0 83 -26q0 -16 -8 -22zM395 368q49 -14 49 -51q0 -19 -15 -30.5t-39 -11.5q14 11 14 30q0 36 -98 36q-60 0 -99 -18t-39 -54q-26 14 -26 41q0 35 34.5 55t103.5 18
q66 -1 92 16.5t19 58.5q22 -17 24.5 -43t-20.5 -47z" />
    <glyph glyph-name="acute" unicode="&#xb4;" 
d="M160 551l-18 50l31 14q92 41 131 73t39 67q0 11 -4 21t-10 13.5t-12 -1.5l8 38q60 11 102 -12t42 -67q0 -61 -99 -111q19 -27 -9 -67l-32 -5l-10 5l-12 14q1 13 -10 13q-15 0 -99 -30zM170 566l23 9q40 14 63.5 21.5t39 8.5t21 -3.5t5.5 -16.5l8 -9l2 -1l19 3
q26 39 -1 61q104 48 104 108q0 38 -33 58t-83 13l-4 -19q24 -11 24 -44q0 -37 -41 -71.5t-138 -77.5l-20 -9zM180 581l-4 12l9 4q95 42 141.5 79t46.5 79q0 37 -33 53q43 6 71 -10t28 -51q0 -36 -32 -61t-85 -48q18 -2 24.5 -17t-7.5 -37l-2 1q0 18 -11 25t-33 4t-45.5 -10
t-59.5 -20z" />
    <glyph glyph-name="periodcentered" unicode="&#xb7;" horiz-adv-x="232" 
d="M141 186q-91 23 -91 92q0 29 23.5 49.5t56.5 20.5q43 0 65.5 -29t12.5 -71l-44 -9q-8 10 -8 4q1 -10 14 -31zM136 198l17 15q-14 26 -3 40q8 10 20 -2l25 5q7 35 -12 58.5t-53 23.5q-27 0 -46 -17.5t-19 -42.5q0 -58 71 -80zM140 208q-13 23 -7.5 40t20 18.5t27.5 -8.5
q6 33 -10 51.5t-40 18.5q-21 0 -35.5 -14.5t-14.5 -35.5q0 -53 60 -70z" />
    <glyph glyph-name="cedilla" unicode="&#xb8;" 
d="M420 -54l24 -16v-13l-24 -16h-43q39 -23 39 -61q0 -57 -53.5 -94.5t-135.5 -37.5q-32 0 -59 9.5t-42 22.5t-23 24.5t-9 19.5l10 17l11 6l32 -5q10 -14 15 -18q4 95 55 177l34 7q32 -17 55 -20t114 -2zM429 -79v5l-15 10q-85 -1 -111 2t-55 19l-20 -4q-48 -78 -52 -180
l15 -10h14l5 15q8 37 34 65t51 28q29 0 29 -36q0 -32 -28 -55.5t-68 -23.5q-64 0 -91 37l-19 3l-2 -1l-7 -12q7 -22 37 -43.5t81 -21.5q76 0 125 34.5t49 87.5q0 28 -22.5 46t-60.5 20q31 5 96 5zM241 -52q31 -16 59.5 -20t113.5 -2v-5q-62 1 -103.5 -6t-62.5 -21.5t-30 -29
t-13 -36.5q12 25 39 46.5t66 21.5q35 0 55.5 -14.5t20.5 -41.5q0 -47 -43 -79.5t-116 -32.5q-45 0 -71 18.5t-33 39.5l2 1q31 -41 103 -41q47 0 79 26.5t32 62.5q0 46 -44 46q-31 0 -59.5 -30t-40.5 -71l-2 -7h-2q4 100 50 175zM221 -234h7q34 0 57.5 20t23.5 49
q0 26 -14 26q-19 0 -41 -25.5t-29 -58.5z" />
    <glyph glyph-name="guillemotright" unicode="&#xbb;" horiz-adv-x="483" 
d="M381 781q53 0 87.5 -32t34.5 -81q0 -114 -170 -223l-32 1l-9 9v20q94 88 94 168q0 30 -11 30q-9 0 -17.5 -13.5t-7.5 -27.5l-47 -11q-22 22 -30 46q0 -113 -170 -222l-32 1l-9 9v20q94 88 94 168q0 30 -11 30q-9 0 -17.5 -13.5t-7.5 -27.5l-47 -11q-33 33 -33 67
q0 39 32 66t79 27q46 0 78.5 -24t40.5 -63q3 37 34.5 62t76.5 25zM98 455q160 104 160 213q0 46 -30 74.5t-77 28.5q-41 0 -68.5 -24t-27.5 -59q0 -30 24 -55l26 6q2 17 14 30.5t26 13.5q26 0 26 -40q0 -80 -94 -171v-14l2 -2zM328 455q160 104 160 213q0 46 -30 74.5
t-77 28.5q-41 0 -68.5 -24t-27.5 -59q0 -30 24 -55l26 6q2 17 14 30.5t26 13.5q26 0 26 -40q0 -80 -94 -171v-14l2 -2zM151 761q44 0 68 -27.5t24 -65.5q0 -104 -153 -205l-2 2q98 96 98 178q0 50 -41 50q-22 0 -37.5 -17t-17.5 -36q-20 21 -20 48q0 30 22.5 51.5t58.5 21.5
zM381 761q44 0 68 -27.5t24 -65.5q0 -104 -153 -205l-2 2q98 96 98 178q0 50 -41 50q-22 0 -37.5 -17t-17.5 -36q-20 21 -20 48q0 30 22.5 51.5t58.5 21.5z" />
    <glyph glyph-name="questiondown" unicode="&#xbf;" horiz-adv-x="423" 
d="M207 797q91 -23 91 -92q0 -29 -23.5 -49.5t-56.5 -20.5q-43 0 -65.5 29t-12.5 71l44 9q8 -10 8 -4q-1 10 -14 31zM212 785l-17 -15q14 -26 3 -40q-8 -10 -20 2l-25 -5q-7 -35 12 -58.5t53 -23.5q27 0 46 17.5t19 42.5q0 58 -71 80zM208 775q13 -23 7.5 -40t-20 -18.5
t-27.5 8.5q-6 -33 10 -51.5t40 -18.5q21 0 35.5 14.5t14.5 35.5q0 53 -60 70zM413 156q0 -129 -153 -191l-36 16v9l12 14q19 10 33 22q-16 -2 -25 -2q-82 0 -133 55t-51 144q0 54 19 113t35 89.5t43 76.5q11 17 0 15q-13 -1 -47 -26l-34 1l-8 8v19q30 39 101.5 66.5
t130.5 38.5l30 -17v-7l-5 -9q-156 -172 -156 -333q0 -57 23 -94.5t57 -37.5q25 0 39.5 20.5t14.5 55.5q0 40 -20.5 80t-44.5 52v9l30 17q58 -9 101.5 -70.5t43.5 -133.5zM398 156q0 66 -38 124.5t-89 68.5l-18 -10v-2l9 -9q15 -8 35.5 -43t20.5 -83q0 -40 -18.5 -63
t-50.5 -23q-41 0 -68 40t-27 102q0 162 157 337l4 7v1l-18 10q-57 -11 -120.5 -36t-93.5 -60v-14l1 -1l20 -1q48 34 67 23q12 -6 -1 -27q-27 -45 -43 -75t-34 -88t-18 -111q0 -85 46.5 -137t122.5 -52q35 0 60 15q-18 -32 -57 -52l-8 -9v-2l21 -9q138 58 138 179zM254 -14v2
q35 18 57 47t23 61q-8 -17 -31 -34.5t-59 -17.5q-65 0 -109.5 47t-44.5 132q0 52 17.5 108.5t33 86t42.5 74.5q17 28 -3 41q-27 17 -85 -24l-1 1q30 35 91 59t115 34v-1q-161 -179 -161 -344q0 -72 32.5 -112t77.5 -40q38 0 61 26t23 70q0 51 -23 88.5t-42 46.5v2
q42 -9 78.5 -63t36.5 -120q0 -116 -129 -170z" />
    <glyph glyph-name="Agrave" unicode="&#xc0;" horiz-adv-x="633" 
d="M630 182q48 -81 27.5 -144.5t-94.5 -63.5q-58 0 -93 41q-37 -37 -101 -42l-17 34q12 5 22 12t16.5 12.5t11 18t6.5 17t3.5 21t1.5 19.5v23v21q-38 -83 -101 -132t-135 -49q-74 0 -124 49.5t-50 123.5q0 133 198 244q-69 30 -78.5 84.5t42.5 108.5t145 81l69 17
q60 16 71 25q10 10 18 17l-37 15q-97 35 -106 28q-3 -2 -3 -11l-12 -14l-10 -5l-32 5q-28 40 -9 67q-99 50 -99 111q0 44 42 67t102 12l8 -38q-6 5 -12 1.5t-10 -13.5t-4 -21q0 -35 39 -67t131 -73l31 -14l-18 -49q39 33 101 48l28 -10l5 -9l-8 -17q-79 -48 -79 -239
q0 -123 8 -221.5t20.5 -150.5t27.5 -52q11 0 12.5 30.5t-8.5 63.5l4 13l8 9zM436 744l23 -9l11 31l-20 9q-97 43 -138 77.5t-41 71.5q0 33 24 44l-4 19q-50 7 -83 -13t-33 -58q0 -60 104 -108q-27 -22 -1 -61l19 -3l2 1l8 9q0 12 5.5 16.5t21 3.5t39 -8.5t63.5 -21.5z
M256 924q0 -42 46.5 -79t141.5 -79l9 -4l-4 -12l-8 3q-36 13 -59.5 20t-45.5 10t-33 -4t-11 -25l-2 -1q-14 22 -7.5 37t24.5 17q-53 23 -85 48t-32 61q0 35 28 51t71 10q-33 -16 -33 -53zM563 -16q63 0 80.5 58.5t-24.5 130.5l-24 2l-1 -1l-3 -10q13 -44 7 -75.5t-26 -31.5
q-33 0 -52 111t-19 326q0 99 19.5 157t61.5 87l5 12l-1 2l-17 6q-59 -15 -109 -62q-14 -11 -78 -28q-29 -6 -68 -17q-55 -16 -96.5 -43.5t-60 -58.5t-20 -62t22 -57.5t67.5 -40.5q-209 -111 -209 -246q0 -70 45.5 -116.5t113.5 -46.5q84 0 152.5 70.5t96.5 183.5
q2 -56 2 -78q0 -3 0.5 -23t0 -26l-2 -23t-5.5 -25l-10 -20t-16.5 -20.5t-24.5 -15.5l9 -19q60 7 93 53q30 -53 91 -53zM606 168q37 -62 24.5 -118t-67.5 -56q-63 0 -90 74q-28 -65 -96 -74q16 8 27.5 17.5t18.5 22.5l11.5 21.5t6.5 26.5t2.5 24t0 26.5t-0.5 23.5
q0 32 -4 136t-4 197q0 105 6 132q-107 0 -192 -52q-78 -48 -68 -103q7 -36 55 -66l-1 -2q-36 11 -58 33.5t-23.5 51.5t13 58t54 56.5t97.5 43.5q24 7 54 14.5l45.5 11.5t30.5 9.5t22 12.5q48 45 103 59l1 -2q-42 -28 -65 -83t-23 -169q0 -225 20 -336t66 -111q27 0 38 30.5
t-5 89.5zM395 554q0 -53 -23 -78.5t-111 -68.5l-14 -7l-3 8q-79 50 -37 111q37 53 136 79q40 11 81 13q-4 -23 -4 -51l-7 4h-3zM407 600q-114 -10 -170 -66q-48 -47 -15 -90q12 -15 34 -27q83 40 103.5 63.5t20.5 77.5l25 16zM425 352l4 -1q-16 -173 -89 -267t-163 -94
q-65 0 -104.5 45t-39.5 108q0 141 235 255q90 44 116 71.5t26 84.5h3q10 -90 3 -162t-41 -131h-2q9 38 9.5 66t-9.5 49.5t-36.5 20.5t-71.5 -21q-88 -44 -131 -103.5t-43 -116.5q0 -48 26.5 -82t71.5 -34q73 0 144 81t92 231zM272 367q65 33 85.5 8.5t-0.5 -112.5l15 -12h2
l14 7q-6 -69 -71.5 -138.5t-127.5 -69.5q-36 0 -59.5 30t-23.5 76q0 60 44 116t122 95zM365 241l-24 19q21 86 7.5 106.5t-69.5 -8.5q-74 -37 -116 -90.5t-42 -111.5q0 -42 19.5 -69t48.5 -27q51 0 102 51.5t81 129.5h-7z" />
    <glyph glyph-name="Aacute" unicode="&#xc1;" horiz-adv-x="633" 
d="M252 735l-38 -15l-18 50l31 14q92 41 131 73t39 67q0 11 -4 21t-10 13.5t-12 -1.5l8 38q60 11 102 -12t42 -67q0 -61 -99 -111q19 -27 -9 -67l-32 -5l-10 5l-12 14q1 13 -10 13q-15 0 -99 -30zM233 775l-20 -9l11 -31l23 9q40 14 63.5 21.5t39 8.5t21 -3.5t5.5 -16.5
l8 -9l2 -1l19 3q26 39 -1 61q104 48 104 108q0 38 -33 58t-83 13l-4 -19q24 -11 24 -44q0 -37 -41 -71.5t-138 -77.5zM242 753l-8 -3l-4 12l9 4q95 42 141.5 79t46.5 79q0 37 -33 53q43 6 71 -10t28 -51q0 -36 -32 -61t-85 -48q18 -2 24.5 -17t-7.5 -37l-2 1q0 18 -11 25
t-33 4t-45.5 -10t-59.5 -20zM630 182q48 -81 27.5 -144.5t-94.5 -63.5q-58 0 -93 41q-37 -37 -101 -42l-17 34q12 5 22 12t16.5 12.5t11 18t6.5 17t3.5 21t1.5 19.5v23v21q-38 -83 -101 -132t-135 -49q-74 0 -124 49.5t-50 123.5q0 133 198 244q-69 30 -78.5 84.5
t42.5 108.5t145 81l69 17q60 16 71 25q49 49 120 66l28 -10l5 -9l-8 -17q-79 -48 -79 -239q0 -123 8 -221.5t20.5 -150.5t27.5 -52q11 0 12.5 30.5t-8.5 63.5l4 13l8 9zM563 -16q63 0 80.5 58.5t-24.5 130.5l-24 2l-1 -1l-3 -10q13 -44 7 -75.5t-26 -31.5q-33 0 -52 111
t-19 326q0 99 19.5 157t61.5 87l5 12l-1 2l-17 6q-59 -15 -109 -62q-14 -11 -78 -28q-29 -6 -68 -17q-55 -16 -96.5 -43.5t-60 -58.5t-20 -62t22 -57.5t67.5 -40.5q-209 -111 -209 -246q0 -70 45.5 -116.5t113.5 -46.5q84 0 152.5 70.5t96.5 183.5q2 -56 2 -78q0 -3 0.5 -23
t0 -26l-2 -23t-5.5 -25l-10 -20t-16.5 -20.5t-24.5 -15.5l9 -19q60 7 93 53q30 -53 91 -53zM606 168q37 -62 24.5 -118t-67.5 -56q-63 0 -90 74q-28 -65 -96 -74q16 8 27.5 17.5t18.5 22.5l11.5 21.5t6.5 26.5t2.5 24t0 26.5t-0.5 23.5q0 32 -4 136t-4 197q0 105 6 132
q-107 0 -192 -52q-78 -48 -68 -103q7 -36 55 -66l-1 -2q-36 11 -58 33.5t-23.5 51.5t13 58t54 56.5t97.5 43.5q24 7 54 14.5l45.5 11.5t30.5 9.5t22 12.5q48 45 103 59l1 -2q-42 -28 -65 -83t-23 -169q0 -225 20 -336t66 -111q27 0 38 30.5t-5 89.5zM395 554
q0 -53 -23 -78.5t-111 -68.5l-14 -7l-3 8q-79 50 -37 111q37 53 136 79q40 11 81 13q-4 -23 -4 -51l-7 4h-3zM407 600q-114 -10 -170 -66q-48 -47 -15 -90q12 -15 34 -27q83 40 103.5 63.5t20.5 77.5l25 16zM425 352l4 -1q-16 -173 -89 -267t-163 -94q-65 0 -104.5 45
t-39.5 108q0 141 235 255q90 44 116 71.5t26 84.5h3q10 -90 3 -162t-41 -131h-2q9 38 9.5 66t-9.5 49.5t-36.5 20.5t-71.5 -21q-88 -44 -131 -103.5t-43 -116.5q0 -48 26.5 -82t71.5 -34q73 0 144 81t92 231zM272 367q65 33 85.5 8.5t-0.5 -112.5l15 -12h2l14 7
q-6 -69 -71.5 -138.5t-127.5 -69.5q-36 0 -59.5 30t-23.5 76q0 60 44 116t122 95zM365 241l-24 19q21 86 7.5 106.5t-69.5 -8.5q-74 -37 -116 -90.5t-42 -111.5q0 -42 19.5 -69t48.5 -27q51 0 102 51.5t81 129.5h-7z" />
    <glyph glyph-name="Acircumflex" unicode="&#xc2;" horiz-adv-x="633" 
d="M205 746q-64 0 -81.5 44.5t27.5 96.5l25 -3q12 -38 15.5 -44.5t11.5 -6.5q41 0 77 71q12 25 16 46l24 13h12l23 -12q15 -57 38.5 -87.5t51.5 -30.5q11 0 15 4.5t6 21.5l49 7q35 -43 15 -81.5t-75 -38.5q-43 0 -81 27q-14 10 -20 13l-18 -36q-27 16 -36 29
q-41 -33 -95 -33zM162 881q-39 -47 -25 -86t68 -39q63 0 103 48q-3 -19 21 -36q13 26 18 27q2 1 5 1q10 0 31 -15q36 -25 72 -25q44 0 60.5 32t-8.5 67l-27 -4q-6 -28 -35 -28q-70 0 -104 123l-14 7h-2l-15 -8q-4 -20 -17 -45q-36 -77 -90 -77q-17 0 -23 9.5t-18 48.5z
M205 766q-30 0 -43.5 16t-13 34t8.5 33q12 -36 46 -36q35 0 64 28.5t41 54.5t17 47h2q35 -130 118 -130q43 0 50 36q20 -25 8 -54t-48 -29q-30 0 -58.5 20t-44.5 20q-18 0 -27 -16q-6 10 1.5 22t27.5 7q-22 23 -32 45q-12 -47 -44 -72.5t-73 -25.5zM326 832l3 -5
q-6 -2 -8 -4zM630 182q48 -81 27.5 -144.5t-94.5 -63.5q-58 0 -93 41q-37 -37 -101 -42l-17 34q12 5 22 12t16.5 12.5t11 18t6.5 17t3.5 21t1.5 19.5v23v21q-38 -83 -101 -132t-135 -49q-74 0 -124 49.5t-50 123.5q0 133 198 244q-69 30 -78.5 84.5t42.5 108.5t145 81l69 17
q60 16 71 25q49 49 120 66l28 -10l5 -9l-8 -17q-79 -48 -79 -239q0 -123 8 -221.5t20.5 -150.5t27.5 -52q11 0 12.5 30.5t-8.5 63.5l4 13l8 9zM563 -16q63 0 80.5 58.5t-24.5 130.5l-24 2l-1 -1l-3 -10q13 -44 7 -75.5t-26 -31.5q-33 0 -52 111t-19 326q0 99 19.5 157
t61.5 87l5 12l-1 2l-17 6q-59 -15 -109 -62q-14 -11 -78 -28q-29 -6 -68 -17q-55 -16 -96.5 -43.5t-60 -58.5t-20 -62t22 -57.5t67.5 -40.5q-209 -111 -209 -246q0 -70 45.5 -116.5t113.5 -46.5q84 0 152.5 70.5t96.5 183.5q2 -56 2 -78q0 -3 0.5 -23t0 -26l-2 -23t-5.5 -25
l-10 -20t-16.5 -20.5t-24.5 -15.5l9 -19q60 7 93 53q30 -53 91 -53zM606 168q37 -62 24.5 -118t-67.5 -56q-63 0 -90 74q-28 -65 -96 -74q16 8 27.5 17.5t18.5 22.5l11.5 21.5t6.5 26.5t2.5 24t0 26.5t-0.5 23.5q0 32 -4 136t-4 197q0 105 6 132q-107 0 -192 -52
q-78 -48 -68 -103q7 -36 55 -66l-1 -2q-36 11 -58 33.5t-23.5 51.5t13 58t54 56.5t97.5 43.5q24 7 54 14.5l45.5 11.5t30.5 9.5t22 12.5q48 45 103 59l1 -2q-42 -28 -65 -83t-23 -169q0 -225 20 -336t66 -111q27 0 38 30.5t-5 89.5zM395 554q0 -53 -23 -78.5t-111 -68.5
l-14 -7l-3 8q-79 50 -37 111q37 53 136 79q40 11 81 13q-4 -23 -4 -51l-7 4h-3zM407 600q-114 -10 -170 -66q-48 -47 -15 -90q12 -15 34 -27q83 40 103.5 63.5t20.5 77.5l25 16zM425 352l4 -1q-16 -173 -89 -267t-163 -94q-65 0 -104.5 45t-39.5 108q0 141 235 255
q90 44 116 71.5t26 84.5h3q10 -90 3 -162t-41 -131h-2q9 38 9.5 66t-9.5 49.5t-36.5 20.5t-71.5 -21q-88 -44 -131 -103.5t-43 -116.5q0 -48 26.5 -82t71.5 -34q73 0 144 81t92 231zM272 367q65 33 85.5 8.5t-0.5 -112.5l15 -12h2l14 7q-6 -69 -71.5 -138.5t-127.5 -69.5
q-36 0 -59.5 30t-23.5 76q0 60 44 116t122 95zM365 241l-24 19q21 86 7.5 106.5t-69.5 -8.5q-74 -37 -116 -90.5t-42 -111.5q0 -42 19.5 -69t48.5 -27q51 0 102 51.5t81 129.5h-7z" />
    </font>
</defs>
</svg>
